<?xml version="1.0" standalone="no"?>
<!DOCTYPE svg PUBLIC "-//W3C//DTD SVG 1.1//EN" "http://www.w3.org/Graphics/SVG/1.1/DTD/svg11.dtd" >
<svg xmlns="http://www.w3.org/2000/svg" xmlns:xlink="http://www.w3.org/1999/xlink" version="1.1">
<metadata>
Created by FontForge 20170731 at Wed Feb  6 07:19:27 2019
 By Aleksey,,,
Copyright 2019 Dinamo (Johannes Breyer, Fabian Harb). All rights reserved. |DCNT
</metadata>
<defs>
<font id="FavoritPro-Light" horiz-adv-x="1229" >
  <font-face 
    font-family="Favorit Pro Light"
    font-weight="300"
    font-stretch="normal"
    units-per-em="2048"
    panose-1="2 0 0 6 3 0 0 2 0 4"
    ascent="1438"
    descent="-610"
    x-height="1024"
    cap-height="1434"
    bbox="-1444 -512 4377 2081"
    underline-thickness="50"
    underline-position="-150"
    unicode-range="U+000D-FB02"
  />
<missing-glyph horiz-adv-x="1393" 
d="M184 0v1434h1024v-1434h-1024zM307 113h778v1208h-778v-1208z" />
    <glyph glyph-name="fi" unicode="fi" horiz-adv-x="1262" 
d="M279 0v911h-236v113h236v225q0 98 46 141.5t148 43.5h256v-113h-235q-46 0 -64 -18t-18 -64v-215h686v-1024h-133v911h-553v-911h-133zM954 1208v174h154v-174h-154z" />
    <glyph glyph-name="fl" unicode="fl" horiz-adv-x="1262" 
d="M279 0v911h-236v113h236v225q0 98 46 141.5t148 43.5h625v-1434h-133v1321h-471q-46 0 -64 -18t-18 -64v-215h266v-113h-266v-911h-133z" />
    <glyph glyph-name="f_f" unicode="ff" horiz-adv-x="1405" 
d="M279 0v911h-236v113h236v225q0 98 46 141.5t148 43.5h256v-113h-235q-46 0 -64 -18t-18 -64v-215h553v225q0 98 46 141.5t148 43.5h256v-113h-235q-46 0 -64 -18t-18 -64v-215h266v-113h-266v-911h-133v911h-553v-911h-133z" />
    <glyph glyph-name="f_f_i" unicode="ffi" horiz-adv-x="1948" 
d="M279 0v911h-236v113h236v225q0 98 46 141.5t148 43.5h256v-113h-235q-46 0 -64 -18t-18 -64v-215h553v225q0 98 46 141.5t148 43.5h256v-113h-235q-46 0 -64 -18t-18 -64v-215h686v-1024h-133v911h-553v-911h-133v911h-553v-911h-133zM1640 1208v174h154v-174h-154z" />
    <glyph glyph-name="f_f_l" unicode="ffl" horiz-adv-x="1948" 
d="M279 0v911h-236v113h236v225q0 98 46 141.5t148 43.5h256v-113h-235q-46 0 -64 -18t-18 -64v-215h553v225q0 98 46 141.5t148 43.5h625v-1434h-133v1321h-471q-46 0 -64 -18t-18 -64v-215h266v-113h-266v-911h-133v911h-553v-911h-133z" />
    <glyph glyph-name=".notdef" horiz-adv-x="1393" 
d="M184 0v1434h1024v-1434h-1024zM307 113h778v1208h-778v-1208z" />
    <glyph glyph-name=".null" horiz-adv-x="0" 
 />
    <glyph glyph-name="nonmarkingreturn" horiz-adv-x="682" 
 />
    <glyph glyph-name="CR" unicode="&#xd;" horiz-adv-x="512" 
 />
    <glyph glyph-name="space" unicode=" " horiz-adv-x="512" 
 />
    <glyph glyph-name="exclam" unicode="!" horiz-adv-x="496" 
d="M217 420l-41 584v430h143v-430l-40 -584h-62zM170 0v174h154v-174h-154z" />
    <glyph glyph-name="quotedbl" unicode="&#x22;" horiz-adv-x="700" 
d="M166 1004l-39 266v164h133v-164l-49 -266h-45zM483 1004l-39 266v164h134v-164l-50 -266h-45z" />
    <glyph glyph-name="numbersign" unicode="#" horiz-adv-x="1374" 
d="M1292 932h-245l-89 -430h248v-113h-271l-81 -389h-133l81 389h-367l-83 -389h-133l83 389h-220v113h244l93 430h-249v112h273l83 390h133l-83 -390h361l81 390h133l-81 -390h222v-112zM825 502l89 430h-362l-93 -430h366z" />
    <glyph glyph-name="dollar" unicode="$" horiz-adv-x="1253" 
d="M1133 387q2 -187 -135 -298t-365 -109q-39 0 -50 1l-38 -227h-127l41 242q-184 37 -281.5 154t-97.5 301h139q0 -122 69 -205.5t193 -114.5l90 535l-77 16q-342 70 -342 362q-3 173 135 293t356 117q6 0 60 -2l38 227h127l-42 -249q151 -41 236 -150q87 -110 93 -266
h-139q-7 101 -62.5 174.5t-149.5 107.5l-85 -508l43 -8q371 -74 371 -393zM532 825l64 -12l85 507q-6 1 -28 1h-20q-147 1 -245.5 -78.5t-96.5 -195.5q0 -173 241 -222zM993 379q0 104 -66 166t-204 90l-29 6l-89 -528h26h20q158 0 250 75t92 191z" />
    <glyph glyph-name="percent" unicode="%" horiz-adv-x="1855" 
d="M430 0l860 1434h133l-860 -1434h-133zM1118 403q0 189 89.5 302.5t242.5 113.5q152 0 241.5 -113.5t89.5 -302.5q0 -188 -89.5 -300.5t-241.5 -112.5q-153 0 -242.5 112.5t-89.5 300.5zM1446 92h8q64 -1 111 44.5t69.5 115.5t21.5 151q0 129 -53.5 221.5t-148.5 92.5h-8
q-96 0 -149.5 -92t-53.5 -222q-1 -127 53.5 -220t149.5 -91zM76 1028q0 189 89.5 302.5t242.5 113.5q152 0 241.5 -113.5t89.5 -302.5q0 -188 -89.5 -300.5t-241.5 -112.5q-153 0 -242.5 112.5t-89.5 300.5zM404 717h8q64 -1 111 44.5t69.5 115.5t21.5 151
q0 129 -53.5 221.5t-148.5 92.5h-8q-96 0 -149.5 -92t-53.5 -222q-1 -127 53.5 -220t149.5 -91z" />
    <glyph glyph-name="ampersand" unicode="&#x26;" horiz-adv-x="1315" 
d="M119 379q0 124 63 217q62 93 172 131q-105 43 -165 130.5t-60 207.5q-2 165 112 268t281 101h252v-134h-237q-114 0 -191.5 -69t-77.5 -187q0 -111 80 -180t201 -69h332v258h139v-258h235v-133h-235v-662h-516q-165 -2 -276.5 103.5t-108.5 275.5zM551 133h330v529h-332
q-129 0 -210 -67.5t-81 -184.5q0 -132 80 -204.5t213 -72.5z" />
    <glyph glyph-name="quotesingle" unicode="'" horiz-adv-x="383" 
d="M166 1004l-39 266v164h133v-164l-49 -266h-45z" />
    <glyph glyph-name="parenleft" unicode="(" horiz-adv-x="696" 
d="M106 717q0 283 68 513q69 229 192 361q124 132 283 140v-113q-121 -9 -214 -128t-144 -320t-51 -453q0 -251 51 -454q51 -201 144 -320q93 -118 214 -127v-113q-159 8 -283 140q-123 132 -192 360q-68 231 -68 514z" />
    <glyph glyph-name="parenright" unicode=")" horiz-adv-x="696" 
d="M590 717q0 -285 -69 -514q-67 -228 -192 -360q-122 -132 -282 -140v113q121 9 214 128t144 319q51 202 51 454t-51 454q-51 201 -144 320q-93 118 -214 127v113q160 -8 282 -140q125 -132 192 -361q69 -228 69 -513z" />
    <glyph glyph-name="asterisk" unicode="*" horiz-adv-x="879" 
d="M315 881l-88 51l123 213h-246v102h246l-123 213l90 51l123 -213l123 213l88 -51l-123 -213h246v-102h-246l123 -213l-90 -51l-123 213z" />
    <glyph glyph-name="plus" unicode="+" horiz-adv-x="1198" 
d="M532 31v436h-440v123h440v434h134v-434h440v-123h-440v-436h-134z" />
    <glyph glyph-name="comma" unicode="," horiz-adv-x="492" 
d="M72 -236v82h61q123 0 123 123v31h-113v205h205v-246q0 -93 -50.5 -144t-143.5 -51h-82z" />
    <glyph glyph-name="hyphen" unicode="-" horiz-adv-x="795" 
d="M141 563v113h512v-113h-512z" />
    <glyph glyph-name="period" unicode="." horiz-adv-x="492" 
d="M143 0v205h205v-205h-205z" />
    <glyph glyph-name="slash" unicode="/" horiz-adv-x="838" 
d="M70 0l553 1434h143l-553 -1434h-143z" />
    <glyph glyph-name="zero" unicode="0" horiz-adv-x="1327" 
d="M121 717q0 356 142 546.5t401 190.5q258 0 400 -190.5t142 -546.5t-142 -546.5t-400 -190.5q-259 0 -401 190.5t-142 546.5zM653 113h21q97 0 186 56q90 56 148 191q59 136 59 357t-59 357q-58 135 -148 191q-89 56 -186 56h-21q-97 0 -186 -56q-90 -56 -148 -191
q-59 -136 -59 -357t59 -357q58 -135 148 -191q89 -56 186 -56z" />
    <glyph glyph-name="one" unicode="1" horiz-adv-x="739" 
d="M434 1434h105v-1434h-133v1230l-347 -329v168z" />
    <glyph glyph-name="two" unicode="2" horiz-adv-x="1139" 
d="M278 137h754v-137h-928v143l576 584q81 82 123 137q39 52 54 98.5t15 110.5q2 99 -84 174.5t-204 73.5h-21q-136 0 -219 -83.5t-86 -221.5h-139q-2 191 126 315.5t324 122.5q192 2 319 -108t124 -273q0 -81 -26 -153q-24 -66 -67.5 -125.5t-117.5 -132.5z" />
    <glyph glyph-name="three" unicode="3" horiz-adv-x="1169" 
d="M102 365h140q23 -120 106.5 -186t212.5 -66h21q138 0 229.5 73.5t91.5 200.5q0 119 -88 190.5t-223 71.5h-92v133h110q126 0 204.5 75.5t78.5 186.5q0 127 -87 202t-222 75h-21q-119 0 -201.5 -73t-93.5 -183h-139q6 165 134.5 278.5t309.5 110.5q130 1 233.5 -44.5
t165 -136.5t60.5 -212q0 -113 -66.5 -207t-168.5 -137q107 -35 176 -123.5t69 -212.5q1 -94 -37 -171t-103.5 -127t-151 -77t-179.5 -26q-206 0 -326.5 99.5t-142.5 285.5z" />
    <glyph glyph-name="four" unicode="4" horiz-adv-x="1208" 
d="M907 475h236v-129h-236v-346h-133v346h-715v152l693 936h155v-959zM189 475h585v794z" />
    <glyph glyph-name="five" unicode="5" horiz-adv-x="1161" 
d="M1047 461q2 -136 -62.5 -247.5t-175.5 -173.5t-244 -60q-197 -2 -335 103t-150 286h139q16 -120 109.5 -188t226.5 -68h20q144 -2 239 96t93 242q0 137 -86.5 225t-222.5 88h-20q-86 0 -172 -43q-87 -44 -136 -121h-137l172 834h727v-138h-613l-109 -511q53 54 130.5 83
t167.5 29q193 3 317.5 -124t121.5 -312z" />
    <glyph glyph-name="six" unicode="6" horiz-adv-x="1241" 
d="M1114 479q1 -110 -35.5 -204.5t-100.5 -159.5t-151.5 -100.5t-185.5 -34.5q-245 -2 -384.5 186.5t-137.5 513.5q-2 221 71.5 400t204 278t291.5 96q179 0 297 -94q117 -94 152 -264h-140q-25 100 -108 162.5t-191 62.5h-20q-116 2 -212.5 -79t-155.5 -227t-66 -329
q51 125 163 190.5t246 65.5q200 3 332.5 -130.5t130.5 -332.5zM975 461q0 150 -90.5 249t-235.5 99h-20q-144 2 -243.5 -99t-96.5 -247q-3 -147 97 -249.5t243 -100.5h20q138 -2 233 99.5t93 248.5z" />
    <glyph glyph-name="seven" unicode="7" horiz-adv-x="1063" 
d="M47 1434h952v-164q-277 -176 -413 -472q-137 -298 -137 -757v-41h-140v59q-1 445 148 768t403 469h-813v138z" />
    <glyph glyph-name="eight" unicode="8" horiz-adv-x="1155" 
d="M150 360q0 124 70 214.5t171 125.5q-109 31 -190.5 133t-79.5 222q-3 176 126.5 288.5t330.5 110.5q200 2 329 -110.5t127 -288.5q2 -120 -79.5 -222t-190.5 -133q102 -35 172 -125.5t70 -214.5q2 -168 -119.5 -275t-308.5 -105q-188 -2 -309.5 105t-118.5 275zM567 776
h21q126 -2 217.5 78.5t89.5 189.5q0 120 -87.5 198.5t-219.5 78.5h-21q-132 0 -219.5 -78.5t-87.5 -198.5q-2 -109 89.5 -189.5t217.5 -78.5zM567 113h21q120 0 200 73t80 185q2 108 -81 186t-199 76h-21q-117 0 -198.5 -76.5t-81.5 -185.5q0 -112 80 -185t200 -73z" />
    <glyph glyph-name="nine" unicode="9" horiz-adv-x="1239" 
d="M1122 754q2 -222 -71.5 -400.5t-204 -277.5t-291.5 -96q-179 0 -297 94q-117 94 -152 264h140q25 -101 108.5 -163t190.5 -62h20q116 -2 212.5 78t155.5 226t66 330q-51 -124 -163 -189.5t-246 -65.5q-200 -3 -332.5 130t-130.5 332q-2 146 61.5 262t172 178t239.5 60
q245 2 384.5 -186.5t137.5 -513.5zM952 971q2 148 -97.5 250t-242.5 100h-20q-138 2 -233 -99.5t-93 -248.5q-2 -150 89.5 -250t236.5 -98h20q144 -2 243.5 99t96.5 247z" />
    <glyph glyph-name="colon" unicode=":" horiz-adv-x="487" 
d="M141 0v205h205v-205h-205zM141 819v205h205v-205h-205z" />
    <glyph glyph-name="semicolon" unicode=";" horiz-adv-x="555" 
d="M115 -236v82h61q123 0 123 123v31h-113v205h205v-246q0 -93 -50.5 -144t-143.5 -51h-82zM186 819v205h205v-205h-205z" />
    <glyph glyph-name="less" unicode="&#x3c;" horiz-adv-x="1106" 
d="M961 947v-150l-676 -267l676 -267v-156l-871 362v115z" />
    <glyph glyph-name="equal" unicode="=" horiz-adv-x="1315" 
d="M152 645v133h1011v-133h-1011zM152 274v134h1011v-134h-1011z" />
    <glyph glyph-name="greater" unicode="&#x3e;" horiz-adv-x="1106" 
d="M145 944l871 -362v-115l-871 -363v150l676 267l-676 267v156z" />
    <glyph glyph-name="question" unicode="?" horiz-adv-x="928" 
d="M281 420v260q0 92 35.5 128t127.5 36h41q108 0 167 66t59 167q0 98 -65 160.5t-181 62.5h-391v134h420q150 2 254 -101.5t102 -253.5q0 -165 -99.5 -266.5t-267.5 -101.5q-40 0 -54.5 -15t-14.5 -55v-221h-133zM270 0v174h154v-174h-154z" />
    <glyph glyph-name="at" unicode="@" horiz-adv-x="1882" 
d="M109 635q0 261 117 456q117 196 308 300q193 104 410 104q240 0 427 -97q190 -99 292 -272q104 -176 104 -401q0 -178 -68 -299q-69 -121 -167 -175q-100 -56 -197 -56h-151v157q-26 -72 -100.5 -125t-170.5 -53q-160 -2 -268 120.5t-106 319.5q-2 197 105.5 314.5
t268.5 115.5q95 0 164 -44t107 -119v143h123v-717h18q68 0 137 33q70 34 121 127t51 258q2 192 -83.5 342.5t-243.5 233.5t-363 81q-194 0 -354 -93q-158 -90 -254 -262q-94 -169 -94 -392q-1 -178 52 -325t148.5 -246.5t231 -153.5t295.5 -53h501v-113h-512
q-182 -2 -337 57t-270 170t-179.5 282t-62.5 382zM915 287h17q103 -2 178 92t74 235q0 146 -74.5 232t-177.5 86h-17q-105 0 -174 -84.5t-69 -233.5q0 -146 68 -236.5t175 -90.5z" />
    <glyph glyph-name="A" unicode="A" horiz-adv-x="1386" 
d="M1217 0l-160 395h-733l-160 -395h-148l588 1434h180l584 -1434h-151zM377 528h627l-313 774z" />
    <glyph glyph-name="B" unicode="B" horiz-adv-x="1343" 
d="M199 0v1434h598q172 2 284.5 -101.5t110.5 -273.5q0 -116 -67.5 -210t-161.5 -122q47 -8 92 -32.5t84 -64t62 -101t22 -134.5q3 -175 -117 -286t-295 -109h-612zM342 793h440q120 0 193.5 67.5t73.5 186.5q0 118 -73.5 185.5t-193.5 67.5h-440v-507zM342 133h438
q135 0 217 69t82 195q0 127 -81 194q-82 68 -216 68h-440v-526z" />
    <glyph glyph-name="C" unicode="C" horiz-adv-x="1421" 
d="M111 717q-2 209 78 377.5t231 265.5t346 94q232 3 388 -129t165 -332h-143q-18 142 -121 235t-279 93h-20q-117 2 -213 -45.5t-159 -130t-97 -193t-33 -235.5q-1 -125 33 -235.5t97 -193t159 -130t213 -45.5h20q176 0 279 92.5t121 234.5h143q-9 -199 -165.5 -331
t-387.5 -129q-195 -3 -346 94t-231 265.5t-78 377.5z" />
    <glyph glyph-name="D" unicode="D" horiz-adv-x="1448" 
d="M199 0v1434h491q291 3 469 -193.5t176 -527.5q3 -330 -174.5 -523t-470.5 -190h-491zM342 133h328q250 0 386 152t136 432q0 281 -136 432t-386 151h-328v-1167z" />
    <glyph glyph-name="E" unicode="E" horiz-adv-x="1315" 
d="M199 0v1434h1001v-134h-858v-495h735v-133h-735v-539h879v-133h-1022z" />
    <glyph glyph-name="F" unicode="F" horiz-adv-x="1208" 
d="M199 0v1434h952v-134h-809v-538h705v-133h-705v-629h-143z" />
    <glyph glyph-name="G" unicode="G" horiz-adv-x="1493" 
d="M111 717q-2 214 77.5 381.5t233.5 262.5t358 93q240 1 394 -131.5t176 -349.5h-144q-24 163 -134.5 255.5t-280.5 92.5h-21q-231 2 -374.5 -160.5t-141.5 -443.5q-1 -282 143 -444t379 -160h21q114 -2 212 45.5t159 140t59 211.5v74h-441v133h441q133 0 133 -133v-584
h-133v186q-67 -96 -185 -151q-117 -55 -264 -55q-202 -2 -355 92.5t-233 262.5t-79 382z" />
    <glyph glyph-name="H" unicode="H" horiz-adv-x="1493" 
d="M199 0v1434h143v-650h809v650h143v-1434h-143v651h-809v-651h-143z" />
    <glyph glyph-name="I" unicode="I" horiz-adv-x="541" 
d="M199 0v1434h143v-1434h-143z" />
    <glyph glyph-name="J" unicode="J" horiz-adv-x="793" 
d="M53 0v133h223q185 0 185 236v1065h143v-1059q0 -184 -83.5 -279.5t-241.5 -95.5h-226z" />
    <glyph glyph-name="K" unicode="K" horiz-adv-x="1370" 
d="M1167 0l-516 753l-309 -306v-447h-143v1434h143v-799l805 799h190l-583 -579l592 -855h-179z" />
    <glyph glyph-name="L" unicode="L" horiz-adv-x="1233" 
d="M199 0v1434h143v-1301h858v-133h-1001z" />
    <glyph glyph-name="M" unicode="M" horiz-adv-x="1882" 
d="M1446 1434h237v-1434h-141v1316l-500 -1316h-198l-504 1320v-1320h-141v1434h243l504 -1326z" />
    <glyph glyph-name="N" unicode="N" horiz-adv-x="1513" 
d="M1171 1434h144v-1434h-174l-799 1234v-1234h-143v1434h184l788 -1215v1215z" />
    <glyph glyph-name="O" unicode="O" horiz-adv-x="1532" 
d="M111 717q-1 166 48.5 305.5t137 234t208.5 146.5t261 51q140 1 261 -51t208.5 -146.5t137 -234t48.5 -305.5q1 -166 -48.5 -305.5t-137 -234t-208.5 -146.5t-261 -51q-140 -1 -261 51t-208.5 146.5t-137 234t-48.5 305.5zM756 113h20q220 -2 362 165t140 439
q2 272 -140 439t-362 165h-20q-220 2 -362 -165t-140 -439q-2 -272 140 -439t362 -165z" />
    <glyph glyph-name="P" unicode="P" horiz-adv-x="1298" 
d="M199 0v1434h573q93 1 175.5 -28t144.5 -82.5t97 -134.5t34 -179q2 -195 -127.5 -308.5t-323.5 -111.5h-430v-590h-143zM342 723h399q159 0 248.5 73.5t89.5 213.5q0 142 -92 216t-246 74h-399v-577z" />
    <glyph glyph-name="Q" unicode="Q" horiz-adv-x="1532" 
d="M942 -225h303v-133h-334q-215 0 -215 217v124q-170 15 -303 108t-208.5 256t-73.5 370q-1 166 48.5 305.5t137 234t208.5 146.5t261 51q140 1 261 -51t208.5 -146.5t137 -234t48.5 -305.5q3 -310 -160 -509.5t-421 -223.5v-107q0 -54 24 -78t78 -24zM756 113h20
q220 -2 362 165t140 439q2 272 -140 439t-362 165h-20q-220 2 -362 -165t-140 -439q-2 -272 140 -439t362 -165z" />
    <glyph glyph-name="R" unicode="R" horiz-adv-x="1382" 
d="M199 0v1434h585q185 3 313.5 -108.5t125.5 -274.5q0 -121 -59 -213q-58 -91 -158 -131q107 0 151.5 -44.5t44.5 -150.5v-512h-143v512q0 92 -92 92h-625v-604h-143zM342 737h422q127 -2 222.5 82.5t92.5 210.5q0 127 -83.5 198.5t-231.5 71.5h-422v-563z" />
    <glyph glyph-name="S" unicode="S" horiz-adv-x="1266" 
d="M86 451h143q0 -159 111.5 -248.5t296.5 -89.5h20q157 0 247.5 75t90.5 191q0 99 -65 158.5t-201 87.5l-229 47q-342 70 -342 372q-3 173 135 293t356 117q227 2 367 -118.5t145 -321.5h-143q-9 138 -109 222.5t-250 84.5h-20q-147 0 -242.5 -78.5t-95.5 -195.5
q0 -183 238 -232l229 -45q371 -74 371 -383q2 -187 -135 -298t-365 -109q-261 0 -407 124t-146 347z" />
    <glyph glyph-name="T" unicode="T" horiz-adv-x="1249" 
d="M553 0v1300h-522v134h1188v-134h-523v-1300h-143z" />
    <glyph glyph-name="U" unicode="U" horiz-adv-x="1413" 
d="M184 512v922h144v-902q0 -200 95 -309.5t273 -109.5h21q178 0 273 109.5t95 309.5v902h144v-922q0 -245 -136 -388.5t-386 -143.5q-256 0 -389.5 142.5t-133.5 389.5z" />
    <glyph glyph-name="V" unicode="V" horiz-adv-x="1393" 
d="M1219 1434h153l-590 -1434h-159l-613 1434h154l540 -1275z" />
    <glyph glyph-name="W" unicode="W" horiz-adv-x="1878" 
d="M1683 1434h144l-354 -1434h-218l-316 1287l-316 -1287h-217l-355 1434h146l322 -1323l317 1323h213l321 -1312z" />
    <glyph glyph-name="X" unicode="X" horiz-adv-x="1276" 
d="M1249 0h-170l-443 617l-446 -617h-165l529 732l-505 702h170l420 -584l422 584h166l-506 -699z" />
    <glyph glyph-name="Y" unicode="Y" horiz-adv-x="1217" 
d="M1044 1434h158l-522 -840v-594h-143v594l-523 840h162l434 -708z" />
    <glyph glyph-name="Z" unicode="Z" horiz-adv-x="1221" 
d="M84 0v152l872 1148h-852v134h1014v-142l-878 -1159h899v-133h-1055z" />
    <glyph glyph-name="bracketleft" unicode="[" horiz-adv-x="651" 
d="M188 -297v2028h410v-113h-276v-1802h276v-113h-410z" />
    <glyph glyph-name="backslash" unicode="\" horiz-adv-x="838" 
d="M625 0l-553 1434h143l553 -1434h-143z" />
    <glyph glyph-name="bracketright" unicode="]" horiz-adv-x="651" 
d="M463 1731v-2028h-410v113h276v1802h-276v113h410z" />
    <glyph glyph-name="asciicircum" unicode="^" horiz-adv-x="1057" 
d="M973 584h-137l-310 729l-309 -729h-133l362 850h162z" />
    <glyph glyph-name="underscore" unicode="_" horiz-adv-x="1004" 
d="M61 -113v113h881v-113h-881z" />
    <glyph glyph-name="grave" unicode="`" horiz-adv-x="403" 
d="M242 1167l-181 267h164l117 -267h-100z" />
    <glyph glyph-name="a" unicode="a" horiz-adv-x="1067" 
d="M924 0h-123q-10 53 -10 164q-33 -75 -135 -129.5t-228 -54.5q-134 -2 -230.5 87.5t-93.5 215.5q0 153 104 224q104 73 249 83l323 24v41q0 131 -68 204t-188 73h-10q-103 0 -175 -51q-71 -51 -81 -144h-133q7 135 119 222t274 85q125 0 216 -53t135 -140t44 -196v-430
q0 -150 11 -225zM780 369v137l-297 -21q-112 -8 -178.5 -60t-66.5 -134q0 -84 59 -141.5t145 -57.5h21q69 -2 144 36.5t125 105t48 135.5z" />
    <glyph glyph-name="b" unicode="b" horiz-adv-x="1198" 
d="M297 164v-164h-133v1434h133v-574q44 82 141.5 133t200.5 51q200 2 329.5 -146t127.5 -386q2 -238 -127.5 -386t-329.5 -146q-103 0 -200.5 51t-141.5 133zM625 92h10q102 -1 178 57.5t112.5 153t35.5 209.5q1 115 -35.5 209.5t-112.5 153t-178 57.5h-10
q-104 1 -180 -57.5t-112.5 -153t-35.5 -209.5q-1 -115 35.5 -209.5t112.5 -153t180 -57.5z" />
    <glyph glyph-name="c" unicode="c" horiz-adv-x="1067" 
d="M102 512q-1 152 54 272.5t164 191t253 68.5q167 0 276 -94t124 -254h-133q-18 106 -87 171q-68 65 -169 65h-21q-104 1 -179.5 -57t-112 -152.5t-35.5 -210.5q-1 -116 35.5 -210.5t112 -152.5t179.5 -57h21q100 0 167 66q68 68 89 170h133q-29 -160 -132 -255
q-103 -93 -268 -93q-144 -2 -253 68.5t-164 191t-54 272.5z" />
    <glyph glyph-name="d" unicode="d" horiz-adv-x="1198" 
d="M102 512q-2 238 127.5 386t329.5 146q103 0 200.5 -51t141.5 -133v574h133v-1434h-133v164q-44 -82 -141.5 -133t-200.5 -51q-200 -2 -329.5 146t-127.5 386zM563 92h10q104 -1 180 57.5t112.5 153t35.5 209.5q1 115 -35.5 209.5t-112.5 153t-180 57.5h-10
q-102 1 -177.5 -57.5t-112 -153t-35.5 -209.5q-1 -115 35.5 -209.5t112 -153t177.5 -57.5z" />
    <glyph glyph-name="e" unicode="e" horiz-adv-x="1077" 
d="M102 514q-1 125 36 227.5t101 168t146.5 100.5t173.5 34q182 2 299 -130.5t115 -329.5v-82h-737q3 -202 92.5 -306t228.5 -104h12q211 0 269 201h133q-33 -150 -143 -232q-110 -81 -269 -81q-199 -2 -329 141.5t-128 392.5zM240 614h600q-5 139 -80 228.5t-193 89.5h-20
q-54 0 -103 -17.5t-92.5 -53.5t-73 -99.5t-38.5 -147.5z" />
    <glyph glyph-name="f" unicode="f" horiz-adv-x="719" 
d="M279 0v911h-236v113h236v225q0 98 46 141.5t148 43.5h256v-113h-235q-46 0 -64 -18t-18 -64v-215h266v-113h-266v-911h-133z" />
    <glyph glyph-name="g" unicode="g" horiz-adv-x="1182" 
d="M82 -143h133q20 -95 103 -145t217 -50h20q146 0 238 89.5t92 266.5v166q-102 -184 -340 -184q-196 -2 -320.5 137t-122.5 375q-2 238 124 386t319 146q238 0 340 -184v164h133v-1016q2 -202 -128.5 -332t-344.5 -127q-210 0 -328.5 82t-134.5 226zM549 113h20
q142 0 229 106.5t87 292.5q0 188 -88 304t-228 116h-20q-139 0 -226 -115.5t-87 -304.5q0 -186 85.5 -292.5t227.5 -106.5z" />
    <glyph glyph-name="h" unicode="h" horiz-adv-x="1167" 
d="M164 0v1434h133v-584q54 93 148.5 143.5t220.5 50.5q165 0 256.5 -100.5t91.5 -267.5v-676h-133v635q0 297 -246 297h-21q-59 1 -116.5 -26.5t-102.5 -76t-72 -121t-26 -155.5v-553h-133z" />
    <glyph glyph-name="i" unicode="i" horiz-adv-x="461" 
d="M154 1208v174h153v-174h-153zM164 0v1024h133v-1024h-133z" />
    <glyph glyph-name="j" unicode="j" horiz-adv-x="477" 
d="M170 1208v174h154v-174h-154zM-168 -338v113h266q47 0 64.5 17.5t17.5 64.5v1167h133v-1178q0 -98 -46 -141t-148 -43h-287z" />
    <glyph glyph-name="k" unicode="k" horiz-adv-x="1073" 
d="M879 0l-375 525l-207 -198v-327h-133v1434h133v-939l545 529h182l-426 -408l446 -616h-165z" />
    <glyph glyph-name="l" unicode="l" horiz-adv-x="461" 
d="M164 0v1434h133v-1434h-133z" />
    <glyph glyph-name="m" unicode="m" horiz-adv-x="1823" 
d="M164 0v1024h133v-164q49 86 137 135t201 49q115 0 201 -56t122 -159q111 215 363 215q155 0 251.5 -99t96.5 -275v-670h-133v629q0 303 -236 303h-12q-96 1 -167 -57.5t-105 -153t-33 -209.5v-512h-133v629q0 303 -236 303h-12q-96 1 -167 -57.5t-105 -153t-33 -209.5
v-512h-133z" />
    <glyph glyph-name="n" unicode="n" horiz-adv-x="1167" 
d="M164 0v1024h133v-172q44 86 140 139q95 53 218 53q160 0 259.5 -99t99.5 -275v-670h-133v629q0 303 -246 303h-12q-78 1 -141 -32.5t-103 -92t-61 -134.5t-21 -161v-512h-133z" />
    <glyph glyph-name="o" unicode="o" horiz-adv-x="1143" 
d="M100 512q-2 151 61 275t172 191.5t238 65.5q130 2 238.5 -66t171.5 -191.5t61 -274.5q2 -151 -61 -274.5t-171.5 -191.5t-238.5 -66q-129 -2 -238 65.5t-172 191.5t-61 275zM561 92h21q140 -2 233.5 114.5t91.5 305.5q0 190 -92 305t-233 115h-21q-141 0 -233 -115
t-92 -305q-2 -189 91.5 -305.5t233.5 -114.5z" />
    <glyph glyph-name="p" unicode="p" horiz-adv-x="1198" 
d="M164 -410v1434h133v-164q44 82 141.5 133t200.5 51q200 2 329.5 -146t127.5 -386q2 -238 -127.5 -386t-329.5 -146q-103 0 -200.5 51t-141.5 133v-574h-133zM625 92h10q102 -1 178 57.5t112.5 153t35.5 209.5q1 115 -35.5 209.5t-112.5 153t-178 57.5h-10
q-104 1 -180 -57.5t-112.5 -153t-35.5 -209.5q-1 -115 35.5 -209.5t112.5 -153t180 -57.5z" />
    <glyph glyph-name="q" unicode="q" horiz-adv-x="1198" 
d="M901 -410v574q-44 -82 -141.5 -133t-200.5 -51q-200 -2 -329.5 146t-127.5 386q-2 238 127.5 386t329.5 146q103 0 200.5 -51t141.5 -133v164h133v-1434h-133zM563 92h10q104 -1 180 57.5t112.5 153t35.5 209.5q1 115 -35.5 209.5t-112.5 153t-180 57.5h-10
q-102 1 -177.5 -57.5t-112 -153t-35.5 -209.5q-1 -115 35.5 -209.5t112 -153t177.5 -57.5z" />
    <glyph glyph-name="r" unicode="r" horiz-adv-x="733" 
d="M164 0v1024h123v-233q35 119 120 180q87 63 197 63h92v-123h-82q-147 0 -232 -110.5t-85 -302.5v-498h-133z" />
    <glyph glyph-name="s" unicode="s" horiz-adv-x="977" 
d="M84 307h133q10 -101 81.5 -158t182.5 -57h21q107 0 169 50t62 134q0 63 -40.5 99t-139.5 59l-150 33q-130 29 -204 91q-74 65 -74 185q0 137 105.5 219t261.5 82q175 2 276 -93t109 -234h-134q-9 90 -75.5 152.5t-165.5 62.5h-21q-101 0 -162 -51.5t-61 -124.5
q0 -68 42.5 -105t143.5 -59l160 -35q122 -25 193 -88q69 -61 69 -182q0 -143 -101.5 -225t-272.5 -82q-189 0 -294.5 89.5t-113.5 237.5z" />
    <glyph glyph-name="t" unicode="t" horiz-adv-x="729" 
d="M266 184v727h-235v113h235v332h133v-332h256v-113h-256v-716q0 -46 18 -64t64 -18h205v-113h-225q-102 0 -148.5 43t-46.5 141z" />
    <glyph glyph-name="u" unicode="u" horiz-adv-x="1147" 
d="M154 348v676h133v-635q0 -297 245 -297h21q56 -1 110 26.5t96 76t67 121t24 155.5v553h133v-1024h-133v193q-40 -102 -128 -157.5t-214 -55.5q-165 0 -259.5 101t-94.5 267z" />
    <glyph glyph-name="v" unicode="v" horiz-adv-x="1030" 
d="M852 1024h139l-393 -1024h-166l-393 1024h141l336 -903z" />
    <glyph glyph-name="w" unicode="w" horiz-adv-x="1569" 
d="M1391 1024h131l-328 -1024h-178l-232 884l-231 -884h-176l-330 1024h137l285 -906l231 906h170l241 -920z" />
    <glyph glyph-name="x" unicode="x" horiz-adv-x="1024" 
d="M983 0h-156l-317 421l-320 -421h-149l395 519l-381 505h156l303 -402l305 402h150l-381 -500z" />
    <glyph glyph-name="y" unicode="y" horiz-adv-x="1065" 
d="M1036 1024l-422 -991v-193q0 -93 -47 -135.5t-147 -42.5h-311v113h290q47 0 64.5 17.5t17.5 64.5v172l-434 995h146l352 -830l352 830h139z" />
    <glyph glyph-name="z" unicode="z" horiz-adv-x="967" 
d="M222 113h671v-113h-809v125l634 786h-624v113h768v-121z" />
    <glyph glyph-name="braceleft" unicode="{" horiz-adv-x="668" 
d="M242 20v420q0 85 -21 114.5t-82 29.5h-51v266h51q61 0 82 29.5t21 113.5v420q0 166 55.5 242t179.5 76h133v-113h-112q-75 0 -99 -34t-24 -130v-543q0 -174 -164 -174v-41q164 0 164 -174v-542q0 -96 24 -130t99 -34h112v-113h-133q-124 0 -179.5 76t-55.5 241z" />
    <glyph glyph-name="bar" unicode="|" horiz-adv-x="510" 
d="M188 -174v1782h134v-1782h-134z" />
    <glyph glyph-name="braceright" unicode="}" horiz-adv-x="668" 
d="M426 1416v-420q0 -85 21 -114.5t82 -29.5h51v-266h-51q-61 0 -82 -29.5t-21 -113.5v-420q0 -166 -55.5 -242t-179.5 -76h-133v113h112q75 0 99 34t24 130v543q0 174 164 174v41q-164 0 -164 174v542q0 96 -24 130t-99 34h-112v113h133q124 0 179.5 -76t55.5 -241z" />
    <glyph glyph-name="asciitilde" unicode="~" horiz-adv-x="1001" 
d="M520 764l-78 45q-31 18 -42 24.5t-25.5 11.5t-28.5 5q-84 0 -84 -129h-102v20q0 103 51.5 159t138.5 56q65 0 146 -53l82 -49q37 -22 54.5 -29.5t37.5 -7.5q84 0 84 129h102v-20q0 -101 -49 -158t-133 -57q-38 0 -71.5 12.5t-82.5 40.5z" />
    <glyph glyph-name="uni00A0" unicode="&#xa0;" horiz-adv-x="512" 
 />
    <glyph glyph-name="exclamdown" unicode="&#xa1;" horiz-adv-x="455" 
d="M305 1024v-174h-154v174h154zM258 604l41 -584v-430h-143v430l40 584h62z" />
    <glyph glyph-name="cent" unicode="&#xa2;" horiz-adv-x="1077" 
d="M834 328h139q-29 -163 -133 -255q-104 -93 -269 -93q-27 0 -35 1l-38 -227h-125l42 249q-149 47 -232 184.5t-83 324.5q-1 152 54 272.5t164 191t253 68.5h20l38 226h125l-42 -247q109 -34 177 -119.5t80 -207.5h-140q-10 66 -46 116t-93 76l-131 -775h2h21q98 0 165 60
q68 62 87 155zM438 136l130 775h-7q-152 2 -237.5 -113t-83.5 -286q0 -131 50 -234q50 -101 148 -142z" />
    <glyph glyph-name="sterling" unicode="&#xa3;" horiz-adv-x="1141" 
d="M342 133h729v-133h-973v133h41q154 0 166 184l21 283l-228 -51v123l237 53l21 281q16 215 117 321.5t297 106.5h199v-134h-205q-132 0 -194 -75t-74 -230l-19 -238l287 64v-123l-297 -66l-23 -296q-6 -81 -28 -126q-22 -46 -74 -77z" />
    <glyph glyph-name="currency" unicode="&#xa4;" horiz-adv-x="1452" 
d="M1147 315l188 -188l-90 -90l-184 176q-143 -131 -338 -131q-194 0 -334 128l-180 -173l-90 90l184 184q-92 137 -92 314q0 170 89 306l-181 181l90 90l178 -170q142 125 336 125q197 0 340 -129l182 174l90 -90l-186 -186q86 -131 86 -301t-88 -310zM1096 625
q2 172 -104.5 286.5t-258.5 112.5h-20q-153 2 -259.5 -112.5t-103.5 -286.5q-3 -172 109 -292.5t264 -117.5h10q151 -3 258 116t105 294z" />
    <glyph glyph-name="yen" unicode="&#xa5;" horiz-adv-x="1309" 
d="M1249 1434l-421 -685l259 58v-123l-346 -78l-14 -22v-147l299 67v-123l-299 -67v-314h-143v282l-299 -67v123l299 67v165l-361 -81v123l301 68l-463 754h162l434 -720l435 720h157z" />
    <glyph glyph-name="brokenbar" unicode="&#xa6;" horiz-adv-x="518" 
d="M193 881v727h133v-727h-133zM193 -174v747h133v-747h-133z" />
    <glyph glyph-name="section" unicode="&#xa7;" horiz-adv-x="1047" 
d="M172 -123v133h406q85 0 128.5 38.5t43.5 109.5q0 50 -43.5 87.5t-141.5 73.5l-284 107q-93 35 -142 96t-49 137q0 158 193 277q-62 52 -91.5 104.5t-29.5 116.5q0 133 85.5 205t239.5 72h351v-134h-349q-89 0 -138.5 -36.5t-49.5 -106.5q0 -57 41 -93t139 -67l187 -61
q153 -50 222 -111.5t71 -173.5q0 -166 -193 -278q65 -52 93 -100t28 -115q0 -121 -83 -201t-247 -80h-387zM821 631q0 49 -33 84q-30 33 -75.5 54.5t-130.5 49.5l-179 58q-82 -34 -128 -89.5t-46 -111.5q0 -42 24 -70q25 -28 62 -46q39 -17 106 -41l42 -15l180 -68
q103 45 141 93q37 47 37 102z" />
    <glyph glyph-name="dieresis" unicode="&#xa8;" horiz-adv-x="635" 
d="M61 1208v164h154v-164h-154zM420 1208v164h153v-164h-153z" />
    <glyph glyph-name="copyright" unicode="&#xa9;" horiz-adv-x="1810" 
d="M106 717q0 215 107 400q108 185 292 291q184 108 400 108q217 0 400 -108q185 -106 291 -291q108 -184 108 -400t-108 -401q-106 -183 -291 -291q-184 -107 -400 -107q-215 0 -400 107q-184 108 -292 291q-107 185 -107 401zM1597 717q0 189 -93 348q-92 159 -252 254
q-158 94 -347 94t-347 -94q-160 -95 -252 -254q-93 -159 -93 -348t93 -349q92 -159 252 -254q158 -94 347 -94t347 94q160 95 252 254q93 160 93 349zM539 717q0 182 101.5 293.5t266.5 111.5q130 0 216.5 -70.5t101.5 -193.5h-125q-15 69 -67 115q-52 47 -124 47h-10
q-100 0 -167.5 -85t-67.5 -218q0 -132 67 -212.5t168 -80.5h10q76 0 132 44q56 45 69 118h125q-21 -121 -112.5 -192.5t-215.5 -71.5q-161 0 -264.5 104t-103.5 291z" />
    <glyph glyph-name="ordfeminine" unicode="&#xaa;" horiz-adv-x="733" 
d="M115 1014q0 81 47.5 129t130.5 57l184 21v18q0 50 -33 81.5t-84 31.5h-6q-45 0 -82 -29q-36 -29 -36 -76h-113q4 91 72.5 144t164.5 53t163 -57.5t67 -151.5v-258q0 -83 6 -127h-102q-11 55 -11 102q-20 -53 -72 -82.5t-122 -29.5q-75 0 -125 47q-49 46 -49 127zM319 932
h7q66 0 108 38t43 105v66l-151 -17q-44 -5 -71.5 -32t-27.5 -70q0 -42 25.5 -66t66.5 -24z" />
    <glyph glyph-name="guillemotleft" unicode="&#xab;" horiz-adv-x="1004" 
d="M532 1024l-294 -437l299 -444h-156l-297 441l297 440h151zM617 586l298 -443h-155l-297 441l297 440h151z" />
    <glyph glyph-name="logicalnot" unicode="&#xac;" horiz-adv-x="1219" 
d="M924 266v297h-772v133h911v-430h-139z" />
    <glyph glyph-name="uni00AD" unicode="&#xad;" horiz-adv-x="795" 
d="M141 563v113h512v-113h-512z" />
    <glyph glyph-name="registered" unicode="&#xae;" horiz-adv-x="1810" 
d="M106 717q0 215 107 400q108 185 292 291q184 108 400 108q217 0 400 -108q185 -106 291 -291q108 -184 108 -400t-108 -401q-106 -183 -291 -291q-184 -107 -400 -107q-215 0 -400 107q-184 108 -292 291q-107 185 -107 401zM1597 717q0 189 -93 348q-92 159 -252 254
q-158 94 -347 94t-347 -94q-160 -95 -252 -254q-93 -159 -93 -348t93 -349q92 -159 252 -254q158 -94 347 -94t347 94q160 95 252 254q93 160 93 349zM639 342v770h338q114 0 180 -58.5t66 -152.5q0 -80 -43 -132.5t-113 -61.5q79 -2 112 -38t33 -126v-201h-125v203
q0 98 -110 98h-213v-301h-125zM764 741h162q81 0 126.5 34t45.5 97q0 75 -41.5 106.5t-130.5 31.5h-162v-269z" />
    <glyph glyph-name="macron" unicode="&#xaf;" horiz-adv-x="686" 
d="M61 1208v113h564v-113h-564z" />
    <glyph glyph-name="degree" unicode="&#xb0;" horiz-adv-x="950" 
d="M96 1075q-2 159 108.5 270.5t270.5 108.5q159 2 270 -109.5t109 -269.5q2 -158 -109 -269.5t-270 -109.5q-160 -3 -270.5 108.5t-108.5 270.5zM727 1075q2 105 -74 183.5t-178 76.5q-102 2 -178 -76.5t-74 -183.5q-2 -104 74.5 -183t177.5 -77q101 -2 177.5 77t74.5 183z
" />
    <glyph glyph-name="plusminus" unicode="&#xb1;" horiz-adv-x="1307" 
d="M588 307v287h-441v133h441v297h131v-297h440v-133h-440v-287h-131zM147 0v133h1012v-133h-1012z" />
    <glyph glyph-name="twosuperior" unicode="&#xb2;" horiz-adv-x="702" 
d="M78 850v139l258 225q75 67 97 91q56 57 56 129q0 58 -39 95q-38 38 -94 38h-10q-53 0 -96 -40t-43 -102h-125q0 107 80 175.5t192 68.5q115 0 187.5 -63.5t72.5 -171.5q0 -58 -22 -103q-20 -43 -53 -79q-36 -38 -86 -81l-252 -219h422v-102h-545z" />
    <glyph glyph-name="threesuperior" unicode="&#xb3;" horiz-adv-x="717" 
d="M72 1073h125q3 -60 42 -95.5t101 -35.5h10q68 0 112 38.5t44 102.5q0 58 -38.5 92.5t-98.5 34.5h-90v97h94q59 0 93 33t34 92q0 65 -38.5 100t-105.5 35h-10q-60 0 -97 -33t-40 -90h-125q0 105 78.5 165t193.5 60t192 -60.5t77 -164.5q0 -62 -30.5 -112t-82.5 -75
q57 -22 88 -71t31 -115q2 -101 -85 -167t-200 -64q-114 0 -194 63.5t-80 169.5z" />
    <glyph glyph-name="acute" unicode="&#xb4;" horiz-adv-x="403" 
d="M61 1167l117 267h164l-180 -267h-101z" />
    <glyph glyph-name="mu" unicode="&#xb5;" horiz-adv-x="1202" 
d="M883 1024h133v-1024h-133v193q-41 -103 -129 -158t-213 -55q-134 0 -222 67v-457h-133v1434h133v-635q0 -297 246 -297h21q56 -1 110 26.5t96 76t67 121t24 155.5v553z" />
    <glyph glyph-name="paragraph" unicode="&#xb6;" horiz-adv-x="1262" 
d="M500 -410v1076h-41q-169 -3 -284 112t-112 273q-3 158 109.5 272t273.5 111h709v-113h-123v-1731h-133v1731h-266v-1731h-133z" />
    <glyph glyph-name="periodcentered" unicode="&#xb7;" horiz-adv-x="467" 
d="M141 594v185h184v-185h-184z" />
    <glyph glyph-name="cedilla" unicode="&#xb8;" horiz-adv-x="455" 
d="M61 -461v113h129q46 0 73.5 23.5t27.5 66.5t-27.5 65.5t-73.5 22.5h-57v201h92v-123q68 2 118 -45.5t50 -120.5q0 -89 -54.5 -146t-150.5 -57h-127z" />
    <glyph glyph-name="onesuperior" unicode="&#xb9;" horiz-adv-x="528" 
d="M285 850v655l-240 -192v121l279 225h77v-809h-116z" />
    <glyph glyph-name="ordmasculine" unicode="&#xba;" horiz-adv-x="741" 
d="M102 1141q0 137 73.5 220t195.5 83q121 0 194.5 -83t73.5 -220q0 -138 -73 -219.5t-195 -81.5q-123 0 -196 81.5t-73 219.5zM367 932h10q66 0 105.5 57.5t39.5 151.5t-40 152q-41 59 -107 59h-8q-67 0 -108 -60q-40 -58 -40 -151t40 -151t108 -58z" />
    <glyph glyph-name="guillemotright" unicode="&#xbb;" horiz-adv-x="1001" 
d="M241 1024l297 -441l-297 -440h-151l294 438l-298 443h155zM620 1024l297 -441l-297 -440h-151l294 437l-299 444h156z" />
    <glyph glyph-name="onequarter" unicode="&#xbc;" horiz-adv-x="1757" 
d="M377 0l860 1434h133l-860 -1434h-133zM305 625v655l-240 -192v121l279 225h77v-809h-116zM1460 0v197h-379v114l367 498h127v-510h110v-102h-110v-197h-115zM1200 299h260v360z" />
    <glyph glyph-name="onehalf" unicode="&#xbd;" horiz-adv-x="1802" 
d="M334 0l860 1434h133l-860 -1434h-133zM307 625v655l-240 -192v121l279 225h77v-809h-116zM1165 0v139l258 225q75 67 97 91q56 57 56 129q0 58 -39 95q-38 38 -94 38h-10q-53 0 -96 -40t-43 -102h-125q0 107 80 175.5t192 68.5q115 0 187.5 -63.5t72.5 -171.5
q0 -58 -22 -103q-20 -43 -53 -79q-36 -38 -86 -81l-252 -219h422v-102h-545z" />
    <glyph glyph-name="threequarters" unicode="&#xbe;" horiz-adv-x="1845" 
d="M491 0l860 1434h133l-860 -1434h-133zM88 848h125q3 -60 42 -95.5t101 -35.5h10q68 0 112 38.5t44 102.5q0 58 -38.5 92.5t-98.5 34.5h-90v97h94q59 0 93 33t34 92q0 65 -38.5 100t-105.5 35h-10q-60 0 -97 -33t-40 -90h-125q0 105 78.5 165t193.5 60t192 -60.5
t77 -164.5q0 -62 -30.5 -112t-82.5 -75q57 -22 88 -71t31 -115q2 -101 -85 -167t-200 -64q-114 0 -194 63.5t-80 169.5zM1550 0v197h-379v114l367 498h127v-510h110v-102h-110v-197h-115zM1290 299h260v360z" />
    <glyph glyph-name="questiondown" unicode="&#xbf;" horiz-adv-x="907" 
d="M648 1024v-174h-154v174h154zM637 604v-260q0 -92 -35.5 -128t-127.5 -36h-41q-108 0 -167 -66t-59 -167q0 -98 65 -160.5t181 -62.5h391v-134h-420q-150 -2 -254 101.5t-102 253.5q0 165 99.5 266.5t267.5 101.5q40 0 54.5 15t14.5 55v221h133z" />
    <glyph glyph-name="Agrave" unicode="&#xc0;" horiz-adv-x="1386" 
d="M1217 0l-160 395h-733l-160 -395h-148l588 1434h180l584 -1434h-151zM377 528h627l-313 774zM632 1567l-170 256h185l108 -256h-123z" />
    <glyph glyph-name="Aacute" unicode="&#xc1;" horiz-adv-x="1386" 
d="M1217 0l-160 395h-733l-160 -395h-148l588 1434h180l584 -1434h-151zM377 528h627l-313 774zM632 1567l109 256h184l-170 -256h-123z" />
    <glyph glyph-name="Acircumflex" unicode="&#xc2;" horiz-adv-x="1386" 
d="M1217 0l-160 395h-733l-160 -395h-148l588 1434h180l584 -1434h-151zM377 528h627l-313 774zM1022 1567h-139l-189 147l-188 -147h-140l236 256h184z" />
    <glyph glyph-name="Atilde" unicode="&#xc3;" horiz-adv-x="1386" 
d="M1217 0l-160 395h-733l-160 -395h-148l588 1434h180l584 -1434h-151zM377 528h627l-313 774zM690 1630l-65 47q-42 33 -82 33q-84 0 -84 -133h-103v47q0 85 51 142t130 57q71 0 131 -45l69 -52q10 -6 22 -16q53 -41 89 -41q80 0 80 133h102v-47q0 -84 -51.5 -141.5
t-124.5 -57.5q-36 0 -71 16t-93 58z" />
    <glyph glyph-name="Adieresis" unicode="&#xc4;" horiz-adv-x="1386" 
d="M1217 0l-160 395h-733l-160 -395h-148l588 1434h180l584 -1434h-151zM377 528h627l-313 774zM421 1597v164h164v-164h-164zM802 1597v164h164v-164h-164z" />
    <glyph glyph-name="Aring" unicode="&#xc5;" horiz-adv-x="1386" 
d="M1217 0l-160 395h-733l-160 -395h-148l588 1434h180l584 -1434h-151zM377 528h627l-313 774zM532 1716q0 67 48.5 114.5t113.5 47.5t113.5 -47.5t48.5 -114.5t-48.5 -114.5t-113.5 -47.5t-113.5 47.5t-48.5 114.5zM762 1716q0 28 -19.5 49t-46.5 21q-28 0 -48.5 -21
t-20.5 -49t20.5 -48.5t48.5 -20.5q27 0 46.5 20.5t19.5 48.5z" />
    <glyph glyph-name="AE" unicode="&#xc6;" horiz-adv-x="2015" 
d="M-6 0l850 1434h993v-134h-764l68 -495h635v-133h-617l72 -539h729v-133h-850l-53 395h-668l-233 -395h-162zM467 528h571l-108 787z" />
    <glyph glyph-name="Ccedilla" unicode="&#xc7;" horiz-adv-x="1421" 
d="M1176 440h143q-8 -189 -150.5 -318.5t-357.5 -140.5v-73q68 2 118 -45.5t50 -120.5q0 -89 -54.5 -146t-150.5 -57h-127v113h129q46 0 73.5 23.5t27.5 66.5t-27.5 65.5t-73.5 22.5h-57v151q-182 9 -322 109t-214 263.5t-72 363.5q-2 209 78 377.5t231 265.5t346 94
q232 3 388 -129t165 -332h-143q-18 142 -121 235t-279 93h-20q-117 2 -213 -45.5t-159 -130t-97 -193t-33 -235.5q-1 -125 33 -235.5t97 -193t159 -130t213 -45.5h20q176 0 279 92.5t121 234.5z" />
    <glyph glyph-name="Egrave" unicode="&#xc8;" horiz-adv-x="1315" 
d="M199 0v1434h1001v-134h-858v-495h735v-133h-735v-539h879v-133h-1022zM639 1567l-170 256h185l108 -256h-123z" />
    <glyph glyph-name="Eacute" unicode="&#xc9;" horiz-adv-x="1315" 
d="M199 0v1434h1001v-134h-858v-495h735v-133h-735v-539h879v-133h-1022zM639 1567l109 256h184l-170 -256h-123z" />
    <glyph glyph-name="Ecircumflex" unicode="&#xca;" horiz-adv-x="1315" 
d="M199 0v1434h1001v-134h-858v-495h735v-133h-735v-539h879v-133h-1022zM1028 1567h-139l-189 147l-188 -147h-140l236 256h184z" />
    <glyph glyph-name="Edieresis" unicode="&#xcb;" horiz-adv-x="1315" 
d="M199 0v1434h1001v-134h-858v-495h735v-133h-735v-539h879v-133h-1022zM428 1597v164h164v-164h-164zM809 1597v164h164v-164h-164z" />
    <glyph glyph-name="Igrave" unicode="&#xcc;" horiz-adv-x="541" 
d="M199 0v1434h143v-1434h-143zM208 1567l-170 256h185l108 -256h-123z" />
    <glyph glyph-name="Iacute" unicode="&#xcd;" horiz-adv-x="541" 
d="M199 0v1434h143v-1434h-143zM208 1567l109 256h184l-170 -256h-123z" />
    <glyph glyph-name="Icircumflex" unicode="&#xce;" horiz-adv-x="541" 
d="M199 0v1434h143v-1434h-143zM598 1567h-139l-189 147l-188 -147h-140l236 256h184z" />
    <glyph glyph-name="Idieresis" unicode="&#xcf;" horiz-adv-x="541" 
d="M199 0v1434h143v-1434h-143zM-2 1597v164h164v-164h-164zM379 1597v164h164v-164h-164z" />
    <glyph glyph-name="Eth" unicode="&#xd0;" horiz-adv-x="1481" 
d="M1368 713q3 -330 -174.5 -523t-470.5 -190h-491v655h-206v123h206v656h491q291 3 469 -193.5t176 -527.5zM1225 717q0 281 -136 432t-386 151h-328v-522h307v-123h-307v-522h328q250 0 386 152t136 432z" />
    <glyph glyph-name="Ntilde" unicode="&#xd1;" horiz-adv-x="1513" 
d="M1171 1434h144v-1434h-174l-799 1234v-1234h-143v1434h184l788 -1215v1215zM774 1630l-65 47q-42 33 -82 33q-84 0 -84 -133h-103v47q0 85 51 142t130 57q71 0 131 -45l69 -52q10 -6 22 -16q53 -41 89 -41q80 0 80 133h102v-47q0 -84 -51.5 -141.5t-124.5 -57.5
q-36 0 -71 16t-93 58z" />
    <glyph glyph-name="Ograve" unicode="&#xd2;" horiz-adv-x="1532" 
d="M111 717q-1 166 48.5 305.5t137 234t208.5 146.5t261 51q140 1 261 -51t208.5 -146.5t137 -234t48.5 -305.5q1 -166 -48.5 -305.5t-137 -234t-208.5 -146.5t-261 -51q-140 -1 -261 51t-208.5 146.5t-137 234t-48.5 305.5zM756 113h20q220 -2 362 165t140 439
q2 272 -140 439t-362 165h-20q-220 2 -362 -165t-140 -439q-2 -272 140 -439t362 -165zM704 1567l-170 256h185l108 -256h-123z" />
    <glyph glyph-name="Oacute" unicode="&#xd3;" horiz-adv-x="1532" 
d="M111 717q-1 166 48.5 305.5t137 234t208.5 146.5t261 51q140 1 261 -51t208.5 -146.5t137 -234t48.5 -305.5q1 -166 -48.5 -305.5t-137 -234t-208.5 -146.5t-261 -51q-140 -1 -261 51t-208.5 146.5t-137 234t-48.5 305.5zM756 113h20q220 -2 362 165t140 439
q2 272 -140 439t-362 165h-20q-220 2 -362 -165t-140 -439q-2 -272 140 -439t362 -165zM704 1567l109 256h184l-170 -256h-123z" />
    <glyph glyph-name="Ocircumflex" unicode="&#xd4;" horiz-adv-x="1532" 
d="M111 717q-1 166 48.5 305.5t137 234t208.5 146.5t261 51q140 1 261 -51t208.5 -146.5t137 -234t48.5 -305.5q1 -166 -48.5 -305.5t-137 -234t-208.5 -146.5t-261 -51q-140 -1 -261 51t-208.5 146.5t-137 234t-48.5 305.5zM756 113h20q220 -2 362 165t140 439
q2 272 -140 439t-362 165h-20q-220 2 -362 -165t-140 -439q-2 -272 140 -439t362 -165zM1094 1567h-139l-189 147l-188 -147h-140l236 256h184z" />
    <glyph glyph-name="Otilde" unicode="&#xd5;" horiz-adv-x="1532" 
d="M111 717q-1 166 48.5 305.5t137 234t208.5 146.5t261 51q140 1 261 -51t208.5 -146.5t137 -234t48.5 -305.5q1 -166 -48.5 -305.5t-137 -234t-208.5 -146.5t-261 -51q-140 -1 -261 51t-208.5 146.5t-137 234t-48.5 305.5zM756 113h20q220 -2 362 165t140 439
q2 272 -140 439t-362 165h-20q-220 2 -362 -165t-140 -439q-2 -272 140 -439t362 -165zM762 1630l-65 47q-42 33 -82 33q-84 0 -84 -133h-103v47q0 85 51 142t130 57q71 0 131 -45l69 -52q10 -6 22 -16q53 -41 89 -41q80 0 80 133h102v-47q0 -84 -51.5 -141.5t-124.5 -57.5
q-36 0 -71 16t-93 58z" />
    <glyph glyph-name="Odieresis" unicode="&#xd6;" horiz-adv-x="1532" 
d="M111 717q-1 166 48.5 305.5t137 234t208.5 146.5t261 51q140 1 261 -51t208.5 -146.5t137 -234t48.5 -305.5q1 -166 -48.5 -305.5t-137 -234t-208.5 -146.5t-261 -51q-140 -1 -261 51t-208.5 146.5t-137 234t-48.5 305.5zM756 113h20q220 -2 362 165t140 439
q2 272 -140 439t-362 165h-20q-220 2 -362 -165t-140 -439q-2 -272 140 -439t362 -165zM493 1597v164h164v-164h-164zM874 1597v164h164v-164h-164z" />
    <glyph glyph-name="multiply" unicode="&#xd7;" horiz-adv-x="1096" 
d="M217 100l-96 97l332 331l-332 330l96 96l332 -329l330 329l96 -96l-330 -330l330 -331l-96 -97l-330 332z" />
    <glyph glyph-name="Oslash" unicode="&#xd8;" horiz-adv-x="1548" 
d="M1429 717q1 -166 -48.5 -305.5t-137 -234t-208.5 -146.5t-261 -51q-229 0 -395 128l-131 -165l-107 84l140 177q-162 199 -162 513q-1 166 48.5 305.5t137 234t208.5 146.5t261 51q230 0 395 -128l130 165l106 -84l-139 -176q163 -199 163 -514zM371 318l713 901
q-126 102 -300 102h-20q-220 2 -362 -165t-140 -439q0 -241 109 -399zM1286 717q0 241 -110 401l-712 -902q128 -103 300 -103h20q220 -2 362 165t140 439z" />
    <glyph glyph-name="Ugrave" unicode="&#xd9;" horiz-adv-x="1413" 
d="M184 512v922h144v-902q0 -200 95 -309.5t273 -109.5h21q178 0 273 109.5t95 309.5v902h144v-922q0 -245 -136 -388.5t-386 -143.5q-256 0 -389.5 142.5t-133.5 389.5zM645 1567l-170 256h185l108 -256h-123z" />
    <glyph glyph-name="Uacute" unicode="&#xda;" horiz-adv-x="1413" 
d="M184 512v922h144v-902q0 -200 95 -309.5t273 -109.5h21q178 0 273 109.5t95 309.5v902h144v-922q0 -245 -136 -388.5t-386 -143.5q-256 0 -389.5 142.5t-133.5 389.5zM645 1567l109 256h184l-170 -256h-123z" />
    <glyph glyph-name="Ucircumflex" unicode="&#xdb;" horiz-adv-x="1413" 
d="M184 512v922h144v-902q0 -200 95 -309.5t273 -109.5h21q178 0 273 109.5t95 309.5v902h144v-922q0 -245 -136 -388.5t-386 -143.5q-256 0 -389.5 142.5t-133.5 389.5zM1034 1567h-139l-189 147l-188 -147h-140l236 256h184z" />
    <glyph glyph-name="Udieresis" unicode="&#xdc;" horiz-adv-x="1413" 
d="M184 512v922h144v-902q0 -200 95 -309.5t273 -109.5h21q178 0 273 109.5t95 309.5v902h144v-922q0 -245 -136 -388.5t-386 -143.5q-256 0 -389.5 142.5t-133.5 389.5zM434 1597v164h164v-164h-164zM815 1597v164h164v-164h-164z" />
    <glyph glyph-name="Yacute" unicode="&#xdd;" horiz-adv-x="1217" 
d="M1044 1434h158l-522 -840v-594h-143v594l-523 840h162l434 -708zM548 1567l109 256h184l-170 -256h-123z" />
    <glyph glyph-name="Thorn" unicode="&#xde;" horiz-adv-x="1327" 
d="M199 0v1434h143v-308h453q195 0 311.5 -107t116.5 -300t-116.5 -302.5t-311.5 -109.5h-453v-307h-143zM342 440h412q325 0 325 279q0 141 -81.5 207.5t-243.5 66.5h-412v-553z" />
    <glyph glyph-name="germandbls" unicode="&#xdf;" horiz-adv-x="1106" 
d="M164 -379v1405q0 204 105.5 316t295.5 112q167 3 278.5 -103.5t108.5 -263.5q0 -124 -61.5 -209t-145.5 -112q99 -15 180 -111.5t79 -238.5q0 -204 -113 -310t-322 -106h-118v123h131q152 0 219 79q69 80 69 216q0 130 -84 206t-213 76h-122v113h102q63 -1 115 22.5
t84.5 62.5t49.5 85.5t17 93.5q0 111 -68 187.5t-176 76.5h-20q-114 0 -186 -80.5t-72 -246.5v-1393h-133z" />
    <glyph glyph-name="agrave" unicode="&#xe0;" horiz-adv-x="1067" 
d="M924 0h-123q-10 53 -10 164q-33 -75 -135 -129.5t-228 -54.5q-134 -2 -230.5 87.5t-93.5 215.5q0 153 104 224q104 73 249 83l323 24v41q0 131 -68 204t-188 73h-10q-103 0 -175 -51q-71 -51 -81 -144h-133q7 135 119 222t274 85q125 0 216 -53t135 -140t44 -196v-430
q0 -150 11 -225zM780 369v137l-297 -21q-112 -8 -178.5 -60t-66.5 -134q0 -84 59 -141.5t145 -57.5h21q69 -2 144 36.5t125 105t48 135.5zM473 1167l-181 267h164l117 -267h-100z" />
    <glyph glyph-name="aacute" unicode="&#xe1;" horiz-adv-x="1067" 
d="M924 0h-123q-10 53 -10 164q-33 -75 -135 -129.5t-228 -54.5q-134 -2 -230.5 87.5t-93.5 215.5q0 153 104 224q104 73 249 83l323 24v41q0 131 -68 204t-188 73h-10q-103 0 -175 -51q-71 -51 -81 -144h-133q7 135 119 222t274 85q125 0 216 -53t135 -140t44 -196v-430
q0 -150 11 -225zM780 369v137l-297 -21q-112 -8 -178.5 -60t-66.5 -134q0 -84 59 -141.5t145 -57.5h21q69 -2 144 36.5t125 105t48 135.5zM473 1167l117 267h164l-180 -267h-101z" />
    <glyph glyph-name="acircumflex" unicode="&#xe2;" horiz-adv-x="1067" 
d="M924 0h-123q-10 53 -10 164q-33 -75 -135 -129.5t-228 -54.5q-134 -2 -230.5 87.5t-93.5 215.5q0 153 104 224q104 73 249 83l323 24v41q0 131 -68 204t-188 73h-10q-103 0 -175 -51q-71 -51 -81 -144h-133q7 135 119 222t274 85q125 0 216 -53t135 -140t44 -196v-430
q0 -150 11 -225zM780 369v137l-297 -21q-112 -8 -178.5 -60t-66.5 -134q0 -84 59 -141.5t145 -57.5h21q69 -2 144 36.5t125 105t48 135.5zM852 1167h-123l-205 154l-205 -154h-123l261 267h135z" />
    <glyph glyph-name="atilde" unicode="&#xe3;" horiz-adv-x="1067" 
d="M924 0h-123q-10 53 -10 164q-33 -75 -135 -129.5t-228 -54.5q-134 -2 -230.5 87.5t-93.5 215.5q0 153 104 224q104 73 249 83l323 24v41q0 131 -68 204t-188 73h-10q-103 0 -175 -51q-71 -51 -81 -144h-133q7 135 119 222t274 85q125 0 216 -53t135 -140t44 -196v-430
q0 -150 11 -225zM780 369v137l-297 -21q-112 -8 -178.5 -60t-66.5 -134q0 -84 59 -141.5t145 -57.5h21q69 -2 144 36.5t125 105t48 135.5zM520 1221l-65 47q-47 32 -82 32q-84 0 -84 -133h-103v47q0 85 51 142t130 57q73 0 131 -45l69 -51l20 -15q52 -42 91 -42q80 0 80 133
h102v-47q0 -84 -51.5 -141.5t-124.5 -57.5q-36 0 -71 16t-93 58z" />
    <glyph glyph-name="adieresis" unicode="&#xe4;" horiz-adv-x="1067" 
d="M924 0h-123q-10 53 -10 164q-33 -75 -135 -129.5t-228 -54.5q-134 -2 -230.5 87.5t-93.5 215.5q0 153 104 224q104 73 249 83l323 24v41q0 131 -68 204t-188 73h-10q-103 0 -175 -51q-71 -51 -81 -144h-133q7 135 119 222t274 85q125 0 216 -53t135 -140t44 -196v-430
q0 -150 11 -225zM780 369v137l-297 -21q-112 -8 -178.5 -60t-66.5 -134q0 -84 59 -141.5t145 -57.5h21q69 -2 144 36.5t125 105t48 135.5zM268 1208v164h154v-164h-154zM627 1208v164h153v-164h-153z" />
    <glyph glyph-name="aring" unicode="&#xe5;" horiz-adv-x="1067" 
d="M924 0h-123q-10 53 -10 164q-33 -75 -135 -129.5t-228 -54.5q-134 -2 -230.5 87.5t-93.5 215.5q0 153 104 224q104 73 249 83l323 24v41q0 131 -68 204t-188 73h-10q-103 0 -175 -51q-71 -51 -81 -144h-133q7 135 119 222t274 85q125 0 216 -53t135 -140t44 -196v-430
q0 -150 11 -225zM780 369v137l-297 -21q-112 -8 -178.5 -60t-66.5 -134q0 -84 59 -141.5t145 -57.5h21q69 -2 144 36.5t125 105t48 135.5zM352 1329q0 73 51.5 122.5t120.5 49.5q70 0 121.5 -49.5t51.5 -122.5q0 -72 -51.5 -122t-121.5 -50q-69 0 -120.5 50t-51.5 122z
M615 1329q0 38 -25.5 65t-62.5 27q-38 0 -64.5 -27t-26.5 -65t26.5 -65t64.5 -27q37 0 62.5 27t25.5 65z" />
    <glyph glyph-name="ae" unicode="&#xe6;" horiz-adv-x="1735" 
d="M104 283q0 158 101 232q102 75 241 85l314 25v30q0 131 -65.5 204t-180.5 73h-10q-98 0 -167 -51q-68 -51 -79 -144h-133q7 135 116 222t267 85q120 0 207 -51t133 -143q62 94 158.5 144t210.5 50q181 2 298 -130.5t115 -329.5v-82h-737q3 -201 93 -305.5t228 -104.5h13
q211 0 268 201h133q-33 -150 -143 -232q-109 -81 -268 -81q-124 0 -222.5 54.5t-158.5 158.5q-57 -100 -157.5 -156.5t-229.5 -56.5q-142 -2 -245 87.5t-100 215.5zM897 614h600q-5 139 -79.5 228.5t-192.5 89.5h-21q-116 0 -201.5 -77.5t-105.5 -240.5zM453 92h20
q65 -2 133 39t112 111t42 143v127l-287 -20q-106 -7 -171 -62q-64 -52 -64 -139q0 -85 61.5 -142t153.5 -57z" />
    <glyph glyph-name="ccedilla" unicode="&#xe7;" horiz-adv-x="1065" 
d="M838 328h133q-27 -155 -123.5 -246.5t-245.5 -100.5v-73q68 2 118 -45.5t50 -120.5q0 -89 -54.5 -146t-150.5 -57h-127v113h129q46 0 73.5 23.5t27.5 66.5t-27.5 65.5t-73.5 22.5h-57v153q-126 12 -220.5 85.5t-142.5 188.5t-47 255q-1 152 54 272.5t164 191t253 68.5
q167 0 276 -94t124 -254h-133q-18 106 -87 171q-68 65 -169 65h-21q-104 1 -179.5 -57t-112 -152.5t-35.5 -210.5q-1 -116 35.5 -210.5t112 -152.5t179.5 -57h21q100 0 167 66q68 68 89 170z" />
    <glyph glyph-name="egrave" unicode="&#xe8;" horiz-adv-x="1077" 
d="M102 514q-1 125 36 227.5t101 168t146.5 100.5t173.5 34q182 2 299 -130.5t115 -329.5v-82h-737q3 -202 92.5 -306t228.5 -104h12q211 0 269 201h133q-33 -150 -143 -232q-110 -81 -269 -81q-199 -2 -329 141.5t-128 392.5zM240 614h600q-5 139 -80 228.5t-193 89.5h-20
q-54 0 -103 -17.5t-92.5 -53.5t-73 -99.5t-38.5 -147.5zM508 1167l-181 267h164l117 -267h-100z" />
    <glyph glyph-name="eacute" unicode="&#xe9;" horiz-adv-x="1077" 
d="M102 514q-1 125 36 227.5t101 168t146.5 100.5t173.5 34q182 2 299 -130.5t115 -329.5v-82h-737q3 -202 92.5 -306t228.5 -104h12q211 0 269 201h133q-33 -150 -143 -232q-110 -81 -269 -81q-199 -2 -329 141.5t-128 392.5zM240 614h600q-5 139 -80 228.5t-193 89.5h-20
q-54 0 -103 -17.5t-92.5 -53.5t-73 -99.5t-38.5 -147.5zM507 1167l117 267h164l-180 -267h-101z" />
    <glyph glyph-name="ecircumflex" unicode="&#xea;" horiz-adv-x="1077" 
d="M102 514q-1 125 36 227.5t101 168t146.5 100.5t173.5 34q182 2 299 -130.5t115 -329.5v-82h-737q3 -202 92.5 -306t228.5 -104h12q211 0 269 201h133q-33 -150 -143 -232q-110 -81 -269 -81q-199 -2 -329 141.5t-128 392.5zM240 614h600q-5 139 -80 228.5t-193 89.5h-20
q-54 0 -103 -17.5t-92.5 -53.5t-73 -99.5t-38.5 -147.5zM887 1167h-123l-205 154l-205 -154h-123l261 267h135z" />
    <glyph glyph-name="edieresis" unicode="&#xeb;" horiz-adv-x="1077" 
d="M102 514q-1 125 36 227.5t101 168t146.5 100.5t173.5 34q182 2 299 -130.5t115 -329.5v-82h-737q3 -202 92.5 -306t228.5 -104h12q211 0 269 201h133q-33 -150 -143 -232q-110 -81 -269 -81q-199 -2 -329 141.5t-128 392.5zM240 614h600q-5 139 -80 228.5t-193 89.5h-20
q-54 0 -103 -17.5t-92.5 -53.5t-73 -99.5t-38.5 -147.5zM303 1208v164h154v-164h-154zM662 1208v164h153v-164h-153z" />
    <glyph glyph-name="igrave" unicode="&#xec;" horiz-adv-x="461" 
d="M164 0v1024h133v-1024h-133zM181 1167l-181 267h164l117 -267h-100z" />
    <glyph glyph-name="iacute" unicode="&#xed;" horiz-adv-x="461" 
d="M164 0v1024h133v-1024h-133zM180 1167l117 267h164l-180 -267h-101z" />
    <glyph glyph-name="icircumflex" unicode="&#xee;" horiz-adv-x="461" 
d="M164 0v1024h133v-1024h-133zM559 1167h-123l-205 154l-205 -154h-123l261 267h135z" />
    <glyph glyph-name="idieresis" unicode="&#xef;" horiz-adv-x="461" 
d="M164 0v1024h133v-1024h-133zM-25 1208v164h154v-164h-154zM334 1208v164h153v-164h-153z" />
    <glyph glyph-name="eth" unicode="&#xf0;" horiz-adv-x="1153" 
d="M1032 569q2 -269 -127 -430t-344 -159q-136 -2 -242.5 65.5t-163.5 185.5t-55 263q-1 132 55.5 242t163.5 174.5t242 62.5q85 0 174 -37q90 -37 155 -102q-30 210 -166 336l-169 -113l-57 82l140 96q-130 76 -298 76v123q240 0 406 -124l159 109l62 -86l-143 -96
q208 -231 208 -668zM899 492q0 159 -88.5 263.5t-239.5 104.5h-20q-151 0 -234.5 -102.5t-83.5 -263.5q-2 -173 87.5 -288.5t240.5 -113.5h10q151 -1 240.5 113.5t87.5 286.5z" />
    <glyph glyph-name="ntilde" unicode="&#xf1;" horiz-adv-x="1167" 
d="M164 0v1024h133v-172q44 86 140 139q95 53 218 53q160 0 259.5 -99t99.5 -275v-670h-133v629q0 303 -246 303h-12q-78 1 -141 -32.5t-103 -92t-61 -134.5t-21 -161v-512h-133zM592 1221l-65 47q-47 32 -82 32q-84 0 -84 -133h-103v47q0 85 51 142t130 57q73 0 131 -45
l69 -51l20 -15q53 -42 91 -42q80 0 80 133h102v-47q0 -84 -51.5 -141.5t-124.5 -57.5q-36 0 -71 16t-93 58z" />
    <glyph glyph-name="ograve" unicode="&#xf2;" horiz-adv-x="1143" 
d="M100 512q-2 151 61 275t172 191.5t238 65.5q130 2 238.5 -66t171.5 -191.5t61 -274.5q2 -151 -61 -274.5t-171.5 -191.5t-238.5 -66q-129 -2 -238 65.5t-172 191.5t-61 275zM561 92h21q140 -2 233.5 114.5t91.5 305.5q0 190 -92 305t-233 115h-21q-141 0 -233 -115
t-92 -305q-2 -189 91.5 -305.5t233.5 -114.5zM521 1167l-181 267h164l117 -267h-100z" />
    <glyph glyph-name="oacute" unicode="&#xf3;" horiz-adv-x="1143" 
d="M100 512q-2 151 61 275t172 191.5t238 65.5q130 2 238.5 -66t171.5 -191.5t61 -274.5q2 -151 -61 -274.5t-171.5 -191.5t-238.5 -66q-129 -2 -238 65.5t-172 191.5t-61 275zM561 92h21q140 -2 233.5 114.5t91.5 305.5q0 190 -92 305t-233 115h-21q-141 0 -233 -115
t-92 -305q-2 -189 91.5 -305.5t233.5 -114.5zM520 1167l117 267h164l-180 -267h-101z" />
    <glyph glyph-name="ocircumflex" unicode="&#xf4;" horiz-adv-x="1143" 
d="M100 512q-2 151 61 275t172 191.5t238 65.5q130 2 238.5 -66t171.5 -191.5t61 -274.5q2 -151 -61 -274.5t-171.5 -191.5t-238.5 -66q-129 -2 -238 65.5t-172 191.5t-61 275zM561 92h21q140 -2 233.5 114.5t91.5 305.5q0 190 -92 305t-233 115h-21q-141 0 -233 -115
t-92 -305q-2 -189 91.5 -305.5t233.5 -114.5zM899 1167h-123l-205 154l-205 -154h-123l261 267h135z" />
    <glyph glyph-name="otilde" unicode="&#xf5;" horiz-adv-x="1143" 
d="M100 512q-2 151 61 275t172 191.5t238 65.5q130 2 238.5 -66t171.5 -191.5t61 -274.5q2 -151 -61 -274.5t-171.5 -191.5t-238.5 -66q-129 -2 -238 65.5t-172 191.5t-61 275zM561 92h21q140 -2 233.5 114.5t91.5 305.5q0 190 -92 305t-233 115h-21q-141 0 -233 -115
t-92 -305q-2 -189 91.5 -305.5t233.5 -114.5zM567 1221l-65 47q-47 32 -82 32q-84 0 -84 -133h-103v47q0 85 51 142t130 57q72 0 131 -45l69 -51l20 -15q52 -42 91 -42q80 0 80 133h102v-47q0 -84 -51.5 -141.5t-124.5 -57.5q-36 0 -71 16t-93 58z" />
    <glyph glyph-name="odieresis" unicode="&#xf6;" horiz-adv-x="1143" 
d="M100 512q-2 151 61 275t172 191.5t238 65.5q130 2 238.5 -66t171.5 -191.5t61 -274.5q2 -151 -61 -274.5t-171.5 -191.5t-238.5 -66q-129 -2 -238 65.5t-172 191.5t-61 275zM561 92h21q140 -2 233.5 114.5t91.5 305.5q0 190 -92 305t-233 115h-21q-141 0 -233 -115
t-92 -305q-2 -189 91.5 -305.5t233.5 -114.5zM315 1208v164h154v-164h-154zM674 1208v164h153v-164h-153z" />
    <glyph glyph-name="divide" unicode="&#xf7;" horiz-adv-x="1315" 
d="M582 778v174h153v-174h-153zM152 461v133h1011v-133h-1011zM582 102v174h153v-174h-153z" />
    <glyph glyph-name="oslash" unicode="&#xf8;" horiz-adv-x="1153" 
d="M1048 512q2 -151 -61 -274.5t-171.5 -191.5t-238.5 -66q-153 0 -269 88l-105 -138l-89 74l110 144q-118 144 -118 364q-2 151 61 275t172 191.5t238 65.5q148 0 267 -86l102 134l94 -66l-112 -147q120 -147 120 -367zM303 251l471 616q-80 65 -186 65h-21
q-141 0 -233 -115t-92 -305q0 -155 61 -261zM913 512q0 156 -63 265l-472 -617q83 -68 189 -68h21q140 -2 233.5 114.5t91.5 305.5z" />
    <glyph glyph-name="ugrave" unicode="&#xf9;" horiz-adv-x="1147" 
d="M154 348v676h133v-635q0 -297 245 -297h21q56 -1 110 26.5t96 76t67 121t24 155.5v553h133v-1024h-133v193q-40 -102 -128 -157.5t-214 -55.5q-165 0 -259.5 101t-94.5 267zM512 1167l-181 267h164l117 -267h-100z" />
    <glyph glyph-name="uacute" unicode="&#xfa;" horiz-adv-x="1147" 
d="M154 348v676h133v-635q0 -297 245 -297h21q56 -1 110 26.5t96 76t67 121t24 155.5v553h133v-1024h-133v193q-40 -102 -128 -157.5t-214 -55.5q-165 0 -259.5 101t-94.5 267zM512 1167l117 267h164l-180 -267h-101z" />
    <glyph glyph-name="ucircumflex" unicode="&#xfb;" horiz-adv-x="1147" 
d="M154 348v676h133v-635q0 -297 245 -297h21q56 -1 110 26.5t96 76t67 121t24 155.5v553h133v-1024h-133v193q-40 -102 -128 -157.5t-214 -55.5q-165 0 -259.5 101t-94.5 267zM891 1167h-123l-205 154l-205 -154h-123l261 267h135z" />
    <glyph glyph-name="udieresis" unicode="&#xfc;" horiz-adv-x="1147" 
d="M154 348v676h133v-635q0 -297 245 -297h21q56 -1 110 26.5t96 76t67 121t24 155.5v553h133v-1024h-133v193q-40 -102 -128 -157.5t-214 -55.5q-165 0 -259.5 101t-94.5 267zM307 1208v164h154v-164h-154zM666 1208v164h153v-164h-153z" />
    <glyph glyph-name="yacute" unicode="&#xfd;" horiz-adv-x="1065" 
d="M1036 1024l-422 -991v-193q0 -93 -47 -135.5t-147 -42.5h-311v113h290q47 0 64.5 17.5t17.5 64.5v172l-434 995h146l352 -830l352 830h139zM493 1167l117 267h164l-180 -267h-101z" />
    <glyph glyph-name="thorn" unicode="&#xfe;" horiz-adv-x="1198" 
d="M164 -410v1844h133v-574q44 82 141.5 133t200.5 51q200 2 329.5 -146t127.5 -386q2 -238 -127.5 -386t-329.5 -146q-103 0 -200.5 51t-141.5 133v-574h-133zM625 92h10q102 -1 178 57.5t112.5 153t35.5 209.5q1 115 -35.5 209.5t-112.5 153t-178 57.5h-10
q-104 1 -180 -57.5t-112.5 -153t-35.5 -209.5q-1 -115 35.5 -209.5t112.5 -153t180 -57.5z" />
    <glyph glyph-name="ydieresis" unicode="&#xff;" horiz-adv-x="1065" 
d="M1036 1024l-422 -991v-193q0 -93 -47 -135.5t-147 -42.5h-311v113h290q47 0 64.5 17.5t17.5 64.5v172l-434 995h146l352 -830l352 830h139zM288 1208v164h154v-164h-154zM647 1208v164h153v-164h-153z" />
    <glyph glyph-name="Amacron" unicode="&#x100;" horiz-adv-x="1386" 
d="M1217 0l-160 395h-733l-160 -395h-148l588 1434h180l584 -1434h-151zM377 528h627l-313 774zM411 1597v113h564v-113h-564z" />
    <glyph glyph-name="amacron" unicode="&#x101;" horiz-adv-x="1067" 
d="M924 0h-123q-10 53 -10 164q-33 -75 -135 -129.5t-228 -54.5q-134 -2 -230.5 87.5t-93.5 215.5q0 153 104 224q104 73 249 83l323 24v41q0 131 -68 204t-188 73h-10q-103 0 -175 -51q-71 -51 -81 -144h-133q7 135 119 222t274 85q125 0 216 -53t135 -140t44 -196v-430
q0 -150 11 -225zM780 369v137l-297 -21q-112 -8 -178.5 -60t-66.5 -134q0 -84 59 -141.5t145 -57.5h21q69 -2 144 36.5t125 105t48 135.5zM241 1208v113h564v-113h-564z" />
    <glyph glyph-name="Abreve" unicode="&#x102;" horiz-adv-x="1386" 
d="M1217 0l-160 395h-733l-160 -395h-148l588 1434h180l584 -1434h-151zM377 528h627l-313 774zM397 1823h113q7 -82 54.5 -123t129.5 -41q169 0 185 164h112q0 -130 -81 -203.5t-216 -73.5t-216 73.5t-81 203.5z" />
    <glyph glyph-name="abreve" unicode="&#x103;" horiz-adv-x="1067" 
d="M924 0h-123q-10 53 -10 164q-33 -75 -135 -129.5t-228 -54.5q-134 -2 -230.5 87.5t-93.5 215.5q0 153 104 224q104 73 249 83l323 24v41q0 131 -68 204t-188 73h-10q-103 0 -175 -51q-71 -51 -81 -144h-133q7 135 119 222t274 85q125 0 216 -53t135 -140t44 -196v-430
q0 -150 11 -225zM780 369v137l-297 -21q-112 -8 -178.5 -60t-66.5 -134q0 -84 59 -141.5t145 -57.5h21q69 -2 144 36.5t125 105t48 135.5zM237 1434h103q7 -89 55.5 -136t128.5 -47t128.5 47t55.5 136h103q0 -135 -79.5 -211t-207.5 -76t-207.5 76t-79.5 211z" />
    <glyph glyph-name="Aogonek" unicode="&#x104;" horiz-adv-x="1386" 
d="M1290 -287h55v-112h-83q-95 0 -150 44.5t-55 129.5q0 131 160 226l-160 394h-733l-160 -395h-148l588 1434h180l584 -1434q-182 -95 -182 -199q0 -88 104 -88zM377 528h627l-313 774z" />
    <glyph glyph-name="aogonek" unicode="&#x105;" horiz-adv-x="1067" 
d="M846 -287h55v-112h-83q-95 0 -150 44.5t-55 129.5q0 82 55 141q55 58 131 99q-8 62 -8 149q-33 -75 -135 -129.5t-228 -54.5q-134 -2 -230.5 87.5t-93.5 215.5q0 153 104 224q104 73 249 83l323 24v41q0 131 -68 204t-188 73h-10q-103 0 -175 -51q-71 -51 -81 -144h-133
q7 135 119 222t274 85q125 0 216 -53t135 -140t44 -196v-430q0 -150 11 -225q-182 -95 -182 -199q0 -88 104 -88zM780 369v137l-297 -21q-112 -8 -178.5 -60t-66.5 -134q0 -84 59 -141.5t145 -57.5h21q69 -2 144 36.5t125 105t48 135.5z" />
    <glyph glyph-name="Cacute" unicode="&#x106;" horiz-adv-x="1421" 
d="M111 717q-2 209 78 377.5t231 265.5t346 94q232 3 388 -129t165 -332h-143q-18 142 -121 235t-279 93h-20q-117 2 -213 -45.5t-159 -130t-97 -193t-33 -235.5q-1 -125 33 -235.5t97 -193t159 -130t213 -45.5h20q176 0 279 92.5t121 234.5h143q-9 -199 -165.5 -331
t-387.5 -129q-195 -3 -346 94t-231 265.5t-78 377.5zM704 1567l109 256h184l-170 -256h-123z" />
    <glyph glyph-name="cacute" unicode="&#x107;" horiz-adv-x="1067" 
d="M102 512q-1 152 54 272.5t164 191t253 68.5q167 0 276 -94t124 -254h-133q-18 106 -87 171q-68 65 -169 65h-21q-104 1 -179.5 -57t-112 -152.5t-35.5 -210.5q-1 -116 35.5 -210.5t112 -152.5t179.5 -57h21q100 0 167 66q68 68 89 170h133q-29 -160 -132 -255
q-103 -93 -268 -93q-144 -2 -253 68.5t-164 191t-54 272.5zM516 1167l117 267h164l-180 -267h-101z" />
    <glyph glyph-name="Ccircumflex" unicode="&#x108;" horiz-adv-x="1421" 
d="M111 717q-2 209 78 377.5t231 265.5t346 94q232 3 388 -129t165 -332h-143q-18 142 -121 235t-279 93h-20q-117 2 -213 -45.5t-159 -130t-97 -193t-33 -235.5q-1 -125 33 -235.5t97 -193t159 -130t213 -45.5h20q176 0 279 92.5t121 234.5h143q-9 -199 -165.5 -331
t-387.5 -129q-195 -3 -346 94t-231 265.5t-78 377.5zM1094 1567h-139l-189 147l-188 -147h-140l236 256h184z" />
    <glyph glyph-name="ccircumflex" unicode="&#x109;" horiz-adv-x="1067" 
d="M102 512q-1 152 54 272.5t164 191t253 68.5q167 0 276 -94t124 -254h-133q-18 106 -87 171q-68 65 -169 65h-21q-104 1 -179.5 -57t-112 -152.5t-35.5 -210.5q-1 -116 35.5 -210.5t112 -152.5t179.5 -57h21q100 0 167 66q68 68 89 170h133q-29 -160 -132 -255
q-103 -93 -268 -93q-144 -2 -253 68.5t-164 191t-54 272.5zM895 1167h-123l-205 154l-205 -154h-123l261 267h135z" />
    <glyph glyph-name="Cdotaccent" unicode="&#x10a;" horiz-adv-x="1421" 
d="M111 717q-2 209 78 377.5t231 265.5t346 94q232 3 388 -129t165 -332h-143q-18 142 -121 235t-279 93h-20q-117 2 -213 -45.5t-159 -130t-97 -193t-33 -235.5q-1 -125 33 -235.5t97 -193t159 -130t213 -45.5h20q176 0 279 92.5t121 234.5h143q-9 -199 -165.5 -331
t-387.5 -129q-195 -3 -346 94t-231 265.5t-78 377.5zM688 1597v175h154v-175h-154z" />
    <glyph glyph-name="cdotaccent" unicode="&#x10b;" horiz-adv-x="1067" 
d="M102 512q-1 152 54 272.5t164 191t253 68.5q167 0 276 -94t124 -254h-133q-18 106 -87 171q-68 65 -169 65h-21q-104 1 -179.5 -57t-112 -152.5t-35.5 -210.5q-1 -116 35.5 -210.5t112 -152.5t179.5 -57h21q100 0 167 66q68 68 89 170h133q-29 -160 -132 -255
q-103 -93 -268 -93q-144 -2 -253 68.5t-164 191t-54 272.5zM489 1208v174h154v-174h-154z" />
    <glyph glyph-name="Ccaron" unicode="&#x10c;" horiz-adv-x="1421" 
d="M111 717q-2 209 78 377.5t231 265.5t346 94q232 3 388 -129t165 -332h-143q-18 142 -121 235t-279 93h-20q-117 2 -213 -45.5t-159 -130t-97 -193t-33 -235.5q-1 -125 33 -235.5t97 -193t159 -130t213 -45.5h20q176 0 279 92.5t121 234.5h143q-9 -199 -165.5 -331
t-387.5 -129q-195 -3 -346 94t-231 265.5t-78 377.5zM955 1823h139l-236 -256h-184l-236 256h140l188 -148z" />
    <glyph glyph-name="ccaron" unicode="&#x10d;" horiz-adv-x="1067" 
d="M102 512q-1 152 54 272.5t164 191t253 68.5q167 0 276 -94t124 -254h-133q-18 106 -87 171q-68 65 -169 65h-21q-104 1 -179.5 -57t-112 -152.5t-35.5 -210.5q-1 -116 35.5 -210.5t112 -152.5t179.5 -57h21q100 0 167 66q68 68 89 170h133q-29 -160 -132 -255
q-103 -93 -268 -93q-144 -2 -253 68.5t-164 191t-54 272.5zM772 1434h123l-260 -267h-135l-261 267h123l205 -154z" />
    <glyph glyph-name="Dcaron" unicode="&#x10e;" horiz-adv-x="1448" 
d="M199 0v1434h491q291 3 469 -193.5t176 -527.5q3 -330 -174.5 -523t-470.5 -190h-491zM342 133h328q250 0 386 152t136 432q0 281 -136 432t-386 151h-328v-1167zM881 1823h139l-236 -256h-184l-236 256h140l188 -148z" />
    <glyph glyph-name="dcaron" unicode="&#x10f;" horiz-adv-x="1235" 
d="M102 512q-2 238 127.5 386t329.5 146q103 0 200.5 -51t141.5 -133v574h133v-1434h-133v164q-44 -82 -141.5 -133t-200.5 -51q-200 -2 -329.5 146t-127.5 386zM563 92h10q104 -1 180 57.5t112.5 153t35.5 209.5q1 115 -35.5 209.5t-112.5 153t-180 57.5h-10
q-102 1 -177.5 -57.5t-112 -153t-35.5 -209.5q-1 -115 35.5 -209.5t112 -153t177.5 -57.5zM1126 1106v72h10q92 0 92 82v20h-61v154h133v-174q0 -71 -42 -112.5t-112 -41.5h-20z" />
    <glyph glyph-name="Dcroat" unicode="&#x110;" horiz-adv-x="1481" 
d="M1368 713q3 -330 -174.5 -523t-470.5 -190h-491v655h-206v123h206v656h491q291 3 469 -193.5t176 -527.5zM1225 717q0 281 -136 432t-386 151h-328v-522h307v-123h-307v-522h328q250 0 386 152t136 432z" />
    <glyph glyph-name="dcroat" unicode="&#x111;" horiz-adv-x="1198" 
d="M1198 1280v-102h-164v-1178h-133v164q-44 -82 -141.5 -133t-200.5 -51q-200 -2 -329.5 146t-127.5 386q-2 238 127.5 386t329.5 146q103 0 200.5 -51t141.5 -133v318h-328v102h328v154h133v-154h164zM901 512q1 115 -35.5 209.5t-112.5 153t-180 57.5h-10
q-102 1 -177.5 -57.5t-112 -153t-35.5 -209.5q-1 -115 35.5 -209.5t112 -153t177.5 -57.5h10q104 -1 180 57.5t112.5 153t35.5 209.5z" />
    <glyph glyph-name="Emacron" unicode="&#x112;" horiz-adv-x="1315" 
d="M199 0v1434h1001v-134h-858v-495h735v-133h-735v-539h879v-133h-1022zM417 1597v113h564v-113h-564z" />
    <glyph glyph-name="emacron" unicode="&#x113;" horiz-adv-x="1077" 
d="M102 514q-1 125 36 227.5t101 168t146.5 100.5t173.5 34q182 2 299 -130.5t115 -329.5v-82h-737q3 -202 92.5 -306t228.5 -104h12q211 0 269 201h133q-33 -150 -143 -232q-110 -81 -269 -81q-199 -2 -329 141.5t-128 392.5zM240 614h600q-5 139 -80 228.5t-193 89.5h-20
q-54 0 -103 -17.5t-92.5 -53.5t-73 -99.5t-38.5 -147.5zM276 1208v113h564v-113h-564z" />
    <glyph glyph-name="Ebreve" unicode="&#x114;" horiz-adv-x="1315" 
d="M199 0v1434h1001v-134h-858v-495h735v-133h-735v-539h879v-133h-1022zM403 1823h113q7 -82 54.5 -123t129.5 -41q169 0 185 164h112q0 -130 -81 -203.5t-216 -73.5t-216 73.5t-81 203.5z" />
    <glyph glyph-name="ebreve" unicode="&#x115;" horiz-adv-x="1077" 
d="M102 514q-1 125 36 227.5t101 168t146.5 100.5t173.5 34q182 2 299 -130.5t115 -329.5v-82h-737q3 -202 92.5 -306t228.5 -104h12q211 0 269 201h133q-33 -150 -143 -232q-110 -81 -269 -81q-199 -2 -329 141.5t-128 392.5zM240 614h600q-5 139 -80 228.5t-193 89.5h-20
q-54 0 -103 -17.5t-92.5 -53.5t-73 -99.5t-38.5 -147.5zM272 1434h103q7 -89 55.5 -136t128.5 -47t128.5 47t55.5 136h103q0 -135 -79.5 -211t-207.5 -76t-207.5 76t-79.5 211z" />
    <glyph glyph-name="Edotaccent" unicode="&#x116;" horiz-adv-x="1315" 
d="M199 0v1434h1001v-134h-858v-495h735v-133h-735v-539h879v-133h-1022zM622 1597v175h154v-175h-154z" />
    <glyph glyph-name="edotaccent" unicode="&#x117;" horiz-adv-x="1077" 
d="M102 514q-1 125 36 227.5t101 168t146.5 100.5t173.5 34q182 2 299 -130.5t115 -329.5v-82h-737q3 -202 92.5 -306t228.5 -104h12q211 0 269 201h133q-33 -150 -143 -232q-110 -81 -269 -81q-199 -2 -329 141.5t-128 392.5zM240 614h600q-5 139 -80 228.5t-193 89.5h-20
q-54 0 -103 -17.5t-92.5 -53.5t-73 -99.5t-38.5 -147.5zM481 1208v174h154v-174h-154z" />
    <glyph glyph-name="Eogonek" unicode="&#x118;" horiz-adv-x="1315" 
d="M1039 -199q0 -88 104 -88h55v-112h-83q-95 0 -150 44.5t-55 129.5q0 130 158 225h-869v1434h1001v-134h-858v-495h735v-133h-735v-539h879v-133q-182 -95 -182 -199z" />
    <glyph glyph-name="eogonek" unicode="&#x119;" horiz-adv-x="1077" 
d="M973 584v-82h-737q3 -202 92.5 -306t228.5 -104h12q211 0 269 201h133q-25 -113 -94 -188t-174 -106q-181 -95 -181 -198q0 -88 104 -88h55v-112h-83q-95 0 -150 44.5t-55 129.5q0 117 129 206q-186 12 -304 154t-116 379q-1 125 36 227.5t101 168t146.5 100.5t173.5 34
q182 2 299 -130.5t115 -329.5zM240 614h600q-5 139 -80 228.5t-193 89.5h-20q-54 0 -103 -17.5t-92.5 -53.5t-73 -99.5t-38.5 -147.5z" />
    <glyph glyph-name="Ecaron" unicode="&#x11a;" horiz-adv-x="1315" 
d="M199 0v1434h1001v-134h-858v-495h735v-133h-735v-539h879v-133h-1022zM889 1823h139l-236 -256h-184l-236 256h140l188 -148z" />
    <glyph glyph-name="ecaron" unicode="&#x11b;" horiz-adv-x="1077" 
d="M102 514q-1 125 36 227.5t101 168t146.5 100.5t173.5 34q182 2 299 -130.5t115 -329.5v-82h-737q3 -202 92.5 -306t228.5 -104h12q211 0 269 201h133q-33 -150 -143 -232q-110 -81 -269 -81q-199 -2 -329 141.5t-128 392.5zM240 614h600q-5 139 -80 228.5t-193 89.5h-20
q-54 0 -103 -17.5t-92.5 -53.5t-73 -99.5t-38.5 -147.5zM764 1434h123l-260 -267h-135l-261 267h123l205 -154z" />
    <glyph glyph-name="Gcircumflex" unicode="&#x11c;" horiz-adv-x="1493" 
d="M111 717q-2 214 77.5 381.5t233.5 262.5t358 93q240 1 394 -131.5t176 -349.5h-144q-24 163 -134.5 255.5t-280.5 92.5h-21q-231 2 -374.5 -160.5t-141.5 -443.5q-1 -282 143 -444t379 -160h21q114 -2 212 45.5t159 140t59 211.5v74h-441v133h441q133 0 133 -133v-584
h-133v186q-67 -96 -185 -151q-117 -55 -264 -55q-202 -2 -355 92.5t-233 262.5t-79 382zM1116 1567h-139l-189 147l-188 -147h-140l236 256h184z" />
    <glyph glyph-name="gcircumflex" unicode="&#x11d;" horiz-adv-x="1182" 
d="M82 -143h133q20 -95 103 -145t217 -50h20q146 0 238 89.5t92 266.5v166q-102 -184 -340 -184q-196 -2 -320.5 137t-122.5 375q-2 238 124 386t319 146q238 0 340 -184v164h133v-1016q2 -202 -128.5 -332t-344.5 -127q-210 0 -328.5 82t-134.5 226zM549 113h20
q142 0 229 106.5t87 292.5q0 188 -88 304t-228 116h-20q-139 0 -226 -115.5t-87 -304.5q0 -186 85.5 -292.5t227.5 -106.5zM901 1167h-123l-205 154l-205 -154h-123l261 267h135z" />
    <glyph glyph-name="Gbreve" unicode="&#x11e;" horiz-adv-x="1493" 
d="M111 717q-2 214 77.5 381.5t233.5 262.5t358 93q240 1 394 -131.5t176 -349.5h-144q-24 163 -134.5 255.5t-280.5 92.5h-21q-231 2 -374.5 -160.5t-141.5 -443.5q-1 -282 143 -444t379 -160h21q114 -2 212 45.5t159 140t59 211.5v74h-441v133h441q133 0 133 -133v-584
h-133v186q-67 -96 -185 -151q-117 -55 -264 -55q-202 -2 -355 92.5t-233 262.5t-79 382zM491 1823h113q7 -82 54.5 -123t129.5 -41q169 0 185 164h112q0 -130 -81 -203.5t-216 -73.5t-216 73.5t-81 203.5z" />
    <glyph glyph-name="gbreve" unicode="&#x11f;" horiz-adv-x="1182" 
d="M82 -143h133q20 -95 103 -145t217 -50h20q146 0 238 89.5t92 266.5v166q-102 -184 -340 -184q-196 -2 -320.5 137t-122.5 375q-2 238 124 386t319 146q238 0 340 -184v164h133v-1016q2 -202 -128.5 -332t-344.5 -127q-210 0 -328.5 82t-134.5 226zM549 113h20
q142 0 229 106.5t87 292.5q0 188 -88 304t-228 116h-20q-139 0 -226 -115.5t-87 -304.5q0 -186 85.5 -292.5t227.5 -106.5zM286 1434h103q7 -89 55.5 -136t128.5 -47t128.5 47t55.5 136h103q0 -135 -79.5 -211t-207.5 -76t-207.5 76t-79.5 211z" />
    <glyph glyph-name="Gdotaccent" unicode="&#x120;" horiz-adv-x="1493" 
d="M111 717q-2 214 77.5 381.5t233.5 262.5t358 93q240 1 394 -131.5t176 -349.5h-144q-24 163 -134.5 255.5t-280.5 92.5h-21q-231 2 -374.5 -160.5t-141.5 -443.5q-1 -282 143 -444t379 -160h21q114 -2 212 45.5t159 140t59 211.5v74h-441v133h441q133 0 133 -133v-584
h-133v186q-67 -96 -185 -151q-117 -55 -264 -55q-202 -2 -355 92.5t-233 262.5t-79 382zM710 1597v175h154v-175h-154z" />
    <glyph glyph-name="gdotaccent" unicode="&#x121;" horiz-adv-x="1182" 
d="M82 -143h133q20 -95 103 -145t217 -50h20q146 0 238 89.5t92 266.5v166q-102 -184 -340 -184q-196 -2 -320.5 137t-122.5 375q-2 238 124 386t319 146q238 0 340 -184v164h133v-1016q2 -202 -128.5 -332t-344.5 -127q-210 0 -328.5 82t-134.5 226zM549 113h20
q142 0 229 106.5t87 292.5q0 188 -88 304t-228 116h-20q-139 0 -226 -115.5t-87 -304.5q0 -186 85.5 -292.5t227.5 -106.5zM495 1208v174h154v-174h-154z" />
    <glyph glyph-name="uni0122" unicode="&#x122;" horiz-adv-x="1493" 
d="M111 717q-2 214 77.5 381.5t233.5 262.5t358 93q240 1 394 -131.5t176 -349.5h-144q-24 163 -134.5 255.5t-280.5 92.5h-21q-231 2 -374.5 -160.5t-141.5 -443.5q-1 -282 143 -444t379 -160h21q114 -2 212 45.5t159 140t59 211.5v74h-441v133h441q133 0 133 -133v-584
h-133v186q-67 -96 -185 -151q-117 -55 -264 -55q-202 -2 -355 92.5t-233 262.5t-79 382zM678 -512v72h10q92 0 92 82v20h-61v154h133v-174q0 -71 -42 -112.5t-112 -41.5h-20z" />
    <glyph glyph-name="uni0123" unicode="&#x123;" horiz-adv-x="1182" 
d="M82 -143h133q20 -95 103 -145t217 -50h20q146 0 238 89.5t92 266.5v166q-102 -184 -340 -184q-196 -2 -320.5 137t-122.5 375q-2 238 124 386t319 146q238 0 340 -184v164h133v-1016q2 -202 -128.5 -332t-344.5 -127q-210 0 -328.5 82t-134.5 226zM549 113h20
q142 0 229 106.5t87 292.5q0 188 -88 304t-228 116h-20q-139 0 -226 -115.5t-87 -304.5q0 -186 85.5 -292.5t227.5 -106.5zM680 1550v-72h-10q-92 0 -92 -82v-20h61v-154h-133v174q0 71 42 112.5t112 41.5h20z" />
    <glyph glyph-name="Hcircumflex" unicode="&#x124;" horiz-adv-x="1493" 
d="M199 0v1434h143v-650h809v650h143v-1434h-143v651h-809v-651h-143zM1075 1567h-139l-189 147l-188 -147h-140l236 256h184z" />
    <glyph glyph-name="hcircumflex" unicode="&#x125;" horiz-adv-x="1167" 
d="M164 0v1434h133v-584q54 93 148.5 143.5t220.5 50.5q165 0 256.5 -100.5t91.5 -267.5v-676h-133v635q0 297 -246 297h-21q-59 1 -116.5 -26.5t-102.5 -76t-72 -121t-26 -155.5v-553h-133zM950 1556h-123l-205 154l-205 -154h-123l261 267h135z" />
    <glyph glyph-name="Hbar" unicode="&#x126;" horiz-adv-x="1518" 
d="M1450 1188v-123h-144v-1065h-143v651h-809v-651h-143v1065h-144v123h144v246h143v-246h809v246h143v-246h144zM1163 784v281h-809v-281h809z" />
    <glyph glyph-name="hbar" unicode="&#x127;" horiz-adv-x="1167" 
d="M1014 676v-676h-133v635q0 297 -246 297h-21q-59 1 -116.5 -26.5t-102.5 -76t-72 -121t-26 -155.5v-553h-133v1178h-146v102h146v154h133v-154h346v-102h-346v-328q54 93 148.5 143.5t220.5 50.5q165 0 256.5 -100.5t91.5 -267.5z" />
    <glyph glyph-name="Itilde" unicode="&#x128;" horiz-adv-x="541" 
d="M199 0v1434h143v-1434h-143zM266 1630l-65 47q-42 33 -82 33q-84 0 -84 -133h-103v47q0 85 51 142t130 57q71 0 131 -45l69 -52q10 -6 22 -16q53 -41 89 -41q80 0 80 133h102v-47q0 -84 -51.5 -141.5t-124.5 -57.5q-36 0 -71 16t-93 58z" />
    <glyph glyph-name="itilde" unicode="&#x129;" horiz-adv-x="461" 
d="M164 0v1024h133v-1024h-133zM227 1221l-65 47q-47 32 -82 32q-84 0 -84 -133h-103v47q0 85 51 142t130 57q72 0 131 -45l69 -51l20 -15q53 -42 91 -42q80 0 80 133h102v-47q0 -84 -51.5 -141.5t-124.5 -57.5q-36 0 -71 16t-93 58z" />
    <glyph glyph-name="Imacron" unicode="&#x12a;" horiz-adv-x="541" 
d="M199 0v1434h143v-1434h-143zM-13 1597v113h564v-113h-564z" />
    <glyph glyph-name="imacron" unicode="&#x12b;" horiz-adv-x="461" 
d="M164 0v1024h133v-1024h-133zM-52 1208v113h564v-113h-564z" />
    <glyph glyph-name="Ibreve" unicode="&#x12c;" horiz-adv-x="541" 
d="M199 0v1434h143v-1434h-143zM-27 1823h113q7 -82 54.5 -123t129.5 -41q169 0 185 164h112q0 -130 -81 -203.5t-216 -73.5t-216 73.5t-81 203.5z" />
    <glyph glyph-name="ibreve" unicode="&#x12d;" horiz-adv-x="461" 
d="M164 0v1024h133v-1024h-133zM-56 1434h103q7 -89 55.5 -136t128.5 -47t128.5 47t55.5 136h103q0 -135 -79.5 -211t-207.5 -76t-207.5 76t-79.5 211z" />
    <glyph glyph-name="Iogonek" unicode="&#x12e;" horiz-adv-x="541" 
d="M160 -199q0 -88 104 -88h55v-112h-83q-95 0 -150 44.5t-55 129.5q0 77 49 133q51 59 119 98v1428h143v-1434q-182 -95 -182 -199z" />
    <glyph glyph-name="iogonek" unicode="&#x12f;" horiz-adv-x="461" 
d="M154 1382h153v-174h-153v174zM164 11v1013h133v-1024q-182 -95 -182 -199q0 -88 104 -88h55v-112h-83q-95 0 -150 44.5t-55 129.5q0 80 52 138q51 57 126 98z" />
    <glyph glyph-name="Idotaccent" unicode="&#x130;" horiz-adv-x="541" 
d="M199 0v1434h143v-1434h-143zM192 1597v175h154v-175h-154z" />
    <glyph glyph-name="dotlessi" unicode="&#x131;" horiz-adv-x="461" 
d="M164 0v1024h133v-1024h-133z" />
    <glyph glyph-name="IJ" unicode="&#x132;" horiz-adv-x="1124" 
d="M147 0v133h461q185 0 185 236v1065h143v-1059q0 -184 -84 -279.5t-242 -95.5h-463zM147 379v1055h144v-1055h-144z" />
    <glyph glyph-name="ij" unicode="&#x133;" horiz-adv-x="973" 
d="M154 1208v174h153v-174h-153zM666 1208v174h153v-174h-153zM164 -338v113h430q46 0 64 18t18 64v1167h133v-1178q0 -98 -46 -141t-149 -43h-450zM164 0v1024h133v-1024h-133z" />
    <glyph glyph-name="Jcircumflex" unicode="&#x134;" horiz-adv-x="793" 
d="M53 0v133h223q185 0 185 236v1065h143v-1059q0 -184 -83.5 -279.5t-241.5 -95.5h-226zM860 1567h-139l-189 147l-188 -147h-140l236 256h184z" />
    <glyph glyph-name="jcircumflex" unicode="&#x135;" horiz-adv-x="477" 
d="M-168 -338v113h266q47 0 64.5 17.5t17.5 64.5v1167h133v-1178q0 -98 -46 -141t-148 -43h-287zM576 1167h-123l-205 154l-205 -154h-123l261 267h135z" />
    <glyph glyph-name="uni0136" unicode="&#x136;" horiz-adv-x="1370" 
d="M1167 0l-516 753l-309 -306v-447h-143v1434h143v-799l805 799h190l-583 -579l592 -855h-179zM602 -512v72h10q92 0 92 82v20h-61v154h133v-174q0 -71 -42 -112.5t-112 -41.5h-20z" />
    <glyph glyph-name="uni0137" unicode="&#x137;" horiz-adv-x="1073" 
d="M879 0l-375 525l-207 -198v-327h-133v1434h133v-939l545 529h182l-426 -408l446 -616h-165zM434 -512v72h10q92 0 92 82v20h-61v154h133v-174q0 -71 -42 -112.5t-112 -41.5h-20z" />
    <glyph glyph-name="Lacute" unicode="&#x139;" horiz-adv-x="1233" 
d="M199 0v1434h143v-1301h858v-133h-1001zM215 1567l109 256h184l-170 -256h-123z" />
    <glyph glyph-name="lacute" unicode="&#x13a;" horiz-adv-x="461" 
d="M164 0v1434h133v-1434h-133zM180 1556l117 267h164l-180 -267h-101z" />
    <glyph glyph-name="uni013B" unicode="&#x13b;" horiz-adv-x="1233" 
d="M199 0v1434h143v-1301h858v-133h-1001zM592 -512v72h10q92 0 92 82v20h-61v154h133v-174q0 -71 -42 -112.5t-112 -41.5h-20z" />
    <glyph glyph-name="uni013C" unicode="&#x13c;" horiz-adv-x="461" 
d="M164 0v1434h133v-1434h-133zM123 -512v72h10q92 0 92 82v20h-61v154h133v-174q0 -71 -42 -112.5t-112 -41.5h-20z" />
    <glyph glyph-name="Lcaron" unicode="&#x13d;" horiz-adv-x="1233" 
d="M199 0v1434h143v-1301h858v-133h-1001zM575 1106v72h10q92 0 92 82v20h-61v154h133v-174q0 -71 -42 -112.5t-112 -41.5h-20z" />
    <glyph glyph-name="lcaron" unicode="&#x13e;" horiz-adv-x="498" 
d="M164 0v1434h133v-1434h-133zM387 1106v72h10q92 0 92 82v20h-61v154h133v-174q0 -71 -42 -112.5t-112 -41.5h-20z" />
    <glyph glyph-name="Ldot" unicode="&#x13f;" horiz-adv-x="1237" 
d="M199 0v1434h143v-1301h858v-133h-1001zM805 645v185h184v-185h-184z" />
    <glyph glyph-name="ldot" unicode="&#x140;" horiz-adv-x="530" 
d="M164 0v1434h133v-1434h-133zM405 592v185h184v-185h-184z" />
    <glyph glyph-name="Lslash" unicode="&#x141;" horiz-adv-x="1282" 
d="M391 133h858v-133h-1001v570l-195 -111v145l195 110v720h143v-639l398 225v-143l-398 -226v-518z" />
    <glyph glyph-name="lslash" unicode="&#x142;" horiz-adv-x="571" 
d="M531 1018v-133l-175 -100v-785h-133v709l-174 -99v136l174 98v590h133v-515z" />
    <glyph glyph-name="Nacute" unicode="&#x143;" horiz-adv-x="1513" 
d="M1171 1434h144v-1434h-174l-799 1234v-1234h-143v1434h184l788 -1215v1215zM716 1567l109 256h184l-170 -256h-123z" />
    <glyph glyph-name="nacute" unicode="&#x144;" horiz-adv-x="1167" 
d="M164 0v1024h133v-172q44 86 140 139q95 53 218 53q160 0 259.5 -99t99.5 -275v-670h-133v629q0 303 -246 303h-12q-78 1 -141 -32.5t-103 -92t-61 -134.5t-21 -161v-512h-133zM544 1167l117 267h164l-180 -267h-101z" />
    <glyph glyph-name="uni0145" unicode="&#x145;" horiz-adv-x="1513" 
d="M1171 1434h144v-1434h-174l-799 1234v-1234h-143v1434h184l788 -1215v1215zM649 -512v72h10q92 0 92 82v20h-61v154h133v-174q0 -71 -42 -112.5t-112 -41.5h-20z" />
    <glyph glyph-name="uni0146" unicode="&#x146;" horiz-adv-x="1167" 
d="M164 0v1024h133v-172q44 86 140 139q95 53 218 53q160 0 259.5 -99t99.5 -275v-670h-133v629q0 303 -246 303h-12q-78 1 -141 -32.5t-103 -92t-61 -134.5t-21 -161v-512h-133zM487 -512v72h10q92 0 92 82v20h-61v154h133v-174q0 -71 -42 -112.5t-112 -41.5h-20z" />
    <glyph glyph-name="Ncaron" unicode="&#x147;" horiz-adv-x="1513" 
d="M1171 1434h144v-1434h-174l-799 1234v-1234h-143v1434h184l788 -1215v1215zM967 1823h139l-236 -256h-184l-236 256h140l188 -148z" />
    <glyph glyph-name="ncaron" unicode="&#x148;" horiz-adv-x="1167" 
d="M164 0v1024h133v-172q44 86 140 139q95 53 218 53q160 0 259.5 -99t99.5 -275v-670h-133v629q0 303 -246 303h-12q-78 1 -141 -32.5t-103 -92t-61 -134.5t-21 -161v-512h-133zM801 1434h123l-260 -267h-135l-261 267h123l205 -154z" />
    <glyph glyph-name="Eng" unicode="&#x14a;" horiz-adv-x="1513" 
d="M864 -358v133h215q54 0 73 19t19 73v133l-829 1210v-1210h-143v1434h161l811 -1182v1182h144v-1577q0 -215 -215 -215h-236z" />
    <glyph glyph-name="eng" unicode="&#x14b;" horiz-adv-x="1167" 
d="M614 -338v113h185q47 0 64.5 17.5t17.5 64.5v772q0 303 -246 303h-12q-78 1 -141 -32.5t-103 -92t-61 -134.5t-21 -161v-512h-133v1024h133v-172q44 86 140 139q95 53 218 53q160 0 259.5 -99t99.5 -275v-824q0 -98 -46 -141t-149 -43h-205z" />
    <glyph glyph-name="Omacron" unicode="&#x14c;" horiz-adv-x="1532" 
d="M111 717q-1 166 48.5 305.5t137 234t208.5 146.5t261 51q140 1 261 -51t208.5 -146.5t137 -234t48.5 -305.5q1 -166 -48.5 -305.5t-137 -234t-208.5 -146.5t-261 -51q-140 -1 -261 51t-208.5 146.5t-137 234t-48.5 305.5zM756 113h20q220 -2 362 165t140 439
q2 272 -140 439t-362 165h-20q-220 2 -362 -165t-140 -439q-2 -272 140 -439t362 -165zM483 1597v113h564v-113h-564z" />
    <glyph glyph-name="omacron" unicode="&#x14d;" horiz-adv-x="1143" 
d="M100 512q-2 151 61 275t172 191.5t238 65.5q130 2 238.5 -66t171.5 -191.5t61 -274.5q2 -151 -61 -274.5t-171.5 -191.5t-238.5 -66q-129 -2 -238 65.5t-172 191.5t-61 275zM561 92h21q140 -2 233.5 114.5t91.5 305.5q0 190 -92 305t-233 115h-21q-141 0 -233 -115
t-92 -305q-2 -189 91.5 -305.5t233.5 -114.5zM288 1208v113h564v-113h-564z" />
    <glyph glyph-name="Obreve" unicode="&#x14e;" horiz-adv-x="1532" 
d="M111 717q-1 166 48.5 305.5t137 234t208.5 146.5t261 51q140 1 261 -51t208.5 -146.5t137 -234t48.5 -305.5q1 -166 -48.5 -305.5t-137 -234t-208.5 -146.5t-261 -51q-140 -1 -261 51t-208.5 146.5t-137 234t-48.5 305.5zM756 113h20q220 -2 362 165t140 439
q2 272 -140 439t-362 165h-20q-220 2 -362 -165t-140 -439q-2 -272 140 -439t362 -165zM469 1823h113q7 -82 54.5 -123t129.5 -41q169 0 185 164h112q0 -130 -81 -203.5t-216 -73.5t-216 73.5t-81 203.5z" />
    <glyph glyph-name="obreve" unicode="&#x14f;" horiz-adv-x="1143" 
d="M100 512q-2 151 61 275t172 191.5t238 65.5q130 2 238.5 -66t171.5 -191.5t61 -274.5q2 -151 -61 -274.5t-171.5 -191.5t-238.5 -66q-129 -2 -238 65.5t-172 191.5t-61 275zM561 92h21q140 -2 233.5 114.5t91.5 305.5q0 190 -92 305t-233 115h-21q-141 0 -233 -115
t-92 -305q-2 -189 91.5 -305.5t233.5 -114.5zM284 1434h103q7 -89 55.5 -136t128.5 -47t128.5 47t55.5 136h103q0 -135 -79.5 -211t-207.5 -76t-207.5 76t-79.5 211z" />
    <glyph glyph-name="Ohungarumlaut" unicode="&#x150;" horiz-adv-x="1532" 
d="M111 717q-1 166 48.5 305.5t137 234t208.5 146.5t261 51q140 1 261 -51t208.5 -146.5t137 -234t48.5 -305.5q1 -166 -48.5 -305.5t-137 -234t-208.5 -146.5t-261 -51q-140 -1 -261 51t-208.5 146.5t-137 234t-48.5 305.5zM756 113h20q220 -2 362 165t140 439
q2 272 -140 439t-362 165h-20q-220 2 -362 -165t-140 -439q-2 -272 140 -439t362 -165zM542 1567l109 256h184l-170 -256h-123zM878 1567l109 256h184l-170 -256h-123z" />
    <glyph glyph-name="ohungarumlaut" unicode="&#x151;" horiz-adv-x="1143" 
d="M100 512q-2 151 61 275t172 191.5t238 65.5q130 2 238.5 -66t171.5 -191.5t61 -274.5q2 -151 -61 -274.5t-171.5 -191.5t-238.5 -66q-129 -2 -238 65.5t-172 191.5t-61 275zM561 92h21q140 -2 233.5 114.5t91.5 305.5q0 190 -92 305t-233 115h-21q-141 0 -233 -115
t-92 -305q-2 -189 91.5 -305.5t233.5 -114.5zM315 1167l117 267h164l-180 -267h-101zM641 1167l117 267h164l-180 -267h-101z" />
    <glyph glyph-name="OE" unicode="&#x152;" horiz-adv-x="2392" 
d="M111 717q-1 166 48.5 305.5t137 234t208.5 146.5t261 51q159 0 290.5 -63.5t219.5 -182.5v226h1001v-134h-858v-495h735v-133h-735v-539h879v-133h-1022v225q-88 -118 -220 -181.5t-290 -63.5q-140 -1 -261 51t-208.5 146.5t-137 234t-48.5 305.5zM756 113h20
q220 -2 362 165t140 439q2 272 -140 439t-362 165h-20q-220 2 -362 -165t-140 -439q-2 -272 140 -439t362 -165z" />
    <glyph glyph-name="oe" unicode="&#x153;" horiz-adv-x="1884" 
d="M100 512q-2 151 61 275t172 191.5t238 65.5q128 0 233.5 -63t168.5 -176q59 116 162.5 177.5t230.5 61.5q182 2 299 -130.5t115 -329.5v-82h-738q3 -201 93 -305.5t229 -104.5h12q211 0 269 201h133q-33 -150 -143 -232q-109 -81 -269 -81q-131 0 -233.5 61.5
t-161.5 177.5q-61 -111 -168 -176q-105 -63 -232 -63q-129 -2 -238 65.5t-172 191.5t-61 275zM561 92h21q140 -2 233.5 114.5t91.5 305.5q0 190 -92 305t-233 115h-21q-141 0 -233 -115t-92 -305q-2 -189 91.5 -305.5t233.5 -114.5zM1047 614h600q-5 139 -80.5 229
t-192.5 89h-20q-54 0 -103 -17.5t-92.5 -53.5t-73 -99.5t-38.5 -147.5z" />
    <glyph glyph-name="Racute" unicode="&#x154;" horiz-adv-x="1382" 
d="M199 0v1434h585q185 3 313.5 -108.5t125.5 -274.5q0 -121 -59 -213q-58 -91 -158 -131q107 0 151.5 -44.5t44.5 -150.5v-512h-143v512q0 92 -92 92h-625v-604h-143zM342 737h422q127 -2 222.5 82.5t92.5 210.5q0 127 -83.5 198.5t-231.5 71.5h-422v-563zM604 1567
l109 256h184l-170 -256h-123z" />
    <glyph glyph-name="racute" unicode="&#x155;" horiz-adv-x="733" 
d="M164 0v1024h123v-233q35 119 120 180q87 63 197 63h92v-123h-82q-147 0 -232 -110.5t-85 -302.5v-498h-133zM358 1167l117 267h164l-180 -267h-101z" />
    <glyph glyph-name="uni0156" unicode="&#x156;" horiz-adv-x="1382" 
d="M199 0v1434h585q185 3 313.5 -108.5t125.5 -274.5q0 -121 -59 -213q-58 -91 -158 -131q107 0 151.5 -44.5t44.5 -150.5v-512h-143v512q0 92 -92 92h-625v-604h-143zM342 737h422q127 -2 222.5 82.5t92.5 210.5q0 127 -83.5 198.5t-231.5 71.5h-422v-563zM600 -512v72h10
q92 0 92 82v20h-61v154h133v-174q0 -71 -42 -112.5t-112 -41.5h-20z" />
    <glyph glyph-name="uni0157" unicode="&#x157;" horiz-adv-x="733" 
d="M164 0v1024h123v-233q35 119 120 180q87 63 197 63h92v-123h-82q-147 0 -232 -110.5t-85 -302.5v-498h-133zM121 -512v72h10q92 0 92 82v20h-61v154h133v-174q0 -71 -42 -112.5t-112 -41.5h-20z" />
    <glyph glyph-name="Rcaron" unicode="&#x158;" horiz-adv-x="1382" 
d="M199 0v1434h585q185 3 313.5 -108.5t125.5 -274.5q0 -121 -59 -213q-58 -91 -158 -131q107 0 151.5 -44.5t44.5 -150.5v-512h-143v512q0 92 -92 92h-625v-604h-143zM342 737h422q127 -2 222.5 82.5t92.5 210.5q0 127 -83.5 198.5t-231.5 71.5h-422v-563zM854 1823h139
l-236 -256h-184l-236 256h140l188 -148z" />
    <glyph glyph-name="rcaron" unicode="&#x159;" horiz-adv-x="733" 
d="M164 0v1024h123v-233q35 119 120 180q87 63 197 63h92v-123h-82q-147 0 -232 -110.5t-85 -302.5v-498h-133zM614 1434h123l-260 -267h-135l-261 267h123l205 -154z" />
    <glyph glyph-name="Sacute" unicode="&#x15a;" horiz-adv-x="1266" 
d="M86 451h143q0 -159 111.5 -248.5t296.5 -89.5h20q157 0 247.5 75t90.5 191q0 99 -65 158.5t-201 87.5l-229 47q-342 70 -342 372q-3 173 135 293t356 117q227 2 367 -118.5t145 -321.5h-143q-9 138 -109 222.5t-250 84.5h-20q-147 0 -242.5 -78.5t-95.5 -195.5
q0 -183 238 -232l229 -45q371 -74 371 -383q2 -187 -135 -298t-365 -109q-261 0 -407 124t-146 347zM587 1567l109 256h184l-170 -256h-123z" />
    <glyph glyph-name="sacute" unicode="&#x15b;" horiz-adv-x="977" 
d="M84 307h133q10 -101 81.5 -158t182.5 -57h21q107 0 169 50t62 134q0 63 -40.5 99t-139.5 59l-150 33q-130 29 -204 91q-74 65 -74 185q0 137 105.5 219t261.5 82q175 2 276 -93t109 -234h-134q-9 90 -75.5 152.5t-165.5 62.5h-21q-101 0 -162 -51.5t-61 -124.5
q0 -68 42.5 -105t143.5 -59l160 -35q122 -25 193 -88q69 -61 69 -182q0 -143 -101.5 -225t-272.5 -82q-189 0 -294.5 89.5t-113.5 237.5zM430 1167l117 267h164l-180 -267h-101z" />
    <glyph glyph-name="Scircumflex" unicode="&#x15c;" horiz-adv-x="1266" 
d="M86 451h143q0 -159 111.5 -248.5t296.5 -89.5h20q157 0 247.5 75t90.5 191q0 99 -65 158.5t-201 87.5l-229 47q-342 70 -342 372q-3 173 135 293t356 117q227 2 367 -118.5t145 -321.5h-143q-9 138 -109 222.5t-250 84.5h-20q-147 0 -242.5 -78.5t-95.5 -195.5
q0 -183 238 -232l229 -45q371 -74 371 -383q2 -187 -135 -298t-365 -109q-261 0 -407 124t-146 347zM977 1567h-139l-189 147l-188 -147h-140l236 256h184z" />
    <glyph glyph-name="scircumflex" unicode="&#x15d;" horiz-adv-x="977" 
d="M84 307h133q10 -101 81.5 -158t182.5 -57h21q107 0 169 50t62 134q0 63 -40.5 99t-139.5 59l-150 33q-130 29 -204 91q-74 65 -74 185q0 137 105.5 219t261.5 82q175 2 276 -93t109 -234h-134q-9 90 -75.5 152.5t-165.5 62.5h-21q-101 0 -162 -51.5t-61 -124.5
q0 -68 42.5 -105t143.5 -59l160 -35q122 -25 193 -88q69 -61 69 -182q0 -143 -101.5 -225t-272.5 -82q-189 0 -294.5 89.5t-113.5 237.5zM809 1167h-123l-205 154l-205 -154h-123l261 267h135z" />
    <glyph glyph-name="Scedilla" unicode="&#x15e;" horiz-adv-x="1266" 
d="M1139 387q0 -177 -122 -286.5t-333 -119.5v-73q68 2 118 -45.5t50 -120.5q0 -89 -54.5 -146t-150.5 -57h-127v113h129q46 0 73.5 23.5t27.5 66.5t-27.5 65.5t-73.5 22.5h-57v151q-239 11 -372.5 135t-133.5 335h143q0 -159 111.5 -248.5t296.5 -89.5h20q157 0 247.5 75
t90.5 191q0 99 -65 158.5t-201 87.5l-229 47q-342 70 -342 372q-3 173 135 293t356 117q227 2 367 -118.5t145 -321.5h-143q-9 138 -109 222.5t-250 84.5h-20q-147 0 -242.5 -78.5t-95.5 -195.5q0 -183 238 -232l229 -45q371 -74 371 -383z" />
    <glyph glyph-name="scedilla" unicode="&#x15f;" horiz-adv-x="977" 
d="M866 287q0 -136 -91.5 -216.5t-248.5 -89.5v-73q68 2 118 -45.5t50 -120.5q0 -89 -54.5 -146t-150.5 -57h-127v113h129q46 0 73.5 23.5t27.5 66.5t-27.5 65.5t-73.5 22.5h-57v152q-164 14 -254 102q-89 89 -96 223h133q10 -101 81.5 -158t182.5 -57h21q107 0 169 50
t62 134q0 63 -40.5 99t-139.5 59l-150 33q-130 29 -204 91q-74 65 -74 185q0 137 105.5 219t261.5 82q175 2 276 -93t109 -234h-134q-9 90 -75.5 152.5t-165.5 62.5h-21q-101 0 -162 -51.5t-61 -124.5q0 -68 42.5 -105t143.5 -59l160 -35q122 -25 193 -88q69 -61 69 -182z
" />
    <glyph glyph-name="Scaron" unicode="&#x160;" horiz-adv-x="1266" 
d="M86 451h143q0 -159 111.5 -248.5t296.5 -89.5h20q157 0 247.5 75t90.5 191q0 99 -65 158.5t-201 87.5l-229 47q-342 70 -342 372q-3 173 135 293t356 117q227 2 367 -118.5t145 -321.5h-143q-9 138 -109 222.5t-250 84.5h-20q-147 0 -242.5 -78.5t-95.5 -195.5
q0 -183 238 -232l229 -45q371 -74 371 -383q2 -187 -135 -298t-365 -109q-261 0 -407 124t-146 347zM838 1823h139l-236 -256h-184l-236 256h140l188 -148z" />
    <glyph glyph-name="scaron" unicode="&#x161;" horiz-adv-x="977" 
d="M84 307h133q10 -101 81.5 -158t182.5 -57h21q107 0 169 50t62 134q0 63 -40.5 99t-139.5 59l-150 33q-130 29 -204 91q-74 65 -74 185q0 137 105.5 219t261.5 82q175 2 276 -93t109 -234h-134q-9 90 -75.5 152.5t-165.5 62.5h-21q-101 0 -162 -51.5t-61 -124.5
q0 -68 42.5 -105t143.5 -59l160 -35q122 -25 193 -88q69 -61 69 -182q0 -143 -101.5 -225t-272.5 -82q-189 0 -294.5 89.5t-113.5 237.5zM686 1434h123l-260 -267h-135l-261 267h123l205 -154z" />
    <glyph glyph-name="uni0162" unicode="&#x162;" horiz-adv-x="1249" 
d="M696 0h-27v-92q68 2 118 -45.5t50 -120.5q0 -89 -54.5 -146t-150.5 -57h-127v113h129q46 0 73.5 23.5t27.5 66.5t-27.5 65.5t-73.5 22.5h-57v170h-24v1300h-522v134h1188v-134h-523v-1300z" />
    <glyph glyph-name="uni0163" unicode="&#x163;" horiz-adv-x="729" 
d="M686 0h-219v-92q68 2 118 -45.5t50 -120.5q0 -89 -54.5 -146t-150.5 -57h-127v113h129q46 0 73.5 23.5t27.5 66.5t-27.5 65.5t-73.5 22.5h-57v180q-56 15 -82.5 57t-26.5 117v727h-235v113h235v332h133v-332h256v-113h-256v-716q0 -46 18 -64t64 -18h205v-113z" />
    <glyph glyph-name="Tcaron" unicode="&#x164;" horiz-adv-x="1249" 
d="M553 0v1300h-522v134h1188v-134h-523v-1300h-143zM814 1823h139l-236 -256h-184l-236 256h140l188 -148z" />
    <glyph glyph-name="tcaron" unicode="&#x165;" horiz-adv-x="729" 
d="M266 184v727h-235v113h235v332h133v-332h256v-113h-256v-716q0 -46 18 -64t64 -18h205v-113h-225q-102 0 -148.5 43t-46.5 141zM594 1106v72h10q92 0 92 82v20h-61v154h133v-174q0 -71 -42 -112.5t-112 -41.5h-20z" />
    <glyph glyph-name="Tbar" unicode="&#x166;" horiz-adv-x="1315" 
d="M1252 1300h-523v-462h389v-123h-389v-715h-143v715h-390v123h390v462h-522v134h1188v-134z" />
    <glyph glyph-name="tbar" unicode="&#x167;" horiz-adv-x="766" 
d="M508 113h205v-113h-225q-102 0 -148.5 43t-46.5 141v363h-236v102h236v262h-235v113h235v332h133v-332h256v-113h-256v-262h256v-102h-256v-352q0 -46 18 -64t64 -18z" />
    <glyph glyph-name="Utilde" unicode="&#x168;" horiz-adv-x="1413" 
d="M184 512v922h144v-902q0 -200 95 -309.5t273 -109.5h21q178 0 273 109.5t95 309.5v902h144v-922q0 -245 -136 -388.5t-386 -143.5q-256 0 -389.5 142.5t-133.5 389.5zM702 1630l-65 47q-42 33 -82 33q-84 0 -84 -133h-103v47q0 85 51 142t130 57q71 0 131 -45l69 -52
q10 -6 22 -16q53 -41 89 -41q80 0 80 133h102v-47q0 -84 -51.5 -141.5t-124.5 -57.5q-36 0 -71 16t-93 58z" />
    <glyph glyph-name="utilde" unicode="&#x169;" horiz-adv-x="1147" 
d="M154 348v676h133v-635q0 -297 245 -297h21q56 -1 110 26.5t96 76t67 121t24 155.5v553h133v-1024h-133v193q-40 -102 -128 -157.5t-214 -55.5q-165 0 -259.5 101t-94.5 267zM559 1221l-65 47q-47 32 -82 32q-84 0 -84 -133h-103v47q0 85 51 142t130 57q72 0 131 -45
l69 -51l20 -15q52 -42 91 -42q80 0 80 133h102v-47q0 -84 -51.5 -141.5t-124.5 -57.5q-36 0 -71 16t-93 58z" />
    <glyph glyph-name="Umacron" unicode="&#x16a;" horiz-adv-x="1413" 
d="M184 512v922h144v-902q0 -200 95 -309.5t273 -109.5h21q178 0 273 109.5t95 309.5v902h144v-922q0 -245 -136 -388.5t-386 -143.5q-256 0 -389.5 142.5t-133.5 389.5zM423 1597v113h564v-113h-564z" />
    <glyph glyph-name="umacron" unicode="&#x16b;" horiz-adv-x="1147" 
d="M154 348v676h133v-635q0 -297 245 -297h21q56 -1 110 26.5t96 76t67 121t24 155.5v553h133v-1024h-133v193q-40 -102 -128 -157.5t-214 -55.5q-165 0 -259.5 101t-94.5 267zM280 1208v113h564v-113h-564z" />
    <glyph glyph-name="Ubreve" unicode="&#x16c;" horiz-adv-x="1413" 
d="M184 512v922h144v-902q0 -200 95 -309.5t273 -109.5h21q178 0 273 109.5t95 309.5v902h144v-922q0 -245 -136 -388.5t-386 -143.5q-256 0 -389.5 142.5t-133.5 389.5zM409 1823h113q7 -82 54.5 -123t129.5 -41q169 0 185 164h112q0 -130 -81 -203.5t-216 -73.5t-216 73.5
t-81 203.5z" />
    <glyph glyph-name="ubreve" unicode="&#x16d;" horiz-adv-x="1147" 
d="M154 348v676h133v-635q0 -297 245 -297h21q56 -1 110 26.5t96 76t67 121t24 155.5v553h133v-1024h-133v193q-40 -102 -128 -157.5t-214 -55.5q-165 0 -259.5 101t-94.5 267zM276 1434h103q7 -89 55.5 -136t128.5 -47t128.5 47t55.5 136h103q0 -135 -79.5 -211t-207.5 -76
t-207.5 76t-79.5 211z" />
    <glyph glyph-name="Uring" unicode="&#x16e;" horiz-adv-x="1413" 
d="M184 512v922h144v-902q0 -200 95 -309.5t273 -109.5h21q178 0 273 109.5t95 309.5v902h144v-922q0 -245 -136 -388.5t-386 -143.5q-256 0 -389.5 142.5t-133.5 389.5zM544 1716q0 67 48.5 114.5t113.5 47.5t113.5 -47.5t48.5 -114.5t-48.5 -114.5t-113.5 -47.5
t-113.5 47.5t-48.5 114.5zM774 1716q0 28 -19.5 49t-46.5 21q-28 0 -48.5 -21t-20.5 -49t20.5 -48.5t48.5 -20.5q27 0 46.5 20.5t19.5 48.5z" />
    <glyph glyph-name="uring" unicode="&#x16f;" horiz-adv-x="1147" 
d="M154 348v676h133v-635q0 -297 245 -297h21q56 -1 110 26.5t96 76t67 121t24 155.5v553h133v-1024h-133v193q-40 -102 -128 -157.5t-214 -55.5q-165 0 -259.5 101t-94.5 267zM391 1329q0 73 51.5 122.5t120.5 49.5q70 0 121.5 -49.5t51.5 -122.5q0 -72 -51.5 -122
t-121.5 -50q-69 0 -120.5 50t-51.5 122zM654 1329q0 38 -25.5 65t-62.5 27q-38 0 -64.5 -27t-26.5 -65t26.5 -65t64.5 -27q37 0 62.5 27t25.5 65z" />
    <glyph glyph-name="Uhungarumlaut" unicode="&#x170;" horiz-adv-x="1413" 
d="M184 512v922h144v-902q0 -200 95 -309.5t273 -109.5h21q178 0 273 109.5t95 309.5v902h144v-922q0 -245 -136 -388.5t-386 -143.5q-256 0 -389.5 142.5t-133.5 389.5zM483 1567l109 256h184l-170 -256h-123zM819 1567l109 256h184l-170 -256h-123z" />
    <glyph glyph-name="uhungarumlaut" unicode="&#x171;" horiz-adv-x="1147" 
d="M154 348v676h133v-635q0 -297 245 -297h21q56 -1 110 26.5t96 76t67 121t24 155.5v553h133v-1024h-133v193q-40 -102 -128 -157.5t-214 -55.5q-165 0 -259.5 101t-94.5 267zM307 1167l117 267h164l-180 -267h-101zM633 1167l117 267h164l-180 -267h-101z" />
    <glyph glyph-name="Uogonek" unicode="&#x172;" horiz-adv-x="1413" 
d="M1085 1434h144v-922q0 -199 -91 -333t-262 -179h1q-182 -95 -182 -199q0 -88 104 -88h55v-112h-83q-95 0 -150 44.5t-55 129.5q0 115 128 205q-250 3 -380 145.5t-130 386.5v922h144v-902q0 -200 95 -309.5t273 -109.5h21q178 0 273 109.5t95 309.5v902z" />
    <glyph glyph-name="uogonek" unicode="&#x173;" horiz-adv-x="1147" 
d="M801 -199q0 -88 104 -88h55v-112h-83q-95 0 -150 44.5t-55 129.5q0 80 52 138q51 57 126 98v182q-40 -102 -128 -157.5t-214 -55.5q-165 0 -259.5 101t-94.5 267v676h133v-635q0 -297 245 -297h21q56 -1 110 26.5t96 76t67 121t24 155.5v553h133v-1024
q-182 -95 -182 -199z" />
    <glyph glyph-name="Wcircumflex" unicode="&#x174;" horiz-adv-x="1878" 
d="M1683 1434h144l-354 -1434h-218l-316 1287l-316 -1287h-217l-355 1434h146l322 -1323l317 1323h213l321 -1312zM1268 1567h-139l-189 147l-188 -147h-140l236 256h184z" />
    <glyph glyph-name="wcircumflex" unicode="&#x175;" horiz-adv-x="1569" 
d="M1391 1024h131l-328 -1024h-178l-232 884l-231 -884h-176l-330 1024h137l285 -906l231 906h170l241 -920zM1114 1167h-123l-205 154l-205 -154h-123l261 267h135z" />
    <glyph glyph-name="Ycircumflex" unicode="&#x176;" horiz-adv-x="1217" 
d="M1044 1434h158l-522 -840v-594h-143v594l-523 840h162l434 -708zM938 1567h-139l-189 147l-188 -147h-140l236 256h184z" />
    <glyph glyph-name="ycircumflex" unicode="&#x177;" horiz-adv-x="1065" 
d="M1036 1024l-422 -991v-193q0 -93 -47 -135.5t-147 -42.5h-311v113h290q47 0 64.5 17.5t17.5 64.5v172l-434 995h146l352 -830l352 830h139zM873 1167h-123l-205 154l-205 -154h-123l261 267h135z" />
    <glyph glyph-name="Ydieresis" unicode="&#x178;" horiz-adv-x="1217" 
d="M1044 1434h158l-522 -840v-594h-143v594l-523 840h162l434 -708zM337 1597v164h164v-164h-164zM718 1597v164h164v-164h-164z" />
    <glyph glyph-name="Zacute" unicode="&#x179;" horiz-adv-x="1221" 
d="M84 0v152l872 1148h-852v134h1014v-142l-878 -1159h899v-133h-1055zM550 1567l109 256h184l-170 -256h-123z" />
    <glyph glyph-name="zacute" unicode="&#x17a;" horiz-adv-x="967" 
d="M222 113h671v-113h-809v125l634 786h-624v113h768v-121zM438 1167l117 267h164l-180 -267h-101z" />
    <glyph glyph-name="Zdotaccent" unicode="&#x17b;" horiz-adv-x="1221" 
d="M84 0v152l872 1148h-852v134h1014v-142l-878 -1159h899v-133h-1055zM534 1597v175h154v-175h-154z" />
    <glyph glyph-name="zdotaccent" unicode="&#x17c;" horiz-adv-x="967" 
d="M222 113h671v-113h-809v125l634 786h-624v113h768v-121zM411 1208v174h154v-174h-154z" />
    <glyph glyph-name="Zcaron" unicode="&#x17d;" horiz-adv-x="1221" 
d="M84 0v152l872 1148h-852v134h1014v-142l-878 -1159h899v-133h-1055zM801 1823h139l-236 -256h-184l-236 256h140l188 -148z" />
    <glyph glyph-name="zcaron" unicode="&#x17e;" horiz-adv-x="967" 
d="M222 113h671v-113h-809v125l634 786h-624v113h768v-121zM694 1434h123l-260 -267h-135l-261 267h123l205 -154z" />
    <glyph glyph-name="florin" unicode="&#x192;" horiz-adv-x="850" 
d="M504 1055l-22 -144h266v-123h-285l-123 -808q-35 -215 -114 -301.5t-251 -88.5h-81v134h71q121 3 167 53.5t69 191.5l126 819h-229v123h248l23 150q35 213 109 291.5t245 81.5h82v-134h-72q-118 -3 -162 -53t-67 -192z" />
    <glyph glyph-name="uni01E2" unicode="&#x1e2;" horiz-adv-x="2015" 
d="M-6 0l850 1434h993v-134h-764l68 -495h635v-133h-617l72 -539h729v-133h-850l-53 395h-668l-233 -395h-162zM467 528h571l-108 787zM987 1597v113h564v-113h-564z" />
    <glyph glyph-name="uni01E3" unicode="&#x1e3;" horiz-adv-x="1735" 
d="M104 283q0 158 101 232q102 75 241 85l314 25v30q0 131 -65.5 204t-180.5 73h-10q-98 0 -167 -51q-68 -51 -79 -144h-133q7 135 116 222t267 85q120 0 207 -51t133 -143q62 94 158.5 144t210.5 50q181 2 298 -130.5t115 -329.5v-82h-737q3 -201 93 -305.5t228 -104.5h13
q211 0 268 201h133q-33 -150 -143 -232q-109 -81 -268 -81q-124 0 -222.5 54.5t-158.5 158.5q-57 -100 -157.5 -156.5t-229.5 -56.5q-142 -2 -245 87.5t-100 215.5zM897 614h600q-5 139 -79.5 228.5t-192.5 89.5h-21q-116 0 -201.5 -77.5t-105.5 -240.5zM453 92h20
q65 -2 133 39t112 111t42 143v127l-287 -20q-106 -7 -171 -62q-64 -52 -64 -139q0 -85 61.5 -142t153.5 -57zM571 1208v113h564v-113h-564z" />
    <glyph glyph-name="Aringacute" unicode="&#x1fa;" horiz-adv-x="1386" 
d="M1217 0l-160 395h-733l-160 -395h-148l588 1434h180l584 -1434h-151zM377 528h627l-313 774zM650 1901l80 180h143l-123 -180h-100zM555 1696q0 59 42.5 100t99.5 41q55 0 98 -41t43 -100t-43 -100.5t-98 -41.5q-57 0 -99.5 41t-42.5 101zM746 1696q0 19 -14.5 34
t-32.5 15q-20 0 -34.5 -14.5t-14.5 -34.5t14.5 -34.5t34.5 -14.5q18 0 32.5 14.5t14.5 34.5z" />
    <glyph glyph-name="aringacute" unicode="&#x1fb;" horiz-adv-x="1067" 
d="M924 0h-123q-10 53 -10 164q-33 -75 -135 -129.5t-228 -54.5q-134 -2 -230.5 87.5t-93.5 215.5q0 153 104 224q104 73 249 83l323 24v41q0 131 -68 204t-188 73h-10q-103 0 -175 -51q-71 -51 -81 -144h-133q7 135 119 222t274 85q125 0 216 -53t135 -140t44 -196v-430
q0 -150 11 -225zM780 369v137l-297 -21q-112 -8 -178.5 -60t-66.5 -134q0 -84 59 -141.5t145 -57.5h21q69 -2 144 36.5t125 105t48 135.5zM469 1569l117 266h164l-180 -266h-101zM352 1321q0 72 51.5 122t120.5 50t121 -50t52 -122t-51.5 -122t-121.5 -50q-69 0 -120.5 50
t-51.5 122zM615 1321q0 37 -25.5 63.5t-62.5 26.5t-64 -26.5t-27 -63.5t27 -63.5t64 -26.5t62.5 26.5t25.5 63.5z" />
    <glyph glyph-name="AEacute" unicode="&#x1fc;" horiz-adv-x="2015" 
d="M-6 0l850 1434h993v-134h-764l68 -495h635v-133h-617l72 -539h729v-133h-850l-53 395h-668l-233 -395h-162zM467 528h571l-108 787zM1208 1567l109 256h184l-170 -256h-123z" />
    <glyph glyph-name="aeacute" unicode="&#x1fd;" horiz-adv-x="1735" 
d="M104 283q0 158 101 232q102 75 241 85l314 25v30q0 131 -65.5 204t-180.5 73h-10q-98 0 -167 -51q-68 -51 -79 -144h-133q7 135 116 222t267 85q120 0 207 -51t133 -143q62 94 158.5 144t210.5 50q181 2 298 -130.5t115 -329.5v-82h-737q3 -201 93 -305.5t228 -104.5h13
q211 0 268 201h133q-33 -150 -143 -232q-109 -81 -268 -81q-124 0 -222.5 54.5t-158.5 158.5q-57 -100 -157.5 -156.5t-229.5 -56.5q-142 -2 -245 87.5t-100 215.5zM897 614h600q-5 139 -79.5 228.5t-192.5 89.5h-21q-116 0 -201.5 -77.5t-105.5 -240.5zM453 92h20
q65 -2 133 39t112 111t42 143v127l-287 -20q-106 -7 -171 -62q-64 -52 -64 -139q0 -85 61.5 -142t153.5 -57zM802 1167l117 267h164l-180 -267h-101z" />
    <glyph glyph-name="Oslashacute" unicode="&#x1fe;" horiz-adv-x="1548" 
d="M1429 717q1 -166 -48.5 -305.5t-137 -234t-208.5 -146.5t-261 -51q-229 0 -395 128l-131 -165l-107 84l140 177q-162 199 -162 513q-1 166 48.5 305.5t137 234t208.5 146.5t261 51q230 0 395 -128l130 165l106 -84l-139 -176q163 -199 163 -514zM371 318l713 901
q-126 102 -300 102h-20q-220 2 -362 -165t-140 -439q0 -241 109 -399zM1286 717q0 241 -110 401l-712 -902q128 -103 300 -103h20q220 -2 362 165t140 439zM723 1567l109 256h184l-170 -256h-123z" />
    <glyph glyph-name="oslashacute" unicode="&#x1ff;" horiz-adv-x="1153" 
d="M1048 512q2 -151 -61 -274.5t-171.5 -191.5t-238.5 -66q-153 0 -269 88l-105 -138l-89 74l110 144q-118 144 -118 364q-2 151 61 275t172 191.5t238 65.5q148 0 267 -86l102 134l94 -66l-112 -147q120 -147 120 -367zM303 251l471 616q-80 65 -186 65h-21
q-141 0 -233 -115t-92 -305q0 -155 61 -261zM913 512q0 156 -63 265l-472 -617q83 -68 189 -68h21q140 -2 233.5 114.5t91.5 305.5zM518 1167l117 267h164l-180 -267h-101z" />
    <glyph glyph-name="uni0218" unicode="&#x218;" horiz-adv-x="1266" 
d="M86 451h143q0 -159 111.5 -248.5t296.5 -89.5h20q157 0 247.5 75t90.5 191q0 99 -65 158.5t-201 87.5l-229 47q-342 70 -342 372q-3 173 135 293t356 117q227 2 367 -118.5t145 -321.5h-143q-9 138 -109 222.5t-250 84.5h-20q-147 0 -242.5 -78.5t-95.5 -195.5
q0 -183 238 -232l229 -45q371 -74 371 -383q2 -187 -135 -298t-365 -109q-261 0 -407 124t-146 347zM530 -512v72h10q92 0 92 82v20h-61v154h133v-174q0 -71 -42 -112.5t-112 -41.5h-20z" />
    <glyph glyph-name="uni0219" unicode="&#x219;" horiz-adv-x="977" 
d="M84 307h133q10 -101 81.5 -158t182.5 -57h21q107 0 169 50t62 134q0 63 -40.5 99t-139.5 59l-150 33q-130 29 -204 91q-74 65 -74 185q0 137 105.5 219t261.5 82q175 2 276 -93t109 -234h-134q-9 90 -75.5 152.5t-165.5 62.5h-21q-101 0 -162 -51.5t-61 -124.5
q0 -68 42.5 -105t143.5 -59l160 -35q122 -25 193 -88q69 -61 69 -182q0 -143 -101.5 -225t-272.5 -82q-189 0 -294.5 89.5t-113.5 237.5zM373 -512v72h10q92 0 92 82v20h-61v154h133v-174q0 -71 -42 -112.5t-112 -41.5h-20z" />
    <glyph glyph-name="uni021A" unicode="&#x21a;" horiz-adv-x="1249" 
d="M553 0v1300h-522v134h1188v-134h-523v-1300h-143zM516 -512v72h10q92 0 92 82v20h-61v154h133v-174q0 -71 -42 -112.5t-112 -41.5h-20z" />
    <glyph glyph-name="uni021B" unicode="&#x21b;" horiz-adv-x="729" 
d="M266 184v727h-235v113h235v332h133v-332h256v-113h-256v-716q0 -46 18 -64t64 -18h205v-113h-225q-102 0 -148.5 43t-46.5 141zM313 -512v72h10q92 0 92 82v20h-61v154h133v-174q0 -71 -42 -112.5t-112 -41.5h-20z" />
    <glyph glyph-name="uni0226" unicode="&#x226;" horiz-adv-x="1386" 
d="M1217 0l-160 395h-733l-160 -395h-148l588 1434h180l584 -1434h-151zM377 528h627l-313 774zM616 1597v175h154v-175h-154z" />
    <glyph glyph-name="uni0227" unicode="&#x227;" horiz-adv-x="1067" 
d="M924 0h-123q-10 53 -10 164q-33 -75 -135 -129.5t-228 -54.5q-134 -2 -230.5 87.5t-93.5 215.5q0 153 104 224q104 73 249 83l323 24v41q0 131 -68 204t-188 73h-10q-103 0 -175 -51q-71 -51 -81 -144h-133q7 135 119 222t274 85q125 0 216 -53t135 -140t44 -196v-430
q0 -150 11 -225zM780 369v137l-297 -21q-112 -8 -178.5 -60t-66.5 -134q0 -84 59 -141.5t145 -57.5h21q69 -2 144 36.5t125 105t48 135.5zM446 1208v174h154v-174h-154z" />
    <glyph glyph-name="uni0232" unicode="&#x232;" horiz-adv-x="1217" 
d="M1044 1434h158l-522 -840v-594h-143v594l-523 840h162l434 -708zM327 1597v113h564v-113h-564z" />
    <glyph glyph-name="uni0233" unicode="&#x233;" horiz-adv-x="1065" 
d="M1036 1024l-422 -991v-193q0 -93 -47 -135.5t-147 -42.5h-311v113h290q47 0 64.5 17.5t17.5 64.5v172l-434 995h146l352 -830l352 830h139zM262 1208v113h564v-113h-564z" />
    <glyph glyph-name="uni0237" unicode="&#x237;" horiz-adv-x="477" 
d="M-168 -338v113h266q47 0 64.5 17.5t17.5 64.5v1167h133v-1178q0 -98 -46 -141t-148 -43h-287z" />
    <glyph glyph-name="uni02BC" unicode="&#x2bc;" horiz-adv-x="510" 
d="M115 993v82h61q123 0 123 123v31h-113v205h205v-246q0 -93 -50.5 -144t-143.5 -51h-82z" />
    <glyph glyph-name="circumflex" unicode="&#x2c6;" horiz-adv-x="778" 
d="M717 1167h-123l-205 154l-205 -154h-123l261 267h135z" />
    <glyph glyph-name="caron" unicode="&#x2c7;" horiz-adv-x="778" 
d="M594 1434h123l-260 -267h-135l-261 267h123l205 -154z" />
    <glyph glyph-name="breve" unicode="&#x2d8;" horiz-adv-x="696" 
d="M61 1434h103q7 -89 55.5 -136t128.5 -47t128.5 47t55.5 136h103q0 -135 -79.5 -211t-207.5 -76t-207.5 76t-79.5 211z" />
    <glyph glyph-name="dotaccent" unicode="&#x2d9;" horiz-adv-x="276" 
d="M61 1208v174h154v-174h-154z" />
    <glyph glyph-name="ring" unicode="&#x2da;" horiz-adv-x="467" 
d="M61 1329q0 73 51.5 122.5t120.5 49.5q70 0 121.5 -49.5t51.5 -122.5q0 -72 -51.5 -122t-121.5 -50q-69 0 -120.5 50t-51.5 122zM324 1329q0 38 -25.5 65t-62.5 27q-38 0 -64.5 -27t-26.5 -65t26.5 -65t64.5 -27q37 0 62.5 27t25.5 65z" />
    <glyph glyph-name="ogonek" unicode="&#x2db;" horiz-adv-x="403" 
d="M31 -225q0 89 64 152q66 63 145 100l102 -27q-182 -95 -182 -199q0 -88 104 -88h55v-112h-83q-95 0 -150 44.5t-55 129.5z" />
    <glyph glyph-name="tilde" unicode="&#x2dc;" horiz-adv-x="797" 
d="M395 1221l-65 47q-47 32 -82 32q-84 0 -84 -133h-103v47q0 85 51 142t130 57q73 0 131 -45l69 -51l20 -15q52 -42 91 -42q80 0 80 133h102v-47q0 -84 -51.5 -141.5t-124.5 -57.5q-36 0 -71 16t-93 58z" />
    <glyph glyph-name="hungarumlaut" unicode="&#x2dd;" horiz-adv-x="729" 
d="M61 1167l117 267h164l-180 -267h-101zM387 1167l117 267h164l-180 -267h-101z" />
    <glyph glyph-name="gravecomb" unicode="&#x300;" horiz-adv-x="0" 
d="M-161 1167l-181 267h164l117 -267h-100z" />
    <glyph glyph-name="acutecomb" unicode="&#x301;" horiz-adv-x="0" 
d="M-342 1167l117 267h164l-180 -267h-101z" />
    <glyph glyph-name="uni0302" unicode="&#x302;" horiz-adv-x="0" 
d="M-61 1167h-123l-205 154l-205 -154h-123l261 267h135z" />
    <glyph glyph-name="tildecomb" unicode="&#x303;" horiz-adv-x="0" 
d="M-402 1221l-65 47q-47 32 -82 32q-84 0 -84 -133h-103v47q0 85 51 142t130 57q73 0 131 -45l69 -51l20 -15q53 -42 91 -42q80 0 80 133h102v-47q0 -84 -51.5 -141.5t-124.5 -57.5q-36 0 -71 16t-93 58z" />
    <glyph glyph-name="uni0304" unicode="&#x304;" horiz-adv-x="0" 
d="M-625 1208v113h564v-113h-564z" />
    <glyph glyph-name="uni0306" unicode="&#x306;" horiz-adv-x="0" 
d="M-635 1434h103q7 -89 55.5 -136t128.5 -47t128.5 47t55.5 136h103q0 -135 -79.5 -211t-207.5 -76t-207.5 76t-79.5 211z" />
    <glyph glyph-name="uni0307" unicode="&#x307;" horiz-adv-x="0" 
d="M-215 1208v174h154v-174h-154z" />
    <glyph glyph-name="uni0308" unicode="&#x308;" horiz-adv-x="0" 
d="M-574 1208v164h154v-164h-154zM-215 1208v164h153v-164h-153z" />
    <glyph glyph-name="uni030A" unicode="&#x30a;" horiz-adv-x="0" 
d="M-406 1329q0 73 51.5 122.5t120.5 49.5q70 0 121.5 -49.5t51.5 -122.5q0 -72 -51.5 -122t-121.5 -50q-69 0 -120.5 50t-51.5 122zM-143 1329q0 38 -25.5 65t-62.5 27q-38 0 -64.5 -27t-26.5 -65t26.5 -65t64.5 -27q37 0 62.5 27t25.5 65z" />
    <glyph glyph-name="uni030B" unicode="&#x30b;" horiz-adv-x="0" 
d="M-668 1167l117 267h164l-180 -267h-101zM-342 1167l117 267h164l-180 -267h-101z" />
    <glyph glyph-name="uni030C" unicode="&#x30c;" horiz-adv-x="0" 
d="M-184 1434h123l-260 -267h-135l-261 267h123l205 -154z" />
    <glyph glyph-name="uni0312" unicode="&#x312;" horiz-adv-x="0" 
d="M-43 1550v-72h-10q-92 0 -92 -82v-20h61v-154h-133v174q0 71 42 112.5t112 41.5h20z" />
    <glyph glyph-name="dotbelowcomb" unicode="&#x323;" horiz-adv-x="0" 
d="M-195 -338v154h134v-154h-134z" />
    <glyph glyph-name="uni0326" unicode="&#x326;" horiz-adv-x="0" 
d="M-256 -512v72h10q92 0 92 82v20h-61v154h133v-174q0 -71 -42 -112.5t-112 -41.5h-20z" />
    <glyph glyph-name="uni0327" unicode="&#x327;" horiz-adv-x="0" 
d="M-394 -461v113h129q46 0 73.5 23.5t27.5 66.5t-27.5 65.5t-73.5 22.5h-57v201h92v-123q68 2 118 -45.5t50 -120.5q0 -89 -54.5 -146t-150.5 -57h-127z" />
    <glyph glyph-name="uni0328" unicode="&#x328;" horiz-adv-x="0" 
d="M-372 -225q0 89 65 152q67 63 144 100l102 -27q-182 -95 -182 -199q0 -88 104 -88h55v-112h-83q-95 0 -150 44.5t-55 129.5z" />
    <glyph glyph-name="uni0335" unicode="&#x335;" horiz-adv-x="0" 
d="M-983 717v123h922v-123h-922z" />
    <glyph glyph-name="uni0336" unicode="&#x336;" horiz-adv-x="0" 
d="M-1444 1065v123h1383v-123h-1383z" />
    <glyph glyph-name="uni0337" unicode="&#x337;" horiz-adv-x="0" 
d="M-543 616v136l482 272v-133z" />
    <glyph glyph-name="uni0338" unicode="&#x338;" horiz-adv-x="0" 
d="M-1218 -57l-107 84l1158 1464l106 -84z" />
    <glyph glyph-name="uni037E" unicode="&#x37e;" horiz-adv-x="555" 
d="M115 -236v82h61q123 0 123 123v31h-113v205h205v-246q0 -93 -50.5 -144t-143.5 -51h-82zM186 819v205h205v-205h-205z" />
    <glyph glyph-name="tonos" unicode="&#x384;" horiz-adv-x="1042" 
d="M403 1167l117 267h164l-180 -267h-101z" />
    <glyph glyph-name="dieresistonos" unicode="&#x385;" horiz-adv-x="717" 
d="M262 1167l66 267h164l-130 -267h-100zM61 1167v164h154v-164h-154zM481 1167v164h154v-164h-154z" />
    <glyph glyph-name="Alphatonos" unicode="&#x386;" horiz-adv-x="1430" 
d="M1260 0l-160 395h-733l-160 -395h-148l588 1434h180l584 -1434h-151zM420 528h627l-313 774zM124 1167l117 267h164l-180 -267h-101z" />
    <glyph glyph-name="anoteleia" unicode="&#x387;" horiz-adv-x="467" 
d="M141 594v185h184v-185h-184z" />
    <glyph glyph-name="Epsilontonos" unicode="&#x388;" horiz-adv-x="1516" 
d="M400 0v1434h1001v-134h-858v-495h735v-133h-735v-539h879v-133h-1022zM16 1167l117 267h164l-180 -267h-101z" />
    <glyph glyph-name="Etatonos" unicode="&#x389;" horiz-adv-x="1694" 
d="M400 0v1434h143v-650h809v650h143v-1434h-143v651h-809v-651h-143zM16 1167l117 267h164l-180 -267h-101z" />
    <glyph glyph-name="Iotatonos" unicode="&#x38a;" horiz-adv-x="741" 
d="M400 0v1434h143v-1434h-143zM16 1167l117 267h164l-180 -267h-101z" />
    <glyph glyph-name="Omicrontonos" unicode="&#x38c;" horiz-adv-x="1663" 
d="M242 717q-1 166 48.5 305.5t137 234t208.5 146.5t261 51q140 1 261 -51t208.5 -146.5t137 -234t48.5 -305.5q1 -166 -48.5 -305.5t-137 -234t-208.5 -146.5t-261 -51q-140 -1 -261 51t-208.5 146.5t-137 234t-48.5 305.5zM887 113h20q220 -2 362 165t140 439
q2 272 -140 439t-362 165h-20q-220 2 -362 -165t-140 -439q-2 -272 140 -439t362 -165zM49 1167l117 267h164l-180 -267h-101z" />
    <glyph glyph-name="Upsilontonos" unicode="&#x38e;" horiz-adv-x="1579" 
d="M1406 1434h158l-522 -840v-594h-143v594l-523 840h162l434 -708zM55 1167l117 267h164l-180 -267h-101z" />
    <glyph glyph-name="Omegatonos" unicode="&#x38f;" horiz-adv-x="1683" 
d="M247 0v133h279q-289 212 -289 588q0 211 82 376q83 168 231 262q151 95 343 95q193 0 342 -95q148 -94 231 -262q82 -165 82 -376q0 -376 -289 -588h279v-133h-482v135q349 197 349 582q2 174 -63.5 313.5t-181 216t-257.5 74.5h-21q-141 2 -256.5 -74.5t-181 -216.5
t-63.5 -313q0 -386 348 -582v-135h-482zM45 1167l117 267h164l-180 -267h-101z" />
    <glyph glyph-name="iotadieresistonos" unicode="&#x390;" horiz-adv-x="498" 
d="M160 176v848h133v-827q0 -47 18 -65.5t64 -18.5h51v-113h-86q-90 0 -135 45.5t-45 130.5zM176 1167l66 267h164l-130 -267h-100zM-25 1167v164h154v-164h-154zM395 1167v164h154v-164h-154z" />
    <glyph glyph-name="Alpha" unicode="&#x391;" horiz-adv-x="1386" 
d="M1217 0l-160 395h-733l-160 -395h-148l588 1434h180l584 -1434h-151zM377 528h627l-313 774z" />
    <glyph glyph-name="Beta" unicode="&#x392;" horiz-adv-x="1343" 
d="M199 0v1434h598q172 2 284.5 -101.5t110.5 -273.5q0 -116 -67.5 -210t-161.5 -122q47 -8 92 -32.5t84 -64t62 -101t22 -134.5q3 -175 -117 -286t-295 -109h-612zM342 793h440q120 0 193.5 67.5t73.5 186.5q0 118 -73.5 185.5t-193.5 67.5h-440v-507zM342 133h438
q135 0 217 69t82 195q0 127 -81 194q-82 68 -216 68h-440v-526z" />
    <glyph glyph-name="Gamma" unicode="&#x393;" horiz-adv-x="1139" 
d="M199 0v1434h921v-134h-778v-1300h-143z" />
    <glyph glyph-name="uni0394" unicode="&#x394;" horiz-adv-x="1391" 
d="M786 1434l570 -1366v-68h-1323v68l573 1366h180zM694 1294l-483 -1161h963z" />
    <glyph glyph-name="Epsilon" unicode="&#x395;" horiz-adv-x="1315" 
d="M199 0v1434h1001v-134h-858v-495h735v-133h-735v-539h879v-133h-1022z" />
    <glyph glyph-name="Zeta" unicode="&#x396;" horiz-adv-x="1221" 
d="M84 0v152l872 1148h-852v134h1014v-142l-878 -1159h899v-133h-1055z" />
    <glyph glyph-name="Eta" unicode="&#x397;" horiz-adv-x="1493" 
d="M199 0v1434h143v-650h809v650h143v-1434h-143v651h-809v-651h-143z" />
    <glyph glyph-name="Theta" unicode="&#x398;" horiz-adv-x="1532" 
d="M111 717q-1 166 48.5 305.5t137 234t208.5 146.5t261 51q140 1 261 -51t208.5 -146.5t137 -234t48.5 -305.5q1 -166 -48.5 -305.5t-137 -234t-208.5 -146.5t-261 -51q-140 -1 -261 51t-208.5 146.5t-137 234t-48.5 305.5zM756 113h20q220 -2 362 165t140 439
q2 272 -140 439t-362 165h-20q-220 2 -362 -165t-140 -439q-2 -272 140 -439t362 -165zM420 672v133h690v-133h-690z" />
    <glyph glyph-name="Iota" unicode="&#x399;" horiz-adv-x="541" 
d="M199 0v1434h143v-1434h-143z" />
    <glyph glyph-name="Kappa" unicode="&#x39a;" horiz-adv-x="1370" 
d="M1167 0l-516 753l-309 -306v-447h-143v1434h143v-799l805 799h190l-583 -579l592 -855h-179z" />
    <glyph glyph-name="Lambda" unicode="&#x39b;" horiz-adv-x="1376" 
d="M1358 0h-158l-515 1282l-517 -1282h-152l582 1434h180z" />
    <glyph glyph-name="Mu" unicode="&#x39c;" horiz-adv-x="1882" 
d="M1446 1434h237v-1434h-141v1316l-500 -1316h-198l-504 1320v-1320h-141v1434h243l504 -1326z" />
    <glyph glyph-name="Nu" unicode="&#x39d;" horiz-adv-x="1513" 
d="M1171 1434h144v-1434h-174l-799 1234v-1234h-143v1434h184l788 -1215v1215z" />
    <glyph glyph-name="Xi" unicode="&#x39e;" horiz-adv-x="1280" 
d="M121 1300v134h1038v-134h-1038zM221 672v133h838v-133h-838zM100 0v133h1080v-133h-1080z" />
    <glyph glyph-name="Omicron" unicode="&#x39f;" horiz-adv-x="1532" 
d="M111 717q-1 166 48.5 305.5t137 234t208.5 146.5t261 51q140 1 261 -51t208.5 -146.5t137 -234t48.5 -305.5q1 -166 -48.5 -305.5t-137 -234t-208.5 -146.5t-261 -51q-140 -1 -261 51t-208.5 146.5t-137 234t-48.5 305.5zM756 113h20q220 -2 362 165t140 439
q2 272 -140 439t-362 165h-20q-220 2 -362 -165t-140 -439q-2 -272 140 -439t362 -165z" />
    <glyph glyph-name="Pi" unicode="&#x3a0;" horiz-adv-x="1485" 
d="M199 0v1434h1087v-1434h-143v1300h-801v-1300h-143z" />
    <glyph glyph-name="Rho" unicode="&#x3a1;" horiz-adv-x="1298" 
d="M199 0v1434h573q93 1 175.5 -28t144.5 -82.5t97 -134.5t34 -179q2 -195 -127.5 -308.5t-323.5 -111.5h-430v-590h-143zM342 723h399q159 0 248.5 73.5t89.5 213.5q0 142 -92 216t-246 74h-399v-577z" />
    <glyph glyph-name="Sigma" unicode="&#x3a3;" horiz-adv-x="1221" 
d="M246 133h893v-133h-1055v152l514 601l-498 539v142h1018v-134h-847l501 -544z" />
    <glyph glyph-name="Tau" unicode="&#x3a4;" horiz-adv-x="1249" 
d="M553 0v1300h-522v134h1188v-134h-523v-1300h-143z" />
    <glyph glyph-name="Upsilon" unicode="&#x3a5;" horiz-adv-x="1217" 
d="M1044 1434h158l-522 -840v-594h-143v594l-523 840h162l434 -708z" />
    <glyph glyph-name="Phi" unicode="&#x3a6;" horiz-adv-x="1724" 
d="M791 -45v147q-137 3 -260.5 43.5t-222 114.5t-155.5 192t-55 265q0 201 97 337q98 137 256 205q157 67 340 72v152h143v-152q182 -5 339 -72q156 -67 255 -205q98 -137 98 -337q0 -201 -98 -338t-255 -204q-160 -69 -339 -73v-147h-143zM791 225v983q-114 -1 -212 -30.5
t-174.5 -87.5t-120 -153.5t-42.5 -219.5q-1 -124 42.5 -219.5t120 -153.5t174.5 -88t212 -31zM1483 717q1 124 -42.5 219.5t-120 153.5t-174.5 87.5t-212 30.5v-983q114 1 212 31t174.5 88t120 153.5t42.5 219.5z" />
    <glyph glyph-name="Chi" unicode="&#x3a7;" horiz-adv-x="1276" 
d="M1249 0h-170l-443 617l-446 -617h-165l529 732l-505 702h170l420 -584l422 584h166l-506 -699z" />
    <glyph glyph-name="Psi" unicode="&#x3a8;" horiz-adv-x="1507" 
d="M1245 1434h144v-537q2 -234 -154 -382.5t-410 -149.5v-365h-143v365q-254 1 -410 149.5t-153 382.5v537h143v-516q-2 -191 115 -305.5t305 -114.5v936h143v-936q187 0 304 114.5t116 305.5v516z" />
    <glyph glyph-name="uni03A9" unicode="&#x3a9;" horiz-adv-x="1581" 
d="M145 0v133h279q-289 212 -289 588q0 211 82 376q83 168 231 262q151 95 343 95q193 0 342 -95q148 -94 231 -262q82 -165 82 -376q0 -376 -289 -588h279v-133h-482v135q349 197 349 582q2 174 -63.5 313.5t-181 216t-257.5 74.5h-21q-141 2 -256.5 -74.5t-181 -216.5
t-63.5 -313q0 -386 348 -582v-135h-482z" />
    <glyph glyph-name="Iotadieresis" unicode="&#x3aa;" horiz-adv-x="541" 
d="M199 0v1434h143v-1434h-143zM-2 1597v164h164v-164h-164zM379 1597v164h164v-164h-164z" />
    <glyph glyph-name="Upsilondieresis" unicode="&#x3ab;" horiz-adv-x="1217" 
d="M1044 1434h158l-522 -840v-594h-143v594l-523 840h162l434 -708zM337 1597v164h164v-164h-164zM718 1597v164h164v-164h-164z" />
    <glyph glyph-name="alphatonos" unicode="&#x3ac;" horiz-adv-x="1233" 
d="M102 512q-2 238 127.5 386t329.5 146q103 0 200.5 -51t141.5 -133v164h133v-819q0 -49 19 -70.5t63 -21.5h51v-113h-92q-87 0 -127.5 39.5t-46.5 124.5q-44 -82 -141.5 -133t-200.5 -51q-200 -2 -329.5 146t-127.5 386zM563 92h10q104 -1 180 57.5t112.5 153t35.5 209.5
q1 115 -35.5 209.5t-112.5 153t-180 57.5h-10q-103 1 -179 -57.5t-112.5 -153t-35.5 -209.5q-1 -115 35.5 -209.5t112.5 -153t179 -57.5zM538 1167l117 267h164l-180 -267h-101z" />
    <glyph glyph-name="epsilontonos" unicode="&#x3ad;" horiz-adv-x="1059" 
d="M844 307h133q-15 -147 -134 -237t-302 -90q-216 0 -328.5 76.5t-112.5 217.5q0 87 60 156t148 91q-83 26 -129 88.5t-46 144.5q-3 125 115 208.5t293 81.5q187 0 298 -88.5t128 -238.5h-133q-33 215 -283 215h-21q-123 0 -193.5 -55t-70.5 -134q0 -75 56 -119t151 -44
h168v-113h-184q-95 0 -159.5 -48.5t-64.5 -127.5q0 -98 77.5 -148.5t224.5 -50.5h20q120 0 196.5 57.5t92.5 157.5zM495 1167l117 267h164l-180 -267h-101z" />
    <glyph glyph-name="etatonos" unicode="&#x3ae;" horiz-adv-x="1192" 
d="M905 -410v1039q0 303 -246 303h-12q-103 1 -178.5 -57.5t-111.5 -153t-35 -209.5v-512h-134v829q0 47 -17.5 64.5t-64.5 17.5h-30v113h71q81 0 124.5 -43t43.5 -129q47 87 143 139q98 53 222 53q160 0 259 -99t99 -275v-1080h-133zM567 1167l117 267h164l-180 -267h-101z
" />
    <glyph glyph-name="iotatonos" unicode="&#x3af;" horiz-adv-x="498" 
d="M160 176v848h133v-827q0 -47 18 -65.5t64 -18.5h51v-113h-86q-90 0 -135 45.5t-45 130.5zM180 1167l117 267h164l-180 -267h-101z" />
    <glyph glyph-name="upsilondieresistonos" unicode="&#x3b0;" horiz-adv-x="1130" 
d="M152 410v614h133v-606q0 -326 270 -326h20q271 0 271 326v606h133v-614q0 -195 -108.5 -312.5t-305.5 -117.5t-305 117.5t-108 312.5zM510 1167l66 267h164l-130 -267h-100zM309 1167v164h154v-164h-154zM729 1167v164h154v-164h-154z" />
    <glyph glyph-name="alpha" unicode="&#x3b1;" horiz-adv-x="1233" 
d="M102 512q-2 238 127.5 386t329.5 146q103 0 200.5 -51t141.5 -133v164h133v-819q0 -49 19 -70.5t63 -21.5h51v-113h-92q-87 0 -127.5 39.5t-46.5 124.5q-44 -82 -141.5 -133t-200.5 -51q-200 -2 -329.5 146t-127.5 386zM563 92h10q104 -1 180 57.5t112.5 153t35.5 209.5
q1 115 -35.5 209.5t-112.5 153t-180 57.5h-10q-103 1 -179 -57.5t-112.5 -153t-35.5 -209.5q-1 -115 35.5 -209.5t112.5 -153t179 -57.5z" />
    <glyph glyph-name="beta" unicode="&#x3b2;" horiz-adv-x="1147" 
d="M1051 412q1 -88 -34 -168.5t-95.5 -138.5t-146 -92t-179.5 -33q-182 0 -299 125v-515h-133v1403q-2 202 111.5 332t312.5 129q88 1 163.5 -28t125 -78t77.5 -112t27 -130q1 -122 -66 -211t-145 -111q117 -28 199 -125t82 -247zM918 414q0 153 -89 230t-231 77h-86v113h78
q123 0 190.5 76t67.5 188q0 102 -71.5 172.5t-186.5 70.5h-12q-133 0 -207 -94.5t-74 -265.5v-716q45 -79 118 -126t167 -47h10q145 -2 236.5 93.5t89.5 228.5z" />
    <glyph glyph-name="gamma" unicode="&#x3b3;" horiz-adv-x="1030" 
d="M852 1024h139l-409 -1065v-369h-133v369l-410 1065h141l336 -900z" />
    <glyph glyph-name="delta" unicode="&#x3b4;" horiz-adv-x="1145" 
d="M1044 506q2 -144 -59.5 -266t-171.5 -192t-244 -68q-135 -2 -243.5 69t-166.5 192.5t-57 266.5q-1 103 27.5 194.5t82.5 162t140 110.5t193 39q3 0 33 -2l-357 319v103h750v-113h-553l395 -354q79 -72 126 -133.5t75.5 -143.5t29.5 -184zM911 506q0 214 -174 364l-47 42
q-52 6 -104 6q-170 0 -260 -110t-90 -300q-1 -113 37.5 -207.5t115 -152.5t176.5 -56h10q150 -2 244 114t92 300z" />
    <glyph glyph-name="epsilon" unicode="&#x3b5;" horiz-adv-x="1059" 
d="M844 307h133q-15 -147 -134 -237t-302 -90q-216 0 -328.5 76.5t-112.5 217.5q0 87 60 156t148 91q-83 26 -129 88.5t-46 144.5q-3 125 115 208.5t293 81.5q187 0 298 -88.5t128 -238.5h-133q-33 215 -283 215h-21q-123 0 -193.5 -55t-70.5 -134q0 -75 56 -119t151 -44
h168v-113h-184q-95 0 -159.5 -48.5t-64.5 -127.5q0 -98 77.5 -148.5t224.5 -50.5h20q120 0 196.5 57.5t92.5 157.5z" />
    <glyph glyph-name="zeta" unicode="&#x3b6;" horiz-adv-x="913" 
d="M229 389q0 -276 336 -276h99q120 0 175.5 -46t55.5 -147q0 -77 -33 -209h-114q28 121 28 197q0 53 -28 72.5t-97 19.5h-90q-213 0 -339 103.5t-126 285.5q0 112 38 212q38 98 114 197q77 99 196 216l315 307h-579v113h727v-117l-321 -316q-122 -119 -201 -215
q-156 -193 -156 -397z" />
    <glyph glyph-name="eta" unicode="&#x3b7;" horiz-adv-x="1192" 
d="M905 -410v1039q0 303 -246 303h-12q-103 1 -178.5 -57.5t-111.5 -153t-35 -209.5v-512h-134v829q0 47 -17.5 64.5t-64.5 17.5h-30v113h71q81 0 124.5 -43t43.5 -129q47 87 143 139q98 53 222 53q160 0 259 -99t99 -275v-1080h-133z" />
    <glyph glyph-name="theta" unicode="&#x3b8;" horiz-adv-x="1151" 
d="M1026 717q0 -227 -49 -390.5t-151.5 -255t-250.5 -91.5q-221 0 -335.5 196t-114.5 541q0 226 49 389.5t151 255.5t250 92q221 0 336 -196.5t115 -540.5zM257 784h637q-7 277 -82 417t-226 140h-23q-151 0 -225 -139.5t-81 -417.5zM895 672h-639q5 -290 79.5 -435
t227.5 -145h23q154 0 229 145t80 435z" />
    <glyph glyph-name="iota" unicode="&#x3b9;" horiz-adv-x="498" 
d="M160 176v848h133v-827q0 -47 18 -65.5t64 -18.5h51v-113h-86q-90 0 -135 45.5t-45 130.5z" />
    <glyph glyph-name="kappa" unicode="&#x3ba;" horiz-adv-x="1075" 
d="M879 0l-375 525l-207 -198v-327h-133v1024h133v-529l467 453q75 76 156 76h84v-113h-48q-34 0 -52 -9q-15 -8 -48 -38l-258 -248l446 -616h-165z" />
    <glyph glyph-name="lambda" unicode="&#x3bb;" horiz-adv-x="1106" 
d="M1055 113h28v-113h-51q-134 0 -188 125l-285 689l-371 -814h-145l451 970l-109 263q-22 52 -41.5 69t-69.5 19h-104v113h121q81 0 129 -30t78 -101l458 -1113q33 -77 99 -77z" />
    <glyph glyph-name="uni03BC" unicode="&#x3bc;" horiz-adv-x="1192" 
d="M1075 113h51v-113h-92q-87 0 -130.5 45t-43.5 129v19q-81 -213 -311 -213q-76 0 -147 31q-72 31 -105 81v-502h-133v1434h133v-635q0 -297 246 -297h20q56 -1 110 26.5t96 76t67 121t24 155.5v553h133v-819q0 -49 19 -70.5t63 -21.5z" />
    <glyph glyph-name="nu" unicode="&#x3bd;" horiz-adv-x="1030" 
d="M852 1024h139l-393 -1024h-166l-393 1024h141l336 -903z" />
    <glyph glyph-name="xi" unicode="&#x3be;" horiz-adv-x="922" 
d="M776 -92q0 52 -25 72t-79 20h-78q-140 -1 -251.5 40.5t-180 129t-66.5 209.5q-2 158 102.5 263.5t258.5 127.5q-126 27 -195 103.5t-69 183.5q0 95 62 170t146 94h-247v113h700v-113h-178q-167 0 -258.5 -75.5t-91.5 -180.5t79 -173.5t218 -68.5h141v-112h-146
q-178 0 -283.5 -90t-105.5 -232q0 -147 105 -212q106 -64 276 -64h74q106 0 158.5 -46.5t52.5 -146.5q0 -77 -33 -209h-114q28 121 28 197z" />
    <glyph glyph-name="omicron" unicode="&#x3bf;" horiz-adv-x="1143" 
d="M100 512q-2 151 61 275t172 191.5t238 65.5q130 2 238.5 -66t171.5 -191.5t61 -274.5q2 -151 -61 -274.5t-171.5 -191.5t-238.5 -66q-129 -2 -238 65.5t-172 191.5t-61 275zM561 92h21q140 -2 233.5 114.5t91.5 305.5q0 190 -92 305t-233 115h-21q-141 0 -233 -115
t-92 -305q-2 -189 91.5 -305.5t233.5 -114.5z" />
    <glyph glyph-name="pi" unicode="&#x3c0;" horiz-adv-x="1184" 
d="M211 0v911h-133v113h1014v-113h-134v-716q0 -46 18 -64t64 -18h31v-113h-51q-102 0 -148.5 43t-46.5 141v727h-481v-911h-133z" />
    <glyph glyph-name="rho" unicode="&#x3c1;" horiz-adv-x="1180" 
d="M145 -410v918q0 186 74 307q75 121 183 175t212 54q132 1 238 -64t166.5 -188t58.5 -280q2 -238 -127 -386t-329 -146q-103 0 -200.5 51t-141.5 133v-574h-134zM606 92h10q104 -1 180 57.5t112.5 153t35.5 209.5q1 115 -35.5 209.5t-112.5 153t-180 57.5h-10
q-103 1 -179 -57.5t-112.5 -153t-35.5 -209.5q-1 -115 35.5 -209.5t112.5 -153t179 -57.5z" />
    <glyph glyph-name="sigma1" unicode="&#x3c2;" horiz-adv-x="1042" 
d="M815 -92q0 53 -28 72.5t-97 19.5h-106q-143 -2 -255 65t-171 184.5t-58 262.5q-2 152 53 272.5t163 191t251 68.5q167 0 278 -94.5t126 -253.5h-133q-17 104 -88.5 170t-171.5 66h-21q-104 1 -179 -57t-110.5 -152t-34.5 -211q0 -176 92.5 -287.5t256.5 -111.5h120
q121 0 176.5 -46t55.5 -147q0 -72 -33 -209h-115q29 121 29 197z" />
    <glyph glyph-name="sigma" unicode="&#x3c3;" horiz-adv-x="1182" 
d="M100 512q-2 151 61.5 269.5t171 181t238.5 61.5h549v-113h-272q84 -57 139 -170t55 -249q2 -228 -134 -371t-337 -141q-129 -2 -238 65.5t-172 191.5t-61 275zM561 92h21q144 0 235.5 110t91.5 300q0 189 -91.5 299t-235.5 110h-21q-146 0 -237 -106t-91 -293
q-2 -189 92 -305.5t236 -114.5z" />
    <glyph glyph-name="tau" unicode="&#x3c4;" horiz-adv-x="885" 
d="M346 184v727h-317v113h788v-113h-338v-716q0 -46 18 -64t64 -18h205v-113h-225q-102 0 -148.5 43t-46.5 141z" />
    <glyph glyph-name="upsilon" unicode="&#x3c5;" horiz-adv-x="1130" 
d="M152 410v614h133v-606q0 -326 270 -326h20q271 0 271 326v606h133v-614q0 -195 -108.5 -312.5t-305.5 -117.5t-305 117.5t-108 312.5z" />
    <glyph glyph-name="phi" unicode="&#x3c6;" horiz-adv-x="1520" 
d="M827 -18v-392h-133v392q-172 3 -305.5 63.5t-212 180.5t-76.5 284q-2 217 112.5 365t283.5 169v-116q-127 -30 -195 -143t-68 -275q0 -213 128 -311q127 -97 333 -105v758q0 192 199 192q235 2 381.5 -142t144.5 -386q2 -165 -76 -286t-211 -182.5t-305 -65.5zM1286 516
q0 201 -100 308.5t-275 107.5q-46 0 -65 -21t-19 -73v-744q205 8 331 107q128 101 128 315z" />
    <glyph glyph-name="chi" unicode="&#x3c7;" horiz-adv-x="997" 
d="M-8 -410l430 738l-262 522q-18 36 -37 48.5t-55 12.5h-50v113h86q61 0 96.5 -23.5t65.5 -80.5l234 -463l327 567h146l-406 -696l271 -535q27 -53 47.5 -71.5t54.5 -18.5h47v-113h-74q-118 0 -172 107l-252 502l-352 -609h-145z" />
    <glyph glyph-name="psi" unicode="&#x3c8;" horiz-adv-x="1567" 
d="M1298 1024h134v-465q0 -263 -146.5 -415.5t-435.5 -159.5v-394h-133v394q-289 7 -435.5 159.5t-146.5 415.5v465h133v-451q0 -464 449 -477v1215h133v-1215q448 13 448 477v451z" />
    <glyph glyph-name="omega" unicode="&#x3c9;" horiz-adv-x="1518" 
d="M102 502q-3 204 107.5 360.5t269.5 179.5v-114q-79 -18 -135.5 -85.5t-82.5 -155t-25 -185.5q0 -206 67.5 -308t188.5 -102q95 0 147.5 77t52.5 228v322h133v-322q0 -151 53 -228t148 -77q121 0 188.5 102.5t67.5 307.5q1 97 -25 185t-83 155.5t-136 85.5v114
q159 -23 269.5 -179.5t107.5 -360.5q1 -243 -106.5 -383.5t-268.5 -138.5q-98 0 -177 56q-77 55 -103 161q-27 -106 -106 -161q-79 -56 -177 -56q-162 -2 -269.5 138.5t-105.5 383.5z" />
    <glyph glyph-name="iotadieresis" unicode="&#x3ca;" horiz-adv-x="498" 
d="M160 176v848h133v-827q0 -47 18 -65.5t64 -18.5h51v-113h-86q-90 0 -135 45.5t-45 130.5zM-29 1208v164h154v-164h-154zM330 1208v164h153v-164h-153z" />
    <glyph glyph-name="upsilondieresis" unicode="&#x3cb;" horiz-adv-x="1130" 
d="M152 410v614h133v-606q0 -326 270 -326h20q271 0 271 326v606h133v-614q0 -195 -108.5 -312.5t-305.5 -117.5t-305 117.5t-108 312.5zM309 1208v164h154v-164h-154zM668 1208v164h153v-164h-153z" />
    <glyph glyph-name="omicrontonos" unicode="&#x3cc;" horiz-adv-x="1143" 
d="M100 512q-2 151 61 275t172 191.5t238 65.5q130 2 238.5 -66t171.5 -191.5t61 -274.5q2 -151 -61 -274.5t-171.5 -191.5t-238.5 -66q-129 -2 -238 65.5t-172 191.5t-61 275zM561 92h21q140 -2 233.5 114.5t91.5 305.5q0 190 -92 305t-233 115h-21q-141 0 -233 -115
t-92 -305q-2 -189 91.5 -305.5t233.5 -114.5zM520 1167l117 267h164l-180 -267h-101z" />
    <glyph glyph-name="upsilontonos" unicode="&#x3cd;" horiz-adv-x="1130" 
d="M152 410v614h133v-606q0 -326 270 -326h20q271 0 271 326v606h133v-614q0 -195 -108.5 -312.5t-305.5 -117.5t-305 117.5t-108 312.5zM489 1167l117 267h164l-180 -267h-101z" />
    <glyph glyph-name="omegatonos" unicode="&#x3ce;" horiz-adv-x="1518" 
d="M102 502q-3 204 107.5 360.5t269.5 179.5v-114q-79 -18 -135.5 -85.5t-82.5 -155t-25 -185.5q0 -206 67.5 -308t188.5 -102q95 0 147.5 77t52.5 228v322h133v-322q0 -151 53 -228t148 -77q121 0 188.5 102.5t67.5 307.5q1 97 -25 185t-83 155.5t-136 85.5v114
q159 -23 269.5 -179.5t107.5 -360.5q1 -243 -106.5 -383.5t-268.5 -138.5q-98 0 -177 56q-77 55 -103 161q-27 -106 -106 -161q-79 -56 -177 -56q-162 -2 -269.5 138.5t-105.5 383.5zM686 1167l117 267h164l-180 -267h-101z" />
    <glyph glyph-name="uni0401" unicode="&#x401;" horiz-adv-x="1315" 
d="M199 0v1434h1001v-134h-858v-495h735v-133h-735v-539h879v-133h-1022zM428 1597v164h164v-164h-164zM809 1597v164h164v-164h-164z" />
    <glyph glyph-name="uni0402" unicode="&#x402;" horiz-adv-x="1667" 
d="M543 0v1300h-512v134h1177v-134h-522v-436h444q216 0 327.5 -99.5t111.5 -293.5v-47q0 -194 -94 -309t-265 -115h-131v135h123q117 0 170 70t53 211v51q0 136 -75.5 204t-235.5 68h-428v-739h-143z" />
    <glyph glyph-name="uni0403" unicode="&#x403;" horiz-adv-x="1032" 
d="M199 0v1434h815v-134h-672v-1300h-143zM475 1567l109 256h184l-170 -256h-123z" />
    <glyph glyph-name="uni0404" unicode="&#x404;" horiz-adv-x="1413" 
d="M1176 440h143q-9 -199 -165.5 -331t-387.5 -129q-195 -3 -346 94t-231 265.5t-78 377.5q-2 209 78 377.5t231 265.5t346 94q232 3 388 -129t165 -332h-143q-18 142 -121 235t-279 93h-20q-211 2 -344 -143.5t-154 -372.5h668v-133h-671q7 -158 67 -284.5t173 -201.5
t261 -73h20q176 0 279 92.5t121 234.5z" />
    <glyph glyph-name="uni0405" unicode="&#x405;" horiz-adv-x="1266" 
d="M86 451h143q0 -159 111.5 -248.5t296.5 -89.5h20q157 0 247.5 75t90.5 191q0 99 -65 158.5t-201 87.5l-229 47q-342 70 -342 372q-3 173 135 293t356 117q227 2 367 -118.5t145 -321.5h-143q-9 138 -109 222.5t-250 84.5h-20q-147 0 -242.5 -78.5t-95.5 -195.5
q0 -183 238 -232l229 -45q371 -74 371 -383q2 -187 -135 -298t-365 -109q-261 0 -407 124t-146 347z" />
    <glyph glyph-name="uni0406" unicode="&#x406;" horiz-adv-x="541" 
d="M199 0v1434h143v-1434h-143z" />
    <glyph glyph-name="uni0407" unicode="&#x407;" horiz-adv-x="541" 
d="M199 0v1434h143v-1434h-143zM-2 1597v164h164v-164h-164zM379 1597v164h164v-164h-164z" />
    <glyph glyph-name="uni0408" unicode="&#x408;" horiz-adv-x="793" 
d="M53 0v133h223q185 0 185 236v1065h143v-1059q0 -184 -83.5 -279.5t-241.5 -95.5h-226z" />
    <glyph glyph-name="uni0409" unicode="&#x409;" horiz-adv-x="2204" 
d="M2125 455q2 -193 -125.5 -325.5t-324.5 -129.5h-565v1300h-643v-225q0 -179 -10 -429q-10 -261 -21 -374q-14 -142 -78 -207t-215 -65h-116v133h116q87 0 121 37.5t43 128.5q11 95 18 328q7 218 7 442v365h921v-551h422q201 2 326.5 -118t123.5 -310zM1982 457
q0 138 -88.5 215.5t-249.5 77.5h-391v-617h391q156 0 247 90.5t91 233.5z" />
    <glyph glyph-name="uni040A" unicode="&#x40a;" horiz-adv-x="2218" 
d="M2146 436q2 -203 -124.5 -320.5t-317.5 -115.5h-574v682h-788v-682h-143v1432h143v-617h788v619h144v-619h422q122 1 226.5 -48.5t165 -138t58.5 -192.5zM2003 422q0 126 -86 193t-246 67h-397v-549h420q139 0 224 78t85 211z" />
    <glyph glyph-name="uni040B" unicode="&#x40b;" horiz-adv-x="1649" 
d="M543 0v1300h-512v134h1177v-134h-522v-462h424q215 0 316.5 -83t101.5 -278v-477h-144v473q0 128 -68.5 184t-221.5 56h-408v-713h-143z" />
    <glyph glyph-name="uni040C" unicode="&#x40c;" horiz-adv-x="1370" 
d="M1167 0l-516 753l-309 -306v-447h-143v1434h143v-799l805 799h190l-583 -579l592 -855h-179zM622 1567l109 256h184l-170 -256h-123z" />
    <glyph glyph-name="uni040E" unicode="&#x40e;" horiz-adv-x="1239" 
d="M1081 1434h152l-571 -1192q-41 -84 -81 -134q-85 -108 -268 -108h-114v131h94q91 0 148.5 33t90.5 108l52 116l-564 1046h160l479 -903zM313 1815h125q16 -150 190 -150q176 0 193 150h125q0 -121 -84 -187.5t-234 -66.5t-232.5 66.5t-82.5 187.5z" />
    <glyph glyph-name="uni040F" unicode="&#x40f;" horiz-adv-x="1495" 
d="M1296 1434v-1434h-479v-307h-139v307h-479v1434h143v-1301h811v1301h143z" />
    <glyph glyph-name="uni0410" unicode="&#x410;" horiz-adv-x="1386" 
d="M1217 0l-160 395h-733l-160 -395h-148l588 1434h180l584 -1434h-151zM377 528h627l-313 774z" />
    <glyph glyph-name="uni0411" unicode="&#x411;" horiz-adv-x="1313" 
d="M199 0v1434h931v-134h-788v-454h440q145 0 246 -55.5t148 -147.5t47 -213q3 -182 -119 -307.5t-293 -122.5h-612zM342 133h438q132 0 215.5 79.5t83.5 211.5t-82.5 210.5t-214.5 78.5h-440v-580z" />
    <glyph glyph-name="uni0412" unicode="&#x412;" horiz-adv-x="1343" 
d="M199 0v1434h598q172 2 284.5 -101.5t110.5 -273.5q0 -116 -67.5 -210t-161.5 -122q47 -8 92 -32.5t84 -64t62 -101t22 -134.5q3 -175 -117 -286t-295 -109h-612zM342 793h440q120 0 193.5 67.5t73.5 186.5q0 118 -73.5 185.5t-193.5 67.5h-440v-507zM342 133h438
q135 0 217 69t82 195q0 127 -81 194q-82 68 -216 68h-440v-526z" />
    <glyph glyph-name="uni0413" unicode="&#x413;" horiz-adv-x="1032" 
d="M199 0v1434h815v-134h-672v-1300h-143z" />
    <glyph glyph-name="uni0414" unicode="&#x414;" horiz-adv-x="1546" 
d="M1280 133h225v-440h-139v307h-1198v-307h-139v440h118q78 2 109 45t45 139q16 102 22 319q7 197 7 433v365h950v-1301zM1137 133v1167h-668v-225q0 -170 -8 -423q-7 -220 -19 -345q-10 -123 -54 -174h749z" />
    <glyph glyph-name="uni0415" unicode="&#x415;" horiz-adv-x="1315" 
d="M199 0v1434h1001v-134h-858v-495h735v-133h-735v-539h879v-133h-1022z" />
    <glyph glyph-name="uni0416" unicode="&#x416;" horiz-adv-x="2046" 
d="M1843 0l-438 750l-313 -356v-394h-140v394l-312 355l-437 -749h-178l510 857l-474 577h164l727 -854v854h140v-858l727 858h163l-469 -574l506 -860h-176z" />
    <glyph glyph-name="uni0417" unicode="&#x417;" horiz-adv-x="1321" 
d="M1204 391q2 -179 -144.5 -297.5t-404.5 -116.5q-247 0 -387.5 121t-158.5 342h143q12 -153 118 -241t285 -88q193 0 297.5 83t104.5 212q0 253 -352 253h-218v134h211q153 0 244.5 71t91.5 193q0 117 -92 190.5t-258 73.5q-202 0 -306 -93q-101 -91 -118 -235h-141
q11 95 49.5 176t105 146.5t172 102.5t238.5 36q222 0 358 -104.5t136 -288.5q0 -111 -62 -196.5t-184 -131.5q139 -33 205.5 -117.5t66.5 -224.5z" />
    <glyph glyph-name="uni0418" unicode="&#x418;" horiz-adv-x="1538" 
d="M1128 1434h211v-1434h-143v1290l-786 -1290h-211v1434h143v-1291z" />
    <glyph glyph-name="uni0419" unicode="&#x419;" horiz-adv-x="1538" 
d="M1128 1434h211v-1434h-143v1290l-786 -1290h-211v1434h143v-1291zM444 1815h125q17 -150 190 -150q176 0 193 150h125q0 -121 -84 -187.5t-234 -66.5t-232.5 66.5t-82.5 187.5z" />
    <glyph glyph-name="uni041A" unicode="&#x41a;" horiz-adv-x="1370" 
d="M1167 0l-516 753l-309 -306v-447h-143v1434h143v-799l805 799h190l-583 -579l592 -855h-179z" />
    <glyph glyph-name="uni041B" unicode="&#x41b;" horiz-adv-x="1462" 
d="M27 0v133h116q87 0 121 37.5t43 128.5q11 95 18 328q7 218 7 442v365h932v-1434h-144v1300h-653v-225q0 -179 -10 -429q-10 -261 -21 -374q-14 -142 -78 -207t-215 -65h-116z" />
    <glyph glyph-name="uni041C" unicode="&#x41c;" horiz-adv-x="1882" 
d="M1446 1434h237v-1434h-141v1316l-500 -1316h-198l-504 1320v-1320h-141v1434h243l504 -1326z" />
    <glyph glyph-name="uni041D" unicode="&#x41d;" horiz-adv-x="1493" 
d="M199 0v1434h143v-650h809v650h143v-1434h-143v651h-809v-651h-143z" />
    <glyph glyph-name="uni041E" unicode="&#x41e;" horiz-adv-x="1532" 
d="M111 717q-1 166 48.5 305.5t137 234t208.5 146.5t261 51q140 1 261 -51t208.5 -146.5t137 -234t48.5 -305.5q1 -166 -48.5 -305.5t-137 -234t-208.5 -146.5t-261 -51q-140 -1 -261 51t-208.5 146.5t-137 234t-48.5 305.5zM756 113h20q220 -2 362 165t140 439
q2 272 -140 439t-362 165h-20q-220 2 -362 -165t-140 -439q-2 -272 140 -439t362 -165z" />
    <glyph glyph-name="uni041F" unicode="&#x41f;" horiz-adv-x="1475" 
d="M199 1434h1077v-1434h-143v1300h-791v-1300h-143v1434z" />
    <glyph glyph-name="uni0420" unicode="&#x420;" horiz-adv-x="1298" 
d="M199 0v1434h573q93 1 175.5 -28t144.5 -82.5t97 -134.5t34 -179q2 -195 -127.5 -308.5t-323.5 -111.5h-430v-590h-143zM342 723h399q159 0 248.5 73.5t89.5 213.5q0 142 -92 216t-246 74h-399v-577z" />
    <glyph glyph-name="uni0421" unicode="&#x421;" horiz-adv-x="1421" 
d="M111 717q-2 209 78 377.5t231 265.5t346 94q232 3 388 -129t165 -332h-143q-18 142 -121 235t-279 93h-20q-117 2 -213 -45.5t-159 -130t-97 -193t-33 -235.5q-1 -125 33 -235.5t97 -193t159 -130t213 -45.5h20q176 0 279 92.5t121 234.5h143q-9 -199 -165.5 -331
t-387.5 -129q-195 -3 -346 94t-231 265.5t-78 377.5z" />
    <glyph glyph-name="uni0422" unicode="&#x422;" horiz-adv-x="1249" 
d="M553 0v1300h-522v134h1188v-134h-523v-1300h-143z" />
    <glyph glyph-name="uni0423" unicode="&#x423;" horiz-adv-x="1239" 
d="M1081 1434h152l-571 -1192q-41 -84 -81 -134q-85 -108 -268 -108h-114v131h94q91 0 148.5 33t90.5 108l52 116l-564 1046h160l479 -903z" />
    <glyph glyph-name="uni0424" unicode="&#x424;" horiz-adv-x="1724" 
d="M791 -45v147q-137 3 -260.5 43.5t-222 114.5t-155.5 192t-55 265q0 201 97 337q98 137 256 205q157 67 340 72v152h143v-152q182 -5 339 -72q156 -67 255 -205q98 -137 98 -337q0 -201 -98 -338t-255 -204q-160 -69 -339 -73v-147h-143zM791 225v983q-114 -1 -212 -30.5
t-174.5 -87.5t-120 -153.5t-42.5 -219.5q-1 -124 42.5 -219.5t120 -153.5t174.5 -88t212 -31zM1483 717q1 124 -42.5 219.5t-120 153.5t-174.5 87.5t-212 30.5v-983q114 1 212 31t174.5 88t120 153.5t42.5 219.5z" />
    <glyph glyph-name="uni0425" unicode="&#x425;" horiz-adv-x="1276" 
d="M1249 0h-170l-443 617l-446 -617h-165l529 732l-505 702h170l420 -584l422 584h166l-506 -699z" />
    <glyph glyph-name="uni0426" unicode="&#x426;" horiz-adv-x="1536" 
d="M1497 -307h-139v307h-1159v1434h143v-1301h782v1301h144v-1301h227z" />
    <glyph glyph-name="uni0427" unicode="&#x427;" horiz-adv-x="1354" 
d="M1012 0v565h-471q-214 0 -315.5 83t-102.5 278l-2 508h143l2 -504q0 -128 68.5 -184t222.5 -56h455v744h143v-1434h-143z" />
    <glyph glyph-name="uni0428" unicode="&#x428;" horiz-adv-x="2191" 
d="M1849 1434h144v-1434h-1794v1434h143v-1301h682v1301h143v-1301h682v1301z" />
    <glyph glyph-name="uni0429" unicode="&#x429;" horiz-adv-x="2277" 
d="M2243 -307h-140v307h-1904v1434h143v-1301h682v1301h143v-1301h682v1301h144v-1303h248z" />
    <glyph glyph-name="uni042A" unicode="&#x42a;" horiz-adv-x="1579" 
d="M1501 455q2 -193 -125.5 -325.5t-324.5 -129.5h-565v1300h-463v134h606v-551h422q201 2 326.5 -118t123.5 -310zM1358 457q0 138 -88.5 215.5t-249.5 77.5h-391v-617h391q156 0 247 90.5t91 233.5z" />
    <glyph glyph-name="uni042B" unicode="&#x42b;" horiz-adv-x="1761" 
d="M1214 455q2 -193 -125.5 -325.5t-324.5 -129.5h-565v1434h143v-551h422q201 2 326.5 -118t123.5 -310zM1419 1434h144v-1434h-144v1434zM1071 457q0 138 -88.5 215.5t-249.5 77.5h-391v-617h391q156 0 247 90.5t91 233.5z" />
    <glyph glyph-name="uni042C" unicode="&#x42c;" horiz-adv-x="1292" 
d="M1214 455q2 -193 -125.5 -325.5t-324.5 -129.5h-565v1434h143v-551h422q201 2 326.5 -118t123.5 -310zM1071 457q0 138 -88.5 215.5t-249.5 77.5h-391v-617h391q156 0 247 90.5t91 233.5z" />
    <glyph glyph-name="uni042D" unicode="&#x42d;" horiz-adv-x="1409" 
d="M1296 745q1 -164 -39.5 -303.5t-118 -243.5t-198 -162t-270.5 -56q-153 -2 -281 52.5t-209.5 161t-91.5 246.5h143q10 -101 75.5 -177.5t160 -113.5t201.5 -36h20q112 0 198.5 42.5t141.5 120t85.5 177t37.5 219.5h-659v133h659q-12 240 -127 377q-114 139 -344 139h-21
q-163 2 -282.5 -86.5t-136.5 -241.5h-144q23 210 173.5 335.5t400.5 125.5q306 0 466 -188t160 -521z" />
    <glyph glyph-name="uni042E" unicode="&#x42e;" horiz-adv-x="2023" 
d="M1913 717q1 -166 -48.5 -305.5t-137 -234t-208.5 -146.5t-261 -51q-271 -3 -454.5 181t-198.5 490h-263v-651h-143v1434h143v-650h263q11 203 99 356.5t232 234t322 79.5q140 1 261 -51t208.5 -146.5t137 -234t48.5 -305.5zM1770 717q2 272 -140 439t-362 165h-20
q-220 2 -362 -165t-140 -439q-2 -272 140 -439t362 -165h20q220 -2 362 165t140 439z" />
    <glyph glyph-name="uni042F" unicode="&#x42f;" horiz-adv-x="1382" 
d="M180 0v512q0 106 43.5 150.5t147.5 44.5q-97 42 -154 132.5t-57 211.5q-2 79 33.5 151t96.5 123t146 80.5t178 28.5h570v-1434h-144v604h-624q-92 0 -92 -92v-512h-144zM625 737h415v563h-417q-151 0 -235.5 -71.5t-84.5 -198.5q-2 -83 44.5 -152t121 -105.5t156.5 -35.5
z" />
    <glyph glyph-name="uni0430" unicode="&#x430;" horiz-adv-x="1067" 
d="M924 0h-123q-10 53 -10 164q-33 -75 -135 -129.5t-228 -54.5q-134 -2 -230.5 87.5t-93.5 215.5q0 153 104 224q104 73 249 83l323 24v41q0 131 -68 204t-188 73h-10q-103 0 -175 -51q-71 -51 -81 -144h-133q7 135 119 222t274 85q125 0 216 -53t135 -140t44 -196v-430
q0 -150 11 -225zM780 369v137l-297 -21q-112 -8 -178.5 -60t-66.5 -134q0 -84 59 -141.5t145 -57.5h21q69 -2 144 36.5t125 105t48 135.5z" />
    <glyph glyph-name="uni0431" unicode="&#x431;" horiz-adv-x="1169" 
d="M135 578q0 144 8 259q18 240 107 355q104 135 332 135h258q54 0 77 18t23 60v39h131v-43q0 -105 -51.5 -148t-185.5 -43h-259q-175 -3 -245.5 -103.5t-79.5 -332.5q47 87 151.5 149t221.5 62q194 2 321 -133t125 -358q2 -144 -58.5 -263t-167 -186t-235.5 -65
q-216 -2 -345.5 158.5t-127.5 439.5zM604 92h10q140 -3 231 115.5t89 286.5q2 165 -89.5 275t-230.5 108h-10q-144 2 -238 -101.5t-92 -259.5q-2 -183 92 -304.5t238 -119.5z" />
    <glyph glyph-name="uni0432" unicode="&#x432;" horiz-adv-x="1075" 
d="M164 0v1024h450q154 0 241 -72.5t87 -187.5q0 -90 -46.5 -154t-127.5 -88q83 -8 144 -72.5t61 -162.5q0 -123 -100 -205t-257 -82h-452zM297 578h328q84 0 134 47.5t50 128.5q0 78 -59 119.5t-172 41.5h-281v-337zM297 109h311q232 0 232 188q0 73 -56.5 120.5
t-162.5 47.5h-324v-356z" />
    <glyph glyph-name="uni0433" unicode="&#x433;" horiz-adv-x="803" 
d="M776 1024v-111h-479v-913h-133v1024h612z" />
    <glyph glyph-name="uni0434" unicode="&#x434;" horiz-adv-x="1227" 
d="M1001 113h179v-398h-123v285h-903v-285h-123v398h92q62 0 89 33t38 122q16 133 16 537v219h735v-911zM868 113v800h-473v-108q0 -373 -16 -537q-10 -109 -38 -155h527z" />
    <glyph glyph-name="uni0435" unicode="&#x435;" horiz-adv-x="1077" 
d="M102 514q-1 125 36 227.5t101 168t146.5 100.5t173.5 34q182 2 299 -130.5t115 -329.5v-82h-737q3 -202 92.5 -306t228.5 -104h12q211 0 269 201h133q-33 -150 -143 -232q-110 -81 -269 -81q-199 -2 -329 141.5t-128 392.5zM240 614h600q-5 139 -80 228.5t-193 89.5h-20
q-54 0 -103 -17.5t-92.5 -53.5t-73 -99.5t-38.5 -147.5z" />
    <glyph glyph-name="uni0436" unicode="&#x436;" horiz-adv-x="1632" 
d="M1430 0l-324 530l-227 -250v-280h-127v275l-232 261l-325 -536h-156l386 626l-357 398h153l531 -595v595h127v-596l532 596h152l-356 -397l386 -627h-163z" />
    <glyph glyph-name="uni0437" unicode="&#x437;" horiz-adv-x="1018" 
d="M913 285q3 -132 -113 -219.5t-290 -85.5q-206 0 -310 86.5t-116 261.5h131q7 -124 80 -181t215 -57q112 0 191 55t79 144q0 82 -61 126t-168 44h-162v112h158q93 0 152 53.5t59 135.5q0 81 -65.5 127.5t-174.5 46.5q-140 0 -207 -69q-66 -67 -78 -169h-133q4 74 45 153
q41 80 134 137q92 58 239 58q173 0 273 -76.5t100 -199.5q0 -88 -47.5 -153.5t-140.5 -97.5q210 -38 210 -232z" />
    <glyph glyph-name="uni0438" unicode="&#x438;" horiz-adv-x="1196" 
d="M862 1024h170v-1024h-133v875l-547 -875h-188v1024h133v-894z" />
    <glyph glyph-name="uni0439" unicode="&#x439;" horiz-adv-x="1196" 
d="M862 1024h170v-1024h-133v875l-547 -875h-188v1024h133v-894zM308 1434h116q8 -87 48 -125.5t116 -38.5t116.5 39t47.5 125h117q0 -129 -74 -192.5t-207 -63.5q-128 0 -204 61t-76 195z" />
    <glyph glyph-name="uni043A" unicode="&#x43a;" horiz-adv-x="1073" 
d="M879 0l-375 525l-207 -198v-327h-133v1024h133v-541l557 541h170l-422 -405l442 -619h-165z" />
    <glyph glyph-name="uni043B" unicode="&#x43b;" horiz-adv-x="1139" 
d="M31 0v113h47q84 0 124 29.5t46 105.5q10 151 10 557v219h717v-1024h-133v913h-455v-108q0 -299 -12 -574q-4 -70 -24 -115.5t-59 -70.5t-86.5 -35t-117.5 -10h-57z" />
    <glyph glyph-name="uni043C" unicode="&#x43c;" horiz-adv-x="1468" 
d="M1096 1024h209v-1024h-129v909l-375 -909h-139l-375 909v-909h-123v1024h209l364 -889z" />
    <glyph glyph-name="uni043D" unicode="&#x43d;" horiz-adv-x="1176" 
d="M164 0v1024h133v-434h582v434h133v-1024h-133v479h-582v-479h-133z" />
    <glyph glyph-name="uni043E" unicode="&#x43e;" horiz-adv-x="1143" 
d="M100 512q-2 151 61 275t172 191.5t238 65.5q130 2 238.5 -66t171.5 -191.5t61 -274.5q2 -151 -61 -274.5t-171.5 -191.5t-238.5 -66q-129 -2 -238 65.5t-172 191.5t-61 275zM561 92h21q140 -2 233.5 114.5t91.5 305.5q0 190 -92 305t-233 115h-21q-141 0 -233 -115
t-92 -305q-2 -189 91.5 -305.5t233.5 -114.5z" />
    <glyph glyph-name="uni043F" unicode="&#x43f;" horiz-adv-x="1169" 
d="M164 0v1024h842v-1024h-134v913h-575v-913h-133z" />
    <glyph glyph-name="uni0440" unicode="&#x440;" horiz-adv-x="1198" 
d="M164 -410v1434h133v-164q44 82 141.5 133t200.5 51q200 2 329.5 -146t127.5 -386q2 -238 -127.5 -386t-329.5 -146q-103 0 -200.5 51t-141.5 133v-574h-133zM625 92h10q102 -1 178 57.5t112.5 153t35.5 209.5q1 115 -35.5 209.5t-112.5 153t-178 57.5h-10
q-104 1 -180 -57.5t-112.5 -153t-35.5 -209.5q-1 -115 35.5 -209.5t112.5 -153t180 -57.5z" />
    <glyph glyph-name="uni0441" unicode="&#x441;" horiz-adv-x="1067" 
d="M102 512q-1 152 54 272.5t164 191t253 68.5q167 0 276 -94t124 -254h-133q-18 106 -87 171q-68 65 -169 65h-21q-104 1 -179.5 -57t-112 -152.5t-35.5 -210.5q-1 -116 35.5 -210.5t112 -152.5t179.5 -57h21q100 0 167 66q68 68 89 170h133q-29 -160 -132 -255
q-103 -93 -268 -93q-144 -2 -253 68.5t-164 191t-54 272.5z" />
    <glyph glyph-name="uni0442" unicode="&#x442;" horiz-adv-x="903" 
d="M874 1024v-111h-356v-913h-133v913h-356v111h845z" />
    <glyph glyph-name="uni0443" unicode="&#x443;" horiz-adv-x="1065" 
d="M1036 1024l-422 -991v-193q0 -93 -47 -135.5t-147 -42.5h-311v113h290q47 0 64.5 17.5t17.5 64.5v172l-434 995h146l352 -830l352 830h139z" />
    <glyph glyph-name="uni0444" unicode="&#x444;" horiz-adv-x="1729" 
d="M801 -410v551q-41 -66 -120 -114q-80 -47 -167 -47q-196 0 -303 141.5t-107 390.5q-2 231 110 383t290 149q94 0 174 -47q79 -46 123 -116v553h127v-553q45 71 122 116q80 47 175 47q189 2 295 -146t104 -386q0 -250 -106.5 -391t-303.5 -141q-86 0 -166 47
q-80 48 -120 114v-551h-127zM508 92h10q136 0 209.5 110t73.5 310q0 196 -73.5 308t-203.5 112h-10q-86 1 -150 -56.5t-95.5 -152.5t-30.5 -211q-1 -118 27.5 -211.5t91 -151.5t151.5 -57zM1210 92h11q89 0 151 57.5t90.5 150.5t28.5 212q0 187 -67 303q-66 117 -210 117
h-10q-130 0 -203 -112t-73 -308q0 -200 73 -310t209 -110z" />
    <glyph glyph-name="uni0445" unicode="&#x445;" horiz-adv-x="1024" 
d="M983 0h-156l-317 421l-320 -421h-149l395 519l-381 505h156l303 -402l305 402h150l-381 -500z" />
    <glyph glyph-name="uni0446" unicode="&#x446;" horiz-adv-x="1225" 
d="M1055 -283v283h-891v1024h133v-913h569v913h133v-911h179v-396h-123z" />
    <glyph glyph-name="uni0447" unicode="&#x447;" horiz-adv-x="1040" 
d="M743 0v385h-315q-95 1 -153.5 12t-99.5 40.5t-58 80t-19 131.5v375h133v-356q0 -96 47.5 -133t163.5 -37h301v526h134v-1024h-134z" />
    <glyph glyph-name="uni0448" unicode="&#x448;" horiz-adv-x="1714" 
d="M164 0v1024h133v-913h494v913h133v-913h493v913h133v-1024h-1386z" />
    <glyph glyph-name="uni0449" unicode="&#x449;" horiz-adv-x="1774" 
d="M1550 111h176v-394h-124v283h-1438v1024h133v-913h494v913h133v-913h493v913h133v-913z" />
    <glyph glyph-name="uni044A" unicode="&#x44a;" horiz-adv-x="1198" 
d="M1132 340q0 -155 -98.5 -247.5t-272.5 -92.5h-411v913h-321v111h454v-377h295q162 2 259 -88t95 -219zM999 336q0 89 -66.5 144t-183.5 55h-266v-426h266q119 0 184.5 57.5t65.5 169.5z" />
    <glyph glyph-name="uni044B" unicode="&#x44b;" horiz-adv-x="1403" 
d="M164 0v1024h133v-377h295q162 2 259 -88t95 -219q0 -155 -98.5 -247.5t-272.5 -92.5h-411zM1106 0v1024h133v-1024h-133zM297 109h266q119 0 184.5 57.5t65.5 169.5q0 89 -66.5 144t-183.5 55h-266v-426z" />
    <glyph glyph-name="uni044C" unicode="&#x44c;" horiz-adv-x="1012" 
d="M164 0v1024h133v-377h295q162 2 259 -88t95 -219q0 -155 -98.5 -247.5t-272.5 -92.5h-411zM297 109h266q119 0 184.5 57.5t65.5 169.5q0 89 -66.5 144t-183.5 55h-266v-426z" />
    <glyph glyph-name="uni044D" unicode="&#x44d;" horiz-adv-x="1061" 
d="M956 512q0 -244 -114 -388t-330 -144q-165 0 -282 95.5t-144 252.5h133q20 -99 101.5 -167.5t181.5 -68.5h20q145 0 217 102q72 100 83 267h-466v112h465q-12 162 -86 260q-73 99 -221 99h-20q-116 0 -187.5 -68t-87.5 -168h-133q25 155 135 251.5t283 96.5
q222 0 337 -143.5t115 -388.5z" />
    <glyph glyph-name="uni044E" unicode="&#x44e;" horiz-adv-x="1507" 
d="M1407 512q2 -151 -61 -274.5t-171.5 -191.5t-238.5 -66q-125 -2 -231.5 61.5t-171 180.5t-67.5 261h-169v-483h-133v1024h133v-430h173q22 199 154 325.5t312 124.5q130 2 238.5 -66t171.5 -191.5t61 -274.5zM1272 512q0 190 -92 305t-233 115h-21q-141 0 -233 -115
t-92 -305q-2 -189 91.5 -305.5t233.5 -114.5h21q140 -2 233.5 114.5t91.5 305.5z" />
    <glyph glyph-name="uni044F" unicode="&#x44f;" horiz-adv-x="1112" 
d="M141 0v328q0 74 41.5 115.5t114.5 41.5q-67 25 -106 85.5t-39 148.5q0 146 99.5 225.5t280.5 79.5h416v-1024h-133v408h-436q-59 0 -82 -21t-23 -70v-317h-133zM502 520h313v395h-293q-237 0 -237 -202q0 -83 54 -138t163 -55z" />
    <glyph glyph-name="uni0451" unicode="&#x451;" horiz-adv-x="1077" 
d="M102 514q-1 125 36 227.5t101 168t146.5 100.5t173.5 34q182 2 299 -130.5t115 -329.5v-82h-737q3 -202 92.5 -306t228.5 -104h12q211 0 269 201h133q-33 -150 -143 -232q-110 -81 -269 -81q-199 -2 -329 141.5t-128 392.5zM240 614h600q-5 139 -80 228.5t-193 89.5h-20
q-54 0 -103 -17.5t-92.5 -53.5t-73 -99.5t-38.5 -147.5zM303 1208v164h154v-164h-154zM662 1208v164h153v-164h-153z" />
    <glyph glyph-name="uni0452" unicode="&#x452;" horiz-adv-x="1167" 
d="M1014 676v-830q0 -98 -46.5 -141t-148.5 -43h-229v113h209q46 0 64 18t18 64v778q0 297 -246 297h-21q-59 1 -116.5 -26.5t-102.5 -76t-72 -121t-26 -155.5v-553h-133v1178h-164v102h164v154h133v-154h330v-102h-330v-328q54 93 148.5 143.5t220.5 50.5
q165 0 256.5 -100.5t91.5 -267.5z" />
    <glyph glyph-name="uni0453" unicode="&#x453;" horiz-adv-x="803" 
d="M776 1024v-111h-479v-913h-133v1024h612zM368 1167l117 267h164l-180 -267h-101z" />
    <glyph glyph-name="uni0454" unicode="&#x454;" horiz-adv-x="1063" 
d="M840 328h133q-29 -160 -132 -255q-103 -93 -268 -93q-144 -2 -253 68.5t-164 191t-54 272.5q-1 152 54 272.5t164 191t253 68.5q167 0 276 -94t124 -254h-133q-18 106 -87 171q-68 65 -169 65h-21q-142 0 -226 -100t-98 -259h476v-112h-477q13 -163 97 -266t228 -103h21
q100 0 167 66q68 68 89 170z" />
    <glyph glyph-name="uni0455" unicode="&#x455;" horiz-adv-x="977" 
d="M84 307h133q10 -101 81.5 -158t182.5 -57h21q107 0 169 50t62 134q0 63 -40.5 99t-139.5 59l-150 33q-130 29 -204 91q-74 65 -74 185q0 137 105.5 219t261.5 82q175 2 276 -93t109 -234h-134q-9 90 -75.5 152.5t-165.5 62.5h-21q-101 0 -162 -51.5t-61 -124.5
q0 -68 42.5 -105t143.5 -59l160 -35q122 -25 193 -88q69 -61 69 -182q0 -143 -101.5 -225t-272.5 -82q-189 0 -294.5 89.5t-113.5 237.5z" />
    <glyph glyph-name="uni0456" unicode="&#x456;" horiz-adv-x="461" 
d="M154 1208v174h153v-174h-153zM164 0v1024h133v-1024h-133z" />
    <glyph glyph-name="uni0457" unicode="&#x457;" horiz-adv-x="461" 
d="M164 0v1024h133v-1024h-133zM-25 1208v164h154v-164h-154zM334 1208v164h153v-164h-153z" />
    <glyph glyph-name="uni0458" unicode="&#x458;" horiz-adv-x="477" 
d="M170 1208v174h154v-174h-154zM-168 -338v113h266q47 0 64.5 17.5t17.5 64.5v1167h133v-1178q0 -98 -46 -141t-148 -43h-287z" />
    <glyph glyph-name="uni0459" unicode="&#x459;" horiz-adv-x="1679" 
d="M1614 340q0 -155 -98.5 -247.5t-272.5 -92.5h-412v913h-444v-108q0 -299 -12 -574q-4 -70 -24 -115.5t-59 -70.5t-86.5 -35t-117.5 -10h-57v113h47q84 0 124 29.5t46 105.5q10 151 10 557v219h707v-377h295q162 2 259 -88t95 -219zM1481 336q0 89 -66.5 144t-183.5 55
h-266v-426h266q119 0 184.5 57.5t65.5 169.5z" />
    <glyph glyph-name="uni045A" unicode="&#x45a;" horiz-adv-x="1716" 
d="M164 0v1024h133v-418h571v418h133v-416h297q171 0 262 -73t91 -218q0 -149 -95.5 -233t-269.5 -84h-418v496h-571v-496h-133zM1001 109h271q244 0 244 208q0 93 -60.5 136t-183.5 43h-271v-387z" />
    <glyph glyph-name="uni045B" unicode="&#x45b;" horiz-adv-x="1167" 
d="M1014 676v-676h-133v635q0 297 -246 297h-21q-59 1 -116.5 -26.5t-102.5 -76t-72 -121t-26 -155.5v-553h-133v1178h-146v102h146v154h133v-154h346v-102h-346v-328q54 93 148.5 143.5t220.5 50.5q165 0 256.5 -100.5t91.5 -267.5z" />
    <glyph glyph-name="uni045C" unicode="&#x45c;" horiz-adv-x="1073" 
d="M879 0l-375 525l-207 -198v-327h-133v1024h133v-541l557 541h170l-422 -405l442 -619h-165zM442 1167l117 267h164l-180 -267h-101z" />
    <glyph glyph-name="uni045E" unicode="&#x45e;" horiz-adv-x="1065" 
d="M1036 1024l-422 -991v-193q0 -93 -47 -135.5t-147 -42.5h-311v113h290q47 0 64.5 17.5t17.5 64.5v172l-434 995h146l352 -830l352 830h139zM254 1434h116q8 -87 48 -125.5t116 -38.5t116.5 39t47.5 125h117q0 -129 -74 -192.5t-207 -63.5q-128 0 -204 61t-76 195z" />
    <glyph glyph-name="uni045F" unicode="&#x45f;" horiz-adv-x="1163" 
d="M999 1024v-1024h-356v-283h-123v283h-356v1024h133v-913h569v913h133z" />
    <glyph glyph-name="uni0462" unicode="&#x462;" horiz-adv-x="1563" 
d="M1476 455q2 -193 -125.5 -325.5t-324.5 -129.5h-565v1139h-404v123h404v172h143v-172h463v-123h-463v-256h422q201 2 326.5 -118t123.5 -310zM1333 457q0 138 -88.5 215.5t-249.5 77.5h-391v-617h391q156 0 247 90.5t91 233.5z" />
    <glyph glyph-name="uni0463" unicode="&#x463;" horiz-adv-x="1157" 
d="M1087 330q0 -151 -98.5 -240.5t-273.5 -89.5h-410v911h-272v113h272v410h133v-410h410v-113h-410v-264h307q166 0 254 -81.5t88 -235.5zM952 330q0 98 -61.5 151.5t-175.5 53.5h-277v-426h256q121 0 189.5 57t68.5 164z" />
    <glyph glyph-name="uni0472" unicode="&#x472;" horiz-adv-x="1532" 
d="M1421 717q1 -166 -48.5 -305.5t-137 -234t-208.5 -146.5t-261 -51q-140 -1 -261 51t-208.5 146.5t-137 234t-48.5 305.5q-1 166 48.5 305.5t137 234t208.5 146.5t261 51q140 1 261 -51t208.5 -146.5t137 -234t48.5 -305.5zM256 779q53 50 123 80t143 30q94 0 211 -58
l92 -43q127 -57 217 -57q133 0 227 115q-31 220 -165.5 347.5t-327.5 127.5h-20q-206 2 -346 -147t-154 -395zM1278 700q-98 -92 -254 -92q-120 0 -254 62l-76 35q-108 49 -194 49q-132 0 -242 -120q19 -237 157.5 -380t340.5 -141h20q141 -2 255 69.5t180 206.5t67 311z
" />
    <glyph glyph-name="uni0473" unicode="&#x473;" horiz-adv-x="1143" 
d="M1042 512q2 -151 -61 -274.5t-171.5 -191.5t-238.5 -66q-129 -2 -238 65.5t-172 191.5t-61 275q-2 151 61 275t172 191.5t238 65.5q130 2 238.5 -66t171.5 -191.5t61 -274.5zM238 563q76 60 165 60q57 0 146 -33l63 -25q86 -35 131 -35q100 0 158 74q-21 152 -108.5 240
t-210.5 88h-21q-131 0 -221 -100.5t-102 -268.5zM906 478q-65 -60 -169 -60q-69 0 -149 33l-58 22q-81 31 -137 31q-84 0 -154 -55q15 -164 104 -260.5t218 -96.5h21q135 0 225 105t99 281z" />
    <glyph glyph-name="uni0474" unicode="&#x474;" horiz-adv-x="1468" 
d="M1354 1434h80v-131h-50q-54 0 -88 -21q-31 -19 -50.5 -51.5t-45.5 -100.5l-442 -1130h-160l-582 1434h154l509 -1273l402 1064q40 103 104.5 156t168.5 53z" />
    <glyph glyph-name="uni0475" unicode="&#x475;" horiz-adv-x="1102" 
d="M989 1024h78v-121h-51q-54 0 -87.5 -26.5t-58.5 -90.5l-297 -786h-159l-373 1024h141l316 -900l258 722q33 92 88.5 135t144.5 43z" />
    <glyph glyph-name="uni0490" unicode="&#x490;" horiz-adv-x="1032" 
d="M874 1659h140v-359h-672v-1300h-143v1434h677z" />
    <glyph glyph-name="uni0491" unicode="&#x491;" horiz-adv-x="836" 
d="M164 0v1024h520v203h127v-314h-514v-913h-133z" />
    <glyph glyph-name="uni0492" unicode="&#x492;" horiz-adv-x="1071" 
d="M1047 1300h-672v-503h379v-123h-379v-674h-143v674h-205v123h205v637h815v-134z" />
    <glyph glyph-name="uni0493" unicode="&#x493;" horiz-adv-x="829" 
d="M803 913h-479v-358h303v-102h-303v-453h-133v453h-146v102h146v469h612v-111z" />
    <glyph glyph-name="uni0496" unicode="&#x496;" horiz-adv-x="2175" 
d="M1941 133h230v-440h-139v307h-189l-438 750l-313 -356v-394h-140v394l-312 355l-437 -749h-178l510 857l-474 577h164l727 -854v854h140v-858l727 858h163l-469 -574z" />
    <glyph glyph-name="uni0497" unicode="&#x497;" horiz-adv-x="1722" 
d="M1511 133h181v-440h-125v307h-137l-324 530l-227 -250v-280h-127v275l-232 261l-325 -536h-156l386 626l-357 398h153l531 -595v595h127v-596l532 596h152l-356 -397z" />
    <glyph glyph-name="uni049A" unicode="&#x49a;" horiz-adv-x="1503" 
d="M1495 -307h-139v307h-189l-516 753l-309 -306v-447h-143v1434h143v-799l805 799h190l-583 -579l500 -722h239z" />
    <glyph glyph-name="uni049B" unicode="&#x49b;" horiz-adv-x="1169" 
d="M1149 -307h-125v307h-145l-375 525l-207 -198v-327h-133v1024h133v-541l557 541h170l-422 -405l347 -486h198z" />
    <glyph glyph-name="uni04A2" unicode="&#x4a2;" horiz-adv-x="1554" 
d="M1491 -307h-139v307h-201v651h-809v-651h-143v1434h143v-650h809v650h143v-1301h195z" />
    <glyph glyph-name="uni04A3" unicode="&#x4a3;" horiz-adv-x="1255" 
d="M1210 -307h-125v307h-206v479h-582v-479h-133v1024h133v-434h582v434h133v-891h196z" />
    <glyph glyph-name="uni04AE" unicode="&#x4ae;" horiz-adv-x="1217" 
d="M1044 1434h158l-522 -840v-594h-143v594l-523 840h162l434 -708z" />
    <glyph glyph-name="uni04AF" unicode="&#x4af;" horiz-adv-x="1049" 
d="M1018 1024l-422 -988v-446h-133v439l-434 995h145l353 -830l352 830h139z" />
    <glyph glyph-name="uni04B0" unicode="&#x4b0;" 
d="M1208 1434l-522 -840h358v-123h-358v-471h-143v471h-359v123h359l-523 840h162l434 -708l434 708h158z" />
    <glyph glyph-name="uni04B1" unicode="&#x4b1;" horiz-adv-x="1057" 
d="M1022 1024l-394 -922h281v-102h-309v-410h-133v410h-309v102h277l-402 922h145l353 -830l352 830h139z" />
    <glyph glyph-name="uni04B2" unicode="&#x4b2;" horiz-adv-x="1430" 
d="M1425 -307h-139v307h-207l-443 617l-446 -617h-165l529 732l-505 702h170l420 -584l422 584h166l-506 -699l432 -602h270z" />
    <glyph glyph-name="uni04B3" unicode="&#x4b3;" horiz-adv-x="1130" 
d="M1098 -307h-125v307h-146l-317 421l-320 -421h-149l395 519l-381 505h156l303 -402l305 402h150l-381 -500l295 -391h213z" />
    <glyph glyph-name="uni04B6" unicode="&#x4b6;" horiz-adv-x="1448" 
d="M1417 -307h-139v307h-266v565h-471q-214 0 -315.5 83t-102.5 278l-2 508h143l2 -504q0 -128 68.5 -184t222.5 -56h455v744h143v-1301h260z" />
    <glyph glyph-name="uni04B7" unicode="&#x4b7;" horiz-adv-x="1143" 
d="M1102 -307h-125v307h-234v385h-315q-95 1 -153.5 12t-99.5 40.5t-58 80t-19 131.5v375h133v-356q0 -96 47.5 -133t163.5 -37h301v526h134v-891h223z" />
    <glyph glyph-name="uni04BA" unicode="&#x4ba;" horiz-adv-x="1307" 
d="M199 0v1434h143v-566h446q111 -1 183.5 -19t120.5 -60.5t69 -110t23 -170.5v-508h-144v504q0 133 -59 186t-209 53h-430v-743h-143z" />
    <glyph glyph-name="uni04BB" unicode="&#x4bb;" horiz-adv-x="1167" 
d="M164 0v1434h133v-584q54 93 148.5 143.5t220.5 50.5q165 0 256.5 -100.5t91.5 -267.5v-676h-133v635q0 297 -246 297h-21q-59 1 -116.5 -26.5t-102.5 -76t-72 -121t-26 -155.5v-553h-133z" />
    <glyph glyph-name="uni04C0" unicode="&#x4c0;" horiz-adv-x="541" 
d="M199 0v1434h143v-1434h-143z" />
    <glyph glyph-name="uni04CF" unicode="&#x4cf;" horiz-adv-x="461" 
d="M164 0v1434h133v-1434h-133z" />
    <glyph glyph-name="uni04D8" unicode="&#x4d8;" horiz-adv-x="1473" 
d="M115 664q0 37 4 92h1098q-2 121 -32.5 223t-88.5 179.5t-150 120.5t-209 42h-20q-190 0 -306 -88.5t-139 -239.5h-143q15 139 99.5 245.5t214.5 162t284 53.5q152 1 273 -51t199.5 -148.5t120 -230t40.5 -295.5q2 -214 -74 -384t-221.5 -268.5t-337.5 -96.5
q-188 -2 -329 88t-213 245.5t-70 350.5zM719 113h20q123 -2 225 66t164 183.5t80 260.5h-944q18 -239 135.5 -374.5t319.5 -135.5z" />
    <glyph glyph-name="uni04D9" unicode="&#x4d9;" horiz-adv-x="1077" 
d="M103 480l1 42h738q-3 205 -82.5 307.5t-224.5 102.5h-13q-108 0 -180.5 -51t-101.5 -150h-134q32 148 148.5 230.5t277.5 82.5q206 0 324.5 -139t118.5 -395q1 -125 -36 -228t-101 -168t-146.5 -100t-173.5 -34q-206 0 -310.5 127.5t-104.5 372.5zM510 92h20
q116 0 202 77.5t106 240.5h-600q0 -138 76.5 -228t195.5 -90z" />
    <glyph glyph-name="uni04E2" unicode="&#x4e2;" horiz-adv-x="1538" 
d="M1128 1434h211v-1434h-143v1290l-786 -1290h-211v1434h143v-1291zM477 1597v113h564v-113h-564z" />
    <glyph glyph-name="uni04E3" unicode="&#x4e3;" horiz-adv-x="1196" 
d="M862 1024h170v-1024h-133v875l-547 -875h-188v1024h133v-894zM317 1208v113h564v-113h-564z" />
    <glyph glyph-name="uni04E8" unicode="&#x4e8;" horiz-adv-x="1532" 
d="M1421 717q1 -166 -48.5 -305.5t-137 -234t-208.5 -146.5t-261 -51q-140 -1 -261 51t-208.5 146.5t-137 234t-48.5 305.5q-1 166 48.5 305.5t137 234t208.5 146.5t261 51q140 1 261 -51t208.5 -146.5t137 -234t48.5 -305.5zM256 780h1020q-14 246 -154 394.5t-346 146.5
h-20q-206 2 -346 -146.5t-154 -394.5zM1276 653h-1020q14 -246 154 -394t346 -146h20q206 -2 346 146t154 394z" />
    <glyph glyph-name="uni04E9" unicode="&#x4e9;" horiz-adv-x="1143" 
d="M1042 512q2 -151 -61 -274.5t-171.5 -191.5t-238.5 -66q-129 -2 -238 65.5t-172 191.5t-61 275q-2 151 61 275t172 191.5t238 65.5q130 2 238.5 -66t171.5 -191.5t61 -274.5zM239 578h665q-16 162 -105 258t-217 96h-21q-128 0 -217 -96t-105 -258zM906 475h-669
q9 -174 99.5 -278.5t224.5 -104.5h21q134 0 224.5 104.5t99.5 278.5z" />
    <glyph glyph-name="uni04EE" unicode="&#x4ee;" horiz-adv-x="1239" 
d="M1081 1434h152l-571 -1192q-41 -84 -81 -134q-85 -108 -268 -108h-114v131h94q91 0 148.5 33t90.5 108l52 116l-564 1046h160l479 -903zM348 1597v113h564v-113h-564z" />
    <glyph glyph-name="uni04EF" unicode="&#x4ef;" horiz-adv-x="1065" 
d="M1036 1024l-422 -991v-193q0 -93 -47 -135.5t-147 -42.5h-311v113h290q47 0 64.5 17.5t17.5 64.5v172l-434 995h146l352 -830l352 830h139zM262 1208v113h564v-113h-564z" />
    <glyph glyph-name="Wgrave" unicode="&#x1e80;" horiz-adv-x="1878" 
d="M1683 1434h144l-354 -1434h-218l-316 1287l-316 -1287h-217l-355 1434h146l322 -1323l317 1323h213l321 -1312zM878 1567l-170 256h185l108 -256h-123z" />
    <glyph glyph-name="wgrave" unicode="&#x1e81;" horiz-adv-x="1569" 
d="M1391 1024h131l-328 -1024h-178l-232 884l-231 -884h-176l-330 1024h137l285 -906l231 906h170l241 -920zM736 1167l-181 267h164l117 -267h-100z" />
    <glyph glyph-name="Wacute" unicode="&#x1e82;" horiz-adv-x="1878" 
d="M1683 1434h144l-354 -1434h-218l-316 1287l-316 -1287h-217l-355 1434h146l322 -1323l317 1323h213l321 -1312zM878 1567l109 256h184l-170 -256h-123z" />
    <glyph glyph-name="wacute" unicode="&#x1e83;" horiz-adv-x="1569" 
d="M1391 1024h131l-328 -1024h-178l-232 884l-231 -884h-176l-330 1024h137l285 -906l231 906h170l241 -920zM735 1167l117 267h164l-180 -267h-101z" />
    <glyph glyph-name="Wdieresis" unicode="&#x1e84;" horiz-adv-x="1878" 
d="M1683 1434h144l-354 -1434h-218l-316 1287l-316 -1287h-217l-355 1434h146l322 -1323l317 1323h213l321 -1312zM667 1597v164h164v-164h-164zM1048 1597v164h164v-164h-164z" />
    <glyph glyph-name="wdieresis" unicode="&#x1e85;" horiz-adv-x="1569" 
d="M1391 1024h131l-328 -1024h-178l-232 884l-231 -884h-176l-330 1024h137l285 -906l231 906h170l241 -920zM530 1208v164h154v-164h-154zM889 1208v164h153v-164h-153z" />
    <glyph glyph-name="uni1E9E" unicode="&#x1e9e;" horiz-adv-x="1317" 
d="M199 0v1434h534q108 1 196 -44.5t139.5 -132.5t49.5 -198q0 -99 -51 -183.5t-139 -132.5q129 -27 206.5 -122t77.5 -226q2 -175 -117.5 -286t-293.5 -109h-234v133h203q135 0 217 69t82 195q0 127 -81 194q-82 68 -216 68h-205v134h154q113 0 183.5 70t70.5 190
q0 118 -74 183q-73 64 -192 64h-367v-1300h-143z" />
    <glyph glyph-name="uni1EA0" unicode="&#x1ea0;" horiz-adv-x="1386" 
d="M1217 0l-160 395h-733l-160 -395h-148l588 1434h180l584 -1434h-151zM377 528h627l-313 774zM622 -338v154h134v-154h-134z" />
    <glyph glyph-name="uni1EA1" unicode="&#x1ea1;" horiz-adv-x="1067" 
d="M924 0h-123q-10 53 -10 164q-33 -75 -135 -129.5t-228 -54.5q-134 -2 -230.5 87.5t-93.5 215.5q0 153 104 224q104 73 249 83l323 24v41q0 131 -68 204t-188 73h-10q-103 0 -175 -51q-71 -51 -81 -144h-133q7 135 119 222t274 85q125 0 216 -53t135 -140t44 -196v-430
q0 -150 11 -225zM780 369v137l-297 -21q-112 -8 -178.5 -60t-66.5 -134q0 -84 59 -141.5t145 -57.5h21q69 -2 144 36.5t125 105t48 135.5zM426 -338v154h134v-154h-134z" />
    <glyph glyph-name="uni1EB8" unicode="&#x1eb8;" horiz-adv-x="1315" 
d="M199 0v1434h1001v-134h-858v-495h735v-133h-735v-539h879v-133h-1022zM643 -338v154h134v-154h-134z" />
    <glyph glyph-name="uni1EB9" unicode="&#x1eb9;" horiz-adv-x="1077" 
d="M102 514q-1 125 36 227.5t101 168t146.5 100.5t173.5 34q182 2 299 -130.5t115 -329.5v-82h-737q3 -202 92.5 -306t228.5 -104h12q211 0 269 201h133q-33 -150 -143 -232q-110 -81 -269 -81q-199 -2 -329 141.5t-128 392.5zM240 614h600q-5 139 -80 228.5t-193 89.5h-20
q-54 0 -103 -17.5t-92.5 -53.5t-73 -99.5t-38.5 -147.5zM493 -338v154h134v-154h-134z" />
    <glyph glyph-name="uni1ECA" unicode="&#x1eca;" horiz-adv-x="541" 
d="M199 0v1434h143v-1434h-143zM202 -338v154h134v-154h-134z" />
    <glyph glyph-name="uni1ECB" unicode="&#x1ecb;" horiz-adv-x="461" 
d="M154 1208v174h153v-174h-153zM164 0v1024h133v-1024h-133zM165 -338v154h134v-154h-134z" />
    <glyph glyph-name="uni1ECC" unicode="&#x1ecc;" horiz-adv-x="1532" 
d="M111 717q-1 166 48.5 305.5t137 234t208.5 146.5t261 51q140 1 261 -51t208.5 -146.5t137 -234t48.5 -305.5q1 -166 -48.5 -305.5t-137 -234t-208.5 -146.5t-261 -51q-140 -1 -261 51t-208.5 146.5t-137 234t-48.5 305.5zM756 113h20q220 -2 362 165t140 439
q2 272 -140 439t-362 165h-20q-220 2 -362 -165t-140 -439q-2 -272 140 -439t362 -165zM698 -338v154h134v-154h-134z" />
    <glyph glyph-name="uni1ECD" unicode="&#x1ecd;" horiz-adv-x="1143" 
d="M100 512q-2 151 61 275t172 191.5t238 65.5q130 2 238.5 -66t171.5 -191.5t61 -274.5q2 -151 -61 -274.5t-171.5 -191.5t-238.5 -66q-129 -2 -238 65.5t-172 191.5t-61 275zM561 92h21q140 -2 233.5 114.5t91.5 305.5q0 190 -92 305t-233 115h-21q-141 0 -233 -115
t-92 -305q-2 -189 91.5 -305.5t233.5 -114.5zM505 -338v154h134v-154h-134z" />
    <glyph glyph-name="uni1EE4" unicode="&#x1ee4;" horiz-adv-x="1413" 
d="M184 512v922h144v-902q0 -200 95 -309.5t273 -109.5h21q178 0 273 109.5t95 309.5v902h144v-922q0 -245 -136 -388.5t-386 -143.5q-256 0 -389.5 142.5t-133.5 389.5zM639 -338v154h134v-154h-134z" />
    <glyph glyph-name="uni1EE5" unicode="&#x1ee5;" horiz-adv-x="1147" 
d="M154 348v676h133v-635q0 -297 245 -297h21q56 -1 110 26.5t96 76t67 121t24 155.5v553h133v-1024h-133v193q-40 -102 -128 -157.5t-214 -55.5q-165 0 -259.5 101t-94.5 267zM497 -338v154h134v-154h-134z" />
    <glyph glyph-name="Ygrave" unicode="&#x1ef2;" horiz-adv-x="1217" 
d="M1044 1434h158l-522 -840v-594h-143v594l-523 840h162l434 -708zM548 1567l-170 256h185l108 -256h-123z" />
    <glyph glyph-name="ygrave" unicode="&#x1ef3;" horiz-adv-x="1065" 
d="M1036 1024l-422 -991v-193q0 -93 -47 -135.5t-147 -42.5h-311v113h290q47 0 64.5 17.5t17.5 64.5v172l-434 995h146l352 -830l352 830h139zM494 1167l-181 267h164l117 -267h-100z" />
    <glyph glyph-name="uni2002" unicode="&#x2002;" horiz-adv-x="1024" 
 />
    <glyph glyph-name="uni2003" unicode="&#x2003;" horiz-adv-x="2048" 
 />
    <glyph glyph-name="uni2009" unicode="&#x2009;" horiz-adv-x="256" 
 />
    <glyph glyph-name="uni200A" unicode="&#x200a;" horiz-adv-x="154" 
 />
    <glyph glyph-name="endash" unicode="&#x2013;" horiz-adv-x="1163" 
d="M141 563v113h881v-113h-881z" />
    <glyph glyph-name="emdash" unicode="&#x2014;" horiz-adv-x="1819" 
d="M141 563v113h1536v-113h-1536z" />
    <glyph glyph-name="uni2015" unicode="&#x2015;" horiz-adv-x="1819" 
d="M141 563v113h1536v-113h-1536z" />
    <glyph glyph-name="quoteleft" unicode="&#x2018;" horiz-adv-x="508" 
d="M409 1434v-82h-61q-123 0 -123 -123v-31h113v-205h-205v246q0 93 50.5 144t143.5 51h82z" />
    <glyph glyph-name="quoteright" unicode="&#x2019;" horiz-adv-x="510" 
d="M115 993v82h61q123 0 123 123v31h-113v205h205v-246q0 -93 -50.5 -144t-143.5 -51h-82z" />
    <glyph glyph-name="quotesinglbase" unicode="&#x201a;" horiz-adv-x="492" 
d="M72 -236v82h61q123 0 123 123v31h-113v205h205v-246q0 -93 -50.5 -144t-143.5 -51h-82z" />
    <glyph glyph-name="quotedblleft" unicode="&#x201c;" horiz-adv-x="928" 
d="M409 1434v-82h-61q-123 0 -123 -123v-31h113v-205h-205v246q0 93 51 144t144 51h81zM829 1434v-82h-61q-123 0 -123 -123v-31h113v-205h-205v246q0 93 50.5 144t143.5 51h82z" />
    <glyph glyph-name="quotedblright" unicode="&#x201d;" horiz-adv-x="930" 
d="M115 993v82h61q123 0 123 123v31h-113v205h205v-246q0 -93 -50.5 -144t-143.5 -51h-82zM535 993v82h61q123 0 123 123v31h-113v205h205v-246q0 -93 -51 -144t-144 -51h-81z" />
    <glyph glyph-name="quotedblbase" unicode="&#x201e;" horiz-adv-x="911" 
d="M72 -236v82h61q123 0 123 123v31h-113v205h205v-246q0 -93 -50.5 -144t-143.5 -51h-82zM492 -236v82h61q123 0 123 123v31h-113v205h205v-246q0 -93 -51 -144t-144 -51h-81z" />
    <glyph glyph-name="dagger" unicode="&#x2020;" horiz-adv-x="1012" 
d="M438 -174v1147h-375v112h375v523h133v-523h379v-112h-379v-1147h-133z" />
    <glyph glyph-name="daggerdbl" unicode="&#x2021;" horiz-adv-x="1096" 
d="M993 973h-379v-512h379v-113h-379v-522h-133v522h-379v113h379v512h-379v112h379v523h133v-523h379v-112z" />
    <glyph glyph-name="bullet" unicode="&#x2022;" horiz-adv-x="999" 
d="M152 717q-2 90 46.5 171.5t130 130t171.5 46.5q90 2 171.5 -46.5t130 -130t46.5 -171.5q2 -90 -46.5 -171.5t-130 -130t-171.5 -46.5q-138 -3 -244.5 103.5t-103.5 244.5z" />
    <glyph glyph-name="ellipsis" unicode="&#x2026;" horiz-adv-x="1536" 
d="M143 0v205h205v-205h-205zM665 0v205h205v-205h-205zM1187 0v205h205v-205h-205z" />
    <glyph glyph-name="perthousand" unicode="&#x2030;" horiz-adv-x="2392" 
d="M408 615q-153 0 -242.5 112.5t-89.5 300.5q0 189 89.5 302.5t242.5 113.5q152 0 241.5 -113.5t89.5 -302.5q0 -188 -89.5 -300.5t-241.5 -112.5zM1290 1434h133l-860 -1434h-133zM614 1028q0 129 -53.5 221.5t-148.5 92.5h-8q-96 0 -149.5 -92t-53.5 -222
q-1 -127 53.5 -220t149.5 -91h8q64 -1 111 44.5t69.5 115.5t21.5 151zM2320 403q0 -188 -89.5 -300.5t-241.5 -112.5q-181 0 -270 152q-89 -152 -269 -152q-153 0 -242.5 112.5t-89.5 300.5q0 189 89.5 302.5t242.5 113.5q182 0 269 -153q88 153 270 153q152 0 241.5 -113.5
t89.5 -302.5zM1656 403q0 129 -53.5 221.5t-148.5 92.5h-8q-96 0 -149.5 -92t-53.5 -222q-1 -127 53.5 -220t149.5 -91h8q64 -1 111 44.5t69.5 115.5t21.5 151zM2195 403q0 129 -53.5 221.5t-148.5 92.5h-8q-96 0 -149.5 -92t-53.5 -222q-1 -127 53.5 -220t149.5 -91h8
q64 -1 111 44.5t69.5 115.5t21.5 151z" />
    <glyph glyph-name="guilsinglleft" unicode="&#x2039;" horiz-adv-x="625" 
d="M238 587l299 -444h-156l-297 441l297 440h151z" />
    <glyph glyph-name="guilsinglright" unicode="&#x203a;" horiz-adv-x="625" 
d="M244 1024l297 -440l-297 -441h-156l299 444l-294 437h151z" />
    <glyph glyph-name="fraction" unicode="&#x2044;" horiz-adv-x="328" 
d="M-336 0l860 1434h133l-860 -1434h-133z" />
    <glyph glyph-name="uni2070" unicode="&#x2070;" horiz-adv-x="823" 
d="M80 1253q0 189 89.5 302.5t242.5 113.5q152 0 241.5 -113.5t89.5 -302.5q0 -188 -89.5 -300.5t-241.5 -112.5q-153 0 -242.5 112.5t-89.5 300.5zM408 942h8q64 -1 111 44.5t69.5 115.5t21.5 151q0 129 -53.5 221.5t-148.5 92.5h-8q-96 0 -149.5 -92t-53.5 -222
q-1 -127 53.5 -220t149.5 -91z" />
    <glyph glyph-name="uni2074" unicode="&#x2074;" horiz-adv-x="715" 
d="M426 850v197h-379v114l367 498h127v-510h110v-102h-110v-197h-115zM166 1149h260v360z" />
    <glyph glyph-name="uni2075" unicode="&#x2075;" horiz-adv-x="700" 
d="M57 1067h125q8 -61 51 -93t107 -32h8q65 0 107.5 46.5t42.5 117.5q0 69 -40.5 109t-107.5 40h-6q-46 0 -84 -19t-61 -50h-109l92 473h428v-103h-338l-53 -256q61 58 152 58q113 0 182.5 -70t69.5 -178q0 -121 -80 -195.5t-201 -74.5q-125 0 -200 59t-85 168z" />
    <glyph glyph-name="uni2076" unicode="&#x2076;" horiz-adv-x="758" 
d="M80 1231q0 197 94 317.5t236 120.5q125 0 198.5 -67.5t73.5 -157.5h-121q-11 55 -50.5 88t-96.5 33h-13q-81 0 -141 -78.5t-70 -208.5q25 51 85.5 83t134.5 32q105 2 183.5 -74t76.5 -191q0 -126 -79.5 -207t-213.5 -81q-138 0 -217.5 104t-79.5 287zM377 942h6
q70 0 118 50t48 124q0 76 -45.5 125t-116.5 49h-6q-71 0 -117.5 -49t-46.5 -125q0 -75 45 -124.5t115 -49.5z" />
    <glyph glyph-name="uni2077" unicode="&#x2077;" horiz-adv-x="616" 
d="M174 850v74q0 226 83 384q85 160 214 248h-434v103h545v-109q-283 -235 -283 -626v-74h-125z" />
    <glyph glyph-name="uni2078" unicode="&#x2078;" horiz-adv-x="737" 
d="M94 1057q0 64 36 113t101 77q-68 28 -108.5 80.5t-40.5 116.5q0 104 79.5 164.5t207.5 60.5t208 -60.5t80 -164.5q0 -65 -40.5 -117t-108.5 -80q129 -60 129 -190q0 -100 -78.5 -158.5t-193.5 -58.5t-193 58.5t-78 158.5zM360 1305h11q67 0 113 34q48 35 48 95
q0 61 -44 97t-113 36h-10q-69 0 -113.5 -36t-44.5 -97q0 -60 45 -95q46 -34 108 -34zM360 942h11q61 0 101 36t40 97q0 58 -42 94q-40 37 -99 37h-11q-59 0 -100 -37q-41 -36 -41 -94q0 -61 40 -97t101 -36z" />
    <glyph glyph-name="uni2079" unicode="&#x2079;" horiz-adv-x="760" 
d="M78 1065h121q11 -55 50.5 -88t96.5 -33h12q82 0 141.5 78t69.5 209q-24 -51 -84 -83t-135 -32q-107 0 -183.5 74t-76.5 190q0 126 79.5 207.5t213.5 81.5q138 0 217.5 -104t79.5 -287q0 -197 -94 -317.5t-236 -120.5q-125 0 -198.5 67t-73.5 158zM373 1219h6
q71 0 117.5 48.5t46.5 125.5q0 75 -45 124.5t-115 49.5h-6q-70 0 -118 -50t-48 -124q0 -77 45.5 -125.5t116.5 -48.5z" />
    <glyph glyph-name="Euro" unicode="&#x20ac;" horiz-adv-x="1370" 
d="M1116 420h139q-18 -208 -138.5 -324t-319.5 -116q-189 0 -321 114t-186 322l-202 -45v123l178 40q-10 76 -12 163l-166 -38v123l170 38q21 297 164 465.5t375 168.5q198 0 319 -116.5t139 -323.5h-139q-15 148 -95.5 227.5t-215.5 79.5h-21q-156 0 -258 -124.5
t-126 -343.5l423 95v-123l-430 -97v-11q0 -81 9 -153l335 75v-123l-312 -70q42 -160 135 -246.5t224 -86.5h21q135 0 215.5 79.5t95.5 227.5z" />
    <glyph glyph-name="uni20B4" unicode="&#x20b4;" horiz-adv-x="1305" 
d="M1077 972l152 13v-121l-1153 -98v121l860 73q22 51 22 119q0 116 -81.5 179t-210.5 63h-13q-68 1 -123.5 -21.5t-88.5 -57.5t-51.5 -74t-20.5 -76h-160q6 76 54 159q50 85 148 143q101 60 248 60q187 2 311 -101.5t122 -265.5q0 -64 -15 -115zM117 483v121l1057 92v-121
l-821 -71q-27 -56 -27 -125q0 -118 96 -192t246 -74h28q117 0 189 70.5t88 174.5h155q-7 -74 -39.5 -141.5t-87 -121.5t-138.5 -85t-185 -30q-212 -2 -350 109.5t-135 275.5q0 72 19 126z" />
    <glyph glyph-name="uni20BD" unicode="&#x20bd;" horiz-adv-x="1309" 
d="M801 653h-348v-151h485v-123h-485v-379h-144v379h-225v123h225v151h-227v131h227v650h492q97 0 178 -24t142.5 -71t95.5 -123t34 -174t-34 -173.5t-95.5 -122t-142.5 -70t-178 -23.5zM453 1300v-516h317q166 0 252 62t86 196q0 135 -85.5 196.5t-252.5 61.5h-317z" />
    <glyph glyph-name="uni2105" unicode="&#x2105;" horiz-adv-x="1446" 
d="M70 1206q0 144 73.5 227t194.5 83q96 0 167.5 -56t78.5 -147h-119q-6 50 -40.5 80t-82.5 30h-6q-75 0 -113 -62q-37 -61 -37 -155q0 -93 38 -147.5t112 -54.5h6q46 0 79 29t42 79h117q-10 -94 -79.5 -147.5t-166.5 -53.5q-124 0 -194 76.5t-70 218.5zM219 0l860 1434h133
l-860 -1434h-133zM840 281q0 137 73.5 220t194.5 83t194.5 -83t73.5 -220q0 -138 -73 -219.5t-195 -81.5t-195 81.5t-73 219.5zM1104 72h10q66 0 106 57.5t40 151.5q0 93 -41 152t-107 59h-8q-65 0 -106.5 -60t-41.5 -151t41.5 -150t106.5 -59z" />
    <glyph glyph-name="uni2113" unicode="&#x2113;" horiz-adv-x="856" 
d="M498 133h174v-133h-236q-194 0 -194 215v222l-154 -93v148l154 91v525q0 167 72.5 256.5t205.5 89.5q145 0 214 -102q69 -100 69 -258q0 -167 -79 -291q-79 -123 -202 -197l-141 -85v-271q0 -66 26 -91.5t91 -25.5zM381 1128v-463l63 37q110 65 165 164t55 215
q0 115 -38.5 177.5t-105.5 62.5q-62 0 -100.5 -51t-38.5 -142z" />
    <glyph glyph-name="uni2116" unicode="&#x2116;" horiz-adv-x="2126" 
d="M1481 1141q0 137 73.5 220t194.5 83t194.5 -83t73.5 -220q0 -138 -73 -219.5t-195 -81.5t-195 81.5t-73 219.5zM1174 218v1216h143v-1434h-174l-799 1234v-1234h-143v1434h184zM1597 1141q0 -91 41.5 -150t106.5 -59h10q66 0 106 57.5t40 151.5q0 93 -41 152t-107 59h-8
q-65 0 -106.5 -60t-41.5 -151zM1481 625v92h534v-92h-534z" />
    <glyph glyph-name="uni2117" unicode="&#x2117;" horiz-adv-x="1810" 
d="M106 717q0 215 107 400q108 185 292 291q184 108 400 108q217 0 400 -108q185 -106 291 -291q108 -184 108 -400t-108 -401q-106 -183 -291 -291q-184 -107 -400 -107q-215 0 -400 107q-184 108 -292 291q-107 185 -107 401zM1597 717q0 189 -93 348q-92 159 -252 254
q-158 94 -347 94t-347 -94q-160 -95 -252 -254q-93 -159 -93 -348t93 -349q92 -159 252 -254q158 -94 347 -94t347 94q160 95 252 254q93 160 93 349zM680 342v770h299q124 0 201 -59t77 -176q0 -118 -77 -175q-76 -57 -203 -57h-172v-303h-125zM805 748h156q86 0 129 29.5
t43 101.5q0 71 -43 101t-129 30h-156v-262z" />
    <glyph glyph-name="trademark" unicode="&#x2122;" horiz-adv-x="1925" 
d="M70 1331v103h665v-103h-270v-676h-125v676h-270zM1565 1434h194v-779h-125v644l-213 -644h-143l-223 639v-639h-125v779h196l224 -644z" />
    <glyph glyph-name="Omega" unicode="&#x2126;" horiz-adv-x="1569" 
d="M139 0v133h256q-129 71 -197.5 222.5t-68.5 361.5q-2 166 47.5 305.5t137 234t209 146.5t261.5 51q141 1 262.5 -51t209 -146.5t137 -234t47.5 -305.5q0 -210 -68.5 -361.5t-197.5 -222.5h256v-133h-482v123q169 44 260 197q92 155 92 397q2 282 -135 444t-370 160h-21
q-233 2 -370 -160.5t-136 -443.5q0 -242 92 -397q91 -153 261 -197v-123h-482z" />
    <glyph glyph-name="onethird" unicode="&#x2153;" horiz-adv-x="1778" 
d="M321 0l860 1434h133l-860 -1434h-133zM1125 223h125q3 -60 42 -95.5t101 -35.5h10q68 0 112 38.5t44 102.5q0 58 -38.5 92.5t-98.5 34.5h-90v97h94q59 0 93 33t34 92q0 65 -38.5 100t-105.5 35h-10q-60 0 -97 -33t-40 -90h-125q0 105 78.5 165t193.5 60t192 -60.5
t77 -164.5q0 -62 -30.5 -112t-82.5 -75q57 -22 88 -71t31 -115q2 -101 -85 -167t-200 -64q-114 0 -194 63.5t-80 169.5zM305 625v655l-240 -192v121l279 225h77v-809h-116z" />
    <glyph glyph-name="twothirds" unicode="&#x2154;" horiz-adv-x="1903" 
d="M485 0l860 1434h133l-860 -1434h-133zM105 625v139l258 225q75 67 97 91q56 57 56 129q0 57 -39 95q-38 38 -94 38h-10q-53 0 -96 -40t-43 -102h-125q0 107 80 175.5t192 68.5q115 0 187.5 -63.5t72.5 -171.5q0 -58 -22 -103q-20 -43 -53 -79q-36 -38 -86 -81l-252 -219
h422v-102h-545zM1254 223h125q3 -60 42 -95.5t101 -35.5h10q68 0 112 38.5t44 102.5q0 58 -38.5 92.5t-98.5 34.5h-90v97h94q59 0 93 33t34 92q0 65 -38.5 100t-105.5 35h-10q-60 0 -97 -33t-40 -90h-125q0 105 78.5 165t193.5 60t192 -60.5t77 -164.5q0 -62 -30.5 -112
t-82.5 -75q57 -22 88 -71t31 -115q2 -101 -85 -167t-200 -64q-114 0 -194 63.5t-80 169.5z" />
    <glyph glyph-name="uni2155" unicode="&#x2155;" horiz-adv-x="1763" 
d="M315 0l860 1434h133l-860 -1434h-133zM305 625v655l-240 -192v121l279 225h77v-809h-116zM1091 217h125q8 -61 51 -93t107 -32h8q65 0 107.5 46.5t42.5 117.5q0 69 -40.5 109t-107.5 40h-6q-46 0 -84 -19t-61 -50h-109l92 473h428v-103h-338l-53 -256q61 58 152 58
q113 0 182.5 -70t69.5 -178q0 -121 -80 -195.5t-201 -74.5q-125 0 -200 59t-85 168z" />
    <glyph glyph-name="uni2156" unicode="&#x2156;" horiz-adv-x="1905" 
d="M479 0l860 1434h133l-860 -1434h-133zM105 625v139l258 225q75 67 97 91q56 57 56 129q0 57 -39 95q-38 38 -94 38h-10q-53 0 -96 -40t-43 -102h-125q0 107 80 175.5t192 68.5q115 0 187.5 -63.5t72.5 -171.5q0 -58 -22 -103q-20 -43 -53 -79q-36 -38 -86 -81l-252 -219
h422v-102h-545zM1237 217h125q8 -61 51 -93t107 -32h8q65 0 107.5 46.5t42.5 117.5q0 69 -40.5 109t-107.5 40h-6q-46 0 -84 -19t-61 -50h-109l92 473h428v-103h-338l-53 -256q61 58 152 58q113 0 182.5 -70t69.5 -178q0 -121 -80 -195.5t-201 -74.5q-125 0 -200 59t-85 168
z" />
    <glyph glyph-name="uni2157" unicode="&#x2157;" horiz-adv-x="1909" 
d="M463 0l860 1434h133l-860 -1434h-133zM86 848h125q3 -60 42 -95.5t101 -35.5h10q68 0 112 38.5t44 102.5q0 58 -38.5 92.5t-98.5 34.5h-90v97h94q59 0 93 33t34 92q0 65 -38.5 100t-105.5 35h-10q-60 0 -97 -33t-40 -90h-125q0 105 78.5 165t193.5 60t192 -60.5
t77 -164.5q0 -62 -30.5 -112t-82.5 -75q57 -22 88 -71t31 -115q2 -101 -85 -167t-200 -64q-114 0 -194 63.5t-80 169.5zM1241 217h125q8 -61 51 -93t107 -32h8q65 0 107.5 46.5t42.5 117.5q0 69 -40.5 109t-107.5 40h-6q-46 0 -84 -19t-61 -50h-109l92 473h428v-103h-338
l-53 -256q61 58 152 58q113 0 182.5 -70t69.5 -178q0 -121 -80 -195.5t-201 -74.5q-125 0 -200 59t-85 168z" />
    <glyph glyph-name="uni2158" unicode="&#x2158;" horiz-adv-x="1919" 
d="M481 0l860 1434h133l-860 -1434h-133zM444 625v197h-379v114l367 498h127v-510h110v-102h-110v-197h-115zM184 924h260v360zM1245 217h125q8 -61 51 -93t107 -32h8q65 0 107.5 46.5t42.5 117.5q0 69 -40.5 109t-107.5 40h-6q-46 0 -84 -19t-61 -50h-109l92 473h428v-103
h-338l-53 -256q61 58 152 58q113 0 182.5 -70t69.5 -178q0 -121 -80 -195.5t-201 -74.5q-125 0 -200 59t-85 168z" />
    <glyph glyph-name="uni2159" unicode="&#x2159;" horiz-adv-x="1751" 
d="M313 0l860 1434h133l-860 -1434h-133zM305 625v655l-240 -192v121l279 225h77v-809h-116zM1061 381q0 197 94 317.5t236 120.5q125 0 198.5 -67.5t73.5 -157.5h-121q-11 55 -50.5 88t-96.5 33h-13q-81 0 -141 -78.5t-70 -208.5q25 51 85.5 83t134.5 32q105 2 183.5 -74
t76.5 -191q0 -126 -79.5 -207t-213.5 -81q-138 0 -217.5 104t-79.5 287zM1358 92h6q70 0 118 50t48 124q0 76 -45.5 125t-116.5 49h-6q-71 0 -117.5 -49t-46.5 -125q0 -75 45 -124.5t115 -49.5z" />
    <glyph glyph-name="uni215A" unicode="&#x215a;" horiz-adv-x="1933" 
d="M457 0l860 1434h133l-860 -1434h-133zM69 842h125q8 -61 51 -93t107 -32h8q65 0 107.5 46.5t42.5 117.5q0 69 -40.5 109t-107.5 40h-6q-46 0 -84 -19t-61 -50h-109l92 473h428v-103h-338l-53 -256q61 58 152 58q113 0 182.5 -70t69.5 -178q0 -121 -80 -195.5t-201 -74.5
q-125 0 -200 59t-85 168zM1247 381q0 197 94 317.5t236 120.5q125 0 198.5 -67.5t73.5 -157.5h-121q-11 55 -50.5 88t-96.5 33h-13q-81 0 -141 -78.5t-70 -208.5q25 51 85.5 83t134.5 32q105 2 183.5 -74t76.5 -191q0 -126 -79.5 -207t-213.5 -81q-138 0 -217.5 104
t-79.5 287zM1544 92h6q70 0 118 50t48 124q0 76 -45.5 125t-116.5 49h-6q-71 0 -117.5 -49t-46.5 -125q0 -75 45 -124.5t115 -49.5z" />
    <glyph glyph-name="oneeighth" unicode="&#x215b;" horiz-adv-x="1815" 
d="M317 0l860 1434h133l-860 -1434h-133zM1163 207q0 64 36 113t101 77q-68 28 -108.5 80.5t-40.5 116.5q0 104 79.5 164.5t207.5 60.5t208 -60.5t80 -164.5q0 -65 -40.5 -117t-108.5 -80q129 -60 129 -190q0 -100 -78.5 -158.5t-193.5 -58.5t-193 58.5t-78 158.5zM1429 455
h11q67 0 113 34q48 35 48 95q0 61 -44 97t-113 36h-10q-69 0 -113.5 -36t-44.5 -97q0 -60 45 -95q46 -34 108 -34zM1429 92h11q61 0 101 36t40 97q0 58 -42 94q-40 37 -99 37h-11q-59 0 -100 -37q-41 -36 -41 -94q0 -61 40 -97t101 -36zM305 625v655l-240 -192v121l279 225
h77v-809h-116z" />
    <glyph glyph-name="threeeighths" unicode="&#x215c;" horiz-adv-x="1937" 
d="M467 0l860 1434h133l-860 -1434h-133zM1292 207q0 64 36 113t101 77q-68 28 -108.5 80.5t-40.5 116.5q0 104 79.5 164.5t207.5 60.5t208 -60.5t80 -164.5q0 -65 -40.5 -117t-108.5 -80q129 -60 129 -190q0 -100 -78.5 -158.5t-193.5 -58.5t-193 58.5t-78 158.5zM1558 455
h11q67 0 113 34q48 35 48 95q0 61 -44 97t-113 36h-10q-69 0 -113.5 -36t-44.5 -97q0 -60 45 -95q46 -34 108 -34zM1558 92h11q61 0 101 36t40 97q0 58 -42 94q-40 37 -99 37h-11q-59 0 -100 -37q-41 -36 -41 -94q0 -61 40 -97t101 -36zM86 848h125q3 -60 42 -95.5
t101 -35.5h10q68 0 112 38.5t44 102.5q0 58 -38.5 92.5t-98.5 34.5h-90v97h94q59 0 93 33t34 92q0 65 -38.5 100t-105.5 35h-10q-60 0 -97 -33t-40 -90h-125q0 105 78.5 165t193.5 60t192 -60.5t77 -164.5q0 -62 -30.5 -112t-82.5 -75q57 -22 88 -71t31 -115
q2 -101 -85 -167t-200 -64q-114 0 -194 63.5t-80 169.5z" />
    <glyph glyph-name="fiveeighths" unicode="&#x215d;" horiz-adv-x="1933" 
d="M459 0l860 1434h133l-860 -1434h-133zM1286 207q0 64 36 113t101 77q-68 28 -108.5 80.5t-40.5 116.5q0 104 79.5 164.5t207.5 60.5t208 -60.5t80 -164.5q0 -65 -40.5 -117t-108.5 -80q129 -60 129 -190q0 -100 -78.5 -158.5t-193.5 -58.5t-193 58.5t-78 158.5zM1552 455
h11q67 0 113 34q48 35 48 95q0 61 -44 97t-113 36h-10q-69 0 -113.5 -36t-44.5 -97q0 -60 45 -95q46 -34 108 -34zM1552 92h11q61 0 101 36t40 97q0 58 -42 94q-40 37 -99 37h-11q-59 0 -100 -37q-41 -36 -41 -94q0 -61 40 -97t101 -36zM69 842h125q8 -61 51 -93t107 -32h8
q65 0 107.5 46.5t42.5 117.5q0 69 -40.5 109t-107.5 40h-6q-46 0 -84 -19t-61 -50h-109l92 473h428v-103h-338l-53 -256q61 58 152 58q113 0 182.5 -70t69.5 -178q0 -121 -80 -195.5t-201 -74.5q-125 0 -200 59t-85 168z" />
    <glyph glyph-name="seveneighths" unicode="&#x215e;" horiz-adv-x="1749" 
d="M266 0l860 1434h133l-860 -1434h-133zM1098 207q0 64 36 113t101 77q-68 28 -108.5 80.5t-40.5 116.5q0 104 79.5 164.5t207.5 60.5t208 -60.5t80 -164.5q0 -65 -40.5 -117t-108.5 -80q129 -60 129 -190q0 -100 -78.5 -158.5t-193.5 -58.5t-193 58.5t-78 158.5zM1364 455
h11q67 0 113 34q48 35 48 95q0 61 -44 97t-113 36h-10q-69 0 -113.5 -36t-44.5 -97q0 -60 45 -95q46 -34 108 -34zM1364 92h11q61 0 101 36t40 97q0 58 -42 94q-40 37 -99 37h-11q-59 0 -100 -37q-41 -36 -41 -94q0 -61 40 -97t101 -36zM203 625v74q0 226 83 384
q85 160 214 248h-434v103h545v-109q-283 -235 -283 -626v-74h-125z" />
    <glyph glyph-name="uni215F" unicode="&#x215f;" horiz-adv-x="1352" 
d="M354 0l860 1434h133l-860 -1434h-133zM283 625v655l-240 -192v121l279 225h77v-809h-116z" />
    <glyph glyph-name="uni2160" unicode="&#x2160;" horiz-adv-x="932" 
d="M92 0v113h307v1208h-307v113h748v-113h-308v-1208h308v-113h-748z" />
    <glyph glyph-name="uni2161" unicode="&#x2161;" horiz-adv-x="1516" 
d="M92 0v113h307v1208h-307v113h1331v-113h-307v-1208h307v-113h-1331zM532 113h451v1208h-451v-1208z" />
    <glyph glyph-name="uni2162" unicode="&#x2162;" horiz-adv-x="2099" 
d="M92 0v113h307v1208h-307v113h1915v-113h-307v-1208h307v-113h-1915zM532 113h451v1208h-451v-1208zM1116 113h451v1208h-451v-1208z" />
    <glyph glyph-name="uni2163" unicode="&#x2163;" horiz-adv-x="2150" 
d="M100 0v113h308v1208h-308v113h1114v-113h-245l385 -1104l403 1104h-246v113h574v-113h-195l-440 -1208h367v-113h-1717zM541 113h714l-419 1208h-295v-1208z" />
    <glyph glyph-name="uni2164" unicode="&#x2164;" horiz-adv-x="1581" 
d="M1516 1321h-196l-438 -1208h365v-113h-928v113h367l-419 1208h-195v113h573v-113h-245l384 -1106l403 1106h-245v113h574v-113z" />
    <glyph glyph-name="uni2165" unicode="&#x2165;" horiz-adv-x="2126" 
d="M313 0v113h367l-420 1208h-194v113h573v-113h-246l385 -1104l404 1104h-246v113h1094v-113h-308v-1208h308v-113h-1717zM874 113h715v1208h-274z" />
    <glyph glyph-name="uni2166" unicode="&#x2166;" horiz-adv-x="2712" 
d="M313 0v113h367l-420 1208h-194v113h573v-113h-246l385 -1104l404 1104h-246v113h1679v-113h-307v-1208h307v-113h-2302zM874 113h717v1208h-276zM1724 113h451v1208h-451v-1208z" />
    <glyph glyph-name="uni2167" unicode="&#x2167;" horiz-adv-x="3295" 
d="M313 0v113h367l-420 1208h-194v113h573v-113h-246l385 -1104l404 1104h-246v113h2263v-113h-307v-1208h307v-113h-2886zM874 113h717v1208h-276zM1724 113h451v1208h-451v-1208zM2308 113h451v1208h-451v-1208z" />
    <glyph glyph-name="uni2168" unicode="&#x2168;" horiz-adv-x="2040" 
d="M1767 113h189v-113h-1864v113h307v1208h-307v113h1843v-113h-180l-407 -596zM772 113l420 612l-408 596h-252v-1208h240zM1599 1321h-659l330 -481zM928 113h684l-342 499z" />
    <glyph glyph-name="uni2169" unicode="&#x2169;" horiz-adv-x="1540" 
d="M84 0v113h188l420 612l-407 596h-181v113h1332v-113h-181l-407 -596l420 -612h188v-113h-1372zM770 840l330 481h-660zM428 113h684l-342 499z" />
    <glyph glyph-name="uni216C" unicode="&#x216c;" horiz-adv-x="1389" 
d="M92 0v113h287v1208h-287v113h707v-113h-287v-1208h655v399h133v-512h-1208z" />
    <glyph glyph-name="uni216D" unicode="&#x216d;" horiz-adv-x="1479" 
d="M113 717q-2 209 78 377.5t231 265.5t346 94q144 0 255.5 -54.5t174.5 -154.5v189h133v-441h-133q-30 156 -148.5 253t-271.5 95h-20q-153 3 -272 -84.5t-180.5 -230t-59.5 -309.5q-1 -124 35 -238.5t101 -201t163 -137t213 -48.5h20q158 0 274.5 93.5t145.5 254.5h133
v-440h-133v178q-66 -96 -177 -147t-253 -51q-195 -3 -346 94t-231 265.5t-78 377.5z" />
    <glyph glyph-name="uni216E" unicode="&#x216e;" horiz-adv-x="1569" 
d="M92 0v113h287v1208h-287v113h709q193 2 342 -85.5t231 -251t80 -378.5q1 -166 -46 -302t-132 -228t-205.5 -141t-263.5 -48h-715zM512 113h244q270 0 417.5 153t147.5 449q0 290 -142 448t-403 158h-264v-1208z" />
    <glyph glyph-name="uni216F" unicode="&#x216f;" horiz-adv-x="2146" 
d="M92 0v113h287v1208h-287v113l512 2l471 -1278l471 1276h508v-113h-287v-1208h287v-113h-584v113h164v1198l-483 -1311h-156l-483 1311v-1198h164v-113h-584z" />
    <glyph glyph-name="arrowleft" unicode="&#x2190;" horiz-adv-x="1597" 
d="M1546 647h-1249l469 -469l-99 -98l-637 637l637 637l99 -99l-469 -469h1249v-139z" />
    <glyph glyph-name="arrowup" unicode="&#x2191;" horiz-adv-x="1520" 
d="M690 0v1249l-469 -469l-98 99l637 637l637 -637l-99 -99l-469 469v-1249h-139z" />
    <glyph glyph-name="arrowright" unicode="&#x2192;" horiz-adv-x="1597" 
d="M51 787h1249l-469 469l99 98l637 -637l-637 -637l-99 99l469 469h-1249v139z" />
    <glyph glyph-name="arrowdown" unicode="&#x2193;" horiz-adv-x="1520" 
d="M830 1434v-1249l469 469l98 -99l-637 -637l-637 637l99 99l469 -469v1249h139z" />
    <glyph glyph-name="uni2196" unicode="&#x2196;" horiz-adv-x="1356" 
d="M1152 312l-883 883v-663h-139v901h900v-140h-663l883 -883z" />
    <glyph glyph-name="uni2197" unicode="&#x2197;" horiz-adv-x="1358" 
d="M103 411l883 883h-663v139h901v-900h-140v663l-883 -883z" />
    <glyph glyph-name="uni2198" unicode="&#x2198;" horiz-adv-x="1356" 
d="M202 1120l883 -883v663h139v-901h-900v140h663l-883 883z" />
    <glyph glyph-name="uni2199" unicode="&#x2199;" horiz-adv-x="1358" 
d="M1251 1020l-883 -883h663v-139h-901v900h140v-663l883 883z" />
    <glyph glyph-name="uni21A4" unicode="&#x21a4;" horiz-adv-x="1690" 
d="M1423 1229h133v-1024h-133v442h-1116l469 -469l-98 -98l-637 637l637 637l98 -99l-469 -469h1116v443z" />
    <glyph glyph-name="uni21A5" unicode="&#x21a5;" horiz-adv-x="1520" 
d="M1296 780l-469 469v-1116h443v-133h-1024v133h442v1116l-469 -469l-98 98l637 637l637 -637z" />
    <glyph glyph-name="uni21A6" unicode="&#x21a6;" horiz-adv-x="1710" 
d="M1032 1354l637 -637l-637 -637l-98 99l469 469h-1116v-443h-133v1024h133v-442h1116l-469 469z" />
    <glyph glyph-name="uni21A7" unicode="&#x21a7;" horiz-adv-x="1520" 
d="M1297 653l98 -98l-637 -637l-637 637l99 98l469 -469v1116h-443v133h1024v-133h-442v-1116z" />
    <glyph glyph-name="uni21B0" unicode="&#x21b0;" horiz-adv-x="1690" 
d="M1536 786v-786h-139v647h-1110l469 -469l-99 -98l-637 637l637 637l99 -99l-469 -469h1249z" />
    <glyph glyph-name="uni21B1" unicode="&#x21b1;" horiz-adv-x="1690" 
d="M1032 1354l637 -637l-637 -637l-98 98l469 469h-1110v-647h-139v786h1249l-469 469z" />
    <glyph glyph-name="uni21B2" unicode="&#x21b2;" horiz-adv-x="1690" 
d="M1397 1434h139v-786h-1249l469 -469l-98 -99l-637 637l637 637l98 -98l-469 -469h1110v647z" />
    <glyph glyph-name="uni21B3" unicode="&#x21b3;" horiz-adv-x="1690" 
d="M1033 1354l637 -637l-637 -637l-99 99l469 469h-1249v786h139v-647h1110l-469 469z" />
    <glyph glyph-name="partialdiff" unicode="&#x2202;" horiz-adv-x="1167" 
d="M102 494q-2 218 124.5 360t322.5 139q108 0 194.5 -37t139.5 -106l-6 47q-16 105 -59.5 187.5t-105 133t-134.5 77t-152 26.5q-104 0 -190 -31v133q83 31 206 31q144 1 259 -61.5t188 -175.5t111.5 -265.5t37.5 -333.5q0 -317 -126 -477.5t-345 -160.5q-215 0 -340 139.5
t-125 374.5zM563 113h10q141 0 233.5 99.5t92.5 279.5q0 182 -89.5 280t-236.5 98h-20q-143 0 -227 -95t-84 -281q0 -183 88 -282t233 -99z" />
    <glyph glyph-name="Delta" unicode="&#x2206;" horiz-adv-x="1397" 
d="M774 1434l553 -1291v-143h-1257v143l553 1291h151zM698 1268l-487 -1135h973z" />
    <glyph glyph-name="product" unicode="&#x220f;" horiz-adv-x="1393" 
d="M279 0v1300h-213v134h1259v-134h-211v-1300h-139v1300h-557v-1300h-139z" />
    <glyph glyph-name="summation" unicode="&#x2211;" horiz-adv-x="1073" 
d="M969 1434v-134h-697l420 -583l-421 -584h698v-133h-871v135l419 581l-419 589v129h871z" />
    <glyph glyph-name="minus" unicode="&#x2212;" horiz-adv-x="1311" 
d="M150 461v133h1011v-133h-1011z" />
    <glyph glyph-name="uni2215" unicode="&#x2215;" horiz-adv-x="733" 
d="M17 0l553 1434h143l-553 -1434h-143z" />
    <glyph glyph-name="uni2219" unicode="&#x2219;" horiz-adv-x="889" 
d="M97 717q-2 90 46.5 171.5t130 130t171.5 46.5q90 2 171.5 -46.5t130 -130t46.5 -171.5q2 -90 -46.5 -171.5t-130 -130t-171.5 -46.5q-138 -3 -244.5 103.5t-103.5 244.5z" />
    <glyph glyph-name="radical" unicode="&#x221a;" horiz-adv-x="1374" 
d="M1305 1434v-127h-413l-317 -1307h-161l-359 1024h140l295 -863l296 1273h519z" />
    <glyph glyph-name="infinity" unicode="&#x221e;" horiz-adv-x="1739" 
d="M117 737q-2 171 102 281t256 108q96 0 164 -35q70 -36 115 -88q52 -58 116 -151q76 107 116 152q108 122 278 122q152 2 256 -108.5t102 -280.5q2 -170 -102 -280.5t-256 -108.5q-96 0 -164 33q-67 33 -115 85q-48 54 -115 148q-67 -97 -115 -147q-107 -119 -280 -119
q-152 -2 -256 108.5t-102 280.5zM475 481h10q64 0 114 31q49 29 92.5 81t101.5 144q-54 85 -98 140q-95 116 -210 116h-10q-103 0 -161 -67t-58 -189t58 -189t161 -67zM1253 481h11q103 0 161 67t58 189t-58 189t-161 67h-11q-63 0 -115 -31q-49 -29 -92.5 -81.5
t-99.5 -143.5q57 -91 97 -140q95 -116 210 -116z" />
    <glyph glyph-name="integral" unicode="&#x222b;" horiz-adv-x="801" 
d="M31 -205v133h71q126 0 177 56t51 190v870q0 390 356 390h82v-134h-72q-126 0 -176.5 -56t-50.5 -189v-871q0 -389 -356 -389h-82z" />
    <glyph glyph-name="approxequal" unicode="&#x2248;" horiz-adv-x="1264" 
d="M589 667q-139 68 -175 68q-129 0 -129 -145h-133v51q0 103 67 169.5t178 66.5q47 0 110 -23t169 -75q139 -68 176 -68q69 0 99 34t30 101h133v-51q0 -105 -64 -165.5t-182 -60.5q-47 0 -110 23t-169 75zM589 278q-139 68 -175 68q-129 0 -129 -145h-133v51q0 103 67 169
t178 66q47 0 110 -23t169 -75q80 -38 116.5 -52.5t59.5 -14.5q69 0 99 34t30 101h133v-51q0 -106 -64 -166t-182 -60q-47 0 -110 23t-169 75z" />
    <glyph glyph-name="notequal" unicode="&#x2260;" horiz-adv-x="1315" 
d="M1163 645h-395l-73 -237h468v-134h-510l-75 -243h-146l75 243h-355v134h397l73 237h-470v133h511l76 246h146l-76 -246h354v-133z" />
    <glyph glyph-name="lessequal" unicode="&#x2264;" horiz-adv-x="1296" 
d="M1149 1044v-147l-862 -240l862 -239v-152l-1012 312v155zM137 51v133h1012v-133h-1012z" />
    <glyph glyph-name="greaterequal" unicode="&#x2265;" horiz-adv-x="1296" 
d="M147 1044l1012 -311v-155l-1012 -312v148l863 240l-863 239v151zM147 51v133h1012v-133h-1012z" />
    <glyph glyph-name="angleleft" unicode="&#x2329;" horiz-adv-x="748" 
d="M528 -174l-467 891l467 891h146l-467 -889l467 -893h-146z" />
    <glyph glyph-name="angleright" unicode="&#x232a;" horiz-adv-x="748" 
d="M220 1608l467 -891l-467 -891h-146l467 889l-467 893h146z" />
    <glyph glyph-name="uni2460" unicode="&#x2460;" horiz-adv-x="1802" 
d="M102 717q0 215 107 400q108 185 292 291q185 108 400 108t400 -108q185 -106 291 -291q108 -184 108 -400t-108 -401q-106 -183 -291 -291q-185 -107 -400 -107t-400 107q-184 108 -292 291q-107 185 -107 401zM1593 717q0 189 -93 348q-92 159 -252 254q-158 94 -347 94
t-347 -94q-160 -95 -252 -254q-93 -159 -93 -348t93 -349q92 -159 252 -254q158 -94 347 -94t347 94q160 95 252 254q93 160 93 349zM873 318v655l-240 -192v121l279 225h77v-809h-116z" />
    <glyph glyph-name="uni2461" unicode="&#x2461;" horiz-adv-x="1802" 
d="M102 717q0 215 107 400q108 185 292 291q185 108 400 108t400 -108q185 -106 291 -291q108 -184 108 -400t-108 -401q-106 -183 -291 -291q-185 -107 -400 -107t-400 107q-184 108 -292 291q-107 185 -107 401zM1593 717q0 189 -93 348q-92 159 -252 254q-158 94 -347 94
t-347 -94q-160 -95 -252 -254q-93 -159 -93 -348t93 -349q92 -159 252 -254q158 -94 347 -94t347 94q160 95 252 254q93 160 93 349zM619 318v139l258 225q75 67 97 91q56 57 56 129q0 58 -39 95q-38 38 -94 38h-10q-53 0 -96 -40t-43 -102h-125q0 107 80 175.5t192 68.5
q115 0 187.5 -63.5t72.5 -171.5q0 -58 -22 -103q-20 -43 -53 -79q-36 -38 -86 -81l-252 -219h422v-102h-545z" />
    <glyph glyph-name="uni2462" unicode="&#x2462;" horiz-adv-x="1802" 
d="M102 717q0 215 107 400q108 185 292 291q185 108 400 108t400 -108q185 -106 291 -291q108 -184 108 -400t-108 -401q-106 -183 -291 -291q-185 -107 -400 -107t-400 107q-184 108 -292 291q-107 185 -107 401zM1593 717q0 189 -93 348q-92 159 -252 254q-158 94 -347 94
t-347 -94q-160 -95 -252 -254q-93 -159 -93 -348t93 -349q92 -159 252 -254q158 -94 347 -94t347 94q160 95 252 254q93 160 93 349zM617 541h125q3 -60 42 -95.5t101 -35.5h10q68 0 112 38.5t44 102.5q0 58 -38.5 92.5t-98.5 34.5h-90v97h94q59 0 93 33t34 92
q0 65 -38.5 100t-105.5 35h-10q-60 0 -97 -33t-40 -90h-125q0 105 78.5 165t193.5 60t192 -60.5t77 -164.5q0 -62 -30.5 -112t-82.5 -75q57 -22 88 -71t31 -115q2 -101 -85 -167t-200 -64q-114 0 -194 63.5t-80 169.5z" />
    <glyph glyph-name="uni2463" unicode="&#x2463;" horiz-adv-x="1802" 
d="M102 717q0 215 107 400q108 185 292 291q185 108 400 108t400 -108q185 -106 291 -291q108 -184 108 -400t-108 -401q-106 -183 -291 -291q-185 -107 -400 -107t-400 107q-184 108 -292 291q-107 185 -107 401zM1593 717q0 189 -93 348q-92 159 -252 254q-158 94 -347 94
t-347 -94q-160 -95 -252 -254q-93 -159 -93 -348t93 -349q92 -159 252 -254q158 -94 347 -94t347 94q160 95 252 254q93 160 93 349zM928 318v197h-379v114l367 498h127v-510h110v-102h-110v-197h-115zM668 617h260v360z" />
    <glyph glyph-name="uni2464" unicode="&#x2464;" horiz-adv-x="1802" 
d="M102 717q0 215 107 400q108 185 292 291q185 108 400 108t400 -108q185 -106 291 -291q108 -184 108 -400t-108 -401q-106 -183 -291 -291q-185 -107 -400 -107t-400 107q-184 108 -292 291q-107 185 -107 401zM1593 717q0 189 -93 348q-92 159 -252 254q-158 94 -347 94
t-347 -94q-160 -95 -252 -254q-93 -159 -93 -348t93 -349q92 -159 252 -254q158 -94 347 -94t347 94q160 95 252 254q93 160 93 349zM592 535h125q8 -61 51 -93t107 -32h8q65 0 107.5 46.5t42.5 117.5q0 69 -40.5 109t-107.5 40h-6q-45 0 -83.5 -19t-61.5 -50h-109l92 473
h428v-103h-338l-53 -256q61 58 152 58q113 0 182.5 -70t69.5 -178q0 -121 -80 -195.5t-201 -74.5q-125 0 -200 59t-85 168z" />
    <glyph glyph-name="uni2465" unicode="&#x2465;" horiz-adv-x="1802" 
d="M102 717q0 215 107 400q108 185 292 291q185 108 400 108t400 -108q185 -106 291 -291q108 -184 108 -400t-108 -401q-106 -183 -291 -291q-185 -107 -400 -107t-400 107q-184 108 -292 291q-107 185 -107 401zM1593 717q0 189 -93 348q-92 159 -252 254q-158 94 -347 94
t-347 -94q-160 -95 -252 -254q-93 -159 -93 -348t93 -349q92 -159 252 -254q158 -94 347 -94t347 94q160 95 252 254q93 160 93 349zM580 699q0 197 94 317.5t236 120.5q125 0 198.5 -67.5t73.5 -157.5h-121q-11 55 -50.5 88t-96.5 33h-13q-81 0 -141 -78.5t-70 -208.5
q25 51 85.5 83t134.5 32q105 2 183.5 -74t76.5 -191q0 -126 -79.5 -207t-213.5 -81q-138 0 -217.5 104t-79.5 287zM877 410h6q70 0 118 50t48 124q0 76 -45.5 125t-116.5 49h-6q-71 0 -117.5 -49t-46.5 -125q0 -75 45 -124.5t115 -49.5z" />
    <glyph glyph-name="uni2466" unicode="&#x2466;" horiz-adv-x="1802" 
d="M102 717q0 215 107 400q108 185 292 291q185 108 400 108t400 -108q185 -106 291 -291q108 -184 108 -400t-108 -401q-106 -183 -291 -291q-185 -107 -400 -107t-400 107q-184 108 -292 291q-107 185 -107 401zM1593 717q0 189 -93 348q-92 159 -252 254q-158 94 -347 94
t-347 -94q-160 -95 -252 -254q-93 -159 -93 -348t93 -349q92 -159 252 -254q158 -94 347 -94t347 94q160 95 252 254q93 160 93 349zM774 318v74q0 226 83 384q85 160 214 248h-434v103h545v-109q-283 -235 -283 -626v-74h-125z" />
    <glyph glyph-name="uni2467" unicode="&#x2467;" horiz-adv-x="1802" 
d="M102 717q0 215 107 400q108 185 292 291q185 108 400 108t400 -108q185 -106 291 -291q108 -184 108 -400t-108 -401q-106 -183 -291 -291q-185 -107 -400 -107t-400 107q-184 108 -292 291q-107 185 -107 401zM1593 717q0 189 -93 348q-92 159 -252 254q-158 94 -347 94
t-347 -94q-160 -95 -252 -254q-93 -159 -93 -348t93 -349q92 -159 252 -254q158 -94 347 -94t347 94q160 95 252 254q93 160 93 349zM624 525q0 64 36 113t101 77q-68 28 -108.5 80.5t-40.5 116.5q0 104 79.5 164.5t207.5 60.5t208 -60.5t80 -164.5q0 -65 -40.5 -117
t-108.5 -80q129 -60 129 -190q0 -100 -78.5 -158.5t-193.5 -58.5t-193 58.5t-78 158.5zM890 773h11q67 0 113 34q48 35 48 95q0 61 -44 97t-113 36h-10q-69 0 -113.5 -36t-44.5 -97q0 -60 45 -95q46 -34 108 -34zM890 410h11q61 0 101 36t40 97q0 58 -42 94q-40 37 -99 37
h-11q-59 0 -100 -37q-41 -36 -41 -94q0 -61 40 -97t101 -36z" />
    <glyph glyph-name="uni2468" unicode="&#x2468;" horiz-adv-x="1802" 
d="M102 717q0 215 107 400q108 185 292 291q185 108 400 108t400 -108q185 -106 291 -291q108 -184 108 -400t-108 -401q-106 -183 -291 -291q-185 -107 -400 -107t-400 107q-184 108 -292 291q-107 185 -107 401zM1593 717q0 189 -93 348q-92 159 -252 254q-158 94 -347 94
t-347 -94q-160 -95 -252 -254q-93 -159 -93 -348t93 -349q92 -159 252 -254q158 -94 347 -94t347 94q160 95 252 254q93 160 93 349zM610 533h121q11 -55 50.5 -88t96.5 -33h12q82 0 141.5 78t69.5 209q-24 -51 -84 -83t-135 -32q-107 0 -183.5 74t-76.5 190
q0 126 79.5 207.5t213.5 81.5q138 0 217.5 -104t79.5 -287q0 -197 -94 -317.5t-236 -120.5q-125 0 -198.5 67t-73.5 158zM905 687h6q71 0 117.5 48.5t46.5 125.5q0 75 -45 124.5t-115 49.5h-6q-70 0 -118 -50t-48 -124q0 -77 45.5 -125.5t116.5 -48.5z" />
    <glyph glyph-name="uni24EA" unicode="&#x24ea;" horiz-adv-x="1802" 
d="M102 717q0 215 107 400q108 185 292 291q185 108 400 108t400 -108q185 -106 291 -291q108 -184 108 -400t-108 -401q-106 -183 -291 -291q-185 -107 -400 -107t-400 107q-184 108 -292 291q-107 185 -107 401zM1593 717q0 189 -93 348q-92 159 -252 254q-158 94 -347 94
t-347 -94q-160 -95 -252 -254q-93 -159 -93 -348t93 -349q92 -159 252 -254q158 -94 347 -94t347 94q160 95 252 254q93 160 93 349zM569 719q0 189 89.5 302.5t242.5 113.5q152 0 241.5 -113.5t89.5 -302.5q0 -188 -89.5 -300.5t-241.5 -112.5q-153 0 -242.5 112.5
t-89.5 300.5zM897 408h8q64 -1 111 44.5t69.5 115.5t21.5 151q0 129 -53.5 221.5t-148.5 92.5h-8q-96 0 -149.5 -92t-53.5 -222q-1 -127 53.5 -220t149.5 -91z" />
    <glyph glyph-name="uni24FF" unicode="&#x24ff;" horiz-adv-x="1802" 
d="M102 717q0 216 108 399q108 184 292 292t399 108t400 -108q185 -106 291 -291q108 -184 108 -400q0 -215 -108 -399t-292 -292q-183 -108 -399 -108q-215 0 -399 108t-292 292t-108 399zM1233 719q0 189 -89.5 302.5t-242.5 113.5t-242.5 -113.5t-89.5 -302.5
t89.5 -301.5t242.5 -112.5t242.5 112.5t89.5 301.5zM694 719q-1 127 54 221t149 92h8q94 2 149 -92t54 -221q1 -82 -21.5 -152t-70 -115t-111.5 -44h-8q-64 -1 -111.5 44t-70 115t-21.5 152z" />
    <glyph glyph-name="triagup" unicode="&#x25b2;" horiz-adv-x="1720" 
d="M31 0l829 1475l830 -1475h-1659z" />
    <glyph glyph-name="lozenge" unicode="&#x25ca;" horiz-adv-x="1260" 
d="M563 0l-491 717l491 717h144l481 -717l-481 -717h-144zM635 139l399 578l-399 588l-399 -588z" />
    <glyph glyph-name="uni2776" unicode="&#x2776;" horiz-adv-x="1802" 
d="M102 717q0 216 108 399q108 184 292 292t399 108t400 -108q185 -106 291 -291q108 -184 108 -400q0 -215 -108 -399t-292 -292q-183 -108 -399 -108q-215 0 -399 108t-292 292t-108 399zM872 317h117v809h-78l-278 -225v-121l239 193v-656z" />
    <glyph glyph-name="uni2777" unicode="&#x2777;" horiz-adv-x="1802" 
d="M102 717q0 216 108 399q108 184 292 292t399 108t400 -108q185 -106 291 -291q108 -184 108 -400q0 -215 -108 -399t-292 -292q-183 -108 -399 -108q-215 0 -399 108t-292 292t-108 399zM618 317h545v103h-422l252 219q51 45 87 82q75 80 75 180q0 108 -73 172t-187 64
q-112 0 -192 -68.5t-80 -175.5h125q0 63 43 102t96 39h10q58 0 95.5 -37t37.5 -96q0 -42 -13 -69q-14 -30 -43 -60q-23 -24 -97 -90l-259 -225v-140z" />
    <glyph glyph-name="uni2778" unicode="&#x2778;" horiz-adv-x="1802" 
d="M102 717q0 216 108 399q108 184 292 292t399 108t400 -108q185 -106 291 -291q108 -184 108 -400q0 -215 -108 -399t-292 -292q-183 -108 -399 -108q-215 0 -399 108t-292 292t-108 399zM1176 539q0 65 -31 114t-88 72q52 25 82 74.5t30 111.5q0 104 -77 165t-191 61
q-116 0 -194 -60.5t-78 -165.5h125q3 57 40 90t97 33h10q67 0 105 -35t38 -100q0 -59 -34 -92t-92 -33h-95v-96h90q60 0 99 -34.5t39 -92.5q0 -64 -44 -102.5t-112 -38.5h-10q-62 0 -101.5 35.5t-42.5 95.5h-125q0 -106 80.5 -170t194.5 -64q114 -1 200.5 64.5t84.5 167.5z
" />
    <glyph glyph-name="uni2779" unicode="&#x2779;" horiz-adv-x="1802" 
d="M102 717q0 216 108 399q108 184 292 292t399 108t400 -108q185 -106 291 -291q108 -184 108 -400q0 -215 -108 -399t-292 -292q-183 -108 -399 -108q-215 0 -399 108t-292 292t-108 399zM928 317h114v197h111v102h-111v510h-127l-366 -497v-115h379v-197zM668 616
l260 361v-361h-260z" />
    </font>
</defs>
</svg>
