<?xml version="1.0" standalone="no"?>
<!DOCTYPE svg PUBLIC "-//W3C//DTD SVG 1.1//EN" "http://www.w3.org/Graphics/SVG/1.1/DTD/svg11.dtd" >
<svg xmlns="http://www.w3.org/2000/svg" xmlns:xlink="http://www.w3.org/1999/xlink" version="1.1">
<metadata>
Created by FontForge 20170731 at Wed Feb  6 07:22:40 2019
 By Aleksey,,,
Copyright 2019 Dinamo (Johannes Breyer, Fabian Harb). All rights reserved. |DCNT
</metadata>
<defs>
<font id="FavoritPro-MediumItalic" horiz-adv-x="1229" >
  <font-face 
    font-family="Favorit Pro Medium"
    font-weight="500"
    font-style="italic"
    font-stretch="normal"
    units-per-em="2048"
    panose-1="2 0 0 6 3 0 0 2 0 4"
    ascent="1438"
    descent="-610"
    x-height="1024"
    cap-height="1434"
    bbox="-1526 -613 4567.03 2081"
    underline-thickness="50"
    underline-position="-150"
    slope="-12"
    unicode-range="U+000D-FB02"
  />
<missing-glyph horiz-adv-x="1346" 
d="M161 0v1434h1024v-1434h-1024zM350 189h646v1056h-646v-1056z" />
    <glyph glyph-name="fi" unicode="fi" horiz-adv-x="1305" 
d="M1251 1024l-217 -1024h-236l176 829h-439l-175 -829h-236l176 829h-209l42 195h208l48 226q40 184 218 184h357l-43 -200h-231q-36 0 -56 -17t-29 -58l-29 -135h675zM1089 1434h256l-54 -255h-256z" />
    <glyph glyph-name="fl" unicode="fl" horiz-adv-x="1305" 
d="M1339 1434l-305 -1434h-236l263 1234h-371q-36 0 -56 -17t-29 -58l-29 -135h218l-42 -195h-217l-175 -829h-236l176 829h-209l42 195h208l48 226q40 184 218 184h732z" />
    <glyph glyph-name="f_f" unicode="ff" horiz-adv-x="1426" 
d="M125 0l175 829h-209l42 195h208l48 226q40 184 218 184h357l-43 -200h-231q-36 0 -56 -17t-29 -58l-28 -135h437l49 226q37 184 217 184h357l-43 -200h-230q-37 0 -57 -17t-29 -58l-28 -135h217l-42 -195h-216l-176 -829h-235l176 829h-438l-176 -829h-235z" />
    <glyph glyph-name="f_f_i" unicode="ffi" horiz-adv-x="1978" 
d="M125 0l175 829h-209l42 195h208l48 226q40 184 218 184h357l-43 -200h-231q-36 0 -56 -17t-29 -58l-28 -135h437l49 226q37 184 217 184h357l-43 -200h-230q-37 0 -57 -17t-29 -58l-28 -135h674l-217 -1024h-235l176 829h-439l-176 -829h-235l176 829h-438l-176 -829
h-235zM1708 1179l54 255h256l-54 -255h-256z" />
    <glyph glyph-name="f_f_l" unicode="ffl" horiz-adv-x="1978" 
d="M125 0l175 829h-209l42 195h208l48 226q40 184 218 184h357l-43 -200h-231q-36 0 -56 -17t-29 -58l-28 -135h437l49 226q37 184 217 184h732l-305 -1434h-235l262 1234h-370q-37 0 -57 -17t-29 -58l-28 -135h217l-42 -195h-216l-176 -829h-235l176 829h-438l-176 -829
h-235z" />
    <glyph glyph-name=".notdef" horiz-adv-x="1346" 
d="M161 0v1434h1024v-1434h-1024zM350 189h646v1056h-646v-1056z" />
    <glyph glyph-name=".null" horiz-adv-x="0" 
 />
    <glyph glyph-name="nonmarkingreturn" horiz-adv-x="682" 
 />
    <glyph glyph-name="CR" unicode="&#xd;" horiz-adv-x="494" 
 />
    <glyph glyph-name="space" unicode=" " horiz-adv-x="494" 
 />
    <glyph glyph-name="exclam" unicode="!" horiz-adv-x="563" 
d="M170 372l63 582l101 480h244l-103 -489l-182 -573h-123zM23 0l57 263h273l-57 -263h-273z" />
    <glyph glyph-name="quotedbl" unicode="&#x22;" horiz-adv-x="779" 
d="M243 963l-2 276l41 195h216l-41 -195l-122 -276h-92zM589 963l-1 276l41 195h215l-40 -195l-122 -276h-93z" />
    <glyph glyph-name="numbersign" unicode="#" horiz-adv-x="1420" 
d="M1372 884h-461l-71 -334h445v-209h-490l-73 -341h-278l72 341h-419v209h463l71 334h-446v209h490l72 341h282l-73 -341h416v-209z" />
    <glyph glyph-name="dollar" unicode="$" horiz-adv-x="1283" 
d="M949 1185l-144 -384l5 -2q168 -65 249.5 -157t81.5 -227q3 -190 -146 -314t-379 -121q-68 0 -117 7l-88 -233h-210l106 283q-130 57 -199.5 160.5t-69.5 236.5q0 22 3 39h242q-1 -5 -1 -22q0 -137 104 -204l148 391l-22 8q-295 103 -295 374q-2 120 67 220.5t192.5 158
t274.5 55.5q36 0 88 -5l86 230h210l-106 -282q123 -59 188 -161q66 -104 66 -221v-23h-242q-2 128 -92 193zM621 872l141 372q-6 1 -27 1q-119 0 -197.5 -58t-78.5 -145q0 -58 37 -98t111 -67zM719 572l-144 -381q40 -2 46 -2q120 0 197.5 56.5t77.5 143.5q0 58 -42 102.5
t-135 80.5z" />
    <glyph glyph-name="percent" unicode="%" horiz-adv-x="2020" 
d="M352 0l1147 1434h221l-1147 -1434h-221zM1172 351q-3 204 119.5 337.5t296.5 130.5q153 0 238 -98t85 -264q2 -135 -54 -243.5t-151.5 -167t-208.5 -56.5q-153 0 -239 97.5t-86 263.5zM1718 448q0 87 -36 147q-34 60 -108 60q-96 0 -152 -81t-56 -215q0 -88 35 -147
q36 -58 109 -58q95 0 151.5 81t56.5 213zM161 976q-3 204 119.5 337.5t296.5 130.5q153 0 238 -98t85 -264q2 -135 -54 -243.5t-151.5 -167t-208.5 -56.5q-153 0 -239 97.5t-86 263.5zM707 1073q0 87 -36 147q-35 60 -108 60q-96 0 -152 -81t-56 -215q0 -88 35 -147
q36 -58 109 -58q95 0 151.5 81t56.5 213z" />
    <glyph glyph-name="ampersand" unicode="&#x26;" horiz-adv-x="1329" 
d="M49 347q-2 143 96.5 256.5t246.5 143.5q-80 40 -136 120q-55 79 -55 186q-3 158 124.5 270.5t309.5 110.5h312l-40 -198h-235q-101 0 -167 -62.5t-66 -159.5q0 -76 56 -131.5t138 -55.5h232l51 248h238l-51 -248h226l-41 -198h-227l-134 -629h-468q-187 0 -298.5 94.5
t-111.5 252.5zM507 197h223l93 432h-281q-109 0 -182 -68.5t-73 -173.5q0 -89 59 -139.5t161 -50.5z" />
    <glyph glyph-name="quotesingle" unicode="'" horiz-adv-x="432" 
d="M243 963l-2 276l41 195h216l-41 -195l-122 -276h-92z" />
    <glyph glyph-name="parenleft" unicode="(" horiz-adv-x="843" 
d="M103 544q0 306 129 574t344 435q216 168 459 178l-42 -201q-190 -46 -339 -191q-148 -144 -231 -353q-82 -207 -82 -444q0 -230 80 -402.5t221 -239.5l-42 -197q-142 31 -256 148q-113 117 -177 298q-64 180 -64 395z" />
    <glyph glyph-name="parenright" unicode=")" horiz-adv-x="843" 
d="M791 890q0 -306 -129 -574t-344 -435q-216 -168 -459 -178l42 201q188 46 338 191q148 144 231 353q83 210 83 444q0 230 -80 402.5t-221 239.5l42 197q143 -32 255 -148q113 -116 178 -298q64 -180 64 -395z" />
    <glyph glyph-name="asterisk" unicode="*" horiz-adv-x="908" 
d="M462 845l-144 80l113 191h-213v160h213l-113 191l144 80l114 -191l112 191l143 -80l-112 -191h213v-160h-213l112 -191l-143 -80l-112 191z" />
    <glyph glyph-name="plus" unicode="+" horiz-adv-x="1185" 
d="M457 31v392h-384v209h384v392h242v-392h384v-209h-384v-392h-242z" />
    <glyph glyph-name="comma" unicode="," horiz-adv-x="546" 
d="M-109 -298l31 144h58q68 0 112 34t56 95l6 25h-135l59 275h280l-67 -312q-27 -123 -113 -192t-212 -69h-75z" />
    <glyph glyph-name="hyphen" unicode="-" horiz-adv-x="839" 
d="M114 521l41 197h576l-41 -197h-576z" />
    <glyph glyph-name="period" unicode="." horiz-adv-x="535" 
d="M15 0l59 275h275l-59 -275h-275z" />
    <glyph glyph-name="slash" unicode="/" horiz-adv-x="827" 
d="M-55 0l737 1434h248l-737 -1434h-248z" />
    <glyph glyph-name="zero" unicode="0" horiz-adv-x="1391" 
d="M125 581q0 208 78 409q78 202 230 333t363 131q244 2 383.5 -162.5t137.5 -436.5q0 -209 -78 -411t-230 -333t-362 -131q-245 -2 -384.5 162.5t-137.5 438.5zM642 190h21q112 0 206 88q97 90 151 239q56 153 56 333q0 175 -70.5 285t-206.5 110h-21q-112 0 -206 -88
q-94 -89 -150 -240q-56 -153 -56 -331q0 -176 70.5 -286t205.5 -110z" />
    <glyph glyph-name="one" unicode="1" horiz-adv-x="803" 
d="M621 1434h177l-305 -1434h-232l227 1073l-379 -301l64 316z" />
    <glyph glyph-name="two" unicode="2" horiz-adv-x="1217" 
d="M794 498l-400 -284h661l-40 -214h-1000l49 236l574 421q149 107 212 187.5t65 185.5q0 96 -61 155.5t-158 59.5h-20q-102 0 -174.5 -72.5t-75.5 -178.5h-241q-1 129 69 236.5t188.5 166.5t256.5 57q199 2 329.5 -115t127.5 -299q0 -113 -40 -202q-41 -92 -118 -170
q-73 -76 -204 -170z" />
    <glyph glyph-name="three" unicode="3" horiz-adv-x="1208" 
d="M39 386h242q0 -84 70 -140.5t177 -56.5h21q113 0 186 67.5t73 165.5q0 88 -66 141t-177 53h-81l45 206h133q104 -2 184.5 65.5t78.5 167.5q0 89 -59 139q-58 51 -153 51h-20q-92 0 -157.5 -55.5t-78.5 -146.5h-242q7 80 47.5 155t105.5 132.5t157.5 91.5t196.5 33
q199 2 322.5 -104.5t121.5 -273.5q0 -141 -89 -239.5t-225 -133.5q86 -39 141 -120q57 -79 57 -185q1 -85 -36 -162t-103.5 -134.5t-164 -90.5t-210.5 -32q-217 -2 -358.5 111t-138.5 295z" />
    <glyph glyph-name="four" unicode="4" horiz-adv-x="1280" 
d="M1193 515l-44 -209h-217l-65 -306h-233l65 306h-700l46 216l842 912h285l-195 -919h216zM316 515h427l128 603z" />
    <glyph glyph-name="five" unicode="5" horiz-adv-x="1202" 
d="M52 391h242q6 -92 74.5 -147t164.5 -55h21q121 0 200 75t79 186q0 100 -67.5 169t-162.5 69h-21q-155 0 -260 -115h-244l365 861h773l-43 -214h-585l-181 -409q106 86 252 86q176 2 297.5 -120.5t118.5 -308.5q2 -103 -38.5 -194.5t-111 -156t-168 -101.5t-206.5 -36
q-213 -2 -354 109.5t-145 301.5z" />
    <glyph glyph-name="six" unicode="6" horiz-adv-x="1300" 
d="M1157 495q0 -137 -66 -256t-186 -189q-118 -70 -272 -70q-107 -1 -200.5 39t-163 114t-109 187.5t-38.5 250.5q0 221 86 425q85 202 247 331q160 127 375 127q194 2 326 -102t147 -278h-238q-12 75 -80 123t-162 48h-20q-102 2 -193.5 -63t-151 -171.5t-79.5 -231.5
q54 77 143 120t194 43q89 1 170.5 -32.5t141.5 -92t95 -143t34 -179.5zM919 479q2 105 -72 180.5t-175 73.5h-20q-120 2 -204.5 -82t-82.5 -198q-2 -106 77 -186.5t184 -77.5h20q110 -2 192.5 84.5t80.5 205.5z" />
    <glyph glyph-name="seven" unicode="7" horiz-adv-x="1128" 
d="M224 1434h1019l-41 -196q-229 -101 -377 -251.5t-236 -380t-118 -559.5l-4 -47h-242l8 90q38 406 195 695q159 289 419 435h-668z" />
    <glyph glyph-name="eight" unicode="8" horiz-adv-x="1193" 
d="M92 351q0 134 91 240.5t240 132.5q-101 45 -158 128t-57 192q-2 110 67 205.5t187 151t254 53.5q192 2 327.5 -107t132.5 -274q0 -146 -96 -255t-251 -149q83 -43 130 -121t47 -175q2 -104 -62.5 -195.5t-178 -145.5t-245.5 -52q-185 -2 -308 103.5t-120 267.5zM664 806
h18q107 0 180 65.5t73 174.5q0 91 -62 145t-158 54h-19q-108 0 -177.5 -64.5t-69.5 -172.5q0 -86 64 -144t151 -58zM529 189h19q91 0 153.5 63t62.5 158q0 80 -55.5 135.5t-136.5 55.5h-18q-94 0 -157.5 -64t-63.5 -160q0 -81 56 -134.5t140 -53.5z" />
    <glyph glyph-name="nine" unicode="9" horiz-adv-x="1299" 
d="M1227 863q0 -221 -86 -426q-85 -203 -246 -330q-160 -127 -375 -127q-195 -2 -327.5 102.5t-145.5 277.5h238q10 -75 78.5 -123t161.5 -48h20q102 -2 194 63t151.5 171t79.5 230q-55 -77 -143 -119t-193 -42q-89 -1 -171 32.5t-142 92t-95.5 143t-33.5 179.5
q0 137 66 255t186 189q121 71 273 71q106 1 199.5 -39t163 -114t109 -187.5t38.5 -250.5zM985 980q2 106 -77.5 186.5t-183.5 78.5h-21q-110 3 -192.5 -84.5t-80.5 -205.5q-2 -105 72 -180.5t175 -73.5h20q120 -2 205 82t83 197z" />
    <glyph glyph-name="colon" unicode=":" horiz-adv-x="537" 
d="M4 0l59 275h275l-59 -275h-275zM162 749l59 275h275l-59 -275h-275z" />
    <glyph glyph-name="semicolon" unicode=";" horiz-adv-x="588" 
d="M-94 -298l31 144h58q68 0 112 34t56 95l6 25h-135l59 275h280l-67 -312q-27 -123 -113 -192t-212 -69h-75zM197 749l59 275h275l-59 -275h-275z" />
    <glyph glyph-name="less" unicode="&#x3c;" horiz-adv-x="1120" 
d="M943 985v-235l-560 -218l560 -214v-249l-870 352v211z" />
    <glyph glyph-name="equal" unicode="=" horiz-adv-x="1392" 
d="M174 619v209h1011v-209h-1011zM174 227v209h1011v-209h-1011z" />
    <glyph glyph-name="greater" unicode="&#x3e;" horiz-adv-x="1119" 
d="M145 982l870 -352v-211l-870 -353v235l560 218l-560 214v249z" />
    <glyph glyph-name="question" unicode="?" horiz-adv-x="985" 
d="M209 399l63 289q20 93 80 131.5t171 38.5h30q104 0 160.5 55.5t56.5 141.5q0 84 -56.5 124.5t-171.5 40.5h-335l45 214h335q193 0 307 -97.5t114 -265.5q2 -111 -59.5 -207.5t-160 -150.5t-203.5 -52q-48 0 -70.5 -15t-30.5 -54l-43 -193h-232zM104 0l57 263h274
l-57 -263h-274z" />
    <glyph glyph-name="at" unicode="@" horiz-adv-x="1922" 
d="M123 629q0 261 125 458t329 302q203 106 434 106t421 -102q191 -100 303 -277q112 -175 112 -387q1 -123 -33 -226t-92.5 -170t-134 -103.5t-157.5 -34.5h-247v121q-36 -65 -103 -103.5t-152 -38.5q-155 -3 -263.5 125t-106.5 313q-2 184 106 309.5t264 122.5
q85 0 150 -37.5t101 -103.5v121h209v-658h29q86 0 146 93t60 270q2 163 -74.5 293.5t-217.5 204t-320 71.5q-182 0 -334 -83q-150 -82 -241 -236q-89 -152 -89 -350q-2 -208 86 -364.5t244.5 -238t358.5 -79.5h514v-203h-530q-194 -2 -358 56t-285 167.5t-188.5 279.5
t-65.5 382zM973 356h10q84 0 137 75.5t53 180.5q0 104 -51 177.5t-135 73.5h-10q-83 0 -134.5 -70t-51.5 -181q0 -114 50 -185t132 -71z" />
    <glyph glyph-name="A" unicode="A" horiz-adv-x="1422" 
d="M1046 0l-60 351h-644l-210 -351h-252l866 1434h290l248 -1434h-238zM473 571h475l-106 617z" />
    <glyph glyph-name="B" unicode="B" horiz-adv-x="1388" 
d="M50 0l305 1434h584q182 0 297 -91t115 -253q0 -145 -87 -247.5t-229 -129.5q101 -33 156.5 -111t55.5 -188q2 -115 -59.5 -211.5t-168.5 -150.5t-233 -52h-736zM472 836h396q96 -2 168 60t70 154q0 164 -221 164h-332zM341 219h414q106 0 176 61.5t70 170.5
q0 79 -52.5 124.5t-148.5 45.5h-374z" />
    <glyph glyph-name="C" unicode="C" horiz-adv-x="1475" 
d="M118 614q0 239 94 428q95 192 269 302q175 110 403 110q152 1 276.5 -57.5t198 -170t76.5 -255.5h-248q-4 120 -92 192t-219 72h-21q-138 3 -251.5 -79.5t-176 -221t-60.5 -298.5q0 -197 106 -317t288 -120h20q128 0 228 69.5t129 193.5h248q-39 -231 -207 -356.5
t-426 -125.5q-183 -2 -329 79t-227 226.5t-79 328.5z" />
    <glyph glyph-name="D" unicode="D" horiz-adv-x="1479" 
d="M50 0l305 1434h403q244 0 389 -90q147 -88 207 -225q61 -135 61 -289q0 -214 -85 -403q-84 -191 -249 -309q-163 -118 -392 -118h-639zM346 219h332q158 0 268 85q111 84 167 224q56 139 56 294q0 185 -106 288q-106 104 -303 104h-207z" />
    <glyph glyph-name="E" unicode="E" horiz-adv-x="1346" 
d="M50 0l305 1434h1068l-47 -220h-822l-80 -369h701l-46 -220h-701l-86 -406h842l-46 -219h-1088z" />
    <glyph glyph-name="F" unicode="F" horiz-adv-x="1260" 
d="M1335 1214h-781l-87 -408h679l-46 -219h-679l-125 -587h-246l305 1434h1027z" />
    <glyph glyph-name="G" unicode="G" horiz-adv-x="1564" 
d="M116 613q0 232 98 425q97 190 277 304q179 112 415 112q248 3 413 -141t166 -362h-246q-9 128 -106 205t-235 79h-21q-149 0 -268 -83q-118 -83 -182 -219q-65 -138 -65 -295q0 -200 100 -318t266 -121h21q162 0 291 85t188 236h-437l45 219h468q67 0 109.5 -37.5
t42.5 -99.5q0 -28 -7 -71l-110 -531h-209l38 183q-68 -89 -187 -146t-253 -57q-130 -2 -244.5 45t-196 130t-127.5 202t-44 256z" />
    <glyph glyph-name="H" unicode="H" horiz-adv-x="1514" 
d="M50 0l305 1434h246l-130 -607h669l129 607h246l-305 -1434h-246l130 607h-669l-129 -607h-246z" />
    <glyph glyph-name="I" unicode="I" horiz-adv-x="600" 
d="M50 0l305 1434h246l-305 -1434h-246z" />
    <glyph glyph-name="J" unicode="J" horiz-adv-x="860" 
d="M-59 0l50 236h223q83 0 127 36t62 117l223 1045h246l-228 -1065q-42 -196 -146.5 -282.5t-302.5 -86.5h-254z" />
    <glyph glyph-name="K" unicode="K" horiz-adv-x="1470" 
d="M1573 1434l-739 -615l556 -819h-295l-448 663l-255 -212l-95 -451h-245l301 1434h245l-137 -652l778 652h334z" />
    <glyph glyph-name="L" unicode="L" horiz-adv-x="1281" 
d="M50 0l305 1434h246l-258 -1215h833l-46 -219h-1080z" />
    <glyph glyph-name="M" unicode="M" horiz-adv-x="1920" 
d="M1534 1434h387l-305 -1434h-246l249 1169l-623 -1169h-313l-136 1181l-251 -1181h-246l305 1434h385l141 -1205z" />
    <glyph glyph-name="N" unicode="N" horiz-adv-x="1535" 
d="M1290 1434h246l-305 -1434h-328l-368 1129l-239 -1129h-246l305 1434h328l363 -1148z" />
    <glyph glyph-name="O" unicode="O" horiz-adv-x="1580" 
d="M116 611q0 237 94 428q95 193 266 303q172 112 400 112q183 2 329.5 -79.5t227.5 -228t79 -328.5q0 -236 -95 -428t-268 -301t-402 -109q-182 -2 -327.5 79.5t-225.5 226.5t-78 325zM755 199h26q139 -3 251.5 78.5t173 218t58.5 296.5q2 198 -111 321.5t-285 121.5h-26
q-136 3 -246.5 -76.5t-172 -217.5t-59.5 -303q-2 -196 108.5 -318.5t282.5 -120.5z" />
    <glyph glyph-name="P" unicode="P" horiz-adv-x="1319" 
d="M51 0l303 1434h547q196 0 316.5 -110.5t120.5 -293.5q1 -99 -35.5 -189.5t-100.5 -156t-155 -104t-193 -36.5h-442l-116 -544h-245zM460 764h383q109 0 178 72t69 181q0 96 -62.5 146.5t-180.5 50.5h-293z" />
    <glyph glyph-name="Q" unicode="Q" horiz-adv-x="1580" 
d="M845 -14l-18 -87q-7 -27 -7 -45q0 -25 17.5 -36t59.5 -11h288l-44 -208h-365q-91 0 -146.5 51t-55.5 135q0 25 7 60l31 147q-223 38 -360.5 209.5t-135.5 409.5q0 237 94 428q95 193 266 303q172 112 400 112q183 2 329.5 -79.5t227.5 -228t79 -328.5q2 -216 -80 -398.5
t-236 -298t-351 -135.5zM755 199h26q139 -3 251.5 78.5t173 218t58.5 296.5q2 198 -111 321.5t-285 121.5h-26q-136 3 -246.5 -76.5t-172 -217.5t-59.5 -303q-2 -196 108.5 -318.5t282.5 -120.5z" />
    <glyph glyph-name="R" unicode="R" horiz-adv-x="1402" 
d="M50 0l305 1434h556q195 0 307 -98.5t112 -260.5q0 -136 -75 -242t-205 -140q95 -4 145.5 -46t50.5 -116q0 -30 -11 -88l-96 -443h-246l90 425q5 30 5 44q0 47 -30 67t-97 20h-444l-119 -556h-248zM462 773h354q115 0 192 69.5t77 183.5q0 92 -62 140t-176 48h-291z" />
    <glyph glyph-name="S" unicode="S" horiz-adv-x="1284" 
d="M38 429q0 24 2 44h243v-26q0 -123 87 -186q88 -62 232 -62h21q121 0 198 52.5t77 136.5q0 66 -51 111.5t-173 88.5l-165 62q-153 57 -224.5 145t-71.5 225q-2 120 67.5 220.5t194 158t273.5 55.5q121 1 223.5 -35t169 -98t103 -141t35.5 -165v-23h-246q-2 117 -80 179
q-77 64 -209 64h-20q-112 0 -188.5 -55t-76.5 -138q0 -57 35 -95t108 -66l220 -87q169 -66 245.5 -158t76.5 -227q3 -188 -146 -309.5t-385 -119.5q-270 -2 -423.5 125.5t-151.5 323.5z" />
    <glyph glyph-name="T" unicode="T" horiz-adv-x="1314" 
d="M407 0l258 1214h-502l46 220h1250l-46 -220h-503l-258 -1214h-245z" />
    <glyph glyph-name="U" unicode="U" horiz-adv-x="1439" 
d="M138 411q0 81 18 166l183 857h246l-185 -865q-17 -80 -17 -135q0 -116 67 -175t193 -60h21q137 0 224.5 75.5t120.5 225.5l199 934h246l-211 -990q-48 -224 -203 -344t-406 -120q-227 -2 -362.5 119t-133.5 312z" />
    <glyph glyph-name="V" unicode="V" horiz-adv-x="1429" 
d="M1328 1434h266l-846 -1434h-319l-241 1434h246l196 -1212z" />
    <glyph glyph-name="W" unicode="W" horiz-adv-x="1941" 
d="M1808 1434h258l-619 -1434h-323l-44 1146l-493 -1146h-324l-48 1434h250l13 -1169l510 1169h302l38 -1161z" />
    <glyph glyph-name="X" unicode="X" horiz-adv-x="1326" 
d="M1472 1434l-636 -704l361 -730h-276l-263 533l-482 -533h-298l674 747l-340 687h276l242 -490l442 490h300z" />
    <glyph glyph-name="Y" unicode="Y" horiz-adv-x="1312" 
d="M1485 1434l-709 -848l-125 -586h-246l126 592l-350 842h267l247 -606l492 606h298z" />
    <glyph glyph-name="Z" unicode="Z" horiz-adv-x="1308" 
d="M1386 1434l-50 -246l-1042 -969h847l-46 -219h-1139l50 244l1044 970h-812l46 220h1102z" />
    <glyph glyph-name="bracketleft" unicode="[" horiz-adv-x="700" 
d="M-22 -297l434 2028h467l-42 -198h-236l-348 -1632h236l-41 -198h-470z" />
    <glyph glyph-name="backslash" unicode="\" horiz-adv-x="1393" 
d="M968 0l-737 1434h248l737 -1434h-248z" />
    <glyph glyph-name="bracketright" unicode="]" horiz-adv-x="700" 
d="M772 1731l-434 -2028h-467l42 198h236l348 1632h-236l41 198h470z" />
    <glyph glyph-name="asciicircum" unicode="^" horiz-adv-x="1125" 
d="M1060 584h-246l-234 582l-235 -582h-239l358 850h238z" />
    <glyph glyph-name="underscore" unicode="_" horiz-adv-x="1068" 
d="M-107 -197l41 197h945l-41 -197h-945z" />
    <glyph glyph-name="grave" unicode="`" horiz-adv-x="487" 
d="M415 1140l-157 294h260l41 -294h-144z" />
    <glyph glyph-name="a" unicode="a" horiz-adv-x="1232" 
d="M63 434q0 176 73 315q74 140 193 217q119 78 250 78q115 0 203 -53t126 -134l36 167h235l-218 -1024h-235l26 119q-40 -59 -119 -100q-78 -39 -168 -39q-174 -2 -289 125.5t-113 328.5zM510 173h18q90 -2 162.5 59t110.5 158.5t37 206.5q0 113 -59 183.5t-157 70.5h-18
q-118 3 -213 -117t-92 -293q0 -119 57.5 -193.5t153.5 -74.5z" />
    <glyph glyph-name="b" unicode="b" horiz-adv-x="1235" 
d="M288 161l-35 -161h-236l305 1434h236l-109 -515q51 58 126 91.5t156 33.5q173 2 288 -124.5t113 -325.5q2 -176 -64 -318t-183.5 -220t-262.5 -76q-120 0 -210 56t-124 125zM581 173h18q77 -1 145.5 51.5t111 148.5t40.5 209q0 121 -56 195t-154 74h-18q-88 2 -160 -56
t-111.5 -155t-38.5 -209q0 -116 62 -187t161 -71z" />
    <glyph glyph-name="c" unicode="c" horiz-adv-x="1124" 
d="M65 438q-2 133 43 248.5t121 193.5t176.5 122t208.5 42q195 0 313 -101t123 -269h-236q0 86 -51.5 131.5t-139.5 45.5h-18q-126 2 -216.5 -116t-88.5 -283q0 -128 64.5 -203.5t169.5 -75.5h18q81 0 140 48t81 129h235q-34 -174 -160 -272t-312 -98q-210 -2 -341.5 121
t-129.5 337z" />
    <glyph glyph-name="d" unicode="d" horiz-adv-x="1238" 
d="M63 435q0 173 74 313q75 140 195 218q122 78 251 78q114 0 203 -50t128 -131l121 571h238l-308 -1434h-235l24 115q-31 -53 -114 -94t-168 -41q-179 -2 -294.5 123.5t-114.5 331.5zM520 174h18q88 -2 159 58.5t108.5 158.5t36.5 208q0 112 -61 181.5t-160 69.5h-19
q-76 1 -146.5 -53.5t-113.5 -149t-41 -200.5q0 -120 60 -196t159 -77z" />
    <glyph glyph-name="e" unicode="e" horiz-adv-x="1140" 
d="M66 468q0 166 73 296q74 132 200 206q127 74 277 74q189 2 306 -113.5t115 -296.5q0 -102 -23 -183h-724v-22q0 -117 65.5 -186.5t172.5 -69.5h18q79 0 139 38.5t83 103.5h235q-45 -161 -167 -248t-310 -87q-204 -2 -333 133.5t-127 354.5zM313 634h498q2 16 2 34
q0 84 -56 133.5t-150 49.5h-18q-98 0 -172 -58.5t-104 -158.5z" />
    <glyph glyph-name="f" unicode="f" horiz-adv-x="753" 
d="M605 1159l-29 -135h218l-42 -195h-217l-175 -829h-236l176 829h-209l42 195h208l48 226q40 184 218 184h357l-43 -200h-231q-36 0 -56 -17t-29 -58z" />
    <glyph glyph-name="g" unicode="g" horiz-adv-x="1225" 
d="M-45 -121h243q12 -63 66.5 -98.5t138.5 -35.5h21q230 0 291 267l23 103q-115 -115 -267 -115q-177 -2 -292 114.5t-113 324.5q-2 126 39 240t110.5 194.5t163.5 126.5t196 44q115 0 203.5 -52.5t119.5 -128.5l33 161h241l-224 -1051q-42 -197 -188.5 -308t-361.5 -111
q-119 0 -214 34.5t-157 109t-72 181.5zM510 193h18q86 -2 156.5 55t108 147.5t36.5 189.5q0 119 -58 192.5t-158 73.5h-18q-119 3 -207.5 -118t-86.5 -284q0 -115 58 -185.5t151 -70.5z" />
    <glyph glyph-name="h" unicode="h" horiz-adv-x="1172" 
d="M1060 757q0 -49 -11 -113l-137 -644h-236l134 625q9 52 9 83q0 68 -35.5 105.5t-105.5 37.5h-18q-98 0 -179.5 -79.5t-110.5 -219.5l-117 -552h-236l305 1434h235l-114 -539q125 149 309 149q138 0 223 -81t85 -206z" />
    <glyph glyph-name="i" unicode="i" horiz-adv-x="524" 
d="M255 1179l54 255h256l-54 -255h-256zM17 0l217 1024h236l-217 -1024h-236z" />
    <glyph glyph-name="j" unicode="j" horiz-adv-x="542" 
d="M-342 -396l44 203h220q70 0 86 76l244 1141h235l-260 -1228q-41 -192 -226 -192h-343zM272 1179l54 255h256l-54 -255h-256z" />
    <glyph glyph-name="k" unicode="k" horiz-adv-x="1175" 
d="M17 0l305 1434h236l-177 -826l520 416h317l-530 -422l394 -602h-275l-298 460l-191 -152l-65 -308h-236z" />
    <glyph glyph-name="l" unicode="l" horiz-adv-x="524" 
d="M17 0l305 1434h236l-305 -1434h-236z" />
    <glyph glyph-name="m" unicode="m" horiz-adv-x="1807" 
d="M17 0l217 1024h235l-30 -139q52 74 130.5 116.5t171.5 42.5q99 0 175 -52q76 -50 106 -137q56 83 153 136q98 53 204 53q134 2 225 -84t89 -213q0 -57 -12 -117l-134 -630h-235l134 627q10 47 10 82q0 65 -38 103.5t-103 38.5h-18q-91 0 -170.5 -79t-103.5 -193
l-122 -579h-236l133 625q9 63 9 75q0 69 -37 110t-104 41h-18q-93 0 -171.5 -83t-106.5 -216l-117 -552h-236z" />
    <glyph glyph-name="n" unicode="n" horiz-adv-x="1172" 
d="M1060 757q0 -49 -11 -113l-137 -644h-236l134 625q9 52 9 83q0 68 -35.5 105.5t-105.5 37.5h-18q-98 0 -179.5 -79.5t-110.5 -219.5l-117 -552h-236l217 1024h236l-27 -129q125 149 309 149q138 0 223 -81t85 -206z" />
    <glyph glyph-name="o" unicode="o" horiz-adv-x="1188" 
d="M65 446q-2 132 42.5 245.5t120.5 191t178 120.5t214 41q219 2 344 -128.5t123 -337.5q2 -132 -42.5 -245.5t-120.5 -191t-178 -120.5t-214 -41q-219 -2 -344 128.5t-123 337.5zM539 173h18q116 -2 207 109.5t88 279.5q0 130 -63 210q-63 79 -177 79h-18q-116 2 -206 -109
t-88 -280q0 -131 63.5 -210t175.5 -79z" />
    <glyph glyph-name="p" unicode="p" horiz-adv-x="1237" 
d="M-71 -410l305 1434h236l-25 -111q49 61 123 96t158 35q176 2 293.5 -126.5t115.5 -332.5q0 -165 -65 -306q-65 -139 -179 -219q-116 -80 -260 -80q-114 0 -207 48q-92 50 -138 129l-121 -567h-236zM591 174h19q72 -2 139.5 52.5t109 149.5t39.5 200q0 123 -59.5 198.5
t-161.5 75.5h-18q-85 2 -156 -55.5t-110.5 -154.5t-38.5 -209q0 -113 67 -185t170 -72z" />
    <glyph glyph-name="q" unicode="q" horiz-adv-x="1231" 
d="M636 -410l112 526q-41 -60 -118 -98q-78 -38 -166 -38q-175 -2 -289.5 123t-112.5 327q0 178 74 318q73 141 193 218q120 78 249 78q114 0 202 -53t126 -134l37 167h235l-306 -1434h-236zM516 174h18q85 -2 156.5 59t109.5 159.5t37 206.5q0 112 -61.5 181.5t-162.5 69.5
h-20q-74 2 -143 -53.5t-111 -150.5t-40 -201q0 -123 58.5 -197t158.5 -74z" />
    <glyph glyph-name="r" unicode="r" horiz-adv-x="782" 
d="M766 1034h65l-47 -224h-78q-137 0 -227.5 -81.5t-122.5 -233.5l-104 -495h-234l215 1024h233l-43 -202q60 110 143 161t200 51z" />
    <glyph glyph-name="s" unicode="s" horiz-adv-x="1000" 
d="M1 329h239q5 -75 57 -115q53 -41 128 -41h19q71 0 115.5 33t44.5 86q0 68 -92 101l-126 49q-130 49 -191 116.5t-61 167.5q-3 133 115 226.5t290 91.5q116 1 209.5 -39.5t148.5 -120t53 -183.5h-237q-1 67 -52.5 108.5t-122.5 41.5h-18q-68 0 -109.5 -30.5t-41.5 -82.5
q0 -66 94 -101l137 -54q109 -42 176 -106q67 -63 67 -178q2 -138 -116.5 -229.5t-291.5 -89.5q-203 0 -315.5 93.5t-118.5 255.5z" />
    <glyph glyph-name="t" unicode="t" horiz-adv-x="833" 
d="M535 829l-115 -538q-4 -17 -4 -30q0 -58 64 -58h223l-43 -203h-284q-92 0 -147 49t-55 133q0 35 6 61l123 586h-225l40 195h229l71 332h230l-72 -332h248l-40 -195h-249z" />
    <glyph glyph-name="u" unicode="u" horiz-adv-x="1171" 
d="M876 1024h241l-217 -1024h-236l25 118q-117 -138 -290 -138q-138 0 -229 83t-91 234q0 45 10 98l133 629h237l-133 -625q-9 -49 -9 -69q0 -74 37.5 -115.5t102.5 -41.5h18q95 0 177.5 90t110.5 229z" />
    <glyph glyph-name="v" unicode="v" horiz-adv-x="1077" 
d="M887 1024h250l-564 -1024h-322l-130 1024h243l90 -810z" />
    <glyph glyph-name="w" unicode="w" horiz-adv-x="1615" 
d="M1403 1024h258l-484 -1024h-295l-49 751l-343 -751h-293l-75 1024h233l32 -781l360 781h264l51 -778z" />
    <glyph glyph-name="x" unicode="x" horiz-adv-x="1071" 
d="M-102 0l491 526l-264 498h254l170 -324l300 324h279l-481 -514l273 -510h-254l-177 338l-314 -338h-277z" />
    <glyph glyph-name="y" unicode="y" horiz-adv-x="1130" 
d="M1207 1024l-646 -1012l-46 -218q-43 -193 -225 -193h-360l43 206h243q76 0 91 72l36 172l-227 973h245l153 -677l427 677h266z" />
    <glyph glyph-name="z" unicode="z" horiz-adv-x="1048" 
d="M1035 1024l-48 -226l-701 -591h605l-44 -207h-889l48 225l701 592h-566l44 207h850z" />
    <glyph glyph-name="braceleft" unicode="{" horiz-adv-x="771" 
d="M101 -91q0 26 13 88l93 444q7 22 7 51q0 33 -20.5 52t-60.5 19h-63l64 309h75q48 0 73 25t38 86l107 498q32 145 88 196.5t182 53.5h253l-42 -198h-125q-64 0 -93 -28t-44 -96l-108 -516q-31 -155 -180 -155h-36l-9 -43h10q62 0 101 -35t39 -90q0 -24 -8 -58l-107 -494
q-7 -27 -7 -51q0 -66 82 -66h138l-42 -198h-203q-99 0 -157 56t-58 150z" />
    <glyph glyph-name="bar" unicode="|" horiz-adv-x="672" 
d="M240 -174v1782h243v-1782h-243z" />
    <glyph glyph-name="braceright" unicode="}" horiz-adv-x="770" 
d="M720 1527q0 -26 -13 -88l-93 -444q-7 -22 -7 -51q0 -33 20.5 -52t60.5 -19h63l-64 -309h-75q-48 0 -73 -25t-38 -86l-107 -498q-32 -145 -88.5 -196.5t-181.5 -53.5h-253l42 198h125q64 0 93 28t44 96l108 516q31 155 180 155h36l9 43h-10q-62 0 -101 35t-39 90
q0 24 8 58l107 494q7 27 7 51q0 66 -82 66h-138l42 198h203q99 0 157 -56t58 -150z" />
    <glyph glyph-name="asciitilde" unicode="~" horiz-adv-x="1012" 
d="M567 753l-37 22q-42 24 -63 32.5t-46 8.5q-31 2 -48.5 -23.5t-17.5 -71.5h-173v53q0 95 62 160t158 65q73 0 153 -47l37 -21q6 -5 30 -18q50 -29 83 -29q30 0 46.5 24.5t16.5 70.5h173v-54q0 -96 -56.5 -160t-152.5 -64q-77 0 -165 52z" />
    <glyph glyph-name="uni00A0" unicode="&#xa0;" horiz-adv-x="494" 
 />
    <glyph glyph-name="exclamdown" unicode="&#xa1;" horiz-adv-x="542" 
d="M493 1024l-57 -263h-273l57 263h273zM346 652l-63 -582l-101 -480h-244l103 489l182 573h123z" />
    <glyph glyph-name="cent" unicode="&#xa2;" horiz-adv-x="1137" 
d="M763 350h238q-20 -113 -90.5 -198.5t-171 -129.5t-215.5 -42q-32 0 -60 3l-87 -229h-195l105 278q-107 54 -166.5 153.5t-59.5 231.5q-2 185 76.5 330.5t211.5 222t293 74.5q22 0 28 -1l86 227h195l-102 -270q96 -45 149.5 -130.5t53.5 -195.5h-235q0 79 -45 124
l-236 -625h2q85 0 144.5 47t80.5 130zM366 239l231 611q-127 -9 -213.5 -128t-84.5 -289q0 -124 67 -194z" />
    <glyph glyph-name="sterling" unicode="&#xa3;" horiz-adv-x="1223" 
d="M650 1016l-45 -177l272 66l-46 -218l-282 -68l-69 -269q-10 -45 -37.5 -82.5t-65.5 -58.5h697l-42 -209h-1052l45 209h15q97 0 142 39t65 113l50 197l-200 -49l45 218l212 51l71 277q49 193 180 286q132 93 314 93h244l-44 -210h-177q-126 0 -194.5 -48t-97.5 -160z" />
    <glyph glyph-name="currency" unicode="&#xa4;" horiz-adv-x="1617" 
d="M1276 339l187 -178l-158 -158l-183 174q-139 -95 -312 -95q-170 0 -306 91l-178 -170l-158 158l180 172q-82 131 -82 292q0 152 76 279l-174 174l158 158l176 -168q137 89 308 89q176 0 314 -93l181 172l158 -158l-181 -181q72 -121 72 -272q0 -157 -78 -286zM1113 625
q0 141 -83.5 232t-210.5 91h-18q-126 2 -210.5 -90t-82.5 -233q0 -145 85 -239.5t212 -94.5h14q127 0 210.5 94t83.5 240z" />
    <glyph glyph-name="yen" unicode="&#xa5;" horiz-adv-x="1426" 
d="M1533 1434l-459 -549l195 42l-43 -208l-355 -77l-45 -53l-21 -98l314 66l-42 -204l-316 -68l-61 -285h-244l49 230l-304 -66l43 208l306 65l30 143l-387 -84l42 208l282 61l-284 669h269l245 -600l489 600h297z" />
    <glyph glyph-name="brokenbar" unicode="&#xa6;" horiz-adv-x="678" 
d="M242 859v749h243v-749h-243zM242 -174v769h243v-769h-243z" />
    <glyph glyph-name="section" unicode="&#xa7;" horiz-adv-x="1093" 
d="M36 -123l42 194h396q72 0 111.5 27.5t39.5 78.5q0 68 -97 104l-230 95q-202 83 -202 253q0 88 61.5 166.5t176.5 129.5q-79 68 -79 190q0 137 101.5 228t285.5 91h423l-43 -197h-384q-69 0 -107 -28.5t-38 -76.5q0 -64 100 -103l200 -72q232 -82 232 -277
q0 -88 -63.5 -171.5t-173.5 -128.5q77 -69 77 -181q1 -59 -25 -116.5t-74 -104t-124.5 -74.5t-167.5 -27h-438zM784 637q0 39 -30.5 69.5t-97.5 57.5l-156 64q-75 -24 -118.5 -67.5t-43.5 -83.5q0 -79 108 -122l180 -72q75 24 116.5 66.5t41.5 87.5z" />
    <glyph glyph-name="dieresis" unicode="&#xa8;" horiz-adv-x="746" 
d="M200 1179l52 244h229l-53 -244h-228zM600 1179l53 244h229l-53 -244h-229z" />
    <glyph glyph-name="copyright" unicode="&#xa9;" horiz-adv-x="1822" 
d="M138 718q0 216 108 399q108 184 291 292q184 108 400 108t399 -108q184 -107 291 -291q108 -184 108 -400t-108 -400q-107 -183 -291 -291q-183 -108 -399 -108q-215 0 -400 108q-183 108 -291 292q-108 185 -108 399zM1562 718q0 172 -85 317q-84 145 -228 231
q-143 86 -312 86q-168 0 -313 -86q-143 -85 -229 -231q-84 -145 -84 -317t84 -317q87 -147 229 -232q143 -85 313 -85t312 85q143 85 228 232q85 145 85 317zM580 723q0 183 95.5 297.5t264.5 114.5q160 0 246.5 -78t89.5 -214h-194q-7 59 -42.5 90.5t-93.5 31.5h-12
q-158 0 -158 -242t158 -242h12q58 0 94 33t43 93h193q-3 -135 -89.5 -215t-246.5 -80q-169 0 -264.5 114t-95.5 297z" />
    <glyph glyph-name="ordfeminine" unicode="&#xaa;" horiz-adv-x="822" 
d="M197 1088q-1 90 37.5 173t107.5 134t147 49q60 0 105 -27.5t60 -72.5l19 90h185l-123 -584h-182l15 74q-21 -37 -64 -60.5t-95 -23.5q-95 0 -153.5 71t-58.5 177zM613 1180q0 53 -24 83t-67 30q-62 0 -101.5 -55t-39.5 -128q0 -55 25.5 -88t70.5 -33q60 0 98 58t38 133z
" />
    <glyph glyph-name="guillemotleft" unicode="&#xab;" horiz-adv-x="1199" 
d="M748 1024l-410 -463l193 -418h-262l-202 441l389 440h292zM1225 1024l-410 -463l193 -418h-262l-202 441l389 440h292z" />
    <glyph glyph-name="logicalnot" unicode="&#xac;" horiz-adv-x="1304" 
d="M874 244v281h-731v209h972v-490h-241z" />
    <glyph glyph-name="uni00AD" unicode="&#xad;" horiz-adv-x="839" 
d="M114 521l41 197h576l-41 -197h-576z" />
    <glyph glyph-name="registered" unicode="&#xae;" horiz-adv-x="1822" 
d="M138 718q0 216 108 399q108 184 291 292q184 108 400 108t399 -108q184 -107 291 -291q108 -184 108 -400t-108 -400q-107 -183 -291 -291q-183 -108 -399 -108q-215 0 -400 108q-183 108 -291 292q-108 185 -108 399zM1562 718q0 172 -85 317q-84 145 -228 231
q-143 86 -312 86q-168 0 -313 -86q-143 -85 -229 -231q-84 -145 -84 -317t84 -317q87 -147 229 -232q143 -85 313 -85t312 85q143 85 228 232q85 145 85 317zM647 332v782h366q121 0 189 -59.5t68 -155.5q0 -82 -44 -133t-121 -69q81 0 118 -28t37 -93v-244h-187v200
q0 43 -19 61.5t-65 18.5h-155v-280h-187zM834 770h136q113 0 113 93q0 45 -28.5 65.5t-88.5 20.5h-132v-179z" />
    <glyph glyph-name="macron" unicode="&#xaf;" horiz-adv-x="725" 
d="M203 1179l40 189h602l-40 -189h-602z" />
    <glyph glyph-name="degree" unicode="&#xb0;" horiz-adv-x="932" 
d="M184 1075q-2 157 110 269t269 110q158 2 269.5 -109.5t108.5 -269.5q3 -158 -108.5 -269.5t-269.5 -109.5q-158 -2 -269.5 110t-109.5 269zM730 1075q0 73 -49 123.5t-118 50.5q-70 0 -119 -50.5t-49 -123.5q0 -74 49 -126.5t119 -52.5q69 0 118 52.5t49 126.5z" />
    <glyph glyph-name="plusminus" unicode="&#xb1;" horiz-adv-x="1322" 
d="M507 339v233h-384v209h384v243h242v-243h386v-209h-386v-233h-242zM123 0v208h1012v-208h-1012z" />
    <glyph glyph-name="twosuperior" unicode="&#xb2;" horiz-adv-x="765" 
d="M667 1167l-220 -154h334l-35 -163h-596l34 166l339 245q39 27 70 51q62 51 62 108q0 37 -26.5 61t-68.5 24h-7q-47 0 -80.5 -27.5t-41.5 -70.5h-188q14 111 109.5 187.5t222.5 74.5q114 0 194 -60.5t80 -161.5q0 -84 -45.5 -150.5t-136.5 -129.5z" />
    <glyph glyph-name="threesuperior" unicode="&#xb3;" horiz-adv-x="754" 
d="M163 1048q0 22 4 35h191q1 -39 32 -62t78 -23h10q49 0 80.5 27.5t31.5 71.5q0 41 -28.5 63.5t-74.5 22.5h-72l34 156h74q55 0 91 26t36 72q0 34 -25.5 55t-63.5 21h-10q-41 0 -70.5 -21.5t-36.5 -58.5h-190q18 112 106.5 175t212.5 63q118 0 195 -54.5t77 -154.5
q0 -77 -45.5 -133t-121.5 -75q46 -23 72.5 -67t26.5 -98q0 -114 -93 -181t-226 -67q-126 0 -210.5 54.5t-84.5 152.5z" />
    <glyph glyph-name="acute" unicode="&#xb4;" horiz-adv-x="432" 
d="M195 1140l113 294h260l-230 -294h-143z" />
    <glyph glyph-name="mu" unicode="&#xb5;" horiz-adv-x="1274" 
d="M824 1024h235v-1024h-235v169q-42 -86 -124.5 -137.5t-187.5 -51.5q-58 0 -111 14v-404h-236v1434h236v-629q0 -222 174 -222h18q94 0 162.5 83t68.5 206v562z" />
    <glyph glyph-name="paragraph" unicode="&#xb6;" horiz-adv-x="1350" 
d="M292 -410l212 990q-147 21 -252 124.5t-103 256.5q0 134 66 242q66 107 177 169q112 62 240 62h793l-42 -198h-126l-351 -1646h-231l350 1646h-150l-351 -1646h-232z" />
    <glyph glyph-name="periodcentered" unicode="&#xb7;" horiz-adv-x="513" 
d="M130 594l53 248h247l-53 -248h-247z" />
    <glyph glyph-name="cedilla" unicode="&#xb8;" horiz-adv-x="517" 
d="M-152 -493l31 145h161q45 0 70.5 21.5t25.5 57.5q0 27 -19 42.5t-52 15.5h-81l51 240h128l-24 -121q67 -9 107 -53t40 -112q0 -102 -72 -169t-184 -67h-182z" />
    <glyph glyph-name="onesuperior" unicode="&#xb9;" horiz-adv-x="583" 
d="M334 850l119 562l-266 -191l46 223l305 215h152l-172 -809h-184z" />
    <glyph glyph-name="ordmasculine" unicode="&#xba;" horiz-adv-x="778" 
d="M196 1101q-2 147 95 246t235 97q121 0 199 -69t78 -191q2 -148 -92.5 -247t-232.5 -97q-124 0 -203 70.5t-79 190.5zM618 1171q0 60 -26 93.5t-74 33.5q-60 0 -98 -54.5t-38 -128.5q0 -60 26 -94t74 -34q59 0 97.5 52.5t38.5 131.5z" />
    <glyph glyph-name="guillemotright" unicode="&#xbb;" horiz-adv-x="1198" 
d="M448 1024l202 -441l-389 -440h-292l410 463l-193 418h262zM925 1024l202 -441l-389 -440h-292l410 463l-193 418h262z" />
    <glyph glyph-name="onequarter" unicode="&#xbc;" horiz-adv-x="1762" 
d="M196 0l1147 1434h221l-1147 -1434h-221zM300 625l119 562l-266 -191l46 223l305 215h152l-172 -809h-184zM1280 0l32 152h-381l37 174l454 483h206l-104 -502h109l-32 -155h-109l-32 -152h-180zM1152 307h190l59 269z" />
    <glyph glyph-name="onehalf" unicode="&#xbd;" horiz-adv-x="1863" 
d="M184 0l1147 1434h221l-1147 -1434h-221zM298 625l119 562l-266 -191l46 223l305 215h152l-172 -809h-184zM1584 317l-220 -154h334l-35 -163h-596l34 166l339 245q39 27 70 51q62 51 62 108q0 37 -26.5 61t-68.5 24h-7q-47 0 -80.5 -27.5t-41.5 -70.5h-188
q14 111 109.5 187.5t222.5 74.5q114 0 194 -60.5t80 -161.5q0 -84 -45.5 -150.5t-136.5 -129.5z" />
    <glyph glyph-name="threequarters" unicode="&#xbe;" horiz-adv-x="1845" 
d="M302 0l1147 1434h221l-1147 -1434h-221zM127 823q0 22 4 35h191q1 -39 32 -62t78 -23h10q49 0 80.5 27.5t31.5 71.5q0 41 -28.5 63.5t-74.5 22.5h-72l34 156h74q55 0 91 26t36 72q0 34 -25.5 55t-63.5 21h-10q-41 0 -70.5 -21.5t-36.5 -58.5h-190q18 112 106.5 175
t212.5 63q118 0 195 -54.5t77 -154.5q0 -77 -45.5 -133t-121.5 -75q46 -23 72.5 -67t26.5 -98q0 -114 -93 -181t-226 -67q-126 0 -210.5 54.5t-84.5 152.5zM1363 0l32 152h-381l37 174l454 483h206l-104 -502h109l-32 -155h-109l-32 -152h-180zM1235 307h190l59 269z" />
    <glyph glyph-name="questiondown" unicode="&#xbf;" horiz-adv-x="969" 
d="M837 1024l-57 -263h-274l57 263h274zM732 625l-63 -289q-20 -93 -80 -131.5t-171 -38.5h-30q-104 0 -160.5 -55.5t-56.5 -141.5q0 -84 56.5 -124.5t171.5 -40.5h335l-45 -214h-335q-193 0 -307 97.5t-114 265.5q-2 111 59.5 207.5t160 150.5t203.5 52q48 0 70.5 15
t30.5 54l43 193h232z" />
    <glyph glyph-name="Agrave" unicode="&#xc0;" horiz-adv-x="1422" 
d="M1046 0l-60 351h-644l-210 -351h-252l866 1434h290l248 -1434h-238zM473 571h475l-106 617zM830 1539l-204 284h282l88 -284h-166z" />
    <glyph glyph-name="Aacute" unicode="&#xc1;" horiz-adv-x="1422" 
d="M1046 0l-60 351h-644l-210 -351h-252l866 1434h290l248 -1434h-238zM473 571h475l-106 617zM830 1539l88 284h283l-204 -284h-167z" />
    <glyph glyph-name="Acircumflex" unicode="&#xc2;" horiz-adv-x="1422" 
d="M1046 0l-60 351h-644l-210 -351h-252l866 1434h290l248 -1434h-238zM473 571h475l-106 617zM1272 1539h-163l-169 130l-221 -130h-196l302 284h264z" />
    <glyph glyph-name="Atilde" unicode="&#xc3;" horiz-adv-x="1422" 
d="M1046 0l-60 351h-644l-210 -351h-252l866 1434h290l248 -1434h-238zM473 571h475l-106 617zM913 1588l-38 26q-62 38 -85 35q-63 0 -82 -89h-175l9 44q21 100 93 165t162 67q44 0 75.5 -11.5t72.5 -37.5l36 -23l21 -13q44 -26 66 -26q31 0 52 24t28 65h176l-10 -45
q-21 -109 -85 -169t-166 -60q-71 0 -150 48z" />
    <glyph glyph-name="Adieresis" unicode="&#xc4;" horiz-adv-x="1422" 
d="M1046 0l-60 351h-644l-210 -351h-252l866 1434h290l248 -1434h-238zM473 571h475l-106 617zM599 1580l48 228h234l-47 -228h-235zM993 1580l48 228h234l-47 -228h-235z" />
    <glyph glyph-name="Aring" unicode="&#xc5;" horiz-adv-x="1422" 
d="M1046 0l-60 351h-644l-210 -351h-252l866 1434h290l248 -1434h-238zM473 571h475l-106 617zM726 1720q-2 81 63 145.5t144 62.5q85 0 146.5 -62t61.5 -146q0 -87 -61 -147t-147 -60q-83 0 -145 60.5t-62 146.5zM1009 1720q0 31 -22 54t-53 23q-30 0 -53 -23t-23 -54
q0 -30 23 -53t53 -23t52.5 23t22.5 53z" />
    <glyph glyph-name="AE" unicode="&#xc6;" horiz-adv-x="2072" 
d="M-130 0l1077 1434h1109l-47 -220h-719l-28 -369h639l-47 -220h-608l-32 -406h737l-44 -219h-946l28 351h-575l-261 -351h-283zM575 571h431l51 647z" />
    <glyph glyph-name="Ccedilla" unicode="&#xc7;" horiz-adv-x="1475" 
d="M1138 462h248q-37 -226 -199.5 -351t-413.5 -131l-14 -72q67 -9 107 -53t40 -112q0 -102 -72 -169t-184 -67h-182l31 145h161q45 0 70.5 21.5t25.5 57.5q0 27 -19 42.5t-52 15.5h-81l42 198q-237 30 -383.5 203.5t-144.5 423.5q0 239 94 428q95 192 269 302
q175 110 403 110q152 1 276.5 -57.5t198 -170t76.5 -255.5h-248q-4 120 -92 192t-219 72h-21q-138 3 -251.5 -79.5t-176 -221t-60.5 -298.5q0 -197 106 -317t288 -120h20q128 0 228 69.5t129 193.5z" />
    <glyph glyph-name="Egrave" unicode="&#xc8;" horiz-adv-x="1346" 
d="M50 0l305 1434h1068l-47 -220h-822l-80 -369h701l-46 -220h-701l-86 -406h842l-46 -219h-1088zM828 1539l-204 284h282l88 -284h-166z" />
    <glyph glyph-name="Eacute" unicode="&#xc9;" horiz-adv-x="1346" 
d="M50 0l305 1434h1068l-47 -220h-822l-80 -369h701l-46 -220h-701l-86 -406h842l-46 -219h-1088zM829 1539l88 284h283l-204 -284h-167z" />
    <glyph glyph-name="Ecircumflex" unicode="&#xca;" horiz-adv-x="1346" 
d="M50 0l305 1434h1068l-47 -220h-822l-80 -369h701l-46 -220h-701l-86 -406h842l-46 -219h-1088zM1270 1539h-163l-169 130l-221 -130h-196l302 284h264z" />
    <glyph glyph-name="Edieresis" unicode="&#xcb;" horiz-adv-x="1346" 
d="M50 0l305 1434h1068l-47 -220h-822l-80 -369h701l-46 -220h-701l-86 -406h842l-46 -219h-1088zM597 1580l48 228h234l-47 -228h-235zM991 1580l48 228h234l-47 -228h-235z" />
    <glyph glyph-name="Igrave" unicode="&#xcc;" horiz-adv-x="600" 
d="M50 0l305 1434h246l-305 -1434h-246zM418 1539l-204 284h282l88 -284h-166z" />
    <glyph glyph-name="Iacute" unicode="&#xcd;" horiz-adv-x="600" 
d="M50 0l305 1434h246l-305 -1434h-246zM418 1539l88 284h283l-204 -284h-167z" />
    <glyph glyph-name="Icircumflex" unicode="&#xce;" horiz-adv-x="600" 
d="M50 0l305 1434h246l-305 -1434h-246zM857 1539h-163l-169 130l-221 -130h-196l302 284h264z" />
    <glyph glyph-name="Idieresis" unicode="&#xcf;" horiz-adv-x="600" 
d="M50 0l305 1434h246l-305 -1434h-246zM184 1580l48 228h234l-47 -228h-235zM578 1580l48 228h234l-47 -228h-235z" />
    <glyph glyph-name="Eth" unicode="&#xd0;" horiz-adv-x="1519" 
d="M1455 830q0 -214 -85 -403q-84 -191 -249 -309q-163 -118 -392 -118h-639l129 607h-178l46 220h179l129 607h403q244 0 389 -90q147 -88 207 -225q61 -135 61 -289zM1209 822q0 185 -106 288q-106 104 -303 104h-207l-81 -387h305l-47 -220h-303l-81 -388h332
q158 0 268 85q111 84 167 224q56 139 56 294z" />
    <glyph glyph-name="Ntilde" unicode="&#xd1;" horiz-adv-x="1535" 
d="M1290 1434h246l-305 -1434h-328l-368 1129l-239 -1129h-246l305 1434h328l363 -1148zM968 1588l-38 26q-62 38 -85 35q-63 0 -82 -89h-175l9 44q21 100 93 165t162 67q44 0 75.5 -11.5t72.5 -37.5l36 -23l21 -13q44 -26 66 -26q31 0 52 24t28 65h176l-10 -45
q-21 -109 -85 -169t-166 -60q-70 0 -150 48z" />
    <glyph glyph-name="Ograve" unicode="&#xd2;" horiz-adv-x="1580" 
d="M116 611q0 237 94 428q95 193 266 303q172 112 400 112q183 2 329.5 -79.5t227.5 -228t79 -328.5q0 -236 -95 -428t-268 -301t-402 -109q-182 -2 -327.5 79.5t-225.5 226.5t-78 325zM755 199h26q139 -3 251.5 78.5t173 218t58.5 296.5q2 198 -111 321.5t-285 121.5h-26
q-136 3 -246.5 -76.5t-172 -217.5t-59.5 -303q-2 -196 108.5 -318.5t282.5 -120.5zM853 1539l-204 284h282l88 -284h-166z" />
    <glyph glyph-name="Oacute" unicode="&#xd3;" horiz-adv-x="1580" 
d="M116 611q0 237 94 428q95 193 266 303q172 112 400 112q183 2 329.5 -79.5t227.5 -228t79 -328.5q0 -236 -95 -428t-268 -301t-402 -109q-182 -2 -327.5 79.5t-225.5 226.5t-78 325zM755 199h26q139 -3 251.5 78.5t173 218t58.5 296.5q2 198 -111 321.5t-285 121.5h-26
q-136 3 -246.5 -76.5t-172 -217.5t-59.5 -303q-2 -196 108.5 -318.5t282.5 -120.5zM853 1539l88 284h283l-204 -284h-167z" />
    <glyph glyph-name="Ocircumflex" unicode="&#xd4;" horiz-adv-x="1580" 
d="M116 611q0 237 94 428q95 193 266 303q172 112 400 112q183 2 329.5 -79.5t227.5 -228t79 -328.5q0 -236 -95 -428t-268 -301t-402 -109q-182 -2 -327.5 79.5t-225.5 226.5t-78 325zM755 199h26q139 -3 251.5 78.5t173 218t58.5 296.5q2 198 -111 321.5t-285 121.5h-26
q-136 3 -246.5 -76.5t-172 -217.5t-59.5 -303q-2 -196 108.5 -318.5t282.5 -120.5zM1295 1539h-163l-169 130l-221 -130h-196l302 284h264z" />
    <glyph glyph-name="Otilde" unicode="&#xd5;" horiz-adv-x="1580" 
d="M116 611q0 237 94 428q95 193 266 303q172 112 400 112q183 2 329.5 -79.5t227.5 -228t79 -328.5q0 -236 -95 -428t-268 -301t-402 -109q-182 -2 -327.5 79.5t-225.5 226.5t-78 325zM755 199h26q139 -3 251.5 78.5t173 218t58.5 296.5q2 198 -111 321.5t-285 121.5h-26
q-136 3 -246.5 -76.5t-172 -217.5t-59.5 -303q-2 -196 108.5 -318.5t282.5 -120.5zM935 1588l-38 26q-62 38 -85 35q-63 0 -82 -89h-175l9 44q21 100 93 165t162 67q44 0 75.5 -11.5t72.5 -37.5l36 -23l21 -13q44 -26 66 -26q31 0 52 24t28 65h176l-10 -45
q-21 -109 -85 -169t-166 -60q-71 0 -150 48z" />
    <glyph glyph-name="Odieresis" unicode="&#xd6;" horiz-adv-x="1580" 
d="M116 611q0 237 94 428q95 193 266 303q172 112 400 112q183 2 329.5 -79.5t227.5 -228t79 -328.5q0 -236 -95 -428t-268 -301t-402 -109q-182 -2 -327.5 79.5t-225.5 226.5t-78 325zM755 199h26q139 -3 251.5 78.5t173 218t58.5 296.5q2 198 -111 321.5t-285 121.5h-26
q-136 3 -246.5 -76.5t-172 -217.5t-59.5 -303q-2 -196 108.5 -318.5t282.5 -120.5zM621 1580l48 228h234l-47 -228h-235zM1015 1580l48 228h234l-47 -228h-235z" />
    <glyph glyph-name="multiply" unicode="&#xd7;" horiz-adv-x="1164" 
d="M261 73l-149 151l304 303l-305 305l151 152l305 -305l304 303l149 -150l-302 -302l303 -305l-151 -152l-304 305z" />
    <glyph glyph-name="Oslash" unicode="&#xd8;" horiz-adv-x="1582" 
d="M1616 1300l-176 -163q74 -140 74 -319q0 -236 -95 -428t-268 -301t-402 -109q-244 0 -414 139l-166 -153l-154 167l177 163q-74 140 -74 315q0 237 94 428q95 193 266 303q172 112 400 112q250 0 418 -140l166 153zM388 477l730 673q-103 85 -248 85h-26
q-136 3 -246.5 -76.5t-172 -217.5t-59.5 -303q0 -88 22 -161zM1243 956l-731 -673q102 -84 245 -84h26q139 -3 251.5 78.5t173 218t58.5 296.5q0 87 -23 164z" />
    <glyph glyph-name="Ugrave" unicode="&#xd9;" horiz-adv-x="1439" 
d="M138 411q0 81 18 166l183 857h246l-185 -865q-17 -80 -17 -135q0 -116 67 -175t193 -60h21q137 0 224.5 75.5t120.5 225.5l199 934h246l-211 -990q-48 -224 -203 -344t-406 -120q-227 -2 -362.5 119t-133.5 312zM822 1539l-204 284h282l88 -284h-166z" />
    <glyph glyph-name="Uacute" unicode="&#xda;" horiz-adv-x="1439" 
d="M138 411q0 81 18 166l183 857h246l-185 -865q-17 -80 -17 -135q0 -116 67 -175t193 -60h21q137 0 224.5 75.5t120.5 225.5l199 934h246l-211 -990q-48 -224 -203 -344t-406 -120q-227 -2 -362.5 119t-133.5 312zM822 1539l88 284h283l-204 -284h-167z" />
    <glyph glyph-name="Ucircumflex" unicode="&#xdb;" horiz-adv-x="1439" 
d="M138 411q0 81 18 166l183 857h246l-185 -865q-17 -80 -17 -135q0 -116 67 -175t193 -60h21q137 0 224.5 75.5t120.5 225.5l199 934h246l-211 -990q-48 -224 -203 -344t-406 -120q-227 -2 -362.5 119t-133.5 312zM1264 1539h-163l-169 130l-221 -130h-196l302 284h264z
" />
    <glyph glyph-name="Udieresis" unicode="&#xdc;" horiz-adv-x="1439" 
d="M138 411q0 81 18 166l183 857h246l-185 -865q-17 -80 -17 -135q0 -116 67 -175t193 -60h21q137 0 224.5 75.5t120.5 225.5l199 934h246l-211 -990q-48 -224 -203 -344t-406 -120q-227 -2 -362.5 119t-133.5 312zM591 1580l48 228h234l-47 -228h-235zM985 1580l48 228h234
l-47 -228h-235z" />
    <glyph glyph-name="Yacute" unicode="&#xdd;" horiz-adv-x="1312" 
d="M1485 1434l-709 -848l-125 -586h-246l126 592l-350 842h267l247 -606l492 606h298zM758 1539l88 284h283l-204 -284h-167z" />
    <glyph glyph-name="Thorn" unicode="&#xde;" horiz-adv-x="1327" 
d="M50 0l305 1434h246l-57 -268h283q192 2 316 -115.5t121 -298.5q2 -133 -59.5 -245t-173.5 -177.5t-247 -63.5h-432l-56 -266h-246zM400 486h369q110 0 178.5 71t68.5 182q0 99 -63.5 153.5t-180.5 54.5h-275z" />
    <glyph glyph-name="germandbls" unicode="&#xdf;" horiz-adv-x="1145" 
d="M-63 -379l309 1454q36 173 162 276t305 103q173 1 285.5 -97t110.5 -247q0 -141 -87 -239t-219 -128q95 -26 155.5 -113t60.5 -200q4 -177 -136.5 -305t-344.5 -125h-175l42 197h111q123 0 193 72.5t70 180.5q0 90 -57.5 147.5t-145.5 57.5h-74l42 193h83q104 0 173 71
t69 164q0 80 -46.5 126.5t-124.5 46.5q-176 0 -222 -218l-301 -1417h-238z" />
    <glyph glyph-name="agrave" unicode="&#xe0;" horiz-adv-x="1232" 
d="M63 434q0 176 73 315q74 140 193 217q119 78 250 78q115 0 203 -53t126 -134l36 167h235l-218 -1024h-235l26 119q-40 -59 -119 -100q-78 -39 -168 -39q-174 -2 -289 125.5t-113 328.5zM510 173h18q90 -2 162.5 59t110.5 158.5t37 206.5q0 113 -59 183.5t-157 70.5h-18
q-118 3 -213 -117t-92 -293q0 -119 57.5 -193.5t153.5 -74.5zM628 1140l-157 294h260l41 -294h-144z" />
    <glyph glyph-name="aacute" unicode="&#xe1;" horiz-adv-x="1232" 
d="M63 434q0 176 73 315q74 140 193 217q119 78 250 78q115 0 203 -53t126 -134l36 167h235l-218 -1024h-235l26 119q-40 -59 -119 -100q-78 -39 -168 -39q-174 -2 -289 125.5t-113 328.5zM510 173h18q90 -2 162.5 59t110.5 158.5t37 206.5q0 113 -59 183.5t-157 70.5h-18
q-118 3 -213 -117t-92 -293q0 -119 57.5 -193.5t153.5 -74.5zM626 1140l113 294h260l-230 -294h-143z" />
    <glyph glyph-name="acircumflex" unicode="&#xe2;" horiz-adv-x="1232" 
d="M63 434q0 176 73 315q74 140 193 217q119 78 250 78q115 0 203 -53t126 -134l36 167h235l-218 -1024h-235l26 119q-40 -59 -119 -100q-78 -39 -168 -39q-174 -2 -289 125.5t-113 328.5zM510 173h18q90 -2 162.5 59t110.5 158.5t37 206.5q0 113 -59 183.5t-157 70.5h-18
q-118 3 -213 -117t-92 -293q0 -119 57.5 -193.5t153.5 -74.5zM1015 1140h-143l-157 142l-220 -142h-167l289 294h241z" />
    <glyph glyph-name="atilde" unicode="&#xe3;" horiz-adv-x="1232" 
d="M63 434q0 176 73 315q74 140 193 217q119 78 250 78q115 0 203 -53t126 -134l36 167h235l-218 -1024h-235l26 119q-40 -59 -119 -100q-78 -39 -168 -39q-174 -2 -289 125.5t-113 328.5zM510 173h18q90 -2 162.5 59t110.5 158.5t37 206.5q0 113 -59 183.5t-157 70.5h-18
q-118 3 -213 -117t-92 -293q0 -119 57.5 -193.5t153.5 -74.5zM702 1191l-44 27q-41 23 -58 30t-37 7q-69 0 -89 -98h-174l9 49q21 104 85 165t159 61q73 0 156 -48l45 -25l20 -11q55 -30 80 -30q33 0 51.5 23t28.5 74h173l-9 -50q-19 -103 -82 -163.5t-156 -60.5
q-77 0 -158 50z" />
    <glyph glyph-name="adieresis" unicode="&#xe4;" horiz-adv-x="1232" 
d="M63 434q0 176 73 315q74 140 193 217q119 78 250 78q115 0 203 -53t126 -134l36 167h235l-218 -1024h-235l26 119q-40 -59 -119 -100q-78 -39 -168 -39q-174 -2 -289 125.5t-113 328.5zM510 173h18q90 -2 162.5 59t110.5 158.5t37 206.5q0 113 -59 183.5t-157 70.5h-18
q-118 3 -213 -117t-92 -293q0 -119 57.5 -193.5t153.5 -74.5zM367 1179l52 244h229l-53 -244h-228zM767 1179l53 244h229l-53 -244h-229z" />
    <glyph glyph-name="aring" unicode="&#xe5;" horiz-adv-x="1232" 
d="M63 434q0 176 73 315q74 140 193 217q119 78 250 78q115 0 203 -53t126 -134l36 167h235l-218 -1024h-235l26 119q-40 -59 -119 -100q-78 -39 -168 -39q-174 -2 -289 125.5t-113 328.5zM510 173h18q90 -2 162.5 59t110.5 158.5t37 206.5q0 113 -59 183.5t-157 70.5h-18
q-118 3 -213 -117t-92 -293q0 -119 57.5 -193.5t153.5 -74.5zM519 1324q-1 82 63 145.5t144 61.5q85 0 145.5 -61t60.5 -146q0 -87 -60.5 -146.5t-145.5 -59.5q-82 -2 -145.5 60t-61.5 146zM815 1324q0 38 -25.5 64.5t-62.5 26.5q-38 0 -64.5 -26.5t-26.5 -64.5
q0 -37 27 -63.5t64 -26.5t62.5 26.5t25.5 63.5z" />
    <glyph glyph-name="ae" unicode="&#xe6;" horiz-adv-x="1799" 
d="M23 278q-3 156 127 254.5t316 96.5h278q12 61 12 84q0 65 -49.5 101.5t-131.5 36.5h-19q-70 0 -124 -36q-53 -35 -67 -100h-236q20 149 149 240t305 89q105 0 190 -37t134 -104q150 141 368 141q187 3 305 -114t116 -296q0 -98 -24 -183h-723v-22q0 -118 67.5 -187
t177.5 -69h13q77 0 137 39t83 103h234q-43 -161 -165 -248t-312 -87q-128 0 -228.5 54t-157.5 152q-147 -206 -407 -206q-156 -2 -263 82t-105 216zM971 634h499q2 16 2 34q0 85 -57.5 134t-153.5 49h-18q-96 0 -169 -58.5t-103 -158.5zM410 170h10q96 0 175.5 65.5
t101.5 174.5l7 39h-233q-96 0 -158 -41q-61 -40 -61 -116q0 -57 44 -89.5t114 -32.5z" />
    <glyph glyph-name="ccedilla" unicode="&#xe7;" horiz-adv-x="1124" 
d="M773 350h235q-35 -170 -154 -267q-118 -97 -298 -103l-14 -72q67 -9 107 -53t40 -112q0 -102 -72 -169t-184 -67h-182l31 145h161q45 0 70.5 21.5t25.5 57.5q0 27 -19 42.5t-52 15.5h-81l42 200q-168 29 -266 146t-98 303q-2 133 43 248.5t121 193.5t176.5 122t208.5 42
q195 0 313 -101t123 -269h-236q0 86 -51.5 131.5t-139.5 45.5h-18q-126 2 -216.5 -116t-88.5 -283q0 -128 64.5 -203.5t169.5 -75.5h18q81 0 140 48t81 129z" />
    <glyph glyph-name="egrave" unicode="&#xe8;" horiz-adv-x="1140" 
d="M66 468q0 166 73 296q74 132 200 206q127 74 277 74q189 2 306 -113.5t115 -296.5q0 -102 -23 -183h-724v-22q0 -117 65.5 -186.5t172.5 -69.5h18q79 0 139 38.5t83 103.5h235q-45 -161 -167 -248t-310 -87q-204 -2 -333 133.5t-127 354.5zM313 634h498q2 16 2 34
q0 84 -56 133.5t-150 49.5h-18q-98 0 -172 -58.5t-104 -158.5zM589 1140l-157 294h260l41 -294h-144z" />
    <glyph glyph-name="eacute" unicode="&#xe9;" horiz-adv-x="1140" 
d="M66 468q0 166 73 296q74 132 200 206q127 74 277 74q189 2 306 -113.5t115 -296.5q0 -102 -23 -183h-724v-22q0 -117 65.5 -186.5t172.5 -69.5h18q79 0 139 38.5t83 103.5h235q-45 -161 -167 -248t-310 -87q-204 -2 -333 133.5t-127 354.5zM313 634h498q2 16 2 34
q0 84 -56 133.5t-150 49.5h-18q-98 0 -172 -58.5t-104 -158.5zM586 1140l113 294h260l-230 -294h-143z" />
    <glyph glyph-name="ecircumflex" unicode="&#xea;" horiz-adv-x="1140" 
d="M66 468q0 166 73 296q74 132 200 206q127 74 277 74q189 2 306 -113.5t115 -296.5q0 -102 -23 -183h-724v-22q0 -117 65.5 -186.5t172.5 -69.5h18q79 0 139 38.5t83 103.5h235q-45 -161 -167 -248t-310 -87q-204 -2 -333 133.5t-127 354.5zM313 634h498q2 16 2 34
q0 84 -56 133.5t-150 49.5h-18q-98 0 -172 -58.5t-104 -158.5zM975 1140h-143l-157 142l-220 -142h-167l289 294h241z" />
    <glyph glyph-name="edieresis" unicode="&#xeb;" horiz-adv-x="1140" 
d="M66 468q0 166 73 296q74 132 200 206q127 74 277 74q189 2 306 -113.5t115 -296.5q0 -102 -23 -183h-724v-22q0 -117 65.5 -186.5t172.5 -69.5h18q79 0 139 38.5t83 103.5h235q-45 -161 -167 -248t-310 -87q-204 -2 -333 133.5t-127 354.5zM313 634h498q2 16 2 34
q0 84 -56 133.5t-150 49.5h-18q-98 0 -172 -58.5t-104 -158.5zM328 1179l52 244h229l-53 -244h-228zM728 1179l53 244h229l-53 -244h-229z" />
    <glyph glyph-name="igrave" unicode="&#xec;" horiz-adv-x="524" 
d="M17 0l217 1024h236l-217 -1024h-236zM308 1140l-157 294h260l41 -294h-144z" />
    <glyph glyph-name="iacute" unicode="&#xed;" horiz-adv-x="524" 
d="M17 0l217 1024h236l-217 -1024h-236zM305 1140l113 294h260l-230 -294h-143z" />
    <glyph glyph-name="icircumflex" unicode="&#xee;" horiz-adv-x="524" 
d="M17 0l217 1024h236l-217 -1024h-236zM706 1140h-143l-157 142l-220 -142h-167l289 294h241z" />
    <glyph glyph-name="idieresis" unicode="&#xef;" horiz-adv-x="524" 
d="M17 0l217 1024h236l-217 -1024h-236zM67 1179l52 244h229l-53 -244h-228zM467 1179l53 244h229l-53 -244h-229z" />
    <glyph glyph-name="eth" unicode="&#xf0;" horiz-adv-x="1189" 
d="M57 429q0 142 68 267q67 126 183 201q115 76 253 76q110 0 196 -46q87 -45 127 -112q3 27 3 53q0 141 -82 241l-129 -80l-95 143l80 51q-82 32 -167 38l41 193q190 -6 326 -101l177 113l97 -150l-149 -93q119 -179 119 -454q1 -211 -67 -394q-68 -181 -203 -288
q-136 -107 -327 -107q-106 -1 -193 35.5t-143 99t-86 143.5t-29 171zM834 515q0 120 -68.5 192.5t-173.5 72.5q-123 2 -212 -99t-87 -241q0 -124 66.5 -195.5t169.5 -71.5q124 -3 215.5 99.5t89.5 242.5z" />
    <glyph glyph-name="ntilde" unicode="&#xf1;" horiz-adv-x="1172" 
d="M1060 757q0 -49 -11 -113l-137 -644h-236l134 625q9 52 9 83q0 68 -35.5 105.5t-105.5 37.5h-18q-98 0 -179.5 -79.5t-110.5 -219.5l-117 -552h-236l217 1024h236l-27 -129q125 149 309 149q138 0 223 -81t85 -206zM738 1191l-44 27q-41 23 -58 30t-37 7q-69 0 -89 -98
h-174l9 49q21 104 85 165t159 61q73 0 156 -48l45 -25l20 -11q56 -30 80 -30q33 0 51.5 23t28.5 74h173l-9 -50q-19 -103 -82 -163.5t-156 -60.5q-77 0 -158 50z" />
    <glyph glyph-name="ograve" unicode="&#xf2;" horiz-adv-x="1188" 
d="M65 446q-2 132 42.5 245.5t120.5 191t178 120.5t214 41q219 2 344 -128.5t123 -337.5q2 -132 -42.5 -245.5t-120.5 -191t-178 -120.5t-214 -41q-219 -2 -344 128.5t-123 337.5zM539 173h18q116 -2 207 109.5t88 279.5q0 130 -63 210q-63 79 -177 79h-18q-116 2 -206 -109
t-88 -280q0 -131 63.5 -210t175.5 -79zM618 1140l-157 294h260l41 -294h-144z" />
    <glyph glyph-name="oacute" unicode="&#xf3;" horiz-adv-x="1188" 
d="M65 446q-2 132 42.5 245.5t120.5 191t178 120.5t214 41q219 2 344 -128.5t123 -337.5q2 -132 -42.5 -245.5t-120.5 -191t-178 -120.5t-214 -41q-219 -2 -344 128.5t-123 337.5zM539 173h18q116 -2 207 109.5t88 279.5q0 130 -63 210q-63 79 -177 79h-18q-116 2 -206 -109
t-88 -280q0 -131 63.5 -210t175.5 -79zM615 1140l113 294h260l-230 -294h-143z" />
    <glyph glyph-name="ocircumflex" unicode="&#xf4;" horiz-adv-x="1188" 
d="M65 446q-2 132 42.5 245.5t120.5 191t178 120.5t214 41q219 2 344 -128.5t123 -337.5q2 -132 -42.5 -245.5t-120.5 -191t-178 -120.5t-214 -41q-219 -2 -344 128.5t-123 337.5zM539 173h18q116 -2 207 109.5t88 279.5q0 130 -63 210q-63 79 -177 79h-18q-116 2 -206 -109
t-88 -280q0 -131 63.5 -210t175.5 -79zM1004 1140h-143l-157 142l-220 -142h-167l289 294h241z" />
    <glyph glyph-name="otilde" unicode="&#xf5;" horiz-adv-x="1188" 
d="M65 446q-2 132 42.5 245.5t120.5 191t178 120.5t214 41q219 2 344 -128.5t123 -337.5q2 -132 -42.5 -245.5t-120.5 -191t-178 -120.5t-214 -41q-219 -2 -344 128.5t-123 337.5zM539 173h18q116 -2 207 109.5t88 279.5q0 130 -63 210q-63 79 -177 79h-18q-116 2 -206 -109
t-88 -280q0 -131 63.5 -210t175.5 -79zM692 1191l-44 27q-41 23 -58 30t-37 7q-69 0 -89 -98h-174l9 49q21 104 85 165t159 61q73 0 156 -48l45 -25l20 -11q55 -30 80 -30q33 0 51.5 23t28.5 74h173l-9 -50q-19 -103 -82 -163.5t-156 -60.5q-77 0 -158 50z" />
    <glyph glyph-name="odieresis" unicode="&#xf6;" horiz-adv-x="1188" 
d="M65 446q-2 132 42.5 245.5t120.5 191t178 120.5t214 41q219 2 344 -128.5t123 -337.5q2 -132 -42.5 -245.5t-120.5 -191t-178 -120.5t-214 -41q-219 -2 -344 128.5t-123 337.5zM539 173h18q116 -2 207 109.5t88 279.5q0 130 -63 210q-63 79 -177 79h-18q-116 2 -206 -109
t-88 -280q0 -131 63.5 -210t175.5 -79zM357 1179l52 244h229l-53 -244h-228zM757 1179l53 244h229l-53 -244h-229z" />
    <glyph glyph-name="divide" unicode="&#xf7;" horiz-adv-x="1232" 
d="M473 746v259h256v-259h-256zM95 423v209h1012v-209h-1012zM473 50v259h256v-259h-256z" />
    <glyph glyph-name="oslash" unicode="&#xf8;" horiz-adv-x="1192" 
d="M1176 952l-141 -133q54 -103 54 -241q2 -132 -42.5 -245.5t-120.5 -191t-178 -120.5t-214 -41q-177 0 -295 86l-134 -127l-121 140l135 128q-52 105 -52 239q-2 132 42.5 245.5t120.5 191t178 120.5t214 41q176 0 292 -83l125 118zM308 386l445 422q-56 43 -139 43h-18
q-116 2 -206 -109t-88 -280q0 -40 6 -76zM847 641l-447 -423q57 -45 141 -45h18q116 -2 207 109.5t88 279.5q0 47 -7 79z" />
    <glyph glyph-name="ugrave" unicode="&#xf9;" horiz-adv-x="1171" 
d="M876 1024h241l-217 -1024h-236l25 118q-117 -138 -290 -138q-138 0 -229 83t-91 234q0 45 10 98l133 629h237l-133 -625q-9 -49 -9 -69q0 -74 37.5 -115.5t102.5 -41.5h18q95 0 177.5 90t110.5 229zM629 1140l-157 294h260l41 -294h-144z" />
    <glyph glyph-name="uacute" unicode="&#xfa;" horiz-adv-x="1171" 
d="M876 1024h241l-217 -1024h-236l25 118q-117 -138 -290 -138q-138 0 -229 83t-91 234q0 45 10 98l133 629h237l-133 -625q-9 -49 -9 -69q0 -74 37.5 -115.5t102.5 -41.5h18q95 0 177.5 90t110.5 229zM626 1140l113 294h260l-230 -294h-143z" />
    <glyph glyph-name="ucircumflex" unicode="&#xfb;" horiz-adv-x="1171" 
d="M876 1024h241l-217 -1024h-236l25 118q-117 -138 -290 -138q-138 0 -229 83t-91 234q0 45 10 98l133 629h237l-133 -625q-9 -49 -9 -69q0 -74 37.5 -115.5t102.5 -41.5h18q95 0 177.5 90t110.5 229zM1015 1140h-143l-157 142l-220 -142h-167l289 294h241z" />
    <glyph glyph-name="udieresis" unicode="&#xfc;" horiz-adv-x="1171" 
d="M876 1024h241l-217 -1024h-236l25 118q-117 -138 -290 -138q-138 0 -229 83t-91 234q0 45 10 98l133 629h237l-133 -625q-9 -49 -9 -69q0 -74 37.5 -115.5t102.5 -41.5h18q95 0 177.5 90t110.5 229zM367 1179l52 244h229l-53 -244h-228zM767 1179l53 244h229l-53 -244
h-229z" />
    <glyph glyph-name="yacute" unicode="&#xfd;" horiz-adv-x="1130" 
d="M1207 1024l-646 -1012l-46 -218q-43 -193 -225 -193h-360l43 206h243q76 0 91 72l36 172l-227 973h245l153 -677l427 677h266zM588 1140l113 294h260l-230 -294h-143z" />
    <glyph glyph-name="thorn" unicode="&#xfe;" horiz-adv-x="1238" 
d="M-70 -410l392 1844h236l-112 -521q51 62 124 96.5t158 34.5q176 2 293 -126.5t115 -332.5q0 -165 -65 -306q-65 -139 -179 -219q-116 -80 -260 -80q-114 0 -207 48q-91 50 -138 129l-121 -567h-236zM592 174h19q72 -2 139.5 52.5t109 149.5t39.5 200q0 123 -59.5 198.5
t-161.5 75.5h-18q-85 2 -156 -55.5t-110.5 -154.5t-38.5 -209q0 -113 67 -185t170 -72z" />
    <glyph glyph-name="ydieresis" unicode="&#xff;" horiz-adv-x="1130" 
d="M1207 1024l-646 -1012l-46 -218q-43 -193 -225 -193h-360l43 206h243q76 0 91 72l36 172l-227 973h245l153 -677l427 677h266zM329 1179l52 244h229l-53 -244h-228zM729 1179l53 244h229l-53 -244h-229z" />
    <glyph glyph-name="Amacron" unicode="&#x100;" horiz-adv-x="1422" 
d="M1046 0l-60 351h-644l-210 -351h-252l866 1434h290l248 -1434h-238zM473 571h475l-106 617zM596 1580l41 194h640l-41 -194h-640z" />
    <glyph glyph-name="amacron" unicode="&#x101;" horiz-adv-x="1232" 
d="M63 434q0 176 73 315q74 140 193 217q119 78 250 78q115 0 203 -53t126 -134l36 167h235l-218 -1024h-235l26 119q-40 -59 -119 -100q-78 -39 -168 -39q-174 -2 -289 125.5t-113 328.5zM510 173h18q90 -2 162.5 59t110.5 158.5t37 206.5q0 113 -59 183.5t-157 70.5h-18
q-118 3 -213 -117t-92 -293q0 -119 57.5 -193.5t153.5 -74.5zM381 1179l40 189h602l-40 -189h-602z" />
    <glyph glyph-name="Abreve" unicode="&#x102;" horiz-adv-x="1422" 
d="M1046 0l-60 351h-644l-210 -351h-252l866 1434h290l248 -1434h-238zM473 571h475l-106 617zM637 1770q0 21 5 53h191q-2 -22 -2 -27q0 -47 32 -73t87 -26q60 0 102.5 32t61.5 94h191q-29 -142 -127.5 -221t-247.5 -79q-129 0 -211 68.5t-82 178.5z" />
    <glyph glyph-name="abreve" unicode="&#x103;" horiz-adv-x="1232" 
d="M63 434q0 176 73 315q74 140 193 217q119 78 250 78q115 0 203 -53t126 -134l36 167h235l-218 -1024h-235l26 119q-40 -59 -119 -100q-78 -39 -168 -39q-174 -2 -289 125.5t-113 328.5zM510 173h18q90 -2 162.5 59t110.5 158.5t37 206.5q0 113 -59 183.5t-157 70.5h-18
q-118 3 -213 -117t-92 -293q0 -119 57.5 -193.5t153.5 -74.5zM413 1378q0 19 5 56h190q-2 -14 -2 -29q0 -59 32.5 -88.5t89.5 -29.5q56 0 98 36.5t63 110.5h190q-39 -154 -135.5 -234.5t-236.5 -80.5q-130 0 -212 69.5t-82 189.5z" />
    <glyph glyph-name="Aogonek" unicode="&#x104;" horiz-adv-x="1422" 
d="M1079 -210q0 -77 90 -77h67l-32 -152h-94q-96 0 -147.5 42t-51.5 121q0 84 60 159q61 73 144 117h-69l-60 351h-644l-210 -351h-252l866 1434h290l248 -1434h-1q-99 -49 -151.5 -99.5t-52.5 -110.5zM473 571h475l-106 617z" />
    <glyph glyph-name="aogonek" unicode="&#x105;" horiz-adv-x="1232" 
d="M944 1024h235l-218 -1024h-1q-99 -49 -151.5 -99.5t-52.5 -110.5q0 -77 90 -77h67l-32 -152h-94q-96 0 -147.5 42t-51.5 121q0 84 60 159q62 73 144 117h-66l26 119q-40 -59 -119 -100q-78 -39 -168 -39q-174 -2 -289 125.5t-113 328.5q0 176 73 315q74 140 193 217
q119 78 250 78q115 0 203 -53t126 -134zM838 597q0 113 -59 183.5t-157 70.5h-18q-118 3 -213 -117t-92 -293q0 -119 57.5 -193.5t153.5 -74.5h18q90 -2 162.5 59t110.5 158.5t37 206.5z" />
    <glyph glyph-name="Cacute" unicode="&#x106;" horiz-adv-x="1475" 
d="M118 614q0 239 94 428q95 192 269 302q175 110 403 110q152 1 276.5 -57.5t198 -170t76.5 -255.5h-248q-4 120 -92 192t-219 72h-21q-138 3 -251.5 -79.5t-176 -221t-60.5 -298.5q0 -197 106 -317t288 -120h20q128 0 228 69.5t129 193.5h248q-39 -231 -207 -356.5
t-426 -125.5q-183 -2 -329 79t-227 226.5t-79 328.5zM853 1539l88 284h283l-204 -284h-167z" />
    <glyph glyph-name="cacute" unicode="&#x107;" horiz-adv-x="1124" 
d="M65 438q-2 133 43 248.5t121 193.5t176.5 122t208.5 42q195 0 313 -101t123 -269h-236q0 86 -51.5 131.5t-139.5 45.5h-18q-126 2 -216.5 -116t-88.5 -283q0 -128 64.5 -203.5t169.5 -75.5h18q81 0 140 48t81 129h235q-34 -174 -160 -272t-312 -98q-210 -2 -341.5 121
t-129.5 337zM593 1140l113 294h260l-230 -294h-143z" />
    <glyph glyph-name="Ccircumflex" unicode="&#x108;" horiz-adv-x="1475" 
d="M118 614q0 239 94 428q95 192 269 302q175 110 403 110q152 1 276.5 -57.5t198 -170t76.5 -255.5h-248q-4 120 -92 192t-219 72h-21q-138 3 -251.5 -79.5t-176 -221t-60.5 -298.5q0 -197 106 -317t288 -120h20q128 0 228 69.5t129 193.5h248q-39 -231 -207 -356.5
t-426 -125.5q-183 -2 -329 79t-227 226.5t-79 328.5zM1294 1539h-163l-169 130l-221 -130h-196l302 284h264z" />
    <glyph glyph-name="ccircumflex" unicode="&#x109;" horiz-adv-x="1124" 
d="M65 438q-2 133 43 248.5t121 193.5t176.5 122t208.5 42q195 0 313 -101t123 -269h-236q0 86 -51.5 131.5t-139.5 45.5h-18q-126 2 -216.5 -116t-88.5 -283q0 -128 64.5 -203.5t169.5 -75.5h18q81 0 140 48t81 129h235q-34 -174 -160 -272t-312 -98q-210 -2 -341.5 121
t-129.5 337zM982 1140h-143l-157 142l-220 -142h-167l289 294h241z" />
    <glyph glyph-name="Cdotaccent" unicode="&#x10a;" horiz-adv-x="1475" 
d="M118 614q0 239 94 428q95 192 269 302q175 110 403 110q152 1 276.5 -57.5t198 -170t76.5 -255.5h-248q-4 120 -92 192t-219 72h-21q-138 3 -251.5 -79.5t-176 -221t-60.5 -298.5q0 -197 106 -317t288 -120h20q128 0 228 69.5t129 193.5h248q-39 -231 -207 -356.5
t-426 -125.5q-183 -2 -329 79t-227 226.5t-79 328.5zM817 1580l54 254h256l-54 -254h-256z" />
    <glyph glyph-name="cdotaccent" unicode="&#x10b;" horiz-adv-x="1124" 
d="M65 438q-2 133 43 248.5t121 193.5t176.5 122t208.5 42q195 0 313 -101t123 -269h-236q0 86 -51.5 131.5t-139.5 45.5h-18q-126 2 -216.5 -116t-88.5 -283q0 -128 64.5 -203.5t169.5 -75.5h18q81 0 140 48t81 129h235q-34 -174 -160 -272t-312 -98q-210 -2 -341.5 121
t-129.5 337zM543 1179l54 255h256l-54 -255h-256z" />
    <glyph glyph-name="Ccaron" unicode="&#x10c;" horiz-adv-x="1475" 
d="M118 614q0 239 94 428q95 192 269 302q175 110 403 110q152 1 276.5 -57.5t198 -170t76.5 -255.5h-248q-4 120 -92 192t-219 72h-21q-138 3 -251.5 -79.5t-176 -221t-60.5 -298.5q0 -197 106 -317t288 -120h20q128 0 228 69.5t129 193.5h248q-39 -231 -207 -356.5
t-426 -125.5q-183 -2 -329 79t-227 226.5t-79 328.5zM1187 1822h190l-301 -284h-264l-183 284h168l169 -130z" />
    <glyph glyph-name="ccaron" unicode="&#x10d;" horiz-adv-x="1124" 
d="M65 438q-2 133 43 248.5t121 193.5t176.5 122t208.5 42q195 0 313 -101t123 -269h-236q0 86 -51.5 131.5t-139.5 45.5h-18q-126 2 -216.5 -116t-88.5 -283q0 -128 64.5 -203.5t169.5 -75.5h18q81 0 140 48t81 129h235q-34 -174 -160 -272t-312 -98q-210 -2 -341.5 121
t-129.5 337zM918 1434h162l-289 -294h-240l-157 294h147l157 -143z" />
    <glyph glyph-name="Dcaron" unicode="&#x10e;" horiz-adv-x="1479" 
d="M50 0l305 1434h403q244 0 389 -90q147 -88 207 -225q61 -135 61 -289q0 -214 -85 -403q-84 -191 -249 -309q-163 -118 -392 -118h-639zM346 219h332q158 0 268 85q111 84 167 224q56 139 56 294q0 185 -106 288q-106 104 -303 104h-207zM1086 1822h190l-301 -284h-264
l-183 284h168l169 -130z" />
    <glyph glyph-name="dcaron" unicode="&#x10f;" horiz-adv-x="1372" 
d="M63 435q0 173 74 313q75 140 195 218q122 78 251 78q114 0 203 -50t128 -131l121 571h238l-308 -1434h-235l24 115q-31 -53 -114 -94t-168 -41q-179 -2 -294.5 123.5t-114.5 331.5zM520 174h18q88 -2 159 58.5t108.5 158.5t36.5 208q0 112 -61 181.5t-160 69.5h-19
q-76 1 -146.5 -53.5t-113.5 -149t-41 -200.5q0 -120 60 -196t159 -77zM1280 976l28 131h44q52 0 78.5 19t34.5 59l2 9h-102l50 240h236l-53 -251q-42 -207 -264 -207h-54z" />
    <glyph glyph-name="Dcroat" unicode="&#x110;" horiz-adv-x="1519" 
d="M1455 830q0 -214 -85 -403q-84 -191 -249 -309q-163 -118 -392 -118h-639l129 607h-178l46 220h179l129 607h403q244 0 389 -90q147 -88 207 -225q61 -135 61 -289zM1209 822q0 185 -106 288q-106 104 -303 104h-207l-81 -387h305l-47 -220h-303l-81 -388h332
q158 0 268 85q111 84 167 224q56 139 56 294z" />
    <glyph glyph-name="dcroat" unicode="&#x111;" horiz-adv-x="1238" 
d="M1421 1314l-36 -173h-174l-245 -1141h-235l24 115q-31 -53 -114 -94t-168 -41q-179 -2 -294.5 123.5t-114.5 331.5q0 173 74 313q75 140 195 218q122 78 251 78q114 0 203 -50t128 -131l59 278h-295l37 173h295l25 120h238l-26 -120h173zM843 599q0 112 -61 181.5
t-160 69.5h-19q-76 1 -146.5 -53.5t-113.5 -149t-41 -200.5q0 -120 60 -196t159 -77h18q88 -2 159 58.5t108.5 158.5t36.5 208z" />
    <glyph glyph-name="Emacron" unicode="&#x112;" horiz-adv-x="1346" 
d="M50 0l305 1434h1068l-47 -220h-822l-80 -369h701l-46 -220h-701l-86 -406h842l-46 -219h-1088zM594 1580l41 194h640l-41 -194h-640z" />
    <glyph glyph-name="emacron" unicode="&#x113;" horiz-adv-x="1140" 
d="M66 468q0 166 73 296q74 132 200 206q127 74 277 74q189 2 306 -113.5t115 -296.5q0 -102 -23 -183h-724v-22q0 -117 65.5 -186.5t172.5 -69.5h18q79 0 139 38.5t83 103.5h235q-45 -161 -167 -248t-310 -87q-204 -2 -333 133.5t-127 354.5zM313 634h498q2 16 2 34
q0 84 -56 133.5t-150 49.5h-18q-98 0 -172 -58.5t-104 -158.5zM342 1179l40 189h602l-40 -189h-602z" />
    <glyph glyph-name="Ebreve" unicode="&#x114;" horiz-adv-x="1346" 
d="M50 0l305 1434h1068l-47 -220h-822l-80 -369h701l-46 -220h-701l-86 -406h842l-46 -219h-1088zM635 1770q0 21 5 53h191q-2 -22 -2 -27q0 -47 32 -73t87 -26q60 0 102.5 32t61.5 94h191q-29 -142 -127.5 -221t-247.5 -79q-129 0 -211 68.5t-82 178.5z" />
    <glyph glyph-name="ebreve" unicode="&#x115;" horiz-adv-x="1140" 
d="M66 468q0 166 73 296q74 132 200 206q127 74 277 74q189 2 306 -113.5t115 -296.5q0 -102 -23 -183h-724v-22q0 -117 65.5 -186.5t172.5 -69.5h18q79 0 139 38.5t83 103.5h235q-45 -161 -167 -248t-310 -87q-204 -2 -333 133.5t-127 354.5zM313 634h498q2 16 2 34
q0 84 -56 133.5t-150 49.5h-18q-98 0 -172 -58.5t-104 -158.5zM374 1378q0 19 5 56h190q-2 -14 -2 -29q0 -59 32.5 -88.5t89.5 -29.5q56 0 98 36.5t63 110.5h190q-39 -154 -135.5 -234.5t-236.5 -80.5q-130 0 -212 69.5t-82 189.5z" />
    <glyph glyph-name="Edotaccent" unicode="&#x116;" horiz-adv-x="1346" 
d="M50 0l305 1434h1068l-47 -220h-822l-80 -369h701l-46 -220h-701l-86 -406h842l-46 -219h-1088zM793 1580l54 254h256l-54 -254h-256z" />
    <glyph glyph-name="edotaccent" unicode="&#x117;" horiz-adv-x="1140" 
d="M66 468q0 166 73 296q74 132 200 206q127 74 277 74q189 2 306 -113.5t115 -296.5q0 -102 -23 -183h-724v-22q0 -117 65.5 -186.5t172.5 -69.5h18q79 0 139 38.5t83 103.5h235q-45 -161 -167 -248t-310 -87q-204 -2 -333 133.5t-127 354.5zM313 634h498q2 16 2 34
q0 84 -56 133.5t-150 49.5h-18q-98 0 -172 -58.5t-104 -158.5zM536 1179l54 255h256l-54 -255h-256z" />
    <glyph glyph-name="Eogonek" unicode="&#x118;" horiz-adv-x="1346" 
d="M1376 1214h-822l-80 -369h701l-46 -220h-701l-86 -406h842l-46 -219q-99 -49 -151.5 -99.5t-52.5 -110.5q0 -77 90 -77h67l-32 -152h-94q-96 0 -147.5 42t-51.5 121q0 84 60 159q62 73 144 117h-920l305 1434h1068z" />
    <glyph glyph-name="eogonek" unicode="&#x119;" horiz-adv-x="1140" 
d="M1037 634q0 -102 -23 -183h-724v-22q0 -117 65.5 -186.5t172.5 -69.5h18q79 0 139 38.5t83 103.5h235q-33 -125 -114 -205.5t-206 -111.5q-98 -49 -149 -99t-51 -109q0 -77 90 -77h67l-32 -152h-94q-96 0 -147.5 42t-51.5 121q0 77 49 144q48 66 123 113
q-190 14 -305.5 146t-115.5 341q0 166 73 296q74 132 200 206q127 74 277 74q189 2 306 -113.5t115 -296.5zM813 668q0 84 -56 133.5t-150 49.5h-18q-98 0 -172 -58.5t-104 -158.5h498q2 16 2 34z" />
    <glyph glyph-name="Ecaron" unicode="&#x11a;" horiz-adv-x="1346" 
d="M50 0l305 1434h1068l-47 -220h-822l-80 -369h701l-46 -220h-701l-86 -406h842l-46 -219h-1088zM1163 1822h190l-301 -284h-264l-183 284h168l169 -130z" />
    <glyph glyph-name="ecaron" unicode="&#x11b;" horiz-adv-x="1140" 
d="M66 468q0 166 73 296q74 132 200 206q127 74 277 74q189 2 306 -113.5t115 -296.5q0 -102 -23 -183h-724v-22q0 -117 65.5 -186.5t172.5 -69.5h18q79 0 139 38.5t83 103.5h235q-45 -161 -167 -248t-310 -87q-204 -2 -333 133.5t-127 354.5zM313 634h498q2 16 2 34
q0 84 -56 133.5t-150 49.5h-18q-98 0 -172 -58.5t-104 -158.5zM911 1434h162l-289 -294h-240l-157 294h147l157 -143z" />
    <glyph glyph-name="Gcircumflex" unicode="&#x11c;" horiz-adv-x="1564" 
d="M116 613q0 232 98 425q97 190 277 304q179 112 415 112q248 3 413 -141t166 -362h-246q-9 128 -106 205t-235 79h-21q-149 0 -268 -83q-118 -83 -182 -219q-65 -138 -65 -295q0 -200 100 -318t266 -121h21q162 0 291 85t188 236h-437l45 219h468q67 0 109.5 -37.5
t42.5 -99.5q0 -28 -7 -71l-110 -531h-209l38 183q-68 -89 -187 -146t-253 -57q-130 -2 -244.5 45t-196 130t-127.5 202t-44 256zM1328 1539h-163l-169 130l-221 -130h-196l302 284h264z" />
    <glyph glyph-name="gcircumflex" unicode="&#x11d;" horiz-adv-x="1225" 
d="M-45 -121h243q12 -63 66.5 -98.5t138.5 -35.5h21q230 0 291 267l23 103q-115 -115 -267 -115q-177 -2 -292 114.5t-113 324.5q-2 126 39 240t110.5 194.5t163.5 126.5t196 44q115 0 203.5 -52.5t119.5 -128.5l33 161h241l-224 -1051q-42 -197 -188.5 -308t-361.5 -111
q-119 0 -214 34.5t-157 109t-72 181.5zM510 193h18q86 -2 156.5 55t108 147.5t36.5 189.5q0 119 -58 192.5t-158 73.5h-18q-119 3 -207.5 -118t-86.5 -284q0 -115 58 -185.5t151 -70.5zM974 1140h-143l-157 142l-220 -142h-167l289 294h241z" />
    <glyph glyph-name="Gbreve" unicode="&#x11e;" horiz-adv-x="1564" 
d="M116 613q0 232 98 425q97 190 277 304q179 112 415 112q248 3 413 -141t166 -362h-246q-9 128 -106 205t-235 79h-21q-149 0 -268 -83q-118 -83 -182 -219q-65 -138 -65 -295q0 -200 100 -318t266 -121h21q162 0 291 85t188 236h-437l45 219h468q67 0 109.5 -37.5
t42.5 -99.5q0 -28 -7 -71l-110 -531h-209l38 183q-68 -89 -187 -146t-253 -57q-130 -2 -244.5 45t-196 130t-127.5 202t-44 256zM694 1770q0 21 5 53h191q-2 -22 -2 -27q0 -47 32 -73t87 -26q60 0 102.5 32t61.5 94h191q-29 -142 -127.5 -221t-247.5 -79q-129 0 -211 68.5
t-82 178.5z" />
    <glyph glyph-name="gbreve" unicode="&#x11f;" horiz-adv-x="1225" 
d="M-45 -121h243q12 -63 66.5 -98.5t138.5 -35.5h21q230 0 291 267l23 103q-115 -115 -267 -115q-177 -2 -292 114.5t-113 324.5q-2 126 39 240t110.5 194.5t163.5 126.5t196 44q115 0 203.5 -52.5t119.5 -128.5l33 161h241l-224 -1051q-42 -197 -188.5 -308t-361.5 -111
q-119 0 -214 34.5t-157 109t-72 181.5zM510 193h18q86 -2 156.5 55t108 147.5t36.5 189.5q0 119 -58 192.5t-158 73.5h-18q-119 3 -207.5 -118t-86.5 -284q0 -115 58 -185.5t151 -70.5zM372 1378q0 19 5 56h190q-2 -14 -2 -29q0 -59 32.5 -88.5t89.5 -29.5q56 0 98 36.5
t63 110.5h190q-39 -154 -135.5 -234.5t-236.5 -80.5q-130 0 -212 69.5t-82 189.5z" />
    <glyph glyph-name="Gdotaccent" unicode="&#x120;" horiz-adv-x="1564" 
d="M116 613q0 232 98 425q97 190 277 304q179 112 415 112q248 3 413 -141t166 -362h-246q-9 128 -106 205t-235 79h-21q-149 0 -268 -83q-118 -83 -182 -219q-65 -138 -65 -295q0 -200 100 -318t266 -121h21q162 0 291 85t188 236h-437l45 219h468q67 0 109.5 -37.5
t42.5 -99.5q0 -28 -7 -71l-110 -531h-209l38 183q-68 -89 -187 -146t-253 -57q-130 -2 -244.5 45t-196 130t-127.5 202t-44 256zM851 1580l54 254h256l-54 -254h-256z" />
    <glyph glyph-name="gdotaccent" unicode="&#x121;" horiz-adv-x="1225" 
d="M-45 -121h243q12 -63 66.5 -98.5t138.5 -35.5h21q230 0 291 267l23 103q-115 -115 -267 -115q-177 -2 -292 114.5t-113 324.5q-2 126 39 240t110.5 194.5t163.5 126.5t196 44q115 0 203.5 -52.5t119.5 -128.5l33 161h241l-224 -1051q-42 -197 -188.5 -308t-361.5 -111
q-119 0 -214 34.5t-157 109t-72 181.5zM510 193h18q86 -2 156.5 55t108 147.5t36.5 189.5q0 119 -58 192.5t-158 73.5h-18q-119 3 -207.5 -118t-86.5 -284q0 -115 58 -185.5t151 -70.5zM535 1179l54 255h256l-54 -255h-256z" />
    <glyph glyph-name="uni0122" unicode="&#x122;" horiz-adv-x="1564" 
d="M116 613q0 232 98 425q97 190 277 304q179 112 415 112q248 3 413 -141t166 -362h-246q-9 128 -106 205t-235 79h-21q-149 0 -268 -83q-118 -83 -182 -219q-65 -138 -65 -295q0 -200 100 -318t266 -121h21q162 0 291 85t188 236h-437l45 219h468q67 0 109.5 -37.5
t42.5 -99.5q0 -28 -7 -71l-110 -531h-209l38 183q-68 -89 -187 -146t-253 -57q-130 -2 -244.5 45t-196 130t-127.5 202t-44 256zM442 -613l28 131h44q52 0 78.5 19t34.5 59l2 9h-102l50 240h236l-53 -251q-42 -207 -264 -207h-54z" />
    <glyph glyph-name="uni0123" unicode="&#x123;" horiz-adv-x="1225" 
d="M-45 -121h243q12 -63 66.5 -98.5t138.5 -35.5h21q230 0 291 267l23 103q-115 -115 -267 -115q-177 -2 -292 114.5t-113 324.5q-2 126 39 240t110.5 194.5t163.5 126.5t196 44q115 0 203.5 -52.5t119.5 -128.5l33 161h241l-224 -1051q-42 -197 -188.5 -308t-361.5 -111
q-119 0 -214 34.5t-157 109t-72 181.5zM510 193h18q86 -2 156.5 55t108 147.5t36.5 189.5q0 119 -58 192.5t-158 73.5h-18q-119 3 -207.5 -118t-86.5 -284q0 -115 58 -185.5t151 -70.5zM921 1649l-28 -131h-44q-52 0 -78.5 -19t-34.5 -59l-2 -9h102l-50 -240h-236l53 251
q42 207 264 207h54z" />
    <glyph glyph-name="Hcircumflex" unicode="&#x124;" horiz-adv-x="1514" 
d="M50 0l305 1434h246l-130 -607h669l129 607h246l-305 -1434h-246l130 607h-669l-129 -607h-246zM1317 1539h-163l-169 130l-221 -130h-196l302 284h264z" />
    <glyph glyph-name="hcircumflex" unicode="&#x125;" horiz-adv-x="1172" 
d="M1060 757q0 -49 -11 -113l-137 -644h-236l134 625q9 52 9 83q0 68 -35.5 105.5t-105.5 37.5h-18q-98 0 -179.5 -79.5t-110.5 -219.5l-117 -552h-236l305 1434h235l-114 -539q125 149 309 149q138 0 223 -81t85 -206zM1127 1529h-143l-157 142l-220 -142h-167l289 294h241
z" />
    <glyph glyph-name="Hbar" unicode="&#x126;" horiz-adv-x="1626" 
d="M1732 1228l-44 -205h-205l-218 -1023h-246l130 607h-669l-129 -607h-246l218 1023h-207l45 205h205l44 206h246l-44 -206h668l44 206h246l-44 -206h206zM1195 827l42 196h-669l-42 -196h669z" />
    <glyph glyph-name="hbar" unicode="&#x127;" horiz-adv-x="1172" 
d="M1060 757q0 -49 -11 -113l-137 -644h-236l134 625q9 52 9 83q0 68 -35.5 105.5t-105.5 37.5h-18q-98 0 -179.5 -79.5t-110.5 -219.5l-117 -552h-236l243 1141h-173l37 173h172l26 120h235l-26 -120h298l-36 -173h-298l-52 -246q125 149 309 149q138 0 223 -81t85 -206z
" />
    <glyph glyph-name="Itilde" unicode="&#x128;" horiz-adv-x="600" 
d="M50 0l305 1434h246l-305 -1434h-246zM500 1588l-38 26q-62 38 -85 35q-63 0 -82 -89h-175l9 44q21 100 93 165t162 67q44 0 75.5 -11.5t72.5 -37.5l36 -23l21 -13q44 -26 66 -26q31 0 52 24t28 65h176l-10 -45q-21 -109 -85 -169t-166 -60q-70 0 -150 48z" />
    <glyph glyph-name="itilde" unicode="&#x129;" horiz-adv-x="524" 
d="M17 0l217 1024h236l-217 -1024h-236zM398 1191l-44 27q-41 23 -58 30t-37 7q-69 0 -89 -98h-174l9 49q21 104 85 165t159 61q73 0 156 -48l45 -25l20 -11q56 -30 80 -30q33 0 51.5 23t28.5 74h173l-9 -50q-19 -103 -82 -163.5t-156 -60.5q-77 0 -158 50z" />
    <glyph glyph-name="Imacron" unicode="&#x12a;" horiz-adv-x="600" 
d="M50 0l305 1434h246l-305 -1434h-246zM181 1580l41 194h640l-41 -194h-640z" />
    <glyph glyph-name="imacron" unicode="&#x12b;" horiz-adv-x="524" 
d="M17 0l217 1024h236l-217 -1024h-236zM74 1179l40 189h602l-40 -189h-602z" />
    <glyph glyph-name="Ibreve" unicode="&#x12c;" horiz-adv-x="600" 
d="M50 0l305 1434h246l-305 -1434h-246zM225 1770q0 21 5 53h191q-2 -22 -2 -27q0 -47 32 -73t87 -26q60 0 102.5 32t61.5 94h191q-29 -142 -127.5 -221t-247.5 -79q-129 0 -211 68.5t-82 178.5z" />
    <glyph glyph-name="ibreve" unicode="&#x12d;" horiz-adv-x="524" 
d="M17 0l217 1024h236l-217 -1024h-236zM83 1378q0 19 5 56h190q-2 -14 -2 -29q0 -59 32.5 -88.5t89.5 -29.5q56 0 98 36.5t63 110.5h190q-39 -154 -135.5 -234.5t-236.5 -80.5q-130 0 -212 69.5t-82 189.5z" />
    <glyph glyph-name="Iogonek" unicode="&#x12e;" horiz-adv-x="600" 
d="M355 1434h246l-305 -1434h-1q-99 -49 -151.5 -99.5t-52.5 -110.5q0 -77 90 -77h67l-32 -152h-94q-96 0 -147.5 42t-51.5 121q0 85 61 159q60 73 143 117h-77z" />
    <glyph glyph-name="iogonek" unicode="&#x12f;" horiz-adv-x="524" 
d="M309 1434h256l-54 -255h-256zM17 0l217 1024h236l-217 -1024q-99 -49 -151.5 -99.5t-52.5 -110.5q0 -77 90 -77h67l-32 -152h-94q-96 0 -147.5 42t-51.5 121q0 85 61 159q60 73 143 117h-68z" />
    <glyph glyph-name="Idotaccent" unicode="&#x130;" horiz-adv-x="600" 
d="M50 0l305 1434h246l-305 -1434h-246zM382 1580l54 254h256l-54 -254h-256z" />
    <glyph glyph-name="dotlessi" unicode="&#x131;" horiz-adv-x="524" 
d="M17 0l217 1024h236l-217 -1024h-236z" />
    <glyph glyph-name="IJ" unicode="&#x132;" horiz-adv-x="1152" 
d="M39 0l51 236h416q83 0 127 35t61 114l224 1049h246l-230 -1074q-41 -192 -141 -276t-292 -84h-462zM128 413l216 1021h246l-217 -1021h-245z" />
    <glyph glyph-name="ij" unicode="&#x133;" horiz-adv-x="1015" 
d="M252 1179l54 255h256l-54 -255h-256zM740 1179l55 255h256l-55 -255h-256zM-67 -396l44 203h418q70 0 86 76l244 1141h236l-261 -1228q-20 -95 -77.5 -143.5t-147.5 -48.5h-542zM17 0l217 1024h236l-217 -1024h-236z" />
    <glyph glyph-name="Jcircumflex" unicode="&#x134;" horiz-adv-x="860" 
d="M-59 0l50 236h223q83 0 127 36t62 117l223 1045h246l-228 -1065q-42 -196 -146.5 -282.5t-302.5 -86.5h-254zM1128 1539h-163l-169 130l-221 -130h-196l302 284h264z" />
    <glyph glyph-name="jcircumflex" unicode="&#x135;" horiz-adv-x="542" 
d="M-342 -396l44 203h220q70 0 86 76l244 1141h235l-260 -1228q-41 -192 -226 -192h-343zM724 1140h-143l-157 142l-220 -142h-167l289 294h241z" />
    <glyph glyph-name="uni0136" unicode="&#x136;" horiz-adv-x="1470" 
d="M1573 1434l-739 -615l556 -819h-295l-448 663l-255 -212l-95 -451h-245l301 1434h245l-137 -652l778 652h334zM397 -613l28 131h44q52 0 78.5 19t34.5 59l2 9h-102l50 240h236l-53 -251q-42 -207 -264 -207h-54z" />
    <glyph glyph-name="uni0137" unicode="&#x137;" horiz-adv-x="1175" 
d="M17 0l305 1434h236l-177 -826l520 416h317l-530 -422l394 -602h-275l-298 460l-191 -152l-65 -308h-236zM249 -613l28 131h44q52 0 78.5 19t34.5 59l2 9h-102l50 240h236l-53 -251q-42 -207 -264 -207h-54z" />
    <glyph glyph-name="Lacute" unicode="&#x139;" horiz-adv-x="1281" 
d="M50 0l305 1434h246l-258 -1215h833l-46 -219h-1080zM417 1539l88 284h283l-204 -284h-167z" />
    <glyph glyph-name="lacute" unicode="&#x13a;" horiz-adv-x="524" 
d="M17 0l305 1434h236l-305 -1434h-236zM391 1550l113 294h260l-230 -294h-143z" />
    <glyph glyph-name="uni013B" unicode="&#x13b;" horiz-adv-x="1281" 
d="M50 0l305 1434h246l-258 -1215h833l-46 -219h-1080zM302 -613l28 131h44q52 0 78.5 19t34.5 59l2 9h-102l50 240h236l-53 -251q-42 -207 -264 -207h-54z" />
    <glyph glyph-name="uni013C" unicode="&#x13c;" horiz-adv-x="524" 
d="M17 0l305 1434h236l-305 -1434h-236zM-151 -613l28 131h44q52 0 78.5 19t34.5 59l2 9h-102l50 240h236l-53 -251q-42 -207 -264 -207h-54z" />
    <glyph glyph-name="Lcaron" unicode="&#x13d;" horiz-adv-x="1284" 
d="M50 0l305 1434h246l-258 -1215h833l-46 -219h-1080zM749 976l28 131h44q52 0 78.5 19t34.5 59l2 9h-102l50 240h236l-53 -251q-42 -207 -264 -207h-54z" />
    <glyph glyph-name="lcaron" unicode="&#x13e;" horiz-adv-x="657" 
d="M17 0l305 1434h236l-305 -1434h-236zM557 976l28 131h44q52 0 78.5 19t34.5 59l2 9h-102l50 240h236l-53 -251q-42 -207 -264 -207h-54z" />
    <glyph glyph-name="Ldot" unicode="&#x13f;" horiz-adv-x="1284" 
d="M50 0l305 1434h246l-258 -1215h833l-46 -219h-1080zM797 614l53 248h247l-53 -248h-247z" />
    <glyph glyph-name="ldot" unicode="&#x140;" horiz-adv-x="747" 
d="M17 0l305 1434h236l-305 -1434h-236zM512 593l53 248h247l-53 -248h-247z" />
    <glyph glyph-name="Lslash" unicode="&#x141;" horiz-adv-x="1384" 
d="M445 219h833l-46 -219h-1080l102 481l-224 -115l56 268l226 116l145 684h246l-115 -541l417 215l-58 -272l-416 -213z" />
    <glyph glyph-name="lslash" unicode="&#x142;" horiz-adv-x="663" 
d="M706 1048l-47 -225l-177 -87l-156 -736h-236l129 605l-189 -93l48 226l189 93l128 603h236l-101 -473z" />
    <glyph glyph-name="Nacute" unicode="&#x143;" horiz-adv-x="1535" 
d="M1290 1434h246l-305 -1434h-328l-368 1129l-239 -1129h-246l305 1434h328l363 -1148zM886 1539l88 284h283l-204 -284h-167z" />
    <glyph glyph-name="nacute" unicode="&#x144;" horiz-adv-x="1172" 
d="M1060 757q0 -49 -11 -113l-137 -644h-236l134 625q9 52 9 83q0 68 -35.5 105.5t-105.5 37.5h-18q-98 0 -179.5 -79.5t-110.5 -219.5l-117 -552h-236l217 1024h236l-27 -129q125 149 309 149q138 0 223 -81t85 -206zM661 1140l113 294h260l-230 -294h-143z" />
    <glyph glyph-name="uni0145" unicode="&#x145;" horiz-adv-x="1535" 
d="M1290 1434h246l-305 -1434h-328l-368 1129l-239 -1129h-246l305 1434h328l363 -1148zM355 -613l28 131h44q52 0 78.5 19t34.5 59l2 9h-102l50 240h236l-53 -251q-42 -207 -264 -207h-54z" />
    <glyph glyph-name="uni0146" unicode="&#x146;" horiz-adv-x="1172" 
d="M1060 757q0 -49 -11 -113l-137 -644h-236l134 625q9 52 9 83q0 68 -35.5 105.5t-105.5 37.5h-18q-98 0 -179.5 -79.5t-110.5 -219.5l-117 -552h-236l217 1024h236l-27 -129q125 149 309 149q138 0 223 -81t85 -206zM179 -613l28 131h44q52 0 78.5 19t34.5 59l2 9h-102
l50 240h236l-53 -251q-42 -207 -264 -207h-54z" />
    <glyph glyph-name="Ncaron" unicode="&#x147;" horiz-adv-x="1535" 
d="M1290 1434h246l-305 -1434h-328l-368 1129l-239 -1129h-246l305 1434h328l363 -1148zM1221 1822h190l-301 -284h-264l-183 284h168l169 -130z" />
    <glyph glyph-name="ncaron" unicode="&#x148;" horiz-adv-x="1172" 
d="M1060 757q0 -49 -11 -113l-137 -644h-236l134 625q9 52 9 83q0 68 -35.5 105.5t-105.5 37.5h-18q-98 0 -179.5 -79.5t-110.5 -219.5l-117 -552h-236l217 1024h236l-27 -129q125 149 309 149q138 0 223 -81t85 -206zM986 1434h162l-289 -294h-240l-157 294h147l157 -143z
" />
    <glyph glyph-name="Eng" unicode="&#x14a;" horiz-adv-x="1535" 
d="M584 -407l46 214h139q92 0 141 32.5t69 125.5l7 35l-458 1096l-232 -1096h-246l305 1434h284l432 -1033l219 1033h246l-317 -1491q-39 -189 -137 -269.5t-293 -80.5h-205z" />
    <glyph glyph-name="eng" unicode="&#x14b;" horiz-adv-x="1172" 
d="M300 -400l44 207h224q68 0 83 73l159 745q9 52 9 83q0 68 -35.5 105.5t-105.5 37.5h-18q-98 0 -179.5 -79.5t-110.5 -219.5l-117 -552h-236l217 1024h236l-27 -127q125 147 309 147q138 0 223 -81t85 -206q0 -49 -11 -113l-182 -854q-19 -92 -82 -141t-160 -49h-325z" />
    <glyph glyph-name="Omacron" unicode="&#x14c;" horiz-adv-x="1580" 
d="M116 611q0 237 94 428q95 193 266 303q172 112 400 112q183 2 329.5 -79.5t227.5 -228t79 -328.5q0 -236 -95 -428t-268 -301t-402 -109q-182 -2 -327.5 79.5t-225.5 226.5t-78 325zM755 199h26q139 -3 251.5 78.5t173 218t58.5 296.5q2 198 -111 321.5t-285 121.5h-26
q-136 3 -246.5 -76.5t-172 -217.5t-59.5 -303q-2 -196 108.5 -318.5t282.5 -120.5zM618 1580l41 194h640l-41 -194h-640z" />
    <glyph glyph-name="omacron" unicode="&#x14d;" horiz-adv-x="1188" 
d="M65 446q-2 132 42.5 245.5t120.5 191t178 120.5t214 41q219 2 344 -128.5t123 -337.5q2 -132 -42.5 -245.5t-120.5 -191t-178 -120.5t-214 -41q-219 -2 -344 128.5t-123 337.5zM539 173h18q116 -2 207 109.5t88 279.5q0 130 -63 210q-63 79 -177 79h-18q-116 2 -206 -109
t-88 -280q0 -131 63.5 -210t175.5 -79zM371 1179l40 189h602l-40 -189h-602z" />
    <glyph glyph-name="Obreve" unicode="&#x14e;" horiz-adv-x="1580" 
d="M116 611q0 237 94 428q95 193 266 303q172 112 400 112q183 2 329.5 -79.5t227.5 -228t79 -328.5q0 -236 -95 -428t-268 -301t-402 -109q-182 -2 -327.5 79.5t-225.5 226.5t-78 325zM755 199h26q139 -3 251.5 78.5t173 218t58.5 296.5q2 198 -111 321.5t-285 121.5h-26
q-136 3 -246.5 -76.5t-172 -217.5t-59.5 -303q-2 -196 108.5 -318.5t282.5 -120.5zM660 1770q0 21 5 53h191q-2 -22 -2 -27q0 -47 32 -73t87 -26q60 0 102.5 32t61.5 94h191q-29 -142 -127.5 -221t-247.5 -79q-129 0 -211 68.5t-82 178.5z" />
    <glyph glyph-name="obreve" unicode="&#x14f;" horiz-adv-x="1188" 
d="M65 446q-2 132 42.5 245.5t120.5 191t178 120.5t214 41q219 2 344 -128.5t123 -337.5q2 -132 -42.5 -245.5t-120.5 -191t-178 -120.5t-214 -41q-219 -2 -344 128.5t-123 337.5zM539 173h18q116 -2 207 109.5t88 279.5q0 130 -63 210q-63 79 -177 79h-18q-116 2 -206 -109
t-88 -280q0 -131 63.5 -210t175.5 -79zM403 1378q0 19 5 56h190q-2 -14 -2 -29q0 -59 32.5 -88.5t89.5 -29.5q56 0 98 36.5t63 110.5h190q-39 -154 -135.5 -234.5t-236.5 -80.5q-130 0 -212 69.5t-82 189.5z" />
    <glyph glyph-name="Ohungarumlaut" unicode="&#x150;" horiz-adv-x="1580" 
d="M116 611q0 237 94 428q95 193 266 303q172 112 400 112q183 2 329.5 -79.5t227.5 -228t79 -328.5q0 -236 -95 -428t-268 -301t-402 -109q-182 -2 -327.5 79.5t-225.5 226.5t-78 325zM755 199h26q139 -3 251.5 78.5t173 218t58.5 296.5q2 198 -111 321.5t-285 121.5h-26
q-136 3 -246.5 -76.5t-172 -217.5t-59.5 -303q-2 -196 108.5 -318.5t282.5 -120.5zM657 1539l88 284h283l-204 -284h-167zM1022 1539l88 284h283l-204 -284h-167z" />
    <glyph glyph-name="ohungarumlaut" unicode="&#x151;" horiz-adv-x="1188" 
d="M65 446q-2 132 42.5 245.5t120.5 191t178 120.5t214 41q219 2 344 -128.5t123 -337.5q2 -132 -42.5 -245.5t-120.5 -191t-178 -120.5t-214 -41q-219 -2 -344 128.5t-123 337.5zM539 173h18q116 -2 207 109.5t88 279.5q0 130 -63 210q-63 79 -177 79h-18q-116 2 -206 -109
t-88 -280q0 -131 63.5 -210t175.5 -79zM424 1140l113 294h260l-230 -294h-143zM750 1140l112 294h260l-230 -294h-142z" />
    <glyph glyph-name="OE" unicode="&#x152;" horiz-adv-x="2413" 
d="M116 611q0 237 94 428q95 193 266 303q172 112 400 112q162 0 289.5 -63t209.5 -179l47 222h1068l-47 -220h-822l-80 -369h700l-46 -220h-700l-87 -406h843l-46 -219h-1088l19 91q-167 -111 -389 -111q-182 -2 -327.5 79.5t-225.5 226.5t-78 325zM755 199h26
q139 -3 251.5 78.5t173 218t58.5 296.5q2 198 -111 321.5t-285 121.5h-26q-136 3 -246.5 -76.5t-172 -217.5t-59.5 -303q-2 -196 108.5 -318.5t282.5 -120.5z" />
    <glyph glyph-name="oe" unicode="&#x153;" horiz-adv-x="1929" 
d="M65 446q-2 132 42.5 245.5t120.5 191t178 120.5t214 41q257 0 382 -175q78 84 182 129.5t221 45.5q187 3 305 -114t116 -296q0 -102 -23 -183h-724v-22q0 -117 65.5 -186.5t172.5 -69.5h18q79 0 139 38.5t83 103.5h234q-43 -161 -165.5 -248t-310.5 -87q-120 0 -216 47
t-156 135q-77 -88 -183.5 -135t-227.5 -47q-219 -2 -344 128.5t-123 337.5zM539 173h18q116 -2 207 109.5t88 279.5q0 130 -63 210q-63 79 -177 79h-18q-116 2 -206 -109t-88 -280q0 -131 63.5 -210t175.5 -79zM1102 634h498q2 16 2 34q0 84 -56 133.5t-150 49.5h-19
q-98 0 -172 -59q-75 -60 -103 -158z" />
    <glyph glyph-name="Racute" unicode="&#x154;" horiz-adv-x="1402" 
d="M50 0l305 1434h556q195 0 307 -98.5t112 -260.5q0 -136 -75 -242t-205 -140q95 -4 145.5 -46t50.5 -116q0 -30 -11 -88l-96 -443h-246l90 425q5 30 5 44q0 47 -30 67t-97 20h-444l-119 -556h-248zM462 773h354q115 0 192 69.5t77 183.5q0 92 -62 140t-176 48h-291z
M729 1539l88 284h283l-204 -284h-167z" />
    <glyph glyph-name="racute" unicode="&#x155;" horiz-adv-x="782" 
d="M766 1034h65l-47 -224h-78q-137 0 -227.5 -81.5t-122.5 -233.5l-104 -495h-234l215 1024h233l-43 -202q60 110 143 161t200 51zM445 1140l113 294h260l-230 -294h-143z" />
    <glyph glyph-name="uni0156" unicode="&#x156;" horiz-adv-x="1402" 
d="M50 0l305 1434h556q195 0 307 -98.5t112 -260.5q0 -136 -75 -242t-205 -140q95 -4 145.5 -46t50.5 -116q0 -30 -11 -88l-96 -443h-246l90 425q5 30 5 44q0 47 -30 67t-97 20h-444l-119 -556h-248zM462 773h354q115 0 192 69.5t77 183.5q0 92 -62 140t-176 48h-291z
M309 -613l28 131h44q52 0 78.5 19t34.5 59l2 9h-102l50 240h236l-53 -251q-42 -207 -264 -207h-54z" />
    <glyph glyph-name="uni0157" unicode="&#x157;" horiz-adv-x="782" 
d="M766 1034h65l-47 -224h-78q-137 0 -227.5 -81.5t-122.5 -233.5l-104 -495h-234l215 1024h233l-43 -202q60 110 143 161t200 51zM-151 -613l28 131h44q52 0 78.5 19t34.5 59l2 9h-102l50 240h236l-53 -251q-42 -207 -264 -207h-54z" />
    <glyph glyph-name="Rcaron" unicode="&#x158;" horiz-adv-x="1402" 
d="M50 0l305 1434h556q195 0 307 -98.5t112 -260.5q0 -136 -75 -242t-205 -140q95 -4 145.5 -46t50.5 -116q0 -30 -11 -88l-96 -443h-246l90 425q5 30 5 44q0 47 -30 67t-97 20h-444l-119 -556h-248zM462 773h354q115 0 192 69.5t77 183.5q0 92 -62 140t-176 48h-291z
M1063 1822h190l-301 -284h-264l-183 284h168l169 -130z" />
    <glyph glyph-name="rcaron" unicode="&#x159;" horiz-adv-x="782" 
d="M766 1034h65l-47 -224h-78q-137 0 -227.5 -81.5t-122.5 -233.5l-104 -495h-234l215 1024h233l-43 -202q60 110 143 161t200 51zM769 1434h162l-289 -294h-240l-157 294h147l157 -143z" />
    <glyph glyph-name="Sacute" unicode="&#x15a;" horiz-adv-x="1284" 
d="M38 429q0 24 2 44h243v-26q0 -123 87 -186q88 -62 232 -62h21q121 0 198 52.5t77 136.5q0 66 -51 111.5t-173 88.5l-165 62q-153 57 -224.5 145t-71.5 225q-2 120 67.5 220.5t194 158t273.5 55.5q121 1 223.5 -35t169 -98t103 -141t35.5 -165v-23h-246q-2 117 -80 179
q-77 64 -209 64h-20q-112 0 -188.5 -55t-76.5 -138q0 -57 35 -95t108 -66l220 -87q169 -66 245.5 -158t76.5 -227q3 -188 -146 -309.5t-385 -119.5q-270 -2 -423.5 125.5t-151.5 323.5zM734 1539l88 284h283l-204 -284h-167z" />
    <glyph glyph-name="sacute" unicode="&#x15b;" horiz-adv-x="1000" 
d="M1 329h239q5 -75 57 -115q53 -41 128 -41h19q71 0 115.5 33t44.5 86q0 68 -92 101l-126 49q-130 49 -191 116.5t-61 167.5q-3 133 115 226.5t290 91.5q116 1 209.5 -39.5t148.5 -120t53 -183.5h-237q-1 67 -52.5 108.5t-122.5 41.5h-18q-68 0 -109.5 -30.5t-41.5 -82.5
q0 -66 94 -101l137 -54q109 -42 176 -106q67 -63 67 -178q2 -138 -116.5 -229.5t-291.5 -89.5q-203 0 -315.5 93.5t-118.5 255.5zM519 1140l113 294h260l-230 -294h-143z" />
    <glyph glyph-name="Scircumflex" unicode="&#x15c;" horiz-adv-x="1284" 
d="M38 429q0 24 2 44h243v-26q0 -123 87 -186q88 -62 232 -62h21q121 0 198 52.5t77 136.5q0 66 -51 111.5t-173 88.5l-165 62q-153 57 -224.5 145t-71.5 225q-2 120 67.5 220.5t194 158t273.5 55.5q121 1 223.5 -35t169 -98t103 -141t35.5 -165v-23h-246q-2 117 -80 179
q-77 64 -209 64h-20q-112 0 -188.5 -55t-76.5 -138q0 -57 35 -95t108 -66l220 -87q169 -66 245.5 -158t76.5 -227q3 -188 -146 -309.5t-385 -119.5q-270 -2 -423.5 125.5t-151.5 323.5zM1175 1539h-163l-169 130l-221 -130h-196l302 284h264z" />
    <glyph glyph-name="scircumflex" unicode="&#x15d;" horiz-adv-x="1000" 
d="M1 329h239q5 -75 57 -115q53 -41 128 -41h19q71 0 115.5 33t44.5 86q0 68 -92 101l-126 49q-130 49 -191 116.5t-61 167.5q-3 133 115 226.5t290 91.5q116 1 209.5 -39.5t148.5 -120t53 -183.5h-237q-1 67 -52.5 108.5t-122.5 41.5h-18q-68 0 -109.5 -30.5t-41.5 -82.5
q0 -66 94 -101l137 -54q109 -42 176 -106q67 -63 67 -178q2 -138 -116.5 -229.5t-291.5 -89.5q-203 0 -315.5 93.5t-118.5 255.5zM908 1140h-143l-157 142l-220 -142h-167l289 294h241z" />
    <glyph glyph-name="Scedilla" unicode="&#x15e;" horiz-adv-x="1284" 
d="M459 1042q0 -57 35 -95t108 -66l220 -87q169 -66 245.5 -158t76.5 -227q2 -185 -142.5 -306.5t-375.5 -122.5l-14 -72q67 -9 107 -53t40 -112q0 -102 -72 -169t-184 -67h-182l31 145h161q45 0 70.5 21.5t25.5 57.5q0 27 -19 42.5t-52 15.5h-81l42 197q-220 26 -340.5 147
t-120.5 296q0 24 2 44h243v-26q0 -123 87 -186q88 -62 232 -62h21q121 0 198 52.5t77 136.5q0 66 -51 111.5t-173 88.5l-165 62q-153 57 -224.5 145t-71.5 225q-2 120 67.5 220.5t194 158t273.5 55.5q121 1 223.5 -35t169 -98t103 -141t35.5 -165v-23h-246q-2 117 -80 179
q-77 64 -209 64h-20q-112 0 -188.5 -55t-76.5 -138z" />
    <glyph glyph-name="scedilla" unicode="&#x15f;" horiz-adv-x="1000" 
d="M369 738q0 -66 94 -101l137 -54q109 -42 176 -106q67 -63 67 -178q2 -131 -106.5 -221.5t-269.5 -96.5l-14 -73q67 -9 107 -53t40 -112q0 -102 -72 -169t-184 -67h-182l31 145h161q45 0 70.5 21.5t25.5 57.5q0 27 -19 42.5t-52 15.5h-81l42 197q-158 21 -246 111t-93 232
h239q5 -75 57 -115q53 -41 128 -41h19q71 0 115.5 33t44.5 86q0 68 -92 101l-126 49q-130 49 -191 116.5t-61 167.5q-3 133 115 226.5t290 91.5q116 1 209.5 -39.5t148.5 -120t53 -183.5h-237q-1 67 -52.5 108.5t-122.5 41.5h-18q-68 0 -109.5 -30.5t-41.5 -82.5z" />
    <glyph glyph-name="Scaron" unicode="&#x160;" horiz-adv-x="1284" 
d="M38 429q0 24 2 44h243v-26q0 -123 87 -186q88 -62 232 -62h21q121 0 198 52.5t77 136.5q0 66 -51 111.5t-173 88.5l-165 62q-153 57 -224.5 145t-71.5 225q-2 120 67.5 220.5t194 158t273.5 55.5q121 1 223.5 -35t169 -98t103 -141t35.5 -165v-23h-246q-2 117 -80 179
q-77 64 -209 64h-20q-112 0 -188.5 -55t-76.5 -138q0 -57 35 -95t108 -66l220 -87q169 -66 245.5 -158t76.5 -227q3 -188 -146 -309.5t-385 -119.5q-270 -2 -423.5 125.5t-151.5 323.5zM1069 1822h190l-301 -284h-264l-183 284h168l169 -130z" />
    <glyph glyph-name="scaron" unicode="&#x161;" horiz-adv-x="1000" 
d="M1 329h239q5 -75 57 -115q53 -41 128 -41h19q71 0 115.5 33t44.5 86q0 68 -92 101l-126 49q-130 49 -191 116.5t-61 167.5q-3 133 115 226.5t290 91.5q116 1 209.5 -39.5t148.5 -120t53 -183.5h-237q-1 67 -52.5 108.5t-122.5 41.5h-18q-68 0 -109.5 -30.5t-41.5 -82.5
q0 -66 94 -101l137 -54q109 -42 176 -106q67 -63 67 -178q2 -138 -116.5 -229.5t-291.5 -89.5q-203 0 -315.5 93.5t-118.5 255.5zM844 1434h162l-289 -294h-240l-157 294h147l157 -143z" />
    <glyph glyph-name="uni0162" unicode="&#x162;" horiz-adv-x="1314" 
d="M209 1434h1250l-46 -220h-503l-258 -1214h-57l-18 -92q67 -9 107 -53t40 -112q0 -102 -72 -169t-184 -67h-182l31 145h161q45 0 70.5 21.5t25.5 57.5q0 27 -19 42.5t-52 15.5h-81l45 211h-60l258 1214h-502z" />
    <glyph glyph-name="uni0163" unicode="&#x163;" horiz-adv-x="833" 
d="M535 829l-115 -538q-4 -17 -4 -30q0 -58 64 -58h223l-43 -203h-223l-18 -92q67 -9 107 -53t40 -112q0 -102 -72 -169t-184 -67h-182l31 145h161q45 0 70.5 21.5t25.5 57.5q0 27 -19 42.5t-52 15.5h-81l46 219q-64 16 -100 61.5t-36 112.5q0 35 6 61l123 586h-225l40 195
h229l71 332h230l-72 -332h248l-40 -195h-249z" />
    <glyph glyph-name="Tcaron" unicode="&#x164;" horiz-adv-x="1314" 
d="M407 0l258 1214h-502l46 220h1250l-46 -220h-503l-258 -1214h-245zM1108 1822h190l-301 -284h-264l-183 284h168l169 -130z" />
    <glyph glyph-name="tcaron" unicode="&#x165;" horiz-adv-x="833" 
d="M535 829l-115 -538q-4 -17 -4 -30q0 -58 64 -58h223l-43 -203h-284q-92 0 -147 49t-55 133q0 35 6 61l123 586h-225l40 195h229l71 332h230l-72 -332h248l-40 -195h-249zM758 1140l28 131h44q52 0 78.5 19t34.5 59l2 9h-102l50 240h236l-53 -251q-42 -207 -264 -207h-54z
" />
    <glyph glyph-name="Tbar" unicode="&#x166;" horiz-adv-x="1371" 
d="M1439 1214h-503l-73 -343h381l-47 -214h-379l-140 -657h-245l140 657h-372l47 214h370l73 343h-502l46 220h1250z" />
    <glyph glyph-name="tbar" unicode="&#x167;" horiz-adv-x="859" 
d="M804 829h-249l-39 -183h249l-36 -173h-250l-39 -182q-4 -17 -4 -30q0 -58 64 -58h223l-43 -203h-284q-92 0 -147 49t-55 133q0 35 6 61l48 230h-225l37 173h225l38 183h-225l40 195h229l71 332h230l-72 -332h248z" />
    <glyph glyph-name="Utilde" unicode="&#x168;" horiz-adv-x="1439" 
d="M138 411q0 81 18 166l183 857h246l-185 -865q-17 -80 -17 -135q0 -116 67 -175t193 -60h21q137 0 224.5 75.5t120.5 225.5l199 934h246l-211 -990q-48 -224 -203 -344t-406 -120q-227 -2 -362.5 119t-133.5 312zM904 1588l-38 26q-62 38 -85 35q-63 0 -82 -89h-175l9 44
q21 100 93 165t162 67q44 0 75.5 -11.5t72.5 -37.5l36 -23l21 -13q44 -26 66 -26q31 0 52 24t28 65h176l-10 -45q-21 -109 -85 -169t-166 -60q-70 0 -150 48z" />
    <glyph glyph-name="utilde" unicode="&#x169;" horiz-adv-x="1171" 
d="M876 1024h241l-217 -1024h-236l25 118q-117 -138 -290 -138q-138 0 -229 83t-91 234q0 45 10 98l133 629h237l-133 -625q-9 -49 -9 -69q0 -74 37.5 -115.5t102.5 -41.5h18q95 0 177.5 90t110.5 229zM703 1191l-44 27q-41 23 -58 30t-37 7q-69 0 -89 -98h-174l9 49
q21 104 85 165t159 61q73 0 156 -48l45 -25l20 -11q55 -30 80 -30q33 0 51.5 23t28.5 74h173l-9 -50q-19 -103 -82 -163.5t-156 -60.5q-77 0 -158 50z" />
    <glyph glyph-name="Umacron" unicode="&#x16a;" horiz-adv-x="1439" 
d="M138 411q0 81 18 166l183 857h246l-185 -865q-17 -80 -17 -135q0 -116 67 -175t193 -60h21q137 0 224.5 75.5t120.5 225.5l199 934h246l-211 -990q-48 -224 -203 -344t-406 -120q-227 -2 -362.5 119t-133.5 312zM587 1580l41 194h640l-41 -194h-640z" />
    <glyph glyph-name="umacron" unicode="&#x16b;" horiz-adv-x="1171" 
d="M876 1024h241l-217 -1024h-236l25 118q-117 -138 -290 -138q-138 0 -229 83t-91 234q0 45 10 98l133 629h237l-133 -625q-9 -49 -9 -69q0 -74 37.5 -115.5t102.5 -41.5h18q95 0 177.5 90t110.5 229zM382 1179l40 189h602l-40 -189h-602z" />
    <glyph glyph-name="Ubreve" unicode="&#x16c;" horiz-adv-x="1439" 
d="M138 411q0 81 18 166l183 857h246l-185 -865q-17 -80 -17 -135q0 -116 67 -175t193 -60h21q137 0 224.5 75.5t120.5 225.5l199 934h246l-211 -990q-48 -224 -203 -344t-406 -120q-227 -2 -362.5 119t-133.5 312zM629 1770q0 21 5 53h191q-2 -22 -2 -27q0 -47 32 -73
t87 -26q60 0 102.5 32t61.5 94h191q-29 -142 -127.5 -221t-247.5 -79q-129 0 -211 68.5t-82 178.5z" />
    <glyph glyph-name="ubreve" unicode="&#x16d;" horiz-adv-x="1171" 
d="M876 1024h241l-217 -1024h-236l25 118q-117 -138 -290 -138q-138 0 -229 83t-91 234q0 45 10 98l133 629h237l-133 -625q-9 -49 -9 -69q0 -74 37.5 -115.5t102.5 -41.5h18q95 0 177.5 90t110.5 229zM413 1378q0 19 5 56h190q-2 -14 -2 -29q0 -59 32.5 -88.5t89.5 -29.5
q56 0 98 36.5t63 110.5h190q-39 -154 -135.5 -234.5t-236.5 -80.5q-130 0 -212 69.5t-82 189.5z" />
    <glyph glyph-name="Uring" unicode="&#x16e;" horiz-adv-x="1439" 
d="M138 411q0 81 18 166l183 857h246l-185 -865q-17 -80 -17 -135q0 -116 67 -175t193 -60h21q137 0 224.5 75.5t120.5 225.5l199 934h246l-211 -990q-48 -224 -203 -344t-406 -120q-227 -2 -362.5 119t-133.5 312zM718 1720q-2 81 63 145.5t144 62.5q85 0 146.5 -62
t61.5 -146q0 -87 -61 -147t-147 -60q-83 0 -145 60.5t-62 146.5zM1001 1720q0 31 -22 54t-53 23q-30 0 -53 -23t-23 -54q0 -30 23 -53t53 -23t52.5 23t22.5 53z" />
    <glyph glyph-name="uring" unicode="&#x16f;" horiz-adv-x="1171" 
d="M876 1024h241l-217 -1024h-236l25 118q-117 -138 -290 -138q-138 0 -229 83t-91 234q0 45 10 98l133 629h237l-133 -625q-9 -49 -9 -69q0 -74 37.5 -115.5t102.5 -41.5h18q95 0 177.5 90t110.5 229zM519 1324q-1 82 63 145.5t144 61.5q85 0 145.5 -61t60.5 -146
q0 -87 -60.5 -146.5t-145.5 -59.5q-82 -2 -145.5 60t-61.5 146zM815 1324q0 38 -25.5 64.5t-62.5 26.5q-38 0 -64.5 -26.5t-26.5 -64.5q0 -37 27 -63.5t64 -26.5t62.5 26.5t25.5 63.5z" />
    <glyph glyph-name="Uhungarumlaut" unicode="&#x170;" horiz-adv-x="1439" 
d="M138 411q0 81 18 166l183 857h246l-185 -865q-17 -80 -17 -135q0 -116 67 -175t193 -60h21q137 0 224.5 75.5t120.5 225.5l199 934h246l-211 -990q-48 -224 -203 -344t-406 -120q-227 -2 -362.5 119t-133.5 312zM626 1539l88 284h283l-204 -284h-167zM991 1539l88 284
h283l-204 -284h-167z" />
    <glyph glyph-name="uhungarumlaut" unicode="&#x171;" horiz-adv-x="1171" 
d="M876 1024h241l-217 -1024h-236l25 118q-117 -138 -290 -138q-138 0 -229 83t-91 234q0 45 10 98l133 629h237l-133 -625q-9 -49 -9 -69q0 -74 37.5 -115.5t102.5 -41.5h18q95 0 177.5 90t110.5 229zM435 1140l113 294h260l-230 -294h-143zM761 1140l112 294h260
l-230 -294h-142z" />
    <glyph glyph-name="Uogonek" unicode="&#x172;" horiz-adv-x="1439" 
d="M1208 1434h246l-211 -990q-39 -182 -149.5 -296.5t-285.5 -150.5q-96 -49 -147 -99t-51 -108q0 -77 90 -77h67l-32 -152h-94q-96 0 -147.5 42t-51.5 121q0 76 49 143q49 66 121 113q-144 3 -253 59.5t-165.5 153t-55.5 218.5q0 81 18 166l183 857h246l-185 -865
q-17 -80 -17 -135q0 -116 67 -175t193 -60h21q137 0 224.5 75.5t120.5 225.5z" />
    <glyph glyph-name="uogonek" unicode="&#x173;" horiz-adv-x="1171" 
d="M696 -210q0 -77 90 -77h67l-32 -152h-94q-96 0 -147.5 42t-51.5 121q0 84 60 159q62 73 144 117h-68l25 118q-117 -138 -290 -138q-138 0 -229 83t-91 234q0 45 10 98l133 629h237l-133 -625q-9 -49 -9 -69q0 -74 37.5 -115.5t102.5 -41.5h18q95 0 177.5 90t110.5 229
l113 532h241l-217 -1024q-99 -49 -151.5 -99.5t-52.5 -110.5z" />
    <glyph glyph-name="Wcircumflex" unicode="&#x174;" horiz-adv-x="1941" 
d="M1808 1434h258l-619 -1434h-323l-44 1146l-493 -1146h-324l-48 1434h250l13 -1169l510 1169h302l38 -1161zM1521 1539h-163l-169 130l-221 -130h-196l302 284h264z" />
    <glyph glyph-name="wcircumflex" unicode="&#x175;" horiz-adv-x="1615" 
d="M1403 1024h258l-484 -1024h-295l-49 751l-343 -751h-293l-75 1024h233l32 -781l360 781h264l51 -778zM1219 1140h-143l-157 142l-220 -142h-167l289 294h241z" />
    <glyph glyph-name="Ycircumflex" unicode="&#x176;" horiz-adv-x="1312" 
d="M1485 1434l-709 -848l-125 -586h-246l126 592l-350 842h267l247 -606l492 606h298zM1199 1539h-163l-169 130l-221 -130h-196l302 284h264z" />
    <glyph glyph-name="ycircumflex" unicode="&#x177;" horiz-adv-x="1130" 
d="M1207 1024l-646 -1012l-46 -218q-43 -193 -225 -193h-360l43 206h243q76 0 91 72l36 172l-227 973h245l153 -677l427 677h266zM977 1140h-143l-157 142l-220 -142h-167l289 294h241z" />
    <glyph glyph-name="Ydieresis" unicode="&#x178;" horiz-adv-x="1312" 
d="M1485 1434l-709 -848l-125 -586h-246l126 592l-350 842h267l247 -606l492 606h298zM526 1580l48 228h234l-47 -228h-235zM920 1580l48 228h234l-47 -228h-235z" />
    <glyph glyph-name="Zacute" unicode="&#x179;" horiz-adv-x="1308" 
d="M1386 1434l-50 -246l-1042 -969h847l-46 -219h-1139l50 244l1044 970h-812l46 220h1102zM775 1539l88 284h283l-204 -284h-167z" />
    <glyph glyph-name="zacute" unicode="&#x17a;" horiz-adv-x="1048" 
d="M1035 1024l-48 -226l-701 -591h605l-44 -207h-889l48 225l701 592h-566l44 207h850zM538 1140l113 294h260l-230 -294h-143z" />
    <glyph glyph-name="Zdotaccent" unicode="&#x17b;" horiz-adv-x="1308" 
d="M1386 1434l-50 -246l-1042 -969h847l-46 -219h-1139l50 244l1044 970h-812l46 220h1102zM739 1580l54 254h256l-54 -254h-256z" />
    <glyph glyph-name="zdotaccent" unicode="&#x17c;" horiz-adv-x="1048" 
d="M1035 1024l-48 -226l-701 -591h605l-44 -207h-889l48 225l701 592h-566l44 207h850zM488 1179l54 255h256l-54 -255h-256z" />
    <glyph glyph-name="Zcaron" unicode="&#x17d;" horiz-adv-x="1308" 
d="M1386 1434l-50 -246l-1042 -969h847l-46 -219h-1139l50 244l1044 970h-812l46 220h1102zM1110 1822h190l-301 -284h-264l-183 284h168l169 -130z" />
    <glyph glyph-name="zcaron" unicode="&#x17e;" horiz-adv-x="1048" 
d="M1035 1024l-48 -226l-701 -591h605l-44 -207h-889l48 225l701 592h-566l44 207h850zM863 1434h162l-289 -294h-240l-157 294h147l157 -143z" />
    <glyph glyph-name="florin" unicode="&#x192;" horiz-adv-x="878" 
d="M647 1063l-29 -131l286 63l-45 -210l-288 -64l-177 -793q-42 -185 -154 -261q-113 -77 -300 -77h-142l46 210h91q193 0 231 169l154 697l-256 -57l45 210l258 57l46 209q80 349 434 349h154l-44 -204h-100q-174 0 -210 -167z" />
    <glyph glyph-name="uni01E2" unicode="&#x1e2;" horiz-adv-x="2072" 
d="M-130 0l1077 1434h1109l-47 -220h-719l-28 -369h639l-47 -220h-608l-32 -406h737l-44 -219h-946l28 351h-575l-261 -351h-283zM575 571h431l51 647zM1207 1580l41 194h640l-41 -194h-640z" />
    <glyph glyph-name="uni01E3" unicode="&#x1e3;" horiz-adv-x="1799" 
d="M23 278q-3 156 127 254.5t316 96.5h278q12 61 12 84q0 65 -49.5 101.5t-131.5 36.5h-19q-70 0 -124 -36q-53 -35 -67 -100h-236q20 149 149 240t305 89q105 0 190 -37t134 -104q150 141 368 141q187 3 305 -114t116 -296q0 -98 -24 -183h-723v-22q0 -118 67.5 -187
t177.5 -69h13q77 0 137 39t83 103h234q-43 -161 -165 -248t-312 -87q-128 0 -228.5 54t-157.5 152q-147 -206 -407 -206q-156 -2 -263 82t-105 216zM971 634h499q2 16 2 34q0 85 -57.5 134t-153.5 49h-18q-96 0 -169 -58.5t-103 -158.5zM410 170h10q96 0 175.5 65.5
t101.5 174.5l7 39h-233q-96 0 -158 -41q-61 -40 -61 -116q0 -57 44 -89.5t114 -32.5zM662 1179l40 189h602l-40 -189h-602z" />
    <glyph glyph-name="Aringacute" unicode="&#x1fa;" horiz-adv-x="1422" 
d="M1046 0l-60 351h-644l-210 -351h-252l866 1434h290l248 -1434h-238zM473 571h475l-106 617zM879 1901l46 180h231l-135 -180h-142zM750 1678q0 75 51 125t125 50q73 0 124 -50t51 -125t-51 -125t-124 -50q-74 0 -125 49.5t-51 125.5zM992 1678q0 29 -19.5 48.5
t-46.5 19.5t-47.5 -20t-20.5 -48q0 -29 20 -48.5t48 -19.5q27 0 46.5 19.5t19.5 48.5z" />
    <glyph glyph-name="aringacute" unicode="&#x1fb;" horiz-adv-x="1232" 
d="M63 434q0 176 73 315q74 140 193 217q119 78 250 78q115 0 203 -53t126 -134l36 167h235l-218 -1024h-235l26 119q-40 -59 -119 -100q-78 -39 -168 -39q-174 -2 -289 125.5t-113 328.5zM510 173h18q90 -2 162.5 59t110.5 158.5t37 206.5q0 113 -59 183.5t-157 70.5h-18
q-118 3 -213 -117t-92 -293q0 -119 57.5 -193.5t153.5 -74.5zM671 1569l78 276h263l-191 -276h-150zM519 1309q-2 81 62.5 145t143.5 62q85 0 146 -61t61 -146q0 -87 -60 -146.5t-147 -59.5q-81 -2 -144.5 60t-61.5 146zM814 1309q0 37 -25.5 63.5t-62.5 26.5t-63.5 -26.5
t-26.5 -63.5t26.5 -63.5t63.5 -26.5t62.5 26.5t25.5 63.5z" />
    <glyph glyph-name="AEacute" unicode="&#x1fc;" horiz-adv-x="2072" 
d="M-130 0l1077 1434h1109l-47 -220h-719l-28 -369h639l-47 -220h-608l-32 -406h737l-44 -219h-946l28 351h-575l-261 -351h-283zM575 571h431l51 647zM1441 1539l88 284h283l-204 -284h-167z" />
    <glyph glyph-name="aeacute" unicode="&#x1fd;" horiz-adv-x="1799" 
d="M23 278q-3 156 127 254.5t316 96.5h278q12 61 12 84q0 65 -49.5 101.5t-131.5 36.5h-19q-70 0 -124 -36q-53 -35 -67 -100h-236q20 149 149 240t305 89q105 0 190 -37t134 -104q150 141 368 141q187 3 305 -114t116 -296q0 -98 -24 -183h-723v-22q0 -118 67.5 -187
t177.5 -69h13q77 0 137 39t83 103h234q-43 -161 -165 -248t-312 -87q-128 0 -228.5 54t-157.5 152q-147 -206 -407 -206q-156 -2 -263 82t-105 216zM971 634h499q2 16 2 34q0 85 -57.5 134t-153.5 49h-18q-96 0 -169 -58.5t-103 -158.5zM410 170h10q96 0 175.5 65.5
t101.5 174.5l7 39h-233q-96 0 -158 -41q-61 -40 -61 -116q0 -57 44 -89.5t114 -32.5zM906 1140l113 294h260l-230 -294h-143z" />
    <glyph glyph-name="Oslashacute" unicode="&#x1fe;" horiz-adv-x="1582" 
d="M1616 1300l-176 -163q74 -140 74 -319q0 -236 -95 -428t-268 -301t-402 -109q-244 0 -414 139l-166 -153l-154 167l177 163q-74 140 -74 315q0 237 94 428q95 193 266 303q172 112 400 112q250 0 418 -140l166 153zM388 477l730 673q-103 85 -248 85h-26
q-136 3 -246.5 -76.5t-172 -217.5t-59.5 -303q0 -88 22 -161zM1243 956l-731 -673q102 -84 245 -84h26q139 -3 251.5 78.5t173 218t58.5 296.5q0 87 -23 164zM860 1539l88 284h283l-204 -284h-167z" />
    <glyph glyph-name="oslashacute" unicode="&#x1ff;" horiz-adv-x="1192" 
d="M1176 952l-141 -133q54 -103 54 -241q2 -132 -42.5 -245.5t-120.5 -191t-178 -120.5t-214 -41q-177 0 -295 86l-134 -127l-121 140l135 128q-52 105 -52 239q-2 132 42.5 245.5t120.5 191t178 120.5t214 41q176 0 292 -83l125 118zM308 386l445 422q-56 43 -139 43h-18
q-116 2 -206 -109t-88 -280q0 -40 6 -76zM847 641l-447 -423q57 -45 141 -45h18q116 -2 207 109.5t88 279.5q0 47 -7 79zM583 1140l113 294h260l-230 -294h-143z" />
    <glyph glyph-name="uni0218" unicode="&#x218;" horiz-adv-x="1284" 
d="M38 429q0 24 2 44h243v-26q0 -123 87 -186q88 -62 232 -62h21q121 0 198 52.5t77 136.5q0 66 -51 111.5t-173 88.5l-165 62q-153 57 -224.5 145t-71.5 225q-2 120 67.5 220.5t194 158t273.5 55.5q121 1 223.5 -35t169 -98t103 -141t35.5 -165v-23h-246q-2 117 -80 179
q-77 64 -209 64h-20q-112 0 -188.5 -55t-76.5 -138q0 -57 35 -95t108 -66l220 -87q169 -66 245.5 -158t76.5 -227q3 -188 -146 -309.5t-385 -119.5q-270 -2 -423.5 125.5t-151.5 323.5zM278 -613l28 131h44q52 0 78.5 19t34.5 59l2 9h-102l50 240h236l-53 -251
q-42 -207 -264 -207h-54z" />
    <glyph glyph-name="uni0219" unicode="&#x219;" horiz-adv-x="1000" 
d="M1 329h239q5 -75 57 -115q53 -41 128 -41h19q71 0 115.5 33t44.5 86q0 68 -92 101l-126 49q-130 49 -191 116.5t-61 167.5q-3 133 115 226.5t290 91.5q116 1 209.5 -39.5t148.5 -120t53 -183.5h-237q-1 67 -52.5 108.5t-122.5 41.5h-18q-68 0 -109.5 -30.5t-41.5 -82.5
q0 -66 94 -101l137 -54q109 -42 176 -106q67 -63 67 -178q2 -138 -116.5 -229.5t-291.5 -89.5q-203 0 -315.5 93.5t-118.5 255.5zM119 -613l28 131h44q52 0 78.5 19t34.5 59l2 9h-102l50 240h236l-53 -251q-42 -207 -264 -207h-54z" />
    <glyph glyph-name="uni021A" unicode="&#x21a;" horiz-adv-x="1314" 
d="M407 0l258 1214h-502l46 220h1250l-46 -220h-503l-258 -1214h-245zM244 -613l28 131h44q52 0 78.5 19t34.5 59l2 9h-102l50 240h236l-53 -251q-42 -207 -264 -207h-54z" />
    <glyph glyph-name="uni021B" unicode="&#x21b;" horiz-adv-x="833" 
d="M535 829l-115 -538q-4 -17 -4 -30q0 -58 64 -58h223l-43 -203h-284q-92 0 -147 49t-55 133q0 35 6 61l123 586h-225l40 195h229l71 332h230l-72 -332h248l-40 -195h-249zM85 -613l28 131h44q52 0 78.5 19t34.5 59l2 9h-102l50 240h236l-53 -251q-42 -207 -264 -207h-54z
" />
    <glyph glyph-name="uni0226" unicode="&#x226;" horiz-adv-x="1422" 
d="M1046 0l-60 351h-644l-210 -351h-252l866 1434h290l248 -1434h-238zM473 571h475l-106 617zM794 1580l54 254h256l-54 -254h-256z" />
    <glyph glyph-name="uni0227" unicode="&#x227;" horiz-adv-x="1232" 
d="M63 434q0 176 73 315q74 140 193 217q119 78 250 78q115 0 203 -53t126 -134l36 167h235l-218 -1024h-235l26 119q-40 -59 -119 -100q-78 -39 -168 -39q-174 -2 -289 125.5t-113 328.5zM510 173h18q90 -2 162.5 59t110.5 158.5t37 206.5q0 113 -59 183.5t-157 70.5h-18
q-118 3 -213 -117t-92 -293q0 -119 57.5 -193.5t153.5 -74.5zM575 1179l54 255h256l-54 -255h-256z" />
    <glyph glyph-name="uni0232" unicode="&#x232;" horiz-adv-x="1312" 
d="M1485 1434l-709 -848l-125 -586h-246l126 592l-350 842h267l247 -606l492 606h298zM523 1580l41 194h640l-41 -194h-640z" />
    <glyph glyph-name="uni0233" unicode="&#x233;" horiz-adv-x="1130" 
d="M1207 1024l-646 -1012l-46 -218q-43 -193 -225 -193h-360l43 206h243q76 0 91 72l36 172l-227 973h245l153 -677l427 677h266zM344 1179l40 189h602l-40 -189h-602z" />
    <glyph glyph-name="uni0237" unicode="&#x237;" horiz-adv-x="542" 
d="M-342 -396l44 203h220q70 0 86 76l244 1141h235l-260 -1228q-41 -192 -226 -192h-343z" />
    <glyph glyph-name="uni02BC" unicode="&#x2bc;" horiz-adv-x="564" 
d="M164 861l31 144h58q68 0 112 34t56 95l6 25h-135l59 275h280l-67 -312q-27 -123 -113 -192t-212 -69h-75z" />
    <glyph glyph-name="circumflex" unicode="&#x2c6;" horiz-adv-x="809" 
d="M882 1140h-143l-157 142l-220 -142h-167l289 294h241z" />
    <glyph glyph-name="caron" unicode="&#x2c7;" horiz-adv-x="809" 
d="M782 1434h162l-289 -294h-240l-157 294h147l157 -143z" />
    <glyph glyph-name="breve" unicode="&#x2d8;" horiz-adv-x="784" 
d="M253 1378q0 19 5 56h190q-2 -14 -2 -29q0 -59 32.5 -88.5t89.5 -29.5q56 0 98 36.5t63 110.5h190q-39 -154 -135.5 -234.5t-236.5 -80.5q-130 0 -212 69.5t-82 189.5z" />
    <glyph glyph-name="dotaccent" unicode="&#x2d9;" horiz-adv-x="380" 
d="M204 1179l54 255h256l-54 -255h-256z" />
    <glyph glyph-name="ring" unicode="&#x2da;" horiz-adv-x="545" 
d="M238 1324q-1 82 63 145.5t144 61.5q85 0 145.5 -61t60.5 -146q0 -87 -60.5 -146.5t-145.5 -59.5q-82 -2 -145.5 60t-61.5 146zM534 1324q0 38 -25.5 64.5t-62.5 26.5q-38 0 -64.5 -26.5t-26.5 -64.5q0 -37 27 -63.5t64 -26.5t62.5 26.5t25.5 63.5z" />
    <glyph glyph-name="ogonek" unicode="&#x2db;" horiz-adv-x="454" 
d="M-102 -276q-3 94 81.5 182t179.5 118l111 -24q-99 -49 -151.5 -99.5t-52.5 -110.5q0 -77 90 -77h67l-32 -152h-94q-96 0 -147.5 42t-51.5 121z" />
    <glyph glyph-name="tilde" unicode="&#x2dc;" horiz-adv-x="878" 
d="M602 1191l-44 27q-41 23 -58 30t-37 7q-69 0 -89 -98h-174l9 49q21 104 85 165t159 61q73 0 156 -48l45 -25l20 -11q56 -30 80 -30q33 0 51.5 23t28.5 74h173l-9 -50q-19 -103 -82 -163.5t-156 -60.5q-77 0 -158 50z" />
    <glyph glyph-name="hungarumlaut" unicode="&#x2dd;" horiz-adv-x="758" 
d="M195 1140l113 294h260l-230 -294h-143zM521 1140l112 294h260l-230 -294h-142z" />
    <glyph glyph-name="gravecomb" unicode="&#x300;" horiz-adv-x="0" 
d="M-72 1140l-157 294h260l41 -294h-144z" />
    <glyph glyph-name="acutecomb" unicode="&#x301;" horiz-adv-x="0" 
d="M-237 1140l113 294h260l-230 -294h-143z" />
    <glyph glyph-name="uni0302" unicode="&#x302;" horiz-adv-x="0" 
d="M73 1140h-143l-157 142l-220 -142h-167l289 294h241z" />
    <glyph glyph-name="tildecomb" unicode="&#x303;" horiz-adv-x="0" 
d="M-276 1191l-44 27q-41 23 -58 30t-37 7q-69 0 -89 -98h-174l9 49q21 104 85 165t159 61q73 0 156 -48l45 -25l20 -11q56 -30 80 -30q33 0 51.5 23t28.5 74h173l-9 -50q-19 -103 -82 -163.5t-156 -60.5q-77 0 -158 50z" />
    <glyph glyph-name="uni0304" unicode="&#x304;" horiz-adv-x="0" 
d="M-522 1179l40 189h602l-40 -189h-602z" />
    <glyph glyph-name="uni0306" unicode="&#x306;" horiz-adv-x="0" 
d="M-531 1378q0 19 5 56h190q-2 -14 -2 -29q0 -59 32.5 -88.5t89.5 -29.5q56 0 98 36.5t63 110.5h190q-39 -154 -135.5 -234.5t-236.5 -80.5q-130 0 -212 69.5t-82 189.5z" />
    <glyph glyph-name="uni0307" unicode="&#x307;" horiz-adv-x="0" 
d="M-176 1179l54 255h256l-54 -255h-256z" />
    <glyph glyph-name="uni0308" unicode="&#x308;" horiz-adv-x="0" 
d="M-546 1179l52 244h229l-53 -244h-228zM-146 1179l53 244h229l-53 -244h-229z" />
    <glyph glyph-name="uni030A" unicode="&#x30a;" horiz-adv-x="0" 
d="M-307 1324q-1 81 63 145t144 62q85 0 145.5 -61t60.5 -146q0 -87 -60.5 -146.5t-145.5 -59.5q-82 -2 -145.5 60t-61.5 146zM-11 1324q0 38 -25.5 64.5t-62.5 26.5q-38 0 -64.5 -26.5t-26.5 -64.5q0 -37 27 -63.5t64 -26.5t62.5 26.5t25.5 63.5z" />
    <glyph glyph-name="uni030B" unicode="&#x30b;" horiz-adv-x="0" 
d="M-563 1140l113 294h260l-230 -294h-143zM-237 1140l112 294h260l-230 -294h-142z" />
    <glyph glyph-name="uni030C" unicode="&#x30c;" horiz-adv-x="0" 
d="M-27 1434h162l-289 -294h-240l-157 294h147l157 -143z" />
    <glyph glyph-name="uni0312" unicode="&#x312;" horiz-adv-x="0" 
d="M201 1649l-28 -131h-44q-52 0 -78.5 -19t-34.5 -59l-2 -9h102l-50 -240h-236l53 251q42 207 264 207h54z" />
    <glyph glyph-name="dotbelowcomb" unicode="&#x323;" horiz-adv-x="0" 
d="M-491 -395l52 240h236l-53 -240h-235z" />
    <glyph glyph-name="uni0326" unicode="&#x326;" horiz-adv-x="0" 
d="M-576 -613l28 131h44q52 0 78.5 19t34.5 59l2 9h-102l50 240h236l-53 -251q-42 -207 -264 -207h-54z" />
    <glyph glyph-name="uni0327" unicode="&#x327;" horiz-adv-x="0" 
d="M-669 -493l31 145h161q45 0 70.5 21.5t25.5 57.5q0 27 -19 42.5t-52 15.5h-81l51 240h128l-24 -121q67 -9 107 -53t40 -112q0 -102 -72 -169t-184 -67h-182z" />
    <glyph glyph-name="uni0328" unicode="&#x328;" horiz-adv-x="0" 
d="M-556 -276q-3 94 81.5 182t179.5 118l111 -24q-99 -49 -151.5 -99.5t-52.5 -110.5q0 -77 90 -77h67l-32 -152h-94q-96 0 -147.5 42t-51.5 121z" />
    <glyph glyph-name="uni0335" unicode="&#x335;" horiz-adv-x="0" 
d="M-1028 658l47 214h996l-47 -214h-996z" />
    <glyph glyph-name="uni0336" unicode="&#x336;" horiz-adv-x="0" 
d="M-1526 1023l45 205h1571l-44 -205h-1572z" />
    <glyph glyph-name="uni0337" unicode="&#x337;" horiz-adv-x="0" 
d="M-616 550l48 226l628 310l-47 -225z" />
    <glyph glyph-name="uni0338" unicode="&#x338;" horiz-adv-x="0" 
d="M-1341 -35l-154 167l1447 1334l154 -167z" />
    <glyph glyph-name="uni037E" unicode="&#x37e;" horiz-adv-x="588" 
d="M-94 -298l31 144h58q68 0 112 34t56 95l6 25h-135l59 275h280l-67 -312q-27 -123 -113 -192t-212 -69h-75zM197 749l59 275h275l-59 -275h-275z" />
    <glyph glyph-name="tonos" unicode="&#x384;" horiz-adv-x="1043" 
d="M504 1140l113 294h260l-230 -294h-143z" />
    <glyph glyph-name="dieresistonos" unicode="&#x385;" horiz-adv-x="885" 
d="M427 1136l89 298h253l-201 -298h-141zM152 1136l46 222h206l-46 -222h-206zM726 1136l47 222h205l-46 -222h-206z" />
    <glyph glyph-name="Alphatonos" unicode="&#x386;" horiz-adv-x="1465" 
d="M1088 0l-60 351h-644l-210 -351h-252l866 1434h290l248 -1434h-238zM515 571h475l-106 617zM226 1140l113 294h260l-230 -294h-143z" />
    <glyph glyph-name="anoteleia" unicode="&#x387;" horiz-adv-x="513" 
d="M130 594l53 248h247l-53 -248h-247z" />
    <glyph glyph-name="Epsilontonos" unicode="&#x388;" horiz-adv-x="1569" 
d="M273 0l305 1434h1068l-47 -220h-822l-80 -369h701l-46 -220h-701l-86 -406h842l-46 -219h-1088zM122 1140l113 294h260l-230 -294h-143z" />
    <glyph glyph-name="Etatonos" unicode="&#x389;" horiz-adv-x="1737" 
d="M273 0l305 1434h246l-130 -607h669l129 607h246l-305 -1434h-246l130 607h-669l-129 -607h-246zM122 1140l113 294h260l-230 -294h-143z" />
    <glyph glyph-name="Iotatonos" unicode="&#x38a;" horiz-adv-x="823" 
d="M273 0l305 1434h246l-305 -1434h-246zM122 1140l113 294h260l-230 -294h-143z" />
    <glyph glyph-name="Omicrontonos" unicode="&#x38c;" horiz-adv-x="1756" 
d="M293 611q0 237 94 428q95 193 266 303q172 112 400 112q183 2 329.5 -79.5t227.5 -228t79 -328.5q0 -236 -95 -428t-268 -301t-402 -109q-182 -2 -327.5 79.5t-225.5 226.5t-78 325zM932 199h26q139 -3 251.5 78.5t173 218t58.5 296.5q2 198 -111 321.5t-285 121.5h-26
q-136 3 -246.5 -76.5t-172 -217.5t-59.5 -303q-2 -196 108.5 -318.5t282.5 -120.5zM121 1140l113 294h260l-230 -294h-143z" />
    <glyph glyph-name="Upsilontonos" unicode="&#x38e;" horiz-adv-x="1710" 
d="M1883 1434l-709 -848l-125 -586h-246l126 592l-350 842h267l247 -606l492 606h298zM175 1140l113 294h260l-230 -294h-143z" />
    <glyph glyph-name="Omegatonos" unicode="&#x38f;" horiz-adv-x="1812" 
d="M224 0l46 219h262q-104 73 -163 194t-59 264q0 222 100 398q100 177 273 278q175 101 387 101q183 2 327.5 -79.5t224 -227t77.5 -328.5q0 -398 -304 -600h231l-46 -219h-531l45 213q164 88 262 234q97 145 97 350q1 198 -109 319t-278 119h-27q-74 1 -146 -24
t-133.5 -75.5t-108 -118.5t-72.5 -159t-24 -191q0 -151 72 -266q71 -113 191 -188l-44 -213h-550zM126 1140l113 294h260l-230 -294h-143z" />
    <glyph glyph-name="iotadieresistonos" unicode="&#x390;" horiz-adv-x="581" 
d="M56 181q0 38 7 67l163 776h236l-156 -733q-4 -20 -4 -30q0 -58 65 -58h83l-43 -203h-152q-90 0 -144.5 48.5t-54.5 132.5zM288 1136l89 298h253l-201 -298h-141zM13 1136l46 222h206l-46 -222h-206zM587 1136l47 222h205l-46 -222h-206z" />
    <glyph glyph-name="Alpha" unicode="&#x391;" horiz-adv-x="1422" 
d="M1046 0l-60 351h-644l-210 -351h-252l866 1434h290l248 -1434h-238zM473 571h475l-106 617z" />
    <glyph glyph-name="Beta" unicode="&#x392;" horiz-adv-x="1388" 
d="M50 0l305 1434h584q182 0 297 -91t115 -253q0 -145 -87 -247.5t-229 -129.5q101 -33 156.5 -111t55.5 -188q2 -115 -59.5 -211.5t-168.5 -150.5t-233 -52h-736zM472 836h396q96 -2 168 60t70 154q0 164 -221 164h-332zM341 219h414q106 0 176 61.5t70 170.5
q0 79 -52.5 124.5t-148.5 45.5h-374z" />
    <glyph glyph-name="Gamma" unicode="&#x393;" horiz-adv-x="1195" 
d="M50 0l305 1434h995l-48 -220h-748l-258 -1214h-246z" />
    <glyph glyph-name="uni0394" unicode="&#x394;" horiz-adv-x="1430" 
d="M1030 1434l262 -1329l-22 -105h-1364l22 105l821 1329h281zM845 1182l-595 -963h784z" />
    <glyph glyph-name="Epsilon" unicode="&#x395;" horiz-adv-x="1346" 
d="M50 0l305 1434h1068l-47 -220h-822l-80 -369h701l-46 -220h-701l-86 -406h842l-46 -219h-1088z" />
    <glyph glyph-name="Zeta" unicode="&#x396;" horiz-adv-x="1308" 
d="M1386 1434l-50 -246l-1042 -969h847l-46 -219h-1139l50 244l1044 970h-812l46 220h1102z" />
    <glyph glyph-name="Eta" unicode="&#x397;" horiz-adv-x="1514" 
d="M50 0l305 1434h246l-130 -607h669l129 607h246l-305 -1434h-246l130 607h-669l-129 -607h-246z" />
    <glyph glyph-name="Theta" unicode="&#x398;" horiz-adv-x="1579" 
d="M117 624q0 236 97 424q97 189 272 297q173 109 396 109q183 2 328 -81t224 -231t77 -333q0 -227 -95 -419q-94 -189 -267 -300q-173 -110 -398 -110q-185 -2 -330.5 79.5t-225.5 229.5t-78 335zM755 199h28q131 -2 242.5 75.5t175.5 213t62 294.5q2 206 -109 330.5
t-276 122.5h-28q-129 0 -241 -74q-110 -73 -178 -207q-66 -134 -66 -304q0 -209 108.5 -330t281.5 -121zM509 626l46 220h567l-46 -220h-567z" />
    <glyph glyph-name="Iota" unicode="&#x399;" horiz-adv-x="600" 
d="M50 0l305 1434h246l-305 -1434h-246z" />
    <glyph glyph-name="Kappa" unicode="&#x39a;" horiz-adv-x="1470" 
d="M1573 1434l-739 -615l556 -819h-295l-448 663l-255 -212l-95 -451h-245l301 1434h245l-137 -652l778 652h334z" />
    <glyph glyph-name="Lambda" unicode="&#x39b;" horiz-adv-x="1423" 
d="M1283 0h-246l-191 1207l-699 -1207h-265l846 1434h320z" />
    <glyph glyph-name="Mu" unicode="&#x39c;" horiz-adv-x="1920" 
d="M1534 1434h387l-305 -1434h-246l249 1169l-623 -1169h-313l-136 1181l-251 -1181h-246l305 1434h385l141 -1205z" />
    <glyph glyph-name="Nu" unicode="&#x39d;" horiz-adv-x="1535" 
d="M1290 1434h246l-305 -1434h-328l-368 1129l-239 -1129h-246l305 1434h328l363 -1148z" />
    <glyph glyph-name="Xi" unicode="&#x39e;" horiz-adv-x="1327" 
d="M243 1205l48 229h1101l-48 -229h-1101zM220 626l47 220h902l-48 -220h-901zM-33 0l48 229h1142l-47 -229h-1143z" />
    <glyph glyph-name="Omicron" unicode="&#x39f;" horiz-adv-x="1580" 
d="M116 611q0 237 94 428q95 193 266 303q172 112 400 112q183 2 329.5 -79.5t227.5 -228t79 -328.5q0 -236 -95 -428t-268 -301t-402 -109q-182 -2 -327.5 79.5t-225.5 226.5t-78 325zM755 199h26q139 -3 251.5 78.5t173 218t58.5 296.5q2 198 -111 321.5t-285 121.5h-26
q-136 3 -246.5 -76.5t-172 -217.5t-59.5 -303q-2 -196 108.5 -318.5t282.5 -120.5z" />
    <glyph glyph-name="Pi" unicode="&#x3a0;" horiz-adv-x="1505" 
d="M50 0l305 1434h1151l-305 -1434h-246l257 1214h-658l-258 -1214h-246z" />
    <glyph glyph-name="Rho" unicode="&#x3a1;" horiz-adv-x="1319" 
d="M51 0l303 1434h547q196 0 316.5 -110.5t120.5 -293.5q1 -99 -35.5 -189.5t-100.5 -156t-155 -104t-193 -36.5h-442l-116 -544h-245zM460 764h383q109 0 178 72t69 181q0 96 -62.5 146.5t-180.5 50.5h-293z" />
    <glyph glyph-name="Sigma" unicode="&#x3a3;" horiz-adv-x="1315" 
d="M1394 1434l-48 -220h-819l376 -469l-575 -526h828l-46 -219h-1145l51 248l556 509l-344 432l54 245h1112z" />
    <glyph glyph-name="Tau" unicode="&#x3a4;" horiz-adv-x="1314" 
d="M407 0l258 1214h-502l46 220h1250l-46 -220h-503l-258 -1214h-245z" />
    <glyph glyph-name="Upsilon" unicode="&#x3a5;" horiz-adv-x="1312" 
d="M1485 1434l-709 -848l-125 -586h-246l126 592l-350 842h267l247 -606l492 606h298z" />
    <glyph glyph-name="Phi" unicode="&#x3a6;" horiz-adv-x="1784" 
d="M633 -49l32 155q-114 10 -214.5 50t-178 106t-121.5 162t-43 209q-1 136 38 250.5t111 197t171 139.5t218 85t252 27h29l31 150h243l-33 -153q115 -9 217 -50.5t178.5 -109t120 -164t42.5 -209.5q2 -216 -97.5 -375.5t-274.5 -240.5t-401 -79h-45l-33 -150h-242zM709 311
l173 813h-21q-223 2 -362.5 -126t-137.5 -351q0 -146 93 -235q95 -88 255 -101zM1473 778q0 152 -99.5 244t-249.5 101l-172 -814q256 4 388.5 124.5t132.5 344.5z" />
    <glyph glyph-name="Chi" unicode="&#x3a7;" horiz-adv-x="1326" 
d="M1472 1434l-636 -704l361 -730h-276l-263 533l-482 -533h-298l674 747l-340 687h276l242 -490l442 490h300z" />
    <glyph glyph-name="Psi" unicode="&#x3a8;" horiz-adv-x="1643" 
d="M1464 1434h245l-136 -638q-101 -474 -695 -474l-68 -322h-246l69 324q-220 13 -353 136.5t-131 311.5q0 68 15 139l110 523h246l-114 -545q-12 -48 -12 -92q0 -123 78 -191q78 -67 206 -69l191 897h246l-191 -897q158 1 272 82q112 79 147 244z" />
    <glyph glyph-name="uni03A9" unicode="&#x3a9;" horiz-adv-x="1635" 
d="M47 0l46 219h262q-104 73 -163 194t-59 264q0 222 100 398q100 177 273 278q175 101 387 101q183 2 327.5 -79.5t224 -227t77.5 -328.5q0 -398 -304 -600h231l-46 -219h-531l45 213q164 88 262 234q97 145 97 350q1 198 -109 319t-278 119h-27q-74 1 -146 -24
t-133.5 -75.5t-108 -118.5t-72.5 -159t-24 -191q0 -151 72 -266q71 -113 191 -188l-44 -213h-550z" />
    <glyph glyph-name="Iotadieresis" unicode="&#x3aa;" horiz-adv-x="600" 
d="M50 0l305 1434h246l-305 -1434h-246zM182 1574l48 228h234l-47 -228h-235zM576 1574l48 228h234l-47 -228h-235z" />
    <glyph glyph-name="Upsilondieresis" unicode="&#x3ab;" horiz-adv-x="1312" 
d="M1485 1434l-709 -848l-125 -586h-246l126 592l-350 842h267l247 -606l492 606h298zM521 1574l48 228h234l-47 -228h-235zM915 1574l48 228h234l-47 -228h-235z" />
    <glyph glyph-name="alphatonos" unicode="&#x3ac;" horiz-adv-x="1288" 
d="M64 436q0 178 74 318q74 138 194 214q118 76 248 76q110 0 199 -51q90 -51 129 -136l36 167h235l-156 -737q-5 -17 -5 -30q0 -58 59 -58h89l-41 -199h-150q-78 0 -128.5 38.5t-64.5 110.5q-115 -169 -316 -169q-175 -2 -289.5 125.5t-112.5 330.5zM511 173h20
q127 -3 218 122.5t89 296.5q0 129 -63 194t-156 65h-17q-117 3 -211 -116t-91 -291q0 -128 58.5 -199.5t152.5 -71.5zM620 1140l113 294h260l-230 -294h-143z" />
    <glyph glyph-name="epsilontonos" unicode="&#x3ad;" horiz-adv-x="1111" 
d="M763 334h234q-35 -173 -171.5 -263.5t-356.5 -90.5q-208 0 -320.5 74t-112.5 200q0 91 59.5 168t161.5 100q-142 56 -142 194q-3 133 132 232t345 96q211 1 332 -97.5t120 -253.5h-234q-4 76 -63 117t-160 41h-17q-97 0 -158.5 -39.5t-61.5 -99.5q0 -102 150 -102h165
l-39 -185h-172q-80 0 -130 -34t-53 -89q0 -61 53 -95t155 -34h18q107 0 176.5 42t89.5 119zM563 1140l113 294h260l-230 -294h-143z" />
    <glyph glyph-name="etatonos" unicode="&#x3ae;" horiz-adv-x="1220" 
d="M1108 765q0 -70 -13 -129l-224 -1046h-236l224 1041q9 63 9 81q0 65 -38.5 102t-108.5 37h-16q-96 0 -177 -79t-107 -209l-119 -563h-236l158 746q3 15 3 28q0 59 -58 59h-67l40 191h120q89 0 139.5 -35.5t55.5 -105.5q65 79 154.5 120t186.5 41q141 0 225.5 -78
t84.5 -201zM609 1140l113 294h260l-230 -294h-143z" />
    <glyph glyph-name="iotatonos" unicode="&#x3af;" horiz-adv-x="581" 
d="M56 181q0 38 7 67l163 776h236l-156 -733q-4 -20 -4 -30q0 -58 65 -58h83l-43 -203h-152q-90 0 -144.5 48.5t-54.5 132.5zM297 1140l113 294h260l-230 -294h-143z" />
    <glyph glyph-name="upsilondieresistonos" unicode="&#x3b0;" horiz-adv-x="1147" 
d="M86 337q0 62 15 128l118 559h235l-123 -580q-10 -47 -10 -94q0 -83 43 -130t120 -47h19q187 0 242 261l125 590h235l-128 -604q-47 -214 -161 -327q-115 -113 -331 -113q-188 0 -293.5 98t-105.5 259zM574 1136l89 298h253l-201 -298h-141zM299 1136l46 222h206l-46 -222
h-206zM873 1136l47 222h205l-46 -222h-206z" />
    <glyph glyph-name="alpha" unicode="&#x3b1;" horiz-adv-x="1288" 
d="M64 436q0 178 74 318q74 138 194 214q118 76 248 76q110 0 199 -51q90 -51 129 -136l36 167h235l-156 -737q-5 -17 -5 -30q0 -58 59 -58h89l-41 -199h-150q-78 0 -128.5 38.5t-64.5 110.5q-115 -169 -316 -169q-175 -2 -289.5 125.5t-112.5 330.5zM511 173h20
q127 -3 218 122.5t89 296.5q0 129 -63 194t-156 65h-17q-117 3 -211 -116t-91 -291q0 -128 58.5 -199.5t152.5 -71.5z" />
    <glyph glyph-name="beta" unicode="&#x3b2;" horiz-adv-x="1207" 
d="M1082 442q2 -142 -67.5 -249t-185 -161t-258.5 -52q-92 0 -171 29.5t-130 76.5l-105 -496h-236l307 1447q44 206 174 311.5t338 105.5q189 1 300 -97t109 -247q0 -134 -89 -231.5t-230 -128.5q105 -29 174.5 -113t69.5 -195zM847 441q0 95 -68.5 163.5t-173.5 68.5h-50
l40 192h62q116 0 190.5 62t74.5 165q0 70 -52.5 119.5t-132.5 49.5h-14q-98 0 -164.5 -63t-92.5 -191l-146 -686q32 -68 104 -109q70 -39 146 -39h14q117 0 190 75t73 193zM300 450l5 27q-1 -6 -5 -27z" />
    <glyph glyph-name="gamma" unicode="&#x3b3;" horiz-adv-x="1057" 
d="M1129 1024l-623 -1064l-79 -370h-236l79 369l-154 1065h242l91 -736l423 736h257z" />
    <glyph glyph-name="delta" unicode="&#x3b4;" horiz-adv-x="1186" 
d="M1199 1434l-42 -193h-496l236 -278q56 -65 97 -126q89 -132 89 -276q2 -158 -66.5 -291.5t-197 -213t-288.5 -76.5q-213 -2 -342.5 127t-127.5 336q-1 109 35 210t100.5 178t162 123t211.5 46l-222 252l38 182h813zM848 542q0 146 -126 285l-5 6q-41 6 -100 6
q-99 2 -173.5 -50t-111 -136.5t-35.5 -187.5q0 -129 62 -211q61 -81 181 -81h10q90 -2 160.5 53.5t104.5 139.5t33 176z" />
    <glyph glyph-name="epsilon" unicode="&#x3b5;" horiz-adv-x="1111" 
d="M763 334h234q-35 -173 -171.5 -263.5t-356.5 -90.5q-208 0 -320.5 74t-112.5 200q0 91 59.5 168t161.5 100q-142 56 -142 194q-3 133 132 232t345 96q211 1 332 -97.5t120 -253.5h-234q-4 76 -63 117t-160 41h-17q-97 0 -158.5 -39.5t-61.5 -99.5q0 -102 150 -102h165
l-39 -185h-172q-80 0 -130 -34t-53 -89q0 -61 53 -95t155 -34h18q107 0 176.5 42t89.5 119z" />
    <glyph glyph-name="zeta" unicode="&#x3b6;" horiz-adv-x="976" 
d="M265 342q0 -149 216 -149h125q109 0 169.5 -50.5t60.5 -147.5q0 -61 -36.5 -141.5t-99.5 -158.5h-215q53 68 87 136q35 68 35 107q0 62 -58 62h-103q-205 0 -310.5 88t-105.5 241q0 168 114 322q117 156 326 324l333 266h-510l44 193h808l-44 -182l-392 -332
q-199 -169 -321 -313q-123 -144 -123 -265z" />
    <glyph glyph-name="eta" unicode="&#x3b7;" horiz-adv-x="1220" 
d="M1108 765q0 -70 -13 -129l-224 -1046h-236l224 1041q9 63 9 81q0 65 -38.5 102t-108.5 37h-16q-96 0 -177 -79t-107 -209l-119 -563h-236l158 746q3 15 3 28q0 59 -58 59h-67l40 191h120q89 0 139.5 -35.5t55.5 -105.5q65 79 154.5 120t186.5 41q141 0 225.5 -78
t84.5 -201z" />
    <glyph glyph-name="theta" unicode="&#x3b8;" horiz-adv-x="1182" 
d="M1107 940q0 -235 -65 -457q-65 -220 -200 -361q-136 -142 -340 -142q-191 0 -295 137.5t-104 376.5q0 234 65 456q64 219 201 362q136 142 340 142q191 0 294.5 -137.5t103.5 -376.5zM377 834h494q4 41 4 101q0 164 -48.5 246t-138.5 82h-17q-96 0 -173 -122
q-78 -124 -121 -307zM844 641h-500q-8 -83 -8 -143q0 -164 48.5 -245.5t139.5 -81.5h16q100 -2 182 133.5t122 336.5z" />
    <glyph glyph-name="iota" unicode="&#x3b9;" horiz-adv-x="581" 
d="M56 181q0 38 7 67l163 776h236l-156 -733q-4 -20 -4 -30q0 -58 65 -58h83l-43 -203h-152q-90 0 -144.5 48.5t-54.5 132.5z" />
    <glyph glyph-name="kappa" unicode="&#x3ba;" horiz-adv-x="1130" 
d="M1041 1024h96l-39 -193h-57q-45 0 -81 -14q-35 -14 -83 -52l-243 -192l376 -573h-271l-282 432l-135 -107l-69 -325h-236l217 1024h236l-86 -405l425 338q52 42 103 54q48 13 129 13z" />
    <glyph glyph-name="lambda" unicode="&#x3bb;" horiz-adv-x="1170" 
d="M1031 203h47l-41 -203h-76q-124 1 -174 43t-76 151l-108 478l-436 -672h-264l635 962l-34 149q-17 80 -41 105t-84 25h-111l42 193h170q103 0 160 -45t79 -139l208 -930q19 -71 38 -94t66 -23z" />
    <glyph glyph-name="uni03BC" unicode="&#x3bc;" horiz-adv-x="1231" 
d="M1019 199h89l-42 -199h-149q-76 0 -126 34.5t-67 98.5q-58 -71 -131.5 -112t-152.5 -41q-113 0 -170 100l-105 -490h-236l305 1434h236l-132 -621q-10 -44 -10 -79q0 -72 37 -111.5t103 -39.5h16q97 0 178 88.5t111 230.5l113 532h236l-156 -730q-5 -25 -5 -37
q0 -58 58 -58z" />
    <glyph glyph-name="nu" unicode="&#x3bd;" horiz-adv-x="1076" 
d="M887 1024h250l-564 -1024h-322l-130 1024h243l90 -810z" />
    <glyph glyph-name="xi" unicode="&#x3be;" horiz-adv-x="983" 
d="M607 -62q0 33 -17.5 47.5t-56.5 14.5h-64q-209 0 -324.5 90.5t-115.5 238.5q-2 159 113.5 283.5t297.5 142.5q-98 26 -146.5 84t-48.5 136q-2 68 38.5 131t98.5 98.5t112 36.5h-220l45 193h782l-45 -193h-224q-65 0 -127 -15t-113.5 -44t-82 -76t-29.5 -105
q0 -76 53 -119.5t155 -43.5h191l-42 -193h-170q-170 2 -287.5 -78t-115.5 -209q0 -81 60.5 -123t179.5 -42h91q241 0 241 -198q0 -60 -35 -140.5t-96 -159.5h-220q53 68 87 136q35 68 35 107z" />
    <glyph glyph-name="omicron" unicode="&#x3bf;" horiz-adv-x="1189" 
d="M66 446q-2 132 42.5 245.5t120.5 191t178 120.5t214 41q219 2 344 -128.5t123 -337.5q2 -132 -42.5 -245.5t-120.5 -191t-178 -120.5t-214 -41q-219 -2 -344 128.5t-123 337.5zM540 173h18q116 -2 207 109.5t88 279.5q0 130 -63 210q-63 79 -177 79h-18q-116 2 -206 -109
t-88 -280q0 -131 63.5 -210t175.5 -79z" />
    <glyph glyph-name="pi" unicode="&#x3c0;" horiz-adv-x="1223" 
d="M80 0l176 833h-141l43 191h1060l-43 -191h-126l-115 -542q-4 -17 -4 -30q0 -58 65 -58h46l-42 -203h-115q-88 0 -145 48q-56 50 -56 133q0 38 7 67l124 585h-323l-176 -833h-235z" />
    <glyph glyph-name="rho" unicode="&#x3c1;" horiz-adv-x="1215" 
d="M-84 -410l206 967q104 487 554 487q196 0 317 -121t121 -338q0 -162 -65 -303q-64 -138 -180 -221q-114 -81 -255 -81q-114 0 -206 50q-91 51 -136 133l-121 -573h-235zM573 173h17q112 -3 201.5 117t86.5 284q0 133 -58.5 205t-163.5 72h-16q-83 2 -153.5 -55
t-109.5 -152.5t-38 -204.5q0 -121 68 -193.5t166 -72.5z" />
    <glyph glyph-name="sigma1" unicode="&#x3c2;" horiz-adv-x="1080" 
d="M649 -62q0 29 -15.5 45.5t-43.5 16.5h-53q-225 0 -347.5 114.5t-122.5 331.5q-2 132 43 246.5t120.5 191t175 119.5t205.5 41q211 0 326.5 -102.5t110.5 -268.5h-239q6 84 -44.5 131t-141.5 47h-17q-125 2 -215.5 -115t-88.5 -280q0 -124 69.5 -193.5t182.5 -69.5h93
q110 0 170.5 -50.5t60.5 -147.5q0 -59 -35.5 -138.5t-96.5 -161.5h-220q53 68 87 136q36 68 36 107z" />
    <glyph glyph-name="sigma" unicode="&#x3c3;" horiz-adv-x="1220" 
d="M66 437q-2 138 42.5 251.5t121 186t176.5 111.5t210 38h598l-37 -193h-234q57 -30 101 -115t44 -180q2 -122 -43.5 -228.5t-122 -177.5t-177 -111t-207.5 -39q-217 -2 -345.5 126.5t-126.5 330.5zM546 173h17q115 -2 203 110.5t86 284.5q0 116 -66 189.5t-179 73.5h-16
q-118 2 -205 -103t-85 -275q0 -127 65.5 -203.5t179.5 -76.5z" />
    <glyph glyph-name="tau" unicode="&#x3c4;" horiz-adv-x="960" 
d="M613 831l-114 -536q-5 -28 -5 -35q0 -27 17 -42t45 -15h220l-43 -203h-282q-91 0 -146 49t-55 132q0 38 7 67l123 583h-308l42 193h857l-44 -193h-314z" />
    <glyph glyph-name="upsilon" unicode="&#x3c5;" horiz-adv-x="1147" 
d="M86 337q0 62 15 128l118 559h235l-123 -580q-10 -47 -10 -94q0 -83 43 -130t120 -47h19q187 0 242 261l125 590h235l-128 -604q-47 -214 -161 -327q-115 -113 -331 -113q-188 0 -293.5 98t-105.5 259z" />
    <glyph glyph-name="phi" unicode="&#x3c6;" horiz-adv-x="1564" 
d="M774 -18l-84 -393h-236l86 399q-231 24 -353 141.5t-122 324.5q-1 108 32 208t94 180t154.5 133t205.5 65l-20 -209q-109 -25 -170 -129t-61 -239q0 -130 69 -200.5t212 -84.5l126 584q59 282 317 282q191 2 318.5 -121t125.5 -318q2 -290 -187.5 -457t-506.5 -166z
M1233 591q0 114 -58.5 187t-138.5 73q-41 0 -63.5 -26t-37.5 -95l-119 -554q191 5 304 114t113 301z" />
    <glyph glyph-name="chi" unicode="&#x3c7;" horiz-adv-x="1072" 
d="M-201 -410l559 749l-146 407q-18 47 -42.5 66t-71.5 19h-41l41 193h87q106 -2 152 -36.5t72 -110.5l114 -322l348 469h270l-526 -701l171 -459q15 -42 33.5 -56t59.5 -14h47l-44 -204h-70q-102 0 -152 37t-78 119l-132 362l-383 -518h-268z" />
    <glyph glyph-name="psi" unicode="&#x3c8;" horiz-adv-x="1590" 
d="M1317 1024h236l-109 -509q-40 -182 -116 -295t-210.5 -173t-340.5 -65l-84 -392h-235l84 397q-222 22 -336.5 126.5t-114.5 284.5q0 50 18 146l103 480h235l-102 -478q-14 -73 -14 -125q0 -110 60 -170.5t192 -74.5l241 1135h236l-242 -1137q181 14 270 104.5t128 266.5z
" />
    <glyph glyph-name="omega" unicode="&#x3c9;" horiz-adv-x="1557" 
d="M63 417q-2 258 139 431t375 196l-39 -205q-119 -32 -179 -140t-60 -280q0 -129 38 -187.5t115 -58.5q142 0 179 224l46 281h236l-47 -280q-5 -30 -5 -52q0 -74 29 -124q30 -49 96 -49q98 0 162.5 93t64.5 291q0 236 -185 282l43 205q180 -28 279 -158.5t99 -328.5
q2 -130 -35.5 -241t-101.5 -184t-146.5 -113.5t-170.5 -38.5q-96 0 -170 47q-72 46 -100 127q-44 -82 -128 -128q-85 -46 -183 -46q-157 0 -254 116.5t-97 320.5z" />
    <glyph glyph-name="iotadieresis" unicode="&#x3ca;" horiz-adv-x="581" 
d="M56 181q0 38 7 67l163 776h236l-156 -733q-4 -20 -4 -30q0 -58 65 -58h83l-43 -203h-152q-90 0 -144.5 48.5t-54.5 132.5zM63 1168l52 244h229l-53 -244h-228zM463 1168l53 244h229l-53 -244h-229z" />
    <glyph glyph-name="upsilondieresis" unicode="&#x3cb;" horiz-adv-x="1147" 
d="M86 337q0 62 15 128l118 559h235l-123 -580q-10 -47 -10 -94q0 -83 43 -130t120 -47h19q187 0 242 261l125 590h235l-128 -604q-47 -214 -161 -327q-115 -113 -331 -113q-188 0 -293.5 98t-105.5 259zM372 1168l52 244h229l-53 -244h-228zM772 1168l53 244h229l-53 -244
h-229z" />
    <glyph glyph-name="omicrontonos" unicode="&#x3cc;" horiz-adv-x="1189" 
d="M66 446q-2 132 42.5 245.5t120.5 191t178 120.5t214 41q219 2 344 -128.5t123 -337.5q2 -132 -42.5 -245.5t-120.5 -191t-178 -120.5t-214 -41q-219 -2 -344 128.5t-123 337.5zM540 173h18q116 -2 207 109.5t88 279.5q0 130 -63 210q-63 79 -177 79h-18q-116 2 -206 -109
t-88 -280q0 -131 63.5 -210t175.5 -79zM613 1140l113 294h260l-230 -294h-143z" />
    <glyph glyph-name="upsilontonos" unicode="&#x3cd;" horiz-adv-x="1147" 
d="M86 337q0 62 15 128l118 559h235l-123 -580q-10 -47 -10 -94q0 -83 43 -130t120 -47h19q187 0 242 261l125 590h235l-128 -604q-47 -214 -161 -327q-115 -113 -331 -113q-188 0 -293.5 98t-105.5 259zM600 1140l113 294h260l-230 -294h-143z" />
    <glyph glyph-name="omegatonos" unicode="&#x3ce;" horiz-adv-x="1557" 
d="M63 417q-2 258 139 431t375 196l-39 -205q-119 -32 -179 -140t-60 -280q0 -129 38 -187.5t115 -58.5q142 0 179 224l46 281h236l-47 -280q-5 -30 -5 -52q0 -74 29 -124q30 -49 96 -49q98 0 162.5 93t64.5 291q0 236 -185 282l43 205q180 -28 279 -158.5t99 -328.5
q2 -130 -35.5 -241t-101.5 -184t-146.5 -113.5t-170.5 -38.5q-96 0 -170 47q-72 46 -100 127q-44 -82 -128 -128q-85 -46 -183 -46q-157 0 -254 116.5t-97 320.5zM777 1140l113 294h260l-230 -294h-143z" />
    <glyph glyph-name="uni0401" unicode="&#x401;" horiz-adv-x="1346" 
d="M50 0l305 1434h1068l-47 -220h-822l-80 -369h701l-46 -220h-701l-86 -406h842l-46 -219h-1088zM597 1580l48 228h234l-47 -228h-235zM991 1580l48 228h234l-47 -228h-235z" />
    <glyph glyph-name="uni0402" unicode="&#x402;" horiz-adv-x="1689" 
d="M374 0l258 1214h-468l46 220h1211l-47 -220h-497l-72 -340h365q184 2 299 -96t113 -246q0 -32 -4 -55l-10 -72q-57 -405 -436 -405h-216l45 221h156q174 0 203 185l7 46q2 16 2 33q0 79 -56 125.5t-154 46.5h-362l-138 -657h-245z" />
    <glyph glyph-name="uni0403" unicode="&#x403;" horiz-adv-x="1067" 
d="M49 0l306 1434h864l-45 -220h-620l-259 -1214h-246zM725 1539l88 284h283l-204 -284h-167z" />
    <glyph glyph-name="uni0404" unicode="&#x404;" horiz-adv-x="1471" 
d="M1138 463h251q-38 -234 -205.5 -358.5t-425.5 -124.5q-136 -2 -255 46t-203.5 133.5t-132.5 206.5t-46 259q0 240 94 427q94 188 267 295t400 107q152 1 277 -58t199.5 -171t77.5 -255h-249q-6 119 -96 192t-215 73h-21q-178 0 -301.5 -108.5t-164.5 -292.5h666l-48 -219
h-637q5 -190 110 -303t284 -113h21q122 -2 222 69.5t131 194.5z" />
    <glyph glyph-name="uni0405" unicode="&#x405;" horiz-adv-x="1284" 
d="M38 429q0 24 2 44h243v-26q0 -123 87 -186q88 -62 232 -62h21q121 0 198 52.5t77 136.5q0 66 -51 111.5t-173 88.5l-165 62q-153 57 -224.5 145t-71.5 225q-2 120 67.5 220.5t194 158t273.5 55.5q121 1 223.5 -35t169 -98t103 -141t35.5 -165v-23h-246q-2 117 -80 179
q-77 64 -209 64h-20q-112 0 -188.5 -55t-76.5 -138q0 -57 35 -95t108 -66l220 -87q169 -66 245.5 -158t76.5 -227q3 -188 -146 -309.5t-385 -119.5q-270 -2 -423.5 125.5t-151.5 323.5z" />
    <glyph glyph-name="uni0406" unicode="&#x406;" horiz-adv-x="601" 
d="M50 0l305 1434h246l-305 -1434h-246z" />
    <glyph glyph-name="uni0407" unicode="&#x407;" horiz-adv-x="601" 
d="M50 0l305 1434h246l-305 -1434h-246zM187 1580l48 228h234l-47 -228h-235zM581 1580l48 228h234l-47 -228h-235z" />
    <glyph glyph-name="uni0408" unicode="&#x408;" horiz-adv-x="860" 
d="M-59 0l50 236h223q83 0 127 36t62 117l223 1045h246l-228 -1065q-42 -196 -146.5 -282.5t-302.5 -86.5h-254z" />
    <glyph glyph-name="uni0409" unicode="&#x409;" horiz-adv-x="2264" 
d="M2177 491q2 -144 -70 -257.5t-197.5 -174.5t-278.5 -59h-653l257 1214h-523l-36 -166q-29 -138 -89 -384q-54 -219 -92 -344q-51 -166 -149 -243t-268 -77h-175l50 226l89 1q110 3 157.5 33.5t76.5 123.5q44 151 85 318q56 229 85 364l77 368h1007l-2 -2l-114 -536h295
q120 1 212 -31.5t147 -89.5t82 -129t27 -155zM1923 484q0 199 -241 199h-313l-98 -464h351q141 0 221 68.5t80 196.5z" />
    <glyph glyph-name="uni040A" unicode="&#x40a;" horiz-adv-x="2204" 
d="M50 0l305 1434h246l-123 -577h636l123 577h246l-124 -580h326q214 0 324 -99.5t110 -265.5q2 -141 -70 -254t-199.5 -175t-283.5 -60h-634l135 637h-635l-136 -637h-246zM1226 219h354q130 0 207.5 65t77.5 180q0 85 -52 130.5t-155 45.5h-345z" />
    <glyph glyph-name="uni040B" unicode="&#x40b;" horiz-adv-x="1660" 
d="M1545 582q0 -46 -11 -101l-101 -481h-246l92 431q12 57 12 87q0 61 -37.5 89t-120.5 28h-377l-135 -635h-246l258 1214h-469l46 220h1212l-47 -220h-496l-77 -360h397q182 0 264 -74q82 -73 82 -198z" />
    <glyph glyph-name="uni040C" unicode="&#x40c;" horiz-adv-x="1470" 
d="M1574 1434l-739 -615l556 -819h-295l-448 663l-255 -212l-95 -451h-245l301 1434h245l-137 -652l778 652h334zM804 1539l88 284h283l-204 -284h-167z" />
    <glyph glyph-name="uni040E" unicode="&#x40e;" horiz-adv-x="1332" 
d="M1236 1434h261l-837 -1240q-69 -100 -155.5 -147t-204.5 -47h-207l48 219h159q65 3 108.5 28t81.5 81l13 19l-324 1087h271l235 -820zM520 1772q0 20 2 42h199q-1 -6 -1 -28q0 -49 36 -74.5t98 -25.5q151 0 186 128h199q-28 -148 -126 -214q-97 -66 -287 -66
q-147 0 -226.5 62t-79.5 176z" />
    <glyph glyph-name="uni040F" unicode="&#x40f;" horiz-adv-x="1498" 
d="M1499 1434l-306 -1434h-430l-65 -300h-231l68 300h-484l304 1434h246l-257 -1215h651l258 1215h246z" />
    <glyph glyph-name="uni0410" unicode="&#x410;" horiz-adv-x="1422" 
d="M1046 0l-60 351h-644l-210 -351h-252l866 1434h290l248 -1434h-238zM473 571h475l-106 617z" />
    <glyph glyph-name="uni0411" unicode="&#x411;" horiz-adv-x="1347" 
d="M50 0l305 1434h969l-45 -220h-724l-71 -334h346q203 0 310.5 -107t107.5 -278q2 -229 -152 -363t-407 -132h-639zM344 219h364q129 0 207 72.5t78 189.5q0 86 -50.5 136t-144.5 50h-357z" />
    <glyph glyph-name="uni0412" unicode="&#x412;" horiz-adv-x="1388" 
d="M50 0l305 1434h584q182 0 297 -91t115 -253q0 -145 -87 -247.5t-229 -129.5q101 -33 156.5 -111t55.5 -188q2 -115 -59.5 -211.5t-168.5 -150.5t-233 -52h-736zM472 836h396q96 -2 168 60t70 154q0 164 -221 164h-332zM341 219h414q106 0 176 61.5t70 170.5
q0 79 -52.5 124.5t-148.5 45.5h-374z" />
    <glyph glyph-name="uni0413" unicode="&#x413;" horiz-adv-x="1067" 
d="M49 0l306 1434h864l-45 -220h-620l-259 -1214h-246z" />
    <glyph glyph-name="uni0414" unicode="&#x414;" horiz-adv-x="1586" 
d="M1506 1434l-258 -1215h210l-109 -519h-238l62 300h-1028l-62 -300h-240l110 519l100 2q139 1 195 165q61 182 172 689l78 359h1008zM1003 219l211 995h-527l-29 -142q-40 -185 -86 -372q-62 -254 -80 -317q-31 -113 -71 -164h582z" />
    <glyph glyph-name="uni0415" unicode="&#x415;" horiz-adv-x="1346" 
d="M50 0l305 1434h1068l-47 -220h-822l-80 -369h701l-46 -220h-701l-86 -406h842l-46 -219h-1088z" />
    <glyph glyph-name="uni0416" unicode="&#x416;" horiz-adv-x="2164" 
d="M2300 1434l-603 -575l344 -859h-266l-280 687l-2 -1l-326 -309l-80 -377h-238l88 416l-193 280l-569 -696h-297l724 889l-391 545h287l502 -725l154 725h238l-154 -724l767 724h295z" />
    <glyph glyph-name="uni0417" unicode="&#x417;" horiz-adv-x="1332" 
d="M1199 422q2 -209 -159.5 -327t-426.5 -116q-266 0 -403 125t-133 360h254q4 -265 297 -265q154 0 238.5 56.5t84.5 165.5q0 96 -68 146.5t-190 50.5h-192l45 213h218q128 0 197.5 56.5t69.5 161.5q0 87 -70.5 138t-194.5 51q-178 0 -258 -78q-81 -78 -97 -188h-253
q7 103 72 214q64 110 202 189q137 79 351 79q240 0 370.5 -106.5t130.5 -285.5q0 -131 -84 -221t-236 -127q235 -66 235 -292z" />
    <glyph glyph-name="uni0418" unicode="&#x418;" horiz-adv-x="1557" 
d="M1247 1434h310l-304 -1434h-246l236 1106l-882 -1106h-310l304 1434h246l-230 -1091z" />
    <glyph glyph-name="uni0419" unicode="&#x419;" horiz-adv-x="1557" 
d="M1247 1434h310l-304 -1434h-246l236 1106l-882 -1106h-310l304 1434h246l-230 -1091zM623 1767q0 20 2 42h199q-1 -6 -1 -28q0 -49 36 -74.5t98 -25.5q151 0 186 128h199q-28 -148 -126 -214t-287 -66q-147 0 -226.5 62t-79.5 176z" />
    <glyph glyph-name="uni041A" unicode="&#x41a;" horiz-adv-x="1470" 
d="M1574 1434l-739 -615l556 -819h-295l-448 663l-255 -212l-95 -451h-245l301 1434h245l-137 -652l778 652h334z" />
    <glyph glyph-name="uni041B" unicode="&#x41b;" horiz-adv-x="1530" 
d="M-97 0l50 226l89 1q110 3 157.5 33.5t76.5 123.5q44 151 85 318q56 229 85 364l77 368h1007l-305 -1434h-245l258 1214h-526l-36 -166q-29 -138 -89 -384q-54 -219 -92 -344q-51 -166 -149 -243t-268 -77h-175z" />
    <glyph glyph-name="uni041C" unicode="&#x41c;" horiz-adv-x="1920" 
d="M1534 1434h387l-305 -1434h-246l249 1169l-623 -1169h-313l-136 1181l-251 -1181h-246l305 1434h385l141 -1205z" />
    <glyph glyph-name="uni041D" unicode="&#x41d;" horiz-adv-x="1515" 
d="M50 0l305 1434h246l-130 -607h669l129 607h246l-305 -1434h-246l130 607h-669l-129 -607h-246z" />
    <glyph glyph-name="uni041E" unicode="&#x41e;" horiz-adv-x="1580" 
d="M116 611q0 237 94 428q95 193 266 303q172 112 400 112q183 2 329.5 -79.5t227.5 -228t79 -328.5q0 -236 -95 -428t-268 -301t-402 -109q-182 -2 -327.5 79.5t-225.5 226.5t-78 325zM755 199h26q139 -3 251.5 78.5t173 218t58.5 296.5q2 198 -111 321.5t-285 121.5h-26
q-136 3 -246.5 -76.5t-172 -217.5t-59.5 -303q-2 -196 108.5 -318.5t282.5 -120.5z" />
    <glyph glyph-name="uni041F" unicode="&#x41f;" horiz-adv-x="1502" 
d="M355 1434h1148l-306 -1434h-245l259 1214h-656l-259 -1214h-246z" />
    <glyph glyph-name="uni0420" unicode="&#x420;" horiz-adv-x="1319" 
d="M51 0l303 1434h547q196 0 316.5 -110.5t120.5 -293.5q1 -99 -35.5 -189.5t-100.5 -156t-155 -104t-193 -36.5h-442l-116 -544h-245zM460 764h383q109 0 178 72t69 181q0 96 -62.5 146.5t-180.5 50.5h-293z" />
    <glyph glyph-name="uni0421" unicode="&#x421;" horiz-adv-x="1475" 
d="M118 614q0 239 94 428q95 192 269 302q175 110 403 110q152 1 276.5 -57.5t198 -170t76.5 -255.5h-248q-4 120 -92 192t-219 72h-21q-138 3 -251.5 -79.5t-176 -221t-60.5 -298.5q0 -197 106 -317t288 -120h20q128 0 228 69.5t129 193.5h248q-39 -231 -207 -356.5
t-426 -125.5q-183 -2 -329 79t-227 226.5t-79 328.5z" />
    <glyph glyph-name="uni0422" unicode="&#x422;" horiz-adv-x="1314" 
d="M407 0l258 1214h-502l46 220h1250l-46 -220h-503l-258 -1214h-245z" />
    <glyph glyph-name="uni0423" unicode="&#x423;" horiz-adv-x="1332" 
d="M1236 1434h261l-837 -1240q-69 -100 -155.5 -147t-204.5 -47h-207l48 219h159q65 3 108.5 28t81.5 81l13 19l-324 1087h271l235 -820z" />
    <glyph glyph-name="uni0424" unicode="&#x424;" horiz-adv-x="1784" 
d="M633 -49l32 155q-114 10 -214.5 50t-178 106t-121.5 162t-43 209q-1 136 38 250.5t111 197t171 139.5t218 85t252 27h29l31 150h243l-33 -153q115 -9 217 -50.5t178.5 -109t120 -164t42.5 -209.5q2 -216 -97.5 -375.5t-274.5 -240.5t-401 -79h-45l-33 -150h-242zM709 311
l173 813h-21q-223 2 -362.5 -126t-137.5 -351q0 -146 93 -235q95 -88 255 -101zM1473 778q0 152 -99.5 244t-249.5 101l-172 -814q256 4 388.5 124.5t132.5 344.5z" />
    <glyph glyph-name="uni0425" unicode="&#x425;" horiz-adv-x="1326" 
d="M1472 1434l-636 -704l361 -730h-276l-263 533l-482 -533h-298l674 747l-340 687h276l242 -490l442 490h300z" />
    <glyph glyph-name="uni0426" unicode="&#x426;" horiz-adv-x="1610" 
d="M1240 219h268l-113 -519h-228l64 300h-1180l304 1434h246l-257 -1215h651l258 1215h246z" />
    <glyph glyph-name="uni0427" unicode="&#x427;" horiz-adv-x="1374" 
d="M824 0l113 525h-448q-161 0 -244.5 76.5t-83.5 217.5q0 46 11 110l105 505h246l-103 -485q-10 -53 -10 -84q0 -66 40.5 -93.5t138.5 -27.5h393l147 690h246l-306 -1434h-245z" />
    <glyph glyph-name="uni0428" unicode="&#x428;" horiz-adv-x="2173" 
d="M1927 1434h246l-304 -1434h-1818l304 1434h246l-257 -1215h540l258 1215h245l-258 -1215h541z" />
    <glyph glyph-name="uni0429" unicode="&#x429;" horiz-adv-x="2265" 
d="M2173 1434l-258 -1215h242l-113 -519h-228l63 300h-1828l304 1434h246l-257 -1215h540l258 1215h245l-258 -1215h541l257 1215h246z" />
    <glyph glyph-name="uni042A" unicode="&#x42a;" horiz-adv-x="1614" 
d="M1528 491q2 -144 -70 -257.5t-197.5 -174.5t-278.5 -59h-653l257 1214h-433l46 220h680l-114 -538h295q120 1 212 -31.5t147 -89.5t82 -129t27 -155zM1274 484q0 199 -241 199h-313l-98 -464h351q141 0 221 68.5t80 196.5z" />
    <glyph glyph-name="uni042B" unicode="&#x42b;" horiz-adv-x="1872" 
d="M1250 491q2 -144 -70 -257.5t-197.5 -174.5t-278.5 -59h-653l304 1434h246l-114 -538h295q120 1 212 -31.5t147 -89.5t82 -129t27 -155zM996 484q0 199 -241 199h-313l-98 -464h351q141 0 221 68.5t80 196.5zM1321 0l305 1434h246l-305 -1434h-246z" />
    <glyph glyph-name="uni042C" unicode="&#x42c;" horiz-adv-x="1336" 
d="M1250 491q2 -144 -70 -257.5t-197.5 -174.5t-278.5 -59h-653l304 1434h246l-114 -538h295q120 1 212 -31.5t147 -89.5t82 -129t27 -155zM996 484q0 199 -241 199h-313l-98 -464h351q141 0 221 68.5t80 196.5z" />
    <glyph glyph-name="uni042D" unicode="&#x42d;" horiz-adv-x="1458" 
d="M1391 836q0 -218 -80 -416q-79 -194 -247 -318q-167 -122 -412 -122q-177 -1 -306 51t-202 162t-74 271h247q9 -117 96 -191t216 -74h21q186 0 304 113q119 114 162 304h-645l48 219h621v30q0 167 -93.5 268.5t-247.5 101.5h-27q-154 0 -250 -69t-132 -196h-254
q40 218 210.5 351.5t439.5 132.5q280 3 443.5 -168.5t161.5 -449.5z" />
    <glyph glyph-name="uni042E" unicode="&#x42e;" horiz-adv-x="2123" 
d="M2055 818q0 -236 -95 -428t-268 -301t-402 -109q-135 -2 -253.5 45t-201.5 130.5t-130 200.5t-46 251h-234l-129 -607h-246l305 1434h246l-128 -607h208q56 278 257 454t481 173q183 2 329.5 -79.5t227.5 -228t79 -328.5zM1807 792q2 198 -111 321.5t-285 121.5h-26
q-136 3 -246.5 -76.5t-172 -217.5t-59.5 -303q-2 -196 108.5 -318.5t282.5 -120.5h26q139 -3 251.5 78.5t173 218t58.5 296.5z" />
    <glyph glyph-name="uni042F" unicode="&#x42f;" horiz-adv-x="1398" 
d="M31 0l104 487q42 207 253 207l27 -1q-90 30 -146.5 112.5t-56.5 179.5q-2 201 152.5 326t397.5 123h636l-305 -1434h-246l120 557h-447q-70 0 -103 -27q-32 -26 -47 -97l-93 -433h-246zM679 774h334l94 440h-358q-136 0 -213.5 -62t-77.5 -175q0 -86 58.5 -144.5
t162.5 -58.5z" />
    <glyph glyph-name="uni0430" unicode="&#x430;" horiz-adv-x="1232" 
d="M63 434q0 176 73 315q74 140 193 217q119 78 250 78q115 0 203 -53t126 -134l36 167h235l-218 -1024h-235l26 119q-40 -59 -119 -100q-78 -39 -168 -39q-174 -2 -289 125.5t-113 328.5zM510 173h18q90 -2 162.5 59t110.5 158.5t37 206.5q0 113 -59 183.5t-157 70.5h-18
q-118 3 -213 -117t-92 -293q0 -119 57.5 -193.5t153.5 -74.5z" />
    <glyph glyph-name="uni0431" unicode="&#x431;" horiz-adv-x="1222" 
d="M96 510q0 198 67 393q68 197 202 327t328 130h240q49 0 72 15t30 49l6 27h214l-18 -84q-24 -116 -87.5 -168.5t-187.5 -52.5h-261q-153 0 -241 -74q-87 -74 -127 -233q67 75 165.5 114.5t215.5 39.5q181 2 293.5 -117.5t111.5 -312.5q2 -116 -39 -223t-113.5 -187.5
t-179 -127.5t-228.5 -45q-227 0 -345 138q-118 139 -118 392zM559 173h17q80 -2 151.5 49t114 136.5t40.5 180.5q0 118 -58.5 194t-154.5 76h-16q-80 1 -155.5 -45.5t-122.5 -129.5t-45 -177q0 -129 64.5 -206.5t164.5 -77.5z" />
    <glyph glyph-name="uni0432" unicode="&#x432;" horiz-adv-x="1085" 
d="M15 0l219 1024h455q150 0 233.5 -67.5t83.5 -178.5q2 -102 -75 -177t-174 -85q77 -15 126 -72q49 -56 49 -142q2 -133 -109.5 -218.5t-278.5 -83.5h-529zM374 602h233q80 0 124 38.5t44 107.5q0 50 -36 78.5t-104 28.5h-206zM283 169h231q182 0 182 149q0 52 -36.5 83
t-104.5 31h-214z" />
    <glyph glyph-name="uni0433" unicode="&#x433;" horiz-adv-x="824" 
d="M15 0l219 1024h655l-42 -191h-418l-178 -833h-236z" />
    <glyph glyph-name="uni0434" unicode="&#x434;" horiz-adv-x="1261" 
d="M1130 1024l-177 -833h174l-97 -452h-218l54 261h-744l-56 -261h-216l96 452h74q112 0 149 114q25 79 57 207q34 137 56 245l56 267h792zM718 191l135 642h-336l-18 -83q-25 -117 -57 -248q-29 -123 -53 -200q-22 -78 -61 -111h390z" />
    <glyph glyph-name="uni0435" unicode="&#x435;" horiz-adv-x="1140" 
d="M66 468q0 166 73 296q74 132 200 206q127 74 277 74q189 2 306 -113.5t115 -296.5q0 -102 -23 -183h-724v-22q0 -117 65.5 -186.5t172.5 -69.5h18q79 0 139 38.5t83 103.5h235q-45 -161 -167 -248t-310 -87q-204 -2 -333 133.5t-127 354.5zM313 634h498q2 16 2 34
q0 84 -56 133.5t-150 49.5h-18q-98 0 -172 -58.5t-104 -158.5z" />
    <glyph glyph-name="uni0436" unicode="&#x436;" horiz-adv-x="1687" 
d="M1738 1024l-433 -397l230 -627h-235l-181 466l-223 -202l-56 -264h-224l62 290l-140 188l-369 -478h-267l506 641l-284 383h246l361 -488l104 488h224l-104 -487l520 487h263z" />
    <glyph glyph-name="uni0437" unicode="&#x437;" horiz-adv-x="1067" 
d="M920 301q0 -141 -122.5 -231t-330.5 -90q-199 0 -310.5 94.5t-119.5 276.5h239q7 -89 59.5 -137t147.5 -48q86 0 139.5 37.5t53.5 104.5q0 57 -45 88t-126 31h-125l38 178h140q80 0 125.5 35.5t45.5 96.5q0 58 -47 89.5t-124 31.5q-105 0 -166 -53q-59 -53 -73 -130h-239
q31 167 160.5 268t340.5 101q180 0 285 -77.5t105 -209.5q0 -97 -64.5 -165t-155.5 -84q78 -21 123.5 -75t45.5 -132z" />
    <glyph glyph-name="uni0438" unicode="&#x438;" horiz-adv-x="1238" 
d="M1186 1024l-219 -1024h-236l163 764l-559 -764h-320l219 1024h236l-163 -763l561 763h318z" />
    <glyph glyph-name="uni0439" unicode="&#x439;" horiz-adv-x="1238" 
d="M1186 1024l-219 -1024h-236l163 764l-559 -764h-320l219 1024h236l-163 -763l561 763h318zM419 1391q0 16 3 43h204v-9q1 -70 26.5 -102.5t84.5 -32.5q111 0 145 144h212q-49 -302 -369 -302q-142 0 -224 70t-82 189z" />
    <glyph glyph-name="uni043A" unicode="&#x43a;" horiz-adv-x="1172" 
d="M16 0l218 1024h236l-90 -415l520 415h311l-528 -421l397 -603h-272l-301 464l-189 -149l-66 -315h-236z" />
    <glyph glyph-name="uni043B" unicode="&#x43b;" horiz-adv-x="1157" 
d="M-90 0l44 204h60q57 0 94 23q36 23 59 95q40 124 89 357l74 345h775l-219 -1024h-236l177 833h-319l-37 -167q-43 -200 -107 -413q-43 -139 -117.5 -196t-203.5 -57h-133z" />
    <glyph glyph-name="uni043C" unicode="&#x43c;" horiz-adv-x="1526" 
d="M1474 1024l-219 -1024h-226l174 813l-459 -813h-221l-112 814l-174 -814h-222l219 1024h354l106 -765l435 765h345z" />
    <glyph glyph-name="uni043D" unicode="&#x43d;" horiz-adv-x="1175" 
d="M15 0l219 1024h236l-85 -396h418l85 396h235l-219 -1024h-235l92 434h-418l-92 -434h-236z" />
    <glyph glyph-name="uni043E" unicode="&#x43e;" horiz-adv-x="1188" 
d="M65 446q-2 132 42.5 245.5t120.5 191t178 120.5t214 41q219 2 344 -128.5t123 -337.5q2 -132 -42.5 -245.5t-120.5 -191t-178 -120.5t-214 -41q-219 -2 -344 128.5t-123 337.5zM539 173h18q116 -2 207 109.5t88 279.5q0 130 -63 210q-63 79 -177 79h-18q-116 2 -206 -109
t-88 -280q0 -131 63.5 -210t175.5 -79z" />
    <glyph glyph-name="uni043F" unicode="&#x43f;" horiz-adv-x="1164" 
d="M15 0l219 1024h878l-219 -1024h-236l179 833h-407l-178 -833h-236z" />
    <glyph glyph-name="uni0440" unicode="&#x440;" horiz-adv-x="1236" 
d="M-71 -410l305 1434h236l-25 -111q49 61 123 96t158 35q176 2 293.5 -126.5t115.5 -332.5q0 -165 -65 -306q-65 -139 -179 -219q-116 -80 -260 -80q-114 0 -207 48q-92 50 -138 129l-121 -567h-236zM591 174h19q72 -2 139.5 52.5t109 149.5t39.5 200q0 123 -59.5 198.5
t-161.5 75.5h-18q-85 2 -156 -55.5t-110.5 -154.5t-38.5 -209q0 -113 67 -185t170 -72z" />
    <glyph glyph-name="uni0441" unicode="&#x441;" horiz-adv-x="1124" 
d="M65 438q-2 133 43 248.5t121 193.5t176.5 122t208.5 42q195 0 313 -101t123 -269h-236q0 86 -51.5 131.5t-139.5 45.5h-18q-126 2 -216.5 -116t-88.5 -283q0 -128 64.5 -203.5t169.5 -75.5h18q81 0 140 48t81 129h235q-34 -174 -160 -272t-312 -98q-210 -2 -341.5 121
t-129.5 337z" />
    <glyph glyph-name="uni0442" unicode="&#x442;" horiz-adv-x="954" 
d="M1019 1024l-42 -191h-331l-178 -833h-236l178 833h-334l42 191h901z" />
    <glyph glyph-name="uni0443" unicode="&#x443;" horiz-adv-x="1130" 
d="M1207 1024l-646 -1012l-46 -218q-43 -193 -225 -193h-360l43 206h243q76 0 91 72l36 172l-227 973h245l153 -677l427 677h266z" />
    <glyph glyph-name="uni0444" unicode="&#x444;" horiz-adv-x="1790" 
d="M559 -410l110 505q-42 -50 -108.5 -82.5t-141.5 -32.5q-86 -1 -156 32t-114 90t-67.5 129.5t-22.5 152.5q0 176 61 326q61 151 178 242q119 92 279 92q88 0 155.5 -36t106.5 -95l111 521h231l-109 -507q48 52 116 84.5t143 32.5q162 3 263.5 -114.5t99.5 -292.5
q0 -179 -63 -330t-177 -239q-113 -88 -261 -88q-205 0 -289 140l-114 -530h-231zM480 171h16q84 0 146 66q64 67 95 169q33 104 33 211q0 101 -44 169q-43 67 -129 67h-15q-65 2 -120 -36.5t-90.5 -101.5t-55 -141t-18.5 -157q0 -106 46 -176t136 -70zM1148 171h17
q80 -3 145 65t97.5 170t31.5 208q0 103 -47 171t-132 68h-17q-78 2 -141.5 -58.5t-98 -164t-33.5 -225.5q0 -102 44 -169q45 -65 134 -65z" />
    <glyph glyph-name="uni0445" unicode="&#x445;" horiz-adv-x="1071" 
d="M-102 0l491 526l-264 498h254l170 -324l300 324h279l-481 -514l273 -510h-254l-177 338l-314 -338h-277z" />
    <glyph glyph-name="uni0446" unicode="&#x446;" horiz-adv-x="1254" 
d="M806 -261l54 261h-845l219 1024h236l-179 -833h419l178 833h236l-179 -833h175l-97 -452h-217z" />
    <glyph glyph-name="uni0447" unicode="&#x447;" horiz-adv-x="1061" 
d="M554 0l79 370h-224q-158 0 -242 61.5t-84 181.5q0 39 10 92l69 319h236l-66 -296q-8 -40 -8 -62q0 -54 37.5 -78t124.5 -24h189l98 460h236l-219 -1024h-236z" />
    <glyph glyph-name="uni0448" unicode="&#x448;" horiz-adv-x="1690" 
d="M15 0l219 1024h236l-177 -833h347l177 833h236l-177 -833h349l178 833h235l-219 -1024h-1404z" />
    <glyph glyph-name="uni0449" unicode="&#x449;" horiz-adv-x="1769" 
d="M1638 1024l-178 -833h175l-97 -452h-218l53 261h-1358l219 1024h236l-177 -833h347l177 833h236l-177 -833h349l178 833h235z" />
    <glyph glyph-name="uni044A" unicode="&#x44a;" horiz-adv-x="1238" 
d="M1141 388q3 -163 -127.5 -276.5t-326.5 -111.5h-468l179 836h-322l40 188h558l-72 -336h203q158 0 247 -82.5t89 -217.5zM899 372q0 65 -40 98.5t-115 33.5h-181l-68 -320h185q106 0 162.5 50t56.5 138z" />
    <glyph glyph-name="uni044B" unicode="&#x44b;" horiz-adv-x="1486" 
d="M15 0l219 1024h236l-72 -336h203q158 0 247 -82.5t89 -217.5q3 -163 -127.5 -276.5t-326.5 -111.5h-468zM979 0l219 1024h236l-220 -1024h-235zM291 184h185q106 0 162.5 50t56.5 138q0 65 -40 98.5t-115 33.5h-181z" />
    <glyph glyph-name="uni044C" unicode="&#x44c;" horiz-adv-x="1034" 
d="M15 0l219 1024h236l-72 -336h203q158 0 247 -82.5t89 -217.5q3 -163 -127.5 -276.5t-326.5 -111.5h-468zM291 184h185q106 0 162.5 50t56.5 138q0 65 -40 98.5t-115 33.5h-181z" />
    <glyph glyph-name="uni044D" unicode="&#x44d;" horiz-adv-x="1102" 
d="M999 588q1 -124 -33 -233.5t-99.5 -194t-169 -133t-233.5 -47.5q-191 0 -308.5 98t-124.5 273h236q5 -83 55.5 -131.5t133.5 -48.5h17q110 0 180.5 64t98.5 185h-377l39 183h357v14q0 109 -57.5 172.5t-150.5 63.5h-17q-85 0 -146 -47.5t-88 -132.5h-236q32 169 168 271
t317 100q205 0 321.5 -122t116.5 -334z" />
    <glyph glyph-name="uni044E" unicode="&#x44e;" horiz-adv-x="1616" 
d="M1515 578q2 -132 -42.5 -245.5t-120.5 -191t-178 -120.5t-214 -41q-218 0 -341 125.5t-126 330.5h-149l-93 -436h-236l219 1024h236l-85 -397h130q47 190 196.5 304.5t336.5 112.5q219 2 344 -128.5t123 -337.5zM1280 562q0 130 -63 210q-63 79 -177 79h-18
q-116 2 -206 -109t-88 -280q0 -131 63.5 -210t175.5 -79h18q116 -2 207 109.5t88 279.5z" />
    <glyph glyph-name="uni044F" unicode="&#x44f;" horiz-adv-x="1122" 
d="M0 0l67 298q18 82 72 128.5t133 47.5q-62 23 -103 83q-40 59 -40 131q-2 140 112 239t315 97h514l-219 -1024h-235l77 360h-275q-56 0 -81.5 -21t-37.5 -79l-58 -260h-241zM523 545h210l62 295h-220q-109 0 -160 -39.5t-51 -125.5q0 -61 41 -95.5t118 -34.5z" />
    <glyph glyph-name="uni0451" unicode="&#x451;" horiz-adv-x="1140" 
d="M66 468q0 166 73 296q74 132 200 206q127 74 277 74q189 2 306 -113.5t115 -296.5q0 -102 -23 -183h-724v-22q0 -117 65.5 -186.5t172.5 -69.5h18q79 0 139 38.5t83 103.5h235q-45 -161 -167 -248t-310 -87q-204 -2 -333 133.5t-127 354.5zM313 634h498q2 16 2 34
q0 84 -56 133.5t-150 49.5h-18q-98 0 -172 -58.5t-104 -158.5zM328 1179l52 244h229l-53 -244h-228zM728 1179l53 244h229l-53 -244h-229z" />
    <glyph glyph-name="uni0452" unicode="&#x452;" horiz-adv-x="1170" 
d="M303 -396l44 203h208q40 0 63 19.5t32 66.5l159 740q9 54 9 79q0 66 -38.5 103.5t-108.5 37.5h-16q-95 0 -175 -80.5t-108 -213.5l-119 -559h-236l244 1146h-190l36 165h188l27 123h235l-26 -123h283l-36 -165h-282l-52 -237q126 135 305 135q140 0 224.5 -78t84.5 -201
q0 -74 -13 -129l-177 -834q-42 -198 -227 -198h-338z" />
    <glyph glyph-name="uni0453" unicode="&#x453;" horiz-adv-x="824" 
d="M15 0l219 1024h655l-42 -191h-418l-178 -833h-236zM487 1140l113 294h260l-230 -294h-143z" />
    <glyph glyph-name="uni0454" unicode="&#x454;" horiz-adv-x="1117" 
d="M769 351h235q-35 -178 -156.5 -274.5t-311.5 -96.5q-210 -2 -341 122t-129 337q-2 134 42 249.5t118.5 193t173.5 121t206 41.5q197 0 315 -100.5t126 -270.5h-235q-3 88 -53 134t-138 46h-17q-106 0 -183 -67q-78 -66 -105 -183h402l-39 -183h-377q7 -119 68.5 -184
t166.5 -65h16q78 0 135.5 48t80.5 132z" />
    <glyph glyph-name="uni0455" unicode="&#x455;" horiz-adv-x="1000" 
d="M1 329h239q5 -75 57 -115q53 -41 128 -41h19q71 0 115.5 33t44.5 86q0 68 -92 101l-126 49q-130 49 -191 116.5t-61 167.5q-3 133 115 226.5t290 91.5q116 1 209.5 -39.5t148.5 -120t53 -183.5h-237q-1 67 -52.5 108.5t-122.5 41.5h-18q-68 0 -109.5 -30.5t-41.5 -82.5
q0 -66 94 -101l137 -54q109 -42 176 -106q67 -63 67 -178q2 -138 -116.5 -229.5t-291.5 -89.5q-203 0 -315.5 93.5t-118.5 255.5z" />
    <glyph glyph-name="uni0456" unicode="&#x456;" horiz-adv-x="524" 
d="M255 1179l54 255h256l-54 -255h-256zM17 0l217 1024h236l-217 -1024h-236z" />
    <glyph glyph-name="uni0457" unicode="&#x457;" horiz-adv-x="524" 
d="M17 0l217 1024h236l-217 -1024h-236zM46 1179l52 244h229l-53 -244h-228zM446 1179l53 244h229l-53 -244h-229z" />
    <glyph glyph-name="uni0458" unicode="&#x458;" horiz-adv-x="542" 
d="M-342 -396l44 203h220q70 0 86 76l244 1141h235l-260 -1228q-41 -192 -226 -192h-343zM272 1179l54 255h256l-54 -255h-256z" />
    <glyph glyph-name="uni0459" unicode="&#x459;" horiz-adv-x="1659" 
d="M1562 388q3 -163 -127.5 -276.5t-326.5 -111.5h-468l177 833h-309l-37 -167q-43 -200 -107 -413q-43 -139 -117.5 -196t-203.5 -57h-133l44 204h60q57 0 94 23q36 23 59 95q40 124 89 357l74 345h765l-72 -336h203q158 0 247 -82.5t89 -217.5zM1320 372q0 65 -40 98.5
t-115 33.5h-181l-68 -320h185q106 0 162.5 50t56.5 138z" />
    <glyph glyph-name="uni045A" unicode="&#x45a;" horiz-adv-x="1682" 
d="M15 0l219 1024h236l-79 -363h418l79 363h235l-77 -362h165q171 0 271.5 -73t100.5 -200q0 -185 -122.5 -287t-337.5 -102h-454l100 470h-418l-100 -470h-236zM944 184h170q220 0 220 168q0 124 -164 124h-164z" />
    <glyph glyph-name="uni045B" unicode="&#x45b;" horiz-adv-x="1173" 
d="M1061 757q0 -49 -11 -113l-137 -644h-236l134 625q9 52 9 83q0 68 -35.5 105.5t-105.5 37.5h-18q-98 0 -179.5 -79.5t-110.5 -219.5l-117 -552h-236l243 1141h-173l37 173h172l26 120h235l-26 -120h298l-36 -173h-298l-52 -246q125 149 309 149q138 0 223 -81t85 -206z
" />
    <glyph glyph-name="uni045C" unicode="&#x45c;" horiz-adv-x="1172" 
d="M16 0l218 1024h236l-90 -415l520 415h311l-528 -421l397 -603h-272l-301 464l-189 -149l-66 -315h-236zM589 1140l113 294h260l-230 -294h-143z" />
    <glyph glyph-name="uni045E" unicode="&#x45e;" horiz-adv-x="1130" 
d="M1207 1024l-646 -1012l-46 -218q-43 -193 -225 -193h-360l43 206h243q76 0 91 72l36 172l-227 973h245l153 -677l427 677h266zM373 1391q0 16 3 43h204v-9q1 -70 26.5 -102.5t84.5 -32.5q111 0 145 144h212q-49 -302 -369 -302q-142 0 -224 70t-82 189z" />
    <glyph glyph-name="uni045F" unicode="&#x45f;" horiz-adv-x="1180" 
d="M1128 1024l-219 -1024h-313l-56 -261h-217l53 261h-361l219 1024h236l-179 -833h423l179 833h235z" />
    <glyph glyph-name="uni0462" unicode="&#x462;" horiz-adv-x="1538" 
d="M1438 491q2 -144 -70 -257.5t-197.5 -174.5t-278.5 -59h-653l226 1064h-316l43 210h317l34 160h246l-34 -160h425l-43 -210h-427l-35 -168h295q120 1 212 -31.5t147 -89.5t82 -129t27 -155zM1184 484q0 199 -241 199h-313l-98 -464h351q141 0 221 68.5t80 196.5z" />
    <glyph glyph-name="uni0463" unicode="&#x463;" horiz-adv-x="1216" 
d="M1101 381q2 -165 -126 -274.5t-323 -106.5h-473l179 841h-284l41 183h282l87 410h236l-86 -410h368l-40 -183h-367l-33 -159h183q164 0 260 -83.5t96 -217.5zM860 367q0 130 -156 130h-181l-68 -313h190q104 0 159.5 48.5t55.5 134.5z" />
    <glyph glyph-name="uni0472" unicode="&#x472;" horiz-adv-x="1580" 
d="M1512 818q0 -236 -95 -428t-268 -301t-402 -109q-182 -2 -327.5 79.5t-225.5 226.5t-78 325q0 237 94 428q95 193 266 303q172 112 400 112q183 2 329.5 -79.5t227.5 -228t79 -328.5zM380 803q110 84 252 84q79 0 191 -44l57 -25q98 -40 192 -40q102 0 190 67
q-15 178 -124 284t-270 106h-26q-170 2 -296.5 -118.5t-165.5 -313.5zM1248 634q-89 -65 -232 -66q-93 0 -220 50l-54 21q-58 22 -91.5 30.5t-74.5 8.5q-111 0 -211 -71q9 -186 116.5 -297t273.5 -111h26q174 -3 302 120.5t165 314.5z" />
    <glyph glyph-name="uni0473" unicode="&#x473;" horiz-adv-x="1188" 
d="M1087 578q2 -132 -42.5 -245.5t-120.5 -191t-178 -120.5t-214 -41q-219 -2 -344 128.5t-123 337.5q-2 132 42.5 245.5t120.5 191t178 120.5t214 41q219 2 344 -128.5t123 -337.5zM320 607q58 32 119 32q62 0 124 -28l40 -14q63 -26 120 -26q78 0 127 34
q-10 114 -72.5 180t-165.5 66h-18q-89 0 -165.5 -66t-108.5 -178zM836 430q-56 -30 -120 -32q-61 0 -141 28l-37 13q-71 23 -109 23q-67 0 -128 -34q8 -118 70.5 -186.5t167.5 -68.5h18q91 0 170.5 70.5t108.5 186.5z" />
    <glyph glyph-name="uni0474" unicode="&#x474;" horiz-adv-x="1482" 
d="M414 0l-226 1434h246l180 -1203l481 911q76 150 174.5 221t230.5 71h118l-47 -226h-44q-67 0 -119.5 -39.5t-98.5 -119.5l-582 -1049h-313z" />
    <glyph glyph-name="uni0475" unicode="&#x475;" horiz-adv-x="1136" 
d="M245 0l-127 1024h242l89 -820l303 588q60 120 137 176q79 56 200 56h103l-45 -203h-30q-59 0 -96 -27q-36 -24 -74 -96l-373 -698h-329z" />
    <glyph glyph-name="uni0490" unicode="&#x490;" horiz-adv-x="1067" 
d="M1028 1651h237l-91 -437h-620l-259 -1214h-246l306 1434h628z" />
    <glyph glyph-name="uni0491" unicode="&#x491;" horiz-adv-x="831" 
d="M725 1205h208l-78 -372h-426l-178 -833h-236l219 1024h453z" />
    <glyph glyph-name="uni0492" unicode="&#x492;" horiz-adv-x="1115" 
d="M1214 1214h-620l-89 -415h364l-45 -209h-363l-126 -590h-246l126 590h-178l45 209h177l136 635h864z" />
    <glyph glyph-name="uni0493" unicode="&#x493;" horiz-adv-x="878" 
d="M898 833h-418l-57 -268h270l-35 -167h-271l-85 -398h-236l85 398h-159l35 167h160l98 459h655z" />
    <glyph glyph-name="uni0496" unicode="&#x496;" horiz-adv-x="2259" 
d="M1697 859l256 -638h216l-113 -519h-227l63 298h-117l-280 687l-2 -1l-326 -309l-80 -377h-238l88 416l-193 280l-569 -696h-297l724 889l-391 545h287l502 -725l154 725h238l-154 -724l767 724h295z" />
    <glyph glyph-name="uni0497" unicode="&#x497;" horiz-adv-x="1757" 
d="M1305 627l160 -436h175l-97 -452h-217l53 261h-79l-181 466l-223 -202l-56 -264h-224l62 290l-140 188l-369 -478h-267l506 641l-284 383h246l361 -488l104 488h224l-104 -487l520 487h263z" />
    <glyph glyph-name="uni049A" unicode="&#x49a;" horiz-adv-x="1590" 
d="M835 819l407 -600h267l-113 -519h-228l63 300h-135l-448 663l-255 -212l-95 -451h-245l301 1434h245l-137 -652l778 652h334z" />
    <glyph glyph-name="uni049B" unicode="&#x49b;" horiz-adv-x="1276" 
d="M683 603l271 -412h227l-96 -452h-218l53 261h-112l-301 464l-189 -149l-66 -315h-236l218 1024h236l-90 -415l520 415h311z" />
    <glyph glyph-name="uni04A2" unicode="&#x4a2;" horiz-adv-x="1626" 
d="M1257 219h266l-113 -519h-228l63 300h-281l130 607h-669l-129 -607h-246l305 1434h246l-130 -607h669l129 607h246z" />
    <glyph glyph-name="uni04A3" unicode="&#x4a3;" horiz-adv-x="1254" 
d="M1123 1024l-178 -833h174l-96 -452h-218l53 261h-189l92 434h-418l-92 -434h-236l219 1024h236l-85 -396h418l85 396h235z" />
    <glyph glyph-name="uni04AE" unicode="&#x4ae;" horiz-adv-x="1312" 
d="M1485 1434l-709 -848l-125 -586h-246l126 592l-350 842h267l247 -606l492 606h298z" />
    <glyph glyph-name="uni04AF" unicode="&#x4af;" horiz-adv-x="1102" 
d="M1193 1024l-634 -947l-103 -487h-226l100 472l-241 962h264l153 -670l428 670h259z" />
    <glyph glyph-name="uni04B0" unicode="&#x4b0;" horiz-adv-x="1315" 
d="M779 586l-1 -4h343l-43 -209h-345l-79 -373h-246l79 373h-342l43 209h344l2 10l-350 842h267l247 -606l492 606h298z" />
    <glyph glyph-name="uni04B1" unicode="&#x4b1;" horiz-adv-x="1132" 
d="M1209 1024l-575 -859h288l-37 -165h-326l-87 -410h-226l87 410h-334l36 165h286l-216 859h264l153 -670l428 670h259z" />
    <glyph glyph-name="uni04B2" unicode="&#x4b2;" horiz-adv-x="1441" 
d="M836 730l253 -511h262l-112 -519h-229l63 300h-152l-263 533l-482 -533h-298l674 747l-340 687h276l242 -490l442 490h300z" />
    <glyph glyph-name="uni04B3" unicode="&#x4b3;" horiz-adv-x="1134" 
d="M647 510l171 -319h191l-96 -452h-217l53 261h-83l-177 338l-314 -338h-277l491 526l-264 498h254l170 -324l300 324h279z" />
    <glyph glyph-name="uni04B6" unicode="&#x4b6;" horiz-adv-x="1486" 
d="M1116 219h267l-113 -519h-232l68 300h-282l113 525h-448q-161 0 -244.5 76.5t-83.5 217.5q0 46 11 110l105 505h246l-103 -485q-10 -53 -10 -84q0 -66 40.5 -93.5t138.5 -27.5h393l147 690h246z" />
    <glyph glyph-name="uni04B7" unicode="&#x4b7;" horiz-adv-x="1139" 
d="M1009 1024l-178 -833h174l-97 -452h-217l53 261h-190l79 370h-224q-158 0 -242 61.5t-84 181.5q0 39 10 92l69 319h236l-66 -296q-8 -40 -8 -62q0 -54 37.5 -78t124.5 -24h189l98 460h236z" />
    <glyph glyph-name="uni04BA" unicode="&#x4ba;" horiz-adv-x="1339" 
d="M50 0l305 1434h246l-111 -526h417q157 0 241 -72.5t84 -206.5q0 -57 -13 -110l-112 -519h-245l103 484q11 58 11 90q0 63 -38 89.5t-128 26.5h-367l-147 -690h-246z" />
    <glyph glyph-name="uni04BB" unicode="&#x4bb;" horiz-adv-x="1172" 
d="M1060 757q0 -49 -11 -113l-137 -644h-236l134 625q9 52 9 83q0 68 -35.5 105.5t-105.5 37.5h-18q-98 0 -179.5 -79.5t-110.5 -219.5l-117 -552h-236l305 1434h235l-114 -539q125 149 309 149q138 0 223 -81t85 -206z" />
    <glyph glyph-name="uni04C0" unicode="&#x4c0;" horiz-adv-x="601" 
d="M50 0l305 1434h246l-305 -1434h-246z" />
    <glyph glyph-name="uni04CF" unicode="&#x4cf;" horiz-adv-x="524" 
d="M17 0l305 1434h236l-305 -1434h-236z" />
    <glyph glyph-name="uni04D8" unicode="&#x4d8;" horiz-adv-x="1530" 
d="M1458 809q1 -177 -49.5 -330t-143.5 -264.5t-231.5 -174t-303.5 -60.5q-289 0 -449 162.5t-160 449.5q0 92 17 189h1071v1q0 209 -101.5 331t-267.5 122h-28q-136 0 -239 -66q-101 -64 -142 -198h-265q61 233 238.5 358t438.5 125q186 2 327.5 -81t215 -230t72.5 -334z
M1179 562h-813v-6q0 -174 92.5 -265.5t267.5 -91.5h28q150 0 263 99t162 264z" />
    <glyph glyph-name="uni04D9" unicode="&#x4d9;" horiz-adv-x="1150" 
d="M72 437q0 77 12 142h723q1 8 1 36q0 110 -56.5 174t-158.5 64h-16q-178 0 -229 -146h-249q40 165 172 251q131 86 323 86q216 0 334 -125.5t118 -331.5q1 -114 -26 -212.5t-76.5 -170.5t-117 -123.5t-147.5 -76.5t-167 -24q-213 0 -326.5 120.5t-113.5 336.5zM520 171h16
q86 0 156.5 59.5t90.5 165.5h-471v-16q2 -99 56 -154t152 -55z" />
    <glyph glyph-name="uni04E2" unicode="&#x4e2;" horiz-adv-x="1557" 
d="M1247 1434h310l-304 -1434h-246l236 1106l-882 -1106h-310l304 1434h246l-230 -1091zM639 1580l41 194h640l-41 -194h-640z" />
    <glyph glyph-name="uni04E3" unicode="&#x4e3;" horiz-adv-x="1238" 
d="M1186 1024l-219 -1024h-236l163 764l-559 -764h-320l219 1024h236l-163 -763l561 763h318zM425 1179l40 189h602l-40 -189h-602z" />
    <glyph glyph-name="uni04E8" unicode="&#x4e8;" horiz-adv-x="1580" 
d="M1512 818q0 -236 -95 -428t-268 -301t-402 -109q-182 -2 -327.5 79.5t-225.5 226.5t-78 325q0 237 94 428q95 193 266 303q172 112 400 112q183 2 329.5 -79.5t227.5 -228t79 -328.5zM385 822h878q-7 187 -118.5 301t-276.5 112h-26q-165 2 -289.5 -113t-167.5 -300z
M1243 609h-878q6 -185 115.5 -298.5t274.5 -111.5h26q170 -2 294.5 113t167.5 297z" />
    <glyph glyph-name="uni04E9" unicode="&#x4e9;" horiz-adv-x="1188" 
d="M1087 578q2 -132 -42.5 -245.5t-120.5 -191t-178 -120.5t-214 -41q-219 -2 -344 128.5t-123 337.5q-2 132 42.5 245.5t120.5 191t178 120.5t214 41q219 2 344 -128.5t123 -337.5zM317 598h534q-9 118 -71.5 185.5t-167.5 67.5h-18q-90 0 -168 -69t-109 -184zM837 433
h-536q7 -119 69 -189q63 -71 169 -71h18q92 0 171.5 71t108.5 189z" />
    <glyph glyph-name="uni04EE" unicode="&#x4ee;" horiz-adv-x="1332" 
d="M1236 1434h261l-837 -1240q-69 -100 -155.5 -147t-204.5 -47h-207l48 219h159q65 3 108.5 28t81.5 81l13 19l-324 1087h271l235 -820zM536 1580l41 194h640l-41 -194h-640z" />
    <glyph glyph-name="uni04EF" unicode="&#x4ef;" horiz-adv-x="1130" 
d="M1207 1024l-646 -1012l-46 -218q-43 -193 -225 -193h-360l43 206h243q76 0 91 72l36 172l-227 973h245l153 -677l427 677h266zM380 1179l40 189h602l-40 -189h-602z" />
    <glyph glyph-name="Wgrave" unicode="&#x1e80;" horiz-adv-x="1941" 
d="M1808 1434h258l-619 -1434h-323l-44 1146l-493 -1146h-324l-48 1434h250l13 -1169l510 1169h302l38 -1161zM1079 1539l-204 284h282l88 -284h-166z" />
    <glyph glyph-name="wgrave" unicode="&#x1e81;" horiz-adv-x="1615" 
d="M1403 1024h258l-484 -1024h-295l-49 751l-343 -751h-293l-75 1024h233l32 -781l360 781h264l51 -778zM832 1140l-157 294h260l41 -294h-144z" />
    <glyph glyph-name="Wacute" unicode="&#x1e82;" horiz-adv-x="1941" 
d="M1808 1434h258l-619 -1434h-323l-44 1146l-493 -1146h-324l-48 1434h250l13 -1169l510 1169h302l38 -1161zM1079 1539l88 284h283l-204 -284h-167z" />
    <glyph glyph-name="wacute" unicode="&#x1e83;" horiz-adv-x="1615" 
d="M1403 1024h258l-484 -1024h-295l-49 751l-343 -751h-293l-75 1024h233l32 -781l360 781h264l51 -778zM830 1140l113 294h260l-230 -294h-143z" />
    <glyph glyph-name="Wdieresis" unicode="&#x1e84;" horiz-adv-x="1941" 
d="M1808 1434h258l-619 -1434h-323l-44 1146l-493 -1146h-324l-48 1434h250l13 -1169l510 1169h302l38 -1161zM848 1580l48 228h234l-47 -228h-235zM1242 1580l48 228h234l-47 -228h-235z" />
    <glyph glyph-name="wdieresis" unicode="&#x1e85;" horiz-adv-x="1615" 
d="M1403 1024h258l-484 -1024h-295l-49 751l-343 -751h-293l-75 1024h233l32 -781l360 781h264l51 -778zM571 1179l52 244h229l-53 -244h-228zM971 1179l53 244h229l-53 -244h-229z" />
    <glyph glyph-name="uni1E9E" unicode="&#x1e9e;" horiz-adv-x="1367" 
d="M50 0l305 1434h479q188 0 303 -91.5t115 -252.5q0 -129 -70 -226t-197 -137q116 -25 186 -109q70 -82 70 -198q1 -82 -33.5 -159.5t-95 -135.5t-146 -92.5t-180.5 -32.5h-320l47 219h236q107 0 176.5 59t69.5 166q0 80 -54 125.5t-152 45.5h-198l46 215h130
q104 0 171.5 60t67.5 157q0 86 -53.5 126.5t-162.5 40.5h-237l-257 -1214h-246z" />
    <glyph glyph-name="uni1EA0" unicode="&#x1ea0;" horiz-adv-x="1422" 
d="M1046 0l-60 351h-644l-210 -351h-252l866 1434h290l248 -1434h-238zM473 571h475l-106 617zM404 -395l52 240h236l-53 -240h-235z" />
    <glyph glyph-name="uni1EA1" unicode="&#x1ea1;" horiz-adv-x="1232" 
d="M63 434q0 176 73 315q74 140 193 217q119 78 250 78q115 0 203 -53t126 -134l36 167h235l-218 -1024h-235l26 119q-40 -59 -119 -100q-78 -39 -168 -39q-174 -2 -289 125.5t-113 328.5zM510 173h18q90 -2 162.5 59t110.5 158.5t37 206.5q0 113 -59 183.5t-157 70.5h-18
q-118 3 -213 -117t-92 -293q0 -119 57.5 -193.5t153.5 -74.5zM280 -395l52 240h236l-53 -240h-235z" />
    <glyph glyph-name="uni1EB8" unicode="&#x1eb8;" horiz-adv-x="1346" 
d="M50 0l305 1434h1068l-47 -220h-822l-80 -369h701l-46 -220h-701l-86 -406h842l-46 -219h-1088zM392 -395l52 240h236l-53 -240h-235z" />
    <glyph glyph-name="uni1EB9" unicode="&#x1eb9;" horiz-adv-x="1140" 
d="M66 468q0 166 73 296q74 132 200 206q127 74 277 74q189 2 306 -113.5t115 -296.5q0 -102 -23 -183h-724v-22q0 -117 65.5 -186.5t172.5 -69.5h18q79 0 139 38.5t83 103.5h235q-45 -161 -167 -248t-310 -87q-204 -2 -333 133.5t-127 354.5zM313 634h498q2 16 2 34
q0 84 -56 133.5t-150 49.5h-18q-98 0 -172 -58.5t-104 -158.5zM281 -395l52 240h236l-53 -240h-235z" />
    <glyph glyph-name="uni1ECA" unicode="&#x1eca;" horiz-adv-x="600" 
d="M50 0l305 1434h246l-305 -1434h-246zM-29 -395l52 240h236l-53 -240h-235z" />
    <glyph glyph-name="uni1ECB" unicode="&#x1ecb;" horiz-adv-x="524" 
d="M255 1179l54 255h256l-54 -255h-256zM17 0l217 1024h236l-217 -1024h-236zM-69 -395l52 240h236l-53 -240h-235z" />
    <glyph glyph-name="uni1ECC" unicode="&#x1ecc;" horiz-adv-x="1580" 
d="M116 611q0 237 94 428q95 193 266 303q172 112 400 112q183 2 329.5 -79.5t227.5 -228t79 -328.5q0 -236 -95 -428t-268 -301t-402 -109q-182 -2 -327.5 79.5t-225.5 226.5t-78 325zM755 199h26q139 -3 251.5 78.5t173 218t58.5 296.5q2 198 -111 321.5t-285 121.5h-26
q-136 3 -246.5 -76.5t-172 -217.5t-59.5 -303q-2 -196 108.5 -318.5t282.5 -120.5zM504 -395l52 240h236l-53 -240h-235z" />
    <glyph glyph-name="uni1ECD" unicode="&#x1ecd;" horiz-adv-x="1188" 
d="M65 446q-2 132 42.5 245.5t120.5 191t178 120.5t214 41q219 2 344 -128.5t123 -337.5q2 -132 -42.5 -245.5t-120.5 -191t-178 -120.5t-214 -41q-219 -2 -344 128.5t-123 337.5zM539 173h18q116 -2 207 109.5t88 279.5q0 130 -63 210q-63 79 -177 79h-18q-116 2 -206 -109
t-88 -280q0 -131 63.5 -210t175.5 -79zM286 -395l52 240h236l-53 -240h-235z" />
    <glyph glyph-name="uni1EE4" unicode="&#x1ee4;" horiz-adv-x="1439" 
d="M138 411q0 81 18 166l183 857h246l-185 -865q-17 -80 -17 -135q0 -116 67 -175t193 -60h21q137 0 224.5 75.5t120.5 225.5l199 934h246l-211 -990q-48 -224 -203 -344t-406 -120q-227 -2 -362.5 119t-133.5 312zM412 -395l52 240h236l-53 -240h-235z" />
    <glyph glyph-name="uni1EE5" unicode="&#x1ee5;" horiz-adv-x="1171" 
d="M876 1024h241l-217 -1024h-236l25 118q-117 -138 -290 -138q-138 0 -229 83t-91 234q0 45 10 98l133 629h237l-133 -625q-9 -49 -9 -69q0 -74 37.5 -115.5t102.5 -41.5h18q95 0 177.5 90t110.5 229zM236 -395l52 240h236l-53 -240h-235z" />
    <glyph glyph-name="Ygrave" unicode="&#x1ef2;" horiz-adv-x="1312" 
d="M1485 1434l-709 -848l-125 -586h-246l126 592l-350 842h267l247 -606l492 606h298zM758 1539l-204 284h282l88 -284h-166z" />
    <glyph glyph-name="ygrave" unicode="&#x1ef3;" horiz-adv-x="1130" 
d="M1207 1024l-646 -1012l-46 -218q-43 -193 -225 -193h-360l43 206h243q76 0 91 72l36 172l-227 973h245l153 -677l427 677h266zM591 1140l-157 294h260l41 -294h-144z" />
    <glyph glyph-name="uni2002" unicode="&#x2002;" horiz-adv-x="1024" 
 />
    <glyph glyph-name="uni2003" unicode="&#x2003;" horiz-adv-x="2048" 
 />
    <glyph glyph-name="uni2009" unicode="&#x2009;" horiz-adv-x="256" 
 />
    <glyph glyph-name="uni200A" unicode="&#x200a;" horiz-adv-x="154" 
 />
    <glyph glyph-name="endash" unicode="&#x2013;" horiz-adv-x="1206" 
d="M114 521l41 197h943l-41 -197h-943z" />
    <glyph glyph-name="emdash" unicode="&#x2014;" horiz-adv-x="1863" 
d="M114 521l41 197h1600l-41 -197h-1600z" />
    <glyph glyph-name="uni2015" unicode="&#x2015;" horiz-adv-x="1863" 
d="M114 521l41 197h1600l-41 -197h-1600z" />
    <glyph glyph-name="quoteleft" unicode="&#x2018;" horiz-adv-x="567" 
d="M645 1433l-31 -144h-58q-68 0 -112 -34t-56 -95l-6 -25h135l-59 -275h-280l67 312q27 123 113 192t212 69h75z" />
    <glyph glyph-name="quoteright" unicode="&#x2019;" horiz-adv-x="564" 
d="M164 861l31 144h58q68 0 112 34t56 95l6 25h-135l59 275h280l-67 -312q-27 -123 -113 -192t-212 -69h-75z" />
    <glyph glyph-name="quotesinglbase" unicode="&#x201a;" horiz-adv-x="546" 
d="M-109 -298l31 144h58q68 0 112 34t56 95l6 25h-135l59 275h280l-67 -312q-27 -123 -113 -192t-212 -69h-75z" />
    <glyph glyph-name="quotedblleft" unicode="&#x201c;" horiz-adv-x="987" 
d="M646 1433l-31 -144h-58q-68 0 -112.5 -34t-56.5 -95l-6 -25h135l-59 -275h-279l66 312q27 123 113 192t212 69h76zM1065 1433l-31 -144h-58q-68 0 -112 -34t-56 -95l-6 -25h135l-59 -275h-280l67 312q27 123 113 192t212 69h75z" />
    <glyph glyph-name="quotedblright" unicode="&#x201d;" horiz-adv-x="984" 
d="M164 861l31 144h58q68 0 112 34t56 95l6 25h-135l59 275h280l-67 -312q-27 -123 -113 -192t-212 -69h-75zM583 861l31 144h58q68 0 112.5 34t56.5 95l6 25h-135l59 275h279l-66 -312q-27 -123 -113 -192t-212 -69h-76z" />
    <glyph glyph-name="quotedblbase" unicode="&#x201e;" horiz-adv-x="965" 
d="M-109 -298l31 144h58q68 0 112 34t56 95l6 25h-135l59 275h280l-67 -312q-27 -123 -113 -192t-212 -69h-75zM310 -298l31 144h58q68 0 112.5 34t56.5 95l6 25h-135l59 275h279l-66 -312q-27 -123 -113 -192t-212 -69h-76z" />
    <glyph glyph-name="dagger" unicode="&#x2020;" horiz-adv-x="1066" 
d="M1062 1140v-204h-327v-1110h-235v1110h-327v204h327v468h235v-468h327z" />
    <glyph glyph-name="daggerdbl" unicode="&#x2021;" horiz-adv-x="1196" 
d="M1067 936h-327v-439h327v-203h-327v-468h-235v468h-327v203h327v439h-327v204h327v468h235v-468h327v-204z" />
    <glyph glyph-name="bullet" unicode="&#x2022;" horiz-adv-x="1102" 
d="M173 717q-2 105 53.5 199t149.5 149.5t199 53.5q107 2 201 -53t148.5 -149t52.5 -200q2 -106 -52.5 -200t-148.5 -149t-201 -53q-105 -2 -199 53.5t-149.5 149.5t-53.5 199z" />
    <glyph glyph-name="ellipsis" unicode="&#x2026;" horiz-adv-x="1580" 
d="M15 0l59 275h275l-59 -275h-275zM537 0l59 275h275l-59 -275h-275zM1059 0l59 275h275l-59 -275h-275z" />
    <glyph glyph-name="perthousand" unicode="&#x2030;" horiz-adv-x="2573" 
d="M486 615q-153 0 -239 97.5t-86 263.5q-3 204 119.5 337.5t296.5 130.5q153 0 238 -98t85 -264q2 -135 -54 -243.5t-151.5 -167t-208.5 -56.5zM1499 1434h221l-1147 -1434h-221zM499 779q95 0 151.5 81t56.5 213q0 87 -36 147q-35 60 -108 60q-96 0 -152 -81t-56 -215
q0 -88 35 -147q36 -58 109 -58zM2462 457q2 -135 -54 -243.5t-151.5 -167t-208.5 -56.5q-174 0 -261 124q-116 -124 -290 -124q-153 0 -239 97.5t-86 263.5q-3 204 119.5 337.5t296.5 130.5q173 0 259 -125q119 125 292 125q153 0 238 -98t85 -264zM1718 448q0 87 -36 147
q-34 60 -108 60q-96 0 -152 -81t-56 -215q0 -88 35 -147q36 -58 109 -58q95 0 151.5 81t56.5 213zM2269 448q0 87 -36 147q-35 60 -108 60q-96 0 -152 -81t-56 -215q0 -88 35 -147q36 -58 109 -58q95 0 151.5 81t56.5 213z" />
    <glyph glyph-name="guilsinglleft" unicode="&#x2039;" horiz-adv-x="722" 
d="M748 1024l-410 -463l193 -418h-262l-202 441l389 440h292z" />
    <glyph glyph-name="guilsinglright" unicode="&#x203a;" horiz-adv-x="721" 
d="M448 1024l202 -441l-389 -440h-292l410 463l-193 418h262z" />
    <glyph glyph-name="fraction" unicode="&#x2044;" horiz-adv-x="391" 
d="M-467 0l1147 1434h221l-1147 -1434h-221z" />
    <glyph glyph-name="uni2070" unicode="&#x2070;" horiz-adv-x="887" 
d="M214 1201q-3 204 119.5 337.5t296.5 130.5q153 0 238 -98t85 -264q2 -135 -54 -243.5t-151.5 -167t-208.5 -56.5q-153 0 -239 97.5t-86 263.5zM760 1298q0 87 -36 147q-34 60 -108 60q-96 0 -152 -81t-56 -215q0 -88 35 -147q36 -58 109 -58q95 0 151.5 81t56.5 213z" />
    <glyph glyph-name="uni2074" unicode="&#x2074;" horiz-adv-x="786" 
d="M488 850l32 152h-381l37 174l454 483h206l-104 -502h109l-32 -155h-109l-32 -152h-180zM360 1157h190l59 269z" />
    <glyph glyph-name="uni2075" unicode="&#x2075;" horiz-adv-x="743" 
d="M176 1086h195q2 -39 32 -62t76 -23q51 0 85 31.5t34 79.5q0 47 -31 77t-77 30q-71 0 -123 -41h-180l196 481h460l-35 -159h-309l-74 -171q61 46 139 46q95 0 159 -69t64 -175q2 -127 -90.5 -210t-223.5 -81q-126 0 -210 66.5t-87 179.5z" />
    <glyph glyph-name="uni2076" unicode="&#x2076;" horiz-adv-x="808" 
d="M209 1178q-1 97 30 187.5t86 158t134.5 107.5t168.5 38q128 0 204 -66.5t79 -170.5h-175q-5 39 -35.5 61t-81.5 22q-81 0 -144 -64q-64 -65 -86 -163q66 94 203 94q96 2 171.5 -68t73.5 -175q2 -127 -92 -213.5t-236 -85.5q-136 0 -218 93t-82 245zM650 1126q0 47 -31 75
t-81 28q-57 0 -100 -35q-41 -35 -41 -89q0 -47 33.5 -76.5t84.5 -29.5q55 0 95 35q40 36 40 92z" />
    <glyph glyph-name="uni2077" unicode="&#x2077;" horiz-adv-x="669" 
d="M267 1659h591l-31 -149q-157 -99 -256 -265q-99 -164 -122 -395h-198q19 216 114 380t231 267h-364z" />
    <glyph glyph-name="uni2078" unicode="&#x2078;" horiz-adv-x="768" 
d="M192 1049q0 77 50 131.5t137 79.5q-57 24 -90 70.5t-33 106.5q0 100 86.5 166t218.5 66q127 0 218 -62t91 -160q0 -81 -59 -140q-58 -57 -146 -76q50 -24 77.5 -69t27.5 -103q0 -99 -83 -159t-210 -60q-121 0 -203 56t-82 153zM688 1423q0 41 -33.5 64t-88.5 23
q-57 0 -93.5 -25.5t-36.5 -66.5q0 -38 34.5 -62t88.5 -24q55 0 92 25t37 66zM597 1087q0 38 -30.5 62t-76.5 24q-50 0 -85 -25t-35 -65q0 -38 31 -61t80 -23q51 0 83.5 24.5t32.5 63.5z" />
    <glyph glyph-name="uni2079" unicode="&#x2079;" horiz-adv-x="805" 
d="M176 1076h175q13 -82 119 -82q85 0 147 63.5t77 161.5q-30 -44 -83.5 -68.5t-118.5 -24.5q-98 0 -172 68t-74 175q0 129 92 214.5t233 85.5q136 0 219 -97t83 -253q1 -95 -27 -182t-79 -154t-129.5 -106t-172.5 -37q-132 0 -209 66t-80 170zM686 1403q0 48 -33.5 77.5
t-84.5 29.5q-56 0 -96 -36q-39 -34 -39 -92q0 -46 31 -73.5t81 -27.5q60 0 100 34q41 35 41 88z" />
    <glyph glyph-name="Euro" unicode="&#x20ac;" horiz-adv-x="1407" 
d="M1382 992h-237q2 18 2 40q0 91 -55.5 152t-148.5 61h-21q-109 0 -203 -73q-94 -72 -156 -197l391 88l-43 -213l-418 -93q-13 -75 -13 -152l313 68l-45 -211l-247 -54q27 -107 88 -163t147 -56h20q95 0 167.5 66t110.5 187h244q-50 -206 -185 -334q-136 -128 -356 -128
q-170 0 -295 99t-171 279l-234 -51l46 212l162 35v18q0 62 7 132l-140 -31l43 211l144 32q77 241 259 391t393 147q195 3 316 -114t119 -284q0 -39 -4 -64z" />
    <glyph glyph-name="uni20B4" unicode="&#x20b4;" horiz-adv-x="1385" 
d="M1271 1073l140 21l-41 -205l-1288 -196l43 207l907 137q8 30 8 56q0 68 -59.5 113t-149.5 45h-21q-106 0 -176.5 -54.5t-94.5 -149.5h-247q20 85 61 156t106 128.5t161.5 90t216.5 32.5q207 0 322 -93.5t115 -237.5q0 -26 -3 -50zM68 399l43 205l1187 180l-38 -206
l-865 -130q-9 -32 -9 -75q0 -78 73 -134t175 -56h19q112 0 193 57q82 58 106 166h248q-53 -217 -194 -321.5t-381 -104.5q-208 0 -334.5 97.5t-126.5 260.5q0 41 9 77z" />
    <glyph glyph-name="uni20BD" unicode="&#x20bd;" horiz-adv-x="1311" 
d="M867 608h-355l-24 -114h461l-43 -205h-462l-61 -289h-243l61 289h-170l44 205h169l24 114h-171l48 217h168l128 609h479q195 0 314 -97t119 -275q3 -198 -136 -327t-350 -127zM641 1214l-83 -389h291q121 0 189 57.5t68 161.5q0 170 -238 170h-227z" />
    <glyph glyph-name="uni2105" unicode="&#x2105;" horiz-adv-x="1542" 
d="M182 1176q-2 147 98.5 244.5t233.5 95.5q106 0 183.5 -58t78.5 -157h-186q-3 30 -24 48.5t-57 18.5q-60 0 -100.5 -55.5t-40.5 -131.5q0 -57 25.5 -89.5t70.5 -32.5q33 0 57 18.5t28 46.5h187q-11 -90 -88.5 -151.5t-196.5 -61.5q-127 0 -198 71q-71 73 -71 194zM111 0
l1147 1434h222l-1147 -1434h-222zM815 241q-2 147 95 246t235 97q121 0 199 -69t78 -191q2 -149 -92 -247.5t-233 -96.5q-124 0 -203 70.5t-79 190.5zM1237 310q0 60 -26 94t-74 34q-60 0 -98 -54.5t-38 -128.5q0 -60 26.5 -94t74.5 -34q58 0 96.5 53t38.5 130z" />
    <glyph glyph-name="uni2113" unicode="&#x2113;" horiz-adv-x="910" 
d="M449 508l-45 -213q0 -2 -1.5 -9t-2.5 -13.5t-1 -11.5q0 -51 66 -51h195l-44 -210h-289q-82 0 -131 41.5t-49 114.5q0 30 7 65l32 153l-169 -87l51 251l171 88l114 547q28 135 112 208.5t206 73.5q130 0 211 -85.5t81 -234.5q2 -170 -117 -331t-328 -260zM580 1137
l-78 -375q73 41 127 104.5t80 132t26 134.5q0 114 -71 114q-34 0 -52.5 -26t-31.5 -84z" />
    <glyph glyph-name="uni2116" unicode="&#x2116;" horiz-adv-x="2209" 
d="M1621 1101q-2 147 95 246t235 97q121 0 199 -69t78 -191q2 -149 -92 -247.5t-233 -96.5q-124 0 -203 70.5t-79 190.5zM1294 1434h246l-305 -1434h-328l-368 1129l-239 -1129h-246l305 1434h328l363 -1148zM1807 1115q0 -60 26.5 -94t74.5 -34q58 0 96.5 53t38.5 131
q0 60 -26 93.5t-74 33.5q-60 0 -98 -54.5t-38 -128.5zM1532 570l33 147h569l-32 -147h-570z" />
    <glyph glyph-name="uni2117" unicode="&#x2117;" horiz-adv-x="1822" 
d="M138 718q0 216 108 399q108 184 291 292q184 108 400 108t399 -108q184 -107 291 -291q108 -184 108 -400t-108 -400q-107 -183 -291 -291q-183 -108 -399 -108q-215 0 -400 108q-183 108 -291 292q-108 185 -108 399zM1562 718q0 172 -85 317q-84 145 -228 231
q-143 86 -312 86q-168 0 -313 -86q-143 -85 -229 -231q-84 -145 -84 -317t84 -317q87 -147 229 -232q143 -85 313 -85t312 85q143 85 228 232q85 145 85 317zM680 338v776h356q126 0 196.5 -68.5t70.5 -188.5t-70.5 -187t-196.5 -67h-168v-265h-188zM868 765h148q98 0 98 92
q0 45 -26 68.5t-74 23.5h-146v-184z" />
    <glyph glyph-name="trademark" unicode="&#x2122;" horiz-adv-x="2095" 
d="M240 1246v188h730v-188h-261v-591h-209v591h-260zM1706 1434h288v-779h-207v468l-164 -468h-145l-173 482v-482h-206v779h287l164 -469z" />
    <glyph glyph-name="Omega" unicode="&#x2126;" horiz-adv-x="1714" 
d="M169 0v207h242q-121 80 -186.5 215.5t-65.5 317.5q-2 156 50 290.5t143.5 228t219.5 145.5t274 50q146 2 274 -50t220 -145.5t144 -228t50 -290.5q0 -183 -66.5 -318.5t-191.5 -214.5h247v-207h-569v203q155 39 245.5 175.5t90.5 338.5q0 244 -116.5 383t-317.5 139h-20
q-202 0 -317.5 -138.5t-115.5 -383.5q0 -200 91 -337.5t244 -176.5v-203h-569z" />
    <glyph glyph-name="onethird" unicode="&#x2153;" horiz-adv-x="1852" 
d="M186 0l1147 1434h221l-1147 -1434h-221zM1082 198q0 22 4 35h191q1 -39 32 -62t78 -23h10q49 0 80.5 27.5t31.5 71.5q0 41 -28.5 63.5t-74.5 22.5h-72l34 156h74q55 0 91 26t36 72q0 34 -25.5 55t-63.5 21h-10q-41 0 -70.5 -21.5t-36.5 -58.5h-190q18 112 106.5 175
t212.5 63q118 0 195 -54.5t77 -154.5q0 -77 -45.5 -133t-121.5 -75q46 -23 72.5 -67t26.5 -98q0 -114 -93 -181t-226 -67q-126 0 -210.5 54.5t-84.5 152.5zM298 625l119 562l-266 -191l46 223l305 215h152l-172 -809h-184z" />
    <glyph glyph-name="twothirds" unicode="&#x2154;" horiz-adv-x="2017" 
d="M367 0l1147 1434h221l-1147 -1434h-221zM629 942l-220 -154h334l-35 -163h-596l34 166l339 245q39 27 70 51q62 51 62 108q0 37 -26.5 61t-68.5 24h-7q-47 0 -80.5 -27.5t-41.5 -70.5h-188q14 111 109.5 187.5t222.5 74.5q114 0 194 -60.5t80 -161.5q0 -84 -45.5 -150.5
t-136.5 -129.5zM1250 198q0 22 4 35h191q1 -39 32 -62t78 -23h10q49 0 80.5 27.5t31.5 71.5q0 41 -28.5 63.5t-74.5 22.5h-72l34 156h74q55 0 91 26t36 72q0 34 -25.5 55t-63.5 21h-10q-41 0 -70.5 -21.5t-36.5 -58.5h-190q18 112 106.5 175t212.5 63q118 0 195 -54.5
t77 -154.5q0 -77 -45.5 -133t-121.5 -75q46 -23 72.5 -67t26.5 -98q0 -114 -93 -181t-226 -67q-126 0 -210.5 54.5t-84.5 152.5z" />
    <glyph glyph-name="uni2155" unicode="&#x2155;" horiz-adv-x="1824" 
d="M188 0l1147 1434h221l-1147 -1434h-221zM298 625l119 562l-266 -191l46 223l305 215h152l-172 -809h-184zM1068 236h195q2 -39 32 -62t76 -23q51 0 85 31.5t34 79.5q0 47 -31 77t-77 30q-71 0 -123 -41h-180l196 481h460l-35 -159h-309l-74 -171q61 46 139 46
q95 0 159 -69t64 -175q2 -127 -90.5 -210t-223.5 -81q-126 0 -210 66.5t-87 179.5z" />
    <glyph glyph-name="uni2156" unicode="&#x2156;" horiz-adv-x="1994" 
d="M367 0l1147 1434h221l-1147 -1434h-221zM631 942l-220 -154h334l-35 -163h-596l34 166l339 245q39 27 70 51q62 51 62 108q0 37 -26.5 61t-68.5 24h-7q-47 0 -80.5 -27.5t-41.5 -70.5h-188q14 111 109.5 187.5t222.5 74.5q114 0 194 -60.5t80 -161.5q0 -84 -45.5 -150.5
t-136.5 -129.5zM1240 236h195q2 -39 32 -62t76 -23q51 0 85 31.5t34 79.5q0 47 -31 77t-77 30q-71 0 -123 -41h-180l196 481h460l-35 -159h-309l-74 -171q61 46 139 46q95 0 159 -69t64 -175q2 -127 -90.5 -210t-223.5 -81q-126 0 -210 66.5t-87 179.5z" />
    <glyph glyph-name="uni2157" unicode="&#x2157;" horiz-adv-x="1941" 
d="M309 0l1147 1434h221l-1147 -1434h-221zM124 823q0 22 4 35h191q1 -39 32 -62t78 -23h10q49 0 80.5 27.5t31.5 71.5q0 41 -28.5 63.5t-74.5 22.5h-72l34 156h74q55 0 91 26t36 72q0 34 -25.5 55t-63.5 21h-10q-41 0 -70.5 -21.5t-36.5 -58.5h-190q18 112 106.5 175
t212.5 63q118 0 195 -54.5t77 -154.5q0 -77 -45.5 -133t-121.5 -75q46 -23 72.5 -67t26.5 -98q0 -114 -93 -181t-226 -67q-126 0 -210.5 54.5t-84.5 152.5zM1186 236h195q2 -39 32 -62t76 -23q51 0 85 31.5t34 79.5q0 47 -31 77t-77 30q-71 0 -123 -41h-180l196 481h460
l-35 -159h-309l-74 -171q61 46 139 46q95 0 159 -69t64 -175q2 -127 -90.5 -210t-223.5 -81q-126 0 -210 66.5t-87 179.5z" />
    <glyph glyph-name="uni2158" unicode="&#x2158;" horiz-adv-x="2003" 
d="M365 0l1147 1434h221l-1147 -1434h-221zM453 625l32 152h-381l37 174l454 483h206l-104 -502h109l-32 -155h-109l-32 -152h-180zM325 932h190l59 269zM1245 236h195q2 -39 32 -62t76 -23q51 0 85 31.5t34 79.5q0 47 -31 77t-77 30q-71 0 -123 -41h-180l196 481h460
l-35 -159h-309l-74 -171q61 46 139 46q95 0 159 -69t64 -175q2 -127 -90.5 -210t-223.5 -81q-126 0 -210 66.5t-87 179.5z" />
    <glyph glyph-name="uni2159" unicode="&#x2159;" horiz-adv-x="1843" 
d="M187 0l1147 1434h221l-1147 -1434h-221zM298 625l119 562l-266 -191l46 223l305 215h152l-172 -809h-184zM1064 328q-1 97 30 187.5t86 158t134.5 107.5t168.5 38q128 0 204 -66.5t79 -170.5h-175q-5 39 -35.5 61t-81.5 22q-81 0 -144 -64q-64 -65 -86 -163q66 94 203 94
q96 2 171.5 -68t73.5 -175q2 -127 -92 -213.5t-236 -85.5q-136 0 -218 93t-82 245zM1505 276q0 47 -31 75t-81 28q-57 0 -100 -35q-41 -35 -41 -89q0 -47 33.5 -76.5t84.5 -29.5q55 0 95 35q40 36 40 92z" />
    <glyph glyph-name="uni215A" unicode="&#x215a;" horiz-adv-x="1972" 
d="M322 0l1147 1434h221l-1147 -1434h-221zM130 861h195q2 -39 32 -62t76 -23q51 0 85 31.5t34 79.5q0 47 -31 77t-77 30q-71 0 -123 -41h-180l196 481h460l-35 -159h-309l-74 -171q61 46 139 46q95 0 159 -69t64 -175q2 -127 -90.5 -210t-223.5 -81q-126 0 -210 66.5
t-87 179.5zM1193 328q-1 97 30 187.5t86 158t134.5 107.5t168.5 38q128 0 204 -66.5t79 -170.5h-175q-5 39 -35.5 61t-81.5 22q-81 0 -144 -64q-64 -65 -86 -163q66 94 203 94q96 2 171.5 -68t73.5 -175q2 -127 -92 -213.5t-236 -85.5q-136 0 -218 93t-82 245zM1634 276
q0 47 -31 75t-81 28q-57 0 -100 -35q-41 -35 -41 -89q0 -47 33.5 -76.5t84.5 -29.5q55 0 95 35q40 36 40 92z" />
    <glyph glyph-name="oneeighth" unicode="&#x215b;" horiz-adv-x="1848" 
d="M186 0l1147 1434h221l-1147 -1434h-221zM1093 199q0 77 50 131.5t137 79.5q-57 24 -90 70.5t-33 106.5q0 100 86.5 166t218.5 66q127 0 218 -62t91 -160q0 -81 -59 -140q-58 -57 -146 -76q50 -24 77.5 -69t27.5 -103q0 -99 -83 -159t-210 -60q-121 0 -203 56t-82 153z
M1589 573q0 41 -33.5 64t-88.5 23q-57 0 -93.5 -25.5t-36.5 -66.5q0 -38 34.5 -62t88.5 -24q55 0 92 25t37 66zM1498 237q0 38 -30.5 62t-76.5 24q-50 0 -85 -25t-35 -65q0 -38 31 -61t80 -23q51 0 83.5 24.5t32.5 63.5zM298 625l119 562l-266 -191l46 223l305 215h152
l-172 -809h-184z" />
    <glyph glyph-name="threeeighths" unicode="&#x215c;" horiz-adv-x="1968" 
d="M317 0l1147 1434h221l-1147 -1434h-221zM1216 199q0 77 50 131.5t137 79.5q-57 24 -90 70.5t-33 106.5q0 100 86.5 166t218.5 66q127 0 218 -62t91 -160q0 -81 -59 -140q-58 -57 -146 -76q50 -24 77.5 -69t27.5 -103q0 -99 -83 -159t-210 -60q-121 0 -203 56t-82 153z
M1712 573q0 41 -33.5 64t-88.5 23q-57 0 -93.5 -25.5t-36.5 -66.5q0 -38 34.5 -62t88.5 -24q55 0 92 25t37 66zM1621 237q0 38 -30.5 62t-76.5 24q-50 0 -85 -25t-35 -65q0 -38 31 -61t80 -23q51 0 83.5 24.5t32.5 63.5zM124 823q0 22 4 35h191q1 -39 32 -62t78 -23h10
q49 0 80.5 27.5t31.5 71.5q0 41 -28.5 63.5t-74.5 22.5h-72l34 156h74q55 0 91 26t36 72q0 34 -25.5 55t-63.5 21h-10q-41 0 -70.5 -21.5t-36.5 -58.5h-190q18 112 106.5 175t212.5 63q118 0 195 -54.5t77 -154.5q0 -77 -45.5 -133t-121.5 -75q46 -23 72.5 -67t26.5 -98
q0 -114 -93 -181t-226 -67q-126 0 -210.5 54.5t-84.5 152.5z" />
    <glyph glyph-name="fiveeighths" unicode="&#x215d;" horiz-adv-x="1995" 
d="M334 0l1147 1434h221l-1147 -1434h-221zM1241 199q0 77 50 131.5t137 79.5q-57 24 -90 70.5t-33 106.5q0 100 86.5 166t218.5 66q127 0 218 -62t91 -160q0 -81 -59 -140q-58 -57 -146 -76q50 -24 77.5 -69t27.5 -103q0 -99 -83 -159t-210 -60q-121 0 -203 56t-82 153z
M1737 573q0 41 -33.5 64t-88.5 23q-57 0 -93.5 -25.5t-36.5 -66.5q0 -38 34.5 -62t88.5 -24q55 0 92 25t37 66zM1646 237q0 38 -30.5 62t-76.5 24q-50 0 -85 -25t-35 -65q0 -38 31 -61t80 -23q51 0 83.5 24.5t32.5 63.5zM130 861h195q2 -39 32 -62t76 -23q51 0 85 31.5
t34 79.5q0 47 -31 77t-77 30q-71 0 -123 -41h-180l196 481h460l-35 -159h-309l-74 -171q61 46 139 46q95 0 159 -69t64 -175q2 -127 -90.5 -210t-223.5 -81q-126 0 -210 66.5t-87 179.5z" />
    <glyph glyph-name="seveneighths" unicode="&#x215e;" horiz-adv-x="1817" 
d="M153 0l1147 1434h221l-1147 -1434h-221zM1058 199q0 77 50 131.5t137 79.5q-57 24 -90 70.5t-33 106.5q0 100 86.5 166t218.5 66q127 0 218 -62t91 -160q0 -81 -59 -140q-58 -57 -146 -76q50 -24 77.5 -69t27.5 -103q0 -99 -83 -159t-210 -60q-121 0 -203 56t-82 153z
M1554 573q0 41 -33.5 64t-88.5 23q-57 0 -93.5 -25.5t-36.5 -66.5q0 -38 34.5 -62t88.5 -24q55 0 92 25t37 66zM1463 237q0 38 -30.5 62t-76.5 24q-50 0 -85 -25t-35 -65q0 -38 31 -61t80 -23q51 0 83.5 24.5t32.5 63.5zM243 1434h591l-31 -149q-157 -99 -256 -265
q-99 -164 -122 -395h-198q19 216 114 380q95 163 231 267h-364z" />
    <glyph glyph-name="uni215F" unicode="&#x215f;" horiz-adv-x="1363" 
d="M175 0l1147 1434h221l-1147 -1434h-221zM276 625l119 562l-266 -191l46 223l305 215h152l-172 -809h-184z" />
    <glyph glyph-name="uni2160" unicode="&#x2160;" horiz-adv-x="1005" 
d="M-29 0l41 193h288l222 1048h-287l41 193h809l-42 -193h-288l-222 -1048h287l-40 -193h-809z" />
    <glyph glyph-name="uni2161" unicode="&#x2161;" horiz-adv-x="1586" 
d="M-29 0l41 193h288l222 1048h-287l41 193h1390l-42 -193h-287l-223 -1048h288l-41 -193h-1390zM533 193h348l223 1048h-349z" />
    <glyph glyph-name="uni2162" unicode="&#x2162;" horiz-adv-x="2168" 
d="M-29 0l41 193h288l222 1048h-287l41 193h1972l-42 -193h-288l-223 -1048h288l-41 -193h-1971zM533 193h348l223 1048h-349zM1114 193h348l223 1048h-348z" />
    <glyph glyph-name="uni2163" unicode="&#x2163;" horiz-adv-x="2178" 
d="M-28 0l41 193h288l222 1048h-287l42 193h1128l-40 -193h-197l96 -1023l535 1023h-204l42 193h638l-42 -193h-187l-561 -1048h267l-41 -193h-1740zM534 193h511l-105 1048h-183z" />
    <glyph glyph-name="uni2164" unicode="&#x2164;" horiz-adv-x="1645" 
d="M1705 1241h-187l-561 -1048h267l-41 -193h-988l41 193h281l-106 1048h-200l42 193h624l-40 -193h-198l97 -1022l534 1022h-203l42 193h638z" />
    <glyph glyph-name="uni2165" unicode="&#x2165;" horiz-adv-x="2181" 
d="M191 0l41 193h280l-105 1048h-200l42 193h624l-40 -193h-197l96 -1023l535 1023h-204l42 193h1156l-42 -193h-287l-223 -1048h288l-41 -193h-1765zM953 193h523l222 1048h-184z" />
    <glyph glyph-name="uni2166" unicode="&#x2166;" horiz-adv-x="2764" 
d="M191 0l41 193h280l-105 1048h-200l42 193h624l-40 -193h-197l96 -1023l535 1023h-204l42 193h1739l-42 -193h-288l-223 -1048h288l-41 -193h-2347zM953 193h524l223 1048h-186zM1710 193h348l223 1048h-348z" />
    <glyph glyph-name="uni2167" unicode="&#x2167;" horiz-adv-x="3337" 
d="M191 0l41 193h280l-105 1048h-200l42 193h624l-40 -193h-197l96 -1023l535 1023h-204l42 193h2312l-42 -193h-288l-222 -1048h287l-41 -193h-2920zM953 193h516l222 1048h-177zM1702 193h348l223 1048h-348zM2283 193h348l223 1048h-348z" />
    <glyph glyph-name="uni2168" unicode="&#x2168;" horiz-adv-x="2149" 
d="M2214 1434l-42 -193h-189l-482 -523l268 -525h206l-41 -193h-1963l41 193h288l222 1048h-287l41 193h1938zM756 193l492 532l-266 516h-227l-222 -1048h223zM1408 897l317 344h-493zM1523 193l-182 355l-327 -355h509z" />
    <glyph glyph-name="uni2169" unicode="&#x2169;" horiz-adv-x="1604" 
d="M-34 0l41 193h203l493 532l-266 516h-192l41 193h1382l-42 -193h-188l-483 -523l269 -525h206l-41 -193h-1423zM863 897l316 344h-493zM468 193h509l-182 355z" />
    <glyph glyph-name="uni216C" unicode="&#x216c;" horiz-adv-x="1419" 
d="M-25 0l40 193h288l217 1048h-287l43 193h807l-40 -193h-287l-218 -1048h478l79 351h235l-115 -544h-1240z" />
    <glyph glyph-name="uni216D" unicode="&#x216d;" horiz-adv-x="1549" 
d="M127 588q0 242 90 438q89 197 260 313q169 115 400 115q148 0 265 -49t181 -145l37 174h227l-99 -463h-215q-30 129 -137 205t-257 76h-20q-144 0 -259 -86q-113 -86 -176 -232q-62 -147 -62 -315q0 -203 97.5 -320.5t276.5 -117.5h19q121 0 236.5 80.5t169.5 200.5h220
l-99 -462h-227l30 143q-76 -80 -181 -121.5t-222 -41.5q-157 -2 -285.5 77.5t-200 219.5t-69.5 311z" />
    <glyph glyph-name="uni216E" unicode="&#x216e;" horiz-adv-x="1671" 
d="M-29 0l41 193h288l222 1048h-287l41 193h661q303 2 481.5 -170t175.5 -450q0 -238 -100 -423q-99 -184 -275 -288q-175 -103 -394 -103h-854zM535 193h270q126 -2 232 49.5t176 139t108 202.5t37 240q2 178 -121.5 299t-314.5 118h-164z" />
    <glyph glyph-name="uni216F" unicode="&#x216f;" horiz-adv-x="2182" 
d="M-26 0l38 193h259l227 1048h-262l39 193h638l112 -1155l599 1155h634l-41 -193h-259l-220 -1048h259l-38 -193h-627l37 193h139l210 988l-626 -1181h-258l-117 1199l-215 -1006h140l-39 -193h-629z" />
    <glyph glyph-name="arrowleft" unicode="&#x2190;" horiz-adv-x="1635" 
d="M1565 601h-1088l366 -361l-155 -157l-637 636l637 634l155 -158l-366 -360h1088v-234z" />
    <glyph glyph-name="arrowup" unicode="&#x2191;" horiz-adv-x="1496" 
d="M626 0v1088l-361 -366l-157 155l636 637l634 -637l-158 -155l-360 366v-1088h-234z" />
    <glyph glyph-name="arrowright" unicode="&#x2192;" horiz-adv-x="1635" 
d="M67 834h1088l-366 361l155 157l637 -636l-637 -634l-155 158l366 360h-1088v234z" />
    <glyph glyph-name="arrowdown" unicode="&#x2193;" horiz-adv-x="1496" 
d="M862 1434v-1088l361 366l157 -155l-636 -637l-634 637l158 155l360 -366v1088h234z" />
    <glyph glyph-name="uni2196" unicode="&#x2196;" horiz-adv-x="1370" 
d="M1125 281l-770 769l4 -514l-221 -2v900l898 -2l-2 -221l-513 4l769 -769z" />
    <glyph glyph-name="uni2197" unicode="&#x2197;" horiz-adv-x="1371" 
d="M78 447l769 770l-514 -4l-2 221h900l-2 -898l-221 2l4 513l-769 -769z" />
    <glyph glyph-name="uni2198" unicode="&#x2198;" horiz-adv-x="1372" 
d="M245 1153l770 -769l-4 514l221 2v-900l-898 2l2 221l513 -4l-769 769z" />
    <glyph glyph-name="uni2199" unicode="&#x2199;" horiz-adv-x="1369" 
d="M1291 987l-769 -770l514 4l2 -221h-900l2 898l221 -2l-4 -513l769 769z" />
    <glyph glyph-name="uni21A4" unicode="&#x21a4;" horiz-adv-x="1751" 
d="M1343 1230h234v-1026h-234v396h-854l366 -361l-155 -157l-637 635l637 635l155 -158l-366 -360h854v396z" />
    <glyph glyph-name="uni21A5" unicode="&#x21a5;" horiz-adv-x="1576" 
d="M925 1088v-854h396v-234h-1026v234h396v854l-361 -366l-157 155l635 637l635 -637l-158 -155z" />
    <glyph glyph-name="uni21A6" unicode="&#x21a6;" horiz-adv-x="1751" 
d="M1052 1354l637 -635l-637 -635l-155 158l366 360h-854v-396h-234v1026h234v-396h854l-366 361z" />
    <glyph glyph-name="uni21A7" unicode="&#x21a7;" horiz-adv-x="1564" 
d="M1285 712l157 -155l-635 -637l-635 637l158 155l360 -366v854h-396v234h1026v-234h-396v-854z" />
    <glyph glyph-name="uni21B0" unicode="&#x21b0;" horiz-adv-x="1713" 
d="M458 834h1088v-834h-234v600h-854l366 -361l-155 -157l-637 636l637 634l155 -158z" />
    <glyph glyph-name="uni21B1" unicode="&#x21b1;" horiz-adv-x="1713" 
d="M1044 1352l637 -634l-637 -636l-155 157l366 361h-854v-600h-234v834h1088l-366 360z" />
    <glyph glyph-name="uni21B2" unicode="&#x21b2;" horiz-adv-x="1722" 
d="M1312 1434h234v-834h-1088l366 -360l-155 -158l-637 634l637 636l155 -157l-366 -361h854v600z" />
    <glyph glyph-name="uni21B3" unicode="&#x21b3;" horiz-adv-x="1722" 
d="M1053 1352l637 -636l-637 -634l-155 158l366 360h-1088v834h234v-600h854l-366 361z" />
    <glyph glyph-name="partialdiff" unicode="&#x2202;" horiz-adv-x="1173" 
d="M1067 618q0 -307 -135 -472.5t-364 -165.5q-225 -2 -362 140.5t-135 373.5q-2 139 60.5 255.5t168 181t227.5 62.5q183 0 280 -121q-10 95 -45.5 168t-88.5 117t-115.5 66t-131.5 22q-53 0 -121 -11q-66 -11 -101 -22v209q30 12 101 23q64 10 138 10q152 1 272 -61.5
t197 -175.5t116.5 -265.5t38.5 -333.5zM830 492q0 138 -72 218t-184 80h-21q-105 0 -174 -79t-69 -217q0 -142 72.5 -221.5t180.5 -79.5h11q112 0 184 77t72 222z" />
    <glyph glyph-name="Delta" unicode="&#x2206;" horiz-adv-x="1528" 
d="M822 1434l523 -1258v-176h-1329v176l522 1258h284zM681 1203l-411 -988h821z" />
    <glyph glyph-name="product" unicode="&#x220f;" horiz-adv-x="1594" 
d="M435 0v1224h-197v210h1326v-210h-195v-1224h-238v1224h-458v-1224h-238z" />
    <glyph glyph-name="summation" unicode="&#x2211;" horiz-adv-x="1350" 
d="M1167 1434v-207h-648l382 -510l-387 -510h653v-207h-935v196l392 521l-392 531v186h935z" />
    <glyph glyph-name="minus" unicode="&#x2212;" horiz-adv-x="1336" 
d="M146 423v209h1012v-209h-1012z" />
    <glyph glyph-name="uni2215" unicode="&#x2215;" horiz-adv-x="731" 
d="M-103 0l737 1434h248l-737 -1434h-248z" />
    <glyph glyph-name="uni2219" unicode="&#x2219;" horiz-adv-x="999" 
d="M121 717q-2 105 53.5 199t149.5 149.5t199 53.5q107 2 201 -53t148.5 -149t52.5 -200q2 -106 -52.5 -200t-148.5 -149t-201 -53q-105 -2 -199 53.5t-149.5 149.5t-53.5 199z" />
    <glyph glyph-name="radical" unicode="&#x221a;" horiz-adv-x="1329" 
d="M1431 1434v-210h-426l-251 -1224h-306l-332 1024h242l237 -772l227 1182h609z" />
    <glyph glyph-name="infinity" unicode="&#x221e;" horiz-adv-x="1786" 
d="M137 737q-3 165 111 278.5t277 110.5q135 -2 222.5 -55.5t177.5 -172.5q79 113 169 171q90 57 224 57q163 3 277 -110.5t111 -278.5q2 -168 -110.5 -279.5t-277.5 -109.5q-93 0 -163.5 26t-122.5 71.5t-107 122.5q-89 -115 -176.5 -166.5t-223.5 -53.5
q-165 -2 -277.5 109.5t-110.5 279.5zM530 541h10q67 0 125 48t119 147q-63 102 -119.5 149.5t-124.5 47.5h-10q-72 0 -120 -54t-48 -142q0 -90 47.5 -143t120.5 -53zM1293 541h10q76 0 127 53t51 143t-51 143t-127 53h-10q-64 0 -118 -46.5t-116 -146.5q71 -112 118 -154.5
t116 -44.5z" />
    <glyph glyph-name="integral" unicode="&#x222b;" horiz-adv-x="722" 
d="M-36 -205v209h101q98 0 137.5 41t39.5 141v870q0 196 97.5 287t297.5 91h128v-210h-102q-98 0 -137.5 -40.5t-39.5 -140.5v-870q0 -196 -97.5 -287t-297.5 -91h-127z" />
    <glyph glyph-name="approxequal" unicode="&#x2248;" horiz-adv-x="1279" 
d="M598 632q-123 42 -157 42q-41 0 -64.5 -23t-23.5 -61h-225v69q0 104 76 174t190 70q86 0 264 -64q57 -20 94 -31q32 -9 54 -9q41 0 64.5 21.5t23.5 58.5h225v-69q0 -105 -73.5 -173t-190.5 -68q-81 0 -257 63zM598 210q-123 42 -157 42q-41 0 -64.5 -23t-23.5 -61h-225
v69q0 105 76 175t190 70q56 0 116 -17q77 -22 148 -47q113 -41 148 -41q41 0 64.5 21.5t23.5 58.5h225v-69q0 -105 -73.5 -173t-190.5 -68q-81 0 -257 63z" />
    <glyph glyph-name="notequal" unicode="&#x2260;" horiz-adv-x="1392" 
d="M1185 619h-369l-57 -183h426v-209h-490l-61 -196h-226l61 196h-295v209h360l56 183h-416v209h481l61 196h225l-61 -196h305v-209z" />
    <glyph glyph-name="lessequal" unicode="&#x2264;" horiz-adv-x="1315" 
d="M1129 1062v-225l-697 -169l697 -167v-234l-1012 260v275zM117 13v207h1012v-207h-1012z" />
    <glyph glyph-name="greaterequal" unicode="&#x2265;" horiz-adv-x="1355" 
d="M160 1062l1012 -260v-275l-1012 -260v226l698 168l-698 167v234zM160 13v207h1012v-207h-1012z" />
    <glyph glyph-name="angleleft" unicode="&#x2329;" horiz-adv-x="849" 
d="M1012 1608l-677 -920l268 -862h-248l-278 891l655 891h280z" />
    <glyph glyph-name="angleright" unicode="&#x232a;" horiz-adv-x="848" 
d="M544 1608l278 -891l-655 -891h-280l677 920l-268 862h248z" />
    </font>
</defs>
</svg>
