<?xml version="1.0" standalone="no"?>
<!DOCTYPE svg PUBLIC "-//W3C//DTD SVG 1.1//EN" "http://www.w3.org/Graphics/SVG/1.1/DTD/svg11.dtd" >
<svg xmlns="http://www.w3.org/2000/svg" xmlns:xlink="http://www.w3.org/1999/xlink" version="1.1">
<metadata>
Created by FontForge 20170731 at Wed Feb  6 07:16:48 2019
 By Aleksey,,,
Copyright 2019 Dinamo (Johannes Breyer, Fabian Harb). All rights reserved. |DCNT
</metadata>
<defs>
<font id="FavoritPro-BookItalic" horiz-adv-x="1229" >
  <font-face 
    font-family="Favorit Pro Book"
    font-weight="350"
    font-style="italic"
    font-stretch="normal"
    units-per-em="2048"
    panose-1="2 0 0 6 3 0 0 2 0 4"
    ascent="1438"
    descent="-610"
    x-height="1024"
    cap-height="1434"
    bbox="-1481 -560 4547 2081"
    underline-thickness="50"
    underline-position="-150"
    slope="-12"
    unicode-range="U+000D-FB02"
  />
<missing-glyph horiz-adv-x="1393" 
d="M184 0v1434h1024v-1434h-1024zM328 140h737v1154h-737v-1154z" />
    <glyph glyph-name="fi" unicode="fi" horiz-adv-x="1282" 
d="M1215 1024l-217 -1024h-174l185 874h-511l-187 -874h-173l186 874h-222l30 150h224l46 216q20 99 73.5 146.5t143.5 47.5h309l-32 -151h-238q-41 0 -61 -19.5t-30 -65.5l-37 -174h685zM1111 1417h195l-43 -209h-195z" />
    <glyph glyph-name="fl" unicode="fl" horiz-adv-x="1282" 
d="M1303 1434l-306 -1434h-174l273 1283h-438q-41 0 -61 -19.5t-30 -65.5l-37 -174h228l-30 -150h-230l-187 -874h-173l186 874h-222l30 150h224l46 216q20 99 73.5 146.5t143.5 47.5h684z" />
    <glyph glyph-name="f_f" unicode="ff" horiz-adv-x="1400" 
d="M138 0l186 874h-222l30 150h224l46 216q20 99 73.5 146.5t143.5 47.5h309l-32 -151h-238q-41 0 -61 -19.5t-30 -65.5l-37 -174h511l46 216q41 194 218 194h309l-33 -151h-238q-40 0 -60.5 -19.5t-30.5 -65.5l-37 -174h229l-31 -150h-229l-187 -874h-174l187 874h-512
l-187 -874h-173z" />
    <glyph glyph-name="f_f_i" unicode="ffi" horiz-adv-x="1967" 
d="M138 0l186 874h-222l30 150h224l46 216q20 99 73.5 146.5t143.5 47.5h309l-32 -151h-238q-41 0 -61 -19.5t-30 -65.5l-37 -174h511l46 216q41 194 218 194h309l-33 -151h-238q-40 0 -60.5 -19.5t-30.5 -65.5l-37 -174h686l-218 -1024h-174l186 874h-511l-187 -874h-174
l187 874h-512l-187 -874h-173zM1754 1208l43 209h194l-43 -209h-194z" />
    <glyph glyph-name="f_f_l" unicode="ffl" horiz-adv-x="1967" 
d="M138 0l186 874h-222l30 150h224l46 216q20 99 73.5 146.5t143.5 47.5h309l-32 -151h-238q-41 0 -61 -19.5t-30 -65.5l-37 -174h511l46 216q41 194 218 194h683l-305 -1434h-174l272 1283h-438q-40 0 -60.5 -19.5t-30.5 -65.5l-37 -174h229l-31 -150h-229l-187 -874h-174
l187 874h-512l-187 -874h-173z" />
    <glyph glyph-name=".notdef" horiz-adv-x="1393" 
d="M184 0v1434h1024v-1434h-1024zM328 140h737v1154h-737v-1154z" />
    <glyph glyph-name=".null" horiz-adv-x="0" 
 />
    <glyph glyph-name="nonmarkingreturn" horiz-adv-x="682" 
 />
    <glyph glyph-name="CR" unicode="&#xd;" horiz-adv-x="508" 
 />
    <glyph glyph-name="space" unicode=" " horiz-adv-x="508" 
 />
    <glyph glyph-name="exclam" unicode="!" horiz-adv-x="529" 
d="M177 389l74 584l98 461h184l-98 -461l-178 -584h-80zM33 0l47 222h222l-47 -222h-222z" />
    <glyph glyph-name="quotedbl" unicode="&#x22;" horiz-adv-x="722" 
d="M244 997l12 273l35 164h174l-35 -164l-116 -273h-70zM562 997l11 273l35 164h174l-34 -164l-117 -273h-69z" />
    <glyph glyph-name="numbersign" unicode="#" horiz-adv-x="1383" 
d="M1335 911h-249l-81 -389h244v-153h-276l-76 -369h-167l76 369h-325l-79 -369h-167l79 369h-216v153h249l83 389h-244v154h277l79 369h167l-79 -369h321l76 369h167l-76 -369h217v-154zM838 522l81 389h-322l-83 -389h324z" />
    <glyph glyph-name="dollar" unicode="$" horiz-adv-x="1251" 
d="M935 1247l-174 -460l4 -1q155 -46 246 -144q91 -97 91 -233q2 -120 -64 -219t-183 -155.5t-260 -54.5q-78 0 -135 10l-89 -236h-166l104 277q-128 52 -198 152t-70 233q0 24 3 41h181q-2 -14 -2 -28q0 -166 146 -241l178 472l-23 7q-143 40 -224 130.5t-81 220.5
q-2 121 66.5 222.5t189.5 158.5t266 55q47 0 103 -8l88 233h166l-104 -276q118 -52 186 -152t68 -219v-24h-180q-1 165 -133 239zM612 833l174 458q-27 3 -56 3q-138 2 -235 -72.5t-95 -181.5q0 -142 186 -199zM697 618l-179 -474q28 -4 73 -4q141 0 233 70t92 178
q0 78 -48 134q-46 57 -171 96z" />
    <glyph glyph-name="percent" unicode="%" horiz-adv-x="1920" 
d="M325 0l1147 1434h170l-1147 -1434h-170zM1108 344q-2 207 113.5 342.5t283.5 132.5q143 0 222.5 -96t79.5 -260q2 -206 -112 -341t-279 -132q-147 0 -228 94q-80 95 -80 260zM1662 459q0 103 -41 171t-124 68q-102 0 -172.5 -96.5t-70.5 -251.5q0 -113 42.5 -176
t125.5 -63q98 -2 169.5 97t70.5 251zM164 969q-2 207 113.5 342.5t283.5 132.5q143 0 222.5 -96t79.5 -260q2 -206 -112 -341t-279 -132q-147 0 -228 94q-80 95 -80 260zM718 1084q0 103 -41 171t-124 68q-102 0 -172.5 -96.5t-70.5 -251.5q0 -113 42.5 -176t125.5 -63
q98 -2 169.5 97t70.5 251z" />
    <glyph glyph-name="ampersand" unicode="&#x26;" horiz-adv-x="1309" 
d="M61 348q-2 144 92.5 260t238.5 142q-76 37 -127.5 118t-51.5 174q-3 166 121.5 280.5t305.5 111.5h282l-34 -161h-233q-117 0 -189.5 -69.5t-72.5 -178.5q0 -91 59 -154t153 -63h289l52 251h180l-52 -251h226l-34 -160h-226l-138 -648h-438q-184 0 -293.5 94.5
t-109.5 253.5zM490 160h266l104 488h-340q-120 0 -199 -76.5t-79 -191.5q0 -102 67 -161t181 -59z" />
    <glyph glyph-name="quotesingle" unicode="'" horiz-adv-x="405" 
d="M244 997l12 273l35 164h174l-35 -164l-116 -273h-70z" />
    <glyph glyph-name="parenleft" unicode="(" horiz-adv-x="804" 
d="M109 532q0 308 126 579q126 272 332 440q207 168 436 180l-32 -153q-180 -33 -340 -185q-160 -154 -253 -380q-95 -229 -95 -480q0 -242 81.5 -427t229.5 -256l-31 -147q-125 29 -229 145q-103 115 -165 295q-60 179 -60 389z" />
    <glyph glyph-name="parenright" unicode=")" horiz-adv-x="804" 
d="M746 902q0 -308 -126 -579q-126 -272 -333 -440q-205 -168 -435 -180l32 153q182 33 339 184q159 152 254 380q95 231 95 481q0 242 -81.5 427t-229.5 256l31 147q125 -29 229 -145t164 -295q61 -177 61 -389z" />
    <glyph glyph-name="asterisk" unicode="*" horiz-adv-x="886" 
d="M442 871l-101 58l120 209h-240v116h240l-120 209l101 58l122 -209l120 209l100 -58l-120 -209h241v-116h-241l120 -209l-101 -58l-120 209z" />
    <glyph glyph-name="plus" unicode="+" horiz-adv-x="1192" 
d="M492 31v418h-417v157h417v418h178v-418h417v-157h-417v-418h-178z" />
    <glyph glyph-name="comma" unicode="," horiz-adv-x="519" 
d="M-89 -270l24 116h38q148 0 174 123l7 31h-129l49 232h243l-54 -252q-26 -123 -103 -186.5t-200 -63.5h-49z" />
    <glyph glyph-name="hyphen" unicode="-" horiz-adv-x="819" 
d="M126 543l33 153h539l-32 -153h-540z" />
    <glyph glyph-name="period" unicode="." horiz-adv-x="502" 
d="M21 0l50 232h232l-50 -232h-232z" />
    <glyph glyph-name="slash" unicode="/" horiz-adv-x="789" 
d="M-44 0l737 1434h188l-737 -1434h-188z" />
    <glyph glyph-name="zero" unicode="0" horiz-adv-x="1361" 
d="M128 552q0 194 69 402t221 354q154 146 387 146q217 3 349 -155.5t130 -416.5q0 -196 -69 -404q-67 -206 -221 -353q-151 -145 -386 -145q-218 -3 -350 155.5t-130 416.5zM612 140h21q128 0 236 99t171 268q64 168 64 372q0 82 -19 156t-56 132.5t-96 93t-133 33.5h-20
q-128 0 -236 -99q-107 -98 -172 -269q-63 -170 -63 -372q0 -82 19 -156t55.5 -133t95.5 -92.5t133 -32.5z" />
    <glyph glyph-name="one" unicode="1" horiz-adv-x="765" 
d="M608 1434h141l-305 -1434h-174l245 1154l-396 -312l51 241z" />
    <glyph glyph-name="two" unicode="2" horiz-adv-x="1189" 
d="M727 474l-424 -305h713l-31 -169h-962l40 193l555 404q184 135 255.5 229t73.5 207q0 120 -73 190.5t-195 70.5h-21q-112 2 -197.5 -82t-87.5 -203h-180q-1 123 62.5 226t175 162t244.5 57q198 3 326 -118t126 -294q0 -110 -40 -197t-126 -176q-85 -87 -234 -195z" />
    <glyph glyph-name="three" unicode="3" horiz-adv-x="1188" 
d="M48 371h181q0 -97 82.5 -164t207.5 -67h20q132 0 217.5 79t85.5 193q0 105 -72 165t-201 60h-75l34 159h136q118 -2 207 74.5t87 194.5q0 105 -69.5 167t-185.5 62h-20q-106 0 -184 -66t-95 -170h-180q6 78 44 150t100 127.5t152.5 88t194.5 31.5q184 2 305 -106
t119 -272q0 -141 -86.5 -240.5t-217.5 -134.5q86 -43 136.5 -121.5t50.5 -181.5q2 -113 -60 -209t-178 -154t-261 -56q-208 -2 -343 107.5t-132 283.5z" />
    <glyph glyph-name="four" unicode="4" horiz-adv-x="1245" 
d="M1156 492l-33 -160h-233l-71 -332h-170l70 332h-710l39 190l842 912h234l-200 -942h232zM234 492h519l156 737z" />
    <glyph glyph-name="five" unicode="5" horiz-adv-x="1171" 
d="M55 375h181q6 -109 83.5 -172t189.5 -63h21q142 0 233.5 90t91.5 225q0 121 -74.5 201.5t-192.5 80.5h-20q-168 0 -301 -146h-174l353 843h737l-35 -169h-599l-206 -471q112 103 278 103q173 3 295 -122t119 -305q3 -215 -144.5 -354t-369.5 -136q-194 -2 -328 106.5
t-138 288.5z" />
    <glyph glyph-name="six" unicode="6" horiz-adv-x="1275" 
d="M1126 497q1 -101 -35.5 -195.5t-101.5 -166.5t-161 -114.5t-205 -40.5q-222 -3 -359.5 162t-135.5 430q0 216 84 420q84 203 242 333q158 129 369 129q184 2 311 -101.5t138 -263.5h-180q-14 90 -88 147.5t-183 57.5h-20q-113 2 -215.5 -71.5t-171.5 -197.5t-93 -271
q62 92 157.5 140.5t210.5 48.5q119 2 219.5 -53.5t160 -159t57.5 -233.5zM946 485q0 129 -78 213t-202 84h-21q-134 2 -233 -94t-97 -231q-2 -129 85 -224t206 -93h20q132 -3 227.5 97t92.5 248z" />
    <glyph glyph-name="seven" unicode="7" horiz-adv-x="1096" 
d="M226 1434h982l-38 -178q-233 -98 -393 -250q-324 -310 -382 -959l-4 -47h-180l8 90q39 424 221.5 728t479.5 447h-730z" />
    <glyph glyph-name="eight" unicode="8" horiz-adv-x="1169" 
d="M99 352q-2 126 91.5 234.5t234.5 137.5q-98 45 -153.5 128t-55.5 190q-2 113 65 209t180.5 150.5t243.5 52.5q120 1 222 -47.5t161.5 -137.5t57.5 -197q2 -140 -101 -254.5t-249 -142.5q84 -45 132 -125t48 -176q2 -105 -59 -196.5t-169 -145.5t-235 -52
q-180 -3 -298 103t-116 269zM649 786h18q118 -1 209.5 72.5t89.5 196.5q0 114 -74.5 176.5t-187.5 62.5h-18q-125 0 -208 -74t-83 -198q0 -108 76 -172t178 -64zM513 140h19q112 0 188 74t76 186q0 96 -67.5 159.5t-165.5 63.5h-18q-112 0 -189 -75t-77 -187q0 -95 67 -158
t167 -63z" />
    <glyph glyph-name="nine" unicode="9" horiz-adv-x="1275" 
d="M1197 862q0 -216 -84 -420q-84 -203 -242 -333q-157 -129 -369 -129q-184 -2 -311 101.5t-138 263.5h180q14 -90 87.5 -147.5t180.5 -57.5h21q113 -2 216 71.5t172 197t94 271.5q-60 -92 -156.5 -140.5t-211.5 -48.5q-119 -2 -219.5 53.5t-160 159t-57.5 233.5
q-1 101 35.5 195.5t101.5 166.5t161 114.5t205 40.5q222 3 359.5 -162t135.5 -430zM1010 977q2 129 -85 224t-205 93h-21q-132 2 -227.5 -98.5t-92.5 -247.5q0 -127 78.5 -212t201.5 -85h21q134 -2 233 94.5t97 231.5z" />
    <glyph glyph-name="colon" unicode=":" horiz-adv-x="508" 
d="M10 0l50 232h232l-50 -232h-232zM179 792l50 232h232l-50 -232h-232z" />
    <glyph glyph-name="semicolon" unicode=";" horiz-adv-x="573" 
d="M-67 -270l24 116h38q148 0 174 123l7 31h-129l49 232h243l-54 -252q-26 -123 -103 -186.5t-200 -63.5h-49zM222 792l50 232h232l-50 -232h-232z" />
    <glyph glyph-name="less" unicode="&#x3c;" horiz-adv-x="1124" 
d="M943 960v-182l-622 -248l622 -243v-194l-871 360v147z" />
    <glyph glyph-name="equal" unicode="=" horiz-adv-x="1417" 
d="M186 631v161h1012v-161h-1012zM186 262v161h1012v-161h-1012z" />
    <glyph glyph-name="greater" unicode="&#x3e;" horiz-adv-x="1120" 
d="M145 958l871 -360v-147l-871 -360v182l622 248l-622 243v194z" />
    <glyph glyph-name="question" unicode="?" horiz-adv-x="950" 
d="M219 413l55 251q24 96 82 137t162 41h22q116 0 184 66t68 164q0 101 -62 147.5t-190 46.5h-323l36 168h310q191 0 300 -92.5t109 -256.5q2 -111 -56.5 -205.5t-158.5 -147.5t-216 -51q-80 0 -98 -79l-44 -189h-180zM112 0l47 222h222l-47 -222h-222z" />
    <glyph glyph-name="at" unicode="@" horiz-adv-x="1912" 
d="M129 635q0 262 121 456q122 197 318 300q199 104 420 104q234 0 423 -102q190 -103 296 -280q108 -177 108 -393q1 -121 -33.5 -222.5t-93 -167t-132 -101.5t-151.5 -34h-201v141q-30 -68 -101 -115t-166 -47q-159 -2 -270 121t-108 319q-2 196 107.5 314t270.5 116
q92 0 158.5 -42.5t101.5 -114.5v137h157v-689h41q45 0 87 22t78.5 66t58.5 121t22 176q3 276 -178.5 450t-474.5 171q-188 0 -345 -88q-156 -87 -248 -248t-92 -370q-1 -168 51 -307.5t146 -234t226.5 -145.5t289.5 -50h502v-154h-512q-188 -2 -348.5 57t-279 170t-185 282
t-64.5 382zM951 314h12q99 0 166.5 87t67.5 213q0 127 -64.5 209t-162.5 82h-12q-100 0 -162.5 -79.5t-62.5 -211.5q0 -134 59 -217t159 -83z" />
    <glyph glyph-name="A" unicode="A" horiz-adv-x="1394" 
d="M1073 0l-67 378h-702l-228 -378h-192l873 1434h239l255 -1434h-178zM405 545h572l-130 732z" />
    <glyph glyph-name="B" unicode="B" horiz-adv-x="1374" 
d="M64 0l305 1434h542q189 0 303 -90.5t114 -253.5q0 -139 -86.5 -241.5t-224.5 -136.5q94 -34 147.5 -111t53.5 -180q1 -82 -33 -159.5t-93.5 -135.5t-144.5 -92.5t-179 -33.5h-704zM421 810h441q119 0 200.5 72.5t81.5 185.5q0 102 -64.5 150t-197.5 48h-364zM284 167h465
q120 0 202.5 69t82.5 202q0 96 -61 150.5t-174 54.5h-414z" />
    <glyph glyph-name="C" unicode="C" horiz-adv-x="1452" 
d="M124 580q0 239 92 440q94 201 265 317q173 117 404 117q144 1 261 -55.5t186.5 -164t72.5 -247.5h-184q-2 136 -96.5 218t-250.5 82h-20q-148 0 -273 -89q-126 -90 -199 -244q-73 -155 -73 -350q0 -213 113.5 -335t320.5 -122h20q94 -1 178.5 31.5t146.5 102t77 165.5
h185q-38 -216 -202.5 -341t-412.5 -125q-178 -2 -318 73t-217.5 213t-75.5 314z" />
    <glyph glyph-name="D" unicode="D" horiz-adv-x="1464" 
d="M64 0l305 1434h386q239 0 382 -86q142 -85 198 -218q57 -132 57 -286q0 -208 -86 -404q-86 -195 -248 -317q-164 -123 -384 -123h-610zM287 167h379q174 0 296 96q123 96 184 250q62 156 62 327q0 205 -116.5 315.5t-335.5 110.5h-239z" />
    <glyph glyph-name="E" unicode="E" horiz-adv-x="1328" 
d="M64 0l305 1434h1031l-35 -168h-847l-95 -445h724l-36 -167h-723l-104 -487h867l-36 -167h-1051z" />
    <glyph glyph-name="F" unicode="F" horiz-adv-x="1242" 
d="M1324 1266h-806l-104 -486h704l-35 -168h-704l-131 -612h-184l305 1434h990z" />
    <glyph glyph-name="G" unicode="G" horiz-adv-x="1537" 
d="M124 588q0 242 96 438q95 197 272 313q176 115 410 115q151 2 278.5 -63t199.5 -178.5t70 -246.5h-184q-12 151 -116 234.5t-258 86.5h-21q-162 0 -292 -92q-129 -93 -199 -246q-71 -154 -71 -330q0 -216 109 -341.5t298 -130.5h21q173 0 312.5 110.5t207.5 300.5h-445
l33 166h421q71 0 114 -38.5t43 -103.5q0 -27 -6 -63l-108 -519h-161l49 231q-68 -108 -197 -179.5t-272 -71.5q-177 -2 -316.5 77t-214.5 218t-73 313z" />
    <glyph glyph-name="H" unicode="H" horiz-adv-x="1505" 
d="M64 0l305 1434h185l-135 -633h755l134 633h184l-305 -1434h-184l135 634h-754l-136 -634h-184z" />
    <glyph glyph-name="I" unicode="I" horiz-adv-x="567" 
d="M64 0l305 1434h185l-306 -1434h-184z" />
    <glyph glyph-name="J" unicode="J" horiz-adv-x="805" 
d="M-66 0l37 174h195q99 0 151.5 50.5t77.5 164.5l223 1045h185l-228 -1065q-42 -198 -144 -283.5t-299 -85.5h-198z" />
    <glyph glyph-name="K" unicode="K" horiz-adv-x="1452" 
d="M1546 1434l-739 -615l554 -819h-222l-474 701l-324 -270l-90 -431h-185l301 1434h185l-156 -745l888 745h262z" />
    <glyph glyph-name="L" unicode="L" horiz-adv-x="1243" 
d="M64 0l305 1434h185l-270 -1267h846l-35 -167h-1031z" />
    <glyph glyph-name="M" unicode="M" horiz-adv-x="1911" 
d="M1591 1434h307l-305 -1434h-185l272 1275l-725 -1275h-243l-190 1283l-274 -1283h-184l305 1434h303l189 -1284z" />
    <glyph glyph-name="N" unicode="N" horiz-adv-x="1526" 
d="M1328 1434h185l-305 -1434h-250l-447 1236l-263 -1236h-184l305 1434h253l445 -1230z" />
    <glyph glyph-name="O" unicode="O" horiz-adv-x="1559" 
d="M124 595q0 235 95 433q95 197 266 311q172 115 394 115q175 2 313.5 -76.5t215.5 -222t75 -324.5q0 -230 -92 -426q-93 -196 -263 -310q-172 -115 -402 -115q-172 -2 -310 74.5t-216 218.5t-76 322zM732 147h20q159 0 284 89q123 87 193 241q69 151 69 335
q2 208 -118.5 343t-305.5 132h-21q-157 3 -283.5 -89.5t-194.5 -247.5t-66 -338q-2 -208 116 -337.5t307 -127.5z" />
    <glyph glyph-name="P" unicode="P" horiz-adv-x="1302" 
d="M64 0l305 1434h499q200 1 325 -107.5t123 -276.5q2 -203 -132.5 -341.5t-345.5 -136.5h-467l-123 -572h-184zM406 739h431q128 0 210.5 81t82.5 214q0 110 -75.5 171t-223.5 61h-313z" />
    <glyph glyph-name="Q" unicode="Q" horiz-adv-x="1559" 
d="M791 -17l-22 -102q-6 -25 -6 -43q0 -27 17 -38.5t59 -11.5h305l-35 -167h-331q-91 0 -143.5 46.5t-52.5 130.5q0 24 9 69l26 121q-221 31 -358.5 197.5t-134.5 409.5q0 235 95 433q95 197 266 311q172 115 394 115q175 2 313.5 -76.5t215.5 -222t75 -324.5
q0 -219 -83 -408q-82 -186 -240 -305q-158 -118 -369 -135zM732 147h20q159 0 284 89q123 87 193 241q69 151 69 335q2 208 -118.5 343t-305.5 132h-21q-157 3 -283.5 -89.5t-194.5 -247.5t-66 -338q-2 -208 116 -337.5t307 -127.5z" />
    <glyph glyph-name="R" unicode="R" horiz-adv-x="1382" 
d="M64 0l305 1434h490q211 0 324 -96t113 -265q0 -127 -74 -232.5t-190 -146.5q78 -7 126 -55t48 -121q0 -32 -11 -96l-90 -422h-184l92 434q7 27 7 57q0 49 -35.5 71t-116.5 22h-492l-125 -584h-187zM410 751h387q135 0 224.5 82t89.5 216q0 217 -298 217h-293z" />
    <glyph glyph-name="S" unicode="S" horiz-adv-x="1266" 
d="M51 410q0 29 2 47h179v-34q0 -132 98 -204t248 -72h21q147 0 240.5 66t93.5 173q0 84 -56 141t-198 100l-149 47q-156 48 -231.5 132.5t-75.5 215.5q-2 121 68 221.5t191 156.5t263 54q220 3 364.5 -121.5t142.5 -300.5v-25h-184q-3 133 -89 207q-85 73 -230 73h-21
q-132 2 -227.5 -71t-92.5 -176q0 -136 179 -193l206 -67q324 -107 324 -377q3 -180 -144 -303t-374 -120q-254 0 -401 117.5t-147 312.5z" />
    <glyph glyph-name="T" unicode="T" horiz-adv-x="1266" 
d="M416 0l270 1266h-515l35 168h1208l-35 -168h-509l-269 -1266h-185z" />
    <glyph glyph-name="U" unicode="U" horiz-adv-x="1430" 
d="M154 415q0 84 19 173l180 846h184l-184 -865q-17 -82 -17 -142q0 -134 72 -206.5t212 -73.5h20q330 0 408 357l199 930h184l-209 -977q-49 -233 -203 -355t-407 -122q-215 0 -336.5 114.5t-121.5 320.5z" />
    <glyph glyph-name="V" unicode="V" horiz-adv-x="1395" 
d="M1354 1434h203l-868 -1434h-232l-269 1434h185l230 -1265z" />
    <glyph glyph-name="W" unicode="W" horiz-adv-x="1904" 
d="M1837 1434h198l-664 -1434h-241l-43 1251l-565 -1251h-243l-58 1434h189l25 -1252l573 1252h232l43 -1255z" />
    <glyph glyph-name="X" unicode="X" horiz-adv-x="1293" 
d="M1426 1434l-643 -700l370 -734h-209l-295 588l-540 -588h-220l681 743l-347 691h207l274 -544l499 544h223z" />
    <glyph glyph-name="Y" unicode="Y" horiz-adv-x="1279" 
d="M1449 1434l-720 -847l-126 -587h-184l126 591l-363 843h202l284 -666l553 666h228z" />
    <glyph glyph-name="Z" unicode="Z" horiz-adv-x="1246" 
d="M1320 1434l-38 -192l-1075 -1075h865l-35 -167h-1080l40 189l1078 1077h-830l36 168h1039z" />
    <glyph glyph-name="bracketleft" unicode="[" horiz-adv-x="679" 
d="M-9 -297l432 2028h439l-33 -154h-271l-366 -1720h273l-33 -154h-441z" />
    <glyph glyph-name="backslash" unicode="\" horiz-adv-x="1339" 
d="M971 0l-737 1434h189l737 -1434h-189z" />
    <glyph glyph-name="bracketright" unicode="]" horiz-adv-x="679" 
d="M739 1731l-432 -2028h-439l33 154h271l366 1720h-273l33 154h441z" />
    <glyph glyph-name="asciicircum" unicode="^" horiz-adv-x="1098" 
d="M1029 584h-175l-287 702l-288 -702h-167l360 850h197z" />
    <glyph glyph-name="underscore" unicode="_" horiz-adv-x="1031" 
d="M-98 -154l32 154h908l-32 -154h-908z" />
    <glyph glyph-name="grave" unicode="`" horiz-adv-x="487" 
d="M441 1161l-183 273h191l114 -273h-122z" />
    <glyph glyph-name="a" unicode="a" horiz-adv-x="1222" 
d="M75 422q-2 179 67 323.5t186.5 222.5t256.5 76q124 0 221 -62.5t133 -154.5l42 197h174l-217 -1024h-169l28 132q-123 -152 -323 -152q-170 -2 -286 120t-113 322zM493 126h19q79 -2 149 37.5t117.5 106t74.5 152.5t26 175q0 132 -74 216.5t-187 84.5h-19
q-66 1 -129.5 -32t-113 -92t-79 -147t-28.5 -190q0 -136 67 -223.5t177 -87.5z" />
    <glyph glyph-name="b" unicode="b" horiz-adv-x="1223" 
d="M247 198l-43 -198h-173l305 1434h173l-113 -534q56 68 137 106t178 38q171 2 286.5 -120.5t113.5 -323.5q2 -134 -38.5 -251.5t-110 -198.5t-163.5 -126.5t-198 -43.5q-124 0 -221 63t-133 155zM569 126h19q67 -1 130.5 32t112.5 92t78 147t28 190q0 139 -67 225t-182 86
h-19q-104 2 -189 -66t-129.5 -176t-42.5 -229q0 -133 74.5 -217t186.5 -84z" />
    <glyph glyph-name="c" unicode="c" horiz-adv-x="1116" 
d="M74 424q-2 182 73.5 326t203 220t278.5 74q176 0 288 -98t112 -257h-174q0 100 -63 154.5t-169 54.5h-19q-98 2 -180.5 -58.5t-130 -168t-45.5 -234.5q0 -143 75 -227t205 -84h19q97 0 169 57q72 59 99 152h174q-34 -163 -162 -259t-299 -96q-200 -2 -328 118t-126 326z
" />
    <glyph glyph-name="d" unicode="d" horiz-adv-x="1231" 
d="M74 433q-2 129 40 244.5t113.5 196t167.5 126.5t198 44q123 0 219 -57q97 -55 138 -149l125 596h179l-309 -1434h-171l27 126q-41 -61 -130.5 -103.5t-185.5 -42.5q-179 -2 -296 121t-115 332zM509 129h19q103 -2 186.5 65.5t127.5 175t43 227.5q0 133 -76 215.5
t-192 82.5h-20q-90 2 -170.5 -57.5t-128.5 -164.5t-46 -227q0 -140 71.5 -228.5t185.5 -88.5z" />
    <glyph glyph-name="e" unicode="e" horiz-adv-x="1121" 
d="M75 453q-2 164 70 301t197.5 214.5t274.5 75.5q170 2 283 -105.5t111 -287.5q0 -67 -22 -163h-746q-1 -8 -1 -35q0 -146 78.5 -236.5t199.5 -90.5h19q94 1 163 47t99 127h174q-44 -151 -162 -235.5t-298 -84.5q-195 -2 -318.5 128.5t-121.5 344.5zM268 628h572q4 20 4 55
q0 99 -63 157t-172 58h-19q-115 0 -200 -73q-87 -74 -122 -197z" />
    <glyph glyph-name="f" unicode="f" horiz-adv-x="715" 
d="M567 1198l-37 -174h228l-30 -150h-230l-187 -874h-173l186 874h-222l30 150h224l46 216q20 99 73.5 146.5t143.5 47.5h309l-32 -151h-238q-41 0 -61 -19.5t-30 -65.5z" />
    <glyph glyph-name="g" unicode="g" horiz-adv-x="1215" 
d="M-31 -137h176q13 -77 82 -121t172 -44h19q137 0 222 80.5t119 233.5l29 128q-55 -66 -135.5 -103t-173.5 -37q-76 -1 -147 26t-129.5 79.5t-92.5 140t-33 198.5q-2 130 39 244.5t110.5 192t162 121.5t191.5 42q130 0 222 -62.5t131 -157.5l41 200h174l-224 -1053
q-43 -202 -175.5 -310.5t-353.5 -108.5q-113 0 -204 33.5t-151.5 105t-70.5 172.5zM503 147h19q101 -2 182.5 61.5t124 163.5t41.5 212q0 144 -73.5 229t-190.5 85h-20q-86 2 -163.5 -55t-125.5 -161.5t-46 -228.5q0 -144 72 -225t180 -81z" />
    <glyph glyph-name="h" unicode="h" horiz-adv-x="1161" 
d="M1032 729q0 -57 -13 -119l-129 -610h-175l132 614q8 56 8 86q0 91 -48.5 144.5t-132.5 53.5h-19q-119 0 -210.5 -94.5t-127.5 -271.5l-112 -532h-174l303 1434h174l-116 -554q57 79 141 121.5t182 42.5q134 2 226.5 -89.5t90.5 -225.5z" />
    <glyph glyph-name="i" unicode="i" horiz-adv-x="489" 
d="M272 1208l43 209h194l-43 -209h-194zM31 0l217 1024h174l-217 -1024h-174z" />
    <glyph glyph-name="j" unicode="j" horiz-adv-x="506" 
d="M-339 -365l32 153h240q71 0 87 84l244 1152h174l-252 -1197q-38 -192 -215 -192h-310zM288 1208l43 209h195l-43 -209h-195z" />
    <glyph glyph-name="k" unicode="k" horiz-adv-x="1161" 
d="M31 0l305 1434h174l-194 -910l624 500h247l-528 -421l398 -603h-207l-325 497l-259 -206l-61 -291h-174z" />
    <glyph glyph-name="l" unicode="l" horiz-adv-x="489" 
d="M30 0l305 1434h174l-305 -1434h-174z" />
    <glyph glyph-name="m" unicode="m" horiz-adv-x="1836" 
d="M31 0l217 1024h173l-33 -158q54 82 139.5 130t189.5 48q109 0 189 -59q78 -58 104 -162q63 100 165 160q103 61 214 61q137 2 229 -86.5t90 -224.5q0 -57 -14 -127l-129 -606h-173l131 617q10 46 10 85q0 88 -51.5 142t-136.5 54h-19q-109 2 -201.5 -95.5t-119.5 -237.5
l-120 -565h-174l131 614q9 47 9 74q0 95 -49.5 152.5t-137.5 57.5h-20q-111 0 -202 -101t-125 -265l-112 -532h-174z" />
    <glyph glyph-name="n" unicode="n" horiz-adv-x="1161" 
d="M1032 729q0 -57 -13 -119l-129 -610h-175l132 614q8 56 8 86q0 91 -48.5 144.5t-132.5 53.5h-19q-119 0 -210.5 -94.5t-127.5 -271.5l-112 -532h-174l217 1024h174l-30 -144q57 79 141 121.5t182 42.5q134 2 226.5 -89.5t90.5 -225.5z" />
    <glyph glyph-name="o" unicode="o" horiz-adv-x="1170" 
d="M74 444q-3 163 70 302.5t198.5 220t271.5 77.5q209 0 327.5 -126.5t118.5 -337.5q2 -165 -70.5 -304.5t-197.5 -219t-272 -76.5q-207 0 -326.5 126.5t-119.5 337.5zM518 126h19q64 -2 126.5 30.5t112.5 89.5t80.5 143t29.5 184q0 142 -73 233.5t-198 91.5h-19
q-64 1 -126.5 -31t-112.5 -89t-80.5 -143t-28.5 -184q0 -141 72.5 -233t197.5 -92z" />
    <glyph glyph-name="p" unicode="p" horiz-adv-x="1234" 
d="M-57 -410l305 1434h174l-30 -136q54 75 135.5 115.5t180.5 40.5q179 2 296.5 -126t115.5 -331q1 -130 -38 -244t-107.5 -194t-163 -125.5t-201.5 -43.5q-119 0 -219 56q-98 55 -145 157l-129 -603h-174zM584 129h21q88 -2 166.5 58t126 165.5t45.5 225.5q0 142 -72 229.5
t-189 87.5h-19q-102 2 -184.5 -65.5t-126 -176t-42.5 -230.5q0 -129 78 -211.5t196 -82.5z" />
    <glyph glyph-name="q" unicode="q" horiz-adv-x="1225" 
d="M679 -410l113 535q-116 -145 -317 -145q-172 -2 -286.5 119.5t-112.5 327.5q-2 134 39 251t111 197t164 125t196 44q125 0 221.5 -63t132.5 -156l44 199h174l-305 -1434h-174zM504 129h20q101 -2 184 66t128 176.5t43 229.5q0 129 -78 211.5t-195 82.5h-22
q-87 2 -164.5 -58t-124 -166t-44.5 -227q0 -143 68 -229t185 -86z" />
    <glyph glyph-name="r" unicode="r" horiz-adv-x="746" 
d="M717 1034h78l-35 -170h-76q-139 0 -236.5 -93.5t-138.5 -281.5l-104 -489h-174l217 1024h173l-43 -202q57 107 139 159.5t200 52.5z" />
    <glyph glyph-name="s" unicode="s" horiz-adv-x="980" 
d="M8 314h176q6 -91 68.5 -139.5t161.5 -48.5h19q91 0 148.5 44t57.5 114q0 93 -130 135l-117 38q-122 41 -183.5 105t-61.5 161q-2 133 108 228t276 93q163 2 275.5 -89.5t113.5 -244.5h-176q-1 86 -64 137t-152 51h-19q-83 0 -137 -45.5t-54 -113.5q0 -92 125 -133
l123 -40q112 -38 178 -100q69 -62 69 -177q2 -135 -110 -223t-278 -86q-188 0 -299.5 89t-117.5 245z" />
    <glyph glyph-name="t" unicode="t" horiz-adv-x="791" 
d="M497 874l-135 -632q-3 -16 -3 -31q0 -27 21 -42t53 -15h223l-33 -154h-245q-93 0 -144 44t-51 125q0 35 6 58l136 647h-237l31 150h240l72 332h170l-72 -332h258l-31 -150h-259z" />
    <glyph glyph-name="u" unicode="u" horiz-adv-x="1153" 
d="M912 1024h174l-217 -1024h-174l32 154q-117 -174 -317 -174q-140 0 -228.5 82.5t-88.5 233.5q0 51 13 116l130 612h174l-132 -623q-10 -43 -10 -79q0 -90 47.5 -143t127.5 -53h19q119 0 210.5 99.5t126.5 266.5z" />
    <glyph glyph-name="v" unicode="v" horiz-adv-x="1043" 
d="M913 1024h188l-606 -1024h-203l-168 1024h180l128 -834z" />
    <glyph glyph-name="w" unicode="w" horiz-adv-x="1581" 
d="M1436 1024h191l-536 -1024h-203l-57 821l-405 -821h-203l-97 1024h171l61 -840l411 840h191l64 -839z" />
    <glyph glyph-name="x" unicode="x" horiz-adv-x="1039" 
d="M-91 0l497 526l-270 498h190l198 -371l346 371h215l-486 -513l278 -511h-190l-205 385l-360 -385h-213z" />
    <glyph glyph-name="y" unicode="y" horiz-adv-x="1092" 
d="M1163 1024l-643 -988l-45 -209q-21 -95 -77 -143.5t-141 -48.5h-338l33 153h257q44 0 68 23t36 78l32 151l-213 984h181l161 -763l494 763h195z" />
    <glyph glyph-name="z" unicode="z" horiz-adv-x="995" 
d="M981 1024l-38 -177l-758 -697h639l-31 -150h-835l38 177l756 697h-597l31 150h795z" />
    <glyph glyph-name="braceleft" unicode="{" horiz-adv-x="730" 
d="M105 -85q0 36 17 116l90 424q6 30 6 47q0 75 -87 75h-53l58 280h71q48 0 73.5 24.5t37.5 84.5l100 474q34 161 102 226t198 65h195l-32 -154h-125q-83 -2 -116 -38t-55 -130l-108 -516q-16 -75 -61 -115.5t-112 -40.5h-39l-10 -41h16q59 0 95 -36.5t36 -93.5
q0 -27 -7 -54l-107 -494q-9 -40 -9 -66q0 -95 113 -95h124l-33 -154h-161q-104 0 -160.5 56.5t-56.5 155.5z" />
    <glyph glyph-name="bar" unicode="|" horiz-adv-x="625" 
d="M248 -174v1782h181v-1782h-181z" />
    <glyph glyph-name="braceright" unicode="}" horiz-adv-x="730" 
d="M675 1521q0 -36 -17 -116l-90 -424q-6 -30 -6 -47q0 -75 87 -75h53l-58 -280h-71q-48 0 -73.5 -24.5t-37.5 -84.5l-100 -474q-34 -161 -102 -226t-198 -65h-195l32 154h125q83 2 116 38t55 130l108 516q16 75 61 115.5t112 40.5h39l10 41h-16q-59 0 -95 36.5t-36 93.5
q0 27 7 54l107 494q9 40 9 66q0 95 -113 95h-124l33 154h161q104 0 160.5 -56.5t56.5 -155.5z" />
    <glyph glyph-name="asciitilde" unicode="~" horiz-adv-x="997" 
d="M565 764l-51 30q-46 29 -69.5 39t-50.5 10q-35 0 -54.5 -29.5t-19.5 -88.5h-130v42q0 95 55 154.5t140 59.5q69 0 156 -55l52 -31q50 -30 71.5 -39.5t44.5 -9.5q35 0 54.5 29.5t19.5 88.5h130v-42q0 -93 -53 -153.5t-136 -60.5q-69 0 -159 56z" />
    <glyph glyph-name="uni00A0" unicode="&#xa0;" horiz-adv-x="508" 
 />
    <glyph glyph-name="exclamdown" unicode="&#xa1;" horiz-adv-x="503" 
d="M448 1024l-47 -222h-222l47 222h222zM304 635l-74 -584l-98 -461h-184l98 461l178 584h80z" />
    <glyph glyph-name="cent" unicode="&#xa2;" horiz-adv-x="1118" 
d="M787 335h180q-31 -164 -156 -259.5t-291 -95.5q-32 0 -80 5l-88 -231h-166l105 277q-104 53 -161 153t-57 236q-2 139 42 257.5t120 199t179.5 124.5t218.5 43q5 0 43 -2l87 228h165l-101 -265q95 -43 148.5 -125.5t53.5 -190.5h-180q0 110 -80 163l-272 -717
q32 -2 38 -2q93 0 160 53.5t92 148.5zM351 189l268 702h-4q-156 3 -261 -128.5t-102 -335.5q0 -162 99 -238z" />
    <glyph glyph-name="sterling" unicode="&#xa3;" horiz-adv-x="1189" 
d="M598 1016l-57 -223l293 69l-37 -173l-301 -71l-68 -268q-18 -68 -57.5 -119t-91.5 -71h750l-34 -160h-1007l35 160q179 0 225 190l57 223l-201 -48l38 173l208 49l79 308q49 192 183 285q134 94 316 94h202l-34 -161h-159q-273 0 -339 -257z" />
    <glyph glyph-name="currency" unicode="&#xa4;" horiz-adv-x="1593" 
d="M1238 322l188 -184l-112 -112l-183 174q-143 -118 -332 -118q-185 0 -327 114l-179 -170l-112 112l182 178q-90 139 -90 309q0 169 86 298l-178 178l112 112l176 -169q141 113 330 113q191 0 335 -117l180 173l112 -112l-184 -184q82 -130 82 -292q0 -167 -86 -303z
M1144 625q2 161 -95.5 267.5t-239.5 104.5h-21q-140 2 -238.5 -104.5t-96.5 -267.5q-2 -161 101.5 -273.5t244.5 -109.5h10q139 -3 238 108.5t97 274.5z" />
    <glyph glyph-name="yen" unicode="&#xa5;" horiz-adv-x="1393" 
d="M1496 1434l-523 -607l247 53l-36 -165l-378 -81l-25 -29l-30 -141l326 70l-31 -163l-329 -71l-64 -300h-181l55 260l-325 -70l36 164l324 69l35 166l-396 -85l34 164l320 69l-319 697h204l283 -639l546 639h227z" />
    <glyph glyph-name="brokenbar" unicode="&#xa6;" horiz-adv-x="631" 
d="M250 874v734h181v-734h-181zM250 -174v754h181v-754h-181z" />
    <glyph glyph-name="section" unicode="&#xa7;" horiz-adv-x="1065" 
d="M70 -123l34 160h359q96 0 144 34t48 95q0 43 -32.5 75.5t-102.5 60.5l-190 77q-125 51 -177 111t-52 166q0 83 60.5 165t179.5 142q-80 74 -80 181q0 137 96.5 213.5t270.5 76.5h393l-37 -160h-353q-92 0 -143.5 -32t-51.5 -92q0 -79 133 -137l170 -72
q132 -56 190 -118.5t60 -171.5q0 -81 -56.5 -160t-170.5 -140q71 -74 71 -182q1 -54 -21.5 -105.5t-64.5 -94t-110.5 -68t-151.5 -24.5h-415zM808 631q0 56 -43 93q-41 38 -144 82l-159 67q-100 -42 -140 -96q-41 -55 -41 -98q0 -53 30 -87.5t103 -63.5l216 -88
q178 76 178 191z" />
    <glyph glyph-name="dieresis" unicode="&#xa8;" horiz-adv-x="696" 
d="M212 1208l44 198h188l-44 -198h-188zM591 1208l44 198h188l-44 -198h-188z" />
    <glyph glyph-name="copyright" unicode="&#xa9;" horiz-adv-x="1833" 
d="M143 717q0 216 108 399q108 184 291 292q184 108 400 108t400 -108q184 -106 291 -291q108 -184 108 -400q0 -215 -108 -400q-108 -183 -292 -291q-183 -108 -399 -108t-400 108q-183 108 -291 291q-108 185 -108 400zM1603 717q0 179 -89 333q-88 152 -241 243
q-151 90 -331 90t-331 -90q-153 -91 -241 -243q-89 -154 -89 -333t89 -333q88 -152 241 -243q151 -90 331 -90t331 90q153 91 241 243q89 154 89 333zM584 725q0 190 99 297.5t265 107.5q145 0 229.5 -70.5t94.5 -200.5h-146q-10 64 -56.5 103t-115.5 39h-14
q-95 0 -151.5 -77.5t-56.5 -198.5q0 -120 56 -196t152 -76h14q72 0 118.5 37.5t56.5 103.5h147q-12 -129 -98.5 -200t-229.5 -71q-164 0 -264 105t-100 297z" />
    <glyph glyph-name="ordfeminine" unicode="&#xaa;" horiz-adv-x="803" 
d="M206 1085q-1 92 36 175.5t104.5 134.5t147.5 49q64 0 113 -33t65 -81l21 104h140l-123 -584h-139l15 71q-27 -36 -74.5 -58.5t-96.5 -22.5q-99 0 -155 68q-54 69 -54 177zM634 1180q0 67 -33 107.5t-90 40.5q-72 0 -118.5 -67t-46.5 -159q0 -69 29 -108.5t87 -39.5
q76 0 124 68.5t48 157.5z" />
    <glyph glyph-name="guillemotleft" unicode="&#xab;" horiz-adv-x="1103" 
d="M686 1024l-409 -461l194 -420h-190l-203 441l389 440h219zM1116 1024l-409 -461l194 -420h-190l-203 441l389 440h219z" />
    <glyph glyph-name="logicalnot" unicode="&#xac;" horiz-adv-x="1297" 
d="M918 259v291h-758v160h938v-451h-180z" />
    <glyph glyph-name="uni00AD" unicode="&#xad;" horiz-adv-x="819" 
d="M126 543l33 153h539l-32 -153h-540z" />
    <glyph glyph-name="registered" unicode="&#xae;" horiz-adv-x="1833" 
d="M143 717q0 216 108 399q108 184 291 292q184 108 400 108t400 -108q184 -106 291 -291q108 -184 108 -400q0 -215 -108 -400q-108 -183 -292 -291q-183 -108 -399 -108t-400 108q-183 108 -291 291q-108 185 -108 400zM1603 717q0 179 -89 333q-88 152 -241 243
q-151 90 -331 90t-331 -90q-153 -91 -241 -243q-89 -154 -89 -333t89 -333q88 -152 241 -243q151 -90 331 -90t331 90q153 91 241 243q89 154 89 333zM670 343v770h344q116 0 183.5 -59t67.5 -153q0 -79 -44 -130t-117 -64q80 -1 115.5 -31t35.5 -103v-230h-144v199
q0 48 -25 70.5t-79 22.5h-193v-292h-144zM814 756h150q75 0 116 30t41 88q0 59 -38 84.5t-120 25.5h-149v-228z" />
    <glyph glyph-name="macron" unicode="&#xaf;" horiz-adv-x="708" 
d="M210 1208l30 140h584l-30 -140h-584z" />
    <glyph glyph-name="degree" unicode="&#xb0;" horiz-adv-x="947" 
d="M191 1075q-3 157 109 269t270 110q158 2 270 -110t109 -269q3 -157 -109 -269t-270 -110q-158 -2 -270 110t-109 269zM785 1075q0 92 -63.5 159t-151.5 67t-151.5 -67t-63.5 -159t63.5 -159t151.5 -67t151.5 67t63.5 159z" />
    <glyph glyph-name="plusminus" unicode="&#xb1;" horiz-adv-x="1328" 
d="M541 321v266h-417v161h417v276h177v-276h417v-161h-417v-266h-177zM124 0v160h1011v-160h-1011z" />
    <glyph glyph-name="twosuperior" unicode="&#xb2;" horiz-adv-x="763" 
d="M623 1131l-242 -155h400l-26 -126h-588l30 147l303 200l24 16q56 37 87 63q78 64 78 139q0 56 -37.5 92.5t-103.5 36.5h-7q-63 0 -110 -36q-45 -35 -50 -89h-145q6 103 95.5 176.5t223.5 73.5q117 0 197.5 -67.5t80.5 -174.5q0 -95 -54 -163q-52 -67 -156 -133z" />
    <glyph glyph-name="threesuperior" unicode="&#xb3;" horiz-adv-x="734" 
d="M169 1068v11h144q1 -53 42 -86t102 -33h11q63 0 104.5 34t41.5 89q0 54 -36.5 85.5t-94.5 31.5h-86l26 124h95q70 0 113 33t43 90q0 49 -34.5 78t-86.5 29h-10q-57 0 -96 -31.5t-46 -82.5h-144q7 106 91 169t206 63q115 0 190 -58.5t75 -157.5q0 -82 -52 -137
q-51 -54 -133 -68q55 -23 87.5 -71t32.5 -107q0 -102 -87 -166.5t-213 -64.5q-122 0 -203.5 63.5t-81.5 162.5z" />
    <glyph glyph-name="acute" unicode="&#xb4;" horiz-adv-x="369" 
d="M199 1161l114 273h191l-182 -273h-123z" />
    <glyph glyph-name="mu" unicode="&#xb5;" horiz-adv-x="1252" 
d="M855 1024h174v-1024h-174v194q-34 -94 -121 -155q-86 -59 -212 -59q-100 0 -176 39v-429h-174v1434h174v-635q0 -263 219 -263h20q107 -2 190 96.5t80 248.5v553z" />
    <glyph glyph-name="paragraph" unicode="&#xb6;" horiz-adv-x="1332" 
d="M311 -410l220 1035q-166 16 -270 109.5t-104 251.5q-2 93 34 177t96.5 143.5t142 94t168.5 33.5h810l-32 -154h-136l-361 -1690h-168l361 1690h-232l-361 -1690h-168z" />
    <glyph glyph-name="periodcentered" unicode="&#xb7;" horiz-adv-x="489" 
d="M136 594l45 209h209l-45 -209h-209z" />
    <glyph glyph-name="cedilla" unicode="&#xb8;" horiz-adv-x="486" 
d="M-148 -474l27 126h141q48 0 77 25.5t29 69.5q0 30 -21.5 48.5t-59.5 18.5h-52l46 211h106l-25 -121q65 -10 100.5 -52.5t35.5 -105.5q0 -101 -70.5 -160.5t-173.5 -59.5h-160z" />
    <glyph glyph-name="onesuperior" unicode="&#xb9;" horiz-adv-x="546" 
d="M337 850l131 618l-278 -194l33 158l321 227h103l-172 -809h-138z" />
    <glyph glyph-name="ordmasculine" unicode="&#xba;" horiz-adv-x="758" 
d="M205 1091q-2 154 90 254.5t220 98.5q112 0 186.5 -65t74.5 -184q2 -154 -89.5 -255.5t-218.5 -99.5q-118 0 -190.5 67t-72.5 184zM636 1186q0 65 -32 104.5t-89 39.5q-49 2 -89 -34t-60 -88.5t-19 -107.5q0 -65 32.5 -105.5t90.5 -40.5q70 0 118 67t48 165z" />
    <glyph glyph-name="guillemotright" unicode="&#xbb;" horiz-adv-x="1100" 
d="M385 1024l203 -441l-389 -440h-219l409 461l-194 420h190zM815 1024l203 -441l-389 -440h-219l409 461l-194 420h190z" />
    <glyph glyph-name="onequarter" unicode="&#xbc;" horiz-adv-x="1738" 
d="M219 0l1147 1434h170l-1147 -1434h-170zM311 625l131 618l-278 -194l33 158l321 227h103l-172 -809h-138zM1284 0l40 186h-381l26 125l464 498h160l-105 -504h116l-25 -119h-115l-40 -186h-140zM1109 305h238l71 337z" />
    <glyph glyph-name="onehalf" unicode="&#xbd;" horiz-adv-x="1849" 
d="M197 0l1147 1434h170l-1147 -1434h-170zM311 625l131 618l-278 -194l33 158l321 227h103l-172 -809h-138zM1522 281l-242 -155h400l-26 -126h-588l30 147l303 200l24 16q55 37 87 63q78 64 78 139q0 56 -37.5 92.5t-103.5 36.5h-7q-63 0 -110 -36q-45 -35 -50 -89h-145
q6 103 95.5 176.5t223.5 73.5q117 0 197.5 -67.5t80.5 -174.5q0 -95 -54 -163q-52 -67 -156 -133z" />
    <glyph glyph-name="threequarters" unicode="&#xbe;" horiz-adv-x="1880" 
d="M362 0l1147 1434h170l-1147 -1434h-170zM135 843v11h144q1 -53 42 -86t102 -33h11q63 0 104.5 34t41.5 89q0 54 -36.5 85.5t-94.5 31.5h-86l26 124h95q70 0 113 33t43 90q0 49 -34.5 78t-86.5 29h-10q-57 0 -96 -31.5t-46 -82.5h-144q7 106 91 169t206 63
q115 0 190 -58.5t75 -157.5q0 -82 -52 -137q-51 -54 -133 -68q55 -23 87.5 -71t32.5 -107q0 -102 -87 -166.5t-213 -64.5q-122 0 -203.5 63.5t-81.5 162.5zM1429 0l40 186h-381l26 125l464 498h160l-105 -504h116l-25 -119h-115l-40 -186h-140zM1254 305h238l71 337z" />
    <glyph glyph-name="questiondown" unicode="&#xbf;" horiz-adv-x="934" 
d="M795 1024l-47 -222h-222l47 222h222zM688 611l-55 -251q-24 -96 -82 -137t-162 -41h-22q-116 0 -184 -66t-68 -164q0 -101 62 -147.5t190 -46.5h323l-36 -168h-310q-191 0 -300 92.5t-109 256.5q-2 111 56.5 205.5t158.5 147.5t216 51q80 0 98 79l44 189h180z" />
    <glyph glyph-name="Agrave" unicode="&#xc0;" horiz-adv-x="1394" 
d="M1073 0l-67 378h-702l-228 -378h-192l873 1434h239l255 -1434h-178zM405 545h572l-130 732zM834 1560l-182 263h218l101 -263h-137z" />
    <glyph glyph-name="Aacute" unicode="&#xc1;" horiz-adv-x="1394" 
d="M1073 0l-67 378h-702l-228 -378h-192l873 1434h239l255 -1434h-178zM405 545h572l-130 732zM835 1560l101 263h218l-182 -263h-137z" />
    <glyph glyph-name="Acircumflex" unicode="&#xc2;" horiz-adv-x="1394" 
d="M1073 0l-67 378h-702l-228 -378h-192l873 1434h239l255 -1434h-178zM405 545h572l-130 732zM1247 1560h-129l-187 132l-245 -132h-154l301 263h222z" />
    <glyph glyph-name="Atilde" unicode="&#xc3;" horiz-adv-x="1394" 
d="M1073 0l-67 378h-702l-228 -378h-192l873 1434h239l255 -1434h-178zM405 545h572l-130 732zM929 1598l-56 34l-26 16q-35 23 -63 23q-64 0 -84 -101h-140l6 29q48 220 216 220q39 0 69.5 -12t80.5 -42l54 -34q57 -35 83 -35q68 0 88 101h140l-7 -31q-42 -216 -213 -216
q-69 0 -148 48z" />
    <glyph glyph-name="Adieresis" unicode="&#xc4;" horiz-adv-x="1394" 
d="M1073 0l-67 378h-702l-228 -378h-192l873 1434h239l255 -1434h-178zM405 545h572l-130 732zM619 1597l40 192h195l-40 -192h-195zM1009 1597l41 192h195l-40 -192h-196z" />
    <glyph glyph-name="Aring" unicode="&#xc5;" horiz-adv-x="1394" 
d="M1073 0l-67 378h-702l-228 -378h-192l873 1434h239l255 -1434h-178zM405 545h572l-130 732zM744 1720q0 74 52.5 125.5t123.5 51.5t124 -51.5t53 -125.5t-53 -125t-124 -51t-123.5 51t-52.5 125zM990 1720q0 28 -20 49t-48 21q-27 0 -48 -21t-21 -49t21 -48.5t48 -20.5
q28 0 48 20.5t20 48.5z" />
    <glyph glyph-name="AE" unicode="&#xc6;" horiz-adv-x="2038" 
d="M-130 0l1157 1434h991l-36 -168h-712l-34 -445h623l-36 -167h-599l-37 -487h717l-36 -167h-864l30 378h-646l-299 -378h-219zM520 545h528l60 745z" />
    <glyph glyph-name="Ccedilla" unicode="&#xc7;" horiz-adv-x="1452" 
d="M1165 446h185q-38 -214 -200 -339.5t-406 -126.5l-16 -76q65 -10 100.5 -52.5t35.5 -105.5q0 -101 -70.5 -160.5t-173.5 -59.5h-160l27 126h141q48 0 77 25.5t29 69.5q0 30 -21.5 48.5t-59.5 18.5h-52l37 172q-232 26 -374 189t-140 405q0 239 92 440q94 201 265 317
q173 117 404 117q144 1 261 -55.5t186.5 -164t72.5 -247.5h-184q-2 136 -96.5 218t-250.5 82h-20q-148 0 -273 -89q-126 -90 -199 -244q-73 -155 -73 -350q0 -213 113.5 -335t320.5 -122h20q94 -1 178.5 31.5t146.5 102t77 165.5z" />
    <glyph glyph-name="Egrave" unicode="&#xc8;" horiz-adv-x="1328" 
d="M64 0l305 1434h1031l-35 -168h-847l-95 -445h724l-36 -167h-723l-104 -487h867l-36 -167h-1051zM841 1560l-182 263h218l101 -263h-137z" />
    <glyph glyph-name="Eacute" unicode="&#xc9;" horiz-adv-x="1328" 
d="M64 0l305 1434h1031l-35 -168h-847l-95 -445h724l-36 -167h-723l-104 -487h867l-36 -167h-1051zM842 1560l101 263h218l-182 -263h-137z" />
    <glyph glyph-name="Ecircumflex" unicode="&#xca;" horiz-adv-x="1328" 
d="M64 0l305 1434h1031l-35 -168h-847l-95 -445h724l-36 -167h-723l-104 -487h867l-36 -167h-1051zM1254 1560h-129l-187 132l-245 -132h-154l301 263h222z" />
    <glyph glyph-name="Edieresis" unicode="&#xcb;" horiz-adv-x="1328" 
d="M64 0l305 1434h1031l-35 -168h-847l-95 -445h724l-36 -167h-723l-104 -487h867l-36 -167h-1051zM625 1597l40 192h195l-40 -192h-195zM1015 1597l41 192h195l-40 -192h-196z" />
    <glyph glyph-name="Igrave" unicode="&#xcc;" horiz-adv-x="567" 
d="M64 0l305 1434h185l-306 -1434h-184zM419 1560l-182 263h218l101 -263h-137z" />
    <glyph glyph-name="Iacute" unicode="&#xcd;" horiz-adv-x="567" 
d="M64 0l305 1434h185l-306 -1434h-184zM420 1560l101 263h218l-182 -263h-137z" />
    <glyph glyph-name="Icircumflex" unicode="&#xce;" horiz-adv-x="567" 
d="M64 0l305 1434h185l-306 -1434h-184zM829 1560h-129l-187 132l-245 -132h-154l301 263h222z" />
    <glyph glyph-name="Idieresis" unicode="&#xcf;" horiz-adv-x="567" 
d="M64 0l305 1434h185l-306 -1434h-184zM196 1597l40 192h195l-40 -192h-195zM586 1597l41 192h195l-40 -192h-196z" />
    <glyph glyph-name="Eth" unicode="&#xd0;" horiz-adv-x="1493" 
d="M1421 844q0 -208 -86 -404q-86 -195 -248 -317q-163 -123 -384 -123h-610l135 635h-180l36 163h179l135 636h386q239 0 382 -86q142 -85 198 -218q57 -132 57 -286zM1237 840q0 205 -116.5 315.5t-335.5 110.5h-239l-98 -468h303l-37 -163h-300l-98 -468h379
q175 0 296 96q123 96 184 250q62 156 62 327z" />
    <glyph glyph-name="Ntilde" unicode="&#xd1;" horiz-adv-x="1526" 
d="M1328 1434h185l-305 -1434h-250l-447 1236l-263 -1236h-184l305 1434h253l445 -1230zM995 1598l-56 34l-26 16q-35 23 -63 23q-64 0 -84 -101h-140l6 29q48 220 216 220q39 0 69.5 -12t80.5 -42l54 -34q57 -35 83 -35q68 0 88 101h140l-7 -31q-42 -216 -213 -216
q-69 0 -148 48z" />
    <glyph glyph-name="Ograve" unicode="&#xd2;" horiz-adv-x="1559" 
d="M124 595q0 235 95 433q95 197 266 311q172 115 394 115q175 2 313.5 -76.5t215.5 -222t75 -324.5q0 -230 -92 -426q-93 -196 -263 -310q-172 -115 -402 -115q-172 -2 -310 74.5t-216 218.5t-76 322zM732 147h20q159 0 284 89q123 87 193 241q69 151 69 335
q2 208 -118.5 343t-305.5 132h-21q-157 3 -283.5 -89.5t-194.5 -247.5t-66 -338q-2 -208 116 -337.5t307 -127.5zM874 1560l-182 263h218l101 -263h-137z" />
    <glyph glyph-name="Oacute" unicode="&#xd3;" horiz-adv-x="1559" 
d="M124 595q0 235 95 433q95 197 266 311q172 115 394 115q175 2 313.5 -76.5t215.5 -222t75 -324.5q0 -230 -92 -426q-93 -196 -263 -310q-172 -115 -402 -115q-172 -2 -310 74.5t-216 218.5t-76 322zM732 147h20q159 0 284 89q123 87 193 241q69 151 69 335
q2 208 -118.5 343t-305.5 132h-21q-157 3 -283.5 -89.5t-194.5 -247.5t-66 -338q-2 -208 116 -337.5t307 -127.5zM876 1560l101 263h218l-182 -263h-137z" />
    <glyph glyph-name="Ocircumflex" unicode="&#xd4;" horiz-adv-x="1559" 
d="M124 595q0 235 95 433q95 197 266 311q172 115 394 115q175 2 313.5 -76.5t215.5 -222t75 -324.5q0 -230 -92 -426q-93 -196 -263 -310q-172 -115 -402 -115q-172 -2 -310 74.5t-216 218.5t-76 322zM732 147h20q159 0 284 89q123 87 193 241q69 151 69 335
q2 208 -118.5 343t-305.5 132h-21q-157 3 -283.5 -89.5t-194.5 -247.5t-66 -338q-2 -208 116 -337.5t307 -127.5zM1287 1560h-129l-187 132l-245 -132h-154l301 263h222z" />
    <glyph glyph-name="Otilde" unicode="&#xd5;" horiz-adv-x="1559" 
d="M124 595q0 235 95 433q95 197 266 311q172 115 394 115q175 2 313.5 -76.5t215.5 -222t75 -324.5q0 -230 -92 -426q-93 -196 -263 -310q-172 -115 -402 -115q-172 -2 -310 74.5t-216 218.5t-76 322zM732 147h20q159 0 284 89q123 87 193 241q69 151 69 335
q2 208 -118.5 343t-305.5 132h-21q-157 3 -283.5 -89.5t-194.5 -247.5t-66 -338q-2 -208 116 -337.5t307 -127.5zM970 1598l-56 34l-26 16q-34 23 -63 23q-64 0 -84 -101h-140l6 29q48 220 216 220q39 0 69.5 -12t80.5 -42l54 -34q57 -35 83 -35q68 0 88 101h140l-7 -31
q-42 -216 -213 -216q-69 0 -148 48z" />
    <glyph glyph-name="Odieresis" unicode="&#xd6;" horiz-adv-x="1559" 
d="M124 595q0 235 95 433q95 197 266 311q172 115 394 115q175 2 313.5 -76.5t215.5 -222t75 -324.5q0 -230 -92 -426q-93 -196 -263 -310q-172 -115 -402 -115q-172 -2 -310 74.5t-216 218.5t-76 322zM732 147h20q159 0 284 89q123 87 193 241q69 151 69 335
q2 208 -118.5 343t-305.5 132h-21q-157 3 -283.5 -89.5t-194.5 -247.5t-66 -338q-2 -208 116 -337.5t307 -127.5zM659 1597l40 192h195l-40 -192h-195zM1049 1597l41 192h195l-40 -192h-196z" />
    <glyph glyph-name="multiply" unicode="&#xd7;" horiz-adv-x="1147" 
d="M236 91l-117 117l321 320l-321 321l117 116l321 -320l320 320l117 -116l-320 -321l320 -320l-117 -117l-320 321z" />
    <glyph glyph-name="Oslash" unicode="&#xd8;" horiz-adv-x="1563" 
d="M1586 1323l-177 -164q77 -143 77 -328q0 -230 -92 -426q-93 -196 -263 -310q-172 -115 -402 -115q-259 0 -425 160l-164 -152l-112 121l176 163q-77 142 -77 323q0 235 95 433q95 197 266 311q172 115 394 115q260 0 427 -162l165 152zM348 404l825 762
q-118 121 -296 121h-21q-157 3 -283.5 -89.5t-194.5 -247.5t-66 -338q0 -114 36 -208zM1263 1025l-825 -762q113 -116 297 -116h20q159 0 284 89q123 87 193 241q69 151 69 335q0 116 -38 213z" />
    <glyph glyph-name="Ugrave" unicode="&#xd9;" horiz-adv-x="1430" 
d="M154 415q0 84 19 173l180 846h184l-184 -865q-17 -82 -17 -142q0 -134 72 -206.5t212 -73.5h20q330 0 408 357l199 930h184l-209 -977q-49 -233 -203 -355t-407 -122q-215 0 -336.5 114.5t-121.5 320.5zM830 1560l-182 263h218l101 -263h-137z" />
    <glyph glyph-name="Uacute" unicode="&#xda;" horiz-adv-x="1430" 
d="M154 415q0 84 19 173l180 846h184l-184 -865q-17 -82 -17 -142q0 -134 72 -206.5t212 -73.5h20q330 0 408 357l199 930h184l-209 -977q-49 -233 -203 -355t-407 -122q-215 0 -336.5 114.5t-121.5 320.5zM831 1560l101 263h218l-182 -263h-137z" />
    <glyph glyph-name="Ucircumflex" unicode="&#xdb;" horiz-adv-x="1430" 
d="M154 415q0 84 19 173l180 846h184l-184 -865q-17 -82 -17 -142q0 -134 72 -206.5t212 -73.5h20q330 0 408 357l199 930h184l-209 -977q-49 -233 -203 -355t-407 -122q-215 0 -336.5 114.5t-121.5 320.5zM1243 1560h-129l-187 132l-245 -132h-154l301 263h222z" />
    <glyph glyph-name="Udieresis" unicode="&#xdc;" horiz-adv-x="1430" 
d="M154 415q0 84 19 173l180 846h184l-184 -865q-17 -82 -17 -142q0 -134 72 -206.5t212 -73.5h20q330 0 408 357l199 930h184l-209 -977q-49 -233 -203 -355t-407 -122q-215 0 -336.5 114.5t-121.5 320.5zM615 1597l40 192h195l-40 -192h-195zM1005 1597l41 192h195
l-40 -192h-196z" />
    <glyph glyph-name="Yacute" unicode="&#xdd;" horiz-adv-x="1279" 
d="M1449 1434l-720 -847l-126 -587h-184l126 591l-363 843h202l284 -666l553 666h228zM762 1560l101 263h218l-182 -263h-137z" />
    <glyph glyph-name="Thorn" unicode="&#xde;" horiz-adv-x="1320" 
d="M64 0l305 1434h185l-62 -291h313q196 3 321 -110t123 -279q2 -200 -130.5 -332.5t-345.5 -130.5h-463l-62 -291h-184zM347 458h422q129 0 211.5 76.5t82.5 203.5q0 106 -77.5 172t-224.5 66h-306z" />
    <glyph glyph-name="germandbls" unicode="&#xdf;" horiz-adv-x="1132" 
d="M-51 -379l309 1454q37 179 155 279q116 100 292 100q164 2 272.5 -96.5t106.5 -247.5q2 -73 -27 -140t-75 -112.5t-98 -74.5t-98 -35q84 -23 146 -108.5t62 -209.5q2 -118 -56 -217t-164 -157t-236 -56h-184l34 157h124q141 0 223 81.5t82 203.5q0 107 -64 175t-168 68
h-81l31 146h101q110 -3 191.5 83.5t79.5 188.5q0 96 -54.5 151t-147.5 55q-106 0 -177.5 -69t-100.5 -202l-301 -1417h-177z" />
    <glyph glyph-name="agrave" unicode="&#xe0;" horiz-adv-x="1222" 
d="M75 422q-2 179 67 323.5t186.5 222.5t256.5 76q124 0 221 -62.5t133 -154.5l42 197h174l-217 -1024h-169l28 132q-123 -152 -323 -152q-170 -2 -286 120t-113 322zM493 126h19q79 -2 149 37.5t117.5 106t74.5 152.5t26 175q0 132 -74 216.5t-187 84.5h-19
q-66 1 -129.5 -32t-113 -92t-79 -147t-28.5 -190q0 -136 67 -223.5t177 -87.5zM642 1161l-183 273h191l114 -273h-122z" />
    <glyph glyph-name="aacute" unicode="&#xe1;" horiz-adv-x="1222" 
d="M75 422q-2 179 67 323.5t186.5 222.5t256.5 76q124 0 221 -62.5t133 -154.5l42 197h174l-217 -1024h-169l28 132q-123 -152 -323 -152q-170 -2 -286 120t-113 322zM493 126h19q79 -2 149 37.5t117.5 106t74.5 152.5t26 175q0 132 -74 216.5t-187 84.5h-19
q-66 1 -129.5 -32t-113 -92t-79 -147t-28.5 -190q0 -136 67 -223.5t177 -87.5zM637 1161l114 273h191l-182 -273h-123z" />
    <glyph glyph-name="acircumflex" unicode="&#xe2;" horiz-adv-x="1222" 
d="M75 422q-2 179 67 323.5t186.5 222.5t256.5 76q124 0 221 -62.5t133 -154.5l42 197h174l-217 -1024h-169l28 132q-123 -152 -323 -152q-170 -2 -286 120t-113 322zM493 126h19q79 -2 149 37.5t117.5 106t74.5 152.5t26 175q0 132 -74 216.5t-187 84.5h-19
q-66 1 -129.5 -32t-113 -92t-79 -147t-28.5 -190q0 -136 67 -223.5t177 -87.5zM992 1161h-137l-149 129l-202 -129h-137l290 273h141z" />
    <glyph glyph-name="atilde" unicode="&#xe3;" horiz-adv-x="1222" 
d="M75 422q-2 179 67 323.5t186.5 222.5t256.5 76q124 0 221 -62.5t133 -154.5l42 197h174l-217 -1024h-169l28 132q-123 -152 -323 -152q-170 -2 -286 120t-113 322zM493 126h19q79 -2 149 37.5t117.5 106t74.5 152.5t26 175q0 132 -74 216.5t-187 84.5h-19
q-66 1 -129.5 -32t-113 -92t-79 -147t-28.5 -190q0 -136 67 -223.5t177 -87.5zM711 1201l-65 40q-48 29 -64 35q-18 9 -39 9q-35 0 -53 -26t-33 -98h-130l9 40q40 210 199 210q37 0 68.5 -11.5t84.5 -42.5l65 -39l30 -18q46 -24 71 -24q38 0 57.5 27.5t32.5 95.5h130l-8 -39
q-44 -210 -202 -210q-65 0 -153 51z" />
    <glyph glyph-name="adieresis" unicode="&#xe4;" horiz-adv-x="1222" 
d="M75 422q-2 179 67 323.5t186.5 222.5t256.5 76q124 0 221 -62.5t133 -154.5l42 197h174l-217 -1024h-169l28 132q-123 -152 -323 -152q-170 -2 -286 120t-113 322zM493 126h19q79 -2 149 37.5t117.5 106t74.5 152.5t26 175q0 132 -74 216.5t-187 84.5h-19
q-66 1 -129.5 -32t-113 -92t-79 -147t-28.5 -190q0 -136 67 -223.5t177 -87.5zM405 1208l44 198h188l-44 -198h-188zM784 1208l44 198h188l-44 -198h-188z" />
    <glyph glyph-name="aring" unicode="&#xe5;" horiz-adv-x="1222" 
d="M75 422q-2 179 67 323.5t186.5 222.5t256.5 76q124 0 221 -62.5t133 -154.5l42 197h174l-217 -1024h-169l28 132q-123 -152 -323 -152q-170 -2 -286 120t-113 322zM493 126h19q79 -2 149 37.5t117.5 106t74.5 152.5t26 175q0 132 -74 216.5t-187 84.5h-19
q-66 1 -129.5 -32t-113 -92t-79 -147t-28.5 -190q0 -136 67 -223.5t177 -87.5zM541 1326q0 78 56 132.5t131 54.5t131 -54.5t56 -132.5t-56 -132.5t-131 -54.5t-131 54.5t-56 132.5zM818 1326q0 38 -25.5 64.5t-62.5 26.5t-63.5 -27t-26.5 -64t26.5 -63.5t63.5 -26.5
t62.5 26.5t25.5 63.5z" />
    <glyph glyph-name="ae" unicode="&#xe6;" horiz-adv-x="1791" 
d="M33 277q-3 154 121.5 250t315.5 94h294q12 74 12 92q0 81 -59.5 133t-153.5 52h-20q-83 0 -148.5 -46.5t-81.5 -121.5h-174q19 138 140 227t293 87q113 0 198 -45.5t127 -126.5q153 172 390 172q170 2 283 -105.5t111 -287.5q0 -62 -23 -163h-745q-1 -8 -1 -35
q0 -148 80 -237.5t208 -89.5h11q93 0 161 46.5t98 127.5h175q-44 -151 -162 -235.5t-298 -84.5q-138 0 -241 64t-154 181q-129 -245 -415 -245q-142 -2 -243 82.5t-99 214.5zM937 628h573q3 17 3 55q0 100 -64.5 157.5t-176.5 57.5h-19q-112 0 -197 -74q-83 -74 -119 -196z
M394 126h8q114 0 203 76t114 201l16 78h-265q-122 0 -194.5 -54t-72.5 -142q0 -73 54 -116q55 -43 137 -43z" />
    <glyph glyph-name="ccedilla" unicode="&#xe7;" horiz-adv-x="1116" 
d="M815 335h174q-34 -160 -158.5 -256t-292.5 -99l-16 -76q65 -10 100.5 -52.5t35.5 -105.5q0 -101 -70.5 -160.5t-173.5 -59.5h-160l27 126h141q48 0 77 25.5t29 69.5q0 30 -21.5 48.5t-59.5 18.5h-52l38 173q-164 28 -261.5 142.5t-97.5 294.5q-2 182 73.5 326t203 220
t278.5 74q176 0 288 -98t112 -257h-174q0 100 -63 154.5t-169 54.5h-19q-98 2 -180.5 -58.5t-130 -168t-45.5 -234.5q0 -143 75 -227t205 -84h19q97 0 169 57q72 59 99 152z" />
    <glyph glyph-name="egrave" unicode="&#xe8;" horiz-adv-x="1121" 
d="M75 453q-2 164 70 301t197.5 214.5t274.5 75.5q170 2 283 -105.5t111 -287.5q0 -67 -22 -163h-746q-1 -8 -1 -35q0 -146 78.5 -236.5t199.5 -90.5h19q94 1 163 47t99 127h174q-44 -151 -162 -235.5t-298 -84.5q-195 -2 -318.5 128.5t-121.5 344.5zM268 628h572q4 20 4 55
q0 99 -63 157t-172 58h-19q-115 0 -200 -73q-87 -74 -122 -197zM597 1161l-183 273h191l114 -273h-122z" />
    <glyph glyph-name="eacute" unicode="&#xe9;" horiz-adv-x="1121" 
d="M75 453q-2 164 70 301t197.5 214.5t274.5 75.5q170 2 283 -105.5t111 -287.5q0 -67 -22 -163h-746q-1 -8 -1 -35q0 -146 78.5 -236.5t199.5 -90.5h19q94 1 163 47t99 127h174q-44 -151 -162 -235.5t-298 -84.5q-195 -2 -318.5 128.5t-121.5 344.5zM268 628h572q4 20 4 55
q0 99 -63 157t-172 58h-19q-115 0 -200 -73q-87 -74 -122 -197zM592 1161l114 273h191l-182 -273h-123z" />
    <glyph glyph-name="ecircumflex" unicode="&#xea;" horiz-adv-x="1121" 
d="M75 453q-2 164 70 301t197.5 214.5t274.5 75.5q170 2 283 -105.5t111 -287.5q0 -67 -22 -163h-746q-1 -8 -1 -35q0 -146 78.5 -236.5t199.5 -90.5h19q94 1 163 47t99 127h174q-44 -151 -162 -235.5t-298 -84.5q-195 -2 -318.5 128.5t-121.5 344.5zM268 628h572q4 20 4 55
q0 99 -63 157t-172 58h-19q-115 0 -200 -73q-87 -74 -122 -197zM947 1161h-137l-149 129l-202 -129h-137l290 273h141z" />
    <glyph glyph-name="edieresis" unicode="&#xeb;" horiz-adv-x="1121" 
d="M75 453q-2 164 70 301t197.5 214.5t274.5 75.5q170 2 283 -105.5t111 -287.5q0 -67 -22 -163h-746q-1 -8 -1 -35q0 -146 78.5 -236.5t199.5 -90.5h19q94 1 163 47t99 127h174q-44 -151 -162 -235.5t-298 -84.5q-195 -2 -318.5 128.5t-121.5 344.5zM268 628h572q4 20 4 55
q0 99 -63 157t-172 58h-19q-115 0 -200 -73q-87 -74 -122 -197zM359 1208l44 198h188l-44 -198h-188zM738 1208l44 198h188l-44 -198h-188z" />
    <glyph glyph-name="igrave" unicode="&#xec;" horiz-adv-x="489" 
d="M31 0l217 1024h174l-217 -1024h-174zM309 1161l-183 273h191l114 -273h-122z" />
    <glyph glyph-name="iacute" unicode="&#xed;" horiz-adv-x="489" 
d="M31 0l217 1024h174l-217 -1024h-174zM303 1161l114 273h191l-182 -273h-123z" />
    <glyph glyph-name="icircumflex" unicode="&#xee;" horiz-adv-x="489" 
d="M31 0l217 1024h174l-217 -1024h-174zM676 1161h-137l-149 129l-202 -129h-137l290 273h141z" />
    <glyph glyph-name="idieresis" unicode="&#xef;" horiz-adv-x="489" 
d="M31 0l217 1024h174l-217 -1024h-174zM91 1208l44 198h188l-44 -198h-188zM470 1208l44 198h188l-44 -198h-188z" />
    <glyph glyph-name="eth" unicode="&#xf0;" horiz-adv-x="1177" 
d="M68 425q0 147 67 272t182 201q115 75 251 75q114 0 209 -53t138 -137q5 42 5 68q0 190 -97 312l-157 -99l-79 111l127 79q-92 54 -209 57l30 142q196 -6 327 -106l160 100l78 -110l-141 -88q124 -170 124 -441q1 -209 -62 -401q-63 -190 -195 -308q-133 -119 -327 -119
q-197 -2 -315 126.5t-116 318.5zM865 524q2 134 -82 219t-203 83q-138 3 -239.5 -112.5t-99.5 -278.5q0 -142 75 -225.5t193 -83.5q93 -2 177 54.5t132.5 150t46.5 193.5z" />
    <glyph glyph-name="ntilde" unicode="&#xf1;" horiz-adv-x="1161" 
d="M1032 729q0 -57 -13 -119l-129 -610h-175l132 614q8 56 8 86q0 91 -48.5 144.5t-132.5 53.5h-19q-119 0 -210.5 -94.5t-127.5 -271.5l-112 -532h-174l217 1024h174l-30 -144q57 79 141 121.5t182 42.5q134 2 226.5 -89.5t90.5 -225.5zM743 1201l-65 40q-48 29 -64 35
q-18 9 -39 9q-35 0 -53 -26t-33 -98h-130l9 40q40 210 199 210q37 0 68.5 -11.5t84.5 -42.5l65 -39l30 -18q46 -24 71 -24q38 0 57.5 27.5t32.5 95.5h130l-8 -39q-44 -210 -202 -210q-65 0 -153 51z" />
    <glyph glyph-name="ograve" unicode="&#xf2;" horiz-adv-x="1170" 
d="M74 444q-3 163 70 302.5t198.5 220t271.5 77.5q209 0 327.5 -126.5t118.5 -337.5q2 -165 -70.5 -304.5t-197.5 -219t-272 -76.5q-207 0 -326.5 126.5t-119.5 337.5zM518 126h19q64 -2 126.5 30.5t112.5 89.5t80.5 143t29.5 184q0 142 -73 233.5t-198 91.5h-19
q-64 1 -126.5 -31t-112.5 -89t-80.5 -143t-28.5 -184q0 -141 72.5 -233t197.5 -92zM625 1161l-183 273h191l114 -273h-122z" />
    <glyph glyph-name="oacute" unicode="&#xf3;" horiz-adv-x="1170" 
d="M74 444q-3 163 70 302.5t198.5 220t271.5 77.5q209 0 327.5 -126.5t118.5 -337.5q2 -165 -70.5 -304.5t-197.5 -219t-272 -76.5q-207 0 -326.5 126.5t-119.5 337.5zM518 126h19q64 -2 126.5 30.5t112.5 89.5t80.5 143t29.5 184q0 142 -73 233.5t-198 91.5h-19
q-64 1 -126.5 -31t-112.5 -89t-80.5 -143t-28.5 -184q0 -141 72.5 -233t197.5 -92zM619 1161l114 273h191l-182 -273h-123z" />
    <glyph glyph-name="ocircumflex" unicode="&#xf4;" horiz-adv-x="1170" 
d="M74 444q-3 163 70 302.5t198.5 220t271.5 77.5q209 0 327.5 -126.5t118.5 -337.5q2 -165 -70.5 -304.5t-197.5 -219t-272 -76.5q-207 0 -326.5 126.5t-119.5 337.5zM518 126h19q64 -2 126.5 30.5t112.5 89.5t80.5 143t29.5 184q0 142 -73 233.5t-198 91.5h-19
q-64 1 -126.5 -31t-112.5 -89t-80.5 -143t-28.5 -184q0 -141 72.5 -233t197.5 -92zM974 1161h-137l-149 129l-202 -129h-137l290 273h141z" />
    <glyph glyph-name="otilde" unicode="&#xf5;" horiz-adv-x="1170" 
d="M74 444q-3 163 70 302.5t198.5 220t271.5 77.5q209 0 327.5 -126.5t118.5 -337.5q2 -165 -70.5 -304.5t-197.5 -219t-272 -76.5q-207 0 -326.5 126.5t-119.5 337.5zM518 126h19q64 -2 126.5 30.5t112.5 89.5t80.5 143t29.5 184q0 142 -73 233.5t-198 91.5h-19
q-64 1 -126.5 -31t-112.5 -89t-80.5 -143t-28.5 -184q0 -141 72.5 -233t197.5 -92zM694 1201l-65 40q-48 29 -64 35q-18 9 -39 9q-35 0 -53 -26t-33 -98h-130l9 40q40 210 199 210q37 0 68.5 -11.5t84.5 -42.5l65 -39l30 -18q46 -24 71 -24q38 0 57.5 27.5t32.5 95.5h130
l-8 -39q-44 -210 -202 -210q-65 0 -153 51z" />
    <glyph glyph-name="odieresis" unicode="&#xf6;" horiz-adv-x="1170" 
d="M74 444q-3 163 70 302.5t198.5 220t271.5 77.5q209 0 327.5 -126.5t118.5 -337.5q2 -165 -70.5 -304.5t-197.5 -219t-272 -76.5q-207 0 -326.5 126.5t-119.5 337.5zM518 126h19q64 -2 126.5 30.5t112.5 89.5t80.5 143t29.5 184q0 142 -73 233.5t-198 91.5h-19
q-64 1 -126.5 -31t-112.5 -89t-80.5 -143t-28.5 -184q0 -141 72.5 -233t197.5 -92zM387 1208l44 198h188l-44 -198h-188zM766 1208l44 198h188l-44 -198h-188z" />
    <glyph glyph-name="divide" unicode="&#xf7;" horiz-adv-x="1278" 
d="M528 765v215h194v-215h-194zM118 447v161h1012v-161h-1012zM528 75v215h194v-215h-194z" />
    <glyph glyph-name="oslash" unicode="&#xf8;" horiz-adv-x="1174" 
d="M1148 969l-144 -136q58 -107 58 -253q2 -165 -70.5 -304.5t-197.5 -219t-272 -76.5q-190 0 -307 106l-135 -128l-89 104l141 133q-56 107 -56 249q-3 163 70 302.5t198.5 220t271.5 77.5q184 0 303 -102l128 121zM268 324l530 502q-72 72 -181 72h-19q-64 1 -126.5 -31
t-112.5 -89t-80.5 -143t-28.5 -184q0 -69 18 -127zM869 705l-532 -504q72 -75 183 -75h19q64 -2 126.5 30.5t112.5 89.5t80.5 143t29.5 184q0 71 -19 132z" />
    <glyph glyph-name="ugrave" unicode="&#xf9;" horiz-adv-x="1153" 
d="M912 1024h174l-217 -1024h-174l32 154q-117 -174 -317 -174q-140 0 -228.5 82.5t-88.5 233.5q0 51 13 116l130 612h174l-132 -623q-10 -43 -10 -79q0 -90 47.5 -143t127.5 -53h19q119 0 210.5 99.5t126.5 266.5zM635 1161l-183 273h191l114 -273h-122z" />
    <glyph glyph-name="uacute" unicode="&#xfa;" horiz-adv-x="1153" 
d="M912 1024h174l-217 -1024h-174l32 154q-117 -174 -317 -174q-140 0 -228.5 82.5t-88.5 233.5q0 51 13 116l130 612h174l-132 -623q-10 -43 -10 -79q0 -90 47.5 -143t127.5 -53h19q119 0 210.5 99.5t126.5 266.5zM629 1161l114 273h191l-182 -273h-123z" />
    <glyph glyph-name="ucircumflex" unicode="&#xfb;" horiz-adv-x="1153" 
d="M912 1024h174l-217 -1024h-174l32 154q-117 -174 -317 -174q-140 0 -228.5 82.5t-88.5 233.5q0 51 13 116l130 612h174l-132 -623q-10 -43 -10 -79q0 -90 47.5 -143t127.5 -53h19q119 0 210.5 99.5t126.5 266.5zM984 1161h-137l-149 129l-202 -129h-137l290 273h141z" />
    <glyph glyph-name="udieresis" unicode="&#xfc;" horiz-adv-x="1153" 
d="M912 1024h174l-217 -1024h-174l32 154q-117 -174 -317 -174q-140 0 -228.5 82.5t-88.5 233.5q0 51 13 116l130 612h174l-132 -623q-10 -43 -10 -79q0 -90 47.5 -143t127.5 -53h19q119 0 210.5 99.5t126.5 266.5zM397 1208l44 198h188l-44 -198h-188zM776 1208l44 198h188
l-44 -198h-188z" />
    <glyph glyph-name="yacute" unicode="&#xfd;" horiz-adv-x="1092" 
d="M1163 1024l-643 -988l-45 -209q-21 -95 -77 -143.5t-141 -48.5h-338l33 153h257q44 0 68 23t36 78l32 151l-213 984h181l161 -763l494 763h195zM596 1161l114 273h191l-182 -273h-123z" />
    <glyph glyph-name="thorn" unicode="&#xfe;" horiz-adv-x="1234" 
d="M-57 -410l393 1844h174l-118 -546q54 75 135.5 115.5t180.5 40.5q179 2 296.5 -126t115.5 -331q1 -130 -38 -244t-107.5 -194t-163 -125.5t-201.5 -43.5q-119 0 -219 56q-98 55 -145 157l-129 -603h-174zM584 129h21q88 -2 166.5 58t126 165.5t45.5 225.5
q0 142 -72 229.5t-189 87.5h-19q-102 2 -184.5 -65.5t-126 -176t-42.5 -230.5q0 -129 78 -211.5t196 -82.5z" />
    <glyph glyph-name="ydieresis" unicode="&#xff;" horiz-adv-x="1092" 
d="M1163 1024l-643 -988l-45 -209q-21 -95 -77 -143.5t-141 -48.5h-338l33 153h257q44 0 68 23t36 78l32 151l-213 984h181l161 -763l494 763h195zM364 1208l44 198h188l-44 -198h-188zM743 1208l44 198h188l-44 -198h-188z" />
    <glyph glyph-name="Amacron" unicode="&#x100;" horiz-adv-x="1394" 
d="M1073 0l-67 378h-702l-228 -378h-192l873 1434h239l255 -1434h-178zM405 545h572l-130 732zM612 1597l29 140h585l-30 -140h-584z" />
    <glyph glyph-name="amacron" unicode="&#x101;" horiz-adv-x="1222" 
d="M75 422q-2 179 67 323.5t186.5 222.5t256.5 76q124 0 221 -62.5t133 -154.5l42 197h174l-217 -1024h-169l28 132q-123 -152 -323 -152q-170 -2 -286 120t-113 322zM493 126h19q79 -2 149 37.5t117.5 106t74.5 152.5t26 175q0 132 -74 216.5t-187 84.5h-19
q-66 1 -129.5 -32t-113 -92t-79 -147t-28.5 -190q0 -136 67 -223.5t177 -87.5zM397 1208l30 140h584l-30 -140h-584z" />
    <glyph glyph-name="Abreve" unicode="&#x102;" horiz-adv-x="1394" 
d="M1073 0l-67 378h-702l-228 -378h-192l873 1434h239l255 -1434h-178zM405 545h572l-130 732zM645 1774q0 22 4 49h139q-2 -16 -2 -26q0 -59 38.5 -91.5t108.5 -32.5q72 0 124.5 39t72.5 111h139q-19 -137 -116 -211q-95 -73 -236 -73q-123 0 -197.5 65t-74.5 170z" />
    <glyph glyph-name="abreve" unicode="&#x103;" horiz-adv-x="1222" 
d="M75 422q-2 179 67 323.5t186.5 222.5t256.5 76q124 0 221 -62.5t133 -154.5l42 197h174l-217 -1024h-169l28 132q-123 -152 -323 -152q-170 -2 -286 120t-113 322zM493 126h19q79 -2 149 37.5t117.5 106t74.5 152.5t26 175q0 132 -74 216.5t-187 84.5h-19
q-66 1 -129.5 -32t-113 -92t-79 -147t-28.5 -190q0 -136 67 -223.5t177 -87.5zM443 1384q0 23 3 50h130q-3 -16 -3 -34q0 -66 39.5 -101.5t107.5 -35.5t119.5 43t77.5 128h130q-36 -142 -126 -218t-213 -76t-194 64t-71 180z" />
    <glyph glyph-name="Aogonek" unicode="&#x104;" horiz-adv-x="1394" 
d="M1042 -207q0 -42 23.5 -61t77.5 -19h73l-26 -126h-84q-197 0 -197 156q0 83 59 151q60 69 141 106h-36l-67 378h-702l-228 -378h-192l873 1434h239l255 -1434h-2q-89 -39 -148 -94q-59 -56 -59 -113zM405 545h572l-130 732z" />
    <glyph glyph-name="aogonek" unicode="&#x105;" horiz-adv-x="1222" 
d="M981 1024h174l-217 -1024h-2q-89 -39 -148 -94q-59 -56 -59 -113q0 -42 23.5 -61t77.5 -19h73l-26 -126h-84q-197 0 -197 156q0 83 59 151q60 69 141 106h-27l28 132q-123 -152 -323 -152q-170 -2 -286 120t-113 322q-2 179 67 323.5t186.5 222.5t256.5 76
q124 0 221 -62.5t133 -154.5zM879 597q0 132 -74 216.5t-187 84.5h-19q-66 1 -129.5 -32t-113 -92t-79 -147t-28.5 -190q0 -136 67 -223.5t177 -87.5h19q79 -2 149 37.5t117.5 106t74.5 152.5t26 175z" />
    <glyph glyph-name="Cacute" unicode="&#x106;" horiz-adv-x="1452" 
d="M124 580q0 239 92 440q94 201 265 317q173 117 404 117q144 1 261 -55.5t186.5 -164t72.5 -247.5h-184q-2 136 -96.5 218t-250.5 82h-20q-148 0 -273 -89q-126 -90 -199 -244q-73 -155 -73 -350q0 -213 113.5 -335t320.5 -122h20q94 -1 178.5 31.5t146.5 102t77 165.5
h185q-38 -216 -202.5 -341t-412.5 -125q-178 -2 -318 73t-217.5 213t-75.5 314zM864 1560l101 263h218l-182 -263h-137z" />
    <glyph glyph-name="cacute" unicode="&#x107;" horiz-adv-x="1116" 
d="M74 424q-2 182 73.5 326t203 220t278.5 74q176 0 288 -98t112 -257h-174q0 100 -63 154.5t-169 54.5h-19q-98 2 -180.5 -58.5t-130 -168t-45.5 -234.5q0 -143 75 -227t205 -84h19q97 0 169 57q72 59 99 152h174q-34 -163 -162 -259t-299 -96q-200 -2 -328 118t-126 326z
M616 1161l114 273h191l-182 -273h-123z" />
    <glyph glyph-name="Ccircumflex" unicode="&#x108;" horiz-adv-x="1452" 
d="M124 580q0 239 92 440q94 201 265 317q173 117 404 117q144 1 261 -55.5t186.5 -164t72.5 -247.5h-184q-2 136 -96.5 218t-250.5 82h-20q-148 0 -273 -89q-126 -90 -199 -244q-73 -155 -73 -350q0 -213 113.5 -335t320.5 -122h20q94 -1 178.5 31.5t146.5 102t77 165.5
h185q-38 -216 -202.5 -341t-412.5 -125q-178 -2 -318 73t-217.5 213t-75.5 314zM1276 1560h-129l-187 132l-245 -132h-154l301 263h222z" />
    <glyph glyph-name="ccircumflex" unicode="&#x109;" horiz-adv-x="1116" 
d="M74 424q-2 182 73.5 326t203 220t278.5 74q176 0 288 -98t112 -257h-174q0 100 -63 154.5t-169 54.5h-19q-98 2 -180.5 -58.5t-130 -168t-45.5 -234.5q0 -143 75 -227t205 -84h19q97 0 169 57q72 59 99 152h174q-34 -163 -162 -259t-299 -96q-200 -2 -328 118t-126 326z
M971 1161h-137l-149 129l-202 -129h-137l290 273h141z" />
    <glyph glyph-name="Cdotaccent" unicode="&#x10a;" horiz-adv-x="1452" 
d="M124 580q0 239 92 440q94 201 265 317q173 117 404 117q144 1 261 -55.5t186.5 -164t72.5 -247.5h-184q-2 136 -96.5 218t-250.5 82h-20q-148 0 -273 -89q-126 -90 -199 -244q-73 -155 -73 -350q0 -213 113.5 -335t320.5 -122h20q94 -1 178.5 31.5t146.5 102t77 165.5
h185q-38 -216 -202.5 -341t-412.5 -125q-178 -2 -318 73t-217.5 213t-75.5 314zM843 1597l43 209h194l-43 -209h-194z" />
    <glyph glyph-name="cdotaccent" unicode="&#x10b;" horiz-adv-x="1116" 
d="M74 424q-2 182 73.5 326t203 220t278.5 74q176 0 288 -98t112 -257h-174q0 100 -63 154.5t-169 54.5h-19q-98 2 -180.5 -58.5t-130 -168t-45.5 -234.5q0 -143 75 -227t205 -84h19q97 0 169 57q72 59 99 152h174q-34 -163 -162 -259t-299 -96q-200 -2 -328 118t-126 326z
M585 1208l43 209h195l-43 -209h-195z" />
    <glyph glyph-name="Ccaron" unicode="&#x10c;" horiz-adv-x="1452" 
d="M124 580q0 239 92 440q94 201 265 317q173 117 404 117q144 1 261 -55.5t186.5 -164t72.5 -247.5h-184q-2 136 -96.5 218t-250.5 82h-20q-148 0 -273 -89q-126 -90 -199 -244q-73 -155 -73 -350q0 -213 113.5 -335t320.5 -122h20q94 -1 178.5 31.5t146.5 102t77 165.5
h185q-38 -216 -202.5 -341t-412.5 -125q-178 -2 -318 73t-217.5 213t-75.5 314zM1203 1823h144l-301 -263h-222l-192 263h139l186 -133z" />
    <glyph glyph-name="ccaron" unicode="&#x10d;" horiz-adv-x="1116" 
d="M74 424q-2 182 73.5 326t203 220t278.5 74q176 0 288 -98t112 -257h-174q0 100 -63 154.5t-169 54.5h-19q-98 2 -180.5 -58.5t-130 -168t-45.5 -234.5q0 -143 75 -227t205 -84h19q97 0 169 57q72 59 99 152h174q-34 -163 -162 -259t-299 -96q-200 -2 -328 118t-126 326z
M911 1434h137l-290 -273h-141l-194 273h137l149 -129z" />
    <glyph glyph-name="Dcaron" unicode="&#x10e;" horiz-adv-x="1464" 
d="M64 0l305 1434h386q239 0 382 -86q142 -85 198 -218q57 -132 57 -286q0 -208 -86 -404q-86 -195 -248 -317q-164 -123 -384 -123h-610zM287 167h379q174 0 296 96q123 96 184 250q62 156 62 327q0 205 -116.5 315.5t-335.5 110.5h-239zM1114 1823h144l-301 -263h-222
l-192 263h139l186 -133z" />
    <glyph glyph-name="dcaron" unicode="&#x10f;" horiz-adv-x="1264" 
d="M74 433q-2 129 40 244.5t113.5 196t167.5 126.5t198 44q123 0 219 -57q97 -55 138 -149l125 596h179l-309 -1434h-171l27 126q-41 -61 -130.5 -103.5t-185.5 -42.5q-179 -2 -296 121t-115 332zM509 129h19q103 -2 186.5 65.5t127.5 175t43 227.5q0 133 -76 215.5
t-192 82.5h-20q-90 2 -170.5 -57.5t-128.5 -164.5t-46 -227q0 -140 71.5 -228.5t185.5 -88.5zM1291 1058l19 92h21q51 0 75.5 19t37.5 69l2 8h-80l40 188h174l-39 -184q-21 -101 -73 -146.5t-149 -45.5h-28z" />
    <glyph glyph-name="Dcroat" unicode="&#x110;" horiz-adv-x="1493" 
d="M1421 844q0 -208 -86 -404q-86 -195 -248 -317q-163 -123 -384 -123h-610l135 635h-180l36 163h179l135 636h386q239 0 382 -86q142 -85 198 -218q57 -132 57 -286zM1237 840q0 205 -116.5 315.5t-335.5 110.5h-239l-98 -468h303l-37 -163h-300l-98 -468h379
q175 0 296 96q123 96 184 250q62 156 62 327z" />
    <glyph glyph-name="dcroat" unicode="&#x111;" horiz-adv-x="1232" 
d="M1376 1296l-30 -139h-151l-249 -1157h-171l27 126q-41 -61 -130.5 -103.5t-185.5 -42.5q-179 -2 -296 121t-115 332q-2 129 40 244.5t113.5 196t167.5 126.5t198 44q123 0 219 -57q97 -55 138 -149l67 319h-339l29 139h339l29 138h179l-30 -138h151zM886 597
q0 133 -76 215.5t-192 82.5h-20q-90 2 -170.5 -57.5t-128.5 -164.5t-46 -227q0 -140 71.5 -228.5t185.5 -88.5h19q103 -2 186.5 65.5t127.5 175t43 227.5z" />
    <glyph glyph-name="Emacron" unicode="&#x112;" horiz-adv-x="1328" 
d="M64 0l305 1434h1031l-35 -168h-847l-95 -445h724l-36 -167h-723l-104 -487h867l-36 -167h-1051zM619 1597l29 140h585l-30 -140h-584z" />
    <glyph glyph-name="emacron" unicode="&#x113;" horiz-adv-x="1121" 
d="M75 453q-2 164 70 301t197.5 214.5t274.5 75.5q170 2 283 -105.5t111 -287.5q0 -67 -22 -163h-746q-1 -8 -1 -35q0 -146 78.5 -236.5t199.5 -90.5h19q94 1 163 47t99 127h174q-44 -151 -162 -235.5t-298 -84.5q-195 -2 -318.5 128.5t-121.5 344.5zM268 628h572q4 20 4 55
q0 99 -63 157t-172 58h-19q-115 0 -200 -73q-87 -74 -122 -197zM352 1208l30 140h584l-30 -140h-584z" />
    <glyph glyph-name="Ebreve" unicode="&#x114;" horiz-adv-x="1328" 
d="M64 0l305 1434h1031l-35 -168h-847l-95 -445h724l-36 -167h-723l-104 -487h867l-36 -167h-1051zM652 1774q0 22 4 49h139q-2 -16 -2 -26q0 -59 38.5 -91.5t108.5 -32.5q72 0 124.5 39t72.5 111h139q-19 -137 -116 -211q-95 -73 -236 -73q-123 0 -197.5 65t-74.5 170z" />
    <glyph glyph-name="ebreve" unicode="&#x115;" horiz-adv-x="1121" 
d="M75 453q-2 164 70 301t197.5 214.5t274.5 75.5q170 2 283 -105.5t111 -287.5q0 -67 -22 -163h-746q-1 -8 -1 -35q0 -146 78.5 -236.5t199.5 -90.5h19q94 1 163 47t99 127h174q-44 -151 -162 -235.5t-298 -84.5q-195 -2 -318.5 128.5t-121.5 344.5zM268 628h572q4 20 4 55
q0 99 -63 157t-172 58h-19q-115 0 -200 -73q-87 -74 -122 -197zM398 1384q0 23 3 50h130q-3 -16 -3 -34q0 -66 39.5 -101.5t107.5 -35.5t119.5 43t77.5 128h130q-36 -142 -126 -218t-213 -76t-194 64t-71 180z" />
    <glyph glyph-name="Edotaccent" unicode="&#x116;" horiz-adv-x="1328" 
d="M64 0l305 1434h1031l-35 -168h-847l-95 -445h724l-36 -167h-723l-104 -487h867l-36 -167h-1051zM821 1597l43 209h194l-43 -209h-194z" />
    <glyph glyph-name="edotaccent" unicode="&#x117;" horiz-adv-x="1121" 
d="M75 453q-2 164 70 301t197.5 214.5t274.5 75.5q170 2 283 -105.5t111 -287.5q0 -67 -22 -163h-746q-1 -8 -1 -35q0 -146 78.5 -236.5t199.5 -90.5h19q94 1 163 47t99 127h174q-44 -151 -162 -235.5t-298 -84.5q-195 -2 -318.5 128.5t-121.5 344.5zM268 628h572q4 20 4 55
q0 99 -63 157t-172 58h-19q-115 0 -200 -73q-87 -74 -122 -197zM561 1208l43 209h195l-43 -209h-195z" />
    <glyph glyph-name="Eogonek" unicode="&#x118;" horiz-adv-x="1328" 
d="M1365 1266h-847l-95 -445h724l-36 -167h-723l-104 -487h867l-36 -167h-2q-89 -39 -148 -94q-59 -56 -59 -113q0 -42 23.5 -61t77.5 -19h73l-26 -126h-84q-197 0 -197 156q0 83 59 151q60 69 141 106h-909l305 1434h1031z" />
    <glyph glyph-name="eogonek" unicode="&#x119;" horiz-adv-x="1121" 
d="M1011 651q0 -67 -22 -163h-746q-1 -8 -1 -35q0 -146 78.5 -236.5t199.5 -90.5h19q94 1 163 47t99 127h174q-33 -113 -109 -190.5t-191 -109.5h2q-89 -39 -148 -94q-59 -56 -59 -113q0 -42 23.5 -61t77.5 -19h73l-26 -126h-84q-197 0 -197 156q0 70 44.5 132t117.5 105
q-188 2 -307 133t-117 340q-2 164 70 301t197.5 214.5t274.5 75.5q170 2 283 -105.5t111 -287.5zM844 683q0 99 -63 157t-172 58h-19q-115 0 -200 -73q-87 -74 -122 -197h572q4 20 4 55z" />
    <glyph glyph-name="Ecaron" unicode="&#x11a;" horiz-adv-x="1328" 
d="M64 0l305 1434h1031l-35 -168h-847l-95 -445h724l-36 -167h-723l-104 -487h867l-36 -167h-1051zM1181 1823h144l-301 -263h-222l-192 263h139l186 -133z" />
    <glyph glyph-name="ecaron" unicode="&#x11b;" horiz-adv-x="1121" 
d="M75 453q-2 164 70 301t197.5 214.5t274.5 75.5q170 2 283 -105.5t111 -287.5q0 -67 -22 -163h-746q-1 -8 -1 -35q0 -146 78.5 -236.5t199.5 -90.5h19q94 1 163 47t99 127h174q-44 -151 -162 -235.5t-298 -84.5q-195 -2 -318.5 128.5t-121.5 344.5zM268 628h572q4 20 4 55
q0 99 -63 157t-172 58h-19q-115 0 -200 -73q-87 -74 -122 -197zM886 1434h137l-290 -273h-141l-194 273h137l149 -129z" />
    <glyph glyph-name="Gcircumflex" unicode="&#x11c;" horiz-adv-x="1537" 
d="M124 588q0 242 96 438q95 197 272 313q176 115 410 115q151 2 278.5 -63t199.5 -178.5t70 -246.5h-184q-12 151 -116 234.5t-258 86.5h-21q-162 0 -292 -92q-129 -93 -199 -246q-71 -154 -71 -330q0 -216 109 -341.5t298 -130.5h21q173 0 312.5 110.5t207.5 300.5h-445
l33 166h421q71 0 114 -38.5t43 -103.5q0 -27 -6 -63l-108 -519h-161l49 231q-68 -108 -197 -179.5t-272 -71.5q-177 -2 -316.5 77t-214.5 218t-73 313zM1313 1560h-129l-187 132l-245 -132h-154l301 263h222z" />
    <glyph glyph-name="gcircumflex" unicode="&#x11d;" horiz-adv-x="1215" 
d="M-31 -137h176q13 -77 82 -121t172 -44h19q137 0 222 80.5t119 233.5l29 128q-55 -66 -135.5 -103t-173.5 -37q-76 -1 -147 26t-129.5 79.5t-92.5 140t-33 198.5q-2 130 39 244.5t110.5 192t162 121.5t191.5 42q130 0 222 -62.5t131 -157.5l41 200h174l-224 -1053
q-43 -202 -175.5 -310.5t-353.5 -108.5q-113 0 -204 33.5t-151.5 105t-70.5 172.5zM503 147h19q101 -2 182.5 61.5t124 163.5t41.5 212q0 144 -73.5 229t-190.5 85h-20q-86 2 -163.5 -55t-125.5 -161.5t-46 -228.5q0 -144 72 -225t180 -81zM951 1161h-137l-149 129
l-202 -129h-137l290 273h141z" />
    <glyph glyph-name="Gbreve" unicode="&#x11e;" horiz-adv-x="1537" 
d="M124 588q0 242 96 438q95 197 272 313q176 115 410 115q151 2 278.5 -63t199.5 -178.5t70 -246.5h-184q-12 151 -116 234.5t-258 86.5h-21q-162 0 -292 -92q-129 -93 -199 -246q-71 -154 -71 -330q0 -216 109 -341.5t298 -130.5h21q173 0 312.5 110.5t207.5 300.5h-445
l33 166h421q71 0 114 -38.5t43 -103.5q0 -27 -6 -63l-108 -519h-161l49 231q-68 -108 -197 -179.5t-272 -71.5q-177 -2 -316.5 77t-214.5 218t-73 313zM711 1774q0 22 4 49h139q-2 -16 -2 -26q0 -59 38.5 -91.5t108.5 -32.5q72 0 124.5 39t72.5 111h139q-19 -137 -116 -211
q-95 -73 -236 -73q-123 0 -197.5 65t-74.5 170z" />
    <glyph glyph-name="gbreve" unicode="&#x11f;" horiz-adv-x="1215" 
d="M-31 -137h176q13 -77 82 -121t172 -44h19q137 0 222 80.5t119 233.5l29 128q-55 -66 -135.5 -103t-173.5 -37q-76 -1 -147 26t-129.5 79.5t-92.5 140t-33 198.5q-2 130 39 244.5t110.5 192t162 121.5t191.5 42q130 0 222 -62.5t131 -157.5l41 200h174l-224 -1053
q-43 -202 -175.5 -310.5t-353.5 -108.5q-113 0 -204 33.5t-151.5 105t-70.5 172.5zM503 147h19q101 -2 182.5 61.5t124 163.5t41.5 212q0 144 -73.5 229t-190.5 85h-20q-86 2 -163.5 -55t-125.5 -161.5t-46 -228.5q0 -144 72 -225t180 -81zM402 1384q0 23 3 50h130
q-3 -16 -3 -34q0 -66 39.5 -101.5t107.5 -35.5t119.5 43t77.5 128h130q-36 -142 -126 -218t-213 -76t-194 64t-71 180z" />
    <glyph glyph-name="Gdotaccent" unicode="&#x120;" horiz-adv-x="1537" 
d="M124 588q0 242 96 438q95 197 272 313q176 115 410 115q151 2 278.5 -63t199.5 -178.5t70 -246.5h-184q-12 151 -116 234.5t-258 86.5h-21q-162 0 -292 -92q-129 -93 -199 -246q-71 -154 -71 -330q0 -216 109 -341.5t298 -130.5h21q173 0 312.5 110.5t207.5 300.5h-445
l33 166h421q71 0 114 -38.5t43 -103.5q0 -27 -6 -63l-108 -519h-161l49 231q-68 -108 -197 -179.5t-272 -71.5q-177 -2 -316.5 77t-214.5 218t-73 313zM880 1597l43 209h194l-43 -209h-194z" />
    <glyph glyph-name="gdotaccent" unicode="&#x121;" horiz-adv-x="1215" 
d="M-31 -137h176q13 -77 82 -121t172 -44h19q137 0 222 80.5t119 233.5l29 128q-55 -66 -135.5 -103t-173.5 -37q-76 -1 -147 26t-129.5 79.5t-92.5 140t-33 198.5q-2 130 39 244.5t110.5 192t162 121.5t191.5 42q130 0 222 -62.5t131 -157.5l41 200h174l-224 -1053
q-43 -202 -175.5 -310.5t-353.5 -108.5q-113 0 -204 33.5t-151.5 105t-70.5 172.5zM503 147h19q101 -2 182.5 61.5t124 163.5t41.5 212q0 144 -73.5 229t-190.5 85h-20q-86 2 -163.5 -55t-125.5 -161.5t-46 -228.5q0 -144 72 -225t180 -81zM565 1208l43 209h195l-43 -209
h-195z" />
    <glyph glyph-name="uni0122" unicode="&#x122;" horiz-adv-x="1537" 
d="M124 588q0 242 96 438q95 197 272 313q176 115 410 115q151 2 278.5 -63t199.5 -178.5t70 -246.5h-184q-12 151 -116 234.5t-258 86.5h-21q-162 0 -292 -92q-129 -93 -199 -246q-71 -154 -71 -330q0 -216 109 -341.5t298 -130.5h21q173 0 312.5 110.5t207.5 300.5h-445
l33 166h421q71 0 114 -38.5t43 -103.5q0 -27 -6 -63l-108 -519h-161l49 231q-68 -108 -197 -179.5t-272 -71.5q-177 -2 -316.5 77t-214.5 218t-73 313zM458 -560l19 92h21q51 0 75.5 19t37.5 69l2 8h-80l40 188h174l-39 -184q-21 -101 -73 -146.5t-149 -45.5h-28z" />
    <glyph glyph-name="uni0123" unicode="&#x123;" horiz-adv-x="1215" 
d="M-31 -137h176q13 -77 82 -121t172 -44h19q137 0 222 80.5t119 233.5l29 128q-55 -66 -135.5 -103t-173.5 -37q-76 -1 -147 26t-129.5 79.5t-92.5 140t-33 198.5q-2 130 39 244.5t110.5 192t162 121.5t191.5 42q130 0 222 -62.5t131 -157.5l41 200h174l-224 -1053
q-43 -202 -175.5 -310.5t-353.5 -108.5q-113 0 -204 33.5t-151.5 105t-70.5 172.5zM503 147h19q101 -2 182.5 61.5t124 163.5t41.5 212q0 144 -73.5 229t-190.5 85h-20q-86 2 -163.5 -55t-125.5 -161.5t-46 -228.5q0 -144 72 -225t180 -81zM872 1598l-19 -92h-21
q-51 0 -75.5 -19t-37.5 -69l-2 -8h80l-40 -188h-174l39 184q21 101 73 146.5t149 45.5h28z" />
    <glyph glyph-name="Hcircumflex" unicode="&#x124;" horiz-adv-x="1505" 
d="M64 0l305 1434h185l-135 -633h755l134 633h184l-305 -1434h-184l135 634h-754l-136 -634h-184zM1302 1560h-129l-187 132l-245 -132h-154l301 263h222z" />
    <glyph glyph-name="hcircumflex" unicode="&#x125;" horiz-adv-x="1161" 
d="M1032 729q0 -57 -13 -119l-129 -610h-175l132 614q8 56 8 86q0 91 -48.5 144.5t-132.5 53.5h-19q-119 0 -210.5 -94.5t-127.5 -271.5l-112 -532h-174l303 1434h174l-116 -554q57 79 141 121.5t182 42.5q134 2 226.5 -89.5t90.5 -225.5zM1104 1550h-137l-149 129
l-202 -129h-137l290 273h141z" />
    <glyph glyph-name="Hbar" unicode="&#x126;" horiz-adv-x="1580" 
d="M1685 1201l-32 -150h-206l-224 -1051h-184l135 634h-754l-136 -634h-184l224 1051h-204l32 150h203l50 233h185l-50 -233h755l49 233h184l-50 -233h207zM1210 801l53 250h-755l-53 -250h755z" />
    <glyph glyph-name="hbar" unicode="&#x127;" horiz-adv-x="1161" 
d="M1032 729q0 -57 -13 -119l-129 -610h-175l132 614q8 56 8 86q0 91 -48.5 144.5t-132.5 53.5h-19q-119 0 -210.5 -94.5t-127.5 -271.5l-112 -532h-174l244 1157h-154l29 139h155l29 138h174l-29 -138h339l-30 -139h-338l-58 -277q57 79 141 121.5t182 42.5
q134 2 226.5 -89.5t90.5 -225.5z" />
    <glyph glyph-name="Itilde" unicode="&#x128;" horiz-adv-x="567" 
d="M64 0l305 1434h185l-306 -1434h-184zM514 1598l-56 34l-26 16q-34 23 -63 23q-64 0 -84 -101h-140l6 29q48 220 216 220q39 0 69.5 -12t80.5 -42l54 -34q57 -35 83 -35q68 0 88 101h140l-7 -31q-42 -216 -213 -216q-69 0 -148 48z" />
    <glyph glyph-name="itilde" unicode="&#x129;" horiz-adv-x="489" 
d="M31 0l217 1024h174l-217 -1024h-174zM388 1201l-65 40q-48 29 -64 35q-18 9 -39 9q-35 0 -53 -26t-33 -98h-130l9 40q40 210 199 210q37 0 68.5 -11.5t84.5 -42.5l65 -39l30 -18q47 -24 71 -24q38 0 57.5 27.5t32.5 95.5h130l-8 -39q-44 -210 -202 -210q-65 0 -153 51z
" />
    <glyph glyph-name="Imacron" unicode="&#x12a;" horiz-adv-x="567" 
d="M64 0l305 1434h185l-306 -1434h-184zM197 1597l29 140h585l-30 -140h-584z" />
    <glyph glyph-name="imacron" unicode="&#x12b;" horiz-adv-x="489" 
d="M31 0l217 1024h174l-217 -1024h-174zM78 1208l30 140h584l-30 -140h-584z" />
    <glyph glyph-name="Ibreve" unicode="&#x12c;" horiz-adv-x="567" 
d="M64 0l305 1434h185l-306 -1434h-184zM230 1774q0 22 4 49h139q-2 -16 -2 -26q0 -59 38.5 -91.5t108.5 -32.5q72 0 124.5 39t72.5 111h139q-19 -137 -116 -211q-95 -73 -236 -73q-123 0 -197.5 65t-74.5 170z" />
    <glyph glyph-name="ibreve" unicode="&#x12d;" horiz-adv-x="489" 
d="M31 0l217 1024h174l-217 -1024h-174zM99 1384q0 23 3 50h130q-3 -16 -3 -34q0 -66 39.5 -101.5t107.5 -35.5t119.5 43t77.5 128h130q-36 -142 -126 -218t-213 -76t-194 64t-71 180z" />
    <glyph glyph-name="Iogonek" unicode="&#x12e;" horiz-adv-x="567" 
d="M369 1434h185l-306 -1434h-2q-89 -39 -148 -94q-59 -56 -59 -113q0 -42 23.5 -61t77.5 -19h73l-26 -126h-84q-197 0 -197 156q0 83 59 151q60 69 141 106h-42z" />
    <glyph glyph-name="iogonek" unicode="&#x12f;" horiz-adv-x="489" 
d="M315 1417h194l-43 -209h-194zM31 0l217 1024h174l-217 -1024q-89 -39 -148 -94q-59 -56 -59 -113q0 -42 23.5 -61t77.5 -19h73l-26 -126h-84q-197 0 -197 156q0 83 59 151q60 69 141 106h-34z" />
    <glyph glyph-name="Idotaccent" unicode="&#x130;" horiz-adv-x="567" 
d="M64 0l305 1434h185l-306 -1434h-184zM399 1597l43 209h194l-43 -209h-194z" />
    <glyph glyph-name="dotlessi" unicode="&#x131;" horiz-adv-x="489" 
d="M31 0l217 1024h174l-217 -1024h-174z" />
    <glyph glyph-name="IJ" unicode="&#x132;" horiz-adv-x="1120" 
d="M38 0l37 174h401q103 0 156 48.5t77 159.5l224 1052h185l-231 -1079q-41 -191 -137 -273t-282 -82h-430zM126 394l219 1040h184l-219 -1040h-184z" />
    <glyph glyph-name="ij" unicode="&#x133;" horiz-adv-x="971" 
d="M272 1208l43 209h195l-43 -209h-195zM753 1208l43 209h195l-43 -209h-195zM-46 -365l32 153h413q69 0 87 84l244 1152h174l-252 -1197q-41 -192 -215 -192h-483zM31 0l217 1024h174l-217 -1024h-174z" />
    <glyph glyph-name="Jcircumflex" unicode="&#x134;" horiz-adv-x="805" 
d="M-66 0l37 174h195q99 0 151.5 50.5t77.5 164.5l223 1045h185l-228 -1065q-42 -198 -144 -283.5t-299 -85.5h-198zM1079 1560h-129l-187 132l-245 -132h-154l301 263h222z" />
    <glyph glyph-name="jcircumflex" unicode="&#x135;" horiz-adv-x="506" 
d="M-339 -365l32 153h240q71 0 87 84l244 1152h174l-252 -1197q-38 -192 -215 -192h-310zM688 1161h-137l-149 129l-202 -129h-137l290 273h141z" />
    <glyph glyph-name="uni0136" unicode="&#x136;" horiz-adv-x="1452" 
d="M1546 1434l-739 -615l554 -819h-222l-474 701l-324 -270l-90 -431h-185l301 1434h185l-156 -745l888 745h262zM442 -560l19 92h21q51 0 75.5 19t37.5 69l2 8h-80l40 188h174l-39 -184q-21 -101 -73 -146.5t-149 -45.5h-28z" />
    <glyph glyph-name="uni0137" unicode="&#x137;" horiz-adv-x="1161" 
d="M31 0l305 1434h174l-194 -910l624 500h247l-528 -421l398 -603h-207l-325 497l-259 -206l-61 -291h-174zM292 -560l19 92h21q51 0 75.5 19t37.5 69l2 8h-80l40 188h174l-39 -184q-21 -101 -73 -146.5t-149 -45.5h-28z" />
    <glyph glyph-name="Lacute" unicode="&#x139;" horiz-adv-x="1243" 
d="M64 0l305 1434h185l-270 -1267h846l-35 -167h-1031zM419 1560l101 263h218l-182 -263h-137z" />
    <glyph glyph-name="lacute" unicode="&#x13a;" horiz-adv-x="489" 
d="M30 0l305 1434h174l-305 -1434h-174zM388 1564l114 273h191l-182 -273h-123z" />
    <glyph glyph-name="uni013B" unicode="&#x13b;" horiz-adv-x="1243" 
d="M64 0l305 1434h185l-270 -1267h846l-35 -167h-1031zM336 -560l19 92h21q51 0 75.5 19t37.5 69l2 8h-80l40 188h174l-39 -184q-21 -101 -73 -146.5t-149 -45.5h-28z" />
    <glyph glyph-name="uni013C" unicode="&#x13c;" horiz-adv-x="489" 
d="M30 0l305 1434h174l-305 -1434h-174zM-125 -560l19 92h21q51 0 75.5 19t37.5 69l2 8h-80l40 188h174l-39 -184q-21 -101 -73 -146.5t-149 -45.5h-28z" />
    <glyph glyph-name="Lcaron" unicode="&#x13d;" horiz-adv-x="1245" 
d="M64 0l305 1434h185l-270 -1267h846l-35 -167h-1031zM711 1058l19 92h21q51 0 75.5 19t37.5 69l2 8h-80l40 188h174l-39 -184q-21 -101 -73 -146.5t-149 -45.5h-28z" />
    <glyph glyph-name="lcaron" unicode="&#x13e;" horiz-adv-x="522" 
d="M30 0l305 1434h174l-305 -1434h-174zM535 1058l19 92h21q51 0 75.5 19t37.5 69l2 8h-80l40 188h174l-39 -184q-21 -101 -73 -146.5t-149 -45.5h-28z" />
    <glyph glyph-name="Ldot" unicode="&#x13f;" horiz-adv-x="1248" 
d="M64 0l305 1434h185l-270 -1267h846l-35 -167h-1031zM815 632l45 209h209l-45 -209h-209z" />
    <glyph glyph-name="ldot" unicode="&#x140;" horiz-adv-x="656" 
d="M30 0l305 1434h174l-305 -1434h-174zM470 612l45 209h209l-45 -209h-209z" />
    <glyph glyph-name="Lslash" unicode="&#x141;" horiz-adv-x="1313" 
d="M354 167h846l-35 -167h-1031l113 530l-226 -114l43 199l225 116l150 703h185l-127 -597l424 218l-45 -207l-422 -213z" />
    <glyph glyph-name="lslash" unicode="&#x142;" horiz-adv-x="621" 
d="M648 1001l-39 -179l-178 -85l-157 -737h-174l137 644l-191 -91l38 179l191 91l130 611h174l-110 -519z" />
    <glyph glyph-name="Nacute" unicode="&#x143;" horiz-adv-x="1526" 
d="M1328 1434h185l-305 -1434h-250l-447 1236l-263 -1236h-184l305 1434h253l445 -1230zM901 1560l101 263h218l-182 -263h-137z" />
    <glyph glyph-name="nacute" unicode="&#x144;" horiz-adv-x="1161" 
d="M1032 729q0 -57 -13 -119l-129 -610h-175l132 614q8 56 8 86q0 91 -48.5 144.5t-132.5 53.5h-19q-119 0 -210.5 -94.5t-127.5 -271.5l-112 -532h-174l217 1024h174l-30 -144q57 79 141 121.5t182 42.5q134 2 226.5 -89.5t90.5 -225.5zM669 1161l114 273h191l-182 -273
h-123z" />
    <glyph glyph-name="uni0145" unicode="&#x145;" horiz-adv-x="1526" 
d="M1328 1434h185l-305 -1434h-250l-447 1236l-263 -1236h-184l305 1434h253l445 -1230zM394 -560l19 92h21q51 0 75.5 19t37.5 69l2 8h-80l40 188h174l-39 -184q-21 -101 -73 -146.5t-149 -45.5h-28z" />
    <glyph glyph-name="uni0146" unicode="&#x146;" horiz-adv-x="1161" 
d="M1032 729q0 -57 -13 -119l-129 -610h-175l132 614q8 56 8 86q0 91 -48.5 144.5t-132.5 53.5h-19q-119 0 -210.5 -94.5t-127.5 -271.5l-112 -532h-174l217 1024h174l-30 -144q57 79 141 121.5t182 42.5q134 2 226.5 -89.5t90.5 -225.5zM217 -560l19 92h21q51 0 75.5 19
t37.5 69l2 8h-80l40 188h174l-39 -184q-21 -101 -73 -146.5t-149 -45.5h-28z" />
    <glyph glyph-name="Ncaron" unicode="&#x147;" horiz-adv-x="1526" 
d="M1328 1434h185l-305 -1434h-250l-447 1236l-263 -1236h-184l305 1434h253l445 -1230zM1240 1823h144l-301 -263h-222l-192 263h139l186 -133z" />
    <glyph glyph-name="ncaron" unicode="&#x148;" horiz-adv-x="1161" 
d="M1032 729q0 -57 -13 -119l-129 -610h-175l132 614q8 56 8 86q0 91 -48.5 144.5t-132.5 53.5h-19q-119 0 -210.5 -94.5t-127.5 -271.5l-112 -532h-174l217 1024h174l-30 -144q57 79 141 121.5t182 42.5q134 2 226.5 -89.5t90.5 -225.5zM963 1434h137l-290 -273h-141
l-194 273h137l149 -129z" />
    <glyph glyph-name="Eng" unicode="&#x14a;" horiz-adv-x="1526" 
d="M622 -379l37 167h144q96 0 144 37.5t71 141.5l7 33l-518 1213l-259 -1213h-184l305 1434h232l487 -1136l240 1136h185l-314 -1478q-38 -182 -127 -258.5t-271 -76.5h-179z" />
    <glyph glyph-name="eng" unicode="&#x14b;" horiz-adv-x="1161" 
d="M320 -365l33 153h246q73 0 88 78l160 748q8 56 8 86q0 91 -48.5 144.5t-132.5 53.5h-19q-119 0 -210.5 -94.5t-127.5 -271.5l-112 -532h-174l217 1024h174l-29 -143q57 79 140.5 121t181.5 42q134 2 226.5 -89.5t90.5 -225.5q0 -57 -13 -119l-167 -787q-19 -92 -77 -140
t-149 -48h-306z" />
    <glyph glyph-name="Omacron" unicode="&#x14c;" horiz-adv-x="1559" 
d="M124 595q0 235 95 433q95 197 266 311q172 115 394 115q175 2 313.5 -76.5t215.5 -222t75 -324.5q0 -230 -92 -426q-93 -196 -263 -310q-172 -115 -402 -115q-172 -2 -310 74.5t-216 218.5t-76 322zM732 147h20q159 0 284 89q123 87 193 241q69 151 69 335
q2 208 -118.5 343t-305.5 132h-21q-157 3 -283.5 -89.5t-194.5 -247.5t-66 -338q-2 -208 116 -337.5t307 -127.5zM653 1597l29 140h585l-30 -140h-584z" />
    <glyph glyph-name="omacron" unicode="&#x14d;" horiz-adv-x="1170" 
d="M74 444q-3 163 70 302.5t198.5 220t271.5 77.5q209 0 327.5 -126.5t118.5 -337.5q2 -165 -70.5 -304.5t-197.5 -219t-272 -76.5q-207 0 -326.5 126.5t-119.5 337.5zM518 126h19q64 -2 126.5 30.5t112.5 89.5t80.5 143t29.5 184q0 142 -73 233.5t-198 91.5h-19
q-64 1 -126.5 -31t-112.5 -89t-80.5 -143t-28.5 -184q0 -141 72.5 -233t197.5 -92zM379 1208l30 140h584l-30 -140h-584z" />
    <glyph glyph-name="Obreve" unicode="&#x14e;" horiz-adv-x="1559" 
d="M124 595q0 235 95 433q95 197 266 311q172 115 394 115q175 2 313.5 -76.5t215.5 -222t75 -324.5q0 -230 -92 -426q-93 -196 -263 -310q-172 -115 -402 -115q-172 -2 -310 74.5t-216 218.5t-76 322zM732 147h20q159 0 284 89q123 87 193 241q69 151 69 335
q2 208 -118.5 343t-305.5 132h-21q-157 3 -283.5 -89.5t-194.5 -247.5t-66 -338q-2 -208 116 -337.5t307 -127.5zM686 1774q0 22 4 49h139q-2 -16 -2 -26q0 -59 38.5 -91.5t108.5 -32.5q72 0 124.5 39t72.5 111h139q-19 -137 -116 -211q-95 -73 -236 -73q-123 0 -197.5 65
t-74.5 170z" />
    <glyph glyph-name="obreve" unicode="&#x14f;" horiz-adv-x="1170" 
d="M74 444q-3 163 70 302.5t198.5 220t271.5 77.5q209 0 327.5 -126.5t118.5 -337.5q2 -165 -70.5 -304.5t-197.5 -219t-272 -76.5q-207 0 -326.5 126.5t-119.5 337.5zM518 126h19q64 -2 126.5 30.5t112.5 89.5t80.5 143t29.5 184q0 142 -73 233.5t-198 91.5h-19
q-64 1 -126.5 -31t-112.5 -89t-80.5 -143t-28.5 -184q0 -141 72.5 -233t197.5 -92zM425 1384q0 23 3 50h130q-3 -16 -3 -34q0 -66 39.5 -101.5t107.5 -35.5t119.5 43t77.5 128h130q-36 -142 -126 -218t-213 -76t-194 64t-71 180z" />
    <glyph glyph-name="Ohungarumlaut" unicode="&#x150;" horiz-adv-x="1559" 
d="M124 595q0 235 95 433q95 197 266 311q172 115 394 115q175 2 313.5 -76.5t215.5 -222t75 -324.5q0 -230 -92 -426q-93 -196 -263 -310q-172 -115 -402 -115q-172 -2 -310 74.5t-216 218.5t-76 322zM732 147h20q159 0 284 89q123 87 193 241q69 151 69 335
q2 208 -118.5 343t-305.5 132h-21q-157 3 -283.5 -89.5t-194.5 -247.5t-66 -338q-2 -208 116 -337.5t307 -127.5zM697 1560l101 263h218l-182 -263h-137zM1033 1560l101 263h218l-182 -263h-137z" />
    <glyph glyph-name="ohungarumlaut" unicode="&#x151;" horiz-adv-x="1170" 
d="M74 444q-3 163 70 302.5t198.5 220t271.5 77.5q209 0 327.5 -126.5t118.5 -337.5q2 -165 -70.5 -304.5t-197.5 -219t-272 -76.5q-207 0 -326.5 126.5t-119.5 337.5zM518 126h19q64 -2 126.5 30.5t112.5 89.5t80.5 143t29.5 184q0 142 -73 233.5t-198 91.5h-19
q-64 1 -126.5 -31t-112.5 -89t-80.5 -143t-28.5 -184q0 -141 72.5 -233t197.5 -92zM420 1161l114 273h191l-182 -273h-123zM746 1161l114 273h191l-183 -273h-122z" />
    <glyph glyph-name="OE" unicode="&#x152;" horiz-adv-x="2411" 
d="M124 595q0 235 95 433q95 197 266 311q172 115 394 115q177 0 309.5 -80t203.5 -226l60 286h1031l-36 -168h-846l-95 -445h724l-36 -167h-724l-103 -487h867l-36 -167h-1051l31 145q-187 -165 -452 -165q-172 -2 -310 74.5t-216 218.5t-76 322zM732 147h20q159 0 284 89
q123 87 193 241q69 151 69 335q2 208 -118.5 343t-305.5 132h-21q-157 3 -283.5 -89.5t-194.5 -247.5t-66 -338q-2 -208 116 -337.5t307 -127.5z" />
    <glyph glyph-name="oe" unicode="&#x153;" horiz-adv-x="1934" 
d="M74 444q-3 163 70 302.5t198.5 220t271.5 77.5q136 0 236 -56t154 -159q76 103 186.5 159t239.5 56q113 2 203.5 -46t142.5 -141.5t48 -216.5q0 -62 -22 -152h-746q-1 -8 -1 -35q0 -146 78.5 -236.5t199.5 -90.5h19q94 1 163 47t99 127h174q-44 -151 -162 -235.5
t-298 -84.5q-130 0 -230 57.5t-153 163.5q-75 -105 -186 -163t-239 -58q-207 0 -326.5 126.5t-119.5 337.5zM518 126h19q64 -2 126.5 30.5t112.5 89.5t80.5 143t29.5 184q0 142 -73 233.5t-198 91.5h-19q-64 1 -126.5 -31t-112.5 -89t-80.5 -143t-28.5 -184
q0 -141 72.5 -233t197.5 -92zM1081 628h572q4 20 4 55q0 99 -63 157t-172 58h-19q-115 0 -200 -73q-87 -74 -122 -197z" />
    <glyph glyph-name="Racute" unicode="&#x154;" horiz-adv-x="1382" 
d="M64 0l305 1434h490q211 0 324 -96t113 -265q0 -127 -74 -232.5t-190 -146.5q78 -7 126 -55t48 -121q0 -32 -11 -96l-90 -422h-184l92 434q7 27 7 57q0 49 -35.5 71t-116.5 22h-492l-125 -584h-187zM410 751h387q135 0 224.5 82t89.5 216q0 217 -298 217h-293zM757 1560
l101 263h218l-182 -263h-137z" />
    <glyph glyph-name="racute" unicode="&#x155;" horiz-adv-x="746" 
d="M717 1034h78l-35 -170h-76q-139 0 -236.5 -93.5t-138.5 -281.5l-104 -489h-174l217 1024h173l-43 -202q57 107 139 159.5t200 52.5zM456 1161l114 273h191l-182 -273h-123z" />
    <glyph glyph-name="uni0156" unicode="&#x156;" horiz-adv-x="1382" 
d="M64 0l305 1434h490q211 0 324 -96t113 -265q0 -127 -74 -232.5t-190 -146.5q78 -7 126 -55t48 -121q0 -32 -11 -96l-90 -422h-184l92 434q7 27 7 57q0 49 -35.5 71t-116.5 22h-492l-125 -584h-187zM410 751h387q135 0 224.5 82t89.5 216q0 217 -298 217h-293zM344 -560
l19 92h21q51 0 75.5 19t37.5 69l2 8h-80l40 188h174l-39 -184q-21 -101 -73 -146.5t-149 -45.5h-28z" />
    <glyph glyph-name="uni0157" unicode="&#x157;" horiz-adv-x="746" 
d="M717 1034h78l-35 -170h-76q-139 0 -236.5 -93.5t-138.5 -281.5l-104 -489h-174l217 1024h173l-43 -202q57 107 139 159.5t200 52.5zM-124 -560l19 92h21q51 0 75.5 19t37.5 69l2 8h-80l40 188h174l-39 -184q-21 -101 -73 -146.5t-149 -45.5h-28z" />
    <glyph glyph-name="Rcaron" unicode="&#x158;" horiz-adv-x="1382" 
d="M64 0l305 1434h490q211 0 324 -96t113 -265q0 -127 -74 -232.5t-190 -146.5q78 -7 126 -55t48 -121q0 -32 -11 -96l-90 -422h-184l92 434q7 27 7 57q0 49 -35.5 71t-116.5 22h-492l-125 -584h-187zM410 751h387q135 0 224.5 82t89.5 216q0 217 -298 217h-293zM1097 1823
h144l-301 -263h-222l-192 263h139l186 -133z" />
    <glyph glyph-name="rcaron" unicode="&#x159;" horiz-adv-x="746" 
d="M717 1034h78l-35 -170h-76q-139 0 -236.5 -93.5t-138.5 -281.5l-104 -489h-174l217 1024h173l-43 -202q57 107 139 159.5t200 52.5zM750 1434h137l-290 -273h-141l-194 273h137l149 -129z" />
    <glyph glyph-name="Sacute" unicode="&#x15a;" horiz-adv-x="1266" 
d="M51 410q0 29 2 47h179v-34q0 -132 98 -204t248 -72h21q147 0 240.5 66t93.5 173q0 84 -56 141t-198 100l-149 47q-156 48 -231.5 132.5t-75.5 215.5q-2 121 68 221.5t191 156.5t263 54q220 3 364.5 -121.5t142.5 -300.5v-25h-184q-3 133 -89 207q-85 73 -230 73h-21
q-132 2 -227.5 -71t-92.5 -176q0 -136 179 -193l206 -67q324 -107 324 -377q3 -180 -144 -303t-374 -120q-254 0 -401 117.5t-147 312.5zM744 1560l101 263h218l-182 -263h-137z" />
    <glyph glyph-name="sacute" unicode="&#x15b;" horiz-adv-x="980" 
d="M8 314h176q6 -91 68.5 -139.5t161.5 -48.5h19q91 0 148.5 44t57.5 114q0 93 -130 135l-117 38q-122 41 -183.5 105t-61.5 161q-2 133 108 228t276 93q163 2 275.5 -89.5t113.5 -244.5h-176q-1 86 -64 137t-152 51h-19q-83 0 -137 -45.5t-54 -113.5q0 -92 125 -133
l123 -40q112 -38 178 -100q69 -62 69 -177q2 -135 -110 -223t-278 -86q-188 0 -299.5 89t-117.5 245zM518 1161l114 273h191l-182 -273h-123z" />
    <glyph glyph-name="Scircumflex" unicode="&#x15c;" horiz-adv-x="1266" 
d="M51 410q0 29 2 47h179v-34q0 -132 98 -204t248 -72h21q147 0 240.5 66t93.5 173q0 84 -56 141t-198 100l-149 47q-156 48 -231.5 132.5t-75.5 215.5q-2 121 68 221.5t191 156.5t263 54q220 3 364.5 -121.5t142.5 -300.5v-25h-184q-3 133 -89 207q-85 73 -230 73h-21
q-132 2 -227.5 -71t-92.5 -176q0 -136 179 -193l206 -67q324 -107 324 -377q3 -180 -144 -303t-374 -120q-254 0 -401 117.5t-147 312.5zM1156 1560h-129l-187 132l-245 -132h-154l301 263h222z" />
    <glyph glyph-name="scircumflex" unicode="&#x15d;" horiz-adv-x="980" 
d="M8 314h176q6 -91 68.5 -139.5t161.5 -48.5h19q91 0 148.5 44t57.5 114q0 93 -130 135l-117 38q-122 41 -183.5 105t-61.5 161q-2 133 108 228t276 93q163 2 275.5 -89.5t113.5 -244.5h-176q-1 86 -64 137t-152 51h-19q-83 0 -137 -45.5t-54 -113.5q0 -92 125 -133
l123 -40q112 -38 178 -100q69 -62 69 -177q2 -135 -110 -223t-278 -86q-188 0 -299.5 89t-117.5 245zM874 1161h-137l-149 129l-202 -129h-137l290 273h141z" />
    <glyph glyph-name="Scedilla" unicode="&#x15e;" horiz-adv-x="1266" 
d="M408 1040q0 -136 179 -193l206 -67q324 -107 324 -377q3 -178 -141 -300t-367 -123l-16 -76q65 -10 100.5 -52.5t35.5 -105.5q0 -101 -70.5 -160.5t-173.5 -59.5h-160l27 126h141q48 0 77 25.5t29 69.5q0 30 -21.5 48.5t-59.5 18.5h-52l37 171q-212 21 -332 135t-120 290
q0 29 2 47h179v-34q0 -132 98 -204t248 -72h21q147 0 240.5 66t93.5 173q0 84 -56 141t-198 100l-149 47q-156 48 -231.5 132.5t-75.5 215.5q-2 121 68 221.5t191 156.5t263 54q220 3 364.5 -121.5t142.5 -300.5v-25h-184q-3 133 -89 207q-85 73 -230 73h-21
q-132 2 -227.5 -71t-92.5 -176z" />
    <glyph glyph-name="scedilla" unicode="&#x15f;" horiz-adv-x="980" 
d="M813 289q0 -134 -108 -220.5t-271 -88.5l-16 -76q65 -10 100.5 -52.5t35.5 -105.5q0 -101 -70.5 -160.5t-173.5 -59.5h-160l27 126h141q48 0 77 25.5t29 69.5q0 30 -21.5 48.5t-59.5 18.5h-52l38 173q-147 21 -231.5 106.5t-89.5 220.5h176q6 -91 68.5 -139.5
t161.5 -48.5h19q91 0 148.5 44t57.5 114q0 93 -130 135l-117 38q-122 41 -183.5 105t-61.5 161q-2 133 108 228t276 93q163 2 275.5 -89.5t113.5 -244.5h-176q-1 86 -64 137t-152 51h-19q-83 0 -137 -45.5t-54 -113.5q0 -92 125 -133l123 -40q112 -38 178 -100
q69 -62 69 -177z" />
    <glyph glyph-name="Scaron" unicode="&#x160;" horiz-adv-x="1266" 
d="M51 410q0 29 2 47h179v-34q0 -132 98 -204t248 -72h21q147 0 240.5 66t93.5 173q0 84 -56 141t-198 100l-149 47q-156 48 -231.5 132.5t-75.5 215.5q-2 121 68 221.5t191 156.5t263 54q220 3 364.5 -121.5t142.5 -300.5v-25h-184q-3 133 -89 207q-85 73 -230 73h-21
q-132 2 -227.5 -71t-92.5 -176q0 -136 179 -193l206 -67q324 -107 324 -377q3 -180 -144 -303t-374 -120q-254 0 -401 117.5t-147 312.5zM1084 1823h144l-301 -263h-222l-192 263h139l186 -133z" />
    <glyph glyph-name="scaron" unicode="&#x161;" horiz-adv-x="980" 
d="M8 314h176q6 -91 68.5 -139.5t161.5 -48.5h19q91 0 148.5 44t57.5 114q0 93 -130 135l-117 38q-122 41 -183.5 105t-61.5 161q-2 133 108 228t276 93q163 2 275.5 -89.5t113.5 -244.5h-176q-1 86 -64 137t-152 51h-19q-83 0 -137 -45.5t-54 -113.5q0 -92 125 -133
l123 -40q112 -38 178 -100q69 -62 69 -177q2 -135 -110 -223t-278 -86q-188 0 -299.5 89t-117.5 245zM813 1434h137l-290 -273h-141l-194 273h137l149 -129z" />
    <glyph glyph-name="uni0162" unicode="&#x162;" horiz-adv-x="1266" 
d="M206 1434h1208l-35 -168h-509l-269 -1266h-38l-20 -96q65 -10 100.5 -52.5t35.5 -105.5q0 -101 -70.5 -160.5t-173.5 -59.5h-160l27 126h141q48 0 77 25.5t29 69.5q0 30 -21.5 48.5t-59.5 18.5h-52l41 186h-41l270 1266h-515z" />
    <glyph glyph-name="uni0163" unicode="&#x163;" horiz-adv-x="791" 
d="M497 874l-135 -632q-3 -16 -3 -31q0 -27 21 -42t53 -15h223l-33 -154h-196l-20 -96q65 -10 100.5 -52.5t35.5 -105.5q0 -101 -70.5 -160.5t-173.5 -59.5h-160l27 126h141q48 0 77 25.5t29 69.5q0 30 -21.5 48.5t-59.5 18.5h-52l42 191q-67 12 -103 54.5t-36 109.5
q0 35 6 58l136 647h-237l31 150h240l72 332h170l-72 -332h258l-31 -150h-259z" />
    <glyph glyph-name="Tcaron" unicode="&#x164;" horiz-adv-x="1266" 
d="M416 0l270 1266h-515l35 168h1208l-35 -168h-509l-269 -1266h-185zM1108 1823h144l-301 -263h-222l-192 263h139l186 -133z" />
    <glyph glyph-name="tcaron" unicode="&#x165;" horiz-adv-x="791" 
d="M497 874l-135 -632q-3 -16 -3 -31q0 -27 21 -42t53 -15h223l-33 -154h-245q-93 0 -144 44t-51 125q0 35 6 58l136 647h-237l31 150h240l72 332h170l-72 -332h258l-31 -150h-259zM730 1113l19 92h21q51 0 75.5 19t37.5 69l2 8h-80l40 188h174l-39 -184
q-21 -101 -73 -146.5t-149 -45.5h-28z" />
    <glyph glyph-name="Tbar" unicode="&#x166;" horiz-adv-x="1328" 
d="M1408 1266h-509l-87 -408h379l-36 -164h-378l-147 -694h-185l148 694h-380l37 164h378l87 408h-515l35 168h1208z" />
    <glyph glyph-name="tbar" unicode="&#x167;" horiz-adv-x="820" 
d="M779 874h-259l-48 -226h259l-30 -139h-259l-57 -267q-3 -16 -3 -31q0 -27 21 -42t53 -15h223l-33 -154h-245q-93 0 -144 44t-51 125q0 35 6 58l59 282h-237l29 139h238l47 226h-237l31 150h240l72 332h170l-72 -332h258z" />
    <glyph glyph-name="Utilde" unicode="&#x168;" horiz-adv-x="1430" 
d="M154 415q0 84 19 173l180 846h184l-184 -865q-17 -82 -17 -142q0 -134 72 -206.5t212 -73.5h20q330 0 408 357l199 930h184l-209 -977q-49 -233 -203 -355t-407 -122q-215 0 -336.5 114.5t-121.5 320.5zM925 1598l-56 34l-26 16q-35 23 -63 23q-64 0 -84 -101h-140l6 29
q48 220 216 220q39 0 69.5 -12t80.5 -42l54 -34q57 -35 83 -35q68 0 88 101h140l-7 -31q-42 -216 -213 -216q-69 0 -148 48z" />
    <glyph glyph-name="utilde" unicode="&#x169;" horiz-adv-x="1153" 
d="M912 1024h174l-217 -1024h-174l32 154q-117 -174 -317 -174q-140 0 -228.5 82.5t-88.5 233.5q0 51 13 116l130 612h174l-132 -623q-10 -43 -10 -79q0 -90 47.5 -143t127.5 -53h19q119 0 210.5 99.5t126.5 266.5zM704 1201l-65 40q-48 29 -64 35q-18 9 -39 9
q-35 0 -53 -26t-33 -98h-130l9 40q40 210 199 210q37 0 68.5 -11.5t84.5 -42.5l65 -39l30 -18q46 -24 71 -24q38 0 57.5 27.5t32.5 95.5h130l-8 -39q-44 -210 -202 -210q-65 0 -153 51z" />
    <glyph glyph-name="Umacron" unicode="&#x16a;" horiz-adv-x="1430" 
d="M154 415q0 84 19 173l180 846h184l-184 -865q-17 -82 -17 -142q0 -134 72 -206.5t212 -73.5h20q330 0 408 357l199 930h184l-209 -977q-49 -233 -203 -355t-407 -122q-215 0 -336.5 114.5t-121.5 320.5zM608 1597l29 140h585l-30 -140h-584z" />
    <glyph glyph-name="umacron" unicode="&#x16b;" horiz-adv-x="1153" 
d="M912 1024h174l-217 -1024h-174l32 154q-117 -174 -317 -174q-140 0 -228.5 82.5t-88.5 233.5q0 51 13 116l130 612h174l-132 -623q-10 -43 -10 -79q0 -90 47.5 -143t127.5 -53h19q119 0 210.5 99.5t126.5 266.5zM390 1208l30 140h584l-30 -140h-584z" />
    <glyph glyph-name="Ubreve" unicode="&#x16c;" horiz-adv-x="1430" 
d="M154 415q0 84 19 173l180 846h184l-184 -865q-17 -82 -17 -142q0 -134 72 -206.5t212 -73.5h20q330 0 408 357l199 930h184l-209 -977q-49 -233 -203 -355t-407 -122q-215 0 -336.5 114.5t-121.5 320.5zM641 1774q0 22 4 49h139q-2 -16 -2 -26q0 -59 38.5 -91.5
t108.5 -32.5q72 0 124.5 39t72.5 111h139q-19 -137 -116 -211q-95 -73 -236 -73q-123 0 -197.5 65t-74.5 170z" />
    <glyph glyph-name="ubreve" unicode="&#x16d;" horiz-adv-x="1153" 
d="M912 1024h174l-217 -1024h-174l32 154q-117 -174 -317 -174q-140 0 -228.5 82.5t-88.5 233.5q0 51 13 116l130 612h174l-132 -623q-10 -43 -10 -79q0 -90 47.5 -143t127.5 -53h19q119 0 210.5 99.5t126.5 266.5zM435 1384q0 23 3 50h130q-3 -16 -3 -34q0 -66 39.5 -101.5
t107.5 -35.5t119.5 43t77.5 128h130q-36 -142 -126 -218t-213 -76t-194 64t-71 180z" />
    <glyph glyph-name="Uring" unicode="&#x16e;" horiz-adv-x="1430" 
d="M154 415q0 84 19 173l180 846h184l-184 -865q-17 -82 -17 -142q0 -134 72 -206.5t212 -73.5h20q330 0 408 357l199 930h184l-209 -977q-49 -233 -203 -355t-407 -122q-215 0 -336.5 114.5t-121.5 320.5zM740 1720q0 74 52.5 125.5t123.5 51.5t124 -51.5t53 -125.5
t-53 -125t-124 -51t-123.5 51t-52.5 125zM986 1720q0 28 -20 49t-48 21q-27 0 -48 -21t-21 -49t21 -48.5t48 -20.5q28 0 48 20.5t20 48.5z" />
    <glyph glyph-name="uring" unicode="&#x16f;" horiz-adv-x="1153" 
d="M912 1024h174l-217 -1024h-174l32 154q-117 -174 -317 -174q-140 0 -228.5 82.5t-88.5 233.5q0 51 13 116l130 612h174l-132 -623q-10 -43 -10 -79q0 -90 47.5 -143t127.5 -53h19q119 0 210.5 99.5t126.5 266.5zM533 1326q0 78 56 132.5t131 54.5t131 -54.5t56 -132.5
t-56 -132.5t-131 -54.5t-131 54.5t-56 132.5zM810 1326q0 38 -25.5 64.5t-62.5 26.5t-63.5 -27t-26.5 -64t26.5 -63.5t63.5 -26.5t62.5 26.5t25.5 63.5z" />
    <glyph glyph-name="Uhungarumlaut" unicode="&#x170;" horiz-adv-x="1430" 
d="M154 415q0 84 19 173l180 846h184l-184 -865q-17 -82 -17 -142q0 -134 72 -206.5t212 -73.5h20q330 0 408 357l199 930h184l-209 -977q-49 -233 -203 -355t-407 -122q-215 0 -336.5 114.5t-121.5 320.5zM652 1560l101 263h218l-182 -263h-137zM988 1560l101 263h218
l-182 -263h-137z" />
    <glyph glyph-name="uhungarumlaut" unicode="&#x171;" horiz-adv-x="1153" 
d="M912 1024h174l-217 -1024h-174l32 154q-117 -174 -317 -174q-140 0 -228.5 82.5t-88.5 233.5q0 51 13 116l130 612h174l-132 -623q-10 -43 -10 -79q0 -90 47.5 -143t127.5 -53h19q119 0 210.5 99.5t126.5 266.5zM430 1161l114 273h191l-182 -273h-123zM756 1161l114 273
h191l-183 -273h-122z" />
    <glyph glyph-name="Uogonek" unicode="&#x172;" horiz-adv-x="1430" 
d="M1247 1434h184l-209 -977q-40 -192 -153 -309.5t-295 -152.5q-85 -41 -140 -93q-55 -54 -55 -109q0 -42 23.5 -61t77.5 -19h73l-26 -126h-84q-197 0 -197 156q0 70 44 131.5t118 105.5q-212 0 -333 115t-121 320q0 84 19 173l180 846h184l-184 -865q-17 -82 -17 -142
q0 -134 72 -206.5t212 -73.5h20q330 0 408 357z" />
    <glyph glyph-name="uogonek" unicode="&#x173;" horiz-adv-x="1153" 
d="M912 1024h174l-217 -1024h-1q-89 -39 -148 -94q-59 -56 -59 -113q0 -42 23.5 -61t77.5 -19h73l-26 -126h-84q-197 0 -197 156q0 83 59 151q60 69 141 106h-33l32 154q-117 -174 -317 -174q-140 0 -228.5 82.5t-88.5 233.5q0 51 13 116l130 612h174l-132 -623
q-10 -43 -10 -79q0 -90 47.5 -143t127.5 -53h19q119 0 210.5 99.5t126.5 266.5z" />
    <glyph glyph-name="Wcircumflex" unicode="&#x174;" horiz-adv-x="1904" 
d="M1837 1434h198l-664 -1434h-241l-43 1251l-565 -1251h-243l-58 1434h189l25 -1252l573 1252h232l43 -1255zM1496 1560h-129l-187 132l-245 -132h-154l301 263h222z" />
    <glyph glyph-name="wcircumflex" unicode="&#x175;" horiz-adv-x="1581" 
d="M1436 1024h191l-536 -1024h-203l-57 821l-405 -821h-203l-97 1024h171l61 -840l411 840h191l64 -839zM1184 1161h-137l-149 129l-202 -129h-137l290 273h141z" />
    <glyph glyph-name="Ycircumflex" unicode="&#x176;" horiz-adv-x="1279" 
d="M1449 1434l-720 -847l-126 -587h-184l126 591l-363 843h202l284 -666l553 666h228zM1173 1560h-129l-187 132l-245 -132h-154l301 263h222z" />
    <glyph glyph-name="ycircumflex" unicode="&#x177;" horiz-adv-x="1092" 
d="M1163 1024l-643 -988l-45 -209q-21 -95 -77 -143.5t-141 -48.5h-338l33 153h257q44 0 68 23t36 78l32 151l-213 984h181l161 -763l494 763h195zM952 1161h-137l-149 129l-202 -129h-137l290 273h141z" />
    <glyph glyph-name="Ydieresis" unicode="&#x178;" horiz-adv-x="1279" 
d="M1449 1434l-720 -847l-126 -587h-184l126 591l-363 843h202l284 -666l553 666h228zM545 1597l40 192h195l-40 -192h-195zM935 1597l41 192h195l-40 -192h-196z" />
    <glyph glyph-name="Zacute" unicode="&#x179;" horiz-adv-x="1246" 
d="M1320 1434l-38 -192l-1075 -1075h865l-35 -167h-1080l40 189l1078 1077h-830l36 168h1039zM760 1560l101 263h218l-182 -263h-137z" />
    <glyph glyph-name="zacute" unicode="&#x17a;" horiz-adv-x="995" 
d="M981 1024l-38 -177l-758 -697h639l-31 -150h-835l38 177l756 697h-597l31 150h795zM521 1161l114 273h191l-182 -273h-123z" />
    <glyph glyph-name="Zdotaccent" unicode="&#x17b;" horiz-adv-x="1246" 
d="M1320 1434l-38 -192l-1075 -1075h865l-35 -167h-1080l40 189l1078 1077h-830l36 168h1039zM738 1597l43 209h194l-43 -209h-194z" />
    <glyph glyph-name="zdotaccent" unicode="&#x17c;" horiz-adv-x="995" 
d="M981 1024l-38 -177l-758 -697h639l-31 -150h-835l38 177l756 697h-597l31 150h795zM490 1208l43 209h195l-43 -209h-195z" />
    <glyph glyph-name="Zcaron" unicode="&#x17d;" horiz-adv-x="1246" 
d="M1320 1434l-38 -192l-1075 -1075h865l-35 -167h-1080l40 189l1078 1077h-830l36 168h1039zM1099 1823h144l-301 -263h-222l-192 263h139l186 -133z" />
    <glyph glyph-name="zcaron" unicode="&#x17e;" horiz-adv-x="995" 
d="M981 1024l-38 -177l-758 -697h639l-31 -150h-835l38 177l756 697h-597l31 150h795zM815 1434h137l-290 -273h-141l-194 273h137l149 -129z" />
    <glyph glyph-name="florin" unicode="&#x192;" horiz-adv-x="857" 
d="M611 1063l-36 -156l287 64l-35 -166l-290 -65l-179 -779q-46 -199 -155 -285q-107 -86 -286 -86h-103l35 161h75q106 0 167.5 54t88.5 164l167 728l-268 -60l34 166l273 61l46 201q42 184 150 276.5t270 92.5h125l-37 -161h-84q-197 0 -245 -210z" />
    <glyph glyph-name="uni01E2" unicode="&#x1e2;" horiz-adv-x="2038" 
d="M-130 0l1157 1434h991l-36 -168h-712l-34 -445h623l-36 -167h-599l-37 -487h717l-36 -167h-864l30 378h-646l-299 -378h-219zM520 545h528l60 745zM1258 1597l29 140h585l-30 -140h-584z" />
    <glyph glyph-name="uni01E3" unicode="&#x1e3;" horiz-adv-x="1791" 
d="M33 277q-3 154 121.5 250t315.5 94h294q12 74 12 92q0 81 -59.5 133t-153.5 52h-20q-83 0 -148.5 -46.5t-81.5 -121.5h-174q19 138 140 227t293 87q113 0 198 -45.5t127 -126.5q153 172 390 172q170 2 283 -105.5t111 -287.5q0 -62 -23 -163h-745q-1 -8 -1 -35
q0 -148 80 -237.5t208 -89.5h11q93 0 161 46.5t98 127.5h175q-44 -151 -162 -235.5t-298 -84.5q-138 0 -241 64t-154 181q-129 -245 -415 -245q-142 -2 -243 82.5t-99 214.5zM937 628h573q3 17 3 55q0 100 -64.5 157.5t-176.5 57.5h-19q-112 0 -197 -74q-83 -74 -119 -196z
M394 126h8q114 0 203 76t114 201l16 78h-265q-122 0 -194.5 -54t-72.5 -142q0 -73 54 -116q55 -43 137 -43zM683 1208l30 140h584l-30 -140h-584z" />
    <glyph glyph-name="Aringacute" unicode="&#x1fa;" horiz-adv-x="1394" 
d="M1073 0l-67 378h-702l-228 -378h-192l873 1434h239l255 -1434h-178zM405 545h572l-130 732zM903 1901l69 180h179l-138 -180h-110zM756 1686q0 66 47.5 112t110.5 46q64 0 110.5 -45.5t46.5 -112.5t-46.5 -112.5t-110.5 -45.5t-111 45t-47 113zM974 1686q0 25 -17.5 42.5
t-40.5 17.5q-26 0 -44 -17t-18 -43t18 -43t44 -17q24 0 41 17t17 43z" />
    <glyph glyph-name="aringacute" unicode="&#x1fb;" horiz-adv-x="1222" 
d="M75 422q-2 179 67 323.5t186.5 222.5t256.5 76q124 0 221 -62.5t133 -154.5l42 197h174l-217 -1024h-169l28 132q-123 -152 -323 -152q-170 -2 -286 120t-113 322zM493 126h19q79 -2 149 37.5t117.5 106t74.5 152.5t26 175q0 132 -74 216.5t-187 84.5h-19
q-66 1 -129.5 -32t-113 -92t-79 -147t-28.5 -190q0 -136 67 -223.5t177 -87.5zM691 1569l114 273h191l-183 -273h-122zM536 1321q0 78 56 132.5t131 54.5t131 -54.5t56 -132.5q0 -79 -55.5 -133t-131.5 -54t-131.5 54t-55.5 133zM814 1321q0 38 -26 64.5t-63 26.5t-63.5 -27
t-26.5 -64t26.5 -64t63.5 -27t63 26.5t26 64.5z" />
    <glyph glyph-name="AEacute" unicode="&#x1fc;" horiz-adv-x="2038" 
d="M-130 0l1157 1434h991l-36 -168h-712l-34 -445h623l-36 -167h-599l-37 -487h717l-36 -167h-864l30 378h-646l-299 -378h-219zM520 545h528l60 745zM1481 1560l101 263h218l-182 -263h-137z" />
    <glyph glyph-name="aeacute" unicode="&#x1fd;" horiz-adv-x="1791" 
d="M33 277q-3 154 121.5 250t315.5 94h294q12 74 12 92q0 81 -59.5 133t-153.5 52h-20q-83 0 -148.5 -46.5t-81.5 -121.5h-174q19 138 140 227t293 87q113 0 198 -45.5t127 -126.5q153 172 390 172q170 2 283 -105.5t111 -287.5q0 -62 -23 -163h-745q-1 -8 -1 -35
q0 -148 80 -237.5t208 -89.5h11q93 0 161 46.5t98 127.5h175q-44 -151 -162 -235.5t-298 -84.5q-138 0 -241 64t-154 181q-129 -245 -415 -245q-142 -2 -243 82.5t-99 214.5zM937 628h573q3 17 3 55q0 100 -64.5 157.5t-176.5 57.5h-19q-112 0 -197 -74q-83 -74 -119 -196z
M394 126h8q114 0 203 76t114 201l16 78h-265q-122 0 -194.5 -54t-72.5 -142q0 -73 54 -116q55 -43 137 -43zM923 1161l114 273h191l-182 -273h-123z" />
    <glyph glyph-name="Oslashacute" unicode="&#x1fe;" horiz-adv-x="1563" 
d="M1586 1323l-177 -164q77 -143 77 -328q0 -230 -92 -426q-93 -196 -263 -310q-172 -115 -402 -115q-259 0 -425 160l-164 -152l-112 121l176 163q-77 142 -77 323q0 235 95 433q95 197 266 311q172 115 394 115q260 0 427 -162l165 152zM348 404l825 762
q-118 121 -296 121h-21q-157 3 -283.5 -89.5t-194.5 -247.5t-66 -338q0 -114 36 -208zM1263 1025l-825 -762q113 -116 297 -116h20q159 0 284 89q123 87 193 241q69 151 69 335q0 116 -38 213zM882 1560l101 263h218l-182 -263h-137z" />
    <glyph glyph-name="oslashacute" unicode="&#x1ff;" horiz-adv-x="1174" 
d="M1148 969l-144 -136q58 -107 58 -253q2 -165 -70.5 -304.5t-197.5 -219t-272 -76.5q-190 0 -307 106l-135 -128l-89 104l141 133q-56 107 -56 249q-3 163 70 302.5t198.5 220t271.5 77.5q184 0 303 -102l128 121zM268 324l530 502q-72 72 -181 72h-19q-64 1 -126.5 -31
t-112.5 -89t-80.5 -143t-28.5 -184q0 -69 18 -127zM869 705l-532 -504q72 -75 183 -75h19q64 -2 126.5 30.5t112.5 89.5t80.5 143t29.5 184q0 71 -19 132zM598 1161l114 273h191l-182 -273h-123z" />
    <glyph glyph-name="uni0218" unicode="&#x218;" horiz-adv-x="1266" 
d="M51 410q0 29 2 47h179v-34q0 -132 98 -204t248 -72h21q147 0 240.5 66t93.5 173q0 84 -56 141t-198 100l-149 47q-156 48 -231.5 132.5t-75.5 215.5q-2 121 68 221.5t191 156.5t263 54q220 3 364.5 -121.5t142.5 -300.5v-25h-184q-3 133 -89 207q-85 73 -230 73h-21
q-132 2 -227.5 -71t-92.5 -176q0 -136 179 -193l206 -67q324 -107 324 -377q3 -180 -144 -303t-374 -120q-254 0 -401 117.5t-147 312.5zM316 -560l19 92h21q51 0 75.5 19t37.5 69l2 8h-80l40 188h174l-39 -184q-21 -101 -73 -146.5t-149 -45.5h-28z" />
    <glyph glyph-name="uni0219" unicode="&#x219;" horiz-adv-x="980" 
d="M8 314h176q6 -91 68.5 -139.5t161.5 -48.5h19q91 0 148.5 44t57.5 114q0 93 -130 135l-117 38q-122 41 -183.5 105t-61.5 161q-2 133 108 228t276 93q163 2 275.5 -89.5t113.5 -244.5h-176q-1 86 -64 137t-152 51h-19q-83 0 -137 -45.5t-54 -113.5q0 -92 125 -133
l123 -40q112 -38 178 -100q69 -62 69 -177q2 -135 -110 -223t-278 -86q-188 0 -299.5 89t-117.5 245zM141 -560l19 92h21q51 0 75.5 19t37.5 69l2 8h-80l40 188h174l-39 -184q-21 -101 -73 -146.5t-149 -45.5h-28z" />
    <glyph glyph-name="uni021A" unicode="&#x21a;" horiz-adv-x="1266" 
d="M416 0l270 1266h-515l35 168h1208l-35 -168h-509l-269 -1266h-185zM266 -560l19 92h21q51 0 75.5 19t37.5 69l2 8h-80l40 188h174l-39 -184q-21 -101 -73 -146.5t-149 -45.5h-28z" />
    <glyph glyph-name="uni021B" unicode="&#x21b;" horiz-adv-x="791" 
d="M497 874l-135 -632q-3 -16 -3 -31q0 -27 21 -42t53 -15h223l-33 -154h-245q-93 0 -144 44t-51 125q0 35 6 58l136 647h-237l31 150h240l72 332h170l-72 -332h258l-31 -150h-259zM130 -560l19 92h21q51 0 75.5 19t37.5 69l2 8h-80l40 188h174l-39 -184
q-21 -101 -73 -146.5t-149 -45.5h-28z" />
    <glyph glyph-name="uni0226" unicode="&#x226;" horiz-adv-x="1394" 
d="M1073 0l-67 378h-702l-228 -378h-192l873 1434h239l255 -1434h-178zM405 545h572l-130 732zM814 1597l43 209h194l-43 -209h-194z" />
    <glyph glyph-name="uni0227" unicode="&#x227;" horiz-adv-x="1222" 
d="M75 422q-2 179 67 323.5t186.5 222.5t256.5 76q124 0 221 -62.5t133 -154.5l42 197h174l-217 -1024h-169l28 132q-123 -152 -323 -152q-170 -2 -286 120t-113 322zM493 126h19q79 -2 149 37.5t117.5 106t74.5 152.5t26 175q0 132 -74 216.5t-187 84.5h-19
q-66 1 -129.5 -32t-113 -92t-79 -147t-28.5 -190q0 -136 67 -223.5t177 -87.5zM606 1208l43 209h195l-43 -209h-195z" />
    <glyph glyph-name="uni0232" unicode="&#x232;" horiz-adv-x="1279" 
d="M1449 1434l-720 -847l-126 -587h-184l126 591l-363 843h202l284 -666l553 666h228zM539 1597l29 140h585l-30 -140h-584z" />
    <glyph glyph-name="uni0233" unicode="&#x233;" horiz-adv-x="1092" 
d="M1163 1024l-643 -988l-45 -209q-21 -95 -77 -143.5t-141 -48.5h-338l33 153h257q44 0 68 23t36 78l32 151l-213 984h181l161 -763l494 763h195zM357 1208l30 140h584l-30 -140h-584z" />
    <glyph glyph-name="uni0237" unicode="&#x237;" horiz-adv-x="506" 
d="M-339 -365l32 153h240q71 0 87 84l244 1152h174l-252 -1197q-38 -192 -215 -192h-310z" />
    <glyph glyph-name="uni02BC" unicode="&#x2bc;" horiz-adv-x="530" 
d="M185 931l24 116h38q148 0 174 123l7 31h-129l49 232h243l-54 -252q-26 -123 -103 -186.5t-200 -63.5h-49z" />
    <glyph glyph-name="circumflex" unicode="&#x2c6;" horiz-adv-x="748" 
d="M824 1161h-137l-149 129l-202 -129h-137l290 273h141z" />
    <glyph glyph-name="caron" unicode="&#x2c7;" horiz-adv-x="748" 
d="M746 1434h137l-290 -273h-141l-194 273h137l149 -129z" />
    <glyph glyph-name="breve" unicode="&#x2d8;" horiz-adv-x="724" 
d="M255 1384q0 23 3 50h130q-3 -16 -3 -34q0 -66 39.5 -101.5t107.5 -35.5t119.5 43t77.5 128h130q-36 -142 -126 -218t-213 -76t-194 64t-71 180z" />
    <glyph glyph-name="dotaccent" unicode="&#x2d9;" horiz-adv-x="319" 
d="M211 1208l43 209h195l-43 -209h-195z" />
    <glyph glyph-name="ring" unicode="&#x2da;" horiz-adv-x="505" 
d="M239 1326q0 78 56 132.5t131 54.5t131 -54.5t56 -132.5t-56 -132.5t-131 -54.5t-131 54.5t-56 132.5zM516 1326q0 38 -25.5 64.5t-62.5 26.5t-63.5 -27t-26.5 -64t26.5 -63.5t63.5 -26.5t62.5 26.5t25.5 63.5z" />
    <glyph glyph-name="ogonek" unicode="&#x2db;" horiz-adv-x="442" 
d="M-97 -257q-2 91 75 169t171 106l94 -18q-89 -39 -148 -94q-59 -56 -59 -113q0 -42 23.5 -61t77.5 -19h73l-26 -126h-84q-197 0 -197 156z" />
    <glyph glyph-name="tilde" unicode="&#x2dc;" horiz-adv-x="820" 
d="M583 1201l-65 40q-48 29 -64 35q-18 9 -39 9q-35 0 -53 -26t-33 -98h-130l9 40q40 210 199 210q37 0 68.5 -11.5t84.5 -42.5l65 -39l30 -18q46 -24 71 -24q38 0 57.5 27.5t32.5 95.5h130l-8 -39q-44 -210 -202 -210q-65 0 -153 51z" />
    <glyph glyph-name="hungarumlaut" unicode="&#x2dd;" horiz-adv-x="695" 
d="M199 1161l114 273h191l-182 -273h-123zM525 1161l114 273h191l-183 -273h-122z" />
    <glyph glyph-name="gravecomb" unicode="&#x300;" horiz-adv-x="0" 
d="M-46 1161l-183 273h191l114 -273h-122z" />
    <glyph glyph-name="acutecomb" unicode="&#x301;" horiz-adv-x="0" 
d="M-170 1161l114 273h191l-182 -273h-123z" />
    <glyph glyph-name="uni0302" unicode="&#x302;" horiz-adv-x="0" 
d="M76 1161h-137l-149 129l-202 -129h-137l290 273h141z" />
    <glyph glyph-name="tildecomb" unicode="&#x303;" horiz-adv-x="0" 
d="M-237 1201l-65 40q-48 29 -63 35q-20 9 -40 9q-35 0 -53 -26t-33 -98h-130l9 40q40 210 199 210q37 0 68.5 -11.5t84.5 -42.5l65 -39l31 -18q43 -24 70 -24q38 0 57.5 27.5t32.5 95.5h130l-8 -39q-44 -210 -202 -210q-65 0 -153 51z" />
    <glyph glyph-name="uni0304" unicode="&#x304;" horiz-adv-x="0" 
d="M-498 1208l30 140h584l-30 -140h-584z" />
    <glyph glyph-name="uni0306" unicode="&#x306;" horiz-adv-x="0" 
d="M-469 1384q0 23 3 50h130q-3 -16 -3 -34q0 -66 39.5 -101.5t107.5 -35.5t119.5 43t77.5 128h130q-36 -142 -126 -218t-213 -76t-194 64t-71 180z" />
    <glyph glyph-name="uni0307" unicode="&#x307;" horiz-adv-x="0" 
d="M-108 1208l43 209h195l-43 -209h-195z" />
    <glyph glyph-name="uni0308" unicode="&#x308;" horiz-adv-x="0" 
d="M-484 1208l44 198h188l-44 -198h-188zM-105 1208l44 198h188l-44 -198h-188z" />
    <glyph glyph-name="uni030A" unicode="&#x30a;" horiz-adv-x="0" 
d="M-266 1326q0 78 56 132.5t131 54.5t131 -54.5t56 -132.5t-56 -132.5t-131 -54.5t-131 54.5t-56 132.5zM11 1326q0 38 -25.5 64.5t-62.5 26.5t-63.5 -27t-26.5 -64t26.5 -63.5t63.5 -26.5t62.5 26.5t25.5 63.5z" />
    <glyph glyph-name="uni030B" unicode="&#x30b;" horiz-adv-x="0" 
d="M-496 1161l114 273h191l-182 -273h-123zM-170 1161l114 273h191l-183 -273h-122z" />
    <glyph glyph-name="uni030C" unicode="&#x30c;" horiz-adv-x="0" 
d="M-2 1434h137l-290 -273h-141l-194 273h137l149 -129z" />
    <glyph glyph-name="uni0312" unicode="&#x312;" horiz-adv-x="0" 
d="M195 1598l-19 -92h-21q-51 0 -75.5 -19t-37.5 -69l-2 -8h80l-40 -188h-174l39 184q21 101 73 146.5t149 45.5h28z" />
    <glyph glyph-name="dotbelowcomb" unicode="&#x323;" horiz-adv-x="0" 
d="M-424 -372l40 188h174l-40 -188h-174z" />
    <glyph glyph-name="uni0326" unicode="&#x326;" horiz-adv-x="0" 
d="M-506 -560l19 92h21q51 0 75.5 19t37.5 69l2 8h-80l40 188h174l-39 -184q-21 -101 -73 -146.5t-149 -45.5h-28z" />
    <glyph glyph-name="uni0327" unicode="&#x327;" horiz-adv-x="0" 
d="M-634 -474l27 126h141q48 0 77 25.5t29 69.5q0 30 -21.5 48.5t-59.5 18.5h-52l46 211h106l-25 -121q65 -10 100.5 -52.5t35.5 -105.5q0 -101 -70.5 -160.5t-173.5 -59.5h-160z" />
    <glyph glyph-name="uni0328" unicode="&#x328;" horiz-adv-x="0" 
d="M-539 -257q-2 91 75 169t171 106l94 -18q-89 -39 -147 -94q-60 -55 -60 -113q0 -42 23.5 -61t77.5 -19h73l-26 -126h-84q-197 0 -197 156z" />
    <glyph glyph-name="uni0335" unicode="&#x335;" horiz-adv-x="0" 
d="M-966 696l37 164h941l-36 -164h-942z" />
    <glyph glyph-name="uni0336" unicode="&#x336;" horiz-adv-x="0" 
d="M-1481 1051l32 150h1533l-32 -150h-1533z" />
    <glyph glyph-name="uni0337" unicode="&#x337;" horiz-adv-x="0" 
d="M-552 593l38 179l564 269l-39 -179z" />
    <glyph glyph-name="uni0338" unicode="&#x338;" horiz-adv-x="0" 
d="M-1334 -11l-112 121l1446 1335l112 -121z" />
    <glyph glyph-name="uni037E" unicode="&#x37e;" horiz-adv-x="573" 
d="M-67 -270l24 116h38q148 0 174 123l7 31h-129l49 232h243l-54 -252q-26 -123 -103 -186.5t-200 -63.5h-49zM222 792l50 232h232l-50 -232h-232z" />
    <glyph glyph-name="tonos" unicode="&#x384;" horiz-adv-x="1057" 
d="M540 1161l114 273h191l-182 -273h-123z" />
    <glyph glyph-name="dieresistonos" unicode="&#x385;" horiz-adv-x="747" 
d="M309 1155l105 279h200l-189 -279h-116zM71 1155l40 187h175l-41 -187h-174zM565 1155l41 187h174l-41 -187h-174z" />
    <glyph glyph-name="Alphatonos" unicode="&#x386;" horiz-adv-x="1433" 
d="M1111 0l-67 378h-702l-228 -378h-192l873 1434h239l255 -1434h-178zM443 545h572l-130 732zM245 1161l114 273h191l-182 -273h-123z" />
    <glyph glyph-name="anoteleia" unicode="&#x387;" horiz-adv-x="489" 
d="M136 594l45 209h209l-45 -209h-209z" />
    <glyph glyph-name="Epsilontonos" unicode="&#x388;" horiz-adv-x="1516" 
d="M252 0l305 1434h1031l-35 -168h-847l-95 -445h724l-36 -167h-723l-104 -487h867l-36 -167h-1051zM133 1161l114 273h191l-182 -273h-123z" />
    <glyph glyph-name="Etatonos" unicode="&#x389;" horiz-adv-x="1693" 
d="M252 0l305 1434h185l-135 -633h755l134 633h184l-305 -1434h-184l135 634h-754l-136 -634h-184zM133 1161l114 273h191l-182 -273h-123z" />
    <glyph glyph-name="Iotatonos" unicode="&#x38a;" horiz-adv-x="754" 
d="M252 0l305 1434h185l-306 -1434h-184zM133 1161l114 273h191l-182 -273h-123z" />
    <glyph glyph-name="Omicrontonos" unicode="&#x38c;" horiz-adv-x="1696" 
d="M261 595q0 235 95 433q95 197 266 311q172 115 394 115q175 2 313.5 -76.5t215.5 -222t75 -324.5q0 -230 -92 -426q-93 -196 -263 -310q-172 -115 -402 -115q-172 -2 -310 74.5t-216 218.5t-76 322zM869 147h20q159 0 284 89q123 87 193 241q69 152 69 335
q2 208 -118.5 343t-305.5 132h-21q-157 3 -283.5 -89.5t-194.5 -247.5t-66 -338q-2 -208 116 -337.5t307 -127.5zM138 1161l114 273h191l-182 -273h-123z" />
    <glyph glyph-name="Upsilontonos" unicode="&#x38e;" horiz-adv-x="1623" 
d="M1794 1434l-720 -847l-126 -587h-184l126 591l-363 843h202l284 -666l553 666h228zM179 1161l114 273h191l-182 -273h-123z" />
    <glyph glyph-name="Omegatonos" unicode="&#x38f;" horiz-adv-x="1750" 
d="M188 0l35 167h274q-221 167 -221 486q0 228 104 412q105 182 279 286q173 103 374 103q269 3 433 -175t162 -463q0 -420 -337 -649h256l-35 -167h-502l36 167q188 101 291 253q105 153 105 376q2 224 -113.5 358.5t-293.5 132.5h-23q-138 0 -266 -78q-126 -76 -206 -222
q-79 -145 -79 -337q0 -340 269 -483l-34 -167h-508zM145 1161l114 273h191l-182 -273h-123z" />
    <glyph glyph-name="iotadieresistonos" unicode="&#x390;" horiz-adv-x="536" 
d="M66 167q0 40 7 69l167 788h174l-166 -784q-4 -17 -4 -29q0 -27 21.5 -42t55.5 -15h64l-33 -154h-96q-89 0 -139.5 43.5t-50.5 123.5zM286 1155l105 279h200l-189 -279h-116zM48 1155l40 187h175l-41 -187h-174zM542 1155l41 187h174l-41 -187h-174z" />
    <glyph glyph-name="Alpha" unicode="&#x391;" horiz-adv-x="1394" 
d="M1073 0l-67 378h-702l-228 -378h-192l873 1434h239l255 -1434h-178zM405 545h572l-130 732z" />
    <glyph glyph-name="Beta" unicode="&#x392;" horiz-adv-x="1374" 
d="M64 0l305 1434h542q189 0 303 -90.5t114 -253.5q0 -139 -86.5 -241.5t-224.5 -136.5q94 -34 147.5 -111t53.5 -180q1 -82 -33 -159.5t-93.5 -135.5t-144.5 -92.5t-179 -33.5h-704zM421 810h441q119 0 200.5 72.5t81.5 185.5q0 102 -64.5 150t-197.5 48h-364zM284 167h465
q120 0 202.5 69t82.5 202q0 96 -61 150.5t-174 54.5h-414z" />
    <glyph glyph-name="Gamma" unicode="&#x393;" horiz-adv-x="1169" 
d="M64 0l305 1434h956l-37 -168h-770l-270 -1266h-184z" />
    <glyph glyph-name="uni0394" unicode="&#x394;" horiz-adv-x="1398" 
d="M990 1434l265 -1351l-17 -83h-1333l17 83l842 1351h226zM848 1261l-679 -1094h894z" />
    <glyph glyph-name="Epsilon" unicode="&#x395;" horiz-adv-x="1328" 
d="M64 0l305 1434h1031l-35 -168h-847l-95 -445h724l-36 -167h-723l-104 -487h867l-36 -167h-1051z" />
    <glyph glyph-name="Zeta" unicode="&#x396;" horiz-adv-x="1246" 
d="M1320 1434l-38 -192l-1075 -1075h865l-35 -167h-1080l40 189l1078 1077h-830l36 168h1039z" />
    <glyph glyph-name="Eta" unicode="&#x397;" horiz-adv-x="1505" 
d="M64 0l305 1434h185l-135 -633h755l134 633h184l-305 -1434h-184l135 634h-754l-136 -634h-184z" />
    <glyph glyph-name="Theta" unicode="&#x398;" horiz-adv-x="1558" 
d="M126 616q0 235 100 426q101 192 275 302q176 110 388 110q174 2 310 -78.5t210 -226t72 -331.5q0 -221 -91 -413q-92 -192 -261 -309q-170 -116 -396 -116q-132 -1 -245 43.5t-193.5 126.5t-125 202t-43.5 264zM732 147h23q145 0 269 84q126 85 199 233q74 150 74 333
q2 221 -114.5 356.5t-293.5 133.5h-23q-148 0 -276 -84t-204 -234q-76 -148 -76 -338q-2 -225 115 -355.5t307 -128.5zM468 654l35 167h638l-35 -167h-638z" />
    <glyph glyph-name="Iota" unicode="&#x399;" horiz-adv-x="567" 
d="M64 0l305 1434h185l-306 -1434h-184z" />
    <glyph glyph-name="Kappa" unicode="&#x39a;" horiz-adv-x="1452" 
d="M1546 1434l-739 -615l554 -819h-222l-474 701l-324 -270l-90 -431h-185l301 1434h185l-156 -745l888 745h262z" />
    <glyph glyph-name="Lambda" unicode="&#x39b;" horiz-adv-x="1387" 
d="M1243 0h-184l-219 1261l-752 -1261h-202l864 1434h242z" />
    <glyph glyph-name="Mu" unicode="&#x39c;" horiz-adv-x="1911" 
d="M1591 1434h307l-305 -1434h-185l272 1275l-725 -1275h-243l-190 1283l-274 -1283h-184l305 1434h303l189 -1284z" />
    <glyph glyph-name="Nu" unicode="&#x39d;" horiz-adv-x="1526" 
d="M1328 1434h185l-305 -1434h-250l-447 1236l-263 -1236h-184l305 1434h253l445 -1230z" />
    <glyph glyph-name="Xi" unicode="&#x39e;" horiz-adv-x="1297" 
d="M259 1259l35 175h1065l-37 -175h-1063zM230 654l36 167h863l-37 -167h-862zM-29 0l37 175h1103l-35 -175h-1105z" />
    <glyph glyph-name="Omicron" unicode="&#x39f;" horiz-adv-x="1559" 
d="M124 595q0 235 95 433q95 197 266 311q172 115 394 115q175 2 313.5 -76.5t215.5 -222t75 -324.5q0 -230 -92 -426q-93 -196 -263 -310q-172 -115 -402 -115q-172 -2 -310 74.5t-216 218.5t-76 322zM732 147h20q159 0 284 89q123 87 193 241q69 151 69 335
q2 208 -118.5 343t-305.5 132h-21q-157 3 -283.5 -89.5t-194.5 -247.5t-66 -338q-2 -208 116 -337.5t307 -127.5z" />
    <glyph glyph-name="Pi" unicode="&#x3a0;" horiz-adv-x="1496" 
d="M64 0l305 1434h1114l-305 -1434h-185l269 1266h-744l-270 -1266h-184z" />
    <glyph glyph-name="Rho" unicode="&#x3a1;" horiz-adv-x="1302" 
d="M64 0l305 1434h499q200 1 325 -107.5t123 -276.5q2 -203 -132.5 -341.5t-345.5 -136.5h-467l-123 -572h-184zM406 739h431q128 0 210.5 81t82.5 214q0 110 -75.5 171t-223.5 61h-313z" />
    <glyph glyph-name="Sigma" unicode="&#x3a3;" horiz-adv-x="1255" 
d="M1335 1434l-37 -168h-844l390 -514l-619 -585h861l-35 -167h-1090l40 190l608 572l-370 489l40 183h1056z" />
    <glyph glyph-name="Tau" unicode="&#x3a4;" horiz-adv-x="1266" 
d="M416 0l270 1266h-515l35 168h1208l-35 -168h-509l-269 -1266h-185z" />
    <glyph glyph-name="Upsilon" unicode="&#x3a5;" horiz-adv-x="1279" 
d="M1449 1434l-720 -847l-126 -587h-184l126 591l-363 843h202l284 -666l553 666h228z" />
    <glyph glyph-name="Phi" unicode="&#x3a6;" horiz-adv-x="1755" 
d="M649 -49l33 151q-152 9 -280 76t-207 187q-77 119 -77 273q-2 168 60.5 301.5t172 217.5t252.5 128t307 43h33l32 152h183l-33 -154q249 -16 408.5 -161t156.5 -364q2 -160 -57.5 -293t-165 -222t-251.5 -137t-316 -47h-35l-33 -151h-183zM715 261l194 910h-13
q-279 0 -434.5 -139t-155.5 -394q-2 -160 112 -265t297 -112zM1502 797q3 160 -115 262t-295 111l-194 -911q288 0 446 139.5t158 398.5z" />
    <glyph glyph-name="Chi" unicode="&#x3a7;" horiz-adv-x="1293" 
d="M1426 1434l-643 -700l370 -734h-209l-295 588l-540 -588h-220l681 743l-347 691h207l274 -544l499 544h223z" />
    <glyph glyph-name="Psi" unicode="&#x3a8;" horiz-adv-x="1559" 
d="M1433 1434h184l-127 -600q-51 -239 -224 -362.5t-452 -123.5h-3l-74 -348h-185l74 350q-211 15 -339.5 138.5t-128.5 311.5q0 60 17 139l106 495h184l-109 -515q-13 -51 -13 -101q0 -137 87.5 -219t230.5 -85l196 920h185l-196 -920q187 2 309 96.5t160 272.5z" />
    <glyph glyph-name="uni03A9" unicode="&#x3a9;" horiz-adv-x="1612" 
d="M51 0l35 167h274q-221 167 -221 486q0 228 104 412q105 182 279 286q173 103 374 103q269 3 433 -175t162 -463q0 -420 -337 -649h256l-35 -167h-502l36 167q188 101 291 253q105 153 105 376q2 224 -113.5 358.5t-293.5 132.5h-23q-139 0 -266 -78q-126 -76 -206 -222
q-79 -145 -79 -337q0 -340 269 -483l-34 -167h-508z" />
    <glyph glyph-name="Iotadieresis" unicode="&#x3aa;" horiz-adv-x="567" 
d="M64 0l305 1434h185l-306 -1434h-184zM197 1587l40 192h195l-40 -192h-195zM587 1587l41 192h195l-40 -192h-196z" />
    <glyph glyph-name="Upsilondieresis" unicode="&#x3ab;" horiz-adv-x="1279" 
d="M1449 1434l-720 -847l-126 -587h-184l126 591l-363 843h202l284 -666l553 666h228zM537 1587l40 192h195l-40 -192h-195zM927 1587l41 192h195l-40 -192h-196z" />
    <glyph glyph-name="alphatonos" unicode="&#x3ac;" horiz-adv-x="1268" 
d="M76 425q-2 138 39 256t112 197t164.5 123t194.5 43q117 0 215.5 -59.5t137.5 -157.5l42 197h174l-167 -789q-4 -15 -4 -28q0 -60 66 -60h75l-31 -147h-97q-81 0 -129 35.5t-57 101.5q-122 -157 -335 -157q-173 -2 -287 120t-113 325zM494 126h23q96 -2 180.5 60.5
t134 171.5t47.5 233q1 81 -23 142.5t-64 96.5t-85.5 51.5t-94.5 16.5h-16q-65 1 -128 -31.5t-111.5 -91t-77.5 -146t-28 -187.5q0 -152 68.5 -234t174.5 -82zM628 1161l114 273h191l-182 -273h-123z" />
    <glyph glyph-name="epsilontonos" unicode="&#x3ad;" horiz-adv-x="1098" 
d="M801 318h174q-37 -162 -172 -250q-133 -88 -343 -88q-192 0 -302 76t-110 203q0 90 62.5 164.5t164.5 99.5q-71 27 -109.5 78t-38.5 118q-2 90 58.5 165.5t168 118t234.5 41.5q197 0 312.5 -90.5t118.5 -246.5h-174q-4 89 -73 140t-184 51h-19q-122 0 -195 -51.5
t-73 -129.5q0 -57 47.5 -91t132.5 -34h175l-29 -141h-181q-96 0 -160 -45t-64 -115q0 -79 63.5 -122t179.5 -43h20q125 0 207 51t109 141zM578 1161l114 273h191l-182 -273h-123z" />
    <glyph glyph-name="etatonos" unicode="&#x3ae;" horiz-adv-x="1199" 
d="M1069 741q0 -79 -15 -143l-216 -1008h-174l221 1034q9 50 9 83q0 85 -53 138t-138 53h-16q-115 0 -203.5 -95t-124.5 -260l-115 -543h-174l169 797q2 10 2 23q0 60 -64 60h-55l32 144h72q87 0 135.5 -37t49.5 -107q129 164 339 164q143 0 231 -84.5t88 -218.5zM635 1161
l114 273h191l-182 -273h-123z" />
    <glyph glyph-name="iotatonos" unicode="&#x3af;" horiz-adv-x="536" 
d="M66 167q0 40 7 69l167 788h174l-166 -784q-4 -17 -4 -29q0 -27 21.5 -42t55.5 -15h64l-33 -154h-96q-89 0 -139.5 43.5t-50.5 123.5zM297 1161l114 273h191l-182 -273h-123z" />
    <glyph glyph-name="upsilondieresistonos" unicode="&#x3b0;" horiz-adv-x="1128" 
d="M100 324q0 76 21 171l112 529h175l-121 -567q-13 -62 -13 -125q0 -95 51 -150.5t140 -55.5h18q116 0 187.5 73.5t104.5 233.5l125 591h174l-126 -595q-50 -229 -164 -339q-115 -110 -321 -110q-170 0 -266.5 93.5t-96.5 250.5zM584 1155l105 279h200l-189 -279h-116z
M346 1155l40 187h175l-41 -187h-174zM840 1155l41 187h174l-41 -187h-174z" />
    <glyph glyph-name="alpha" unicode="&#x3b1;" horiz-adv-x="1268" 
d="M76 425q-2 138 39 256t112 197t164.5 123t194.5 43q117 0 215.5 -59.5t137.5 -157.5l42 197h174l-167 -789q-4 -15 -4 -28q0 -60 66 -60h75l-31 -147h-97q-81 0 -129 35.5t-57 101.5q-122 -157 -335 -157q-173 -2 -287 120t-113 325zM494 126h23q96 -2 180.5 60.5
t134 171.5t47.5 233q1 81 -23 142.5t-64 96.5t-85.5 51.5t-94.5 16.5h-16q-65 1 -128 -31.5t-111.5 -91t-77.5 -146t-28 -187.5q0 -152 68.5 -234t174.5 -82z" />
    <glyph glyph-name="beta" unicode="&#x3b2;" horiz-adv-x="1181" 
d="M1049 455q3 -210 -142.5 -343.5t-371.5 -131.5q-97 0 -179.5 32.5t-130.5 87.5l-108 -510h-174l307 1446q90 418 491 418q181 0 281 -94t100 -238q0 -136 -89 -235.5t-221 -125.5q103 -31 170 -112q67 -79 67 -194zM874 449q0 108 -76.5 180.5t-182.5 72.5h-79l31 144h77
q125 -2 215.5 73t88.5 192q0 79 -59.5 137.5t-153.5 58.5h-14q-242 0 -304 -306l-152 -715q31 -73 103 -117q71 -43 163 -43h12q149 0 240 90t91 233z" />
    <glyph glyph-name="gamma" unicode="&#x3b3;" horiz-adv-x="1036" 
d="M1096 1024l-629 -1064l-78 -370h-174l78 369l-169 1065h177l121 -839l485 839h189z" />
    <glyph glyph-name="delta" unicode="&#x3b4;" horiz-adv-x="1169" 
d="M1178 1434l-31 -147h-540l289 -347q81 -99 121 -184.5t40 -182.5q0 -152 -65 -290q-64 -136 -186 -220q-122 -83 -284 -83q-205 -2 -328 127t-121 332q0 147 58 276q59 131 173 212t271 81l49 -1l-249 293l29 134h774zM765 840l-31 36q-53 10 -131 10q-110 2 -193 -59
t-123.5 -159t-39.5 -215q0 -143 74 -235t203 -92h11q102 -1 183.5 61.5t123.5 160t41 206.5q0 148 -118 286z" />
    <glyph glyph-name="epsilon" unicode="&#x3b5;" horiz-adv-x="1098" 
d="M801 318h174q-37 -162 -172 -250q-133 -88 -343 -88q-192 0 -302 76t-110 203q0 90 62.5 164.5t164.5 99.5q-71 27 -109.5 78t-38.5 118q-2 90 58.5 165.5t168 118t234.5 41.5q197 0 312.5 -90.5t118.5 -246.5h-174q-4 89 -73 140t-184 51h-19q-122 0 -195 -51.5
t-73 -129.5q0 -57 47.5 -91t132.5 -34h175l-29 -141h-181q-96 0 -160 -45t-64 -115q0 -79 63.5 -122t179.5 -43h20q125 0 207 51t109 141z" />
    <glyph glyph-name="zeta" unicode="&#x3b6;" horiz-adv-x="948" 
d="M218 342q0 -195 267 -195h110q98 0 152.5 -45.5t54.5 -130.5q0 -111 -119 -267h-160q111 154 111 233q0 30 -19 46.5t-50 16.5h-96q-208 0 -317 85t-109 245q0 122 54 231q52 107 147 209.5t246 222.5l373 294h-545l33 147h766l-30 -136l-406 -332q-215 -176 -340 -332
q-123 -152 -123 -292z" />
    <glyph glyph-name="eta" unicode="&#x3b7;" horiz-adv-x="1199" 
d="M1069 741q0 -79 -15 -143l-216 -1008h-174l221 1034q9 50 9 83q0 85 -53 138t-138 53h-16q-115 0 -203.5 -95t-124.5 -260l-115 -543h-174l169 797q2 10 2 23q0 60 -64 60h-55l32 144h72q87 0 135.5 -37t49.5 -107q129 164 339 164q143 0 231 -84.5t88 -218.5z" />
    <glyph glyph-name="theta" unicode="&#x3b8;" horiz-adv-x="1168" 
d="M1077 943q0 -253 -64 -472q-64 -220 -193 -356q-128 -135 -313 -135q-192 0 -291 132t-99 378q0 249 65 471q66 221 195 357q130 136 312 136q191 0 289.5 -132.5t98.5 -378.5zM322 805h576q7 63 7 138q0 181 -57.5 274t-165.5 93h-17q-123 0 -211 -145
q-87 -144 -132 -360zM878 658h-579q-10 -80 -10 -167q0 -181 58 -274t167 -93h17q65 -1 122.5 42.5t100.5 119t74 170t50 202.5z" />
    <glyph glyph-name="iota" unicode="&#x3b9;" horiz-adv-x="536" 
d="M66 167q0 40 7 69l167 788h174l-166 -784q-4 -17 -4 -29q0 -27 21.5 -42t55.5 -15h64l-33 -154h-96q-89 0 -139.5 43.5t-50.5 123.5z" />
    <glyph glyph-name="kappa" unicode="&#x3ba;" horiz-adv-x="1102" 
d="M1031 1024h82l-30 -147h-45q-36 0 -66 -13t-71 -45l-308 -244l382 -575h-201l-312 472l-189 -150l-68 -322h-174l217 1024h174l-101 -479l508 407q52 43 94 57q41 15 108 15z" />
    <glyph glyph-name="lambda" unicode="&#x3bb;" horiz-adv-x="1156" 
d="M1005 154h44l-32 -154h-41q-110 0 -159.5 41.5t-72.5 148.5l-124 566l-511 -756h-193l658 966l-40 184q-21 89 -41.5 111.5t-83.5 25.5h-112l33 147h139q95 0 148 -45t72 -137l213 -977q17 -72 37 -96.5t66 -24.5z" />
    <glyph glyph-name="uni03BC" unicode="&#x3bc;" horiz-adv-x="1201" 
d="M981 147h75l-31 -147h-97q-77 0 -125 35t-61 99q-50 -70 -135 -112q-83 -42 -171 -42q-148 0 -212 121l-107 -511h-174l305 1434h174l-131 -617q-12 -54 -12 -94q0 -89 46.5 -138t129.5 -49h16q117 0 205 97.5t124 268.5l114 532h174l-166 -778q-5 -22 -5 -39
q0 -60 64 -60z" />
    <glyph glyph-name="nu" unicode="&#x3bd;" horiz-adv-x="1041" 
d="M913 1024h188l-606 -1024h-203l-168 1024h180l128 -834z" />
    <glyph glyph-name="xi" unicode="&#x3be;" horiz-adv-x="956" 
d="M443 1021q0 -87 65 -139t190 -52h151l-31 -147h-109q-222 1 -360 -93.5t-135 -236.5q0 -99 67 -152.5t195 -53.5h108q105 0 160.5 -44.5t55.5 -131.5q0 -107 -115 -267h-164q111 154 111 232q0 34 -19 49t-66 15h-90q-191 0 -304 88t-113 244q-2 110 56 207.5
t160.5 159.5t226.5 73q-104 24 -159 83.5t-55 144.5q-3 111 87.5 197.5t175.5 89.5h-232l33 147h739l-32 -147h-206q-105 1 -195.5 -34t-144 -97t-51.5 -135z" />
    <glyph glyph-name="omicron" unicode="&#x3bf;" horiz-adv-x="1170" 
d="M74 444q-3 163 70 302.5t198.5 220t271.5 77.5q209 0 327.5 -126.5t118.5 -337.5q2 -165 -70.5 -304.5t-197.5 -219t-272 -76.5q-207 0 -326.5 126.5t-119.5 337.5zM518 126h19q64 -2 126.5 30.5t112.5 89.5t80.5 143t29.5 184q0 142 -73 233.5t-198 91.5h-19
q-64 1 -126.5 -31t-112.5 -89t-80.5 -143t-28.5 -184q0 -141 72.5 -233t197.5 -92z" />
    <glyph glyph-name="pi" unicode="&#x3c0;" horiz-adv-x="1204" 
d="M82 0l188 880h-136l31 144h1032l-32 -144h-129l-136 -638q-4 -20 -4 -31q0 -26 20.5 -41.5t54.5 -15.5h37l-31 -154h-69q-87 0 -139.5 44.5t-52.5 122.5q0 29 9 69l137 644h-418l-188 -880h-174z" />
    <glyph glyph-name="rho" unicode="&#x3c1;" horiz-adv-x="1207" 
d="M-70 -410l202 957q51 248 188.5 372.5t347.5 124.5q185 2 307 -118.5t120 -339.5q2 -169 -65.5 -310t-184 -219.5t-253.5 -76.5q-122 0 -219 58t-141 163l-128 -611h-174zM565 126h16q137 -2 240 129t100 320q0 154 -72 238.5t-191 84.5h-16q-99 2 -180.5 -65.5
t-124.5 -174t-41 -223.5q-2 -139 79.5 -224.5t189.5 -84.5z" />
    <glyph glyph-name="sigma1" unicode="&#x3c2;" horiz-adv-x="1060" 
d="M675 -63q0 30 -18.5 46.5t-52.5 16.5h-75q-206 0 -329.5 115.5t-123.5 321.5q-2 134 42 249.5t118.5 193.5t174 122t206.5 42q190 1 302 -100.5t107 -256.5h-177q4 103 -59 157t-169 54h-16q-148 3 -252.5 -129t-101.5 -322q0 -136 78 -218t210 -82h92q100 0 156 -45
t56 -131q0 -107 -117 -267h-163q112 157 112 233z" />
    <glyph glyph-name="sigma" unicode="&#x3c3;" horiz-adv-x="1200" 
d="M74 430q-2 134 41.5 248t117 189t170.5 117t203 40h587l-26 -147h-265q65 -32 111 -119t46 -193q2 -126 -41.5 -237t-117 -187t-171 -119.5t-201.5 -41.5q-203 -2 -329.5 123.5t-124.5 326.5zM528 126h16q63 -1 125 31.5t110.5 89.5t77.5 144t28 186q0 139 -73 219
q-74 81 -206 81h-17q-137 2 -240 -117.5t-101 -322.5q0 -136 76 -223.5t204 -87.5z" />
    <glyph glyph-name="tau" unicode="&#x3c4;" horiz-adv-x="924" 
d="M575 877l-134 -630q-5 -32 -5 -37q0 -26 21 -41t50 -15h215l-33 -154h-238q-90 0 -142 43.5t-52 123.5q0 32 8 69l136 641h-319l33 147h824l-34 -147h-330z" />
    <glyph glyph-name="upsilon" unicode="&#x3c5;" horiz-adv-x="1128" 
d="M100 324q0 76 21 171l112 529h175l-121 -567q-13 -62 -13 -125q0 -95 51 -150.5t140 -55.5h18q116 0 187.5 73.5t104.5 233.5l125 591h174l-126 -595q-50 -229 -164 -339q-115 -110 -321 -110q-170 0 -266.5 93.5t-96.5 250.5z" />
    <glyph glyph-name="phi" unicode="&#x3c6;" horiz-adv-x="1536" 
d="M729 -18l-83 -392h-174l84 397q-226 23 -354 140q-128 119 -128 326q-2 140 56 267.5t169.5 215t252.5 102.5l-25 -155q-127 -26 -204 -147t-75 -277q0 -297 338 -328l140 662q27 131 90 191t170 60q123 1 225 -52t162 -153.5t58 -226.5q2 -293 -188.5 -462.5
t-513.5 -167.5zM1257 602q0 134 -74.5 215t-178.5 81q-43 0 -67.5 -28t-39.5 -97l-137 -645q228 6 362.5 127.5t134.5 346.5z" />
    <glyph glyph-name="chi" unicode="&#x3c7;" horiz-adv-x="1012" 
d="M-199 -410l557 745l-148 467q-13 42 -35.5 58.5t-65.5 16.5h-40l31 147h71q88 0 127.5 -32t63.5 -106l121 -390l392 528h200l-530 -702l162 -503q14 -44 33 -59.5t60 -15.5h38l-32 -154h-58q-88 0 -131 36.5t-69 123.5l-129 410l-420 -570h-198z" />
    <glyph glyph-name="psi" unicode="&#x3c8;" horiz-adv-x="1571" 
d="M1349 1024h174l-109 -508q-55 -264 -220 -396t-457 -136l-84 -394h-174l85 397q-228 16 -344.5 121t-116.5 295q0 32 5 70l18 96l97 455h174l-99 -468q-17 -82 -17 -140q0 -136 76 -207t237 -81l252 1183h174l-252 -1184q212 11 324 117q113 106 157 310z" />
    <glyph glyph-name="omega" unicode="&#x3c9;" horiz-adv-x="1545" 
d="M72 418q-2 159 58.5 296.5t170 224.5t244.5 102l-30 -154q-136 -40 -202 -171q-65 -130 -65 -299q0 -291 185 -291q81 0 140 69.5t82 201.5l53 305h174l-54 -302q-6 -30 -6 -66q0 -87 35 -148q35 -60 114 -60q114 -2 198 109.5t82 324.5q0 123 -53 214t-156 113l35 154
q160 -24 254 -156t94 -325q2 -132 -36 -244.5t-101.5 -185t-144.5 -112.5t-167 -38q-93 0 -167 51q-72 52 -94 142q-37 -90 -125 -142q-86 -51 -184 -51q-151 0 -242.5 115t-91.5 323z" />
    <glyph glyph-name="iotadieresis" unicode="&#x3ca;" horiz-adv-x="536" 
d="M66 167q0 40 7 69l167 788h174l-166 -784q-4 -17 -4 -29q0 -27 21.5 -42t55.5 -15h64l-33 -154h-96q-89 0 -139.5 43.5t-50.5 123.5zM68 1192l44 198h188l-44 -198h-188zM447 1192l44 198h188l-44 -198h-188z" />
    <glyph glyph-name="upsilondieresis" unicode="&#x3cb;" horiz-adv-x="1128" 
d="M100 324q0 76 21 171l112 529h175l-121 -567q-13 -62 -13 -125q0 -95 51 -150.5t140 -55.5h18q116 0 187.5 73.5t104.5 233.5l125 591h174l-126 -595q-50 -229 -164 -339q-115 -110 -321 -110q-170 0 -266.5 93.5t-96.5 250.5zM405 1192l44 198h188l-44 -198h-188z
M784 1192l44 198h188l-44 -198h-188z" />
    <glyph glyph-name="omicrontonos" unicode="&#x3cc;" horiz-adv-x="1170" 
d="M74 444q-3 163 70 302.5t198.5 220t271.5 77.5q209 0 327.5 -126.5t118.5 -337.5q2 -165 -70.5 -304.5t-197.5 -219t-272 -76.5q-207 0 -326.5 126.5t-119.5 337.5zM518 126h19q64 -2 126.5 30.5t112.5 89.5t80.5 143t29.5 184q0 142 -73 233.5t-198 91.5h-19
q-64 1 -126.5 -31t-112.5 -89t-80.5 -143t-28.5 -184q0 -141 72.5 -233t197.5 -92zM613 1161l114 273h191l-182 -273h-123z" />
    <glyph glyph-name="upsilontonos" unicode="&#x3cd;" horiz-adv-x="1128" 
d="M100 324q0 76 21 171l112 529h175l-121 -567q-13 -62 -13 -125q0 -95 51 -150.5t140 -55.5h18q116 0 187.5 73.5t104.5 233.5l125 591h174l-126 -595q-50 -229 -164 -339q-115 -110 -321 -110q-170 0 -266.5 93.5t-96.5 250.5zM609 1161l114 273h191l-182 -273h-123z" />
    <glyph glyph-name="omegatonos" unicode="&#x3ce;" horiz-adv-x="1545" 
d="M72 418q-2 159 58.5 296.5t170 224.5t244.5 102l-30 -154q-136 -40 -202 -171q-65 -130 -65 -299q0 -291 185 -291q81 0 140 69.5t82 201.5l53 305h174l-54 -302q-6 -30 -6 -66q0 -87 35 -148q35 -60 114 -60q114 -2 198 109.5t82 324.5q0 123 -53 214t-156 113l35 154
q160 -24 254 -156t94 -325q2 -132 -36 -244.5t-101.5 -185t-144.5 -112.5t-167 -38q-93 0 -167 51q-72 52 -94 142q-37 -90 -125 -142q-86 -51 -184 -51q-151 0 -242.5 115t-91.5 323zM784 1161l114 273h191l-182 -273h-123z" />
    <glyph glyph-name="uni0401" unicode="&#x401;" horiz-adv-x="1328" 
d="M64 0l305 1434h1031l-35 -168h-847l-95 -445h724l-36 -167h-723l-104 -487h867l-36 -167h-1051zM625 1597l40 192h195l-40 -192h-195zM1015 1597l41 192h195l-40 -192h-196z" />
    <glyph glyph-name="uni0402" unicode="&#x402;" horiz-adv-x="1661" 
d="M387 0l270 1266h-485l36 168h1169l-37 -168h-499l-83 -388h377q189 0 300 -93.5t111 -247.5q0 -41 -5 -66l-10 -68q-30 -196 -140 -299.5t-299 -103.5h-175l36 167h137q219 0 255 235l9 61q2 20 2 42q0 100 -69.5 155.5t-197.5 55.5h-365l-153 -716h-184z" />
    <glyph glyph-name="uni0403" unicode="&#x403;" horiz-adv-x="1046" 
d="M65 0l304 1434h831l-33 -168h-648l-270 -1266h-184zM745 1560l101 263h218l-182 -263h-137z" />
    <glyph glyph-name="uni0404" unicode="&#x404;" horiz-adv-x="1451" 
d="M1167 448h189q-42 -222 -203.5 -345t-410.5 -123q-177 -2 -318 76.5t-218.5 220t-75.5 320.5q-2 246 89.5 442t264 307t395.5 108q145 1 264 -55.5t190.5 -164.5t74.5 -248h-186q-6 135 -104 218t-245 83h-20q-192 0 -332.5 -128.5t-185.5 -342.5h688l-37 -167h-670
q0 -27 -1 -34q0 -217 113.5 -342.5t319.5 -125.5h20q139 0 253 79.5t146 221.5z" />
    <glyph glyph-name="uni0405" unicode="&#x405;" horiz-adv-x="1266" 
d="M51 410q0 29 2 47h179v-34q0 -132 98 -204t248 -72h21q147 0 240.5 66t93.5 173q0 84 -56 141t-198 100l-149 47q-156 48 -231.5 132.5t-75.5 215.5q-2 121 68 221.5t191 156.5t263 54q220 3 364.5 -121.5t142.5 -300.5v-25h-184q-3 133 -89 207q-85 73 -230 73h-21
q-132 2 -227.5 -71t-92.5 -176q0 -136 179 -193l206 -67q324 -107 324 -377q3 -180 -144 -303t-374 -120q-254 0 -401 117.5t-147 312.5z" />
    <glyph glyph-name="uni0406" unicode="&#x406;" horiz-adv-x="569" 
d="M64 0l305 1434h185l-306 -1434h-184z" />
    <glyph glyph-name="uni0407" unicode="&#x407;" horiz-adv-x="569" 
d="M64 0l305 1434h185l-306 -1434h-184zM204 1597l40 192h195l-40 -192h-195zM594 1597l41 192h195l-40 -192h-196z" />
    <glyph glyph-name="uni0408" unicode="&#x408;" horiz-adv-x="805" 
d="M-66 0l37 174h195q99 0 151.5 50.5t77.5 164.5l223 1045h185l-228 -1065q-42 -198 -144 -283.5t-299 -85.5h-198z" />
    <glyph glyph-name="uni0409" unicode="&#x409;" horiz-adv-x="2232" 
d="M2137 496q2 -149 -71 -263.5t-199.5 -174t-285.5 -58.5h-597l268 1266h-591l-42 -202q-34 -160 -96 -412q-60 -242 -98 -362q-48 -155 -137 -223q-88 -67 -237 -67h-150l39 170h83q104 2 155.5 35.5t76.5 120.5q42 143 98 364q61 238 99 417l67 327h954l-1 -1l-116 -543
h330q216 1 334.5 -112t116.5 -282zM1948 481q0 122 -70.5 182.5t-201.5 60.5h-355l-118 -557h387q159 0 258.5 82.5t99.5 231.5z" />
    <glyph glyph-name="uni040A" unicode="&#x40a;" horiz-adv-x="2202" 
d="M64 0l305 1434h185l-126 -588h720l126 588h184l-125 -590h327q217 0 332 -101t115 -266q2 -138 -67.5 -248.5t-190.5 -170.5t-269 -58h-611l144 677h-720l-145 -677h-184zM1190 167h392q149 0 242.5 80t93.5 212q0 220 -271 220h-350z" />
    <glyph glyph-name="uni040B" unicode="&#x40b;" horiz-adv-x="1636" 
d="M1512 579q0 -49 -11 -102l-99 -477h-184l95 457q11 49 11 82q0 72 -43 107t-133 35h-432l-145 -681h-184l270 1266h-485l36 168h1169l-37 -168h-499l-90 -422h453q151 0 229.5 -69t78.5 -196z" />
    <glyph glyph-name="uni040C" unicode="&#x40c;" horiz-adv-x="1453" 
d="M1547 1434l-739 -615l554 -819h-222l-474 701l-324 -270l-90 -431h-185l301 1434h185l-156 -745l888 745h262zM794 1560l101 263h218l-182 -263h-137z" />
    <glyph glyph-name="uni040E" unicode="&#x40e;" horiz-adv-x="1275" 
d="M1241 1434h198l-857 -1249q-125 -185 -357 -185h-151l37 167h130q141 2 221 124l56 83l-334 1060h202l266 -870zM529 1734q0 25 2 47h150q-2 -16 -2 -33q0 -116 146 -116q78 0 132.5 37t74.5 112h150q-27 -137 -119 -201t-260 -64q-129 0 -201.5 57t-72.5 161z" />
    <glyph glyph-name="uni040F" unicode="&#x40f;" horiz-adv-x="1483" 
d="M1468 1434l-304 -1434h-433l-67 -304h-173l67 304h-492l303 1434h185l-269 -1267h729l270 1267h184z" />
    <glyph glyph-name="uni0410" unicode="&#x410;" horiz-adv-x="1394" 
d="M1073 0l-67 378h-702l-228 -378h-192l873 1434h239l255 -1434h-178zM405 545h572l-130 732z" />
    <glyph glyph-name="uni0411" unicode="&#x411;" horiz-adv-x="1329" 
d="M64 0l305 1434h929l-36 -168h-744l-85 -407h377q199 0 304 -100.5t105 -265.5q2 -219 -142.5 -357t-389.5 -136h-623zM285 167h418q145 0 235.5 85.5t90.5 219.5q0 103 -58.5 163t-169.5 60h-404z" />
    <glyph glyph-name="uni0412" unicode="&#x412;" horiz-adv-x="1374" 
d="M64 0l305 1434h542q189 0 303 -90.5t114 -253.5q0 -139 -86.5 -241.5t-224.5 -136.5q94 -34 147.5 -111t53.5 -180q1 -82 -33 -159.5t-93.5 -135.5t-144.5 -92.5t-179 -33.5h-704zM421 810h441q119 0 200.5 72.5t81.5 185.5q0 102 -64.5 150t-197.5 48h-364zM284 167h465
q120 0 202.5 69t82.5 202q0 96 -61 150.5t-174 54.5h-414z" />
    <glyph glyph-name="uni0413" unicode="&#x413;" horiz-adv-x="1046" 
d="M65 0l304 1434h831l-33 -168h-648l-270 -1266h-184z" />
    <glyph glyph-name="uni0414" unicode="&#x414;" horiz-adv-x="1537" 
d="M1453 1434l-268 -1267h218l-99 -471h-179l64 304h-1107l-62 -304h-180l101 471l107 2q74 0 117 42.5t74 133.5q62 175 182 727l77 362h955zM344 167h657l233 1099h-594l-39 -192q-32 -157 -90 -389q-57 -234 -90 -348q-34 -115 -77 -170z" />
    <glyph glyph-name="uni0415" unicode="&#x415;" horiz-adv-x="1328" 
d="M64 0l305 1434h1031l-35 -168h-847l-95 -445h724l-36 -167h-723l-104 -487h867l-36 -167h-1051z" />
    <glyph glyph-name="uni0416" unicode="&#x416;" horiz-adv-x="2118" 
d="M2249 1434l-615 -578l343 -856h-205l-294 725l-367 -340l-82 -385h-179l88 414l-217 315l-604 -729h-229l728 878l-390 556h219l541 -794l169 794h179l-169 -792l860 792h224z" />
    <glyph glyph-name="uni0417" unicode="&#x417;" horiz-adv-x="1313" 
d="M1167 427q2 -132 -67 -235t-193 -159.5t-280 -55.5q-275 0 -409 125q-133 126 -133 348h198q0 -139 83 -222q83 -82 261 -82q158 0 256.5 73t98.5 206q0 99 -78 161.5t-199 62.5h-216l33 165h247q141 0 220.5 67.5t79.5 180.5q0 103 -83 164.5t-223 61.5q-195 0 -286 -88
q-91 -86 -109 -215h-197q9 105 72 211q65 108 196 183q132 75 332 75q229 0 358.5 -102t129.5 -275q0 -129 -79.5 -222t-227.5 -136q115 -40 165 -113t50 -179z" />
    <glyph glyph-name="uni0418" unicode="&#x418;" horiz-adv-x="1537" 
d="M1272 1434h250l-303 -1434h-184l259 1216l-977 -1216h-251l303 1434h185l-256 -1208z" />
    <glyph glyph-name="uni0419" unicode="&#x419;" horiz-adv-x="1537" 
d="M1272 1434h250l-303 -1434h-184l259 1216l-977 -1216h-251l303 1434h185l-256 -1208zM644 1734q0 25 2 47h150q-2 -16 -2 -33q0 -116 146 -116q78 0 132.5 37t74.5 112h150q-27 -137 -119 -201t-260 -64q-129 0 -201.5 57t-72.5 161z" />
    <glyph glyph-name="uni041A" unicode="&#x41a;" horiz-adv-x="1453" 
d="M1547 1434l-739 -615l554 -819h-222l-474 701l-324 -270l-90 -431h-185l301 1434h185l-156 -745l888 745h262z" />
    <glyph glyph-name="uni041B" unicode="&#x41b;" horiz-adv-x="1488" 
d="M-99 0l39 170h83q104 2 155.5 35.5t76.5 120.5q42 143 98 364q61 238 99 417l67 327h954l-305 -1434h-184l268 1266h-591l-42 -202q-34 -160 -96 -412q-60 -242 -98 -362q-48 -155 -137 -223q-88 -67 -237 -67h-150z" />
    <glyph glyph-name="uni041C" unicode="&#x41c;" horiz-adv-x="1913" 
d="M1591 1434h307l-305 -1434h-185l272 1275l-725 -1275h-243l-190 1283l-274 -1283h-184l305 1434h303l189 -1284z" />
    <glyph glyph-name="uni041D" unicode="&#x41d;" horiz-adv-x="1507" 
d="M64 0l305 1434h185l-135 -633h755l134 633h184l-305 -1434h-184l135 634h-754l-136 -634h-184z" />
    <glyph glyph-name="uni041E" unicode="&#x41e;" horiz-adv-x="1559" 
d="M124 595q0 235 95 433q95 197 266 311q172 115 394 115q175 2 313.5 -76.5t215.5 -222t75 -324.5q0 -230 -92 -426q-93 -196 -263 -310q-172 -115 -402 -115q-172 -2 -310 74.5t-216 218.5t-76 322zM732 147h20q159 0 284 89q123 87 193 241q69 151 69 335
q2 208 -118.5 343t-305.5 132h-21q-157 3 -283.5 -89.5t-194.5 -247.5t-66 -338q-2 -208 116 -337.5t307 -127.5z" />
    <glyph glyph-name="uni041F" unicode="&#x41f;" horiz-adv-x="1489" 
d="M369 1434h1105l-305 -1434h-185l270 1266h-736l-270 -1266h-184z" />
    <glyph glyph-name="uni0420" unicode="&#x420;" horiz-adv-x="1302" 
d="M64 0l305 1434h499q200 1 325 -107.5t123 -276.5q2 -203 -132.5 -341.5t-345.5 -136.5h-467l-123 -572h-184zM406 739h431q128 0 210.5 81t82.5 214q0 110 -75.5 171t-223.5 61h-313z" />
    <glyph glyph-name="uni0421" unicode="&#x421;" horiz-adv-x="1452" 
d="M124 580q0 239 92 440q94 201 265 317q173 117 404 117q144 1 261 -55.5t186.5 -164t72.5 -247.5h-184q-2 136 -96.5 218t-250.5 82h-20q-148 0 -273 -89q-126 -90 -199 -244q-73 -155 -73 -350q0 -213 113.5 -335t320.5 -122h20q94 -1 178.5 31.5t146.5 102t77 165.5
h185q-38 -216 -202.5 -341t-412.5 -125q-178 -2 -318 73t-217.5 213t-75.5 314z" />
    <glyph glyph-name="uni0422" unicode="&#x422;" horiz-adv-x="1266" 
d="M416 0l270 1266h-515l35 168h1208l-35 -168h-509l-269 -1266h-185z" />
    <glyph glyph-name="uni0423" unicode="&#x423;" horiz-adv-x="1275" 
d="M1241 1434h198l-857 -1249q-125 -185 -357 -185h-151l37 167h130q141 2 221 124l56 83l-334 1060h202l266 -870z" />
    <glyph glyph-name="uni0424" unicode="&#x424;" horiz-adv-x="1755" 
d="M649 -49l33 151q-152 9 -280 76t-207 187q-77 119 -77 273q-2 168 60.5 301.5t172 217.5t252.5 128t307 43h33l32 152h183l-33 -154q249 -16 408.5 -161t156.5 -364q2 -160 -57.5 -293t-165 -222t-251.5 -137t-316 -47h-35l-33 -151h-183zM715 261l194 910h-13
q-279 0 -434.5 -139t-155.5 -394q-2 -160 112 -265t297 -112zM1502 797q3 160 -115 262t-295 111l-194 -911q288 0 446 139.5t158 398.5z" />
    <glyph glyph-name="uni0425" unicode="&#x425;" horiz-adv-x="1293" 
d="M1426 1434l-643 -700l370 -734h-209l-295 588l-540 -588h-220l681 743l-347 691h207l274 -544l499 544h223z" />
    <glyph glyph-name="uni0426" unicode="&#x426;" horiz-adv-x="1563" 
d="M1468 1434l-269 -1267h243l-99 -471h-173l64 304h-1168l303 1434h185l-269 -1267h729l270 1267h184z" />
    <glyph glyph-name="uni0427" unicode="&#x427;" horiz-adv-x="1361" 
d="M857 0l118 549h-463q-343 0 -343 267q0 48 12 111l105 507h184l-103 -496q-10 -53 -10 -87q0 -75 48 -107t161 -32h442l154 722h184l-305 -1434h-184z" />
    <glyph glyph-name="uni0428" unicode="&#x428;" horiz-adv-x="2188" 
d="M1989 1434h184l-304 -1434h-1803l303 1434h185l-269 -1267h625l270 1267h184l-270 -1267h626z" />
    <glyph glyph-name="uni0429" unicode="&#x429;" horiz-adv-x="2260" 
d="M2173 1434l-269 -1267h233l-102 -471h-172l63 304h-1860l303 1434h185l-269 -1267h625l270 1267h184l-270 -1267h626l269 1267h184z" />
    <glyph glyph-name="uni042A" unicode="&#x42a;" horiz-adv-x="1585" 
d="M1490 496q2 -149 -71 -263.5t-199.5 -174t-285.5 -58.5h-597l268 1266h-447l35 168h632l-116 -544h330q216 1 334.5 -112t116.5 -282zM1301 481q0 122 -70.5 182.5t-201.5 60.5h-355l-118 -557h387q159 0 258.5 82.5t99.5 231.5z" />
    <glyph glyph-name="uni042B" unicode="&#x42b;" horiz-adv-x="1810" 
d="M1219 496q2 -149 -71 -263.5t-199.5 -174t-285.5 -58.5h-597l303 1434h185l-116 -544h330q216 1 334.5 -112t116.5 -282zM1030 481q0 122 -70.5 182.5t-201.5 60.5h-355l-118 -557h387q159 0 258.5 82.5t99.5 231.5zM1305 0l305 1434h185l-306 -1434h-184z" />
    <glyph glyph-name="uni042C" unicode="&#x42c;" horiz-adv-x="1314" 
d="M1219 496q2 -149 -71 -263.5t-199.5 -174t-285.5 -58.5h-597l303 1434h185l-116 -544h330q216 1 334.5 -112t116.5 -282zM1030 481q0 122 -70.5 182.5t-201.5 60.5h-355l-118 -557h387q159 0 258.5 82.5t99.5 231.5z" />
    <glyph glyph-name="uni042D" unicode="&#x42d;" horiz-adv-x="1434" 
d="M1356 860q0 -242 -79 -440q-78 -199 -241 -320q-164 -120 -407 -120q-251 0 -401.5 123.5t-149.5 346.5h187q6 -138 105.5 -220.5t251.5 -82.5h20q207 0 336.5 137t172.5 366h-671l37 167h650q1 11 1 50q0 191 -102 305.5t-280 114.5h-23q-192 0 -289 -82
q-95 -80 -133 -221h-191q41 201 187 335q147 135 439 135q182 2 315 -75t199.5 -211t65.5 -308z" />
    <glyph glyph-name="uni042E" unicode="&#x42e;" horiz-adv-x="2083" 
d="M2007 831q0 -230 -92 -426q-93 -196 -263 -310q-172 -115 -402 -115q-172 -2 -310 74.5t-216 218.5t-76 322q0 30 1 39h-265l-136 -634h-184l305 1434h185l-133 -633h247q35 188 136.5 336t258 233.5t340.5 83.5q175 2 313.5 -76.5t215.5 -222t75 -324.5zM1822 812
q2 208 -118.5 343t-305.5 132h-21q-157 3 -283.5 -89.5t-194.5 -247.5t-66 -338q-2 -208 116 -337.5t307 -127.5h20q159 0 284 89q123 87 193 241q69 152 69 335z" />
    <glyph glyph-name="uni042F" unicode="&#x42f;" horiz-adv-x="1395" 
d="M48 0l106 502q22 107 83.5 156t168.5 44q-77 34 -126 112q-48 76 -48 168q-3 201 152.5 327.5t408.5 124.5h587l-305 -1434h-184l125 585h-554q-57 0 -85.5 -24t-41.5 -82l-102 -479h-185zM665 752h386l110 514h-403q-149 0 -245.5 -76t-96.5 -207q0 -100 65.5 -165.5
t183.5 -65.5z" />
    <glyph glyph-name="uni0430" unicode="&#x430;" horiz-adv-x="1222" 
d="M75 422q-2 179 67 323.5t186.5 222.5t256.5 76q124 0 221 -62.5t133 -154.5l42 197h174l-217 -1024h-169l28 132q-123 -152 -323 -152q-170 -2 -286 120t-113 322zM493 126h19q79 -2 149 37.5t117.5 106t74.5 152.5t26 175q0 132 -74 216.5t-187 84.5h-19
q-66 1 -129.5 -32t-113 -92t-79 -147t-28.5 -190q0 -136 67 -223.5t177 -87.5z" />
    <glyph glyph-name="uni0431" unicode="&#x431;" horiz-adv-x="1199" 
d="M108 476q0 187 56 388q55 198 186 338q130 139 337 139h243q51 0 75.5 16.5t34.5 55.5l8 34h164l-13 -60q-17 -77 -44.5 -119t-82.5 -63.5t-150 -22.5h-205q-174 0 -275 -86q-100 -85 -148 -278q64 78 170 124q105 46 215 46q191 0 297.5 -117t106.5 -314
q2 -154 -63 -286t-190 -213t-283 -78q-214 0 -326.5 128t-112.5 368zM542 126h16q91 -2 173 54t130 150.5t46 198.5q0 147 -64 232q-65 87 -181 87h-17q-95 2 -182 -56t-138 -154t-49 -200q0 -139 76 -225.5t190 -86.5z" />
    <glyph glyph-name="uni0432" unicode="&#x432;" horiz-adv-x="1083" 
d="M29 0l219 1024h430q154 0 232.5 -68.5t78.5 -174.5q0 -101 -68.5 -174t-165.5 -90q77 -21 121 -75.5t44 -128.5q0 -145 -105 -229t-281 -84h-505zM330 586h286q90 0 144.5 48.5t54.5 127.5q0 60 -43 94.5t-128 34.5h-249zM232 133h292q108 0 164 46.5t56 135.5
q0 56 -46 96t-127 40h-270z" />
    <glyph glyph-name="uni0433" unicode="&#x433;" horiz-adv-x="793" 
d="M29 0l219 1024h609l-32 -143h-435l-187 -881h-174z" />
    <glyph glyph-name="uni0434" unicode="&#x434;" horiz-adv-x="1226" 
d="M1092 1024l-187 -880h176l-89 -419h-161l58 275h-822l-59 -275h-160l89 419h79q62 0 96.5 31.5t59.5 107.5q48 141 124 503l50 238h746zM730 144l157 737h-407l-21 -98q-36 -168 -62 -272q-34 -144 -61 -229q-29 -99 -68 -138h462z" />
    <glyph glyph-name="uni0435" unicode="&#x435;" horiz-adv-x="1121" 
d="M75 453q-2 164 70 301t197.5 214.5t274.5 75.5q170 2 283 -105.5t111 -287.5q0 -67 -22 -163h-746q-1 -8 -1 -35q0 -146 78.5 -236.5t199.5 -90.5h19q94 1 163 47t99 127h174q-44 -151 -162 -235.5t-298 -84.5q-195 -2 -318.5 128.5t-121.5 344.5zM268 628h572q4 20 4 55
q0 99 -63 157t-172 58h-19q-115 0 -200 -73q-87 -74 -122 -197z" />
    <glyph glyph-name="uni0436" unicode="&#x436;" horiz-adv-x="1664" 
d="M1701 1024l-442 -395l245 -629h-174l-208 512l-261 -231l-60 -281h-167l65 302l-173 223l-412 -525h-201l514 646l-290 378h190l412 -533l114 533h167l-114 -534l598 534h197z" />
    <glyph glyph-name="uni0437" unicode="&#x437;" horiz-adv-x="1043" 
d="M882 302q2 -138 -117.5 -230.5t-313.5 -91.5q-188 0 -294 92.5t-117 263.5h179q21 -216 245 -216q99 0 170 46.5t71 133.5q0 66 -50.5 106t-143.5 40h-146l28 139h157q101 0 158 45t57 121q0 71 -56.5 112t-150.5 41q-118 0 -195 -61t-96 -155h-176q28 157 155 256.5
t327 99.5q173 0 271.5 -79t98.5 -206q0 -94 -57.5 -157.5t-156.5 -90.5q70 -24 111.5 -79.5t41.5 -129.5z" />
    <glyph glyph-name="uni0438" unicode="&#x438;" horiz-adv-x="1202" 
d="M1137 1024l-219 -1024h-175l178 829l-655 -829h-237l219 1024h174l-179 -835l662 835h232z" />
    <glyph glyph-name="uni0439" unicode="&#x439;" horiz-adv-x="1202" 
d="M1137 1024l-219 -1024h-175l178 829l-655 -829h-237l219 1024h174l-179 -835l662 835h232zM442 1394q0 13 3 40h149v-17q2 -139 127 -139q133 0 173 156h156q-23 -135 -109 -204.5t-228 -69.5q-126 0 -198.5 61.5t-72.5 172.5z" />
    <glyph glyph-name="uni043A" unicode="&#x43a;" horiz-adv-x="1155" 
d="M29 0l219 1024h174l-108 -499l624 499h238l-525 -419l403 -605h-202l-332 502l-254 -202l-63 -300h-174z" />
    <glyph glyph-name="uni043B" unicode="&#x43b;" horiz-adv-x="1135" 
d="M-91 0l34 154h62q68 0 105 28.5t61 109.5q25 85 54 208q28 110 58 254l58 270h728l-219 -1024h-174l188 881h-388l-30 -132q-37 -179 -124 -505q-36 -128 -111.5 -186t-191.5 -58h-110z" />
    <glyph glyph-name="uni043C" unicode="&#x43c;" horiz-adv-x="1482" 
d="M1417 1024l-220 -1024h-167l186 869l-516 -869h-172l-150 874l-187 -874h-162l219 1024h266l145 -841l500 841h258z" />
    <glyph glyph-name="uni043D" unicode="&#x43d;" horiz-adv-x="1165" 
d="M29 0l219 1024h174l-90 -419h504l90 419h174l-219 -1024h-174l98 461h-504l-98 -461h-174z" />
    <glyph glyph-name="uni043E" unicode="&#x43e;" horiz-adv-x="1170" 
d="M74 444q-3 163 70 302.5t198.5 220t271.5 77.5q209 0 327.5 -126.5t118.5 -337.5q2 -165 -70.5 -304.5t-197.5 -219t-272 -76.5q-207 0 -326.5 126.5t-119.5 337.5zM518 126h19q64 -2 126.5 30.5t112.5 89.5t80.5 143t29.5 184q0 142 -73 233.5t-198 91.5h-19
q-64 1 -126.5 -31t-112.5 -89t-80.5 -143t-28.5 -184q0 -141 72.5 -233t197.5 -92z" />
    <glyph glyph-name="uni043F" unicode="&#x43f;" horiz-adv-x="1156" 
d="M29 0l219 1024h843l-219 -1024h-174l187 881h-495l-187 -881h-174z" />
    <glyph glyph-name="uni0440" unicode="&#x440;" horiz-adv-x="1232" 
d="M-57 -410l305 1434h174l-30 -136q54 75 135.5 115.5t180.5 40.5q179 2 296.5 -126t115.5 -331q1 -130 -38 -244t-107.5 -194t-163 -125.5t-201.5 -43.5q-119 0 -219 56q-98 55 -145 157l-129 -603h-174zM584 129h21q88 -2 166.5 58t126 165.5t45.5 225.5q0 142 -72 229.5
t-189 87.5h-19q-102 2 -184.5 -65.5t-126 -176t-42.5 -230.5q0 -129 78 -211.5t196 -82.5z" />
    <glyph glyph-name="uni0441" unicode="&#x441;" horiz-adv-x="1116" 
d="M74 424q-2 182 73.5 326t203 220t278.5 74q176 0 288 -98t112 -257h-174q0 100 -63 154.5t-169 54.5h-19q-98 2 -180.5 -58.5t-130 -168t-45.5 -234.5q0 -143 75 -227t205 -84h19q97 0 169 57q72 59 99 152h174q-34 -163 -162 -259t-299 -96q-200 -2 -328 118t-126 326z
" />
    <glyph glyph-name="uni0442" unicode="&#x442;" horiz-adv-x="906" 
d="M971 1024l-32 -143h-337l-188 -881h-174l188 881h-342l31 143h854z" />
    <glyph glyph-name="uni0443" unicode="&#x443;" horiz-adv-x="1092" 
d="M1163 1024l-643 -988l-45 -209q-21 -95 -77 -143.5t-141 -48.5h-338l33 153h257q44 0 68 23t36 78l32 151l-213 984h181l161 -763l494 763h195z" />
    <glyph glyph-name="uni0444" unicode="&#x444;" horiz-adv-x="1772" 
d="M583 -410l111 520q-43 -52 -114 -91q-70 -39 -156 -39q-167 -2 -262 112.5t-93 286.5q-1 131 34.5 251.5t99.5 213.5t162.5 147.5t214.5 52.5q96 0 168 -41t112 -111l114 542h168l-109 -518q43 51 115 89q72 39 159 39q162 0 258.5 -117t96.5 -305q0 -171 -60 -318
q-58 -147 -172 -236q-112 -88 -263 -88q-215 0 -298 165l-118 -555h-168zM459 124h17q98 0 170 75t110 196q38 123 38 252q0 111 -54 182t-154 71h-12q-107 0 -180 -76q-74 -77 -111 -194q-36 -117 -36 -239q0 -115 52 -191t160 -76zM1134 124h13q105 0 180 72
q75 73 112 184q38 114 38 228q0 128 -54.5 210t-154.5 82h-16q-96 2 -170.5 -67.5t-113 -188.5t-37.5 -265q0 -117 53 -186t150 -69z" />
    <glyph glyph-name="uni0445" unicode="&#x445;" horiz-adv-x="1039" 
d="M-91 0l497 526l-270 498h190l198 -371l346 371h215l-486 -513l278 -511h-190l-205 385l-360 -385h-213z" />
    <glyph glyph-name="uni0446" unicode="&#x446;" horiz-adv-x="1227" 
d="M831 -274l59 274h-861l219 1024h174l-188 -881h497l188 881h174l-188 -880h177l-89 -418h-162z" />
    <glyph glyph-name="uni0447" unicode="&#x447;" horiz-adv-x="1036" 
d="M577 0l84 395h-273q-294 0 -294 219q0 38 10 91l67 319h174l-69 -322q-7 -31 -7 -51q0 -57 39 -83.5t125 -26.5h261l102 483h174l-219 -1024h-174z" />
    <glyph glyph-name="uni0448" unicode="&#x448;" horiz-adv-x="1694" 
d="M29 0l219 1024h174l-188 -881h429l188 881h174l-188 -881h430l188 881h174l-219 -1024h-1381z" />
    <glyph glyph-name="uni0449" unicode="&#x449;" horiz-adv-x="1763" 
d="M1629 1024l-188 -881h178l-90 -417h-162l57 274h-1395l219 1024h174l-188 -881h429l188 881h174l-188 -881h430l188 881h174z" />
    <glyph glyph-name="uni044A" unicode="&#x44a;" horiz-adv-x="1205" 
d="M1095 379q0 -173 -120.5 -276t-318.5 -103h-430l189 882h-328l31 142h501l-78 -363h223q151 0 241 -79t90 -203zM914 365q0 76 -49.5 116.5t-139.5 40.5h-213l-82 -383h227q122 0 189.5 60.5t67.5 165.5z" />
    <glyph glyph-name="uni044B" unicode="&#x44b;" horiz-adv-x="1438" 
d="M29 0l219 1024h174l-78 -363h223q151 0 241 -79t90 -203q0 -173 -120.5 -276t-318.5 -103h-430zM979 0l219 1024h174l-219 -1024h-174zM233 139h227q122 0 189.5 60.5t67.5 165.5q0 76 -49.5 116.5t-139.5 40.5h-213z" />
    <glyph glyph-name="uni044C" unicode="&#x44c;" horiz-adv-x="1008" 
d="M29 0l219 1024h174l-78 -363h223q151 0 241 -79t90 -203q0 -173 -120.5 -276t-318.5 -103h-430zM233 139h227q122 0 189.5 60.5t67.5 165.5q0 76 -49.5 116.5t-139.5 40.5h-213z" />
    <glyph glyph-name="uni044D" unicode="&#x44d;" horiz-adv-x="1089" 
d="M978 597q1 -119 -33.5 -229t-98.5 -198t-167 -140t-229 -50q-180 0 -292 95t-118 262h174q8 -99 69.5 -156t158.5 -57h19q133 0 217 87q85 89 113 233h-444l30 140h429v22q0 133 -68 213.5t-178 80.5h-19q-208 0 -280 -213h-173q35 160 162 258.5t306 98.5
q196 0 309 -120.5t113 -326.5z" />
    <glyph glyph-name="uni044E" unicode="&#x44e;" horiz-adv-x="1577" 
d="M1467 580q2 -165 -70.5 -304.5t-197.5 -219t-272 -76.5q-207 0 -326.5 126.5t-119.5 337.5v20h-179l-99 -464h-174l219 1024h174l-89 -416h167q45 191 191.5 314.5t329.5 121.5q209 0 327.5 -126.5t118.5 -337.5zM1293 573q0 142 -73 233.5t-198 91.5h-19
q-64 1 -126.5 -31t-112.5 -89t-80.5 -143t-28.5 -184q0 -141 72.5 -233t197.5 -92h19q64 -2 126.5 30.5t112.5 89.5t80.5 143t29.5 184z" />
    <glyph glyph-name="uni044F" unicode="&#x44f;" horiz-adv-x="1109" 
d="M13 0l70 315q16 74 69.5 118t130.5 47q-61 28 -97 83.5t-36 128.5q0 148 111 240t312 92h471l-219 -1024h-174l84 388h-358q-59 0 -85.5 -23.5t-39.5 -85.5l-62 -279h-177zM497 530h267l76 355h-271q-244 0 -244 -203q0 -73 44 -112.5t128 -39.5z" />
    <glyph glyph-name="uni0451" unicode="&#x451;" horiz-adv-x="1121" 
d="M75 453q-2 164 70 301t197.5 214.5t274.5 75.5q170 2 283 -105.5t111 -287.5q0 -67 -22 -163h-746q-1 -8 -1 -35q0 -146 78.5 -236.5t199.5 -90.5h19q94 1 163 47t99 127h174q-44 -151 -162 -235.5t-298 -84.5q-195 -2 -318.5 128.5t-121.5 344.5zM268 628h572q4 20 4 55
q0 99 -63 157t-172 58h-19q-115 0 -200 -73q-87 -74 -122 -197zM359 1208l44 198h188l-44 -198h-188zM738 1208l44 198h188l-44 -198h-188z" />
    <glyph glyph-name="uni0452" unicode="&#x452;" horiz-adv-x="1158" 
d="M326 -365l32 153h236q75 0 93 86l157 753q9 45 9 80q0 86 -53 139q-52 54 -138 54h-16q-114 0 -202.5 -95t-124.5 -262l-115 -543h-174l247 1165h-178l28 127h176l30 142h174l-30 -142h316l-28 -127h-314l-56 -265q126 144 314 144q143 0 231 -84.5t88 -218.5
q0 -77 -15 -143l-162 -771q-38 -192 -215 -192h-310z" />
    <glyph glyph-name="uni0453" unicode="&#x453;" horiz-adv-x="793" 
d="M29 0l219 1024h609l-32 -143h-435l-187 -881h-174zM486 1161l114 273h191l-182 -273h-123z" />
    <glyph glyph-name="uni0454" unicode="&#x454;" horiz-adv-x="1107" 
d="M808 337h174q-34 -167 -157 -262t-297 -95q-203 0 -327.5 119t-124.5 328q-2 137 41.5 254.5t117.5 196.5t173 123t208 43q179 0 289.5 -97t119.5 -260h-174q-7 105 -67 159t-165 54h-16q-126 0 -218 -85t-122 -231h461l-30 -140h-444v-6q0 -145 75 -229.5t207 -84.5h16
q93 0 162.5 57t97.5 156z" />
    <glyph glyph-name="uni0455" unicode="&#x455;" horiz-adv-x="980" 
d="M8 314h176q6 -91 68.5 -139.5t161.5 -48.5h19q91 0 148.5 44t57.5 114q0 93 -130 135l-117 38q-122 41 -183.5 105t-61.5 161q-2 133 108 228t276 93q163 2 275.5 -89.5t113.5 -244.5h-176q-1 86 -64 137t-152 51h-19q-83 0 -137 -45.5t-54 -113.5q0 -92 125 -133
l123 -40q112 -38 178 -100q69 -62 69 -177q2 -135 -110 -223t-278 -86q-188 0 -299.5 89t-117.5 245z" />
    <glyph glyph-name="uni0456" unicode="&#x456;" horiz-adv-x="489" 
d="M272 1208l43 209h194l-43 -209h-194zM31 0l217 1024h174l-217 -1024h-174z" />
    <glyph glyph-name="uni0457" unicode="&#x457;" horiz-adv-x="489" 
d="M31 0l217 1024h174l-217 -1024h-174zM71 1208l44 198h188l-44 -198h-188zM450 1208l44 198h188l-44 -198h-188z" />
    <glyph glyph-name="uni0458" unicode="&#x458;" horiz-adv-x="506" 
d="M-339 -365l32 153h240q71 0 87 84l244 1152h174l-252 -1197q-38 -192 -215 -192h-310zM288 1208l43 209h195l-43 -209h-195z" />
    <glyph glyph-name="uni0459" unicode="&#x459;" horiz-adv-x="1645" 
d="M1535 379q0 -173 -120.5 -276t-318.5 -103h-430l187 881h-377l-30 -132q-37 -179 -124 -505q-36 -128 -111.5 -186t-191.5 -58h-110l34 154h62q68 0 105 28.5t61 109.5q25 85 54 208q28 110 58 254l58 270h718l-78 -363h223q151 0 241 -79t90 -203zM1354 365
q0 76 -49.5 116.5t-139.5 40.5h-213l-82 -383h227q122 0 189.5 60.5t67.5 165.5z" />
    <glyph glyph-name="uni045A" unicode="&#x45a;" horiz-adv-x="1677" 
d="M29 0l219 1024h174l-83 -389h503l84 389h174l-84 -390h204q161 0 254 -74.5t93 -199.5q0 -170 -117 -265t-320 -95h-423l104 493h-504l-104 -493h-174zM911 139h222q122 0 186.5 52t64.5 149q0 153 -193 153h-205z" />
    <glyph glyph-name="uni045B" unicode="&#x45b;" horiz-adv-x="1162" 
d="M1033 729q0 -57 -13 -119l-129 -610h-175l132 614q8 56 8 86q0 91 -48.5 144.5t-132.5 53.5h-19q-119 0 -210.5 -94.5t-127.5 -271.5l-112 -532h-174l244 1157h-154l29 139h155l29 138h174l-29 -138h339l-30 -139h-338l-58 -277q57 79 141 121.5t182 42.5
q134 2 226.5 -89.5t90.5 -225.5z" />
    <glyph glyph-name="uni045C" unicode="&#x45c;" horiz-adv-x="1155" 
d="M29 0l219 1024h174l-108 -499l624 499h238l-525 -419l403 -605h-202l-332 502l-254 -202l-63 -300h-174zM602 1161l114 273h191l-182 -273h-123z" />
    <glyph glyph-name="uni045E" unicode="&#x45e;" horiz-adv-x="1092" 
d="M1163 1024l-643 -988l-45 -209q-21 -95 -77 -143.5t-141 -48.5h-338l33 153h257q44 0 68 23t36 78l32 151l-213 984h181l161 -763l494 763h195zM387 1394q0 13 3 40h149v-17q2 -139 127 -139q133 0 173 156h156q-23 -135 -109 -204.5t-228 -69.5q-126 0 -198.5 61.5
t-72.5 172.5z" />
    <glyph glyph-name="uni045F" unicode="&#x45f;" horiz-adv-x="1172" 
d="M1107 1024l-220 -1024h-328l-58 -274h-160l58 274h-370l219 1024h174l-188 -881h511l188 881h174z" />
    <glyph glyph-name="uni0462" unicode="&#x462;" horiz-adv-x="1514" 
d="M1409 496q2 -149 -71 -263.5t-199.5 -174t-285.5 -58.5h-597l234 1109h-331l31 158h334l35 167h185l-35 -167h447l-32 -158h-449l-47 -219h330q216 1 334.5 -112t116.5 -282zM1220 481q0 122 -70.5 182.5t-201.5 60.5h-355l-118 -557h387q159 0 258.5 82.5t99.5 231.5z
" />
    <glyph glyph-name="uni0463" unicode="&#x463;" horiz-adv-x="1169" 
d="M1057 378q0 -173 -120 -275.5t-318 -102.5h-431l189 884h-294l31 140h293l87 410h174l-87 -410h373l-31 -140h-372l-47 -223h220q151 0 242 -79.5t91 -203.5zM877 364q0 75 -49.5 115.5t-139.5 40.5h-214l-81 -381h227q123 0 190 59.5t67 165.5z" />
    <glyph glyph-name="uni0472" unicode="&#x472;" horiz-adv-x="1559" 
d="M1483 831q0 -230 -92 -426q-93 -196 -263 -310q-172 -115 -402 -115q-172 -2 -310 74.5t-216 218.5t-76 322q0 235 95 433q95 197 266 311q172 115 394 115q175 2 313.5 -76.5t215.5 -222t75 -324.5zM327 795q120 86 275 86q84 0 199 -52l73 -36q94 -45 200 -45
q119 0 224 88q-5 199 -124.5 326t-299.5 125h-21q-198 0 -339.5 -136.5t-186.5 -355.5zM1287 670q-101 -76 -259 -78q-110 0 -233 57l-64 30q-101 45 -177 45q-129 0 -245 -85v-27q-2 -208 116 -337.5t307 -127.5h20q204 -3 351.5 146t183.5 377z" />
    <glyph glyph-name="uni0473" unicode="&#x473;" horiz-adv-x="1170" 
d="M1060 580q2 -165 -70.5 -304.5t-197.5 -219t-272 -76.5q-207 0 -326.5 126.5t-119.5 337.5q-3 163 70 302.5t198.5 220t271.5 77.5q209 0 327.5 -126.5t118.5 -337.5zM262 583q77 46 158 46q58 0 134 -31l54 -20q75 -31 152 -31t126 37q-3 138 -76.5 226t-194.5 88h-19
q-110 0 -206 -86t-128 -229zM872 442q-50 -30 -121 -32q-86 0 -169 31l-50 18q-75 28 -132 28q-81 0 -152 -44q3 -139 75 -228t195 -89h19q110 0 206.5 86.5t128.5 229.5z" />
    <glyph glyph-name="uni0474" unicode="&#x474;" horiz-adv-x="1476" 
d="M451 0l-263 1434h185l224 -1252l573 1010q64 124 149 183t204 59h95l-35 -170h-48q-75 0 -122 -40q-49 -41 -98 -126l-640 -1098h-224z" />
    <glyph glyph-name="uni0475" unicode="&#x475;" horiz-adv-x="1113" 
d="M283 0l-161 1024h176l125 -850l370 650q56 106 122.5 153t167.5 47h87l-33 -154h-43q-55 0 -90 -26q-33 -24 -71 -93l-437 -751h-213z" />
    <glyph glyph-name="uni0490" unicode="&#x490;" horiz-adv-x="1046" 
d="M1071 1656h176l-80 -390h-648l-270 -1266h-184l304 1434h656z" />
    <glyph glyph-name="uni0491" unicode="&#x491;" horiz-adv-x="802" 
d="M747 1219h160l-72 -338h-445l-187 -881h-174l219 1024h457z" />
    <glyph glyph-name="uni0492" unicode="&#x492;" horiz-adv-x="1082" 
d="M1194 1266h-648l-100 -468h380l-33 -157h-380l-137 -641h-184l136 641h-178l33 157h178l135 636h831z" />
    <glyph glyph-name="uni0493" unicode="&#x493;" horiz-adv-x="838" 
d="M866 881h-435l-68 -322h288l-26 -130h-290l-91 -429h-174l92 429h-163l27 130h164l99 465h609z" />
    <glyph glyph-name="uni0496" unicode="&#x496;" horiz-adv-x="2225" 
d="M1634 856l275 -687h220l-101 -472h-172l64 303h-148l-294 725l-367 -340l-82 -385h-179l88 414l-217 315l-604 -729h-229l728 878l-390 556h219l541 -794l169 794h179l-169 -792l860 792h224z" />
    <glyph glyph-name="uni0497" unicode="&#x497;" horiz-adv-x="1741" 
d="M1259 629l189 -485h169l-89 -418h-161l56 274h-93l-208 512l-261 -231l-60 -281h-167l65 302l-173 223l-412 -525h-201l514 646l-290 378h190l412 -533l114 533h167l-114 -534l598 534h197z" />
    <glyph glyph-name="uni049A" unicode="&#x49a;" horiz-adv-x="1574" 
d="M808 819l441 -652h237l-102 -471h-172l64 304h-136l-474 701l-324 -270l-90 -431h-185l301 1434h185l-156 -745l888 745h262z" />
    <glyph glyph-name="uni049B" unicode="&#x49b;" horiz-adv-x="1262" 
d="M651 605l307 -461h203l-89 -418h-161l57 274h-116l-332 502l-254 -202l-63 -300h-174l219 1024h174l-108 -499l624 499h238z" />
    <glyph glyph-name="uni04A2" unicode="&#x4a2;" horiz-adv-x="1585" 
d="M1492 1434l-269 -1267h240l-101 -471h-171l63 304h-251l135 634h-754l-136 -634h-184l305 1434h185l-135 -633h755l134 633h184z" />
    <glyph glyph-name="uni04A3" unicode="&#x4a3;" horiz-adv-x="1234" 
d="M1100 1024l-188 -880h175l-88 -418h-161l57 274h-188l98 461h-504l-98 -461h-174l219 1024h174l-90 -419h504l90 419h174z" />
    <glyph glyph-name="uni04AE" unicode="&#x4ae;" horiz-adv-x="1279" 
d="M1449 1434l-720 -847l-126 -587h-184l126 591l-363 843h202l284 -666l553 666h228z" />
    <glyph glyph-name="uni04AF" unicode="&#x4af;" horiz-adv-x="1075" 
d="M1145 1024l-633 -971l-98 -463h-170l96 452l-231 982h193l167 -766l489 766h187z" />
    <glyph glyph-name="uni04B0" unicode="&#x4b0;" horiz-adv-x="1286" 
d="M1454 1434l-714 -840h347l-31 -157h-354l-94 -437h-184l93 437h-352l33 157h351l-362 840h202l284 -666l553 666h228z" />
    <glyph glyph-name="uni04B1" unicode="&#x4b1;" horiz-adv-x="1087" 
d="M1152 1024l-584 -897h291l-27 -127h-324l-87 -410h-170l87 410h-322l27 127h284l-211 897h193l167 -766l489 766h187z" />
    <glyph glyph-name="uni04B2" unicode="&#x4b2;" horiz-adv-x="1404" 
d="M783 734l286 -567h237l-101 -471h-173l63 304h-151l-295 588l-540 -588h-220l681 743l-347 691h207l274 -544l499 544h223z" />
    <glyph glyph-name="uni04B3" unicode="&#x4b3;" horiz-adv-x="1115" 
d="M599 511l200 -367h190l-90 -418h-160l57 274h-109l-205 385l-360 -385h-213l497 526l-270 498h190l198 -371l346 371h215z" />
    <glyph glyph-name="uni04B6" unicode="&#x4b6;" horiz-adv-x="1440" 
d="M1346 1434l-269 -1267h241l-101 -471h-175l67 304h-252l118 549h-463q-343 0 -343 267q0 48 12 111l105 507h184l-103 -496q-10 -53 -10 -87q0 -75 48 -107t161 -32h442l154 722h184z" />
    <glyph glyph-name="uni04B7" unicode="&#x4b7;" horiz-adv-x="1104" 
d="M970 1024l-188 -880h177l-89 -418h-161l56 274h-188l84 395h-273q-294 0 -294 219q0 38 10 91l67 319h174l-69 -322q-7 -31 -7 -51q0 -57 39 -83.5t125 -26.5h261l102 483h174z" />
    <glyph glyph-name="uni04BA" unicode="&#x4ba;" horiz-adv-x="1318" 
d="M64 0l305 1434h185l-117 -549h449q163 0 240 -58.5t77 -184.5q0 -62 -16 -130l-109 -512h-184l105 496q12 57 12 99q0 68 -39 97.5t-130 29.5h-439l-155 -722h-184z" />
    <glyph glyph-name="uni04BB" unicode="&#x4bb;" horiz-adv-x="1161" 
d="M1031 729q0 -57 -13 -119l-129 -610h-175l132 614q8 56 8 86q0 91 -48.5 144.5t-132.5 53.5h-19q-119 0 -210.5 -94.5t-127.5 -271.5l-112 -532h-174l303 1434h174l-116 -554q57 79 141 121.5t182 42.5q134 2 226.5 -89.5t90.5 -225.5z" />
    <glyph glyph-name="uni04C0" unicode="&#x4c0;" horiz-adv-x="569" 
d="M64 0l305 1434h185l-306 -1434h-184z" />
    <glyph glyph-name="uni04CF" unicode="&#x4cf;" horiz-adv-x="489" 
d="M30 0l305 1434h174l-305 -1434h-174z" />
    <glyph glyph-name="uni04D8" unicode="&#x4d8;" horiz-adv-x="1508" 
d="M1427 818q0 -244 -88 -433q-86 -189 -248 -298q-161 -107 -376 -107q-278 0 -430.5 166t-152.5 447q0 89 13 174h1096v30q2 217 -110 354.5t-292 135.5h-23q-160 0 -276 -73q-117 -74 -165 -228h-197q57 225 235.5 346.5t423.5 121.5q139 1 251.5 -46.5t186.5 -132.5
t113.5 -202t38.5 -255zM1220 599h-907v-27q0 -206 99.5 -315.5t298.5 -109.5h24q177 0 308.5 123.5t176.5 328.5z" />
    <glyph glyph-name="uni04D9" unicode="&#x4d9;" horiz-adv-x="1141" 
d="M81 428q0 64 7 117h762q3 30 3 60q0 131 -71 213t-194 82h-16q-216 0 -278 -178h-184q41 157 167 239q128 83 305 83q203 1 325.5 -123.5t120.5 -326.5q1 -138 -41 -255.5t-114.5 -195.5t-168 -121t-201.5 -42q-208 0 -315 116t-107 332zM502 124h17q104 0 190.5 75
t118.5 207h-570q-1 -5 -1 -24q3 -119 67.5 -188.5t177.5 -69.5z" />
    <glyph glyph-name="uni04E2" unicode="&#x4e2;" horiz-adv-x="1537" 
d="M1272 1434h250l-303 -1434h-184l259 1216l-977 -1216h-251l303 1434h185l-256 -1208zM658 1597l29 140h585l-30 -140h-584z" />
    <glyph glyph-name="uni04E3" unicode="&#x4e3;" horiz-adv-x="1202" 
d="M1137 1024l-219 -1024h-175l178 829l-655 -829h-237l219 1024h174l-179 -835l662 835h232zM433 1208l30 140h584l-30 -140h-584z" />
    <glyph glyph-name="uni04E8" unicode="&#x4e8;" horiz-adv-x="1559" 
d="M1483 831q0 -230 -92 -426q-93 -196 -263 -310q-172 -115 -402 -115q-172 -2 -310 74.5t-216 218.5t-76 322q0 235 95 433q95 197 266 311q172 115 394 115q175 2 313.5 -76.5t215.5 -222t75 -324.5zM328 797h970v15q2 208 -118.5 343t-305.5 132h-21q-196 2 -339 -135.5
t-186 -354.5zM1280 636h-971v-24q-2 -208 116 -337.5t307 -127.5h20q195 -3 340.5 135t187.5 354z" />
    <glyph glyph-name="uni04E9" unicode="&#x4e9;" horiz-adv-x="1170" 
d="M1060 580q2 -165 -70.5 -304.5t-197.5 -219t-272 -76.5q-207 0 -326.5 126.5t-119.5 337.5q-3 163 70 302.5t198.5 220t271.5 77.5q209 0 327.5 -126.5t118.5 -337.5zM263 586h623q-5 138 -77 225t-194 87h-19q-109 0 -204.5 -85t-128.5 -227zM875 459h-627v-8
q0 -141 72.5 -233t197.5 -92h19q113 -2 212 91t126 242z" />
    <glyph glyph-name="uni04EE" unicode="&#x4ee;" horiz-adv-x="1275" 
d="M1241 1434h198l-857 -1249q-125 -185 -357 -185h-151l37 167h130q141 2 221 124l56 83l-334 1060h202l266 -870zM526 1597l29 140h585l-30 -140h-584z" />
    <glyph glyph-name="uni04EF" unicode="&#x4ef;" horiz-adv-x="1092" 
d="M1163 1024l-643 -988l-45 -209q-21 -95 -77 -143.5t-141 -48.5h-338l33 153h257q44 0 68 23t36 78l32 151l-213 984h181l161 -763l494 763h195zM377 1208l30 140h584l-30 -140h-584z" />
    <glyph glyph-name="Wgrave" unicode="&#x1e80;" horiz-adv-x="1904" 
d="M1837 1434h198l-664 -1434h-241l-43 1251l-565 -1251h-243l-58 1434h189l25 -1252l573 1252h232l43 -1255zM1082 1560l-182 263h218l101 -263h-137z" />
    <glyph glyph-name="wgrave" unicode="&#x1e81;" horiz-adv-x="1581" 
d="M1436 1024h191l-536 -1024h-203l-57 821l-405 -821h-203l-97 1024h171l61 -840l411 840h191l64 -839zM835 1161l-183 273h191l114 -273h-122z" />
    <glyph glyph-name="Wacute" unicode="&#x1e82;" horiz-adv-x="1904" 
d="M1837 1434h198l-664 -1434h-241l-43 1251l-565 -1251h-243l-58 1434h189l25 -1252l573 1252h232l43 -1255zM1084 1560l101 263h218l-182 -263h-137z" />
    <glyph glyph-name="wacute" unicode="&#x1e83;" horiz-adv-x="1581" 
d="M1436 1024h191l-536 -1024h-203l-57 821l-405 -821h-203l-97 1024h171l61 -840l411 840h191l64 -839zM829 1161l114 273h191l-182 -273h-123z" />
    <glyph glyph-name="Wdieresis" unicode="&#x1e84;" horiz-adv-x="1904" 
d="M1837 1434h198l-664 -1434h-241l-43 1251l-565 -1251h-243l-58 1434h189l25 -1252l573 1252h232l43 -1255zM867 1597l40 192h195l-40 -192h-195zM1257 1597l41 192h195l-40 -192h-196z" />
    <glyph glyph-name="wdieresis" unicode="&#x1e85;" horiz-adv-x="1581" 
d="M1436 1024h191l-536 -1024h-203l-57 821l-405 -821h-203l-97 1024h171l61 -840l411 840h191l64 -839zM597 1208l44 198h188l-44 -198h-188zM976 1208l44 198h188l-44 -198h-188z" />
    <glyph glyph-name="uni1E9E" unicode="&#x1e9e;" horiz-adv-x="1354" 
d="M64 0l305 1434h443q190 0 304 -88.5t114 -255.5q0 -131 -71 -226q-70 -94 -194 -129q112 -22 182.5 -108.5t70.5 -199.5q2 -113 -56.5 -212t-164 -158t-231.5 -57h-290l35 167h238q123 0 204 66t81 203q0 95 -65.5 151t-180.5 56h-175l36 167h122q118 0 196.5 70.5
t78.5 183.5q0 202 -255 202h-273l-265 -1266h-189z" />
    <glyph glyph-name="uni1EA0" unicode="&#x1ea0;" horiz-adv-x="1394" 
d="M1073 0l-67 378h-702l-228 -378h-192l873 1434h239l255 -1434h-178zM405 545h572l-130 732zM415 -372l40 188h174l-40 -188h-174z" />
    <glyph glyph-name="uni1EA1" unicode="&#x1ea1;" horiz-adv-x="1222" 
d="M75 422q-2 179 67 323.5t186.5 222.5t256.5 76q124 0 221 -62.5t133 -154.5l42 197h174l-217 -1024h-169l28 132q-123 -152 -323 -152q-170 -2 -286 120t-113 322zM493 126h19q79 -2 149 37.5t117.5 106t74.5 152.5t26 175q0 132 -74 216.5t-187 84.5h-19
q-66 1 -129.5 -32t-113 -92t-79 -147t-28.5 -190q0 -136 67 -223.5t177 -87.5zM305 -372l40 188h174l-40 -188h-174z" />
    <glyph glyph-name="uni1EB8" unicode="&#x1eb8;" horiz-adv-x="1328" 
d="M64 0l305 1434h1031l-35 -168h-847l-95 -445h724l-36 -167h-723l-104 -487h867l-36 -167h-1051zM423 -372l40 188h174l-40 -188h-174z" />
    <glyph glyph-name="uni1EB9" unicode="&#x1eb9;" horiz-adv-x="1121" 
d="M75 453q-2 164 70 301t197.5 214.5t274.5 75.5q170 2 283 -105.5t111 -287.5q0 -67 -22 -163h-746q-1 -8 -1 -35q0 -146 78.5 -236.5t199.5 -90.5h19q94 1 163 47t99 127h174q-44 -151 -162 -235.5t-298 -84.5q-195 -2 -318.5 128.5t-121.5 344.5zM268 628h572q4 20 4 55
q0 99 -63 157t-172 58h-19q-115 0 -200 -73q-87 -74 -122 -197zM306 -372l40 188h174l-40 -188h-174z" />
    <glyph glyph-name="uni1ECA" unicode="&#x1eca;" horiz-adv-x="567" 
d="M64 0l305 1434h185l-306 -1434h-184zM-11 -372l40 188h174l-40 -188h-174z" />
    <glyph glyph-name="uni1ECB" unicode="&#x1ecb;" horiz-adv-x="489" 
d="M272 1208l43 209h194l-43 -209h-194zM31 0l217 1024h174l-217 -1024h-174zM-50 -372l40 188h174l-40 -188h-174z" />
    <glyph glyph-name="uni1ECC" unicode="&#x1ecc;" horiz-adv-x="1559" 
d="M124 595q0 235 95 433q95 197 266 311q172 115 394 115q175 2 313.5 -76.5t215.5 -222t75 -324.5q0 -230 -92 -426q-93 -196 -263 -310q-172 -115 -402 -115q-172 -2 -310 74.5t-216 218.5t-76 322zM732 147h20q159 0 284 89q123 87 193 241q69 151 69 335
q2 208 -118.5 343t-305.5 132h-21q-157 3 -283.5 -89.5t-194.5 -247.5t-66 -338q-2 -208 116 -337.5t307 -127.5zM518 -372l40 188h174l-40 -188h-174z" />
    <glyph glyph-name="uni1ECD" unicode="&#x1ecd;" horiz-adv-x="1170" 
d="M74 444q-3 163 70 302.5t198.5 220t271.5 77.5q209 0 327.5 -126.5t118.5 -337.5q2 -165 -70.5 -304.5t-197.5 -219t-272 -76.5q-207 0 -326.5 126.5t-119.5 337.5zM518 126h19q64 -2 126.5 30.5t112.5 89.5t80.5 143t29.5 184q0 142 -73 233.5t-198 91.5h-19
q-64 1 -126.5 -31t-112.5 -89t-80.5 -143t-28.5 -184q0 -141 72.5 -233t197.5 -92zM311 -372l40 188h174l-40 -188h-174z" />
    <glyph glyph-name="uni1EE4" unicode="&#x1ee4;" horiz-adv-x="1430" 
d="M154 415q0 84 19 173l180 846h184l-184 -865q-17 -82 -17 -142q0 -134 72 -206.5t212 -73.5h20q330 0 408 357l199 930h184l-209 -977q-49 -233 -203 -355t-407 -122q-215 0 -336.5 114.5t-121.5 320.5zM433 -372l40 188h174l-40 -188h-174z" />
    <glyph glyph-name="uni1EE5" unicode="&#x1ee5;" horiz-adv-x="1153" 
d="M912 1024h174l-217 -1024h-174l32 154q-117 -174 -317 -174q-140 0 -228.5 82.5t-88.5 233.5q0 51 13 116l130 612h174l-132 -623q-10 -43 -10 -79q0 -90 47.5 -143t127.5 -53h19q119 0 210.5 99.5t126.5 266.5zM270 -372l40 188h174l-40 -188h-174z" />
    <glyph glyph-name="Ygrave" unicode="&#x1ef2;" horiz-adv-x="1279" 
d="M1449 1434l-720 -847l-126 -587h-184l126 591l-363 843h202l284 -666l553 666h228zM760 1560l-182 263h218l101 -263h-137z" />
    <glyph glyph-name="ygrave" unicode="&#x1ef3;" horiz-adv-x="1092" 
d="M1163 1024l-643 -988l-45 -209q-21 -95 -77 -143.5t-141 -48.5h-338l33 153h257q44 0 68 23t36 78l32 151l-213 984h181l161 -763l494 763h195zM602 1161l-183 273h191l114 -273h-122z" />
    <glyph glyph-name="uni2002" unicode="&#x2002;" horiz-adv-x="1024" 
 />
    <glyph glyph-name="uni2003" unicode="&#x2003;" horiz-adv-x="2048" 
 />
    <glyph glyph-name="uni2009" unicode="&#x2009;" horiz-adv-x="256" 
 />
    <glyph glyph-name="uni200A" unicode="&#x200a;" horiz-adv-x="154" 
 />
    <glyph glyph-name="endash" unicode="&#x2013;" horiz-adv-x="1185" 
d="M126 543l33 153h905l-32 -153h-906z" />
    <glyph glyph-name="emdash" unicode="&#x2014;" horiz-adv-x="1843" 
d="M126 543l33 153h1563l-32 -153h-1564z" />
    <glyph glyph-name="uni2015" unicode="&#x2015;" horiz-adv-x="1843" 
d="M126 543l33 153h1563l-32 -153h-1564z" />
    <glyph glyph-name="quoteleft" unicode="&#x2018;" horiz-adv-x="535" 
d="M604 1434l-24 -116h-38q-148 0 -174 -123l-7 -31h129l-49 -232h-243l54 252q26 123 103 186.5t200 63.5h49z" />
    <glyph glyph-name="quoteright" unicode="&#x2019;" horiz-adv-x="530" 
d="M185 931l24 116h38q148 0 174 123l7 31h-129l49 232h243l-54 -252q-26 -123 -103 -186.5t-200 -63.5h-49z" />
    <glyph glyph-name="quotesinglbase" unicode="&#x201a;" horiz-adv-x="519" 
d="M-89 -270l24 116h38q148 0 174 123l7 31h-129l49 232h243l-54 -252q-26 -123 -103 -186.5t-200 -63.5h-49z" />
    <glyph glyph-name="quotedblleft" unicode="&#x201c;" horiz-adv-x="955" 
d="M605 1434l-25 -116h-38q-148 0 -174 -123l-7 -31h130l-50 -232h-243l54 252q26 123 103.5 186.5t199.5 63.5h50zM1024 1434l-24 -116h-38q-148 0 -174 -123l-7 -31h129l-49 -232h-243l54 252q26 123 103 186.5t200 63.5h49z" />
    <glyph glyph-name="quotedblright" unicode="&#x201d;" horiz-adv-x="950" 
d="M185 931l24 116h38q148 0 174 123l7 31h-129l49 232h243l-54 -252q-26 -123 -103 -186.5t-200 -63.5h-49zM604 931l25 116h38q148 0 174 123l7 31h-130l50 232h243l-54 -252q-26 -123 -103.5 -186.5t-199.5 -63.5h-50z" />
    <glyph glyph-name="quotedblbase" unicode="&#x201e;" horiz-adv-x="939" 
d="M-89 -270l24 116h38q148 0 174 123l7 31h-129l49 232h243l-54 -252q-26 -123 -103 -186.5t-200 -63.5h-49zM330 -270l25 116h38q148 0 174 123l7 31h-130l50 232h243l-54 -252q-26 -123 -103.5 -186.5t-199.5 -63.5h-50z" />
    <glyph glyph-name="dagger" unicode="&#x2020;" horiz-adv-x="1055" 
d="M1056 1106v-154h-358v-1126h-174v1126h-357v154h357v502h174v-502h358z" />
    <glyph glyph-name="daggerdbl" unicode="&#x2021;" horiz-adv-x="1187" 
d="M1064 952h-358v-471h358v-153h-358v-502h-174v502h-359v153h359v471h-359v154h359v502h174v-502h358v-154z" />
    <glyph glyph-name="bullet" unicode="&#x2022;" horiz-adv-x="1041" 
d="M175 717q-1 71 29 139.5t80.5 119t119 80.5t139.5 29q98 2 184.5 -49t136.5 -137t48 -182q3 -148 -108 -260t-261 -109q-95 -2 -181.5 49.5t-137.5 138t-49 181.5z" />
    <glyph glyph-name="ellipsis" unicode="&#x2026;" horiz-adv-x="1547" 
d="M21 0l50 232h232l-50 -232h-232zM543 0l50 232h232l-50 -232h-232zM1065 0l50 232h232l-50 -232h-232z" />
    <glyph glyph-name="perthousand" unicode="&#x2030;" horiz-adv-x="2472" 
d="M472 615q-147 0 -228 94q-80 95 -80 260q-2 207 113.5 342.5t283.5 132.5q143 0 222.5 -96t79.5 -260q2 -206 -112 -341t-279 -132zM1472 1434h170l-1147 -1434h-170zM478 736q98 -2 169.5 97t70.5 251q0 103 -41 171t-124 68q-102 0 -172.5 -96.5t-70.5 -251.5
q0 -113 42.5 -176t125.5 -63zM2358 463q2 -206 -112 -341t-279 -132q-185 0 -261 144q-113 -144 -290 -144q-147 0 -228 94q-80 95 -80 260q-2 207 113.5 342.5t283.5 132.5q179 0 256 -146q113 146 295 146q143 0 222.5 -96t79.5 -260zM1662 459q0 103 -41 171t-124 68
q-102 0 -172.5 -96.5t-70.5 -251.5q0 -113 42.5 -176t125.5 -63q98 -2 169.5 97t70.5 251zM2213 459q0 103 -41 171t-124 68q-102 0 -172.5 -96.5t-70.5 -251.5q0 -113 42.5 -176t125.5 -63q98 -2 169.5 97t70.5 251z" />
    <glyph glyph-name="guilsinglleft" unicode="&#x2039;" horiz-adv-x="672" 
d="M686 1024l-409 -461l194 -420h-190l-203 441l389 440h219z" />
    <glyph glyph-name="guilsinglright" unicode="&#x203a;" horiz-adv-x="670" 
d="M385 1024l203 -441l-389 -440h-219l409 461l-194 420h190z" />
    <glyph glyph-name="fraction" unicode="&#x2044;" horiz-adv-x="354" 
d="M-460 0l1147 1434h170l-1147 -1434h-170z" />
    <glyph glyph-name="uni2070" unicode="&#x2070;" horiz-adv-x="853" 
d="M216 1194q-2 207 113.5 342.5t283.5 132.5q143 0 222.5 -96t79.5 -260q2 -206 -112 -341t-279 -132q-147 0 -228 94q-80 95 -80 260zM770 1309q0 103 -41 171t-124 68q-102 0 -172.5 -96.5t-70.5 -251.5q0 -113 42.5 -176t125.5 -63q98 -2 169.5 97t70.5 251z" />
    <glyph glyph-name="uni2074" unicode="&#x2074;" horiz-adv-x="742" 
d="M482 850l40 186h-381l26 125l464 498h160l-105 -504h116l-25 -119h-115l-40 -186h-140zM307 1155h238l71 337z" />
    <glyph glyph-name="uni2075" unicode="&#x2075;" horiz-adv-x="711" 
d="M177 1071h144q4 -51 42.5 -80.5t98.5 -29.5q66 0 107 39.5t41 104.5q0 57 -38.5 94t-98.5 37q-88 0 -153 -58h-132l194 481h424l-27 -122h-307l-98 -232q60 50 148 50q101 0 167.5 -68.5t66.5 -172.5q0 -120 -83.5 -197t-213.5 -77q-120 0 -199.5 63t-82.5 168z" />
    <glyph glyph-name="uni2076" unicode="&#x2076;" horiz-adv-x="782" 
d="M208 1161q0 135 55 251t153 187q97 70 217 70q119 0 188.5 -64.5t69.5 -162.5h-140q-4 50 -40.5 78t-94.5 28q-88 0 -155 -69q-69 -68 -100 -184q33 43 88.5 69.5t116.5 26.5q105 0 173.5 -65.5t68.5 -168.5q2 -123 -93.5 -221.5t-233.5 -95.5q-126 0 -199.5 83
t-73.5 238zM663 1141q0 61 -36 97t-95 36q-73 0 -128 -50.5t-55 -120.5q0 -62 40 -102t102 -40q72 0 122 52.5t50 127.5z" />
    <glyph glyph-name="uni2077" unicode="&#x2077;" horiz-adv-x="624" 
d="M262 1659h554l-27 -126q-81 -33 -150.5 -92t-125 -143t-87 -199.5t-30.5 -248.5h-144q0 191 55 332q56 143 135 230q80 87 158 125h-364z" />
    <glyph glyph-name="uni2078" unicode="&#x2078;" horiz-adv-x="760" 
d="M195 1049q0 78 52.5 132.5t139.5 78.5q-59 26 -93.5 72.5t-34.5 107.5q0 99 87 164t217 65q123 0 210 -59.5t87 -157.5q0 -80 -60 -141.5t-147 -78.5q51 -24 80 -69t29 -104q0 -97 -82.5 -158t-202.5 -61q-118 0 -200 57t-82 152zM711 1436q0 51 -40.5 81.5t-110.5 30.5
q-69 0 -111.5 -34t-42.5 -87q0 -46 41.5 -77t109.5 -31q67 0 110.5 32t43.5 85zM625 1077q0 50 -37.5 82t-97.5 32q-63 0 -107 -34q-44 -35 -44 -88q0 -47 38.5 -77.5t103.5 -30.5t104.5 32t39.5 84z" />
    <glyph glyph-name="uni2079" unicode="&#x2079;" horiz-adv-x="780" 
d="M171 1066h140q3 -50 39.5 -77.5t98.5 -27.5q95 0 160 68t86 183q-33 -43 -88 -69.5t-115 -26.5q-106 0 -175 65.5t-69 168.5q-2 80 39 154t116.5 120.5t166.5 44.5q127 0 202 -88t75 -251q2 -127 -46 -238.5t-143 -182.5t-218 -69q-126 0 -197.5 64t-71.5 162zM707 1405
q0 62 -40 102.5t-102 40.5q-73 0 -122.5 -52.5t-49.5 -129.5q0 -58 36 -93t95 -35q76 0 129.5 48.5t53.5 118.5z" />
    <glyph glyph-name="Euro" unicode="&#x20ac;" horiz-adv-x="1385" 
d="M1353 1007h-177q3 23 3 44q0 106 -66.5 174.5t-173.5 68.5h-20q-136 0 -251.5 -103t-179.5 -276l438 98l-34 -164l-447 -100q-15 -83 -15 -174v-4l337 75l-35 -163l-287 -64q27 -133 100 -206t180 -73h20q112 0 197.5 76t125.5 211h181q-49 -200 -181 -324
q-130 -123 -349 -123q-168 0 -290 106t-160 294l-225 -50l36 164l173 38v13q0 80 10 164l-148 -33l34 163l148 33q70 261 251.5 423t398.5 159q181 2 296.5 -109.5t113.5 -275.5q0 -26 -4 -62z" />
    <glyph glyph-name="uni20B4" unicode="&#x20b4;" horiz-adv-x="1336" 
d="M1216 1042l144 22l-33 -158l-1238 -187l34 159l912 137q21 45 21 92q0 85 -64.5 136t-169.5 51h-18q-72 0 -130 -20t-93.5 -53t-57 -69.5t-30.5 -77.5h-191q21 94 79 179q59 86 168 143q109 58 272 58q193 0 300 -90t107 -227q0 -45 -12 -95zM76 427l33 158l1128 170
l-33 -160l-847 -126q-27 -43 -27 -111q0 -99 74.5 -158.5t194.5 -59.5h18q130 0 216.5 65.5t118.5 196.5h187q-52 -215 -187.5 -318.5t-363.5 -103.5q-198 0 -313.5 95.5t-115.5 250.5q0 63 22 117z" />
    <glyph glyph-name="uni20BD" unicode="&#x20bd;" horiz-adv-x="1277" 
d="M836 634h-360l-28 -134h440l-31 -155h-442l-74 -345h-183l73 345h-193l33 155h193l28 134h-198l35 166h199l134 634h413q202 0 321.5 -92t119.5 -261q2 -194 -133.5 -322t-346.5 -125zM611 1266l-99 -466h312q139 0 223.5 71.5t84.5 190.5q0 100 -73.5 152t-216.5 52
h-231z" />
    <glyph glyph-name="uni2105" unicode="&#x2105;" horiz-adv-x="1509" 
d="M188 1176q-3 147 94 244.5t225 95.5q99 0 169.5 -54.5t71.5 -148.5h-141q-3 38 -29.5 63.5t-72.5 25.5q-77 0 -126 -65.5t-49 -158.5q0 -74 31.5 -113.5t89.5 -39.5q45 0 77 24.5t38 62.5h141q-9 -84 -81.5 -142.5t-184.5 -58.5q-120 0 -186.5 70.5t-66.5 194.5zM124 0
l1146 1434h170l-1146 -1434h-170zM811 231q-3 154 89.5 254.5t219.5 98.5q113 0 187 -65t74 -184q2 -154 -89.5 -255.5t-218.5 -99.5q-118 0 -190 67t-72 184zM1241 326q0 65 -32 104.5t-89 39.5q-73 2 -121.5 -71.5t-46.5 -158.5q0 -65 32.5 -105.5t90.5 -40.5q70 0 118 67
t48 165z" />
    <glyph glyph-name="uni2113" unicode="&#x2113;" horiz-adv-x="868" 
d="M395 518l-56 -266q0 -2 -3 -15.5t-3 -18.5q0 -58 70 -58h224l-34 -160h-263q-84 0 -133 45t-49 125q0 27 6 57l44 210l-167 -70l37 174l169 79l112 527q32 151 111 229.5t199 78.5q116 0 189 -78t73 -228q2 -183 -134 -353.5t-392 -277.5zM524 1137l-89 -425l9 4
q143 61 226.5 185t81.5 253q0 67 -26 106t-71 39q-97 0 -131 -162z" />
    <glyph glyph-name="uni2116" unicode="&#x2116;" horiz-adv-x="2164" 
d="M1600 1091q-3 154 89.5 254.5t219.5 98.5q113 0 187 -65t74 -184q2 -154 -89.5 -255.5t-218.5 -99.5q-118 0 -190 67t-72 184zM1332 1434h184l-305 -1434h-249l-447 1236l-263 -1236h-184l305 1434h252l445 -1230zM1741 1100q0 -65 32.5 -105.5t90.5 -40.5q70 0 118 67
t48 165q0 65 -32 104.5t-89 39.5q-73 2 -121.5 -71.5t-46.5 -158.5zM1510 603l26 114h556l-26 -114h-556z" />
    <glyph glyph-name="uni2117" unicode="&#x2117;" horiz-adv-x="1833" 
d="M143 717q0 216 108 399q108 184 291 292q184 108 400 108t400 -108q184 -106 291 -291q108 -184 108 -400q0 -215 -108 -400q-108 -183 -292 -291q-183 -108 -399 -108t-400 108q-183 108 -291 291q-108 185 -108 400zM1603 717q0 179 -89 333q-88 152 -241 243
q-151 90 -331 90t-331 -90q-153 -91 -241 -243q-89 -154 -89 -333t89 -333q88 -152 241 -243q151 -90 331 -90t331 90q153 91 241 243q89 154 89 333zM700 343v770h321q129 0 200.5 -61.5t71.5 -181.5t-71.5 -181.5t-200.5 -61.5h-177v-284h-144zM844 757h160q73 0 109 27
t36 86q0 60 -36 87t-109 27h-160v-227z" />
    <glyph glyph-name="trademark" unicode="&#x2122;" horiz-adv-x="2066" 
d="M240 1290v144h693v-144h-268v-635h-158v635h-267zM1721 1434h236v-779h-158v584l-187 -584h-157l-198 593v-593h-157v779h236l197 -602z" />
    <glyph glyph-name="Omega" unicode="&#x2126;" horiz-adv-x="1682" 
d="M171 0v160h229q-239 167 -239 557q-2 166 48 305.5t139.5 234t213.5 146.5t268 51q144 1 268 -51t213.5 -146.5t139.5 -234t48 -305.5q0 -390 -239 -557h229v-160h-509v157q160 41 249.5 187t89.5 373q0 270 -128.5 423.5t-350.5 153.5h-20q-222 0 -350.5 -153.5
t-128.5 -423.5q0 -227 89.5 -373t249.5 -187v-157h-509z" />
    <glyph glyph-name="onethird" unicode="&#x2153;" horiz-adv-x="1817" 
d="M199 0l1147 1434h170l-1147 -1434h-170zM1068 218v11h144q1 -53 42 -86t102 -33h11q63 0 104.5 34t41.5 89q0 54 -36.5 85.5t-94.5 31.5h-86l26 124h95q70 0 113 33t43 90q0 49 -34.5 78t-86.5 29h-10q-57 0 -96 -31.5t-46 -82.5h-144q7 106 91 169t206 63
q115 0 190 -58.5t75 -157.5q0 -82 -52 -137q-51 -54 -133 -68q55 -23 87.5 -71t32.5 -107q0 -102 -87 -166.5t-213 -64.5q-122 0 -203.5 63.5t-81.5 162.5zM311 625l131 618l-278 -194l33 158l321 227h103l-172 -809h-138z" />
    <glyph glyph-name="twothirds" unicode="&#x2154;" horiz-adv-x="2005" 
d="M414 0l1147 1434h170l-1147 -1434h-170zM591 906l-242 -155h400l-26 -126h-588l30 147l303 200l24 16q56 38 87 63q78 64 78 139q0 56 -37.5 92.5t-103.5 36.5h-7q-63 0 -110 -36q-45 -35 -50 -89h-145q6 103 95.5 176.5t223.5 73.5q117 0 197.5 -67.5t80.5 -174.5
q0 -96 -54 -163q-52 -67 -156 -133zM1261 218v11h144q1 -53 42 -86t102 -33h11q63 0 104.5 34t41.5 89q0 54 -36.5 85.5t-94.5 31.5h-86l26 124h95q70 0 113 33t43 90q0 49 -34.5 78t-86.5 29h-10q-57 0 -96 -31.5t-46 -82.5h-144q7 106 91 169t206 63q115 0 190 -58.5
t75 -157.5q0 -82 -52 -137q-51 -54 -133 -68q55 -23 87.5 -71t32.5 -107q0 -102 -87 -166.5t-213 -64.5q-122 0 -203.5 63.5t-81.5 162.5z" />
    <glyph glyph-name="uni2155" unicode="&#x2155;" horiz-adv-x="1805" 
d="M201 0l1147 1434h170l-1147 -1434h-170zM311 625l131 618l-278 -194l33 158l321 227h103l-172 -809h-138zM1074 221h144q4 -51 42.5 -80.5t98.5 -29.5q66 0 107 39.5t41 104.5q0 57 -38.5 94t-98.5 37q-88 0 -153 -58h-132l194 481h424l-27 -122h-307l-98 -232
q60 50 148 50q101 0 167.5 -68.5t66.5 -172.5q0 -120 -83.5 -197t-213.5 -77q-120 0 -199.5 63t-82.5 168z" />
    <glyph glyph-name="uni2156" unicode="&#x2156;" horiz-adv-x="1995" 
d="M411 0l1147 1434h170l-1147 -1434h-170zM592 906l-242 -155h400l-26 -126h-588l30 147l303 200l24 16q55 38 87 63q78 64 78 139q0 56 -37.5 92.5t-103.5 36.5h-7q-64 0 -110 -36q-45 -35 -50 -89h-145q6 103 95.5 176.5t223.5 73.5q117 0 197.5 -67.5t80.5 -174.5
q0 -96 -54 -163q-52 -67 -156 -133zM1267 221h144q4 -51 42.5 -80.5t98.5 -29.5q66 0 107 39.5t41 104.5q0 57 -38.5 94t-98.5 37q-88 0 -153 -58h-132l194 481h424l-27 -122h-307l-98 -232q60 50 148 50q101 0 167.5 -68.5t66.5 -172.5q0 -120 -83.5 -197t-213.5 -77
q-120 0 -199.5 63t-82.5 168z" />
    <glyph glyph-name="uni2157" unicode="&#x2157;" horiz-adv-x="1939" 
d="M340 0l1147 1434h170l-1147 -1434h-170zM133 843v11h144q1 -53 42 -86t102 -33h11q63 0 104.5 34t41.5 89q0 54 -36.5 85.5t-94.5 31.5h-86l26 124h95q70 0 113 33t43 90q0 49 -34.5 78t-86.5 29h-10q-57 0 -96 -31.5t-46 -82.5h-144q7 106 91 169t206 63
q115 0 190 -58.5t75 -157.5q0 -82 -52 -137q-51 -54 -133 -68q55 -23 87.5 -71t32.5 -107q0 -102 -87 -166.5t-213 -64.5q-122 0 -203.5 63.5t-81.5 162.5zM1211 221h144q4 -51 42.5 -80.5t98.5 -29.5q66 0 107 39.5t41 104.5q0 57 -38.5 94t-98.5 37q-88 0 -153 -58h-132
l194 481h424l-27 -122h-307l-98 -232q60 50 148 50q101 0 167.5 -68.5t66.5 -172.5q0 -120 -83.5 -197t-213.5 -77q-120 0 -199.5 63t-82.5 168z" />
    <glyph glyph-name="uni2158" unicode="&#x2158;" horiz-adv-x="1955" 
d="M359 0l1147 1434h170l-1147 -1434h-170zM454 625l40 186h-381l26 125l464 498h160l-105 -504h116l-25 -119h-115l-40 -186h-140zM279 930h238l71 337zM1223 221h144q4 -51 42.5 -80.5t98.5 -29.5q66 0 107 39.5t41 104.5q0 57 -38.5 94t-98.5 37q-88 0 -153 -58h-132
l194 481h424l-27 -122h-307l-98 -232q60 50 148 50q101 0 167.5 -68.5t66.5 -172.5q0 -120 -83.5 -197t-213.5 -77q-120 0 -199.5 63t-82.5 168z" />
    <glyph glyph-name="uni2159" unicode="&#x2159;" horiz-adv-x="1838" 
d="M201 0l1147 1434h170l-1147 -1434h-170zM311 625l131 618l-278 -194l33 158l321 227h103l-172 -809h-138zM1076 311q0 135 55 251t153 187q97 70 217 70q119 0 188.5 -64.5t69.5 -162.5h-140q-4 50 -40.5 78t-94.5 28q-88 0 -155 -69q-69 -69 -100 -184q33 43 88.5 69.5
t116.5 26.5q105 0 173.5 -65.5t68.5 -168.5q2 -123 -93.5 -221.5t-233.5 -95.5q-126 0 -199.5 83t-73.5 238zM1531 291q0 61 -36 97t-95 36q-73 0 -128 -50.5t-55 -120.5q0 -62 40 -102t102 -40q72 0 122 52.5t50 127.5z" />
    <glyph glyph-name="uni215A" unicode="&#x215a;" horiz-adv-x="1957" 
d="M339 0l1147 1434h170l-1147 -1434h-170zM133 846h144q4 -51 42.5 -80.5t98.5 -29.5q66 0 107 39.5t41 104.5q0 57 -38.5 94t-98.5 37q-88 0 -153 -58h-132l194 481h424l-27 -122h-307l-98 -232q60 50 148 50q101 0 167.5 -68.5t66.5 -172.5q0 -120 -83.5 -197t-213.5 -77
q-120 0 -199.5 63t-82.5 168zM1199 311q0 135 55 251t153 187q97 70 217 70q119 0 188.5 -64.5t69.5 -162.5h-140q-4 50 -40.5 78t-94.5 28q-87 0 -155 -69t-100 -184q33 43 88.5 69.5t116.5 26.5q105 0 173.5 -65.5t68.5 -168.5q2 -123 -93.5 -221.5t-233.5 -95.5
q-126 0 -199.5 83t-73.5 238zM1654 291q0 61 -36 97t-95 36q-73 0 -128 -50.5t-55 -120.5q0 -62 40 -102t102 -40q72 0 122 52.5t50 127.5z" />
    <glyph glyph-name="oneeighth" unicode="&#x215b;" horiz-adv-x="1840" 
d="M198 0l1147 1434h170l-1147 -1434h-170zM1092 199q0 78 52.5 132.5t139.5 78.5q-59 26 -93.5 72.5t-34.5 107.5q0 99 87 164t217 65q123 0 210 -59.5t87 -157.5q0 -80 -60 -141.5t-147 -78.5q51 -24 80 -69t29 -104q0 -97 -82.5 -158t-202.5 -61q-118 0 -200 57t-82 152z
M1608 586q0 51 -40.5 81.5t-110.5 30.5q-69 0 -111.5 -34t-42.5 -87q0 -46 41.5 -77t109.5 -31q67 0 110.5 32t43.5 85zM1522 227q0 50 -37.5 82t-97.5 32q-63 0 -107 -34q-44 -35 -44 -88q0 -47 38.5 -77.5t103.5 -30.5t104.5 32t39.5 84zM311 625l131 618l-278 -194
l33 158l321 227h103l-172 -809h-138z" />
    <glyph glyph-name="threeeighths" unicode="&#x215c;" horiz-adv-x="1966" 
d="M339 0l1147 1434h170l-1147 -1434h-170zM1223 199q0 78 52.5 132.5t139.5 78.5q-59 26 -93.5 72.5t-34.5 107.5q0 99 87 164t217 65q123 0 210 -59.5t87 -157.5q0 -80 -60 -141.5t-147 -78.5q51 -24 80 -69t29 -104q0 -97 -82.5 -158t-202.5 -61q-118 0 -200 57t-82 152z
M1739 586q0 51 -40.5 81.5t-110.5 30.5q-69 0 -111.5 -34t-42.5 -87q0 -46 41.5 -77t109.5 -31q67 0 110.5 32t43.5 85zM1653 227q0 50 -37.5 82t-97.5 32q-63 0 -107 -34q-44 -35 -44 -88q0 -47 38.5 -77.5t103.5 -30.5t104.5 32t39.5 84zM131 843v11h144q1 -53 42 -86
t102 -33h11q63 0 104.5 34t41.5 89q0 54 -36.5 85.5t-94.5 31.5h-86l26 124h95q70 0 113 33t43 90q0 49 -34.5 78t-86.5 29h-10q-57 0 -96 -31.5t-46 -82.5h-144q7 106 91 169t206 63q115 0 190 -58.5t75 -157.5q0 -82 -52 -137q-51 -54 -133 -68q55 -23 87.5 -71t32.5 -107
q0 -102 -87 -166.5t-213 -64.5q-122 0 -203.5 63.5t-81.5 162.5z" />
    <glyph glyph-name="fiveeighths" unicode="&#x215d;" horiz-adv-x="1959" 
d="M329 0l1147 1434h170l-1147 -1434h-170zM1215 199q0 78 52.5 132.5t139.5 78.5q-59 26 -93.5 72.5t-34.5 107.5q0 99 87 164t217 65q123 0 210 -59.5t87 -157.5q0 -80 -60 -141.5t-147 -78.5q51 -24 80 -69t29 -104q0 -97 -82.5 -158t-202.5 -61q-118 0 -200 57t-82 152z
M1731 586q0 51 -40.5 81.5t-110.5 30.5q-69 0 -111.5 -34t-42.5 -87q0 -46 41.5 -77t109.5 -31q67 0 110.5 32t43.5 85zM1645 227q0 50 -37.5 82t-97.5 32q-63 0 -107 -34q-44 -35 -44 -88q0 -47 38.5 -77.5t103.5 -30.5t104.5 32t39.5 84zM133 846h144q4 -51 42.5 -80.5
t98.5 -29.5q66 0 107 39.5t41 104.5q0 57 -38.5 94t-98.5 37q-88 0 -153 -58h-132l194 481h424l-27 -122h-307l-98 -232q60 50 148 50q101 0 167.5 -68.5t66.5 -172.5q0 -120 -83.5 -197t-213.5 -77q-120 0 -199.5 63t-82.5 168z" />
    <glyph glyph-name="seveneighths" unicode="&#x215e;" horiz-adv-x="1787" 
d="M151 0l1147 1434h170l-1147 -1434h-170zM1036 199q0 78 52.5 132.5t139.5 78.5q-59 26 -93.5 72.5t-34.5 107.5q0 99 87 164t217 65q123 0 210 -59.5t87 -157.5q0 -80 -60 -141.5t-147 -78.5q51 -24 80 -69t29 -104q0 -97 -82.5 -158t-202.5 -61q-118 0 -200 57t-82 152z
M1552 586q0 51 -40.5 81.5t-110.5 30.5q-69 0 -111.5 -34t-42.5 -87q0 -46 41.5 -77t109.5 -31q67 0 110.5 32t43.5 85zM1466 227q0 50 -37.5 82t-97.5 32q-63 0 -107 -34q-44 -35 -44 -88q0 -47 38.5 -77.5t103.5 -30.5t104.5 32t39.5 84zM244 1434h554l-27 -126
q-81 -33 -150.5 -92t-125 -143t-87 -199.5t-30.5 -248.5h-144q0 191 55 332q56 143 135 230q80 87 158 125h-364z" />
    <glyph glyph-name="uni215F" unicode="&#x215f;" horiz-adv-x="1339" 
d="M194 0l1147 1434h170l-1147 -1434h-170zM284 625l131 618l-278 -194l33 158l321 227h103l-172 -809h-138z" />
    <glyph glyph-name="uni2160" unicode="&#x2160;" horiz-adv-x="968" 
d="M-30 0l31 147h299l243 1140h-299l31 147h774l-31 -147h-299l-242 -1140h299l-32 -147h-774z" />
    <glyph glyph-name="uni2161" unicode="&#x2161;" horiz-adv-x="1552" 
d="M-30 0l31 147h299l243 1140h-299l31 147h1358l-31 -147h-299l-243 -1140h299l-31 -147h-1358zM477 147h407l242 1140h-407z" />
    <glyph glyph-name="uni2162" unicode="&#x2162;" horiz-adv-x="2135" 
d="M-30 0l31 147h299l243 1140h-299l31 147h1942l-32 -147h-299l-242 -1140h299l-32 -147h-1941zM477 147h407l242 1140h-407zM1060 147h408l242 1140h-407z" />
    <glyph glyph-name="uni2163" unicode="&#x2163;" horiz-adv-x="2176" 
d="M-30 0l31 147h299l243 1140h-299l31 147h1109l-31 -147h-214l115 -1104l591 1104h-222l31 147h615l-31 -147h-200l-626 -1140h319l-31 -147h-1730zM477 147h613l-125 1140h-246z" />
    <glyph glyph-name="uni2164" unicode="&#x2164;" horiz-adv-x="1627" 
d="M1693 1287h-200l-625 -1140h318l-31 -147h-959l31 147h318l-124 1140h-199l31 147h587l-32 -147h-214l115 -1105l592 1105h-223l31 147h615z" />
    <glyph glyph-name="uni2165" unicode="&#x2165;" horiz-adv-x="2142" 
d="M193 0l31 147h318l-125 1140h-199l32 147h586l-31 -147h-214l115 -1104l591 1104h-222l31 147h1117l-32 -147h-299l-242 -1140h299l-31 -147h-1725zM864 147h610l242 1140h-226z" />
    <glyph glyph-name="uni2166" unicode="&#x2166;" horiz-adv-x="2725" 
d="M193 0l31 147h318l-125 1140h-199l32 147h586l-31 -147h-214l115 -1104l591 1104h-222l31 147h1699l-31 -147h-299l-243 -1140h299l-31 -147h-2307zM864 147h609l242 1140h-225zM1649 147h407l243 1140h-408z" />
    <glyph glyph-name="uni2167" unicode="&#x2167;" horiz-adv-x="3301" 
d="M193 0l31 147h318l-125 1140h-199l32 147h586l-31 -147h-214l115 -1104l591 1104h-222l31 147h2276l-31 -147h-299l-243 -1140h299l-31 -147h-2884zM864 147h602l242 1140h-218zM1642 147h407l243 1140h-408zM2225 147h408l242 1140h-407z" />
    <glyph glyph-name="uni2168" unicode="&#x2168;" horiz-adv-x="2120" 
d="M2187 1434l-31 -147h-214l-495 -570l268 -570h221l-31 -147h-1935l31 147h299l243 1140h-299l31 147h1912zM742 147l511 588l-260 552h-274l-242 -1140h265zM1374 873l359 414h-554zM1530 147l-204 433l-374 -433h578z" />
    <glyph glyph-name="uni2169" unicode="&#x2169;" horiz-adv-x="1599" 
d="M-35 0l31 147h225l510 588l-260 552h-214l31 147h1378l-32 -147h-214l-494 -570l267 -570h221l-31 -147h-1418zM852 873l360 414h-555zM430 147h578l-203 433z" />
    <glyph glyph-name="uni216C" unicode="&#x216c;" horiz-adv-x="1383" 
d="M-29 0l32 147h299l239 1140h-299l34 147h775l-35 -147h-299l-239 -1140h550l84 379h174l-111 -526h-1204z" />
    <glyph glyph-name="uni216D" unicode="&#x216d;" horiz-adv-x="1518" 
d="M132 587q0 239 93 437q95 199 264 314q170 116 390 116q143 0 263 -58q124 -57 185 -177l46 215h175l-97 -448h-162q-41 142 -147 224q-106 84 -265 84h-22q-145 0 -272 -92q-126 -92 -201 -252q-74 -160 -74 -350q0 -212 103.5 -336t293.5 -124h23q128 -2 258.5 86.5
t187.5 220.5h168l-95 -447h-175l35 162q-79 -92 -192 -137t-244 -45q-150 -2 -274 73.5t-195.5 216t-69.5 317.5z" />
    <glyph glyph-name="uni216E" unicode="&#x216e;" horiz-adv-x="1603" 
d="M-30 0l31 147h273l243 1140h-273l31 147h591q160 1 287 -45.5t207 -128.5t121.5 -189.5t40.5 -232.5q0 -255 -106 -445q-105 -190 -283 -292q-179 -101 -388 -101h-775zM451 147h273q197 0 336 97q142 98 212 255q72 159 72 341q2 195 -132 322t-358 125h-161z" />
    <glyph glyph-name="uni216F" unicode="&#x216f;" horiz-adv-x="2083" 
d="M-30 0l31 147h237l242 1140h-236l31 147h520l156 -1262l676 1262h536l-32 -147h-236l-242 -1140h236l-31 -147h-558l32 147h147l237 1117l-686 -1264h-220l-157 1270l-239 -1123h146l-31 -147h-559z" />
    <glyph glyph-name="arrowleft" unicode="&#x2190;" horiz-adv-x="1612" 
d="M1553 634h-1197l434 -434l-116 -117l-637 635l637 636l116 -117l-434 -434h1197v-169z" />
    <glyph glyph-name="arrowup" unicode="&#x2191;" horiz-adv-x="1585" 
d="M700 0v1197l-434 -434l-117 116l635 637l636 -637l-117 -116l-434 434v-1197h-169z" />
    <glyph glyph-name="arrowright" unicode="&#x2192;" horiz-adv-x="1611" 
d="M58 801h1197l-434 434l116 117l637 -635l-637 -636l-116 117l434 434h-1197v169z" />
    <glyph glyph-name="arrowdown" unicode="&#x2193;" horiz-adv-x="1585" 
d="M869 1434v-1197l434 434l117 -116l-635 -637l-636 637l117 116l434 -434v1197h169z" />
    <glyph glyph-name="uni2196" unicode="&#x2196;" horiz-adv-x="1372" 
d="M1150 302l-846 846v-613l-165 -1l-2 899l900 -1v-164h-614l846 -847z" />
    <glyph glyph-name="uni2197" unicode="&#x2197;" horiz-adv-x="1374" 
d="M101 423l846 846h-613l-1 165l899 2l-1 -900h-164v614l-847 -846z" />
    <glyph glyph-name="uni2198" unicode="&#x2198;" horiz-adv-x="1376" 
d="M220 1131l846 -846v613l165 1l2 -899l-900 1v164h614l-846 847z" />
    <glyph glyph-name="uni2199" unicode="&#x2199;" horiz-adv-x="1373" 
d="M1269 1012l-846 -846h613l1 -165l-899 -2l1 900h164v-614l847 846z" />
    <glyph glyph-name="uni21A4" unicode="&#x21a4;" horiz-adv-x="1731" 
d="M1403 1229h167v-1024h-167v428h-1029l434 -434l-116 -117l-637 637l637 634l116 -117l-435 -434h1030v427z" />
    <glyph glyph-name="uni21A5" unicode="&#x21a5;" horiz-adv-x="1671" 
d="M1388 762l-434 435v-1030h427v-167h-1024v167h428v1029l-434 -434l-117 116l637 637l634 -637z" />
    <glyph glyph-name="uni21A6" unicode="&#x21a6;" horiz-adv-x="1739" 
d="M1047 1354l637 -637l-637 -634l-116 117l435 434h-1030v-427h-167v1024h167v-428h1029l-434 434z" />
    <glyph glyph-name="uni21A7" unicode="&#x21a7;" horiz-adv-x="1675" 
d="M1394 671l117 -116l-637 -637l-634 637l117 116l434 -435v1030h-427v167h1024v-167h-428v-1029z" />
    <glyph glyph-name="uni21B0" unicode="&#x21b0;" horiz-adv-x="1717" 
d="M1550 801v-801h-170v632h-1028l435 -433l-116 -118l-637 636l637 635l116 -117l-435 -434h1198z" />
    <glyph glyph-name="uni21B1" unicode="&#x21b1;" horiz-adv-x="1717" 
d="M1046 1352l637 -635l-637 -636l-116 118l435 433h-1028v-632h-170v801h1198l-435 434z" />
    <glyph glyph-name="uni21B2" unicode="&#x21b2;" horiz-adv-x="1731" 
d="M1380 1434h170v-801h-1198l435 -434l-116 -117l-637 635l637 636l116 -118l-435 -433h1028v632z" />
    <glyph glyph-name="uni21B3" unicode="&#x21b3;" horiz-adv-x="1731" 
d="M1060 1353l637 -636l-637 -635l-116 117l435 434h-1198v801h170v-632h1028l-435 433z" />
    <glyph glyph-name="partialdiff" unicode="&#x2202;" horiz-adv-x="1164" 
d="M83 494q-3 214 126.5 358t322.5 141q203 0 317 -136l-5 40q-15 98 -56 175.5t-99 125t-126 72t-142 24.5q-55 0 -111 -10q-58 -9 -94 -21v160q35 12 95 21q59 10 126 10q147 1 264 -61.5t191.5 -175.5t113.5 -265.5t38 -333.5q0 -317 -129 -477.5t-353 -160.5
q-221 0 -350 139.5t-129 374.5zM558 140h10q131 0 215.5 91t84.5 261q0 168 -82.5 259.5t-217.5 91.5h-21q-128 0 -208 -91.5t-80 -257.5q0 -169 84 -261.5t215 -92.5z" />
    <glyph glyph-name="Delta" unicode="&#x2206;" horiz-adv-x="1488" 
d="M770 1434l533 -1277v-157h-1287v157l533 1277h221zM659 1272l-464 -1112h928z" />
    <glyph glyph-name="product" unicode="&#x220f;" horiz-adv-x="1552" 
d="M448 0v1273h-208v161h1287v-161h-207v-1273h-176v1273h-520v-1273h-176z" />
    <glyph glyph-name="summation" unicode="&#x2211;" horiz-adv-x="1316" 
d="M1131 1434v-161h-683l407 -556l-407 -557h683v-160h-898v168l407 549l-407 558v159h898z" />
    <glyph glyph-name="minus" unicode="&#x2212;" horiz-adv-x="1340" 
d="M148 447v161h1012v-161h-1012z" />
    <glyph glyph-name="uni2215" unicode="&#x2215;" horiz-adv-x="686" 
d="M-96 0l737 1434h188l-737 -1434h-188z" />
    </font>
</defs>
</svg>
