<?xml version="1.0" standalone="no"?>
<!DOCTYPE svg PUBLIC "-//W3C//DTD SVG 1.1//EN" "http://www.w3.org/Graphics/SVG/1.1/DTD/svg11.dtd" >
<svg xmlns="http://www.w3.org/2000/svg" xmlns:xlink="http://www.w3.org/1999/xlink" version="1.1">
<metadata>
Created by FontForge 20170731 at Wed Feb  6 07:12:10 2019
 By Aleksey,,,
Copyright 2019 Dinamo (Johannes Breyer, Fabian Harb). All rights reserved. |DCNT
</metadata>
<defs>
<font id="FavoritPro-Bold" horiz-adv-x="1229" >
  <font-face 
    font-family="Favorit Pro"
    font-weight="700"
    font-stretch="normal"
    units-per-em="2048"
    panose-1="2 0 0 6 3 0 0 2 0 4"
    ascent="1438"
    descent="-610"
    x-height="1024"
    cap-height="1434"
    bbox="-1485 -635 4469 2081"
    underline-thickness="50"
    underline-position="-150"
    unicode-range="U+000D-FB02"
  />
<missing-glyph 
d="M143 0v1434h1024v-1434h-1024zM358 215h594v1004h-594v-1004z" />
    <glyph glyph-name="fi" unicode="fi" horiz-adv-x="1341" 
d="M252 0v809h-209v215h209v143q0 131 68 199t198 68h293v-222h-180q-70 0 -91.5 -21t-21.5 -91v-76h686v-1024h-266v809h-420v-809h-266zM928 1157v277h286v-277h-286z" />
    <glyph glyph-name="fl" unicode="fl" horiz-adv-x="1341" 
d="M252 0v809h-209v215h209v143q0 131 68 199t198 68h686v-1434h-266v1212h-307q-70 0 -91.5 -21t-21.5 -91v-76h242v-215h-242v-809h-266z" />
    <glyph glyph-name="f_f" unicode="ff" horiz-adv-x="1497" 
d="M252 0v809h-209v215h209v143q0 131 68 199t198 68h293v-222h-180q-70 0 -91.5 -21t-21.5 -91v-76h420v143q0 131 68 199t198 68h293v-222h-180q-70 0 -91.5 -21t-21.5 -91v-76h242v-215h-242v-809h-266v809h-420v-809h-266z" />
    <glyph glyph-name="f_f_i" unicode="ffi" horiz-adv-x="2028" 
d="M252 0v809h-209v215h209v143q0 131 68 199t198 68h293v-222h-180q-70 0 -91.5 -21t-21.5 -91v-76h420v143q0 131 68 199t198 68h293v-222h-180q-70 0 -91.5 -21t-21.5 -91v-76h686v-1024h-266v809h-420v-809h-266v809h-420v-809h-266zM1614 1157v277h287v-277h-287z" />
    <glyph glyph-name="f_f_l" unicode="ffl" horiz-adv-x="2028" 
d="M252 0v809h-209v215h209v143q0 131 68 199t198 68h293v-222h-180q-70 0 -91.5 -21t-21.5 -91v-76h420v143q0 131 68 199t198 68h686v-1434h-266v1212h-307q-70 0 -91.5 -21t-21.5 -91v-76h242v-215h-242v-809h-266v809h-420v-809h-266z" />
    <glyph glyph-name=".notdef" 
d="M143 0v1434h1024v-1434h-1024zM358 215h594v1004h-594v-1004z" />
    <glyph glyph-name=".null" horiz-adv-x="0" 
 />
    <glyph glyph-name="nonmarkingreturn" horiz-adv-x="682" 
 />
    <glyph glyph-name="CR" unicode="&#xd;" horiz-adv-x="479" 
 />
    <glyph glyph-name="space" unicode=" " horiz-adv-x="479" 
 />
    <glyph glyph-name="exclam" unicode="!" horiz-adv-x="575" 
d="M215 358l-63 584v492h272v-492l-64 -584h-145zM143 0v276h287v-276h-287z" />
    <glyph glyph-name="quotedbl" unicode="&#x22;" horiz-adv-x="795" 
d="M172 942l-66 277v215h236v-215l-66 -277h-104zM518 942l-65 277v215h235v-215l-65 -277h-105z" />
    <glyph glyph-name="numbersign" unicode="#" horiz-adv-x="1452" 
d="M1372 870h-254l-65 -307h231v-235h-282l-70 -328h-246l70 328h-225l-70 -328h-246l70 328h-205v235h256l65 307h-233v236h284l70 328h246l-70 -328h225l70 328h246l-70 -328h203v-236zM807 563l65 307h-225l-65 -307h225z" />
    <glyph glyph-name="dollar" unicode="$" horiz-adv-x="1294" 
d="M1188 420q2 -191 -141.5 -316.5t-390.5 -123.5l-38 -226h-235l43 254q-171 47 -262.5 170t-97.5 303h270q11 -153 132 -220l59 351l-27 6q-363 78 -363 406q-1 82 34.5 159.5t101.5 138.5t168 97t223 35h5l38 225h235l-44 -262q150 -51 230 -166q82 -115 82 -268h-270
q-8 116 -85 179l-56 -335q195 -40 292 -140t97 -267zM571 872l58 346q-99 -6 -160 -59t-61 -125q0 -68 37.5 -105t125.5 -57zM918 399q0 70 -36.5 109t-125.5 57h-1l-59 -350q102 3 162 55.5t60 128.5z" />
    <glyph glyph-name="percent" unicode="%" horiz-adv-x="1921" 
d="M410 0l860 1434h240l-861 -1434h-239zM1145 403q0 83 22 157t64.5 133t112 93t157.5 33q88 1 157.5 -33t112 -93t64.5 -133t22 -157t-22 -156.5t-64.5 -132t-112 -92t-157.5 -32.5q-88 -1 -157.5 32.5t-112 92t-64.5 132t-22 156.5zM1497 178h8q64 0 97.5 58.5
t33.5 166.5q0 109 -34 168.5t-97 59.5h-8q-63 0 -97 -59.5t-34 -168.5q0 -108 33.5 -166.5t97.5 -58.5zM64 1028q0 83 22 157t64.5 133t112 93t157.5 33q88 1 157.5 -33t112 -93t64.5 -133t22 -157t-22 -156.5t-64.5 -132t-112 -92t-157.5 -32.5q-88 -1 -157.5 32.5t-112 92
t-64.5 132t-22 156.5zM416 803h8q64 0 97.5 58.5t33.5 166.5q0 109 -34 168.5t-97 59.5h-8q-63 0 -97 -59.5t-34 -168.5q0 -108 33.5 -166.5t97.5 -58.5z" />
    <glyph glyph-name="ampersand" unicode="&#x26;" horiz-adv-x="1362" 
d="M94 379q0 126 74 218q73 90 199 130q-123 44 -193 130.5t-70 207.5q-2 111 56 196.5t153 129.5t209 43h309v-215h-227q-109 0 -171 -47t-62 -140q0 -97 64 -146q65 -50 169 -50h230v247h266v-247h215v-215h-215v-621h-574q-84 -1 -163 26.5t-139.5 76t-96 121
t-33.5 155.5zM604 215h230v406h-230q-109 0 -176 -49q-68 -50 -68 -150q0 -102 68 -155q68 -52 176 -52z" />
    <glyph glyph-name="quotesingle" unicode="'" horiz-adv-x="449" 
d="M172 942l-66 277v215h236v-215l-66 -277h-104z" />
    <glyph glyph-name="parenleft" unicode="(" horiz-adv-x="840" 
d="M88 717q0 329 102 559t261 342q161 113 333 113v-226q-100 -13 -199 -94q-96 -78 -164 -252q-67 -171 -67 -442q0 -272 67 -443q68 -174 164 -252q97 -79 199 -94v-225q-172 0 -333 113q-159 112 -261 342t-102 559z" />
    <glyph glyph-name="parenright" unicode=")" horiz-adv-x="840" 
d="M752 717q0 -329 -102 -559t-262 -342q-160 -113 -332 -113v226q99 13 198 94q98 79 165 252q67 171 67 442t-67 442q-67 173 -165 252q-98 80 -198 95v225q172 0 332 -113q160 -112 262 -342t102 -559z" />
    <glyph glyph-name="asterisk" unicode="*" horiz-adv-x="915" 
d="M350 829l-172 95l109 178h-195v188h195l-109 178l172 95l109 -179l106 179l172 -95l-108 -178h194v-188h-194l108 -178l-172 -95l-106 179z" />
    <glyph glyph-name="plus" unicode="+" horiz-adv-x="1174" 
d="M451 31v379h-369v235h369v379h272v-379h369v-235h-369v-379h-272z" />
    <glyph glyph-name="comma" unicode="," horiz-adv-x="557" 
d="M63 -307v153h74q63 0 95 36t32 98v20h-133v297h297v-328q2 -109 -81 -193.5t-200 -82.5h-84z" />
    <glyph glyph-name="hyphen" unicode="-" horiz-adv-x="848" 
d="M127 512v215h594v-215h-594z" />
    <glyph glyph-name="period" unicode="." horiz-adv-x="551" 
d="M127 0v297h297v-297h-297z" />
    <glyph glyph-name="slash" unicode="/" horiz-adv-x="946" 
d="M57 0l553 1434h277l-543 -1434h-287z" />
    <glyph glyph-name="zero" unicode="0" horiz-adv-x="1376" 
d="M104 717q-1 218 68.5 385.5t203 260.5t312.5 91q179 2 312.5 -91t203 -260.5t68.5 -385.5q2 -336 -153.5 -537.5t-430.5 -199.5q-275 -2 -430.5 199.5t-153.5 537.5zM678 215h20q160 0 230 135q71 136 71 367t-71 367q-70 135 -230 135h-20q-158 0 -230 -135
q-71 -136 -71 -367t71 -367q72 -135 230 -135z" />
    <glyph glyph-name="one" unicode="1" horiz-adv-x="821" 
d="M432 1434h215v-1434h-260v1047l-317 -304v338z" />
    <glyph glyph-name="two" unicode="2" horiz-adv-x="1206" 
d="M441 236h665v-236h-1010v248l488 459q97 91 139 138q48 54 69 98.5t21 94.5q0 78 -53.5 129.5t-136.5 51.5h-21q-94 0 -155 -63.5t-64 -170.5h-272q-2 140 63.5 248t179.5 165t256 56q209 2 343.5 -114t131.5 -291q0 -90 -29 -165q-29 -76 -86 -144q-58 -72 -157 -162z
" />
    <glyph glyph-name="three" unicode="3" horiz-adv-x="1225" 
d="M88 395h272q9 -83 68.5 -131.5t157.5 -48.5h20q111 0 171.5 57.5t60.5 137.5q0 89 -70 138q-70 50 -184 50h-97v236h86q116 0 186 54.5t70 145.5q0 78 -61 131.5t-152 53.5h-20q-84 0 -143 -50.5t-66 -134.5h-272q-3 179 140 300.5t351 119.5q217 3 357.5 -115.5
t138.5 -283.5q0 -121 -69.5 -211.5t-182.5 -120.5q116 -32 189 -123t73 -211q2 -191 -142.5 -301t-373.5 -108q-226 -2 -368 112t-140 303z" />
    <glyph glyph-name="four" unicode="4" horiz-adv-x="1292" 
d="M1012 526h215v-235h-215v-291h-260v291h-693v268l684 875h269v-908zM324 526h428v544z" />
    <glyph glyph-name="five" unicode="5" horiz-adv-x="1214" 
d="M1110 453q2 -210 -141 -342.5t-375 -130.5q-216 -2 -364.5 116.5t-168.5 302.5h273q19 -85 87 -134.5t165 -49.5h20q100 0 166 62t66 165t-65 161.5t-167 58.5h-20q-60 0 -121 -25.5t-105 -73.5h-249l176 871h809v-236h-603l-83 -391q41 39 112 65q69 25 140 25
q196 2 323.5 -124.5t124.5 -319.5z" />
    <glyph glyph-name="six" unicode="6" horiz-adv-x="1292" 
d="M1174 471q1 -99 -35 -188.5t-102 -157t-166.5 -107t-219.5 -38.5q-261 0 -405 180t-144 510q0 233 85 410q86 179 232 276q148 98 326 98q183 0 310 -106t149 -283h-272q-9 69 -60 111.5t-137 42.5h-20q-64 0 -123 -27t-110.5 -81.5t-87 -147t-47.5 -213.5q45 86 145 140
q97 52 219 52q125 1 231.5 -57t170 -167.5t61.5 -246.5zM901 461q0 104 -67.5 175t-169.5 71h-21q-108 0 -180 -70t-72 -176t71 -176t181 -70h21q102 0 169.5 71t67.5 175z" />
    <glyph glyph-name="seven" unicode="7" horiz-adv-x="1143" 
d="M51 1434h1034v-226q-241 -157 -379 -415q-137 -257 -137 -660v-133h-284v133q0 392 134 646q135 255 346 409h-714v246z" />
    <glyph glyph-name="eight" unicode="8" horiz-adv-x="1204" 
d="M133 369q0 120 64 203t178 122q-117 42 -194 137q-77 97 -77 234q-1 75 33 145.5t96 125t158.5 87t210.5 31.5q114 1 210 -31.5t158.5 -87t96.5 -125t33 -145.5q0 -137 -77 -234q-77 -95 -194 -137q114 -39 178 -122t64 -203q1 -78 -31 -149t-90.5 -125t-149 -85
t-198.5 -30q-108 -1 -198.5 30t-149 85t-90.5 125t-31 149zM592 819h20q89 0 152 58t63 143t-63 142t-152 57h-20q-89 0 -152 -57t-63 -142t63 -143t152 -58zM592 215h20q79 0 133 51.5t54 132.5q0 82 -54 134.5t-133 52.5h-20q-78 0 -132 -52.5t-54 -134.5q0 -81 53 -132.5
t133 -51.5z" />
    <glyph glyph-name="nine" unicode="9" horiz-adv-x="1292" 
d="M1190 764q0 -234 -85 -411q-86 -179 -232 -276t-326 -97q-183 0 -310 106.5t-149 282.5h272q9 -69 60.5 -111.5t136.5 -42.5h21q63 -1 122 26.5t111 82t88 147.5t46 213q-45 -86 -145 -140q-97 -52 -218 -52q-93 -1 -178.5 33t-149 95t-100.5 150.5t-35 192.5
q-1 99 35 188.5t102 157t166 107t219 38.5q261 0 405 -181t144 -509zM901 973q0 106 -71 176t-181 70h-20q-103 0 -170.5 -71t-67.5 -175t67.5 -175t170.5 -71h20q108 0 180 69.5t72 176.5z" />
    <glyph glyph-name="colon" unicode=":" horiz-adv-x="555" 
d="M129 0v297h297v-297h-297zM129 727v297h297v-297h-297z" />
    <glyph glyph-name="semicolon" unicode=";" horiz-adv-x="594" 
d="M88 -307v153h74q63 0 95 36t32 98v20h-133v297h297v-328q2 -109 -81 -193.5t-200 -82.5h-84zM156 727v297h297v-297h-297z" />
    <glyph glyph-name="less" unicode="&#x3c;" horiz-adv-x="1081" 
d="M952 996v-267l-534 -201l534 -202v-272l-870 348v246z" />
    <glyph glyph-name="equal" unicode="=" horiz-adv-x="1286" 
d="M137 614v236h1012v-236h-1012zM137 205v235h1012v-235h-1012z" />
    <glyph glyph-name="greater" unicode="&#x3e;" horiz-adv-x="1081" 
d="M129 997l870 -348v-246l-870 -348v267l534 202l-534 201v272z" />
    <glyph glyph-name="question" unicode="?" horiz-adv-x="1006" 
d="M262 391v316q0 77 43 120t119 43h55q191 0 191 164q0 75 -52 119.5t-139 44.5h-409v236h446q187 0 305.5 -110t118.5 -290q2 -159 -102 -270t-271 -109q-31 0 -42 -10.5t-11 -40.5v-213h-252zM244 0v276h286v-276h-286z" />
    <glyph glyph-name="at" unicode="@" horiz-adv-x="1903" 
d="M96 625q0 261 126 459q127 198 334 304q208 107 441 107q228 0 421 -100q194 -101 306 -274q113 -173 113 -384q1 -128 -34.5 -233t-96.5 -171.5t-138 -102.5t-161 -35h-262v112q-36 -63 -101 -98t-147 -35q-101 -2 -185.5 59t-131 162t-45.5 215q-1 115 45.5 215.5
t131 160.5t185.5 58q82 0 147 -35t101 -98v113h235v-645h9q89 0 145.5 88t56.5 270q1 114 -42.5 215t-121 174t-189.5 114.5t-241 39.5q-177 2 -328 -80t-240.5 -234.5t-86.5 -340.5q-1 -152 48.5 -276.5t139.5 -207.5t215 -128t273 -44h522v-225h-543q-196 -1 -361 56
t-286 166t-188 278t-66 381zM961 377h10q75 0 119.5 69.5t44.5 163.5q0 93 -45 162.5t-119 69.5h-10q-72 0 -118 -65.5t-46 -166.5q0 -105 45.5 -169t118.5 -64z" />
    <glyph glyph-name="A" unicode="A" horiz-adv-x="1460" 
d="M1155 0l-129 338h-602l-129 -338h-291l567 1434h324l553 -1434h-293zM517 584h415l-208 544z" />
    <glyph glyph-name="B" unicode="B" horiz-adv-x="1366" 
d="M168 0v1434h635q196 2 319 -106t121 -265q0 -128 -67 -216q-66 -89 -175 -120q120 -25 196.5 -117t76.5 -229q2 -161 -127.5 -272.5t-323.5 -108.5h-655zM444 846h318q100 0 152.5 44t52.5 128t-52.5 127t-152.5 43h-318v-342zM444 246h338q103 0 159 46.5t56 135.5
t-56 134.5t-159 45.5h-338v-362z" />
    <glyph glyph-name="C" unicode="C" horiz-adv-x="1456" 
d="M90 717q-1 220 79.5 387t237.5 259.5t369 90.5q134 1 246 -37t187 -105t119 -156.5t50 -192.5h-276q-23 117 -105 181t-211 64h-20q-178 2 -289.5 -132.5t-109.5 -358.5q0 -225 110 -358.5t289 -133.5h20q131 0 212 63t104 183h276q-14 -220 -173.5 -356.5t-428.5 -134.5
q-212 -2 -369 90.5t-237.5 259.5t-79.5 387z" />
    <glyph glyph-name="D" unicode="D" horiz-adv-x="1477" 
d="M168 0v1434h491q331 2 530 -187.5t197 -529.5q2 -342 -192.5 -530.5t-523.5 -186.5h-502zM444 246h195q224 0 347 108q124 108 124 363q0 254 -124 362q-122 109 -347 109h-195v-942z" />
    <glyph glyph-name="E" unicode="E" horiz-adv-x="1354" 
d="M168 0v1434h1085v-246h-809v-330h686v-246h-686v-366h830v-246h-1106z" />
    <glyph glyph-name="F" unicode="F" horiz-adv-x="1262" 
d="M168 0v1434h1044v-246h-768v-369h666v-246h-666v-573h-276z" />
    <glyph glyph-name="G" unicode="G" horiz-adv-x="1530" 
d="M88 717q-2 207 86 376t251.5 266.5t369.5 94.5q266 2 434 -142t180 -370h-276q-18 125 -101 195.5t-227 70.5h-21q-196 0 -307.5 -132.5t-111.5 -358.5t111.5 -359t307.5 -133h21q134 0 239.5 71t139.5 191l4 15h-393v246h450q85 0 129.5 -45t44.5 -130v-573h-235v139
q-149 -159 -410 -159q-201 -3 -359.5 94.5t-243.5 266.5t-83 376z" />
    <glyph glyph-name="H" unicode="H" horiz-adv-x="1513" 
d="M168 0v1434h276v-594h625v594h277v-1434h-277v594h-625v-594h-276z" />
    <glyph glyph-name="I" unicode="I" horiz-adv-x="612" 
d="M168 0v1434h276v-1434h-276z" />
    <glyph glyph-name="J" unicode="J" horiz-adv-x="879" 
d="M57 0v266h262q70 0 96.5 27t26.5 96v1045h277v-1147q0 -130 -78.5 -208.5t-208.5 -78.5h-375z" />
    <glyph glyph-name="K" unicode="K" horiz-adv-x="1405" 
d="M1065 0l-432 631l-189 -199v-432h-276v1434h276v-644l609 644h342l-565 -595l577 -839h-342z" />
    <glyph glyph-name="L" unicode="L" horiz-adv-x="1290" 
d="M168 0v1434h276v-1188h809v-246h-1085z" />
    <glyph glyph-name="M" unicode="M" horiz-adv-x="1903" 
d="M1307 1434h428v-1434h-271v1128l-356 -1128h-303l-367 1132v-1132h-270v1434h430l360 -1125z" />
    <glyph glyph-name="N" unicode="N" horiz-adv-x="1534" 
d="M1090 1434h276v-1434h-358l-564 1056v-1056h-276v1434h358l564 -1051v1051z" />
    <glyph glyph-name="O" unicode="O" horiz-adv-x="1569" 
d="M88 717q-2 222 87 391.5t247.5 258.5t361.5 87q152 2 281.5 -50t222 -147t144 -234t49.5 -306q2 -167 -49.5 -306t-144 -234t-222 -147t-281.5 -50q-203 -2 -361.5 87t-247.5 258.5t-87 391.5zM774 225h21q191 0 300 131t109 361t-109 360.5t-300 130.5h-21
q-191 0 -300 -130.5t-109 -360.5t109 -361t300 -131z" />
    <glyph glyph-name="P" unicode="P" horiz-adv-x="1335" 
d="M168 0v1434h645q211 0 336 -120t125 -331t-125 -332t-336 -121h-369v-530h-276zM444 776h338q104 0 159.5 55t55.5 152q0 96 -55.5 150.5t-159.5 54.5h-338v-412z" />
    <glyph glyph-name="Q" unicode="Q" horiz-adv-x="1569" 
d="M1032 -184h273v-226h-383q-130 0 -198.5 68t-68.5 199v133q-257 37 -413 232.5t-154 494.5q-2 222 87 391.5t247.5 258.5t361.5 87q152 2 281.5 -50t222 -147t144 -234t49.5 -306q2 -296 -152 -491t-409 -235v-63q0 -70 21 -91t91 -21zM774 225h21q191 0 300 131t109 361
t-109 360.5t-300 130.5h-21q-191 0 -300 -130.5t-109 -360.5t109 -361t300 -131z" />
    <glyph glyph-name="R" unicode="R" horiz-adv-x="1399" 
d="M168 0v1434h666q119 1 221 -49.5t161.5 -141.5t57.5 -199q0 -271 -244 -362q223 0 223 -203v-479h-276v410q0 77 -28 105t-105 28h-400v-543h-276zM444 784h308q121 0 183 53t62 154q0 197 -245 197h-308v-404z" />
    <glyph glyph-name="S" unicode="S" horiz-adv-x="1298" 
d="M59 481h277q8 -115 92 -185.5t236 -70.5h20q109 0 171.5 50t62.5 124q0 67 -36 103.5t-126 54.5l-256 53q-369 78 -369 414q-2 82 36 159.5t106 138.5t173 97t228 35q250 2 397.5 -130.5t145.5 -340.5h-277q-7 107 -78.5 166t-187.5 59h-21q-109 0 -177 -51t-68 -123
q0 -69 40 -106t134 -56l215 -43q397 -79 397 -409q2 -190 -148.5 -316t-402.5 -124q-281 0 -428 133t-156 368z" />
    <glyph glyph-name="T" unicode="T" horiz-adv-x="1343" 
d="M532 0v1188h-495v246h1270v-246h-498v-1188h-277z" />
    <glyph glyph-name="U" unicode="U" horiz-adv-x="1438" 
d="M156 502v932h276v-891q0 -166 67.5 -242t209.5 -76h20q142 0 209.5 76t67.5 242v891h276v-932q0 -255 -140.5 -388.5t-422.5 -133.5t-422.5 133.5t-140.5 388.5z" />
    <glyph glyph-name="V" unicode="V" horiz-adv-x="1466" 
d="M1149 1434h303l-537 -1434h-358l-549 1434h309l425 -1144z" />
    <glyph glyph-name="W" unicode="W" horiz-adv-x="1946" 
d="M1618 1434h287l-355 -1434h-358l-218 1043l-222 -1043h-359l-352 1434h285l255 -1135l226 1135h338l225 -1137z" />
    <glyph glyph-name="X" unicode="X" horiz-adv-x="1315" 
d="M1313 0h-326l-334 503l-340 -503h-311l496 735l-465 699h325l304 -457l309 457h311l-465 -689z" />
    <glyph glyph-name="Y" unicode="Y" horiz-adv-x="1358" 
d="M1049 1434h303l-535 -861v-573h-276v573l-533 861h314l366 -603z" />
    <glyph glyph-name="Z" unicode="Z" horiz-adv-x="1300" 
d="M82 0v236l795 952h-775v246h1096v-236l-795 -952h816v-246h-1137z" />
    <glyph glyph-name="bracketleft" unicode="[" horiz-adv-x="719" 
d="M164 -297v2028h491v-215h-225v-1598h225v-215h-491z" />
    <glyph glyph-name="backslash" unicode="\" horiz-adv-x="946" 
d="M602 0l-543 1434h277l553 -1434h-287z" />
    <glyph glyph-name="bracketright" unicode="]" horiz-adv-x="719" 
d="M555 1731v-2028h-491v215h225v1598h-225v215h491z" />
    <glyph glyph-name="asciicircum" unicode="^" horiz-adv-x="1106" 
d="M1038 584h-284l-203 504l-203 -504h-280l358 850h254z" />
    <glyph glyph-name="underscore" unicode="_" horiz-adv-x="1085" 
d="M61 -215v215h963v-215h-963z" />
    <glyph glyph-name="grave" unicode="`" horiz-adv-x="481" 
d="M266 1126l-205 308h308l51 -308h-154z" />
    <glyph glyph-name="a" unicode="a" horiz-adv-x="1098" 
d="M979 0h-250q-9 43 -12 125q-49 -68 -127.5 -106.5t-175.5 -38.5q-141 -2 -239.5 83.5t-96.5 217.5q0 156 105 240q104 83 270 97l258 23v25q0 70 -45.5 116.5t-118.5 46.5h-17q-69 0 -114.5 -36.5t-50.5 -85.5h-267q15 148 136 243t305 94q197 0 313.5 -97t116.5 -271
v-451q0 -156 10 -225zM711 418v29l-222 -23q-59 -5 -104 -36q-45 -32 -45 -89q0 -47 36 -75.5t91 -28.5h16q93 0 160.5 64t67.5 159z" />
    <glyph glyph-name="b" unicode="b" horiz-adv-x="1231" 
d="M403 133v-133h-266v1434h266v-543q36 61 117 107t178 46q104 2 192 -41.5t145 -117.5t88 -171t30 -202q1 -105 -30 -202t-88 -171t-145 -117.5t-192 -41.5q-97 0 -178 46t-117 107zM637 195h16q101 0 167.5 88.5t66.5 230.5t-66 228.5t-168 86.5h-16q-94 2 -164.5 -89
t-69.5 -228q-1 -137 69.5 -228t164.5 -89z" />
    <glyph glyph-name="c" unicode="c" horiz-adv-x="1104" 
d="M80 512q-1 117 37 218t104 170t157 107t193 37q207 0 326.5 -96t134.5 -282h-266q-12 78 -59.5 120.5t-126.5 42.5h-17q-107 0 -163 -89q-54 -88 -54 -228t54 -228q56 -89 163 -89h17q79 0 126.5 42.5t59.5 120.5h266q-15 -186 -134.5 -282t-326.5 -96q-102 -1 -193 37
t-157 107t-104 170t-37 218z" />
    <glyph glyph-name="d" unicode="d" horiz-adv-x="1231" 
d="M78 512q-2 142 51.5 263t159 196t243.5 73q97 0 178.5 -46t116.5 -107v543h267v-1434h-267v133q-35 -61 -116.5 -107t-178.5 -46q-138 -2 -243.5 73t-159 196t-51.5 263zM578 195h16q95 -2 165 89t68 228q2 137 -68 228t-165 89h-16q-102 0 -168 -86.5t-66 -228.5
t66 -230.5t168 -88.5z" />
    <glyph glyph-name="e" unicode="e" horiz-adv-x="1118" 
d="M80 512q-2 233 132 384t355 148q219 2 344 -144t123 -376q0 -37 -4 -96h-692q7 -100 76 -166.5t155 -66.5h17q70 0 117.5 35.5t62.5 93.5h264q-39 -157 -159 -250.5t-304 -93.5q-96 -1 -185 36.5t-156.5 105t-107.5 169.5t-38 221zM338 633h438q-4 89 -64.5 142.5
t-146.5 53.5h-16q-86 0 -146.5 -53.5t-64.5 -142.5z" />
    <glyph glyph-name="f" unicode="f" horiz-adv-x="811" 
d="M252 0v809h-209v215h209v143q0 131 68 199t198 68h293v-222h-180q-70 0 -91.5 -21t-21.5 -91v-76h242v-215h-242v-809h-266z" />
    <glyph glyph-name="g" unicode="g" horiz-adv-x="1214" 
d="M63 -115h267q9 -55 69.5 -88t159.5 -33h12q107 0 173.5 64t66.5 180v135q-41 -71 -118 -107t-171 -36q-89 -1 -169.5 35t-141.5 102t-96.5 166t-34.5 219q-1 119 34.5 219t96.5 166t141.5 102t169.5 35q94 0 171 -36t118 -107v123h266v-1049q1 -82 -34.5 -159
t-101.5 -137t-168.5 -95.5t-225.5 -34.5q-133 -1 -242.5 42t-174 120.5t-67.5 173.5zM575 215h17q96 0 157.5 83.5t61.5 223.5q0 141 -61.5 224t-157.5 83h-17q-100 0 -164.5 -83t-64.5 -224t64.5 -224t164.5 -83z" />
    <glyph glyph-name="h" unicode="h" horiz-adv-x="1196" 
d="M137 0v1434h266v-560q48 79 130.5 124.5t179.5 45.5q178 0 266 -106q90 -107 90 -283v-655h-266v625q0 99 -42 151.5t-120 52.5h-16q-92 0 -157 -76.5t-65 -183.5v-569h-266z" />
    <glyph glyph-name="i" unicode="i" horiz-adv-x="541" 
d="M127 1157v277h287v-277h-287zM137 0v1024h266v-1024h-266z" />
    <glyph glyph-name="j" unicode="j" horiz-adv-x="557" 
d="M143 1157v277h287v-277h-287zM-168 -410v226h209q62 0 87.5 25.5t25.5 86.5v1096h266v-1178q0 -122 -66.5 -189t-189.5 -67h-332z" />
    <glyph glyph-name="k" unicode="k" horiz-adv-x="1128" 
d="M807 0l-285 427l-119 -123v-304h-266v1434h266v-792l371 382h326l-394 -407l414 -617h-313z" />
    <glyph glyph-name="l" unicode="l" horiz-adv-x="541" 
d="M137 0v1434h266v-1434h-266z" />
    <glyph glyph-name="m" unicode="m" horiz-adv-x="1851" 
d="M137 0v1024h266v-145q50 81 130.5 123t175.5 42q110 0 190.5 -45t122.5 -131q55 87 143.5 131.5t194.5 44.5q189 0 276 -109q88 -107 88 -290v-645h-266v614q0 205 -158 205h-16q-93 0 -156 -71.5t-63 -178.5v-569h-266v614q0 205 -160 205h-16q-93 0 -156.5 -71.5
t-63.5 -178.5v-569h-266z" />
    <glyph glyph-name="n" unicode="n" horiz-adv-x="1196" 
d="M137 0v1024h266v-150q48 79 130.5 124.5t179.5 45.5q178 0 266 -106q90 -107 90 -283v-655h-266v625q0 99 -42 151.5t-120 52.5h-16q-92 0 -157 -76.5t-65 -183.5v-569h-266z" />
    <glyph glyph-name="o" unicode="o" horiz-adv-x="1180" 
d="M78 512q-3 229 142.5 382t369.5 150q224 3 369.5 -150t142.5 -382q3 -229 -142.5 -382t-369.5 -150q-224 -3 -369.5 150t-142.5 382zM582 195h16q108 0 172 84.5t64 232.5t-64 232.5t-172 84.5h-16q-109 0 -172.5 -84.5t-63.5 -232.5t63.5 -232.5t172.5 -84.5z" />
    <glyph glyph-name="p" unicode="p" horiz-adv-x="1231" 
d="M137 -410v1434h266v-133q36 61 117 107t178 46q104 2 192 -41.5t145 -117.5t88 -171t30 -202q1 -105 -30 -202t-88 -171t-145 -117.5t-192 -41.5q-97 0 -178 46t-117 107v-543h-266zM637 195h16q102 0 168 87.5t66 229.5t-66 229.5t-168 87.5h-16q-94 2 -164.5 -89
t-69.5 -228q-1 -137 69.5 -228t164.5 -89z" />
    <glyph glyph-name="q" unicode="q" horiz-adv-x="1231" 
d="M827 -410v543q-35 -61 -116.5 -107t-178.5 -46q-138 -2 -243.5 73t-159 196t-51.5 263q-2 142 51.5 263t159 196t243.5 73q97 0 178.5 -46t116.5 -107v133h267v-1434h-267zM578 195h16q95 -2 165 89t68 228q2 137 -68 228t-165 89h-16q-102 0 -168 -88.5t-66 -230.5
t65.5 -228.5t168.5 -86.5z" />
    <glyph glyph-name="r" unicode="r" horiz-adv-x="795" 
d="M137 0v1024h266v-205q31 103 108 159t189 56h52v-246h-93q-131 0 -193.5 -62.5t-62.5 -193.5v-532h-266z" />
    <glyph glyph-name="s" unicode="s" horiz-adv-x="1018" 
d="M66 338h272q0 -69 47.5 -111.5t124.5 -42.5h16q63 0 101.5 27.5t38.5 73.5q0 39 -26.5 63.5t-82.5 38.5l-133 33q-165 40 -241.5 113.5t-76.5 195.5q0 140 112 227.5t300 87.5q198 0 309 -93t111 -255h-266q-8 69 -47.5 106.5t-106.5 37.5h-16q-60 0 -96.5 -26t-36.5 -75
q0 -38 33.5 -63t101.5 -41l137 -35q148 -37 217.5 -110.5t69.5 -194.5q0 -138 -110.5 -226.5t-307.5 -88.5q-208 0 -326 95t-118 263z" />
    <glyph glyph-name="t" unicode="t" horiz-adv-x="834" 
d="M246 266v543h-211v215h211v332h266v-332h229v-215h-229v-471q0 -70 21 -91.5t92 -21.5h147v-225h-260q-130 0 -198 68t-68 198z" />
    <glyph glyph-name="u" unicode="u" horiz-adv-x="1176" 
d="M127 369v655h266v-625q0 -99 39.5 -151.5t112.5 -52.5h16q87 0 149 76.5t62 183.5v569h266v-1024h-266v150q-48 -80 -126.5 -125t-172.5 -45q-173 0 -260 105q-86 107 -86 284z" />
    <glyph glyph-name="v" unicode="v" horiz-adv-x="1145" 
d="M846 1024h274l-354 -1024h-387l-354 1024h282l270 -828z" />
    <glyph glyph-name="w" unicode="w" horiz-adv-x="1620" 
d="M1325 1024h258l-293 -1024h-299l-181 716l-169 -716h-299l-313 1024h268l204 -760l167 760h284l179 -754z" />
    <glyph glyph-name="x" unicode="x" horiz-adv-x="1075" 
d="M1055 0h-297l-223 314l-226 -314h-289l371 517l-360 507h297l213 -300l215 300h288l-360 -501z" />
    <glyph glyph-name="y" unicode="y" horiz-adv-x="1174" 
d="M1163 1024l-436 -933v-238q0 -131 -67.5 -199t-198.5 -68h-373v230h272q71 0 92 21t21 91v152l-446 944h299l276 -623l266 623h295z" />
    <glyph glyph-name="z" unicode="z" horiz-adv-x="1042" 
d="M413 236h558v-236h-891v205l527 583h-517v236h850v-205z" />
    <glyph glyph-name="braceleft" unicode="{" horiz-adv-x="748" 
d="M227 20v420q0 79 -20 106t-82 27h-51v287h51q62 0 82 27t20 106v420q0 318 277 318h176v-215h-64q-75 -2 -97.5 -32t-24.5 -122v-436q0 -93 -43.5 -140t-120.5 -47v-45q77 0 120.5 -46.5t43.5 -139.5v-436q2 -92 24.5 -122t97.5 -32h64v-215h-176q-139 0 -208 78t-69 239
z" />
    <glyph glyph-name="bar" unicode="|" horiz-adv-x="596" 
d="M162 -174v1782h272v-1782h-272z" />
    <glyph glyph-name="braceright" unicode="}" horiz-adv-x="748" 
d="M521 1416v-420q0 -79 20 -106t82 -27h51v-287h-51q-62 0 -82 -27t-20 -106v-420q0 -318 -277 -318h-176v215h64q75 2 97.5 32t24.5 122v436q0 93 43.5 140t120.5 47v45q-77 0 -120.5 46.5t-43.5 139.5v436q-2 92 -24.5 122t-97.5 32h-64v215h176q139 0 208 -78t69 -239z
" />
    <glyph glyph-name="asciitilde" unicode="~" horiz-adv-x="1030" 
d="M526 745l-37 21q-57 33 -92 33q-30 3 -46.5 -20t-16.5 -62h-195v53q-2 93 67.5 164t162.5 70q51 0 81 -10q34 -11 72 -31l37 -21l25 -13q53 -28 75 -28q30 0 46 22t16 60h194v-53q0 -102 -57 -168q-56 -66 -168 -66q-69 0 -164 49z" />
    <glyph glyph-name="uni00A0" unicode="&#xa0;" horiz-adv-x="479" 
 />
    <glyph glyph-name="exclamdown" unicode="&#xa1;" horiz-adv-x="551" 
d="M420 1024v-276h-287v276h287zM348 666l63 -584v-492h-272v492l64 584h145z" />
    <glyph glyph-name="cent" unicode="&#xa2;" horiz-adv-x="1110" 
d="M770 358h264q-16 -173 -135.5 -275.5t-304.5 -102.5h-3l-38 -226h-211l44 262q-146 57 -225 189q-79 131 -79 307q-2 222 128 372.5t350 158.5l38 227h211l-43 -253q115 -40 185.5 -131.5t82.5 -219.5h-264q-9 58 -47 96l-92 -549q55 9 92.5 48.5t46.5 96.5zM430 276
l89 527q-82 -24 -127 -106q-44 -82 -44 -185q0 -149 82 -236z" />
    <glyph glyph-name="sterling" unicode="&#xa3;" horiz-adv-x="1214" 
d="M487 236h660v-236h-1057v236h88q64 0 94 29.5t35 96.5l13 178l-230 -55v226l247 59l17 234q16 211 130.5 320.5t324.5 109.5h235v-236h-241q-92 0 -131.5 -44t-48.5 -161l-12 -158l227 54v-225l-245 -59l-15 -202q-6 -62 -25.5 -99t-65.5 -68z" />
    <glyph glyph-name="currency" unicode="&#xa4;" horiz-adv-x="1518" 
d="M1234 351l185 -177l-184 -184l-183 175q-133 -83 -298 -83q-159 0 -292 79l-179 -171l-185 184l179 171q-76 127 -76 280q0 148 70 267l-173 173l185 184l177 -169q134 77 294 77q164 0 300 -81l181 173l184 -184l-179 -179q67 -118 67 -261q0 -152 -73 -274zM1034 625
q0 132 -75.5 214.5t-196.5 82.5h-17q-120 0 -196 -83t-76 -214q0 -136 76 -222t196 -86h17q121 0 196.5 85.5t75.5 222.5z" />
    <glyph glyph-name="yen" unicode="&#xa5;" horiz-adv-x="1415" 
d="M1362 1434l-331 -539l151 33v-226l-311 -68l-27 -45v-89l276 61v-225l-276 -61v-275h-273v214l-272 -60v225l272 60v128l-333 -73v225l225 50l-408 665h293l367 -600l360 600h287z" />
    <glyph glyph-name="brokenbar" unicode="&#xa6;" horiz-adv-x="608" 
d="M168 850v758h272v-758h-272zM168 -174v778h272v-778h-272z" />
    <glyph glyph-name="section" unicode="&#xa7;" horiz-adv-x="1108" 
d="M162 -123v215h420q106 0 106 84q0 33 -21 55.5t-71 40.5l-285 107q-120 44 -175.5 110t-55.5 165q0 77 49 146t137 115q-108 79 -108 226q0 144 93.5 218.5t272.5 74.5h385v-215h-368q-55 0 -86 -21.5t-31 -60.5q0 -36 20.5 -58t67.5 -37l186 -61q112 -37 183 -75
q151 -81 151 -236q0 -86 -51 -159t-139 -118q119 -94 119 -221q0 -128 -93.5 -211.5t-277.5 -83.5h-428zM760 631q0 85 -127 125l-178 57q-52 -22 -77.5 -58.5t-25.5 -78.5q3 -44 28 -64.5t93 -46.5l180 -67q49 17 78 55.5t29 77.5z" />
    <glyph glyph-name="dieresis" unicode="&#xa8;" horiz-adv-x="778" 
d="M61 1157v266h246v-266h-246zM471 1157v266h246v-266h-246z" />
    <glyph glyph-name="copyright" unicode="&#xa9;" horiz-adv-x="1782" 
d="M92 719q0 216 108 399q108 184 292 292t399 108t400 -108q185 -106 291 -291q108 -185 108 -400t-108 -399t-292 -292q-183 -108 -399 -108q-215 0 -399 108t-292 292t-108 399zM1501 719q0 166 -83 309t-222 227q-140 84 -305 84t-305 -84q-141 -85 -223 -227t-82 -309
q0 -168 82 -310t223 -227q140 -84 305 -84t305 84q139 84 222 227t83 310zM532 719q0 83 22 157t65.5 133t113.5 93t158 33q167 0 254.5 -85t87.5 -221h-221q-16 117 -117 117h-8q-67 0 -99 -54t-32 -173t32 -173t99 -54h8q102 0 119 122h219q0 -137 -87.5 -224t-254.5 -87
q-88 -1 -158 33t-113.5 93t-65.5 133t-22 157z" />
    <glyph glyph-name="ordfeminine" unicode="&#xaa;" horiz-adv-x="774" 
d="M94 1018q0 149 221 176l134 16v19q0 31 -17.5 49t-48.5 18h-8q-59 0 -70 -45h-190q5 90 74.5 141.5t193.5 51.5q117 0 189.5 -57t72.5 -146v-262q0 -70 8 -129h-182q-5 23 -8 74q-65 -84 -178 -84q-82 0 -136.5 49.5t-54.5 128.5zM348 987h8q40 0 68.5 28t28.5 72v21
l-113 -21q-49 -12 -49 -51q0 -49 57 -49z" />
    <glyph glyph-name="guillemotleft" unicode="&#xab;" horiz-adv-x="1231" 
d="M670 1024l-297 -440l297 -441h-308l-296 441l296 440h308zM1159 1024l-296 -440l296 -441h-307l-297 441l297 440h307z" />
    <glyph glyph-name="logicalnot" unicode="&#xac;" horiz-adv-x="1264" 
d="M846 236v276h-715v236h987v-512h-272z" />
    <glyph glyph-name="uni00AD" unicode="&#xad;" horiz-adv-x="848" 
d="M127 512v215h594v-215h-594z" />
    <glyph glyph-name="registered" unicode="&#xae;" horiz-adv-x="1782" 
d="M92 719q0 216 108 399q108 184 292 292t399 108t400 -108q185 -106 291 -291q108 -185 108 -400t-108 -399t-292 -292q-183 -108 -399 -108q-215 0 -399 108t-292 292t-108 399zM1501 719q0 166 -83 309t-222 227q-140 84 -305 84t-305 -84q-141 -85 -223 -227t-82 -309
q0 -168 82 -310t223 -227q140 -84 305 -84t305 84q139 84 222 227t83 310zM590 324v790h381q124 0 192 -60t68 -157q0 -84 -44 -136.5t-122 -70.5q80 0 118 -29t38 -94v-243h-213v202q0 41 -15 56.5t-57 15.5h-133v-274h-213zM803 774h129q86 0 86 80q0 78 -90 78h-125v-158
z" />
    <glyph glyph-name="macron" unicode="&#xaf;" horiz-adv-x="748" 
d="M61 1157v215h625v-215h-625z" />
    <glyph glyph-name="degree" unicode="&#xb0;" horiz-adv-x="918" 
d="M80 1075q-2 157 110 269t269 110q158 2 269.5 -110t109.5 -269q2 -157 -110 -269t-269 -110q-157 -2 -269 110t-110 269zM604 1075q0 62 -42 105t-103 43t-103.5 -43t-42.5 -105q0 -67 42 -112t104 -45q61 0 103 45t42 112z" />
    <glyph glyph-name="plusminus" unicode="&#xb1;" horiz-adv-x="1270" 
d="M498 348v215h-369v236h369v225h272v-225h371v-236h-371v-215h-272zM129 0v233h1012v-233h-1012z" />
    <glyph glyph-name="twosuperior" unicode="&#xb2;" horiz-adv-x="770" 
d="M80 850v172l305 276q42 37 60 62.5t18 54.5q0 31 -21.5 52.5t-54.5 21.5h-8q-33 0 -57.5 -26t-26.5 -62h-219q7 120 96.5 194t222.5 74q125 2 208 -72.5t81 -166.5q0 -64 -28 -112t-91 -106l-194 -178h315v-184h-606z" />
    <glyph glyph-name="threesuperior" unicode="&#xb3;" horiz-adv-x="774" 
d="M66 1079h221q1 -26 26 -43.5t60 -17.5h10q39 0 64.5 22.5t25.5 57.5q0 33 -24.5 53t-63.5 20h-76v172h76q37 0 59.5 20t22.5 54q0 33 -21 53.5t-57 20.5h-10q-30 0 -52.5 -17t-25.5 -40h-221q0 108 87 171.5t218 63.5q126 0 214.5 -63t88.5 -168q0 -62 -29 -108.5
t-84 -69.5q57 -27 88 -77t31 -114q0 -107 -93 -168t-226 -61q-132 0 -220.5 64.5t-88.5 174.5z" />
    <glyph glyph-name="acute" unicode="&#xb4;" horiz-adv-x="481" 
d="M61 1126l52 308h307l-205 -308h-154z" />
    <glyph glyph-name="mu" unicode="&#xb5;" horiz-adv-x="1235" 
d="M807 1024h266v-1024h-266v150q-48 -80 -126.5 -125t-172.5 -45q-48 0 -80 7v-397h-266v1434h266v-625q0 -99 39.5 -151.5t112.5 -52.5h16q87 0 149 76.5t62 183.5v569z" />
    <glyph glyph-name="paragraph" unicode="&#xb6;" horiz-adv-x="1399" 
d="M496 -410v971h-9q-113 0 -213 60.5t-158.5 161.5t-56.5 214q-2 115 58 217t162 162t217 58h809v-215h-144v-1629h-266v1629h-133v-1629h-266z" />
    <glyph glyph-name="periodcentered" unicode="&#xb7;" horiz-adv-x="520" 
d="M126 594v267h268v-267h-268z" />
    <glyph glyph-name="cedilla" unicode="&#xb8;" horiz-adv-x="532" 
d="M61 -502v154h175q81 0 81 61q0 28 -18 45t-53 17h-113v256h143v-123q84 0 139.5 -51t55.5 -144q0 -98 -68 -156.5t-178 -58.5h-164z" />
    <glyph glyph-name="onesuperior" unicode="&#xb9;" horiz-adv-x="616" 
d="M285 850v524l-224 -184v258l256 211h183v-809h-215z" />
    <glyph glyph-name="ordmasculine" unicode="&#xba;" horiz-adv-x="799" 
d="M84 1141q0 130 87 216.5t228 86.5q142 0 229 -86.5t87 -216.5q0 -131 -87 -216t-229 -85q-143 0 -229 85t-86 216zM395 1004h8q48 0 75.5 36t27.5 101q0 66 -27.5 102.5t-75.5 36.5h-8q-48 0 -75 -36.5t-27 -102.5q0 -65 27 -101t75 -36z" />
    <glyph glyph-name="guillemotright" unicode="&#xbb;" horiz-adv-x="1231" 
d="M379 1024l297 -441l-297 -440h-307l296 441l-296 440h307zM869 1024l296 -441l-296 -440h-308l297 441l-297 440h308z" />
    <glyph glyph-name="onequarter" unicode="&#xbc;" horiz-adv-x="1862" 
d="M365 0l860 1434h240l-861 -1434h-239zM289 625v524l-224 -184v258l256 211h183v-809h-215zM1491 0v127h-402v223l357 459h243v-510h109v-172h-109v-127h-198zM1276 299h215v281z" />
    <glyph glyph-name="onehalf" unicode="&#xbd;" horiz-adv-x="1905" 
d="M365 0l860 1434h240l-861 -1434h-239zM289 625v524l-224 -184v258l256 211h183v-809h-215zM1219 0v172l305 276q42 37 60 62.5t18 54.5q0 31 -21.5 52.5t-54.5 21.5h-8q-33 0 -57.5 -26t-26.5 -62h-219q7 120 96.5 194t222.5 74q125 2 208 -72.5t81 -166.5
q0 -64 -28 -112t-91 -106l-194 -178h315v-184h-606z" />
    <glyph glyph-name="threequarters" unicode="&#xbe;" horiz-adv-x="1968" 
d="M469 0l860 1434h240l-861 -1434h-239zM72 854h221q1 -26 26 -43.5t60 -17.5h10q39 0 64.5 22.5t25.5 57.5q0 33 -24.5 53t-63.5 20h-76v172h76q37 0 59.5 20t22.5 54q0 33 -21 53.5t-57 20.5h-10q-30 0 -52.5 -17t-25.5 -40h-221q0 108 87 171.5t218 63.5
q126 0 214.5 -63t88.5 -168q0 -62 -29 -108.5t-84 -69.5q57 -27 88 -77t31 -114q0 -107 -93 -168t-226 -61q-132 0 -220.5 64.5t-88.5 174.5zM1598 0v127h-402v223l357 459h243v-510h109v-172h-109v-127h-198zM1383 299h215v281z" />
    <glyph glyph-name="questiondown" unicode="&#xbf;" horiz-adv-x="993" 
d="M755 1024v-276h-286v276h286zM737 633v-316q0 -77 -43 -120t-119 -43h-55q-191 0 -191 -164q0 -75 52 -119.5t139 -44.5h409v-236h-446q-187 0 -305.5 110t-118.5 290q-2 159 102 270t271 109q31 0 42 10.5t11 40.5v213h252z" />
    <glyph glyph-name="Agrave" unicode="&#xc0;" horiz-adv-x="1460" 
d="M1155 0l-129 338h-602l-129 -338h-291l567 1434h324l553 -1434h-293zM517 584h415l-208 544zM649 1526l-215 297h318l82 -297h-185z" />
    <glyph glyph-name="Aacute" unicode="&#xc1;" horiz-adv-x="1460" 
d="M1155 0l-129 338h-602l-129 -338h-291l567 1434h324l553 -1434h-293zM517 584h415l-208 544zM641 1526l82 297h318l-215 -297h-185z" />
    <glyph glyph-name="Acircumflex" unicode="&#xc2;" horiz-adv-x="1460" 
d="M1155 0l-129 338h-602l-129 -338h-291l567 1434h324l553 -1434h-293zM517 584h415l-208 544zM1123 1526h-226l-163 118l-164 -118h-226l246 297h287z" />
    <glyph glyph-name="Atilde" unicode="&#xc3;" horiz-adv-x="1460" 
d="M1155 0l-129 338h-602l-129 -338h-291l567 1434h324l553 -1434h-293zM517 584h415l-208 544zM732 1585l-37 21q-56 32 -93 32q-30 3 -46.5 -20t-16.5 -62h-195v54q-2 94 67.5 164.5t162.5 68.5q48 0 80.5 -9.5t72.5 -31.5l37 -20q11 -5 20 -11q52 -30 81 -30
q30 0 45.5 22t15.5 60h195v-54q0 -102 -57 -168q-56 -65 -169 -65q-72 0 -163 49z" />
    <glyph glyph-name="Adieresis" unicode="&#xc4;" horiz-adv-x="1460" 
d="M1155 0l-129 338h-602l-129 -338h-291l567 1434h324l553 -1434h-293zM517 584h415l-208 544zM405 1567v245h256v-245h-256zM805 1567v245h256v-245h-256z" />
    <glyph glyph-name="Aring" unicode="&#xc5;" horiz-adv-x="1460" 
d="M1155 0l-129 338h-602l-129 -338h-291l567 1434h324l553 -1434h-293zM517 584h415l-208 544zM507 1720q-2 85 69.5 156.5t156.5 69.5q92 2 159.5 -68t65.5 -158q0 -96 -64.5 -160.5t-160.5 -64.5q-88 -2 -158 65.5t-68 159.5zM815 1720q0 32 -24 57t-56 25t-57 -25
t-25 -57t25 -57t57 -25t56 25t24 57z" />
    <glyph glyph-name="AE" unicode="&#xc6;" horiz-adv-x="2030" 
d="M-10 0l747 1434h1123v-246h-703l49 -330h592v-246h-561l53 -366h692v-246h-931l-50 338h-540l-170 -338h-301zM586 584h381l-84 587z" />
    <glyph glyph-name="Ccedilla" unicode="&#xc7;" horiz-adv-x="1456" 
d="M1102 471h276q-13 -205 -153 -338.5t-378 -149.5v-75q84 0 139.5 -51t55.5 -144q0 -98 -68 -156.5t-178 -58.5h-164v154h175q81 0 81 61q0 28 -18 45t-53 17h-113v208q-289 20 -452.5 219t-161.5 515q-1 220 79.5 387t237.5 259.5t369 90.5q134 1 246 -37t187 -105
t119 -156.5t50 -192.5h-276q-23 117 -105 181t-211 64h-20q-178 2 -289.5 -132.5t-109.5 -358.5q0 -225 110 -358.5t289 -133.5h20q131 0 212 63t104 183z" />
    <glyph glyph-name="Egrave" unicode="&#xc8;" horiz-adv-x="1354" 
d="M168 0v1434h1085v-246h-809v-330h686v-246h-686v-366h830v-246h-1106zM649 1526l-215 297h318l82 -297h-185z" />
    <glyph glyph-name="Eacute" unicode="&#xc9;" horiz-adv-x="1354" 
d="M168 0v1434h1085v-246h-809v-330h686v-246h-686v-366h830v-246h-1106zM641 1526l82 297h318l-215 -297h-185z" />
    <glyph glyph-name="Ecircumflex" unicode="&#xca;" horiz-adv-x="1354" 
d="M168 0v1434h1085v-246h-809v-330h686v-246h-686v-366h830v-246h-1106zM1123 1526h-226l-163 118l-164 -118h-226l246 297h287z" />
    <glyph glyph-name="Edieresis" unicode="&#xcb;" horiz-adv-x="1354" 
d="M168 0v1434h1085v-246h-809v-330h686v-246h-686v-366h830v-246h-1106zM405 1567v245h256v-245h-256zM805 1567v245h256v-245h-256z" />
    <glyph glyph-name="Igrave" unicode="&#xcc;" horiz-adv-x="612" 
d="M168 0v1434h276v-1434h-276zM223 1526l-215 297h318l82 -297h-185z" />
    <glyph glyph-name="Iacute" unicode="&#xcd;" horiz-adv-x="612" 
d="M168 0v1434h276v-1434h-276zM215 1526l82 297h318l-215 -297h-185z" />
    <glyph glyph-name="Icircumflex" unicode="&#xce;" horiz-adv-x="612" 
d="M168 0v1434h276v-1434h-276zM697 1526h-226l-163 118l-164 -118h-226l246 297h287z" />
    <glyph glyph-name="Idieresis" unicode="&#xcf;" horiz-adv-x="612" 
d="M168 0v1434h276v-1434h-276zM-21 1567v245h256v-245h-256zM379 1567v245h256v-245h-256z" />
    <glyph glyph-name="Eth" unicode="&#xd0;" horiz-adv-x="1542" 
d="M1452 717q2 -342 -192.5 -530.5t-523.5 -186.5h-502v594h-202v246h202v594h491q331 2 530 -187.5t197 -529.5zM1176 717q0 254 -124 362q-122 109 -347 109h-195v-348h260v-246h-260v-348h195q224 0 347 108q124 108 124 363z" />
    <glyph glyph-name="Ntilde" unicode="&#xd1;" horiz-adv-x="1534" 
d="M1090 1434h276v-1434h-358l-564 1056v-1056h-276v1434h358l564 -1051v1051zM768 1585l-37 21q-56 32 -93 32q-30 3 -46.5 -20t-16.5 -62h-195v54q-2 94 67.5 164.5t162.5 68.5q48 0 80.5 -9.5t72.5 -31.5l37 -20q12 -5 20 -11q52 -30 81 -30q30 0 45.5 22t15.5 60h195
v-54q0 -102 -57 -168q-56 -65 -169 -65q-72 0 -163 49z" />
    <glyph glyph-name="Ograve" unicode="&#xd2;" horiz-adv-x="1569" 
d="M88 717q-2 222 87 391.5t247.5 258.5t361.5 87q152 2 281.5 -50t222 -147t144 -234t49.5 -306q2 -167 -49.5 -306t-144 -234t-222 -147t-281.5 -50q-203 -2 -361.5 87t-247.5 258.5t-87 391.5zM774 225h21q191 0 300 131t109 361t-109 360.5t-300 130.5h-21
q-191 0 -300 -130.5t-109 -360.5t109 -361t300 -131zM700 1526l-215 297h318l82 -297h-185z" />
    <glyph glyph-name="Oacute" unicode="&#xd3;" horiz-adv-x="1569" 
d="M88 717q-2 222 87 391.5t247.5 258.5t361.5 87q152 2 281.5 -50t222 -147t144 -234t49.5 -306q2 -167 -49.5 -306t-144 -234t-222 -147t-281.5 -50q-203 -2 -361.5 87t-247.5 258.5t-87 391.5zM774 225h21q191 0 300 131t109 361t-109 360.5t-300 130.5h-21
q-191 0 -300 -130.5t-109 -360.5t109 -361t300 -131zM692 1526l82 297h318l-215 -297h-185z" />
    <glyph glyph-name="Ocircumflex" unicode="&#xd4;" horiz-adv-x="1569" 
d="M88 717q-2 222 87 391.5t247.5 258.5t361.5 87q152 2 281.5 -50t222 -147t144 -234t49.5 -306q2 -167 -49.5 -306t-144 -234t-222 -147t-281.5 -50q-203 -2 -361.5 87t-247.5 258.5t-87 391.5zM774 225h21q191 0 300 131t109 361t-109 360.5t-300 130.5h-21
q-191 0 -300 -130.5t-109 -360.5t109 -361t300 -131zM1174 1526h-226l-163 118l-164 -118h-226l246 297h287z" />
    <glyph glyph-name="Otilde" unicode="&#xd5;" horiz-adv-x="1569" 
d="M88 717q-2 222 87 391.5t247.5 258.5t361.5 87q152 2 281.5 -50t222 -147t144 -234t49.5 -306q2 -167 -49.5 -306t-144 -234t-222 -147t-281.5 -50q-203 -2 -361.5 87t-247.5 258.5t-87 391.5zM774 225h21q191 0 300 131t109 361t-109 360.5t-300 130.5h-21
q-191 0 -300 -130.5t-109 -360.5t109 -361t300 -131zM783 1585l-37 21q-56 32 -93 32q-30 3 -46.5 -20t-16.5 -62h-195v54q-2 94 67.5 164.5t162.5 68.5q48 0 80.5 -9.5t72.5 -31.5l37 -20q12 -5 20 -11q52 -30 81 -30q30 0 45.5 22t15.5 60h195v-54q0 -102 -57 -168
q-56 -65 -169 -65q-72 0 -163 49z" />
    <glyph glyph-name="Odieresis" unicode="&#xd6;" horiz-adv-x="1569" 
d="M88 717q-2 222 87 391.5t247.5 258.5t361.5 87q152 2 281.5 -50t222 -147t144 -234t49.5 -306q2 -167 -49.5 -306t-144 -234t-222 -147t-281.5 -50q-203 -2 -361.5 87t-247.5 258.5t-87 391.5zM774 225h21q191 0 300 131t109 361t-109 360.5t-300 130.5h-21
q-191 0 -300 -130.5t-109 -360.5t109 -361t300 -131zM456 1567v245h256v-245h-256zM856 1567v245h256v-245h-256z" />
    <glyph glyph-name="multiply" unicode="&#xd7;" horiz-adv-x="1122" 
d="M264 63l-166 168l295 295l-297 297l170 170l297 -297l295 295l166 -168l-293 -293l295 -297l-170 -170l-295 297z" />
    <glyph glyph-name="Oslash" unicode="&#xd8;" horiz-adv-x="1585" 
d="M1489 717q2 -167 -49.5 -306t-144 -234t-222 -147t-281.5 -50q-196 0 -345 79l-126 -159l-215 168l133 168q-143 193 -143 481q-2 222 87 391.5t247.5 258.5t361.5 87q195 0 346 -79l126 159l215 -168l-133 -168q143 -193 143 -481zM418 463l561 710q-81 35 -176 35h-21
q-191 0 -300 -130.5t-109 -360.5q0 -145 45 -254zM1212 717q0 145 -45 254l-561 -710q77 -36 176 -36h21q191 0 300 131t109 361z" />
    <glyph glyph-name="Ugrave" unicode="&#xd9;" horiz-adv-x="1438" 
d="M156 502v932h276v-891q0 -166 67.5 -242t209.5 -76h20q142 0 209.5 76t67.5 242v891h276v-932q0 -255 -140.5 -388.5t-422.5 -133.5t-422.5 133.5t-140.5 388.5zM634 1526l-215 297h318l82 -297h-185z" />
    <glyph glyph-name="Uacute" unicode="&#xda;" horiz-adv-x="1438" 
d="M156 502v932h276v-891q0 -166 67.5 -242t209.5 -76h20q142 0 209.5 76t67.5 242v891h276v-932q0 -255 -140.5 -388.5t-422.5 -133.5t-422.5 133.5t-140.5 388.5zM626 1526l82 297h318l-215 -297h-185z" />
    <glyph glyph-name="Ucircumflex" unicode="&#xdb;" horiz-adv-x="1438" 
d="M156 502v932h276v-891q0 -166 67.5 -242t209.5 -76h20q142 0 209.5 76t67.5 242v891h276v-932q0 -255 -140.5 -388.5t-422.5 -133.5t-422.5 133.5t-140.5 388.5zM1108 1526h-226l-163 118l-164 -118h-226l246 297h287z" />
    <glyph glyph-name="Udieresis" unicode="&#xdc;" horiz-adv-x="1438" 
d="M156 502v932h276v-891q0 -166 67.5 -242t209.5 -76h20q142 0 209.5 76t67.5 242v891h276v-932q0 -255 -140.5 -388.5t-422.5 -133.5t-422.5 133.5t-140.5 388.5zM391 1567v245h256v-245h-256zM791 1567v245h256v-245h-256z" />
    <glyph glyph-name="Yacute" unicode="&#xdd;" horiz-adv-x="1358" 
d="M1049 1434h303l-535 -861v-573h-276v573l-533 861h314l366 -603zM593 1526l82 297h318l-215 -297h-185z" />
    <glyph glyph-name="Thorn" unicode="&#xde;" horiz-adv-x="1358" 
d="M168 0v1434h276v-256h359q210 2 341.5 -123t129.5 -338q2 -213 -129.5 -338t-341.5 -123h-359v-256h-276zM444 502h338q103 0 159 57.5t56 157.5q0 101 -55.5 158t-159.5 57h-338v-430z" />
    <glyph glyph-name="germandbls" unicode="&#xdf;" horiz-adv-x="1135" 
d="M137 -379v1409q0 193 119 308.5t324 115.5q184 3 307.5 -106t120.5 -263q0 -235 -238 -331q119 -19 205 -119t84 -229q2 -185 -130 -296.5t-335 -109.5h-98v215h36q124 0 192.5 57.5t68.5 163.5q0 103 -73 152q-72 51 -188 51h-36v215h36q92 0 156 53.5t64 147.5
q0 87 -45.5 135.5t-120.5 48.5h-13q-77 0 -123.5 -56.5t-46.5 -162.5v-1399h-266z" />
    <glyph glyph-name="agrave" unicode="&#xe0;" horiz-adv-x="1098" 
d="M979 0h-250q-9 43 -12 125q-49 -68 -127.5 -106.5t-175.5 -38.5q-141 -2 -239.5 83.5t-96.5 217.5q0 156 105 240q104 83 270 97l258 23v25q0 70 -45.5 116.5t-118.5 46.5h-17q-69 0 -114.5 -36.5t-50.5 -85.5h-267q15 148 136 243t305 94q197 0 313.5 -97t116.5 -271
v-451q0 -156 10 -225zM711 418v29l-222 -23q-59 -5 -104 -36q-45 -32 -45 -89q0 -47 36 -75.5t91 -28.5h16q93 0 160.5 64t67.5 159zM477 1126l-205 308h308l51 -308h-154z" />
    <glyph glyph-name="aacute" unicode="&#xe1;" horiz-adv-x="1098" 
d="M979 0h-250q-9 43 -12 125q-49 -68 -127.5 -106.5t-175.5 -38.5q-141 -2 -239.5 83.5t-96.5 217.5q0 156 105 240q104 83 270 97l258 23v25q0 70 -45.5 116.5t-118.5 46.5h-17q-69 0 -114.5 -36.5t-50.5 -85.5h-267q15 148 136 243t305 94q197 0 313.5 -97t116.5 -271
v-451q0 -156 10 -225zM711 418v29l-222 -23q-59 -5 -104 -36q-45 -32 -45 -89q0 -47 36 -75.5t91 -28.5h16q93 0 160.5 64t67.5 159zM464 1126l52 308h307l-205 -308h-154z" />
    <glyph glyph-name="acircumflex" unicode="&#xe2;" horiz-adv-x="1098" 
d="M979 0h-250q-9 43 -12 125q-49 -68 -127.5 -106.5t-175.5 -38.5q-141 -2 -239.5 83.5t-96.5 217.5q0 156 105 240q104 83 270 97l258 23v25q0 70 -45.5 116.5t-118.5 46.5h-17q-69 0 -114.5 -36.5t-50.5 -85.5h-267q15 148 136 243t305 94q197 0 313.5 -97t116.5 -271
v-451q0 -156 10 -225zM711 418v29l-222 -23q-59 -5 -104 -36q-45 -32 -45 -89q0 -47 36 -75.5t91 -28.5h16q93 0 160.5 64t67.5 159zM918 1126h-164l-205 148l-205 -148h-164l205 308h328z" />
    <glyph glyph-name="atilde" unicode="&#xe3;" horiz-adv-x="1098" 
d="M979 0h-250q-9 43 -12 125q-49 -68 -127.5 -106.5t-175.5 -38.5q-141 -2 -239.5 83.5t-96.5 217.5q0 156 105 240q104 83 270 97l258 23v25q0 70 -45.5 116.5t-118.5 46.5h-17q-69 0 -114.5 -36.5t-50.5 -85.5h-267q15 148 136 243t305 94q197 0 313.5 -97t116.5 -271
v-451q0 -156 10 -225zM711 418v29l-222 -23q-59 -5 -104 -36q-45 -32 -45 -89q0 -47 36 -75.5t91 -28.5h16q93 0 160.5 64t67.5 159zM547 1186l-37 20q-37 21 -51.5 27t-34.5 6q-27 0 -48.5 -24.5t-21.5 -57.5h-195v53q-2 93 67.5 164t162.5 70q47 0 78.5 -9t74.5 -32
l37 -21l25 -13q47 -28 76 -28q26 0 43.5 23.5t17.5 58.5h195v-53q2 -92 -67.5 -163.5t-158.5 -69.5q-72 0 -163 49z" />
    <glyph glyph-name="adieresis" unicode="&#xe4;" horiz-adv-x="1098" 
d="M979 0h-250q-9 43 -12 125q-49 -68 -127.5 -106.5t-175.5 -38.5q-141 -2 -239.5 83.5t-96.5 217.5q0 156 105 240q104 83 270 97l258 23v25q0 70 -45.5 116.5t-118.5 46.5h-17q-69 0 -114.5 -36.5t-50.5 -85.5h-267q15 148 136 243t305 94q197 0 313.5 -97t116.5 -271
v-451q0 -156 10 -225zM711 418v29l-222 -23q-59 -5 -104 -36q-45 -32 -45 -89q0 -47 36 -75.5t91 -28.5h16q93 0 160.5 64t67.5 159zM221 1157v266h246v-266h-246zM631 1157v266h246v-266h-246z" />
    <glyph glyph-name="aring" unicode="&#xe5;" horiz-adv-x="1098" 
d="M979 0h-250q-9 43 -12 125q-49 -68 -127.5 -106.5t-175.5 -38.5q-141 -2 -239.5 83.5t-96.5 217.5q0 156 105 240q104 83 270 97l258 23v25q0 70 -45.5 116.5t-118.5 46.5h-17q-69 0 -114.5 -36.5t-50.5 -85.5h-267q15 148 136 243t305 94q197 0 313.5 -97t116.5 -271
v-451q0 -156 10 -225zM711 418v29l-222 -23q-59 -5 -104 -36q-45 -32 -45 -89q0 -47 36 -75.5t91 -28.5h16q93 0 160.5 64t67.5 159zM333 1321q-2 82 66 149.5t149 65.5q89 0 152.5 -64.5t63.5 -150.5q0 -92 -62 -153.5t-154 -61.5q-86 0 -150.5 63t-64.5 152zM639 1321
q0 37 -25.5 63.5t-62.5 26.5t-64 -26.5t-27 -63.5t27 -63.5t64 -26.5t62.5 26.5t25.5 63.5z" />
    <glyph glyph-name="ae" unicode="&#xe6;" horiz-adv-x="1747" 
d="M78 281q0 156 105 240q104 83 270 97l258 23v25q0 70 -46 116q-45 47 -120 47h-13q-70 0 -116 -36.5t-51 -85.5h-267q15 148 136 243t305 94q219 0 333 -114q131 114 324 114q219 2 344 -144t123 -376q0 -37 -4 -96h-692q9 -101 76 -167t155 -66h16q70 0 118 35.5
t63 93.5h264q-39 -157 -159 -250.5t-304 -93.5q-117 0 -218 50.5t-169 143.5q-51 -86 -153 -140q-100 -54 -222 -54q-156 0 -256 82.5t-100 218.5zM965 633h440q-4 89 -64.5 142.5t-146.5 53.5h-16q-91 0 -146 -50.5t-67 -145.5zM469 195h10q95 0 163.5 63.5t68.5 159.5v28
l-222 -22q-59 -5 -104 -36q-45 -32 -45 -89q0 -47 36 -75.5t93 -28.5z" />
    <glyph glyph-name="ccedilla" unicode="&#xe7;" horiz-adv-x="1104" 
d="M766 358h266q-13 -170 -114.5 -265t-279.5 -110v-75q84 0 139.5 -51t55.5 -144q0 -98 -68 -156.5t-178 -58.5h-164v154h175q81 0 81 61q0 28 -18 45t-53 17h-113v210q-182 24 -299.5 168.5t-115.5 358.5q-1 117 37 218t104 170t157 107t193 37q207 0 326.5 -96
t134.5 -282h-266q-12 78 -59.5 120.5t-126.5 42.5h-17q-107 0 -163 -89q-54 -88 -54 -228t54 -228q56 -89 163 -89h17q79 0 126.5 42.5t59.5 120.5z" />
    <glyph glyph-name="egrave" unicode="&#xe8;" horiz-adv-x="1118" 
d="M80 512q-2 233 132 384t355 148q219 2 344 -144t123 -376q0 -37 -4 -96h-692q7 -100 76 -166.5t155 -66.5h17q70 0 117.5 35.5t62.5 93.5h264q-39 -157 -159 -250.5t-304 -93.5q-96 -1 -185 36.5t-156.5 105t-107.5 169.5t-38 221zM338 633h438q-4 89 -64.5 142.5
t-146.5 53.5h-16q-86 0 -146.5 -53.5t-64.5 -142.5zM487 1126l-205 308h308l51 -308h-154z" />
    <glyph glyph-name="eacute" unicode="&#xe9;" horiz-adv-x="1118" 
d="M80 512q-2 233 132 384t355 148q219 2 344 -144t123 -376q0 -37 -4 -96h-692q7 -100 76 -166.5t155 -66.5h17q70 0 117.5 35.5t62.5 93.5h264q-39 -157 -159 -250.5t-304 -93.5q-96 -1 -185 36.5t-156.5 105t-107.5 169.5t-38 221zM338 633h438q-4 89 -64.5 142.5
t-146.5 53.5h-16q-86 0 -146.5 -53.5t-64.5 -142.5zM475 1126l52 308h307l-205 -308h-154z" />
    <glyph glyph-name="ecircumflex" unicode="&#xea;" horiz-adv-x="1118" 
d="M80 512q-2 233 132 384t355 148q219 2 344 -144t123 -376q0 -37 -4 -96h-692q7 -100 76 -166.5t155 -66.5h17q70 0 117.5 35.5t62.5 93.5h264q-39 -157 -159 -250.5t-304 -93.5q-96 -1 -185 36.5t-156.5 105t-107.5 169.5t-38 221zM338 633h438q-4 89 -64.5 142.5
t-146.5 53.5h-16q-86 0 -146.5 -53.5t-64.5 -142.5zM928 1126h-164l-205 148l-205 -148h-164l205 308h328z" />
    <glyph glyph-name="edieresis" unicode="&#xeb;" horiz-adv-x="1118" 
d="M80 512q-2 233 132 384t355 148q219 2 344 -144t123 -376q0 -37 -4 -96h-692q7 -100 76 -166.5t155 -66.5h17q70 0 117.5 35.5t62.5 93.5h264q-39 -157 -159 -250.5t-304 -93.5q-96 -1 -185 36.5t-156.5 105t-107.5 169.5t-38 221zM338 633h438q-4 89 -64.5 142.5
t-146.5 53.5h-16q-86 0 -146.5 -53.5t-64.5 -142.5zM231 1157v266h246v-266h-246zM641 1157v266h246v-266h-246z" />
    <glyph glyph-name="igrave" unicode="&#xec;" horiz-adv-x="541" 
d="M137 0v1024h266v-1024h-266zM198 1126l-205 308h308l51 -308h-154z" />
    <glyph glyph-name="iacute" unicode="&#xed;" horiz-adv-x="541" 
d="M137 0v1024h266v-1024h-266zM186 1126l52 308h307l-205 -308h-154z" />
    <glyph glyph-name="icircumflex" unicode="&#xee;" horiz-adv-x="541" 
d="M137 0v1024h266v-1024h-266zM639 1126h-164l-205 148l-205 -148h-164l205 308h328z" />
    <glyph glyph-name="idieresis" unicode="&#xef;" horiz-adv-x="541" 
d="M137 0v1024h266v-1024h-266zM-58 1157v266h246v-266h-246zM352 1157v266h246v-266h-246z" />
    <glyph glyph-name="eth" unicode="&#xf0;" horiz-adv-x="1186" 
d="M1092 598q1 -128 -32.5 -240t-96.5 -197.5t-162 -134t-221 -46.5q-146 -2 -262.5 66t-179 186t-60.5 262q-2 132 56 242t167.5 174.5t247.5 62.5q133 0 252 -92q-21 126 -92 203l-131 -89l-115 162l51 34q-70 17 -156 17v226q250 0 392 -83l155 105l115 -162l-115 -78
q92 -112 139.5 -271.5t47.5 -346.5zM836 492q0 114 -67.5 190t-180.5 76h-17q-105 0 -166 -75.5t-61 -188.5q0 -131 61.5 -215t169.5 -84h17q112 0 178 84.5t66 212.5z" />
    <glyph glyph-name="ntilde" unicode="&#xf1;" horiz-adv-x="1196" 
d="M137 0v1024h266v-150q48 79 130.5 124.5t179.5 45.5q178 0 266 -106q90 -107 90 -283v-655h-266v625q0 99 -42 151.5t-120 52.5h-16q-92 0 -157 -76.5t-65 -183.5v-569h-266zM605 1186l-37 20q-37 21 -51.5 27t-34.5 6q-27 0 -48.5 -24.5t-21.5 -57.5h-195v53
q-2 93 67.5 164t162.5 70q47 0 78.5 -9t74.5 -32l37 -21l25 -13q47 -28 76 -28q26 0 43.5 23.5t17.5 58.5h195v-53q2 -92 -67.5 -163.5t-158.5 -69.5q-72 0 -163 49z" />
    <glyph glyph-name="ograve" unicode="&#xf2;" horiz-adv-x="1180" 
d="M78 512q-3 229 142.5 382t369.5 150q224 3 369.5 -150t142.5 -382q3 -229 -142.5 -382t-369.5 -150q-224 -3 -369.5 150t-142.5 382zM582 195h16q108 0 172 84.5t64 232.5t-64 232.5t-172 84.5h-16q-109 0 -172.5 -84.5t-63.5 -232.5t63.5 -232.5t172.5 -84.5zM518 1126
l-205 308h308l51 -308h-154z" />
    <glyph glyph-name="oacute" unicode="&#xf3;" horiz-adv-x="1180" 
d="M78 512q-3 229 142.5 382t369.5 150q224 3 369.5 -150t142.5 -382q3 -229 -142.5 -382t-369.5 -150q-224 -3 -369.5 150t-142.5 382zM582 195h16q108 0 172 84.5t64 232.5t-64 232.5t-172 84.5h-16q-109 0 -172.5 -84.5t-63.5 -232.5t63.5 -232.5t172.5 -84.5zM505 1126
l52 308h307l-205 -308h-154z" />
    <glyph glyph-name="ocircumflex" unicode="&#xf4;" horiz-adv-x="1180" 
d="M78 512q-3 229 142.5 382t369.5 150q224 3 369.5 -150t142.5 -382q3 -229 -142.5 -382t-369.5 -150q-224 -3 -369.5 150t-142.5 382zM582 195h16q108 0 172 84.5t64 232.5t-64 232.5t-172 84.5h-16q-109 0 -172.5 -84.5t-63.5 -232.5t63.5 -232.5t172.5 -84.5zM959 1126
h-164l-205 148l-205 -148h-164l205 308h328z" />
    <glyph glyph-name="otilde" unicode="&#xf5;" horiz-adv-x="1180" 
d="M78 512q-3 229 142.5 382t369.5 150q224 3 369.5 -150t142.5 -382q3 -229 -142.5 -382t-369.5 -150q-224 -3 -369.5 150t-142.5 382zM582 195h16q108 0 172 84.5t64 232.5t-64 232.5t-172 84.5h-16q-109 0 -172.5 -84.5t-63.5 -232.5t63.5 -232.5t172.5 -84.5zM588 1186
l-37 20q-37 21 -51.5 27t-34.5 6q-27 0 -48.5 -24.5t-21.5 -57.5h-195v53q-2 93 67.5 164t162.5 70q47 0 78.5 -9t74.5 -32l37 -21l25 -13q47 -28 76 -28q26 0 43.5 23.5t17.5 58.5h195v-53q2 -92 -67.5 -163.5t-158.5 -69.5q-72 0 -163 49z" />
    <glyph glyph-name="odieresis" unicode="&#xf6;" horiz-adv-x="1180" 
d="M78 512q-3 229 142.5 382t369.5 150q224 3 369.5 -150t142.5 -382q3 -229 -142.5 -382t-369.5 -150q-224 -3 -369.5 150t-142.5 382zM582 195h16q108 0 172 84.5t64 232.5t-64 232.5t-172 84.5h-16q-109 0 -172.5 -84.5t-63.5 -232.5t63.5 -232.5t172.5 -84.5zM262 1157
v266h246v-266h-246zM672 1157v266h246v-266h-246z" />
    <glyph glyph-name="divide" unicode="&#xf7;" horiz-adv-x="1212" 
d="M463 737v277h287v-277h-287zM100 410v235h1012v-235h-1012zM463 41v276h287v-276h-287z" />
    <glyph glyph-name="oslash" unicode="&#xf8;" horiz-adv-x="1190" 
d="M1108 512q3 -229 -142.5 -382t-369.5 -150q-129 0 -234 51l-102 -133l-172 143l101 132q-105 141 -105 339q-3 229 142.5 382t369.5 150q120 0 225 -47l99 129l182 -135l-104 -134q110 -142 110 -345zM363 400l319 416q-33 13 -78 13h-16q-109 0 -172.5 -84.5
t-63.5 -232.5q0 -57 11 -112zM840 512q0 65 -13 121l-326 -422q41 -16 87 -16h16q108 0 172 84.5t64 232.5z" />
    <glyph glyph-name="ugrave" unicode="&#xf9;" horiz-adv-x="1176" 
d="M127 369v655h266v-625q0 -99 39.5 -151.5t112.5 -52.5h16q87 0 149 76.5t62 183.5v569h266v-1024h-266v150q-48 -80 -126.5 -125t-172.5 -45q-173 0 -260 105q-86 107 -86 284zM512 1126l-205 308h308l51 -308h-154z" />
    <glyph glyph-name="uacute" unicode="&#xfa;" horiz-adv-x="1176" 
d="M127 369v655h266v-625q0 -99 39.5 -151.5t112.5 -52.5h16q87 0 149 76.5t62 183.5v569h266v-1024h-266v150q-48 -80 -126.5 -125t-172.5 -45q-173 0 -260 105q-86 107 -86 284zM499 1126l52 308h307l-205 -308h-154z" />
    <glyph glyph-name="ucircumflex" unicode="&#xfb;" horiz-adv-x="1176" 
d="M127 369v655h266v-625q0 -99 39.5 -151.5t112.5 -52.5h16q87 0 149 76.5t62 183.5v569h266v-1024h-266v150q-48 -80 -126.5 -125t-172.5 -45q-173 0 -260 105q-86 107 -86 284zM953 1126h-164l-205 148l-205 -148h-164l205 308h328z" />
    <glyph glyph-name="udieresis" unicode="&#xfc;" horiz-adv-x="1176" 
d="M127 369v655h266v-625q0 -99 39.5 -151.5t112.5 -52.5h16q87 0 149 76.5t62 183.5v569h266v-1024h-266v150q-48 -80 -126.5 -125t-172.5 -45q-173 0 -260 105q-86 107 -86 284zM256 1157v266h246v-266h-246zM666 1157v266h246v-266h-246z" />
    <glyph glyph-name="yacute" unicode="&#xfd;" horiz-adv-x="1174" 
d="M1163 1024l-436 -933v-238q0 -131 -67.5 -199t-198.5 -68h-373v230h272q71 0 92 21t21 91v152l-446 944h299l276 -623l266 623h295zM514 1126l52 308h307l-205 -308h-154z" />
    <glyph glyph-name="thorn" unicode="&#xfe;" horiz-adv-x="1231" 
d="M137 -410v1844h266v-543q36 61 117 107t178 46q104 2 192 -41.5t145 -117.5t88 -171t30 -202q1 -105 -30 -202t-88 -171t-145 -117.5t-192 -41.5q-97 0 -178 46t-117 107v-543h-266zM637 195h16q102 0 168 86.5t66 228.5t-66.5 230.5t-167.5 88.5h-16q-94 2 -164.5 -89
t-69.5 -228q-1 -137 69.5 -228t164.5 -89z" />
    <glyph glyph-name="ydieresis" unicode="&#xff;" horiz-adv-x="1174" 
d="M1163 1024l-436 -933v-238q0 -131 -67.5 -199t-198.5 -68h-373v230h272q71 0 92 21t21 91v152l-446 944h299l276 -623l266 623h295zM270 1157v266h246v-266h-246zM680 1157v266h246v-266h-246z" />
    <glyph glyph-name="Amacron" unicode="&#x100;" horiz-adv-x="1460" 
d="M1155 0l-129 338h-602l-129 -338h-291l567 1434h324l553 -1434h-293zM517 584h415l-208 544zM389 1567v225h687v-225h-687z" />
    <glyph glyph-name="amacron" unicode="&#x101;" horiz-adv-x="1098" 
d="M979 0h-250q-9 43 -12 125q-49 -68 -127.5 -106.5t-175.5 -38.5q-141 -2 -239.5 83.5t-96.5 217.5q0 156 105 240q104 83 270 97l258 23v25q0 70 -45.5 116.5t-118.5 46.5h-17q-69 0 -114.5 -36.5t-50.5 -85.5h-267q15 148 136 243t305 94q197 0 313.5 -97t116.5 -271
v-451q0 -156 10 -225zM711 418v29l-222 -23q-59 -5 -104 -36q-45 -32 -45 -89q0 -47 36 -75.5t91 -28.5h16q93 0 160.5 64t67.5 159zM235 1157v215h625v-215h-625z" />
    <glyph glyph-name="Abreve" unicode="&#x102;" horiz-adv-x="1460" 
d="M1155 0l-129 338h-602l-129 -338h-291l567 1434h324l553 -1434h-293zM517 584h415l-208 544zM385 1823h226q6 -54 39.5 -83.5t83.5 -29.5q49 0 82.5 29.5t39.5 83.5h226q-3 -138 -100 -222.5t-248 -84.5q-152 0 -249 84.5t-100 222.5z" />
    <glyph glyph-name="abreve" unicode="&#x103;" horiz-adv-x="1098" 
d="M979 0h-250q-9 43 -12 125q-49 -68 -127.5 -106.5t-175.5 -38.5q-141 -2 -239.5 83.5t-96.5 217.5q0 156 105 240q104 83 270 97l258 23v25q0 70 -45.5 116.5t-118.5 46.5h-17q-69 0 -114.5 -36.5t-50.5 -85.5h-267q15 148 136 243t305 94q197 0 313.5 -97t116.5 -271
v-451q0 -156 10 -225zM711 418v29l-222 -23q-59 -5 -104 -36q-45 -32 -45 -89q0 -47 36 -75.5t91 -28.5h16q93 0 160.5 64t67.5 159zM205 1434h229q3 -64 32 -99t83 -35t83.5 35.5t32.5 98.5h228q-3 -150 -93.5 -227t-250.5 -77t-250.5 77t-93.5 227z" />
    <glyph glyph-name="Aogonek" unicode="&#x104;" horiz-adv-x="1460" 
d="M1282 -184q0 -49 29 -76t73 -27h62v-164h-103q-107 0 -176.5 58t-69.5 147q0 150 156 246h-98l-129 338h-602l-129 -338h-291l567 1434h324l553 -1434h-2q-164 -93 -164 -184zM517 584h415l-208 544z" />
    <glyph glyph-name="aogonek" unicode="&#x105;" horiz-adv-x="1098" 
d="M917 -287h62v-164h-103q-107 0 -176.5 58t-69.5 147q0 150 156 246h-57q-9 43 -12 125q-49 -68 -127.5 -106.5t-175.5 -38.5q-141 -2 -239.5 83.5t-96.5 217.5q0 156 105 240q104 83 270 97l258 23v25q0 70 -45.5 116.5t-118.5 46.5h-17q-69 0 -114.5 -36.5t-50.5 -85.5
h-267q15 148 136 243t305 94q197 0 313.5 -97t116.5 -271v-451q0 -156 10 -225q-164 -93 -164 -184q0 -49 29 -76t73 -27zM711 418v29l-222 -23q-59 -5 -104 -36q-45 -32 -45 -89q0 -47 36 -75.5t91 -28.5h16q93 0 160.5 64t67.5 159z" />
    <glyph glyph-name="Cacute" unicode="&#x106;" horiz-adv-x="1456" 
d="M90 717q-1 220 79.5 387t237.5 259.5t369 90.5q134 1 246 -37t187 -105t119 -156.5t50 -192.5h-276q-23 117 -105 181t-211 64h-20q-178 2 -289.5 -132.5t-109.5 -358.5q0 -225 110 -358.5t289 -133.5h20q131 0 212 63t104 183h276q-14 -220 -173.5 -356.5t-428.5 -134.5
q-212 -2 -369 90.5t-237.5 259.5t-79.5 387zM688 1526l82 297h318l-215 -297h-185z" />
    <glyph glyph-name="cacute" unicode="&#x107;" horiz-adv-x="1104" 
d="M80 512q-1 117 37 218t104 170t157 107t193 37q207 0 326.5 -96t134.5 -282h-266q-12 78 -59.5 120.5t-126.5 42.5h-17q-107 0 -163 -89q-54 -88 -54 -228t54 -228q56 -89 163 -89h17q79 0 126.5 42.5t59.5 120.5h266q-15 -186 -134.5 -282t-326.5 -96q-102 -1 -193 37
t-157 107t-104 170t-37 218zM491 1126l52 308h307l-205 -308h-154z" />
    <glyph glyph-name="Ccircumflex" unicode="&#x108;" horiz-adv-x="1456" 
d="M90 717q-1 220 79.5 387t237.5 259.5t369 90.5q134 1 246 -37t187 -105t119 -156.5t50 -192.5h-276q-23 117 -105 181t-211 64h-20q-178 2 -289.5 -132.5t-109.5 -358.5q0 -225 110 -358.5t289 -133.5h20q131 0 212 63t104 183h276q-14 -220 -173.5 -356.5t-428.5 -134.5
q-212 -2 -369 90.5t-237.5 259.5t-79.5 387zM1170 1526h-226l-163 118l-164 -118h-226l246 297h287z" />
    <glyph glyph-name="ccircumflex" unicode="&#x109;" horiz-adv-x="1104" 
d="M80 512q-1 117 37 218t104 170t157 107t193 37q207 0 326.5 -96t134.5 -282h-266q-12 78 -59.5 120.5t-126.5 42.5h-17q-107 0 -163 -89q-54 -88 -54 -228t54 -228q56 -89 163 -89h17q79 0 126.5 42.5t59.5 120.5h266q-15 -186 -134.5 -282t-326.5 -96q-102 -1 -193 37
t-157 107t-104 170t-37 218zM944 1126h-164l-205 148l-205 -148h-164l205 308h328z" />
    <glyph glyph-name="Cdotaccent" unicode="&#x10a;" horiz-adv-x="1456" 
d="M90 717q-1 220 79.5 387t237.5 259.5t369 90.5q134 1 246 -37t187 -105t119 -156.5t50 -192.5h-276q-23 117 -105 181t-211 64h-20q-178 2 -289.5 -132.5t-109.5 -358.5q0 -225 110 -358.5t289 -133.5h20q131 0 212 63t104 183h276q-14 -220 -173.5 -356.5t-428.5 -134.5
q-212 -2 -369 90.5t-237.5 259.5t-79.5 387zM636 1567v276h287v-276h-287z" />
    <glyph glyph-name="cdotaccent" unicode="&#x10b;" horiz-adv-x="1104" 
d="M80 512q-1 117 37 218t104 170t157 107t193 37q207 0 326.5 -96t134.5 -282h-266q-12 78 -59.5 120.5t-126.5 42.5h-17q-107 0 -163 -89q-54 -88 -54 -228t54 -228q56 -89 163 -89h17q79 0 126.5 42.5t59.5 120.5h266q-15 -186 -134.5 -282t-326.5 -96q-102 -1 -193 37
t-157 107t-104 170t-37 218zM432 1157v277h287v-277h-287z" />
    <glyph glyph-name="Ccaron" unicode="&#x10c;" horiz-adv-x="1456" 
d="M90 717q-1 220 79.5 387t237.5 259.5t369 90.5q134 1 246 -37t187 -105t119 -156.5t50 -192.5h-276q-23 117 -105 181t-211 64h-20q-178 2 -289.5 -132.5t-109.5 -358.5q0 -225 110 -358.5t289 -133.5h20q131 0 212 63t104 183h276q-14 -220 -173.5 -356.5t-428.5 -134.5
q-212 -2 -369 90.5t-237.5 259.5t-79.5 387zM944 1823h226l-246 -297h-287l-246 297h226l164 -119z" />
    <glyph glyph-name="ccaron" unicode="&#x10d;" horiz-adv-x="1104" 
d="M80 512q-1 117 37 218t104 170t157 107t193 37q207 0 326.5 -96t134.5 -282h-266q-12 78 -59.5 120.5t-126.5 42.5h-17q-107 0 -163 -89q-54 -88 -54 -228t54 -228q56 -89 163 -89h17q79 0 126.5 42.5t59.5 120.5h266q-15 -186 -134.5 -282t-326.5 -96q-102 -1 -193 37
t-157 107t-104 170t-37 218zM780 1434h164l-205 -308h-328l-205 308h164l205 -148z" />
    <glyph glyph-name="Dcaron" unicode="&#x10e;" horiz-adv-x="1477" 
d="M168 0v1434h491q331 2 530 -187.5t197 -529.5q2 -342 -192.5 -530.5t-523.5 -186.5h-502zM444 246h195q224 0 347 108q124 108 124 363q0 254 -124 362q-122 109 -347 109h-195v-942zM837 1823h226l-246 -297h-287l-246 297h226l164 -119z" />
    <glyph glyph-name="dcaron" unicode="&#x10f;" horiz-adv-x="1446" 
d="M78 512q-2 142 51.5 263t159 196t243.5 73q97 0 178.5 -46t116.5 -107v543h267v-1434h-267v133q-35 -61 -116.5 -107t-178.5 -46q-138 -2 -243.5 73t-159 196t-51.5 263zM578 195h16q95 -2 165 89t68 228q2 137 -68 228t-165 89h-16q-102 0 -168 -86.5t-66 -228.5
t66 -230.5t168 -88.5zM1206 932v154h48q54 0 82 21t28 59v2h-106v266h266v-266q0 -104 -72.5 -170t-187.5 -66h-58z" />
    <glyph glyph-name="Dcroat" unicode="&#x110;" horiz-adv-x="1542" 
d="M1452 717q2 -342 -192.5 -530.5t-523.5 -186.5h-502v594h-202v246h202v594h491q331 2 530 -187.5t197 -529.5zM1176 717q0 254 -124 362q-122 109 -347 109h-195v-348h260v-246h-260v-348h195q224 0 347 108q124 108 124 363z" />
    <glyph glyph-name="dcroat" unicode="&#x111;" horiz-adv-x="1231" 
d="M1272 1321v-184h-178v-1137h-267v133q-35 -61 -116.5 -107t-178.5 -46q-138 -2 -243.5 73t-159 196t-51.5 263q-2 142 51.5 263t159 196t243.5 73q97 0 178.5 -46t116.5 -107v246h-262v184h262v113h267v-113h178zM827 512q2 137 -68 228t-165 89h-16q-102 0 -168 -86.5
t-66 -228.5t66 -230.5t168 -88.5h16q95 -2 165 89t68 228z" />
    <glyph glyph-name="Emacron" unicode="&#x112;" horiz-adv-x="1354" 
d="M168 0v1434h1085v-246h-809v-330h686v-246h-686v-366h830v-246h-1106zM389 1567v225h687v-225h-687z" />
    <glyph glyph-name="emacron" unicode="&#x113;" horiz-adv-x="1118" 
d="M80 512q-2 233 132 384t355 148q219 2 344 -144t123 -376q0 -37 -4 -96h-692q7 -100 76 -166.5t155 -66.5h17q70 0 117.5 35.5t62.5 93.5h264q-39 -157 -159 -250.5t-304 -93.5q-96 -1 -185 36.5t-156.5 105t-107.5 169.5t-38 221zM338 633h438q-4 89 -64.5 142.5
t-146.5 53.5h-16q-86 0 -146.5 -53.5t-64.5 -142.5zM245 1157v215h625v-215h-625z" />
    <glyph glyph-name="Ebreve" unicode="&#x114;" horiz-adv-x="1354" 
d="M168 0v1434h1085v-246h-809v-330h686v-246h-686v-366h830v-246h-1106zM385 1823h226q6 -54 39.5 -83.5t83.5 -29.5q49 0 82.5 29.5t39.5 83.5h226q-3 -138 -100 -222.5t-248 -84.5q-152 0 -249 84.5t-100 222.5z" />
    <glyph glyph-name="ebreve" unicode="&#x115;" horiz-adv-x="1118" 
d="M80 512q-2 233 132 384t355 148q219 2 344 -144t123 -376q0 -37 -4 -96h-692q7 -100 76 -166.5t155 -66.5h17q70 0 117.5 35.5t62.5 93.5h264q-39 -157 -159 -250.5t-304 -93.5q-96 -1 -185 36.5t-156.5 105t-107.5 169.5t-38 221zM338 633h438q-4 89 -64.5 142.5
t-146.5 53.5h-16q-86 0 -146.5 -53.5t-64.5 -142.5zM216 1434h229q3 -64 32 -99t83 -35t83.5 35.5t32.5 98.5h228q-3 -150 -93.5 -227t-250.5 -77t-250.5 77t-93.5 227z" />
    <glyph glyph-name="Edotaccent" unicode="&#x116;" horiz-adv-x="1354" 
d="M168 0v1434h1085v-246h-809v-330h686v-246h-686v-366h830v-246h-1106zM589 1567v276h287v-276h-287z" />
    <glyph glyph-name="edotaccent" unicode="&#x117;" horiz-adv-x="1118" 
d="M80 512q-2 233 132 384t355 148q219 2 344 -144t123 -376q0 -37 -4 -96h-692q7 -100 76 -166.5t155 -66.5h17q70 0 117.5 35.5t62.5 93.5h264q-39 -157 -159 -250.5t-304 -93.5q-96 -1 -185 36.5t-156.5 105t-107.5 169.5t-38 221zM338 633h438q-4 89 -64.5 142.5
t-146.5 53.5h-16q-86 0 -146.5 -53.5t-64.5 -142.5zM415 1157v277h287v-277h-287z" />
    <glyph glyph-name="Eogonek" unicode="&#x118;" horiz-adv-x="1354" 
d="M1110 -184q0 -49 29 -76t73 -27h62v-164h-103q-107 0 -176.5 58t-69.5 147q0 150 156 246h-913v1434h1085v-246h-809v-330h686v-246h-686v-366h830v-246q-164 -93 -164 -184z" />
    <glyph glyph-name="eogonek" unicode="&#x119;" horiz-adv-x="1118" 
d="M1030 428h-692q7 -100 76 -166.5t155 -66.5h17q70 0 117.5 35.5t62.5 93.5h264q-31 -130 -118 -216t-220 -115q-151 -92 -151 -177q0 -49 29 -76t73 -27h62v-164h-103q-107 0 -176.5 58t-69.5 147q0 138 134 232q-176 26 -294 169t-116 357q-2 233 132 384t355 148
q219 2 344 -144t123 -376q0 -37 -4 -96zM338 633h438q-4 89 -64.5 142.5t-146.5 53.5h-16q-86 0 -146.5 -53.5t-64.5 -142.5z" />
    <glyph glyph-name="Ecaron" unicode="&#x11a;" horiz-adv-x="1354" 
d="M168 0v1434h1085v-246h-809v-330h686v-246h-686v-366h830v-246h-1106zM897 1823h226l-246 -297h-287l-246 297h226l164 -119z" />
    <glyph glyph-name="ecaron" unicode="&#x11b;" horiz-adv-x="1118" 
d="M80 512q-2 233 132 384t355 148q219 2 344 -144t123 -376q0 -37 -4 -96h-692q7 -100 76 -166.5t155 -66.5h17q70 0 117.5 35.5t62.5 93.5h264q-39 -157 -159 -250.5t-304 -93.5q-96 -1 -185 36.5t-156.5 105t-107.5 169.5t-38 221zM338 633h438q-4 89 -64.5 142.5
t-146.5 53.5h-16q-86 0 -146.5 -53.5t-64.5 -142.5zM764 1434h164l-205 -308h-328l-205 308h164l205 -148z" />
    <glyph glyph-name="Gcircumflex" unicode="&#x11c;" horiz-adv-x="1530" 
d="M88 717q-2 207 86 376t251.5 266.5t369.5 94.5q266 2 434 -142t180 -370h-276q-18 125 -101 195.5t-227 70.5h-21q-196 0 -307.5 -132.5t-111.5 -358.5t111.5 -359t307.5 -133h21q134 0 239.5 71t139.5 191l4 15h-393v246h450q85 0 129.5 -45t44.5 -130v-573h-235v139
q-149 -159 -410 -159q-201 -3 -359.5 94.5t-243.5 266.5t-83 376zM1190 1526h-226l-163 118l-164 -118h-226l246 297h287z" />
    <glyph glyph-name="gcircumflex" unicode="&#x11d;" horiz-adv-x="1214" 
d="M63 -115h267q9 -55 69.5 -88t159.5 -33h12q107 0 173.5 64t66.5 180v135q-41 -71 -118 -107t-171 -36q-89 -1 -169.5 35t-141.5 102t-96.5 166t-34.5 219q-1 119 34.5 219t96.5 166t141.5 102t169.5 35q94 0 171 -36t118 -107v123h266v-1049q1 -82 -34.5 -159
t-101.5 -137t-168.5 -95.5t-225.5 -34.5q-133 -1 -242.5 42t-174 120.5t-67.5 173.5zM575 215h17q96 0 157.5 83.5t61.5 223.5q0 141 -61.5 224t-157.5 83h-17q-100 0 -164.5 -83t-64.5 -224t64.5 -224t164.5 -83zM946 1126h-164l-205 148l-205 -148h-164l205 308h328z" />
    <glyph glyph-name="Gbreve" unicode="&#x11e;" horiz-adv-x="1530" 
d="M88 717q-2 207 86 376t251.5 266.5t369.5 94.5q266 2 434 -142t180 -370h-276q-18 125 -101 195.5t-227 70.5h-21q-196 0 -307.5 -132.5t-111.5 -358.5t111.5 -359t307.5 -133h21q134 0 239.5 71t139.5 191l4 15h-393v246h450q85 0 129.5 -45t44.5 -130v-573h-235v139
q-149 -159 -410 -159q-201 -3 -359.5 94.5t-243.5 266.5t-83 376zM452 1823h226q6 -54 39.5 -83.5t83.5 -29.5q49 0 82.5 29.5t39.5 83.5h226q-3 -138 -100 -222.5t-248 -84.5q-152 0 -249 84.5t-100 222.5z" />
    <glyph glyph-name="gbreve" unicode="&#x11f;" horiz-adv-x="1214" 
d="M63 -115h267q9 -55 69.5 -88t159.5 -33h12q107 0 173.5 64t66.5 180v135q-41 -71 -118 -107t-171 -36q-89 -1 -169.5 35t-141.5 102t-96.5 166t-34.5 219q-1 119 34.5 219t96.5 166t141.5 102t169.5 35q94 0 171 -36t118 -107v123h266v-1049q1 -82 -34.5 -159
t-101.5 -137t-168.5 -95.5t-225.5 -34.5q-133 -1 -242.5 42t-174 120.5t-67.5 173.5zM575 215h17q96 0 157.5 83.5t61.5 223.5q0 141 -61.5 224t-157.5 83h-17q-100 0 -164.5 -83t-64.5 -224t64.5 -224t164.5 -83zM234 1434h229q3 -64 32 -99t83 -35t83.5 35.5t32.5 98.5
h228q-3 -150 -93.5 -227t-250.5 -77t-250.5 77t-93.5 227z" />
    <glyph glyph-name="Gdotaccent" unicode="&#x120;" horiz-adv-x="1530" 
d="M88 717q-2 207 86 376t251.5 266.5t369.5 94.5q266 2 434 -142t180 -370h-276q-18 125 -101 195.5t-227 70.5h-21q-196 0 -307.5 -132.5t-111.5 -358.5t111.5 -359t307.5 -133h21q134 0 239.5 71t139.5 191l4 15h-393v246h450q85 0 129.5 -45t44.5 -130v-573h-235v139
q-149 -159 -410 -159q-201 -3 -359.5 94.5t-243.5 266.5t-83 376zM657 1567v276h287v-276h-287z" />
    <glyph glyph-name="gdotaccent" unicode="&#x121;" horiz-adv-x="1214" 
d="M63 -115h267q9 -55 69.5 -88t159.5 -33h12q107 0 173.5 64t66.5 180v135q-41 -71 -118 -107t-171 -36q-89 -1 -169.5 35t-141.5 102t-96.5 166t-34.5 219q-1 119 34.5 219t96.5 166t141.5 102t169.5 35q94 0 171 -36t118 -107v123h266v-1049q1 -82 -34.5 -159
t-101.5 -137t-168.5 -95.5t-225.5 -34.5q-133 -1 -242.5 42t-174 120.5t-67.5 173.5zM575 215h17q96 0 157.5 83.5t61.5 223.5q0 141 -61.5 224t-157.5 83h-17q-100 0 -164.5 -83t-64.5 -224t64.5 -224t164.5 -83zM434 1157v277h287v-277h-287z" />
    <glyph glyph-name="uni0122" unicode="&#x122;" horiz-adv-x="1530" 
d="M88 717q-2 207 86 376t251.5 266.5t369.5 94.5q266 2 434 -142t180 -370h-276q-18 125 -101 195.5t-227 70.5h-21q-196 0 -307.5 -132.5t-111.5 -358.5t111.5 -359t307.5 -133h21q134 0 239.5 71t139.5 191l4 15h-393v246h450q85 0 129.5 -45t44.5 -130v-573h-235v139
q-149 -159 -410 -159q-201 -3 -359.5 94.5t-243.5 266.5t-83 376zM610 -635v154h48q54 0 82 21t28 59v2h-106v266h266v-266q0 -104 -72.5 -170t-187.5 -66h-58z" />
    <glyph glyph-name="uni0123" unicode="&#x123;" horiz-adv-x="1214" 
d="M63 -115h267q9 -55 69.5 -88t159.5 -33h12q107 0 173.5 64t66.5 180v135q-41 -71 -118 -107t-171 -36q-89 -1 -169.5 35t-141.5 102t-96.5 166t-34.5 219q-1 119 34.5 219t96.5 166t141.5 102t169.5 35q94 0 171 -36t118 -107v123h266v-1049q1 -82 -34.5 -159
t-101.5 -137t-168.5 -95.5t-225.5 -34.5q-133 -1 -242.5 42t-174 120.5t-67.5 173.5zM575 215h17q96 0 157.5 83.5t61.5 223.5q0 141 -61.5 224t-157.5 83h-17q-100 0 -164.5 -83t-64.5 -224t64.5 -224t164.5 -83zM762 1669v-154h-48q-54 0 -82 -21t-28 -59v-2h106v-266
h-266v266q0 104 72.5 170t187.5 66h58z" />
    <glyph glyph-name="Hcircumflex" unicode="&#x124;" horiz-adv-x="1513" 
d="M168 0v1434h276v-594h625v594h277v-1434h-277v594h-625v-594h-276zM1147 1526h-226l-163 118l-164 -118h-226l246 297h287z" />
    <glyph glyph-name="hcircumflex" unicode="&#x125;" horiz-adv-x="1196" 
d="M137 0v1434h266v-560q48 79 130.5 124.5t179.5 45.5q178 0 266 -106q90 -107 90 -283v-655h-266v625q0 99 -42 151.5t-120 52.5h-16q-92 0 -157 -76.5t-65 -183.5v-569h-266zM1000 1515h-164l-205 148l-205 -148h-164l205 308h328z" />
    <glyph glyph-name="Hbar" unicode="&#x126;" horiz-adv-x="1550" 
d="M1487 1243v-235h-123v-1008h-277v594h-625v-594h-276v1008h-123v235h123v191h276v-191h625v191h277v-191h123zM1087 840v168h-625v-168h625z" />
    <glyph glyph-name="hbar" unicode="&#x127;" horiz-adv-x="1196" 
d="M1069 655v-655h-266v625q0 99 -42 151.5t-120 52.5h-16q-92 0 -157 -76.5t-65 -183.5v-569h-266v1137h-162v184h162v113h266v-113h279v-184h-279v-263q48 79 130.5 124.5t179.5 45.5q178 0 266 -106q90 -107 90 -283z" />
    <glyph glyph-name="Itilde" unicode="&#x128;" horiz-adv-x="612" 
d="M168 0v1434h276v-1434h-276zM306 1585l-37 21q-56 32 -93 32q-30 3 -46.5 -20t-16.5 -62h-195v54q-2 94 67.5 164.5t162.5 68.5q48 0 80.5 -9.5t72.5 -31.5l37 -20q11 -5 20 -11q52 -30 81 -30q30 0 45.5 22t15.5 60h195v-54q0 -102 -57 -168q-56 -65 -169 -65
q-72 0 -163 49z" />
    <glyph glyph-name="itilde" unicode="&#x129;" horiz-adv-x="541" 
d="M137 0v1024h266v-1024h-266zM269 1186l-37 20q-37 21 -51.5 27t-34.5 6q-27 0 -48.5 -24.5t-21.5 -57.5h-195v53q-2 93 67.5 164t162.5 70q47 0 78.5 -9t74.5 -32l37 -21l25 -13q47 -28 76 -28q26 0 43.5 23.5t17.5 58.5h195v-53q2 -92 -67.5 -163.5t-158.5 -69.5
q-72 0 -163 49z" />
    <glyph glyph-name="Imacron" unicode="&#x12a;" horiz-adv-x="612" 
d="M168 0v1434h276v-1434h-276zM-37 1567v225h687v-225h-687z" />
    <glyph glyph-name="imacron" unicode="&#x12b;" horiz-adv-x="541" 
d="M137 0v1024h266v-1024h-266zM-43 1157v215h625v-215h-625z" />
    <glyph glyph-name="Ibreve" unicode="&#x12c;" horiz-adv-x="612" 
d="M168 0v1434h276v-1434h-276zM-41 1823h226q6 -54 39.5 -83.5t83.5 -29.5q49 0 82.5 29.5t39.5 83.5h226q-3 -138 -100 -222.5t-248 -84.5q-152 0 -249 84.5t-100 222.5z" />
    <glyph glyph-name="ibreve" unicode="&#x12d;" horiz-adv-x="541" 
d="M137 0v1024h266v-1024h-266zM-73 1434h229q3 -64 32 -99t83 -35t83.5 35.5t32.5 98.5h228q-3 -150 -93.5 -227t-250.5 -77t-250.5 77t-93.5 227z" />
    <glyph glyph-name="Iogonek" unicode="&#x12e;" horiz-adv-x="612" 
d="M383 -287h62v-164h-103q-107 0 -176.5 58t-69.5 147q0 150 156 246h-84v1434h276v-1434h1q-164 -93 -164 -184q0 -49 29 -76t73 -27z" />
    <glyph glyph-name="iogonek" unicode="&#x12f;" horiz-adv-x="541" 
d="M127 1434h287v-277h-287v277zM240 -184q0 -49 29 -76t73 -27h62v-164h-103q-107 0 -176.5 58t-69.5 147q0 150 156 246h-74v1024h266v-1024h1q-164 -93 -164 -184z" />
    <glyph glyph-name="Idotaccent" unicode="&#x130;" horiz-adv-x="612" 
d="M168 0v1434h276v-1434h-276zM163 1567v276h287v-276h-287z" />
    <glyph glyph-name="dotlessi" unicode="&#x131;" horiz-adv-x="541" 
d="M137 0v1024h266v-1024h-266z" />
    <glyph glyph-name="IJ" unicode="&#x132;" horiz-adv-x="1128" 
d="M162 0v266h358q99 0 136.5 43t37.5 152v973h277v-1004q0 -225 -99 -327.5t-321 -102.5h-389zM162 422v1012h276v-1012h-276z" />
    <glyph glyph-name="ij" unicode="&#x133;" horiz-adv-x="1038" 
d="M127 1157v277h287v-277h-287zM623 1157v277h286v-277h-286zM137 -410v226h385q62 0 87.5 25.5t25.5 86.5v1096h266v-1178q0 -122 -66.5 -189t-189.5 -67h-508zM137 0v1024h266v-1024h-266z" />
    <glyph glyph-name="Jcircumflex" unicode="&#x134;" horiz-adv-x="879" 
d="M57 0v266h262q70 0 96.5 27t26.5 96v1045h277v-1147q0 -130 -78.5 -208.5t-208.5 -78.5h-375zM971 1526h-226l-163 118l-164 -118h-226l246 297h287z" />
    <glyph glyph-name="jcircumflex" unicode="&#x135;" horiz-adv-x="557" 
d="M-168 -410v226h209q62 0 87.5 25.5t25.5 86.5v1096h266v-1178q0 -122 -66.5 -189t-189.5 -67h-332zM656 1126h-164l-205 148l-205 -148h-164l205 308h328z" />
    <glyph glyph-name="uni0136" unicode="&#x136;" horiz-adv-x="1405" 
d="M1065 0l-432 631l-189 -199v-432h-276v1434h276v-644l609 644h342l-565 -595l577 -839h-342zM532 -635v154h48q54 0 82 21t28 59v2h-106v266h266v-266q0 -104 -72.5 -170t-187.5 -66h-58z" />
    <glyph glyph-name="uni0137" unicode="&#x137;" horiz-adv-x="1128" 
d="M807 0l-285 427l-119 -123v-304h-266v1434h266v-792l371 382h326l-394 -407l414 -617h-313zM403 -635v154h48q54 0 82 21t28 59v2h-106v266h266v-266q0 -104 -72.5 -170t-187.5 -66h-58z" />
    <glyph glyph-name="Lacute" unicode="&#x139;" horiz-adv-x="1290" 
d="M168 0v1434h276v-1188h809v-246h-1085zM215 1526l82 297h318l-215 -297h-185z" />
    <glyph glyph-name="lacute" unicode="&#x13a;" horiz-adv-x="541" 
d="M137 0v1434h266v-1434h-266zM186 1525l52 308h307l-205 -308h-154z" />
    <glyph glyph-name="uni013B" unicode="&#x13b;" horiz-adv-x="1290" 
d="M168 0v1434h276v-1188h809v-246h-1085zM532 -635v154h48q54 0 82 21t28 59v2h-106v266h266v-266q0 -104 -72.5 -170t-187.5 -66h-58z" />
    <glyph glyph-name="uni013C" unicode="&#x13c;" horiz-adv-x="541" 
d="M137 0v1434h266v-1434h-266zM86 -635v154h48q54 0 82 21t28 59v2h-106v266h266v-266q0 -104 -72.5 -170t-187.5 -66h-58z" />
    <glyph glyph-name="Lcaron" unicode="&#x13d;" horiz-adv-x="1294" 
d="M168 0v1434h276v-1188h809v-246h-1085zM700 932v154h48q54 0 82 21t28 59v2h-106v266h266v-266q0 -104 -72.5 -170t-187.5 -66h-58z" />
    <glyph glyph-name="lcaron" unicode="&#x13e;" horiz-adv-x="756" 
d="M137 0v1434h266v-1434h-266zM516 932v154h48q54 0 82 21t28 59v2h-106v266h266v-266q0 -104 -72.5 -170t-187.5 -66h-58z" />
    <glyph glyph-name="Ldot" unicode="&#x13f;" horiz-adv-x="1292" 
d="M168 0v1434h276v-1188h809v-246h-1085zM767 604v267h268v-267h-268z" />
    <glyph glyph-name="ldot" unicode="&#x140;" horiz-adv-x="762" 
d="M137 0v1434h266v-1434h-266zM517 584v267h268v-267h-268z" />
    <glyph glyph-name="Lslash" unicode="&#x141;" horiz-adv-x="1391" 
d="M544 246h809v-246h-1085v480l-191 -107v276l191 107v678h276v-524l353 198v-274l-353 -198v-390z" />
    <glyph glyph-name="lslash" unicode="&#x142;" horiz-adv-x="684" 
d="M645 1104v-246l-164 -93v-765h-266v615l-164 -93v246l164 93v573h266v-423z" />
    <glyph glyph-name="Nacute" unicode="&#x143;" horiz-adv-x="1534" 
d="M1090 1434h276v-1434h-358l-564 1056v-1056h-276v1434h358l564 -1051v1051zM677 1526l82 297h318l-215 -297h-185z" />
    <glyph glyph-name="nacute" unicode="&#x144;" horiz-adv-x="1196" 
d="M137 0v1024h266v-150q48 79 130.5 124.5t179.5 45.5q178 0 266 -106q90 -107 90 -283v-655h-266v625q0 99 -42 151.5t-120 52.5h-16q-92 0 -157 -76.5t-65 -183.5v-569h-266zM522 1126l52 308h307l-205 -308h-154z" />
    <glyph glyph-name="uni0145" unicode="&#x145;" horiz-adv-x="1534" 
d="M1090 1434h276v-1434h-358l-564 1056v-1056h-276v1434h358l564 -1051v1051zM583 -635v154h48q54 0 82 21t28 59v2h-106v266h266v-266q0 -104 -72.5 -170t-187.5 -66h-58z" />
    <glyph glyph-name="uni0146" unicode="&#x146;" horiz-adv-x="1196" 
d="M137 0v1024h266v-150q48 79 130.5 124.5t179.5 45.5q178 0 266 -106q90 -107 90 -283v-655h-266v625q0 99 -42 151.5t-120 52.5h-16q-92 0 -157 -76.5t-65 -183.5v-569h-266zM421 -635v154h48q54 0 82 21t28 59v2h-106v266h266v-266q0 -104 -72.5 -170t-187.5 -66h-58z
" />
    <glyph glyph-name="Ncaron" unicode="&#x147;" horiz-adv-x="1534" 
d="M1090 1434h276v-1434h-358l-564 1056v-1056h-276v1434h358l564 -1051v1051zM933 1823h226l-246 -297h-287l-246 297h226l164 -119z" />
    <glyph glyph-name="ncaron" unicode="&#x148;" horiz-adv-x="1196" 
d="M137 0v1024h266v-150q48 79 130.5 124.5t179.5 45.5q178 0 266 -106q90 -107 90 -283v-655h-266v625q0 99 -42 151.5t-120 52.5h-16q-92 0 -157 -76.5t-65 -183.5v-569h-266zM811 1434h164l-205 -308h-328l-205 308h164l205 -148z" />
    <glyph glyph-name="Eng" unicode="&#x14a;" horiz-adv-x="1534" 
d="M854 -410v226h123q62 0 87.5 25.5t25.5 86.5v72l-646 977v-977h-276v1434h287l635 -965v965h276v-1577q0 -122 -72 -194.5t-194 -72.5h-246z" />
    <glyph glyph-name="eng" unicode="&#x14b;" horiz-adv-x="1196" 
d="M588 -414v230h102q62 0 87.5 25.5t25.5 86.5v697q0 99 -42 151.5t-120 52.5h-16q-92 0 -157 -76.5t-65 -183.5v-569h-266v1024h266v-150q48 79 130.5 124.5t179.5 45.5q178 0 266 -106q90 -107 90 -283v-813q0 -123 -66.5 -189.5t-189.5 -66.5h-225z" />
    <glyph glyph-name="Omacron" unicode="&#x14c;" horiz-adv-x="1569" 
d="M88 717q-2 222 87 391.5t247.5 258.5t361.5 87q152 2 281.5 -50t222 -147t144 -234t49.5 -306q2 -167 -49.5 -306t-144 -234t-222 -147t-281.5 -50q-203 -2 -361.5 87t-247.5 258.5t-87 391.5zM774 225h21q191 0 300 131t109 361t-109 360.5t-300 130.5h-21
q-191 0 -300 -130.5t-109 -360.5t109 -361t300 -131zM440 1567v225h687v-225h-687z" />
    <glyph glyph-name="omacron" unicode="&#x14d;" horiz-adv-x="1180" 
d="M78 512q-3 229 142.5 382t369.5 150q224 3 369.5 -150t142.5 -382q3 -229 -142.5 -382t-369.5 -150q-224 -3 -369.5 150t-142.5 382zM582 195h16q108 0 172 84.5t64 232.5t-64 232.5t-172 84.5h-16q-109 0 -172.5 -84.5t-63.5 -232.5t63.5 -232.5t172.5 -84.5zM276 1157
v215h625v-215h-625z" />
    <glyph glyph-name="Obreve" unicode="&#x14e;" horiz-adv-x="1569" 
d="M88 717q-2 222 87 391.5t247.5 258.5t361.5 87q152 2 281.5 -50t222 -147t144 -234t49.5 -306q2 -167 -49.5 -306t-144 -234t-222 -147t-281.5 -50q-203 -2 -361.5 87t-247.5 258.5t-87 391.5zM774 225h21q191 0 300 131t109 361t-109 360.5t-300 130.5h-21
q-191 0 -300 -130.5t-109 -360.5t109 -361t300 -131zM436 1823h226q6 -54 39.5 -83.5t83.5 -29.5q49 0 82.5 29.5t39.5 83.5h226q-3 -138 -100 -222.5t-248 -84.5q-152 0 -249 84.5t-100 222.5z" />
    <glyph glyph-name="obreve" unicode="&#x14f;" horiz-adv-x="1180" 
d="M78 512q-3 229 142.5 382t369.5 150q224 3 369.5 -150t142.5 -382q3 -229 -142.5 -382t-369.5 -150q-224 -3 -369.5 150t-142.5 382zM582 195h16q108 0 172 84.5t64 232.5t-64 232.5t-172 84.5h-16q-109 0 -172.5 -84.5t-63.5 -232.5t63.5 -232.5t172.5 -84.5zM246 1434
h229q3 -64 32 -99t83 -35t83.5 35.5t32.5 98.5h228q-3 -150 -93.5 -227t-250.5 -77t-250.5 77t-93.5 227z" />
    <glyph glyph-name="Ohungarumlaut" unicode="&#x150;" horiz-adv-x="1569" 
d="M88 717q-2 222 87 391.5t247.5 258.5t361.5 87q152 2 281.5 -50t222 -147t144 -234t49.5 -306q2 -167 -49.5 -306t-144 -234t-222 -147t-281.5 -50q-203 -2 -361.5 87t-247.5 258.5t-87 391.5zM774 225h21q191 0 300 131t109 361t-109 360.5t-300 130.5h-21
q-191 0 -300 -130.5t-109 -360.5t109 -361t300 -131zM483 1526l82 297h318l-215 -297h-185zM871 1526l81 297h318l-215 -297h-184z" />
    <glyph glyph-name="ohungarumlaut" unicode="&#x151;" horiz-adv-x="1180" 
d="M78 512q-3 229 142.5 382t369.5 150q224 3 369.5 -150t142.5 -382q3 -229 -142.5 -382t-369.5 -150q-224 -3 -369.5 150t-142.5 382zM582 195h16q108 0 172 84.5t64 232.5t-64 232.5t-172 84.5h-16q-109 0 -172.5 -84.5t-63.5 -232.5t63.5 -232.5t172.5 -84.5zM331 1126
l52 308h307l-205 -308h-154zM657 1126l52 308h307l-205 -308h-154z" />
    <glyph glyph-name="OE" unicode="&#x152;" horiz-adv-x="2390" 
d="M88 717q-2 222 87 391.5t247.5 258.5t361.5 87q247 0 420 -125v105h1086v-246h-809v-330h686v-246h-686v-366h829v-246h-1106v104q-176 -124 -420 -124q-203 -2 -361.5 87t-247.5 258.5t-87 391.5zM774 225h21q191 0 300 131t109 361t-109 360.5t-300 130.5h-21
q-191 0 -300 -130.5t-109 -360.5t109 -361t300 -131z" />
    <glyph glyph-name="oe" unicode="&#x153;" horiz-adv-x="1876" 
d="M78 512q-3 229 142.5 382t369.5 150q228 0 375 -153q130 153 360 153q219 2 344 -144t123 -376q0 -37 -4 -96h-692q7 -101 74.5 -167t156.5 -66h16q70 0 118 35.5t63 93.5h264q-39 -157 -159 -250.5t-304 -93.5q-104 0 -196.5 40.5t-159.5 116.5q-144 -157 -379 -157
q-224 -3 -369.5 150t-142.5 382zM582 195h16q108 0 172 84.5t64 232.5t-64 232.5t-172 84.5h-16q-109 0 -172.5 -84.5t-63.5 -232.5t63.5 -232.5t172.5 -84.5zM1096 633h438q-4 89 -64.5 142.5t-146.5 53.5h-16q-86 0 -146.5 -53.5t-64.5 -142.5z" />
    <glyph glyph-name="Racute" unicode="&#x154;" horiz-adv-x="1399" 
d="M168 0v1434h666q119 1 221 -49.5t161.5 -141.5t57.5 -199q0 -271 -244 -362q223 0 223 -203v-479h-276v410q0 77 -28 105t-105 28h-400v-543h-276zM444 784h308q121 0 183 53t62 154q0 197 -245 197h-308v-404zM583 1526l82 297h318l-215 -297h-185z" />
    <glyph glyph-name="racute" unicode="&#x155;" horiz-adv-x="795" 
d="M137 0v1024h266v-205q31 103 108 159t189 56h52v-246h-93q-131 0 -193.5 -62.5t-62.5 -193.5v-532h-266zM290 1126l52 308h307l-205 -308h-154z" />
    <glyph glyph-name="uni0156" unicode="&#x156;" horiz-adv-x="1399" 
d="M168 0v1434h666q119 1 221 -49.5t161.5 -141.5t57.5 -199q0 -271 -244 -362q223 0 223 -203v-479h-276v410q0 77 -28 105t-105 28h-400v-543h-276zM444 784h308q121 0 183 53t62 154q0 197 -245 197h-308v-404zM520 -635v154h48q54 0 82 21t28 59v2h-106v266h266v-266
q0 -104 -72.5 -170t-187.5 -66h-58z" />
    <glyph glyph-name="uni0157" unicode="&#x157;" horiz-adv-x="795" 
d="M137 0v1024h266v-205q31 103 108 159t189 56h52v-246h-93q-131 0 -193.5 -62.5t-62.5 -193.5v-532h-266zM86 -635v154h48q54 0 82 21t28 59v2h-106v266h266v-266q0 -104 -72.5 -170t-187.5 -66h-58z" />
    <glyph glyph-name="Rcaron" unicode="&#x158;" horiz-adv-x="1399" 
d="M168 0v1434h666q119 1 221 -49.5t161.5 -141.5t57.5 -199q0 -271 -244 -362q223 0 223 -203v-479h-276v410q0 77 -28 105t-105 28h-400v-543h-276zM444 784h308q121 0 183 53t62 154q0 197 -245 197h-308v-404zM839 1823h226l-246 -297h-287l-246 297h226l164 -119z" />
    <glyph glyph-name="rcaron" unicode="&#x159;" horiz-adv-x="795" 
d="M137 0v1024h266v-205q31 103 108 159t189 56h52v-246h-93q-131 0 -193.5 -62.5t-62.5 -193.5v-532h-266zM580 1434h164l-205 -308h-328l-205 308h164l205 -148z" />
    <glyph glyph-name="Sacute" unicode="&#x15a;" horiz-adv-x="1298" 
d="M59 481h277q8 -115 92 -185.5t236 -70.5h20q109 0 171.5 50t62.5 124q0 67 -36 103.5t-126 54.5l-256 53q-369 78 -369 414q-2 82 36 159.5t106 138.5t173 97t228 35q250 2 397.5 -130.5t145.5 -340.5h-277q-7 107 -78.5 166t-187.5 59h-21q-109 0 -177 -51t-68 -123
q0 -69 40 -106t134 -56l215 -43q397 -79 397 -409q2 -190 -148.5 -316t-402.5 -124q-281 0 -428 133t-156 368zM575 1526l82 297h318l-215 -297h-185z" />
    <glyph glyph-name="sacute" unicode="&#x15b;" horiz-adv-x="1018" 
d="M66 338h272q0 -69 47.5 -111.5t124.5 -42.5h16q63 0 101.5 27.5t38.5 73.5q0 39 -26.5 63.5t-82.5 38.5l-133 33q-165 40 -241.5 113.5t-76.5 195.5q0 140 112 227.5t300 87.5q198 0 309 -93t111 -255h-266q-8 69 -47.5 106.5t-106.5 37.5h-16q-60 0 -96.5 -26t-36.5 -75
q0 -38 33.5 -63t101.5 -41l137 -35q148 -37 217.5 -110.5t69.5 -194.5q0 -138 -110.5 -226.5t-307.5 -88.5q-208 0 -326 95t-118 263zM417 1126l52 308h307l-205 -308h-154z" />
    <glyph glyph-name="Scircumflex" unicode="&#x15c;" horiz-adv-x="1298" 
d="M59 481h277q8 -115 92 -185.5t236 -70.5h20q109 0 171.5 50t62.5 124q0 67 -36 103.5t-126 54.5l-256 53q-369 78 -369 414q-2 82 36 159.5t106 138.5t173 97t228 35q250 2 397.5 -130.5t145.5 -340.5h-277q-7 107 -78.5 166t-187.5 59h-21q-109 0 -177 -51t-68 -123
q0 -69 40 -106t134 -56l215 -43q397 -79 397 -409q2 -190 -148.5 -316t-402.5 -124q-281 0 -428 133t-156 368zM1057 1526h-226l-163 118l-164 -118h-226l246 297h287z" />
    <glyph glyph-name="scircumflex" unicode="&#x15d;" horiz-adv-x="1018" 
d="M66 338h272q0 -69 47.5 -111.5t124.5 -42.5h16q63 0 101.5 27.5t38.5 73.5q0 39 -26.5 63.5t-82.5 38.5l-133 33q-165 40 -241.5 113.5t-76.5 195.5q0 140 112 227.5t300 87.5q198 0 309 -93t111 -255h-266q-8 69 -47.5 106.5t-106.5 37.5h-16q-60 0 -96.5 -26t-36.5 -75
q0 -38 33.5 -63t101.5 -41l137 -35q148 -37 217.5 -110.5t69.5 -194.5q0 -138 -110.5 -226.5t-307.5 -88.5q-208 0 -326 95t-118 263zM871 1126h-164l-205 148l-205 -148h-164l205 308h328z" />
    <glyph glyph-name="Scedilla" unicode="&#x15e;" horiz-adv-x="1298" 
d="M1194 420q2 -177 -129 -300.5t-355 -137.5v-74q84 0 139.5 -51t55.5 -144q0 -98 -68 -156.5t-178 -58.5h-164v154h175q81 0 81 61q0 28 -18 45t-53 17h-113v208q-246 18 -374 150q-127 133 -134 348h277q8 -115 92 -185.5t236 -70.5h20q109 0 171.5 50t62.5 124
q0 67 -36 103.5t-126 54.5l-256 53q-369 78 -369 414q-2 82 36 159.5t106 138.5t173 97t228 35q250 2 397.5 -130.5t145.5 -340.5h-277q-7 107 -78.5 166t-187.5 59h-21q-109 0 -177 -51t-68 -123q0 -69 40 -106t134 -56l215 -43q397 -79 397 -409z" />
    <glyph glyph-name="scedilla" unicode="&#x15f;" horiz-adv-x="1018" 
d="M928 295q0 -126 -93 -211.5t-260 -100.5v-75q84 0 139.5 -51t55.5 -144q0 -98 -68 -156.5t-178 -58.5h-164v154h175q81 0 81 61q0 28 -18 45t-53 17h-113v209q-171 16 -270 109q-96 93 -96 245h272q0 -69 47.5 -111.5t124.5 -42.5h16q63 0 101.5 27.5t38.5 73.5
q0 39 -26.5 63.5t-82.5 38.5l-133 33q-165 40 -241.5 113.5t-76.5 195.5q0 140 112 227.5t300 87.5q198 0 309 -93t111 -255h-266q-8 69 -47.5 106.5t-106.5 37.5h-16q-60 0 -96.5 -26t-36.5 -75q0 -38 33.5 -63t101.5 -41l137 -35q148 -37 217.5 -110.5t69.5 -194.5z" />
    <glyph glyph-name="Scaron" unicode="&#x160;" horiz-adv-x="1298" 
d="M59 481h277q8 -115 92 -185.5t236 -70.5h20q109 0 171.5 50t62.5 124q0 67 -36 103.5t-126 54.5l-256 53q-369 78 -369 414q-2 82 36 159.5t106 138.5t173 97t228 35q250 2 397.5 -130.5t145.5 -340.5h-277q-7 107 -78.5 166t-187.5 59h-21q-109 0 -177 -51t-68 -123
q0 -69 40 -106t134 -56l215 -43q397 -79 397 -409q2 -190 -148.5 -316t-402.5 -124q-281 0 -428 133t-156 368zM831 1823h226l-246 -297h-287l-246 297h226l164 -119z" />
    <glyph glyph-name="scaron" unicode="&#x161;" horiz-adv-x="1018" 
d="M66 338h272q0 -69 47.5 -111.5t124.5 -42.5h16q63 0 101.5 27.5t38.5 73.5q0 39 -26.5 63.5t-82.5 38.5l-133 33q-165 40 -241.5 113.5t-76.5 195.5q0 140 112 227.5t300 87.5q198 0 309 -93t111 -255h-266q-8 69 -47.5 106.5t-106.5 37.5h-16q-60 0 -96.5 -26t-36.5 -75
q0 -38 33.5 -63t101.5 -41l137 -35q148 -37 217.5 -110.5t69.5 -194.5q0 -138 -110.5 -226.5t-307.5 -88.5q-208 0 -326 95t-118 263zM707 1434h164l-205 -308h-328l-205 308h164l205 -148z" />
    <glyph glyph-name="uni0162" unicode="&#x162;" horiz-adv-x="1343" 
d="M809 0h-66v-92q84 0 139.5 -51t55.5 -144q0 -98 -68 -156.5t-178 -58.5h-164v154h175q81 0 81 61q0 28 -18 45t-53 17h-113v225h-68v1188h-495v246h1270v-246h-498v-1188z" />
    <glyph glyph-name="uni0163" unicode="&#x163;" horiz-adv-x="834" 
d="M772 0h-258v-92q84 0 139.5 -51t55.5 -144q0 -98 -68 -156.5t-178 -58.5h-164v154h175q81 0 81 61q0 28 -18 45t-53 17h-113v253q-125 59 -125 238v543h-211v215h211v332h266v-332h229v-215h-229v-471q0 -70 21 -91.5t92 -21.5h147v-225z" />
    <glyph glyph-name="Tcaron" unicode="&#x164;" horiz-adv-x="1343" 
d="M532 0v1188h-495v246h1270v-246h-498v-1188h-277zM835 1823h226l-246 -297h-287l-246 297h226l164 -119z" />
    <glyph glyph-name="tcaron" unicode="&#x165;" horiz-adv-x="834" 
d="M246 266v543h-211v215h211v332h266v-332h229v-215h-229v-471q0 -70 21 -91.5t92 -21.5h147v-225h-260q-130 0 -198 68t-68 198zM672 1157v154h48q54 0 82 21t28 59v2h-106v266h266v-266q0 -104 -72.5 -170t-187.5 -66h-58z" />
    <glyph glyph-name="Tbar" unicode="&#x166;" horiz-adv-x="1384" 
d="M1327 1188h-498v-295h348v-235h-348v-658h-277v658h-348v235h348v295h-495v246h1270v-246z" />
    <glyph glyph-name="tbar" unicode="&#x167;" horiz-adv-x="856" 
d="M643 225h147v-225h-260q-130 0 -198 68t-68 198v189h-211v184h211v170h-211v215h211v332h266v-332h229v-215h-229v-170h230v-184h-230v-117q0 -70 21 -91.5t92 -21.5z" />
    <glyph glyph-name="Utilde" unicode="&#x168;" horiz-adv-x="1438" 
d="M156 502v932h276v-891q0 -166 67.5 -242t209.5 -76h20q142 0 209.5 76t67.5 242v891h276v-932q0 -255 -140.5 -388.5t-422.5 -133.5t-422.5 133.5t-140.5 388.5zM717 1585l-37 21q-56 32 -93 32q-30 3 -46.5 -20t-16.5 -62h-195v54q-2 94 67.5 164.5t162.5 68.5
q48 0 80.5 -9.5t72.5 -31.5l37 -20q12 -5 20 -11q53 -30 81 -30q30 0 45.5 22t15.5 60h195v-54q0 -102 -57 -168q-56 -65 -169 -65q-72 0 -163 49z" />
    <glyph glyph-name="utilde" unicode="&#x169;" horiz-adv-x="1176" 
d="M127 369v655h266v-625q0 -99 39.5 -151.5t112.5 -52.5h16q87 0 149 76.5t62 183.5v569h266v-1024h-266v150q-48 -80 -126.5 -125t-172.5 -45q-173 0 -260 105q-86 107 -86 284zM582 1186l-37 20q-37 21 -51.5 27t-34.5 6q-27 0 -48.5 -24.5t-21.5 -57.5h-195v53
q-2 93 67.5 164t162.5 70q47 0 78.5 -9t74.5 -32l37 -21l25 -13q47 -28 76 -28q26 0 43.5 23.5t17.5 58.5h195v-53q2 -92 -67.5 -163.5t-158.5 -69.5q-72 0 -163 49z" />
    <glyph glyph-name="Umacron" unicode="&#x16a;" horiz-adv-x="1438" 
d="M156 502v932h276v-891q0 -166 67.5 -242t209.5 -76h20q142 0 209.5 76t67.5 242v891h276v-932q0 -255 -140.5 -388.5t-422.5 -133.5t-422.5 133.5t-140.5 388.5zM374 1567v225h687v-225h-687z" />
    <glyph glyph-name="umacron" unicode="&#x16b;" horiz-adv-x="1176" 
d="M127 369v655h266v-625q0 -99 39.5 -151.5t112.5 -52.5h16q87 0 149 76.5t62 183.5v569h266v-1024h-266v150q-48 -80 -126.5 -125t-172.5 -45q-173 0 -260 105q-86 107 -86 284zM270 1157v215h625v-215h-625z" />
    <glyph glyph-name="Ubreve" unicode="&#x16c;" horiz-adv-x="1438" 
d="M156 502v932h276v-891q0 -166 67.5 -242t209.5 -76h20q142 0 209.5 76t67.5 242v891h276v-932q0 -255 -140.5 -388.5t-422.5 -133.5t-422.5 133.5t-140.5 388.5zM370 1823h226q6 -54 39.5 -83.5t83.5 -29.5q49 0 82.5 29.5t39.5 83.5h226q-3 -138 -100 -222.5t-248 -84.5
q-152 0 -249 84.5t-100 222.5z" />
    <glyph glyph-name="ubreve" unicode="&#x16d;" horiz-adv-x="1176" 
d="M127 369v655h266v-625q0 -99 39.5 -151.5t112.5 -52.5h16q87 0 149 76.5t62 183.5v569h266v-1024h-266v150q-48 -80 -126.5 -125t-172.5 -45q-173 0 -260 105q-86 107 -86 284zM240 1434h229q3 -64 32 -99t83 -35t83.5 35.5t32.5 98.5h228q-3 -150 -93.5 -227t-250.5 -77
t-250.5 77t-93.5 227z" />
    <glyph glyph-name="Uring" unicode="&#x16e;" horiz-adv-x="1438" 
d="M156 502v932h276v-891q0 -166 67.5 -242t209.5 -76h20q142 0 209.5 76t67.5 242v891h276v-932q0 -255 -140.5 -388.5t-422.5 -133.5t-422.5 133.5t-140.5 388.5zM493 1720q-2 85 69.5 156.5t156.5 69.5q92 2 159.5 -68t65.5 -158q0 -96 -64.5 -160.5t-160.5 -64.5
q-88 -2 -158 65.5t-68 159.5zM801 1720q0 32 -24 57t-56 25t-57 -25t-25 -57t25 -57t57 -25t56 25t24 57z" />
    <glyph glyph-name="uring" unicode="&#x16f;" horiz-adv-x="1176" 
d="M127 369v655h266v-625q0 -99 39.5 -151.5t112.5 -52.5h16q87 0 149 76.5t62 183.5v569h266v-1024h-266v150q-48 -80 -126.5 -125t-172.5 -45q-173 0 -260 105q-86 107 -86 284zM368 1321q-2 82 66 149.5t149 65.5q89 0 152.5 -64.5t63.5 -150.5q0 -92 -62 -153.5
t-154 -61.5q-86 0 -150.5 63t-64.5 152zM674 1321q0 37 -25.5 63.5t-62.5 26.5t-64 -26.5t-27 -63.5t27 -63.5t64 -26.5t62.5 26.5t25.5 63.5z" />
    <glyph glyph-name="Uhungarumlaut" unicode="&#x170;" horiz-adv-x="1438" 
d="M156 502v932h276v-891q0 -166 67.5 -242t209.5 -76h20q142 0 209.5 76t67.5 242v891h276v-932q0 -255 -140.5 -388.5t-422.5 -133.5t-422.5 133.5t-140.5 388.5zM417 1526l82 297h318l-215 -297h-185zM805 1526l81 297h318l-215 -297h-184z" />
    <glyph glyph-name="uhungarumlaut" unicode="&#x171;" horiz-adv-x="1176" 
d="M127 369v655h266v-625q0 -99 39.5 -151.5t112.5 -52.5h16q87 0 149 76.5t62 183.5v569h266v-1024h-266v150q-48 -80 -126.5 -125t-172.5 -45q-173 0 -260 105q-86 107 -86 284zM325 1126l52 308h307l-205 -308h-154zM651 1126l52 308h307l-205 -308h-154z" />
    <glyph glyph-name="Uogonek" unicode="&#x172;" horiz-adv-x="1438" 
d="M1006 1434h276v-932q0 -206 -92.5 -333.5t-276.5 -168.5q-77 -45 -120 -89t-43 -95q0 -49 29 -76t73 -27h62v-164h-103q-107 0 -176.5 58t-69.5 147q0 137 126 226q-268 7 -401.5 140t-133.5 382v932h276v-891q0 -166 67.5 -242t209.5 -76h20q142 0 209.5 76t67.5 242
v891z" />
    <glyph glyph-name="uogonek" unicode="&#x173;" horiz-adv-x="1176" 
d="M977 -287h62v-164h-103q-107 0 -176.5 58t-69.5 147q0 150 156 246h-74v150q-48 -80 -126.5 -125t-172.5 -45q-173 0 -260 105q-86 107 -86 284v655h266v-625q0 -99 39.5 -151.5t112.5 -52.5h16q87 0 149 76.5t62 183.5v569h266v-1024h1q-164 -93 -164 -184q0 -49 29 -76
t73 -27z" />
    <glyph glyph-name="Wcircumflex" unicode="&#x174;" horiz-adv-x="1946" 
d="M1618 1434h287l-355 -1434h-358l-218 1043l-222 -1043h-359l-352 1434h285l255 -1135l226 1135h338l225 -1137zM1366 1526h-226l-163 118l-164 -118h-226l246 297h287z" />
    <glyph glyph-name="wcircumflex" unicode="&#x175;" horiz-adv-x="1620" 
d="M1325 1024h258l-293 -1024h-299l-181 716l-169 -716h-299l-313 1024h268l204 -760l167 760h284l179 -754zM1180 1126h-164l-205 148l-205 -148h-164l205 308h328z" />
    <glyph glyph-name="Ycircumflex" unicode="&#x176;" horiz-adv-x="1358" 
d="M1049 1434h303l-535 -861v-573h-276v573l-533 861h314l366 -603zM1076 1526h-226l-163 118l-164 -118h-226l246 297h287z" />
    <glyph glyph-name="ycircumflex" unicode="&#x177;" horiz-adv-x="1174" 
d="M1163 1024l-436 -933v-238q0 -131 -67.5 -199t-198.5 -68h-373v230h272q71 0 92 21t21 91v152l-446 944h299l276 -623l266 623h295zM967 1126h-164l-205 148l-205 -148h-164l205 308h328z" />
    <glyph glyph-name="Ydieresis" unicode="&#x178;" horiz-adv-x="1358" 
d="M1049 1434h303l-535 -861v-573h-276v573l-533 861h314l366 -603zM358 1567v245h256v-245h-256zM758 1567v245h256v-245h-256z" />
    <glyph glyph-name="Zacute" unicode="&#x179;" horiz-adv-x="1300" 
d="M82 0v236l795 952h-775v246h1096v-236l-795 -952h816v-246h-1137zM559 1526l82 297h318l-215 -297h-185z" />
    <glyph glyph-name="zacute" unicode="&#x17a;" horiz-adv-x="1042" 
d="M413 236h558v-236h-891v205l527 583h-517v236h850v-205zM432 1126l52 308h307l-205 -308h-154z" />
    <glyph glyph-name="Zdotaccent" unicode="&#x17b;" horiz-adv-x="1300" 
d="M82 0v236l795 952h-775v246h1096v-236l-795 -952h816v-246h-1137zM507 1567v276h287v-276h-287z" />
    <glyph glyph-name="zdotaccent" unicode="&#x17c;" horiz-adv-x="1042" 
d="M413 236h558v-236h-891v205l527 583h-517v236h850v-205zM372 1157v277h287v-277h-287z" />
    <glyph glyph-name="Zcaron" unicode="&#x17d;" horiz-adv-x="1300" 
d="M82 0v236l795 952h-775v246h1096v-236l-795 -952h816v-246h-1137zM815 1823h226l-246 -297h-287l-246 297h226l164 -119z" />
    <glyph glyph-name="zcaron" unicode="&#x17e;" horiz-adv-x="1042" 
d="M413 236h558v-236h-891v205l527 583h-517v236h850v-205zM721 1434h164l-205 -308h-328l-205 308h164l205 -148z" />
    <glyph glyph-name="florin" unicode="&#x192;" horiz-adv-x="924" 
d="M608 1055l-15 -97h238v-229h-273l-114 -749q-36 -213 -124 -300.5t-275 -89.5h-149v236h122q83 0 120 32.5t48 110.5l116 760h-200v229h235l13 86q33 212 120 301t267 89h152v-236h-123q-80 0 -112.5 -31t-45.5 -112z" />
    <glyph glyph-name="uni01E2" unicode="&#x1e2;" horiz-adv-x="2030" 
d="M-10 0l747 1434h1123v-246h-703l49 -330h592v-246h-561l53 -366h692v-246h-931l-50 338h-540l-170 -338h-301zM586 584h381l-84 587zM946 1567v225h687v-225h-687z" />
    <glyph glyph-name="uni01E3" unicode="&#x1e3;" horiz-adv-x="1747" 
d="M78 281q0 156 105 240q104 83 270 97l258 23v25q0 70 -46 116q-45 47 -120 47h-13q-70 0 -116 -36.5t-51 -85.5h-267q15 148 136 243t305 94q219 0 333 -114q131 114 324 114q219 2 344 -144t123 -376q0 -37 -4 -96h-692q9 -101 76 -167t155 -66h16q70 0 118 35.5
t63 93.5h264q-39 -157 -159 -250.5t-304 -93.5q-117 0 -218 50.5t-169 143.5q-51 -86 -153 -140q-100 -54 -222 -54q-156 0 -256 82.5t-100 218.5zM965 633h440q-4 89 -64.5 142.5t-146.5 53.5h-16q-91 0 -146 -50.5t-67 -145.5zM469 195h10q95 0 163.5 63.5t68.5 159.5v28
l-222 -22q-59 -5 -104 -36q-45 -32 -45 -89q0 -47 36 -75.5t93 -28.5zM561 1157v215h625v-215h-625z" />
    <glyph glyph-name="Aringacute" unicode="&#x1fa;" horiz-adv-x="1460" 
d="M1155 0l-129 338h-602l-129 -338h-291l567 1434h324l553 -1434h-293zM517 584h415l-208 544zM659 1901l33 180h256l-127 -180h-162zM550 1675q0 78 52.5 130.5t130.5 52.5q77 0 129.5 -52.5t52.5 -130.5q0 -77 -52.5 -129.5t-129.5 -52.5q-78 0 -130.5 52.5t-52.5 129.5z
M800 1675q0 28 -20 49t-47 21q-28 0 -49 -21t-21 -49t21 -48.5t49 -20.5t47.5 20.5t19.5 48.5z" />
    <glyph glyph-name="aringacute" unicode="&#x1fb;" horiz-adv-x="1098" 
d="M979 0h-250q-9 43 -12 125q-49 -68 -127.5 -106.5t-175.5 -38.5q-141 -2 -239.5 83.5t-96.5 217.5q0 156 105 240q104 83 270 97l258 23v25q0 70 -45.5 116.5t-118.5 46.5h-17q-69 0 -114.5 -36.5t-50.5 -85.5h-267q15 148 136 243t305 94q197 0 313.5 -97t116.5 -271
v-451q0 -156 10 -225zM711 418v29l-222 -23q-59 -5 -104 -36q-45 -32 -45 -89q0 -47 36 -75.5t91 -28.5h16q93 0 160.5 64t67.5 159zM471 1569l51 276h307l-196 -276h-162zM329 1300q-2 82 66 150t149 66q89 0 152.5 -65t63.5 -151q0 -91 -62 -153t-154 -62
q-86 0 -150.5 63.5t-64.5 151.5zM637 1300q0 38 -25.5 64.5t-62.5 26.5t-64 -26.5t-27 -64.5q0 -37 27 -63.5t64 -26.5t62.5 26.5t25.5 63.5z" />
    <glyph glyph-name="AEacute" unicode="&#x1fc;" horiz-adv-x="2030" 
d="M-10 0l747 1434h1123v-246h-703l49 -330h592v-246h-561l53 -366h692v-246h-931l-50 338h-540l-170 -338h-301zM586 584h381l-84 587zM1198 1526l82 297h318l-215 -297h-185z" />
    <glyph glyph-name="aeacute" unicode="&#x1fd;" horiz-adv-x="1747" 
d="M78 281q0 156 105 240q104 83 270 97l258 23v25q0 70 -46 116q-45 47 -120 47h-13q-70 0 -116 -36.5t-51 -85.5h-267q15 148 136 243t305 94q219 0 333 -114q131 114 324 114q219 2 344 -144t123 -376q0 -37 -4 -96h-692q9 -101 76 -167t155 -66h16q70 0 118 35.5
t63 93.5h264q-39 -157 -159 -250.5t-304 -93.5q-117 0 -218 50.5t-169 143.5q-51 -86 -153 -140q-100 -54 -222 -54q-156 0 -256 82.5t-100 218.5zM965 633h440q-4 89 -64.5 142.5t-146.5 53.5h-16q-91 0 -146 -50.5t-67 -145.5zM469 195h10q95 0 163.5 63.5t68.5 159.5v28
l-222 -22q-59 -5 -104 -36q-45 -32 -45 -89q0 -47 36 -75.5t93 -28.5zM790 1126l52 308h307l-205 -308h-154z" />
    <glyph glyph-name="Oslashacute" unicode="&#x1fe;" horiz-adv-x="1585" 
d="M1489 717q2 -167 -49.5 -306t-144 -234t-222 -147t-281.5 -50q-196 0 -345 79l-126 -159l-215 168l133 168q-143 193 -143 481q-2 222 87 391.5t247.5 258.5t361.5 87q195 0 346 -79l126 159l215 -168l-133 -168q143 -193 143 -481zM418 463l561 710q-81 35 -176 35h-21
q-191 0 -300 -130.5t-109 -360.5q0 -145 45 -254zM1212 717q0 145 -45 254l-561 -710q77 -36 176 -36h21q191 0 300 131t109 361zM692 1526l82 297h318l-215 -297h-185z" />
    <glyph glyph-name="oslashacute" unicode="&#x1ff;" horiz-adv-x="1190" 
d="M1108 512q3 -229 -142.5 -382t-369.5 -150q-129 0 -234 51l-102 -133l-172 143l101 132q-105 141 -105 339q-3 229 142.5 382t369.5 150q120 0 225 -47l99 129l182 -135l-104 -134q110 -142 110 -345zM363 400l319 416q-33 13 -78 13h-16q-109 0 -172.5 -84.5
t-63.5 -232.5q0 -57 11 -112zM840 512q0 65 -13 121l-326 -422q41 -16 87 -16h16q108 0 172 84.5t64 232.5zM505 1126l52 308h307l-205 -308h-154z" />
    <glyph glyph-name="uni0218" unicode="&#x218;" horiz-adv-x="1298" 
d="M59 481h277q8 -115 92 -185.5t236 -70.5h20q109 0 171.5 50t62.5 124q0 67 -36 103.5t-126 54.5l-256 53q-369 78 -369 414q-2 82 36 159.5t106 138.5t173 97t228 35q250 2 397.5 -130.5t145.5 -340.5h-277q-7 107 -78.5 166t-187.5 59h-21q-109 0 -177 -51t-68 -123
q0 -69 40 -106t134 -56l215 -43q397 -79 397 -409q2 -190 -148.5 -316t-402.5 -124q-281 0 -428 133t-156 368zM454 -635v154h48q54 0 82 21t28 59v2h-106v266h266v-266q0 -104 -72.5 -170t-187.5 -66h-58z" />
    <glyph glyph-name="uni0219" unicode="&#x219;" horiz-adv-x="1018" 
d="M66 338h272q0 -69 47.5 -111.5t124.5 -42.5h16q63 0 101.5 27.5t38.5 73.5q0 39 -26.5 63.5t-82.5 38.5l-133 33q-165 40 -241.5 113.5t-76.5 195.5q0 140 112 227.5t300 87.5q198 0 309 -93t111 -255h-266q-8 69 -47.5 106.5t-106.5 37.5h-16q-60 0 -96.5 -26t-36.5 -75
q0 -38 33.5 -63t101.5 -41l137 -35q148 -37 217.5 -110.5t69.5 -194.5q0 -138 -110.5 -226.5t-307.5 -88.5q-208 0 -326 95t-118 263zM319 -635v154h48q54 0 82 21t28 59v2h-106v266h266v-266q0 -104 -72.5 -170t-187.5 -66h-58z" />
    <glyph glyph-name="uni021A" unicode="&#x21a;" horiz-adv-x="1343" 
d="M532 0v1188h-495v246h1270v-246h-498v-1188h-277zM487 -635v154h48q54 0 82 21t28 59v2h-106v266h266v-266q0 -104 -72.5 -170t-187.5 -66h-58z" />
    <glyph glyph-name="uni021B" unicode="&#x21b;" horiz-adv-x="834" 
d="M246 266v543h-211v215h211v332h266v-332h229v-215h-229v-471q0 -70 21 -91.5t92 -21.5h147v-225h-260q-130 0 -198 68t-68 198zM258 -635v154h48q54 0 82 21t28 59v2h-106v266h266v-266q0 -104 -72.5 -170t-187.5 -66h-58z" />
    <glyph glyph-name="uni0226" unicode="&#x226;" horiz-adv-x="1460" 
d="M1155 0l-129 338h-602l-129 -338h-291l567 1434h324l553 -1434h-293zM517 584h415l-208 544zM589 1567v276h287v-276h-287z" />
    <glyph glyph-name="uni0227" unicode="&#x227;" horiz-adv-x="1098" 
d="M979 0h-250q-9 43 -12 125q-49 -68 -127.5 -106.5t-175.5 -38.5q-141 -2 -239.5 83.5t-96.5 217.5q0 156 105 240q104 83 270 97l258 23v25q0 70 -45.5 116.5t-118.5 46.5h-17q-69 0 -114.5 -36.5t-50.5 -85.5h-267q15 148 136 243t305 94q197 0 313.5 -97t116.5 -271
v-451q0 -156 10 -225zM711 418v29l-222 -23q-59 -5 -104 -36q-45 -32 -45 -89q0 -47 36 -75.5t91 -28.5h16q93 0 160.5 64t67.5 159zM405 1157v277h287v-277h-287z" />
    <glyph glyph-name="uni0232" unicode="&#x232;" horiz-adv-x="1358" 
d="M1049 1434h303l-535 -861v-573h-276v573l-533 861h314l366 -603zM342 1567v225h687v-225h-687z" />
    <glyph glyph-name="uni0233" unicode="&#x233;" horiz-adv-x="1174" 
d="M1163 1024l-436 -933v-238q0 -131 -67.5 -199t-198.5 -68h-373v230h272q71 0 92 21t21 91v152l-446 944h299l276 -623l266 623h295zM284 1157v215h625v-215h-625z" />
    <glyph glyph-name="uni0237" unicode="&#x237;" horiz-adv-x="557" 
d="M-168 -410v226h209q62 0 87.5 25.5t25.5 86.5v1096h266v-1178q0 -122 -66.5 -189t-189.5 -67h-332z" />
    <glyph glyph-name="uni02BC" unicode="&#x2bc;" horiz-adv-x="573" 
d="M104 830v153h74q63 0 95 36t32 98v20h-133v297h297v-328q2 -109 -81 -193.5t-200 -82.5h-84z" />
    <glyph glyph-name="circumflex" unicode="&#x2c6;" horiz-adv-x="860" 
d="M799 1126h-164l-205 148l-205 -148h-164l205 308h328z" />
    <glyph glyph-name="caron" unicode="&#x2c7;" horiz-adv-x="860" 
d="M635 1434h164l-205 -308h-328l-205 308h164l205 -148z" />
    <glyph glyph-name="breve" unicode="&#x2d8;" horiz-adv-x="819" 
d="M66 1434h229q3 -64 32 -99t83 -35t83.5 35.5t32.5 98.5h228q-3 -150 -93.5 -227t-250.5 -77t-250.5 77t-93.5 227z" />
    <glyph glyph-name="dotaccent" unicode="&#x2d9;" horiz-adv-x="410" 
d="M61 1157v277h287v-277h-287z" />
    <glyph glyph-name="ring" unicode="&#x2da;" horiz-adv-x="553" 
d="M61 1321q-2 82 66 149.5t149 65.5q89 0 152.5 -64.5t63.5 -150.5q0 -92 -62 -153.5t-154 -61.5q-86 0 -150.5 63t-64.5 152zM367 1321q0 37 -25.5 63.5t-62.5 26.5t-64 -26.5t-27 -63.5t27 -63.5t64 -26.5t62.5 26.5t25.5 63.5z" />
    <glyph glyph-name="ogonek" unicode="&#x2db;" horiz-adv-x="471" 
d="M61 -246q0 102 64 170q66 69 151 107l134 -31q-164 -93 -164 -184q0 -49 29 -76t73 -27h62v-164h-103q-107 0 -176.5 58t-69.5 147z" />
    <glyph glyph-name="tilde" unicode="&#x2dc;" horiz-adv-x="899" 
d="M449 1186l-37 20q-37 21 -51.5 27t-34.5 6q-27 0 -48.5 -24.5t-21.5 -57.5h-195v53q-2 93 67.5 164t162.5 70q47 0 78.5 -9t74.5 -32l37 -21l25 -13q47 -28 76 -28q26 0 43.5 23.5t17.5 58.5h195v-53q2 -92 -67.5 -163.5t-158.5 -69.5q-72 0 -163 49z" />
    <glyph glyph-name="hungarumlaut" unicode="&#x2dd;" horiz-adv-x="807" 
d="M20 1126l52 308h307l-205 -308h-154zM346 1126l52 308h307l-205 -308h-154z" />
    <glyph glyph-name="gravecomb" unicode="&#x300;" horiz-adv-x="0" 
d="M-215 1126l-205 308h308l51 -308h-154z" />
    <glyph glyph-name="acutecomb" unicode="&#x301;" horiz-adv-x="0" 
d="M-420 1126l52 308h307l-205 -308h-154z" />
    <glyph glyph-name="uni0302" unicode="&#x302;" horiz-adv-x="0" 
d="M-61 1126h-164l-205 148l-205 -148h-164l205 308h328z" />
    <glyph glyph-name="tildecomb" unicode="&#x303;" horiz-adv-x="0" 
d="M-450 1186l-37 20q-37 21 -51.5 27t-34.5 6q-27 0 -48.5 -24.5t-21.5 -57.5h-195v53q-2 93 67.5 164t162.5 70q47 0 78.5 -9t74.5 -32l37 -21l25 -13q47 -28 76 -28q26 0 43.5 23.5t17.5 58.5h195v-53q2 -92 -67.5 -163.5t-158.5 -69.5q-72 0 -163 49z" />
    <glyph glyph-name="uni0304" unicode="&#x304;" horiz-adv-x="0" 
d="M-687 1157v215h625v-215h-625z" />
    <glyph glyph-name="uni0306" unicode="&#x306;" horiz-adv-x="0" 
d="M-753 1434h229q3 -64 32 -99t83 -35t83.5 35.5t32.5 98.5h228q-3 -150 -93.5 -227t-250.5 -77t-250.5 77t-93.5 227z" />
    <glyph glyph-name="uni0307" unicode="&#x307;" horiz-adv-x="0" 
d="M-349 1157v277h287v-277h-287z" />
    <glyph glyph-name="uni0308" unicode="&#x308;" horiz-adv-x="0" 
d="M-717 1157v266h246v-266h-246zM-307 1157v266h246v-266h-246z" />
    <glyph glyph-name="uni030A" unicode="&#x30a;" horiz-adv-x="0" 
d="M-492 1321q-2 82 66 149.5t149 65.5q89 0 152.5 -64.5t63.5 -150.5q0 -92 -62 -153.5t-154 -61.5q-86 0 -150.5 63t-64.5 152zM-186 1321q0 37 -25.5 63.5t-62.5 26.5t-64 -26.5t-27 -63.5t27 -63.5t64 -26.5t62.5 26.5t25.5 63.5z" />
    <glyph glyph-name="uni030B" unicode="&#x30b;" horiz-adv-x="0" 
d="M-787 1126l52 308h307l-205 -308h-154zM-461 1126l52 308h307l-205 -308h-154z" />
    <glyph glyph-name="uni030C" unicode="&#x30c;" horiz-adv-x="0" 
d="M-225 1434h164l-205 -308h-328l-205 308h164l205 -148z" />
    <glyph glyph-name="uni0312" unicode="&#x312;" horiz-adv-x="0" 
d="M-71 1669v-154h-48q-54 0 -82 -21t-28 -59v-2h106v-266h-266v266q0 104 72.5 170t187.5 66h58z" />
    <glyph glyph-name="dotbelowcomb" unicode="&#x323;" horiz-adv-x="0" 
d="M-328 -399v266h267v-266h-267z" />
    <glyph glyph-name="uni0326" unicode="&#x326;" horiz-adv-x="0" 
d="M-379 -635v154h48q54 0 82 21t28 59v2h-106v266h266v-266q0 -104 -72.5 -170t-187.5 -66h-58z" />
    <glyph glyph-name="uni0327" unicode="&#x327;" horiz-adv-x="0" 
d="M-471 -502v154h175q81 0 81 61q0 28 -18 45t-53 17h-113v256h143v-123q84 0 139.5 -51t55.5 -144q0 -98 -68 -156.5t-178 -58.5h-164z" />
    <glyph glyph-name="uni0328" unicode="&#x328;" horiz-adv-x="0" 
d="M-410 -246q0 102 64 170q66 69 151 107l134 -31q-164 -93 -164 -184q0 -49 29 -76t73 -27h62v-164h-103q-107 0 -176.5 58t-69.5 147z" />
    <glyph glyph-name="uni0335" unicode="&#x335;" horiz-adv-x="0" 
d="M-1035 662v235h973v-235h-973z" />
    <glyph glyph-name="uni0336" unicode="&#x336;" horiz-adv-x="0" 
d="M-1485 1008v235h1424v-235h-1424z" />
    <glyph glyph-name="uni0337" unicode="&#x337;" horiz-adv-x="0" 
d="M-656 528v246l594 336v-246z" />
    <glyph glyph-name="uni0338" unicode="&#x338;" horiz-adv-x="0" 
d="M-1219 -100l-215 168l1158 1466l215 -168z" />
    <glyph glyph-name="uni037E" unicode="&#x37e;" horiz-adv-x="594" 
d="M88 -307v153h74q63 0 95 36t32 98v20h-133v297h297v-328q2 -109 -81 -193.5t-200 -82.5h-84zM156 727v297h297v-297h-297z" />
    <glyph glyph-name="tonos" unicode="&#x384;" horiz-adv-x="1014" 
d="M360 1126l52 308h307l-205 -308h-154z" />
    <glyph glyph-name="dieresistonos" unicode="&#x385;" horiz-adv-x="971" 
d="M373 1126l18 308h279l-144 -308h-153zM74 1126v240h221v-240h-221zM688 1126v240h221v-240h-221z" />
    <glyph glyph-name="Alphatonos" unicode="&#x386;" horiz-adv-x="1507" 
d="M1202 0l-129 338h-602l-129 -338h-291l567 1434h324l553 -1434h-293zM564 584h415l-208 544zM108 1126l52 308h307l-205 -308h-154z" />
    <glyph glyph-name="anoteleia" unicode="&#x387;" horiz-adv-x="520" 
d="M126 594v267h268v-267h-268z" />
    <glyph glyph-name="Epsilontonos" unicode="&#x388;" horiz-adv-x="1608" 
d="M422 0v1434h1085v-246h-809v-330h686v-246h-686v-366h830v-246h-1106zM8 1126l52 308h307l-205 -308h-154z" />
    <glyph glyph-name="Etatonos" unicode="&#x389;" horiz-adv-x="1767" 
d="M422 0v1434h276v-594h625v594h277v-1434h-277v594h-625v-594h-276zM8 1126l52 308h307l-205 -308h-154z" />
    <glyph glyph-name="Iotatonos" unicode="&#x38a;" horiz-adv-x="866" 
d="M422 0v1434h276v-1434h-276zM8 1126l52 308h307l-205 -308h-154z" />
    <glyph glyph-name="Omicrontonos" unicode="&#x38c;" horiz-adv-x="1729" 
d="M248 717q-2 222 87 391.5t247.5 258.5t361.5 87q152 2 281.5 -50t222 -147t144 -234t49.5 -306q2 -167 -49.5 -306t-144 -234t-222 -147t-281.5 -50q-203 -2 -361.5 87t-247.5 258.5t-87 391.5zM934 225h21q191 0 300 131t109 361t-109 360.5t-300 130.5h-21
q-191 0 -300 -130.5t-109 -360.5t109 -361t300 -131zM16 1126l52 308h307l-205 -308h-154z" />
    <glyph glyph-name="Upsilontonos" unicode="&#x38e;" horiz-adv-x="1800" 
d="M1491 1434h303l-535 -861v-573h-276v573l-533 861h314l366 -603zM53 1126l52 308h307l-205 -308h-154z" />
    <glyph glyph-name="Omegatonos" unicode="&#x38f;" horiz-adv-x="1763" 
d="M266 0v246h244q-114 88 -184 218q-70 131 -70 298q0 192 87 350q88 159 245 250q160 92 364 92q205 0 363 -92q158 -91 246 -250q87 -158 87 -350q0 -165 -71 -298q-71 -131 -183 -218h244v-246h-563v236q133 84 214 212q83 131 83 289q2 211 -111.5 342t-298.5 129h-20
q-185 2 -298.5 -129t-111.5 -342q0 -158 83 -289q81 -128 214 -212v-236h-563zM24 1126l52 308h307l-205 -308h-154z" />
    <glyph glyph-name="iotadieresistonos" unicode="&#x390;" horiz-adv-x="598" 
d="M131 266v758h266v-686q0 -70 21.5 -91.5t91.5 -21.5h20v-225h-133q-130 0 -198 68t-68 198zM187 1126l18 308h279l-144 -308h-153zM-112 1126v240h221v-240h-221zM502 1126v240h221v-240h-221z" />
    <glyph glyph-name="Alpha" unicode="&#x391;" horiz-adv-x="1460" 
d="M1155 0l-129 338h-602l-129 -338h-291l567 1434h324l553 -1434h-293zM517 584h415l-208 544z" />
    <glyph glyph-name="Beta" unicode="&#x392;" horiz-adv-x="1366" 
d="M168 0v1434h635q196 2 319 -106t121 -265q0 -128 -67 -216q-66 -89 -175 -120q120 -25 196.5 -117t76.5 -229q2 -161 -127.5 -272.5t-323.5 -108.5h-655zM444 846h318q100 0 152.5 44t52.5 128t-52.5 127t-152.5 43h-318v-342zM444 246h338q103 0 159 46.5t56 135.5
t-56 134.5t-159 45.5h-338v-362z" />
    <glyph glyph-name="Gamma" unicode="&#x393;" horiz-adv-x="1206" 
d="M168 0v1434h1014v-246h-738v-1188h-276z" />
    <glyph glyph-name="uni0394" unicode="&#x394;" horiz-adv-x="1464" 
d="M899 1434l528 -1317v-117h-1392v117l540 1317h324zM730 1140l-367 -894h725z" />
    <glyph glyph-name="Epsilon" unicode="&#x395;" horiz-adv-x="1354" 
d="M168 0v1434h1085v-246h-809v-330h686v-246h-686v-366h830v-246h-1106z" />
    <glyph glyph-name="Zeta" unicode="&#x396;" horiz-adv-x="1300" 
d="M82 0v236l795 952h-775v246h1096v-236l-795 -952h816v-246h-1137z" />
    <glyph glyph-name="Eta" unicode="&#x397;" horiz-adv-x="1513" 
d="M168 0v1434h276v-594h625v594h277v-1434h-277v594h-625v-594h-276z" />
    <glyph glyph-name="Theta" unicode="&#x398;" horiz-adv-x="1569" 
d="M88 717q-2 222 87 391.5t247.5 258.5t361.5 87q152 2 281.5 -50t222 -147t144 -234t49.5 -306q2 -167 -49.5 -306t-144 -234t-222 -147t-281.5 -50q-203 -2 -361.5 87t-247.5 258.5t-87 391.5zM774 225h21q191 0 300 131t109 361t-109 360.5t-300 130.5h-21
q-191 0 -300 -130.5t-109 -360.5t109 -361t300 -131zM518 612v246h533v-246h-533z" />
    <glyph glyph-name="Iota" unicode="&#x399;" horiz-adv-x="612" 
d="M168 0v1434h276v-1434h-276z" />
    <glyph glyph-name="Kappa" unicode="&#x39a;" horiz-adv-x="1405" 
d="M1065 0l-432 631l-189 -199v-432h-276v1434h276v-644l609 644h342l-565 -595l577 -839h-342z" />
    <glyph glyph-name="Lambda" unicode="&#x39b;" horiz-adv-x="1464" 
d="M1452 0h-309l-421 1138l-417 -1138h-297l545 1434h350z" />
    <glyph glyph-name="Mu" unicode="&#x39c;" horiz-adv-x="1903" 
d="M1307 1434h428v-1434h-271v1128l-356 -1128h-303l-367 1132v-1132h-270v1434h430l360 -1125z" />
    <glyph glyph-name="Nu" unicode="&#x39d;" horiz-adv-x="1534" 
d="M1090 1434h276v-1434h-358l-564 1056v-1056h-276v1434h358l564 -1051v1051z" />
    <glyph glyph-name="Xi" unicode="&#x39e;" horiz-adv-x="1341" 
d="M111 1178v256h1120v-256h-1120zM211 612v246h919v-246h-919zM90 0v256h1161v-256h-1161z" />
    <glyph glyph-name="Omicron" unicode="&#x39f;" horiz-adv-x="1569" 
d="M88 717q-2 222 87 391.5t247.5 258.5t361.5 87q152 2 281.5 -50t222 -147t144 -234t49.5 -306q2 -167 -49.5 -306t-144 -234t-222 -147t-281.5 -50q-203 -2 -361.5 87t-247.5 258.5t-87 391.5zM774 225h21q191 0 300 131t109 361t-109 360.5t-300 130.5h-21
q-191 0 -300 -130.5t-109 -360.5t109 -361t300 -131z" />
    <glyph glyph-name="Pi" unicode="&#x3a0;" horiz-adv-x="1505" 
d="M168 0v1434h1169v-1434h-276v1188h-617v-1188h-276z" />
    <glyph glyph-name="Rho" unicode="&#x3a1;" horiz-adv-x="1335" 
d="M168 0v1434h645q211 0 336 -120t125 -331t-125 -332t-336 -121h-369v-530h-276zM444 776h338q104 0 159.5 55t55.5 152q0 96 -55.5 150.5t-159.5 54.5h-338v-412z" />
    <glyph glyph-name="Sigma" unicode="&#x3a3;" horiz-adv-x="1298" 
d="M427 246h792v-246h-1137v236l448 507l-432 455v236h1100v-246h-730l413 -430z" />
    <glyph glyph-name="Tau" unicode="&#x3a4;" horiz-adv-x="1343" 
d="M532 0v1188h-495v246h1270v-246h-498v-1188h-277z" />
    <glyph glyph-name="Upsilon" unicode="&#x3a5;" horiz-adv-x="1358" 
d="M1049 1434h303l-535 -861v-573h-276v573l-533 861h314l366 -603z" />
    <glyph glyph-name="Phi" unicode="&#x3a6;" horiz-adv-x="1759" 
d="M743 -49v145q-110 1 -208 26t-182 75.5t-145 122.5t-95 174t-33 223q-1 151 51 270.5t144 194t211 114t257 41.5v146h273v-146q109 -1 207.5 -26t182.5 -75.5t145 -122.5t95 -173.5t33 -222.5q1 -121 -33 -223t-95 -174t-145 -122.5t-182.5 -75.5t-207.5 -26v-145h-273z
M743 330v774q-101 -1 -189.5 -48.5t-143 -137t-52.5 -201.5q-3 -169 112.5 -277.5t272.5 -109.5zM1401 717q2 112 -52.5 202t-142.5 137t-190 48v-774q102 1 190 47.5t142.5 136.5t52.5 203z" />
    <glyph glyph-name="Chi" unicode="&#x3a7;" horiz-adv-x="1315" 
d="M1313 0h-326l-334 503l-340 -503h-311l496 735l-465 699h325l304 -457l309 457h311l-465 -689z" />
    <glyph glyph-name="Psi" unicode="&#x3a8;" horiz-adv-x="1690" 
d="M1311 1434h276v-596q0 -241 -161.5 -383t-442.5 -146v-309h-276v309q-280 3 -443.5 146.5t-161.5 382.5v596h277v-555q0 -156 91 -238.5t237 -85.5v879h276v-879q146 3 237 85.5t91 238.5v555z" />
    <glyph glyph-name="uni03A9" unicode="&#x3a9;" horiz-adv-x="1622" 
d="M125 0v246h244q-114 88 -184 218q-70 131 -70 298q0 192 87 350q88 159 245 250q160 92 364 92q205 0 363 -92q158 -91 246 -250q87 -158 87 -350q0 -165 -71 -298q-71 -131 -183 -218h244v-246h-563v236q133 84 214 212q83 131 83 289q2 211 -111.5 342t-298.5 129h-20
q-185 2 -298.5 -129t-111.5 -342q0 -158 83 -289q81 -128 214 -212v-236h-563z" />
    <glyph glyph-name="Iotadieresis" unicode="&#x3aa;" horiz-adv-x="612" 
d="M168 0v1434h276v-1434h-276zM-21 1567v245h256v-245h-256zM379 1567v245h256v-245h-256z" />
    <glyph glyph-name="Upsilondieresis" unicode="&#x3ab;" horiz-adv-x="1358" 
d="M1049 1434h303l-535 -861v-573h-276v573l-533 861h314l366 -603zM358 1567v245h256v-245h-256zM758 1567v245h256v-245h-256z" />
    <glyph glyph-name="alphatonos" unicode="&#x3ac;" horiz-adv-x="1286" 
d="M80 512q-1 125 35 228t97.5 169t141 101t166.5 34q110 0 191 -45.5t116 -117.5v143h267v-686q0 -70 21 -91.5t91 -21.5h21v-225h-119q-109 0 -169 38.5t-77 121.5q-129 -180 -342 -180q-64 -1 -127.5 21t-120 67t-100.5 107.5t-68.5 150t-23.5 186.5zM578 195h16
q99 0 166 87t67 230t-67 230t-166 87h-16q-96 0 -164 -91t-68 -224q-1 -133 68 -227t164 -92zM540 1126l52 308h307l-205 -308h-154z" />
    <glyph glyph-name="epsilontonos" unicode="&#x3ad;" horiz-adv-x="1098" 
d="M772 342h264q-35 -362 -485 -362q-234 0 -353.5 83t-119.5 224q0 78 45.5 143t128.5 94q-70 30 -109 83t-39 124q-2 128 121.5 221.5t321.5 91.5q201 2 334.5 -99.5t144.5 -258.5h-264q-6 65 -59.5 104t-135.5 39h-16q-81 0 -130.5 -32t-49.5 -80q0 -45 39 -72t114 -27
h127v-206h-157q-150 0 -150 -105q0 -51 50.5 -81.5t150.5 -30.5h16q93 0 147.5 37.5t63.5 109.5zM462 1126l52 308h307l-205 -308h-154z" />
    <glyph glyph-name="etatonos" unicode="&#x3ae;" horiz-adv-x="1247" 
d="M854 -410v1035q0 99 -42 151.5t-120 52.5h-16q-89 2 -156 -76.5t-65 -183.5v-569h-267v678q0 74 -22.5 102.5t-89.5 28.5h-21v215h138q95 0 150 -37t75 -113q49 76 142 123q92 47 204 47q179 0 267 -106q89 -106 89 -283v-1065h-266zM548 1126l52 308h307l-205 -308h-154
z" />
    <glyph glyph-name="iotatonos" unicode="&#x3af;" horiz-adv-x="598" 
d="M131 266v758h266v-686q0 -70 21.5 -91.5t91.5 -21.5h20v-225h-133q-130 0 -198 68t-68 198zM190 1126l52 308h307l-205 -308h-154z" />
    <glyph glyph-name="upsilondieresistonos" unicode="&#x3b0;" horiz-adv-x="1159" 
d="M125 430v594h266v-590q0 -115 46.5 -177t131.5 -62h21q85 0 131.5 62t46.5 177v590h266v-594q0 -209 -115 -329.5t-339 -120.5q-226 0 -340.5 120.5t-114.5 329.5zM484 1126l18 308h279l-144 -308h-153zM185 1126v240h221v-240h-221zM799 1126v240h221v-240h-221z" />
    <glyph glyph-name="alpha" unicode="&#x3b1;" horiz-adv-x="1286" 
d="M80 512q-1 125 35 228t97.5 169t141 101t166.5 34q110 0 191 -45.5t116 -117.5v143h267v-686q0 -70 21 -91.5t91 -21.5h21v-225h-119q-109 0 -169 38.5t-77 121.5q-129 -180 -342 -180q-64 -1 -127.5 21t-120 67t-100.5 107.5t-68.5 150t-23.5 186.5zM578 195h16
q99 0 166 87t67 230t-67 230t-166 87h-16q-96 0 -164 -91t-68 -224q-1 -133 68 -227t164 -92z" />
    <glyph glyph-name="beta" unicode="&#x3b2;" horiz-adv-x="1202" 
d="M1126 406q3 -186 -126.5 -307t-321.5 -119q-165 0 -275 79v-469h-266v1387q-1 102 28.5 188t87 151.5t150.5 102t213 35.5q202 1 322.5 -103.5t118.5 -267.5q0 -115 -64 -195q-65 -80 -166 -114q128 -16 214.5 -125.5t84.5 -242.5zM860 426q0 104 -72 168.5t-182 64.5
h-59v215h37q92 0 154 48q63 50 63 145q0 77 -48.5 124.5t-129.5 47.5h-13q-91 0 -149 -66t-58 -184v-686q123 -108 236 -108h14q93 0 150 63t57 168z" />
    <glyph glyph-name="gamma" unicode="&#x3b3;" horiz-adv-x="1141" 
d="M850 1024h274l-415 -1067v-367h-267v372l-434 1062h283l288 -733z" />
    <glyph glyph-name="delta" unicode="&#x3b4;" horiz-adv-x="1180" 
d="M1102 508q1 -146 -62 -267t-182.5 -192t-271.5 -69q-219 -4 -365 151.5t-143 376.5q0 201 105 329.5t300 152.5l-286 239v205h831v-222h-453l295 -243q115 -96 174 -203q58 -106 58 -258zM836 508q0 96 -33 168.5t-106 135.5q-45 3 -89 3q-137 0 -200.5 -77.5
t-63.5 -229.5q0 -136 59.5 -224.5t178.5 -88.5h10q122 0 183 88t61 225z" />
    <glyph glyph-name="epsilon" unicode="&#x3b5;" horiz-adv-x="1098" 
d="M772 342h264q-35 -362 -485 -362q-234 0 -353.5 83t-119.5 224q0 78 45.5 143t128.5 94q-70 30 -109 83t-39 124q-2 128 121.5 221.5t321.5 91.5q201 2 334.5 -99.5t144.5 -258.5h-264q-6 65 -59.5 104t-135.5 39h-16q-81 0 -130.5 -32t-49.5 -80q0 -45 39 -72t114 -27
h127v-206h-157q-150 0 -150 -105q0 -51 50.5 -81.5t150.5 -30.5h16q93 0 147.5 37.5t63.5 109.5z" />
    <glyph glyph-name="zeta" unicode="&#x3b6;" horiz-adv-x="979" 
d="M965 1229l-312 -332q-102 -109 -163 -182q-150 -182 -150 -309q0 -73 58.5 -116.5t170.5 -43.5h78q156 0 230.5 -70t74.5 -219q0 -57 -14 -133q-13 -72 -33 -133h-221q13 51 24 115t11 102q0 53 -28 72.5t-97 19.5h-37q-245 0 -364 102t-119 273q0 106 41 205
q40 95 112 186t189 201l236 221h-496v246h809v-205z" />
    <glyph glyph-name="eta" unicode="&#x3b7;" horiz-adv-x="1247" 
d="M854 -410v1035q0 99 -42 151.5t-120 52.5h-16q-89 2 -156 -76.5t-65 -183.5v-569h-267v678q0 74 -22.5 102.5t-89.5 28.5h-21v215h138q95 0 150 -37t75 -113q49 76 142 123q92 47 204 47q179 0 267 -106q89 -106 89 -283v-1065h-266z" />
    <glyph glyph-name="theta" unicode="&#x3b8;" horiz-adv-x="1176" 
d="M1079 717q0 -351 -130 -544t-361 -193t-361.5 193.5t-130.5 543.5t130.5 543.5t361.5 193.5t361 -193t130 -544zM363 848h449q-15 191 -73 291t-143 100h-16q-85 0 -143.5 -100.5t-73.5 -290.5zM815 633h-455q10 -214 69.5 -326t150.5 -112h16q90 0 149.5 112t69.5 326z
" />
    <glyph glyph-name="iota" unicode="&#x3b9;" horiz-adv-x="598" 
d="M131 266v758h266v-686q0 -70 21.5 -91.5t91.5 -21.5h20v-225h-133q-130 0 -198 68t-68 198z" />
    <glyph glyph-name="kappa" unicode="&#x3ba;" horiz-adv-x="1137" 
d="M807 0l-286 427l-118 -122v-305h-266v1024h266v-382l250 257q79 78 126 100.5t139 24.5h139v-225h-117q-39 0 -63 -13t-58 -49l-114 -118l415 -619h-313z" />
    <glyph glyph-name="lambda" unicode="&#x3bb;" horiz-adv-x="1169" 
d="M1120 225h19v-225h-133q-94 0 -144 42.5t-90 143.5l-184 452l-283 -638h-299l453 958l-72 177q-19 47 -43 66q-22 18 -74 18h-120v215h217q89 0 140.5 -35.5t84.5 -114.5l407 -967q24 -56 47 -74t74 -18z" />
    <glyph glyph-name="uni03BC" unicode="&#x3bc;" horiz-adv-x="1241" 
d="M1161 225h21v-225h-133q-205 0 -236 159q-47 -90 -116.5 -134.5t-151.5 -44.5q-96 0 -142 63v-453h-266v1434h266v-625q0 -99 39.5 -151.5t112.5 -52.5h16q87 0 149 76.5t62 183.5v569h267v-686q0 -70 21 -91.5t91 -21.5z" />
    <glyph glyph-name="nu" unicode="&#x3bd;" horiz-adv-x="1145" 
d="M846 1024h274l-354 -1024h-387l-354 1024h282l270 -828z" />
    <glyph glyph-name="xi" unicode="&#x3be;" horiz-adv-x="975" 
d="M721 -92q0 53 -27.5 72.5t-93.5 19.5h-35q-220 -2 -356.5 108t-134.5 279q-1 79 28.5 144.5t78.5 107t104.5 66.5t111.5 32q-109 35 -171 102t-62 160q0 85 56.5 145.5t121.5 74.5h-211v215h782v-215h-211q-106 1 -190 -56.5t-82 -152.5q0 -74 56.5 -121t150.5 -47h176
v-215h-166q-124 2 -216.5 -56t-90.5 -153q0 -95 63 -149t189 -54h51q157 0 234 -63t77 -195q0 -57 -14 -133q-13 -72 -33 -133h-221q13 51 24 115t11 102z" />
    <glyph glyph-name="omicron" unicode="&#x3bf;" horiz-adv-x="1180" 
d="M78 512q-3 229 142.5 382t369.5 150q224 3 369.5 -150t142.5 -382q3 -229 -142.5 -382t-369.5 -150q-224 -3 -369.5 150t-142.5 382zM582 195h16q108 0 172 84.5t64 232.5t-64 232.5t-172 84.5h-16q-109 0 -172.5 -84.5t-63.5 -232.5t63.5 -232.5t172.5 -84.5z" />
    <glyph glyph-name="pi" unicode="&#x3c0;" horiz-adv-x="1262" 
d="M203 0v809h-133v215h1095v-215h-133v-471q0 -70 21.5 -91.5t91.5 -21.5h20v-225h-133q-130 0 -198 68t-68 198v543h-297v-809h-266z" />
    <glyph glyph-name="rho" unicode="&#x3c1;" horiz-adv-x="1210" 
d="M117 -410v912q-2 241 141 393t383 149q113 2 207.5 -41.5t156 -117.5t95.5 -171t33 -202q1 -105 -30 -202t-88 -171t-145 -117.5t-192 -41.5q-97 0 -178 46t-117 107v-543h-266zM616 195h17q102 0 167.5 87t65.5 230t-65.5 230t-167.5 87h-17q-95 2 -165 -89t-68 -228
q-2 -137 68 -228t165 -89z" />
    <glyph glyph-name="sigma1" unicode="&#x3c2;" horiz-adv-x="1085" 
d="M764 -92q0 53 -28 72.5t-97 19.5h-88q-223 0 -347 134t-124 378q-1 117 37 218t104 170t157 107t193 37q207 0 326.5 -96t134.5 -282h-266q-12 78 -59.5 120.5t-126.5 42.5h-17q-107 0 -163 -89q-54 -88 -54 -228t55 -218.5t162 -78.5h109q325 0 325 -258q0 -57 -14 -133
q-13 -72 -33 -133h-221q13 51 24 115t11 102z" />
    <glyph glyph-name="sigma" unicode="&#x3c3;" horiz-adv-x="1235" 
d="M78 512q-2 228 138 371t366 141h602v-215h-246q76 -39 119 -123.5t43 -200.5q1 -102 -36 -195t-103.5 -162t-163 -109.5t-207.5 -38.5q-220 -3 -367.5 148.5t-144.5 383.5zM582 195h16q115 0 175 84q61 85 61 223q0 141 -64.5 229t-171.5 88h-16q-112 0 -175 -77.5
t-63 -229.5q0 -148 64.5 -232.5t173.5 -84.5z" />
    <glyph glyph-name="tau" unicode="&#x3c4;" horiz-adv-x="967" 
d="M322 266v543h-293v215h870v-215h-311v-471q0 -70 21 -91.5t91 -21.5h148v-225h-260q-130 0 -198 68t-68 198z" />
    <glyph glyph-name="upsilon" unicode="&#x3c5;" horiz-adv-x="1159" 
d="M125 430v594h266v-590q0 -115 46.5 -177t131.5 -62h21q85 0 131.5 62t46.5 177v590h266v-594q0 -209 -115 -329.5t-339 -120.5q-226 0 -340.5 120.5t-114.5 329.5z" />
    <glyph glyph-name="phi" unicode="&#x3c6;" horiz-adv-x="1552" 
d="M909 -16v-396h-266v396q-271 16 -418 156t-147 388q-1 105 34.5 197t97.5 157.5t144 108.5t174 56v-232q-80 -24 -133 -101q-51 -76 -51 -186q0 -306 299 -329v565q0 280 307 280q236 2 381.5 -140t143.5 -372q0 -248 -147.5 -389.5t-418.5 -158.5zM1208 532
q0 123 -61.5 210t-147.5 87q-90 0 -90 -102v-528q299 24 299 333z" />
    <glyph glyph-name="chi" unicode="&#x3c7;" horiz-adv-x="1071" 
d="M-10 -410l411 740l-206 381q-33 62 -56.5 80t-75.5 18h-47v215h113q76 0 124 -17q47 -17 73 -47q28 -31 57 -88l160 -294l243 446h277l-381 -688l238 -428q27 -49 53.5 -70.5t62.5 -21.5h41v-226h-90q-110 1 -163 35t-97 113l-188 348l-273 -496h-276z" />
    <glyph glyph-name="psi" unicode="&#x3c8;" horiz-adv-x="1618" 
d="M1233 1024h266v-510q0 -258 -134 -387.5t-423 -142.5v-394h-266v394q-289 13 -423 142.5t-134 387.5v510h266v-483q0 -157 63.5 -242t227.5 -101v1113h266v-1113q164 16 227.5 101t63.5 242v483z" />
    <glyph glyph-name="omega" unicode="&#x3c9;" horiz-adv-x="1556" 
d="M80 487q-2 225 122 379.5t339 177.5v-231q-101 -26 -148 -105t-47 -216q0 -163 43 -230t123 -67q133 0 133 202v269h266v-269q0 -202 133 -202q79 0 122 67q44 68 44 230q0 137 -47 216t-147 105v231q215 -23 339 -177.5t122 -379.5q2 -229 -115 -369.5t-291 -137.5
q-97 0 -177 45q-78 44 -116 120q-38 -75 -117 -120t-176 -45q-174 -3 -290.5 137.5t-114.5 369.5z" />
    <glyph glyph-name="iotadieresis" unicode="&#x3ca;" horiz-adv-x="598" 
d="M131 266v758h266v-686q0 -70 21.5 -91.5t91.5 -21.5h20v-225h-133q-130 0 -198 68t-68 198zM-64 1157v266h246v-266h-246zM346 1157v266h246v-266h-246z" />
    <glyph glyph-name="upsilondieresis" unicode="&#x3cb;" horiz-adv-x="1159" 
d="M125 430v594h266v-590q0 -115 46.5 -177t131.5 -62h21q85 0 131.5 62t46.5 177v590h266v-594q0 -209 -115 -329.5t-339 -120.5q-226 0 -340.5 120.5t-114.5 329.5zM254 1157v266h246v-266h-246zM664 1157v266h246v-266h-246z" />
    <glyph glyph-name="omicrontonos" unicode="&#x3cc;" horiz-adv-x="1180" 
d="M78 512q-3 229 142.5 382t369.5 150q224 3 369.5 -150t142.5 -382q3 -229 -142.5 -382t-369.5 -150q-224 -3 -369.5 150t-142.5 382zM582 195h16q108 0 172 84.5t64 232.5t-64 232.5t-172 84.5h-16q-109 0 -172.5 -84.5t-63.5 -232.5t63.5 -232.5t172.5 -84.5zM505 1126
l52 308h307l-205 -308h-154z" />
    <glyph glyph-name="upsilontonos" unicode="&#x3cd;" horiz-adv-x="1159" 
d="M125 430v594h266v-590q0 -115 46.5 -177t131.5 -62h21q85 0 131.5 62t46.5 177v590h266v-594q0 -209 -115 -329.5t-339 -120.5q-226 0 -340.5 120.5t-114.5 329.5zM501 1126l52 308h307l-205 -308h-154z" />
    <glyph glyph-name="omegatonos" unicode="&#x3ce;" horiz-adv-x="1556" 
d="M80 487q-2 225 122 379.5t339 177.5v-231q-101 -26 -148 -105t-47 -216q0 -163 43 -230t123 -67q133 0 133 202v269h266v-269q0 -202 133 -202q79 0 122 67q44 68 44 230q0 137 -47 216t-147 105v231q215 -23 339 -177.5t122 -379.5q2 -229 -115 -369.5t-291 -137.5
q-97 0 -177 45q-78 44 -116 120q-38 -75 -117 -120t-176 -45q-174 -3 -290.5 137.5t-114.5 369.5zM698 1126l52 308h307l-205 -308h-154z" />
    <glyph glyph-name="uni0401" unicode="&#x401;" horiz-adv-x="1354" 
d="M168 0v1434h1085v-246h-809v-330h686v-246h-686v-366h830v-246h-1106zM405 1567v245h256v-245h-256zM805 1567v245h256v-245h-256z" />
    <glyph glyph-name="uni0402" unicode="&#x402;" horiz-adv-x="1731" 
d="M514 0v1188h-475v246h1274v-246h-522v-309h438q195 0 307.5 -102.5t112.5 -274.5v-82q0 -420 -406 -420h-106v240h86q71 0 111 45.5t40 138.5v20q0 95 -47 142t-147 47h-389v-633h-277z" />
    <glyph glyph-name="uni0403" unicode="&#x403;" horiz-adv-x="1067" 
d="M168 0l2 1434h872v-246h-598v-1188h-276zM524 1526l82 297h318l-215 -297h-185z" />
    <glyph glyph-name="uni0404" unicode="&#x404;" horiz-adv-x="1448" 
d="M1102 471h276q-14 -220 -173.5 -356.5t-428.5 -134.5q-212 -2 -369 90.5t-237.5 259.5t-79.5 387q-1 220 79.5 387t237.5 259.5t369 90.5q134 1 246 -37t187 -105t119 -156.5t50 -192.5h-276q-23 117 -105 181t-211 64h-20q-151 0 -256 -97t-133 -267h604v-246h-605
q27 -174 131.5 -273.5t258.5 -99.5h20q131 0 212 63t104 183z" />
    <glyph glyph-name="uni0405" unicode="&#x405;" horiz-adv-x="1298" 
d="M59 481h277q8 -115 92 -185.5t236 -70.5h20q109 0 171.5 50t62.5 124q0 67 -36 103.5t-126 54.5l-256 53q-369 78 -369 414q-2 82 36 159.5t106 138.5t173 97t228 35q250 2 397.5 -130.5t145.5 -340.5h-277q-7 107 -78.5 166t-187.5 59h-21q-109 0 -177 -51t-68 -123
q0 -69 40 -106t134 -56l215 -43q397 -79 397 -409q2 -190 -148.5 -316t-402.5 -124q-281 0 -428 133t-156 368z" />
    <glyph glyph-name="uni0406" unicode="&#x406;" horiz-adv-x="612" 
d="M168 0v1434h276v-1434h-276z" />
    <glyph glyph-name="uni0407" unicode="&#x407;" horiz-adv-x="612" 
d="M168 0v1434h276v-1434h-276zM-21 1567v245h256v-245h-256zM379 1567v245h256v-245h-256z" />
    <glyph glyph-name="uni0408" unicode="&#x408;" horiz-adv-x="879" 
d="M57 0v266h262q70 0 96.5 27t26.5 96v1045h277v-1147q0 -130 -78.5 -208.5t-208.5 -78.5h-375z" />
    <glyph glyph-name="uni0409" unicode="&#x409;" horiz-adv-x="2245" 
d="M2185 465q1 -92 -28 -174.5t-85 -148.5t-148 -104.5t-208 -37.5h-637v1188h-483v-148q0 -182 -7 -385q-8 -230 -20 -336q-13 -136 -106 -229q-91 -90 -293 -90h-137v254l96 2q50 2 79 9t52.5 29t35 61.5t17.5 107.5q9 126 13 262q6 159 6 319v390h1024v-535h356
q231 0 352 -116.5t121 -317.5zM1908 455q0 106 -58.5 156.5t-176.5 50.5h-317v-416h337q103 0 159 53t56 156z" />
    <glyph glyph-name="uni040A" unicode="&#x40a;" horiz-adv-x="2230" 
d="M2175 451q0 -211 -130.5 -331t-365.5 -120h-610v614h-625v-614h-276v1434h276v-574h625v574h277v-574h354q225 0 350 -111t125 -298zM1898 440q0 87 -57 130.5t-162 43.5h-333v-368h313q119 0 179 46.5t60 147.5z" />
    <glyph glyph-name="uni040B" unicode="&#x40b;" horiz-adv-x="1708" 
d="M514 0v1188h-475v246h1249v-246h-497v-330h442q371 0 371 -342v-516h-275v436q0 95 -40.5 135.5t-137.5 40.5h-360v-612h-277z" />
    <glyph glyph-name="uni040C" unicode="&#x40c;" horiz-adv-x="1405" 
d="M1065 0l-432 631l-189 -199v-432h-276v1434h276v-644l609 644h342l-565 -595l577 -839h-342zM581 1526l82 297h318l-215 -297h-185z" />
    <glyph glyph-name="uni040E" unicode="&#x40e;" horiz-adv-x="1364" 
d="M1069 1434h289l-565 -1235q-48 -104 -123 -151.5t-195 -47.5h-233v246h172q60 3 93 21.5t56 62.5l-555 1104h309l390 -794zM322 1823h223q6 -54 46 -83.5t104 -29.5q65 0 106 29.5t47 83.5h223q-3 -140 -99.5 -213.5t-276.5 -73.5q-181 0 -275.5 73t-97.5 214z" />
    <glyph glyph-name="uni040F" unicode="&#x40f;" horiz-adv-x="1501" 
d="M1333 1434v-1434h-448v-297h-269v297h-448v1434h276v-1188h613v1188h276z" />
    <glyph glyph-name="uni0410" unicode="&#x410;" horiz-adv-x="1460" 
d="M1155 0l-129 338h-602l-129 -338h-291l567 1434h324l553 -1434h-293zM517 584h415l-208 544z" />
    <glyph glyph-name="uni0411" unicode="&#x411;" horiz-adv-x="1346" 
d="M168 0v1434h1010l2 -246h-736v-301h359q124 0 216.5 -32.5t147 -90.5t81 -132t26.5 -163q0 -101 -27 -185t-81.5 -148t-144 -100t-206.5 -36h-647zM444 246h338q100 0 157.5 56.5t57.5 154.5q0 96 -55.5 144t-159.5 48h-338v-403z" />
    <glyph glyph-name="uni0412" unicode="&#x412;" horiz-adv-x="1366" 
d="M168 0v1434h635q196 2 319 -106t121 -265q0 -128 -67 -216q-66 -89 -175 -120q120 -25 196.5 -117t76.5 -229q2 -161 -127.5 -272.5t-323.5 -108.5h-655zM444 846h318q100 0 152.5 44t52.5 128t-52.5 127t-152.5 43h-318v-342zM444 246h338q103 0 159 46.5t56 135.5
t-56 134.5t-159 45.5h-338v-362z" />
    <glyph glyph-name="uni0413" unicode="&#x413;" horiz-adv-x="1067" 
d="M168 0l2 1434h872v-246h-598v-1188h-276z" />
    <glyph glyph-name="uni0414" unicode="&#x414;" horiz-adv-x="1618" 
d="M1358 246h207v-543h-269v297h-993v-297h-270v543l100 2q78 2 119.5 40.5t50.5 121.5q9 86 12 224q4 116 7 423v20l2 357h1034v-1188zM1081 246v942h-493v-117q0 -199 -3 -397t-12 -268q-12 -112 -69 -160h577z" />
    <glyph glyph-name="uni0415" unicode="&#x415;" horiz-adv-x="1354" 
d="M168 0v1434h1085v-246h-809v-330h686v-246h-686v-366h830v-246h-1106z" />
    <glyph glyph-name="uni0416" unicode="&#x416;" horiz-adv-x="2142" 
d="M1815 0l-389 685l-220 -266v-419h-268v418l-238 263l-370 -681h-326l494 900l-459 534h321l578 -672v672h268v-676l580 676h321l-473 -543l506 -891h-325z" />
    <glyph glyph-name="uni0417" unicode="&#x417;" horiz-adv-x="1315" 
d="M1219 412q0 -201 -149.5 -316.5t-401.5 -115.5q-274 0 -425 127t-165 364h276q19 -125 97.5 -185.5t222.5 -60.5q132 0 200 49t68 144q0 90 -62.5 136t-183.5 46h-196v246h182q116 0 179 50.5t63 141.5q0 81 -66 127.5t-188 46.5q-139 0 -215 -71q-74 -70 -88 -183h-277
q5 115 64 228q61 115 187 191q128 77 323 77q255 0 395.5 -113t140.5 -303q0 -111 -64.5 -194t-183.5 -118q120 -29 193 -108q74 -80 74 -206z" />
    <glyph glyph-name="uni0418" unicode="&#x418;" horiz-adv-x="1561" 
d="M1053 1434h340v-1434h-277v1058l-610 -1058h-338v1434h276v-1057z" />
    <glyph glyph-name="uni0419" unicode="&#x419;" horiz-adv-x="1561" 
d="M1053 1434h340v-1434h-277v1058l-610 -1058h-338v1434h276v-1057zM399 1823h223q6 -54 46 -83.5t104 -29.5q65 0 106 29.5t47 83.5h223q-3 -140 -99.5 -213.5t-276.5 -73.5q-181 0 -275.5 73t-97.5 214z" />
    <glyph glyph-name="uni041A" unicode="&#x41a;" horiz-adv-x="1405" 
d="M1065 0l-432 631l-189 -199v-432h-276v1434h276v-644l609 644h342l-565 -595l577 -839h-342z" />
    <glyph glyph-name="uni041B" unicode="&#x41b;" horiz-adv-x="1534" 
d="M33 0v254l96 2q50 2 79 9t52.5 29t35 61.5t17.5 107.5q9 126 13 262q6 159 6 319v390h1034v-1434h-276v1188h-494v-148q0 -182 -7 -385q-8 -230 -20 -336q-13 -136 -106 -229q-91 -90 -293 -90h-137z" />
    <glyph glyph-name="uni041C" unicode="&#x41c;" horiz-adv-x="1903" 
d="M1307 1434h428v-1434h-271v1128l-356 -1128h-303l-367 1132v-1132h-270v1434h430l360 -1125z" />
    <glyph glyph-name="uni041D" unicode="&#x41d;" horiz-adv-x="1513" 
d="M168 0v1434h276v-594h625v594h277v-1434h-277v594h-625v-594h-276z" />
    <glyph glyph-name="uni041E" unicode="&#x41e;" horiz-adv-x="1569" 
d="M88 717q-2 222 87 391.5t247.5 258.5t361.5 87q152 2 281.5 -50t222 -147t144 -234t49.5 -306q2 -167 -49.5 -306t-144 -234t-222 -147t-281.5 -50q-203 -2 -361.5 87t-247.5 258.5t-87 391.5zM774 225h21q191 0 300 131t109 361t-109 360.5t-300 130.5h-21
q-191 0 -300 -130.5t-109 -360.5t109 -361t300 -131z" />
    <glyph glyph-name="uni041F" unicode="&#x41f;" horiz-adv-x="1505" 
d="M168 1434h1169v-1434h-276v1188h-617v-1188h-276v1434z" />
    <glyph glyph-name="uni0420" unicode="&#x420;" horiz-adv-x="1335" 
d="M168 0v1434h645q211 0 336 -120t125 -331t-125 -332t-336 -121h-369v-530h-276zM444 776h338q104 0 159.5 55t55.5 152q0 96 -55.5 150.5t-159.5 54.5h-338v-412z" />
    <glyph glyph-name="uni0421" unicode="&#x421;" horiz-adv-x="1456" 
d="M90 717q-1 220 79.5 387t237.5 259.5t369 90.5q134 1 246 -37t187 -105t119 -156.5t50 -192.5h-276q-23 117 -105 181t-211 64h-20q-178 2 -289.5 -132.5t-109.5 -358.5q0 -225 110 -358.5t289 -133.5h20q131 0 212 63t104 183h276q-14 -220 -173.5 -356.5t-428.5 -134.5
q-212 -2 -369 90.5t-237.5 259.5t-79.5 387z" />
    <glyph glyph-name="uni0422" unicode="&#x422;" horiz-adv-x="1343" 
d="M532 0v1188h-495v246h1270v-246h-498v-1188h-277z" />
    <glyph glyph-name="uni0423" unicode="&#x423;" horiz-adv-x="1364" 
d="M1069 1434h289l-565 -1235q-48 -104 -123 -151.5t-195 -47.5h-233v246h172q60 3 93 21.5t56 62.5l-555 1104h309l390 -794z" />
    <glyph glyph-name="uni0424" unicode="&#x424;" horiz-adv-x="1759" 
d="M743 -49v145q-110 1 -208 26t-182 75.5t-145 122.5t-95 174t-33 223q-1 151 51 270.5t144 194t211 114t257 41.5v146h273v-146q109 -1 207.5 -26t182.5 -75.5t145 -122.5t95 -173.5t33 -222.5q1 -121 -33 -223t-95 -174t-145 -122.5t-182.5 -75.5t-207.5 -26v-145h-273z
M743 330v774q-101 -1 -189.5 -48.5t-143 -137t-52.5 -201.5q-3 -169 112.5 -277.5t272.5 -109.5zM1401 717q2 112 -52.5 202t-142.5 137t-190 48v-774q102 1 190 47.5t142.5 136.5t52.5 203z" />
    <glyph glyph-name="uni0425" unicode="&#x425;" horiz-adv-x="1315" 
d="M1313 0h-326l-334 503l-340 -503h-311l496 735l-465 699h325l304 -457l309 457h311l-465 -689z" />
    <glyph glyph-name="uni0426" unicode="&#x426;" horiz-adv-x="1595" 
d="M1550 -297h-268v297h-1114v1434h276v-1188h613v1188h276v-1188h215z" />
    <glyph glyph-name="uni0427" unicode="&#x427;" horiz-adv-x="1397" 
d="M952 0v514h-458q-194 0 -286.5 74t-92.5 225l-2 621h276v-480q0 -110 40 -152t155 -42h368v674h277v-1434h-277z" />
    <glyph glyph-name="uni0428" unicode="&#x428;" horiz-adv-x="2161" 
d="M1716 1434h277v-1434h-1825v1434h276v-1188h498v1188h277v-1188h497v1188z" />
    <glyph glyph-name="uni0429" unicode="&#x429;" horiz-adv-x="2241" 
d="M2177 -297h-268v297h-1741v1434h276v-1188h498v1188h277v-1188h497v1188h277v-1188h182z" />
    <glyph glyph-name="uni042A" unicode="&#x42a;" horiz-adv-x="1681" 
d="M1622 465q1 -92 -28 -174.5t-85 -148.5t-148 -104.5t-208 -37.5h-637v1188h-489v246h766v-246h-1v-289h357q231 0 352 -116.5t121 -317.5zM1345 455q0 106 -58.5 156.5t-176.5 50.5h-318v-416h338q103 0 159 53t56 156z" />
    <glyph glyph-name="uni042B" unicode="&#x42b;" horiz-adv-x="1876" 
d="M1274 465q1 -92 -28 -174.5t-85 -148.5t-148 -104.5t-208 -37.5h-637v1434h276v-535h357q231 0 352 -116.5t121 -317.5zM1432 1434h276v-1434h-276v1434zM997 455q0 106 -58.5 156.5t-176.5 50.5h-318v-416h338q103 0 159 53t56 156z" />
    <glyph glyph-name="uni042C" unicode="&#x42c;" horiz-adv-x="1333" 
d="M1274 465q1 -92 -28 -174.5t-85 -148.5t-148 -104.5t-208 -37.5h-637v1434h276v-535h357q231 0 352 -116.5t121 -317.5zM997 455q0 106 -58.5 156.5t-176.5 50.5h-318v-416h338q103 0 159 53t56 156z" />
    <glyph glyph-name="uni042D" unicode="&#x42d;" horiz-adv-x="1446" 
d="M1356 717q2 -336 -177.5 -537.5t-498.5 -199.5q-272 -2 -435.5 135t-176.5 356h276q25 -119 109.5 -182.5t216.5 -63.5h20q152 0 254 99t127 274h-610v246h609q-26 174 -122 269t-246 95h-20q-146 0 -229.5 -64.5t-108.5 -180.5h-276q15 128 82 238q67 111 202 182
q136 71 338 71q212 1 364 -91.5t227.5 -258t74.5 -387.5z" />
    <glyph glyph-name="uni042E" unicode="&#x42e;" horiz-adv-x="2126" 
d="M2038 717q2 -167 -49.5 -306t-144 -234t-222 -147t-281.5 -50q-183 -1 -331.5 72t-242.5 213.5t-115 328.5h-208v-594h-276v1434h276v-594h208q21 188 115 328.5t242.5 213.5t331.5 72q152 2 281.5 -50t222 -147t144 -234t49.5 -306zM1761 717q0 230 -109 360.5
t-300 130.5h-21q-191 0 -300 -130.5t-109 -360.5t109 -361t300 -131h21q191 0 300 131t109 361z" />
    <glyph glyph-name="uni042F" unicode="&#x42f;" horiz-adv-x="1401" 
d="M147 0v479q0 99 53.5 151t159.5 52q-113 45 -173 137t-60 225q-3 168 134 280t347 110h625v-1434h-277v543h-399q-77 0 -105 -28t-28 -105v-410h-277zM649 784h307v404h-307q-246 0 -246 -197q0 -102 62 -154.5t184 -52.5z" />
    <glyph glyph-name="uni0430" unicode="&#x430;" horiz-adv-x="1098" 
d="M979 0h-250q-9 43 -12 125q-49 -68 -127.5 -106.5t-175.5 -38.5q-141 -2 -239.5 83.5t-96.5 217.5q0 156 105 240q104 83 270 97l258 23v25q0 70 -45.5 116.5t-118.5 46.5h-17q-69 0 -114.5 -36.5t-50.5 -85.5h-267q15 148 136 243t305 94q197 0 313.5 -97t116.5 -271
v-451q0 -156 10 -225zM711 418v29l-222 -23q-59 -5 -104 -36q-45 -32 -45 -89q0 -47 36 -75.5t91 -28.5h16q93 0 160.5 64t67.5 159z" />
    <glyph glyph-name="uni0431" unicode="&#x431;" horiz-adv-x="1212" 
d="M102 635q0 449 123 590q126 141 410 141h158q48 0 66 14t18 50v24h239v-96q0 -117 -53.5 -170t-173.5 -53h-262q-159 0 -232 -64t-76 -221q58 64 154 104q99 41 203 41q91 2 176 -35.5t148 -102t100 -155.5t35 -192q2 -149 -58.5 -269t-180 -191.5t-278.5 -69.5
q-248 -2 -383 175.5t-133 479.5zM614 195h17q110 0 173.5 87.5t63.5 223.5q0 133 -66 211t-171 78h-4q-97 2 -177.5 -81.5t-78.5 -209.5q0 -138 68.5 -223.5t174.5 -85.5z" />
    <glyph glyph-name="uni0432" unicode="&#x432;" horiz-adv-x="1104" 
d="M137 0v1024h496q174 0 273.5 -76t99.5 -192q0 -87 -61 -150.5t-152 -85.5q83 -6 155 -70t70 -161q0 -128 -98.5 -208.5t-270.5 -80.5h-512zM403 612h189q72 0 110.5 31.5t38.5 89.5q0 105 -149 105h-189v-226zM403 186h199q150 0 150 119q0 56 -38.5 85.5t-111.5 29.5
h-199v-234z" />
    <glyph glyph-name="uni0433" unicode="&#x433;" horiz-adv-x="809" 
d="M782 1024v-215h-379v-809h-266v1024h645z" />
    <glyph glyph-name="uni0434" unicode="&#x434;" horiz-adv-x="1303" 
d="M1079 215h172v-469h-245v254h-730v-254h-243v469h78q55 0 82.5 24.5t33.5 75.5q8 65 13 189q4 105 4 239v281h835v-809zM813 215v594h-321v-76q0 -81 -5 -229q-5 -140 -10 -193q-6 -66 -36 -96h372z" />
    <glyph glyph-name="uni0435" unicode="&#x435;" horiz-adv-x="1118" 
d="M80 512q-2 233 132 384t355 148q219 2 344 -144t123 -376q0 -37 -4 -96h-692q7 -100 76 -166.5t155 -66.5h17q70 0 117.5 35.5t62.5 93.5h264q-39 -157 -159 -250.5t-304 -93.5q-96 -1 -185 36.5t-156.5 105t-107.5 169.5t-38 221zM338 633h438q-4 89 -64.5 142.5
t-146.5 53.5h-16q-86 0 -146.5 -53.5t-64.5 -142.5z" />
    <glyph glyph-name="uni0436" unicode="&#x436;" horiz-adv-x="1702" 
d="M1386 0l-249 452l-156 -172v-280h-252v276l-161 175l-249 -451h-301l362 636l-339 388h274l414 -468v468h252v-467l403 467h275l-330 -374l352 -650h-295z" />
    <glyph glyph-name="uni0437" unicode="&#x437;" horiz-adv-x="1053" 
d="M967 303q0 -151 -116.5 -237t-318.5 -86q-225 0 -341.5 93.5t-127.5 284.5h273q15 -170 196 -170q77 0 118.5 30.5t41.5 84.5q0 113 -186 113h-90v200h131q70 0 107.5 28t37.5 81q0 50 -41 80.5t-114 30.5q-173 0 -187 -168h-276q5 159 129.5 268.5t333.5 107.5
q210 0 313.5 -80.5t103.5 -209.5q0 -89 -62.5 -152t-151.5 -74q107 -12 167 -70t60 -155z" />
    <glyph glyph-name="uni0438" unicode="&#x438;" horiz-adv-x="1270" 
d="M776 1024h357v-1024h-267v738l-374 -738h-355v1024h266v-731z" />
    <glyph glyph-name="uni0439" unicode="&#x439;" horiz-adv-x="1270" 
d="M776 1024h357v-1024h-267v738l-374 -738h-355v1024h266v-731zM266 1434h234q3 -66 32.5 -104t82.5 -38t83 38.5t33 103.5h232q-6 -301 -348 -301q-174 0 -259.5 73.5t-89.5 227.5z" />
    <glyph glyph-name="uni043A" unicode="&#x43a;" horiz-adv-x="1128" 
d="M807 0l-285 427l-119 -123v-304h-266v1024h266v-417l371 417h326l-394 -407l414 -617h-313z" />
    <glyph glyph-name="uni043B" unicode="&#x43b;" horiz-adv-x="1208" 
d="M33 0v227h71q110 0 132 105q16 85 16 309v383h819v-1024h-266v809h-305v-184q0 -232 -21 -355q-42 -270 -334 -270h-112z" />
    <glyph glyph-name="uni043C" unicode="&#x43c;" horiz-adv-x="1573" 
d="M1049 1024h387v-1024h-256v801l-273 -801h-245l-273 801v-801h-252v1024h410l248 -730z" />
    <glyph glyph-name="uni043D" unicode="&#x43d;" horiz-adv-x="1202" 
d="M137 0v1024h266v-387h396v387h266v-1024h-266v422h-396v-422h-266z" />
    <glyph glyph-name="uni043E" unicode="&#x43e;" horiz-adv-x="1180" 
d="M78 512q-3 229 142.5 382t369.5 150q224 3 369.5 -150t142.5 -382q3 -229 -142.5 -382t-369.5 -150q-224 -3 -369.5 150t-142.5 382zM582 195h16q108 0 172 84.5t64 232.5t-64 232.5t-172 84.5h-16q-109 0 -172.5 -84.5t-63.5 -232.5t63.5 -232.5t172.5 -84.5z" />
    <glyph glyph-name="uni043F" unicode="&#x43f;" horiz-adv-x="1190" 
d="M137 0v1024h916v-1024h-267v809h-383v-809h-266z" />
    <glyph glyph-name="uni0440" unicode="&#x440;" horiz-adv-x="1231" 
d="M137 -410v1434h266v-133q36 61 117 107t178 46q104 2 192 -41.5t145 -117.5t88 -171t30 -202q1 -105 -30 -202t-88 -171t-145 -117.5t-192 -41.5q-97 0 -178 46t-117 107v-543h-266zM637 195h16q102 0 168 87.5t66 229.5t-66 229.5t-168 87.5h-16q-94 2 -164.5 -89
t-69.5 -228q-1 -137 69.5 -228t164.5 -89z" />
    <glyph glyph-name="uni0441" unicode="&#x441;" horiz-adv-x="1104" 
d="M80 512q-1 117 37 218t104 170t157 107t193 37q207 0 326.5 -96t134.5 -282h-266q-12 78 -59.5 120.5t-126.5 42.5h-17q-107 0 -163 -89q-54 -88 -54 -228t54 -228q56 -89 163 -89h17q79 0 126.5 42.5t59.5 120.5h266q-15 -186 -134.5 -282t-326.5 -96q-102 -1 -193 37
t-157 107t-104 170t-37 218z" />
    <glyph glyph-name="uni0442" unicode="&#x442;" horiz-adv-x="999" 
d="M971 1024v-215h-338v-809h-266v809h-338v215h942z" />
    <glyph glyph-name="uni0443" unicode="&#x443;" horiz-adv-x="1174" 
d="M1163 1024l-436 -933v-238q0 -131 -67.5 -199t-198.5 -68h-373v230h272q71 0 92 21t21 91v152l-446 944h299l276 -623l266 623h295z" />
    <glyph glyph-name="uni0444" unicode="&#x444;" horiz-adv-x="1778" 
d="M748 -410v527q-42 -57 -105 -98q-61 -39 -166 -39q-97 -1 -174 41.5t-124.5 117t-72.5 170t-24 203.5q-1 108 24 203.5t72.5 170t124.5 117t174 41.5q182 0 271 -141v531h262v-531q90 141 286 141q125 2 218 -73t138 -195t44 -264q0 -107 -26.5 -203t-77 -170
t-130.5 -117t-178 -42q-102 0 -167 40q-66 40 -107 97v-527h-262zM547 195h16q85 0 135 85.5t50 231.5t-50 231.5t-135 85.5h-16q-93 0 -146 -86t-53 -233t53 -231t146 -84zM1204 195h17q91 0 139.5 82t48.5 233t-48.5 235t-139.5 84h-17q-86 0 -140 -86.5t-54 -230.5
t54 -230.5t140 -86.5z" />
    <glyph glyph-name="uni0445" unicode="&#x445;" horiz-adv-x="1075" 
d="M1055 0h-297l-223 314l-226 -314h-289l371 517l-360 507h297l213 -300l215 300h288l-360 -501z" />
    <glyph glyph-name="uni0446" unicode="&#x446;" horiz-adv-x="1292" 
d="M995 -254l-2 254h-856v1024h266v-809h400v809h266v-809h172v-469h-246z" />
    <glyph glyph-name="uni0447" unicode="&#x447;" horiz-adv-x="1116" 
d="M713 0v342h-287q-198 2 -272 75.5t-76 258.5v348l266 2v-317q0 -88 39.5 -118t146.5 -30h183v463h266v-1024h-266z" />
    <glyph glyph-name="uni0448" unicode="&#x448;" horiz-adv-x="1712" 
d="M137 0v1024h266v-809h320v809h266v-809h320v809h266v-1024h-1438z" />
    <glyph glyph-name="uni0449" unicode="&#x449;" horiz-adv-x="1798" 
d="M1575 215h172v-469h-246v254h-1364v1024h266v-809h320v809h266v-809h320v809h266v-809z" />
    <glyph glyph-name="uni044A" unicode="&#x44a;" horiz-adv-x="1235" 
d="M1188 362q0 -167 -113.5 -264.5t-296.5 -97.5h-469v813h-278v211h544v-322h226q172 0 279.5 -92.5t107.5 -247.5zM922 354q0 142 -187 142h-160v-289h170q71 0 123 36q54 36 54 111z" />
    <glyph glyph-name="uni044B" unicode="&#x44b;" horiz-adv-x="1520" 
d="M137 0v1024h266v-322h226q172 0 279.5 -92.5t107.5 -247.5q0 -167 -113.5 -264.5t-296.5 -97.5h-469zM1116 0v1024h266v-1024h-266zM403 207h170q71 0 123 36q54 36 54 111q0 142 -187 142h-160v-289z" />
    <glyph glyph-name="uni044C" unicode="&#x44c;" horiz-adv-x="1063" 
d="M137 0v1024h266v-322h226q172 0 279.5 -92.5t107.5 -247.5q0 -167 -113.5 -264.5t-296.5 -97.5h-469zM403 207h170q71 0 123 36q54 36 54 111q0 142 -187 142h-160v-289z" />
    <glyph glyph-name="uni044D" unicode="&#x44d;" horiz-adv-x="1092" 
d="M1010 512q0 -250 -122.5 -391t-348.5 -141q-204 0 -332 95q-126 96 -141 283h266q11 -79 61.5 -121t136.5 -42h17q170 0 199 213h-334v204h334q-28 217 -193 217h-16q-165 0 -205 -163h-266q16 161 140 270t335 108q223 0 346 -142t123 -390z" />
    <glyph glyph-name="uni044E" unicode="&#x44e;" horiz-adv-x="1602" 
d="M1524 512q3 -229 -142.5 -382t-369.5 -150q-201 -2 -340.5 122t-165.5 320h-103v-422h-266v1024h266v-387h109q36 184 171 295.5t329 111.5q224 3 369.5 -150t142.5 -382zM1256 512q0 148 -64 232.5t-172 84.5h-16q-109 0 -172.5 -84.5t-63.5 -232.5t63.5 -232.5
t172.5 -84.5h16q108 0 172 84.5t64 232.5z" />
    <glyph glyph-name="uni044F" unicode="&#x44f;" horiz-adv-x="1139" 
d="M117 0v289q0 76 52 123t146 47q-106 22 -160.5 89.5t-54.5 174.5q-2 125 107.5 214t292.5 87h501v-1024h-266v346h-256q-55 0 -75.5 -20.5t-20.5 -75.5v-250h-266zM565 553h170v264h-190q-91 0 -134.5 -31.5t-43.5 -97.5q0 -74 45.5 -104.5t152.5 -30.5z" />
    <glyph glyph-name="uni0451" unicode="&#x451;" horiz-adv-x="1118" 
d="M80 512q-2 233 132 384t355 148q219 2 344 -144t123 -376q0 -37 -4 -96h-692q7 -100 76 -166.5t155 -66.5h17q70 0 117.5 35.5t62.5 93.5h264q-39 -157 -159 -250.5t-304 -93.5q-96 -1 -185 36.5t-156.5 105t-107.5 169.5t-38 221zM338 633h438q-4 89 -64.5 142.5
t-146.5 53.5h-16q-86 0 -146.5 -53.5t-64.5 -142.5zM231 1157v266h246v-266h-246zM641 1157v266h246v-266h-246z" />
    <glyph glyph-name="uni0452" unicode="&#x452;" horiz-adv-x="1198" 
d="M803 -410h-297v226h182q65 0 90 26t25 90v693q0 99 -42 151.5t-120 52.5h-16q-92 0 -157 -76.5t-65 -183.5v-569h-266v1133h-178v184h178v117h266v-117h279v-184h-279v-259q48 79 130.5 124.5t179.5 45.5q185 0 270 -105q86 -104 86 -284v-796q2 -131 -64 -200t-202 -69z
" />
    <glyph glyph-name="uni0453" unicode="&#x453;" horiz-adv-x="809" 
d="M782 1024v-215h-379v-809h-266v1024h645zM368 1126l52 308h307l-205 -308h-154z" />
    <glyph glyph-name="uni0454" unicode="&#x454;" horiz-adv-x="1100" 
d="M766 358h266q-15 -186 -134.5 -282t-326.5 -96q-102 -1 -193 37t-157 107t-104 170t-37 218q-1 117 37 218t104 170t157 107t193 37q207 0 326.5 -96t134.5 -282h-266q-12 78 -59.5 120.5t-126.5 42.5h-17q-85 0 -138 -57.5t-71 -159.5h332v-204h-331q18 -101 71 -157
t137 -56h17q79 0 126.5 42.5t59.5 120.5z" />
    <glyph glyph-name="uni0455" unicode="&#x455;" horiz-adv-x="1018" 
d="M66 338h272q0 -69 47.5 -111.5t124.5 -42.5h16q63 0 101.5 27.5t38.5 73.5q0 39 -26.5 63.5t-82.5 38.5l-133 33q-165 40 -241.5 113.5t-76.5 195.5q0 140 112 227.5t300 87.5q198 0 309 -93t111 -255h-266q-8 69 -47.5 106.5t-106.5 37.5h-16q-60 0 -96.5 -26t-36.5 -75
q0 -38 33.5 -63t101.5 -41l137 -35q148 -37 217.5 -110.5t69.5 -194.5q0 -138 -110.5 -226.5t-307.5 -88.5q-208 0 -326 95t-118 263z" />
    <glyph glyph-name="uni0456" unicode="&#x456;" horiz-adv-x="541" 
d="M127 1157v277h287v-277h-287zM137 0v1024h266v-1024h-266z" />
    <glyph glyph-name="uni0457" unicode="&#x457;" horiz-adv-x="541" 
d="M137 0v1024h266v-1024h-266zM-58 1157v266h246v-266h-246zM352 1157v266h246v-266h-246z" />
    <glyph glyph-name="uni0458" unicode="&#x458;" horiz-adv-x="557" 
d="M143 1157v277h287v-277h-287zM-168 -410v226h209q62 0 87.5 25.5t25.5 86.5v1096h266v-1178q0 -122 -66.5 -189t-189.5 -67h-332z" />
    <glyph glyph-name="uni0459" unicode="&#x459;" horiz-adv-x="1720" 
d="M1673 362q0 -167 -113.5 -264.5t-296.5 -97.5h-469v809h-294v-184q0 -232 -21 -355q-46 -270 -334 -270h-112v227h71q110 0 132 105q16 85 16 309v383h809v-322h225q172 0 279.5 -92.5t107.5 -247.5zM1407 354q0 142 -187 142h-159v-289h169q70 0 123 36q54 36 54 111z
" />
    <glyph glyph-name="uni045A" unicode="&#x45a;" horiz-adv-x="1673" 
d="M137 0v1024h266v-350h385v350h267v-350h174q397 0 397 -320q2 -154 -112.5 -255t-296.5 -99h-429v459h-385v-459h-266zM1055 207h125q178 0 178 139q0 61 -44.5 91t-123.5 30h-135v-260z" />
    <glyph glyph-name="uni045B" unicode="&#x45b;" horiz-adv-x="1196" 
d="M1069 655v-655h-266v625q0 99 -42 151.5t-120 52.5h-16q-92 0 -157 -76.5t-65 -183.5v-569h-266v1137h-162v184h162v113h266v-113h279v-184h-279v-263q48 79 130.5 124.5t179.5 45.5q178 0 266 -106q90 -107 90 -283z" />
    <glyph glyph-name="uni045C" unicode="&#x45c;" horiz-adv-x="1128" 
d="M807 0l-285 427l-119 -123v-304h-266v1024h266v-417l371 417h326l-394 -407l414 -617h-313zM467 1126l52 308h307l-205 -308h-154z" />
    <glyph glyph-name="uni045E" unicode="&#x45e;" horiz-adv-x="1174" 
d="M1163 1024l-436 -933v-238q0 -131 -67.5 -199t-198.5 -68h-373v230h272q71 0 92 21t21 91v152l-446 944h299l276 -623l266 623h295zM258 1434h234q3 -66 32.5 -104t82.5 -38t83 38.5t33 103.5h232q-6 -301 -348 -301q-174 0 -259.5 73.5t-89.5 227.5z" />
    <glyph glyph-name="uni045F" unicode="&#x45f;" horiz-adv-x="1227" 
d="M1090 1024v-1024h-353v-254h-245l-2 254h-353v1024h266v-809h420v809h267z" />
    <glyph glyph-name="uni0462" unicode="&#x462;" horiz-adv-x="1622" 
d="M1532 465q1 -92 -28 -174.5t-85 -148.5t-148 -104.5t-208 -37.5h-637v1042h-373v236h373v156h276v-156h467v-236h-467v-143h357q231 0 352 -116.5t121 -317.5zM1255 455q0 106 -58.5 156.5t-176.5 50.5h-318v-416h338q103 0 159 53t56 156z" />
    <glyph glyph-name="uni0463" unicode="&#x463;" horiz-adv-x="1202" 
d="M1133 369q0 -167 -113 -268t-303 -101h-422v819h-264v205h264v410h266v-410h363v-205h-363v-143h168q196 0 300 -78t104 -229zM864 350q0 72 -48 105.5t-132 33.5h-123v-282h113q88 0 139 35t51 108z" />
    <glyph glyph-name="uni0472" unicode="&#x472;" horiz-adv-x="1569" 
d="M1481 717q2 -167 -49.5 -306t-144 -234t-222 -147t-281.5 -50q-203 -2 -361.5 87t-247.5 258.5t-87 391.5q-2 222 87 391.5t247.5 258.5t361.5 87q152 2 281.5 -50t222 -147t144 -234t49.5 -306zM370 813q91 78 203 78q72 0 195 -41l53 -19q108 -38 197 -38q101 0 173 68
q-31 166 -134 256.5t-262 90.5h-21q-169 0 -276 -104q-106 -104 -128 -291zM1199 621q-79 -62 -199 -62q-57 0 -98 10q-48 12 -118 33l-53 16l-41 14q-67 23 -127 23q-57 0 -99 -15t-89 -54q29 -172 133 -266.5t266 -94.5h21q169 0 275 104q106 103 129 292z" />
    <glyph glyph-name="uni0473" unicode="&#x473;" horiz-adv-x="1180" 
d="M1102 512q3 -229 -142.5 -382t-369.5 -150q-224 -3 -369.5 150t-142.5 382q-3 229 142.5 382t369.5 150q224 3 369.5 -150t142.5 -382zM354 607q49 36 107 36q57 0 114 -25l33 -12q56 -22 105 -22q70 0 110 37q-21 100 -80 154t-145 54h-16q-90 0 -149.5 -58t-78.5 -164z
M829 435q-47 -40 -112 -42q-66 -1 -137 25l-31 10q-3 1 -17.5 5.5t-25.5 8t-25.5 6t-23.5 1.5q-59 0 -103 -36q19 -104 78.5 -161t149.5 -57h16q93 0 154 63t77 177z" />
    <glyph glyph-name="uni0474" unicode="&#x474;" horiz-adv-x="1548" 
d="M1372 1434h129v-254h-41q-126 0 -184 -156l-375 -1024h-358l-529 1434h310l404 -1141l280 823q55 165 142 241.5t222 76.5z" />
    <glyph glyph-name="uni0475" unicode="&#x475;" horiz-adv-x="1180" 
d="M1038 1024h103l-2 -227h-23q-63 0 -98 -28t-57 -97l-216 -672h-378l-340 1024h282l256 -825l174 577q30 92 64 142.5t90 77.5t145 28z" />
    <glyph glyph-name="uni0490" unicode="&#x490;" horiz-adv-x="1067" 
d="M1042 1649l-1 -215h1v-246h-598v-1188h-276l2 1434h604v215h268z" />
    <glyph glyph-name="uni0491" unicode="&#x491;" horiz-adv-x="862" 
d="M137 0v1024h467v174h232v-389h-433v-809h-266z" />
    <glyph glyph-name="uni0492" unicode="&#x492;" horiz-adv-x="1141" 
d="M1105 1188h-598v-389h380v-236h-380v-563h-276l1 563h-201v236h201l1 635h872v-246z" />
    <glyph glyph-name="uni0493" unicode="&#x493;" horiz-adv-x="874" 
d="M845 809h-379v-242h224v-184h-224v-383h-266v383h-161v184h161v457h645v-215z" />
    <glyph glyph-name="uni0496" unicode="&#x496;" horiz-adv-x="2234" 
d="M2218 -297h-268v297h-135l-389 685l-220 -266v-419h-268v418l-238 263l-370 -681h-326l494 900l-459 534h321l578 -672v672h268v-676l580 676h321l-473 -543l366 -645h216z" />
    <glyph glyph-name="uni0497" unicode="&#x497;" horiz-adv-x="1763" 
d="M1565 215h164v-469h-246l-2 254h-95l-249 452l-156 -172v-280h-252v276l-161 175l-249 -451h-301l362 636l-339 388h274l414 -468v468h252v-467l403 467h275l-330 -374z" />
    <glyph glyph-name="uni049A" unicode="&#x49a;" horiz-adv-x="1479" 
d="M1454 -297h-268v297h-121l-432 631l-189 -199v-432h-276v1434h276v-644l609 644h342l-565 -595l408 -593h214z" />
    <glyph glyph-name="uni049B" unicode="&#x49b;" horiz-adv-x="1200" 
d="M976 215h204v-469h-246l-2 254h-125l-285 427l-119 -123v-304h-266v1024h266v-417l371 417h326l-394 -407z" />
    <glyph glyph-name="uni04A2" unicode="&#x4a2;" horiz-adv-x="1608" 
d="M1563 -297h-269v297h-225v594h-625v-594h-276v1434h276v-594h625v594h277v-1188h215z" />
    <glyph glyph-name="uni04A3" unicode="&#x4a3;" horiz-adv-x="1288" 
d="M1065 215h176v-469h-246l-2 254h-194v422h-396v-422h-266v1024h266v-387h396v387h266v-809z" />
    <glyph glyph-name="uni04AE" unicode="&#x4ae;" horiz-adv-x="1358" 
d="M1049 1434h303l-535 -861v-573h-276v573l-533 861h314l366 -603z" />
    <glyph glyph-name="uni04AF" unicode="&#x4af;" horiz-adv-x="1133" 
d="M1133 1024l-437 -935v-499h-254v490l-446 944h299l276 -623l267 623h295z" />
    <glyph glyph-name="uni04B0" unicode="&#x4b0;" horiz-adv-x="1354" 
d="M1350 1434l-535 -861h348v-235h-348v-338h-276v338h-349v235h349l-533 861h314l366 -603l361 603h303z" />
    <glyph glyph-name="uni04B1" unicode="&#x4b1;" horiz-adv-x="1159" 
d="M1147 1024l-392 -840h289v-184h-334v-410h-254v410h-333v184h284l-397 840h299l276 -623l267 623h295z" />
    <glyph glyph-name="uni04B2" unicode="&#x4b2;" horiz-adv-x="1475" 
d="M1466 -297h-268v297h-211l-334 503l-340 -503h-311l496 735l-465 699h325l304 -457l309 457h311l-465 -689l332 -499h315z" />
    <glyph glyph-name="uni04B3" unicode="&#x4b3;" horiz-adv-x="1141" 
d="M902 215h204v-469h-246l-2 254h-100l-223 314l-226 -314h-289l371 517l-360 507h297l213 -300l215 300h288l-360 -501z" />
    <glyph glyph-name="uni04B6" unicode="&#x4b6;" horiz-adv-x="1516" 
d="M1487 -297h-268v297h-267v514h-458q-194 0 -286.5 74t-92.5 225l-2 621h276v-480q0 -110 40 -152t155 -42h368v674h277v-1188h256z" />
    <glyph glyph-name="uni04B7" unicode="&#x4b7;" horiz-adv-x="1270" 
d="M979 215h258v-469h-246l-2 254h-276v342h-287q-198 2 -272 75.5t-76 258.5v348l266 2v-317q0 -88 39.5 -118t146.5 -30h183v463h266v-809z" />
    <glyph glyph-name="uni04BA" unicode="&#x4ba;" horiz-adv-x="1370" 
d="M168 0v1434h276v-514h451q183 0 272.5 -78.5t89.5 -241.5v-600h-274v479q-2 112 -40.5 152.5t-154.5 42.5h-344v-674h-276z" />
    <glyph glyph-name="uni04BB" unicode="&#x4bb;" horiz-adv-x="1196" 
d="M137 0v1434h266v-560q48 79 130.5 124.5t179.5 45.5q178 0 266 -106q90 -107 90 -283v-655h-266v625q0 99 -42 151.5t-120 52.5h-16q-92 0 -157 -76.5t-65 -183.5v-569h-266z" />
    <glyph glyph-name="uni04C0" unicode="&#x4c0;" horiz-adv-x="612" 
d="M168 0v1434h276v-1434h-276z" />
    <glyph glyph-name="uni04CF" unicode="&#x4cf;" horiz-adv-x="541" 
d="M137 0v1434h266v-1434h-266z" />
    <glyph glyph-name="uni04D8" unicode="&#x4d8;" horiz-adv-x="1505" 
d="M90 723q0 23 2 65h1045q-6 199 -110 309.5t-277 110.5h-21q-137 0 -227 -64.5t-115 -180.5h-276q18 217 194.5 355.5t437.5 135.5q164 1 292.5 -52.5t211.5 -152t126 -233.5t42 -299q1 -159 -44.5 -294.5t-131 -234.5t-214 -154.5t-286.5 -53.5q-321 0 -485 192
q-164 194 -164 551zM737 225h21q138 0 231.5 82.5t130.5 235.5h-739q5 -149 108 -234.5t248 -83.5z" />
    <glyph glyph-name="uni04D9" unicode="&#x4d9;" horiz-adv-x="1116" 
d="M83 514q0 40 3 82h692q-8 108 -67.5 170.5t-155.5 62.5h-16q-73 0 -126.5 -37.5t-62.5 -91.5h-264q30 154 159.5 249.5t317.5 94.5q213 2 344 -142.5t129 -389.5q3 -233 -133 -383.5t-358 -148.5q-229 0 -345.5 137t-116.5 397zM547 195h16q87 0 149 54t66 142h-438
q3 -92 60 -144t147 -52z" />
    <glyph glyph-name="uni04E2" unicode="&#x4e2;" horiz-adv-x="1561" 
d="M1053 1434h340v-1434h-277v1058l-610 -1058h-338v1434h276v-1057zM411 1567v225h687v-225h-687z" />
    <glyph glyph-name="uni04E3" unicode="&#x4e3;" horiz-adv-x="1270" 
d="M776 1024h357v-1024h-267v738l-374 -738h-355v1024h266v-731zM337 1157v215h625v-215h-625z" />
    <glyph glyph-name="uni04E8" unicode="&#x4e8;" horiz-adv-x="1569" 
d="M1481 717q2 -167 -49.5 -306t-144 -234t-222 -147t-281.5 -50q-203 -2 -361.5 87t-247.5 258.5t-87 391.5q-2 222 87 391.5t247.5 258.5t361.5 87q152 2 281.5 -50t222 -147t144 -234t49.5 -306zM373 836h823q-27 177 -131.5 274.5t-269.5 97.5h-21q-165 0 -269.5 -97.5
t-131.5 -274.5zM1195 596h-821q27 -177 131.5 -274t268.5 -97h21q164 0 268.5 97t131.5 274z" />
    <glyph glyph-name="uni04E9" unicode="&#x4e9;" horiz-adv-x="1180" 
d="M1102 512q3 -229 -142.5 -382t-369.5 -150q-224 -3 -369.5 150t-142.5 382q-3 229 142.5 382t369.5 150q224 3 369.5 -150t142.5 -382zM353 604h474q-19 108 -79 166.5t-150 58.5h-16q-90 0 -150 -58.5t-79 -166.5zM827 420h-474q19 -108 79 -166.5t150 -58.5h16
q90 0 150 58.5t79 166.5z" />
    <glyph glyph-name="uni04EE" unicode="&#x4ee;" horiz-adv-x="1364" 
d="M1069 1434h289l-565 -1235q-48 -104 -123 -151.5t-195 -47.5h-233v246h172q60 3 93 21.5t56 62.5l-555 1104h309l390 -794zM348 1516v225h687v-225h-687z" />
    <glyph glyph-name="uni04EF" unicode="&#x4ef;" horiz-adv-x="1174" 
d="M1163 1024l-436 -933v-238q0 -131 -67.5 -199t-198.5 -68h-373v230h272q71 0 92 21t21 91v152l-446 944h299l276 -623l266 623h295zM284 1157v215h625v-215h-625z" />
    <glyph glyph-name="Wgrave" unicode="&#x1e80;" horiz-adv-x="1946" 
d="M1618 1434h287l-355 -1434h-358l-218 1043l-222 -1043h-359l-352 1434h285l255 -1135l226 1135h338l225 -1137zM892 1526l-215 297h318l82 -297h-185z" />
    <glyph glyph-name="wgrave" unicode="&#x1e81;" horiz-adv-x="1620" 
d="M1325 1024h258l-293 -1024h-299l-181 716l-169 -716h-299l-313 1024h268l204 -760l167 760h284l179 -754zM739 1126l-205 308h308l51 -308h-154z" />
    <glyph glyph-name="Wacute" unicode="&#x1e82;" horiz-adv-x="1946" 
d="M1618 1434h287l-355 -1434h-358l-218 1043l-222 -1043h-359l-352 1434h285l255 -1135l226 1135h338l225 -1137zM884 1526l82 297h318l-215 -297h-185z" />
    <glyph glyph-name="wacute" unicode="&#x1e83;" horiz-adv-x="1620" 
d="M1325 1024h258l-293 -1024h-299l-181 716l-169 -716h-299l-313 1024h268l204 -760l167 760h284l179 -754zM727 1126l52 308h307l-205 -308h-154z" />
    <glyph glyph-name="Wdieresis" unicode="&#x1e84;" horiz-adv-x="1946" 
d="M1618 1434h287l-355 -1434h-358l-218 1043l-222 -1043h-359l-352 1434h285l255 -1135l226 1135h338l225 -1137zM649 1567v245h256v-245h-256zM1049 1567v245h256v-245h-256z" />
    <glyph glyph-name="wdieresis" unicode="&#x1e85;" horiz-adv-x="1620" 
d="M1325 1024h258l-293 -1024h-299l-181 716l-169 -716h-299l-313 1024h268l204 -760l167 760h284l179 -754zM483 1157v266h246v-266h-246zM893 1157v266h246v-266h-246z" />
    <glyph glyph-name="uni1E9E" unicode="&#x1e9e;" horiz-adv-x="1346" 
d="M168 0v1434h563q199 0 319.5 -101t120.5 -268q0 -115 -68.5 -204.5t-162.5 -112.5q131 -7 229 -107t95 -242q0 -184 -130 -291.5t-352 -107.5h-174v246h158q105 0 163 48.5t58 135.5q0 168 -223 168h-156v238h41q122 0 184 47t62 131q0 80 -56 127t-159 47h-236v-1188
h-276z" />
    <glyph glyph-name="uni1EA0" unicode="&#x1ea0;" horiz-adv-x="1460" 
d="M1155 0l-129 338h-602l-129 -338h-291l567 1434h324l553 -1434h-293zM517 584h415l-208 544zM591 -399v266h267v-266h-267z" />
    <glyph glyph-name="uni1EA1" unicode="&#x1ea1;" horiz-adv-x="1098" 
d="M979 0h-250q-9 43 -12 125q-49 -68 -127.5 -106.5t-175.5 -38.5q-141 -2 -239.5 83.5t-96.5 217.5q0 156 105 240q104 83 270 97l258 23v25q0 70 -45.5 116.5t-118.5 46.5h-17q-69 0 -114.5 -36.5t-50.5 -85.5h-267q15 148 136 243t305 94q197 0 313.5 -97t116.5 -271
v-451q0 -156 10 -225zM711 418v29l-222 -23q-59 -5 -104 -36q-45 -32 -45 -89q0 -47 36 -75.5t91 -28.5h16q93 0 160.5 64t67.5 159zM380 -399v266h267v-266h-267z" />
    <glyph glyph-name="uni1EB8" unicode="&#x1eb8;" horiz-adv-x="1354" 
d="M168 0v1434h1085v-246h-809v-330h686v-246h-686v-366h830v-246h-1106zM587 -399v266h267v-266h-267z" />
    <glyph glyph-name="uni1EB9" unicode="&#x1eb9;" horiz-adv-x="1118" 
d="M80 512q-2 233 132 384t355 148q219 2 344 -144t123 -376q0 -37 -4 -96h-692q7 -100 76 -166.5t155 -66.5h17q70 0 117.5 35.5t62.5 93.5h264q-39 -157 -159 -250.5t-304 -93.5q-96 -1 -185 36.5t-156.5 105t-107.5 169.5t-38 221zM338 633h438q-4 89 -64.5 142.5
t-146.5 53.5h-16q-86 0 -146.5 -53.5t-64.5 -142.5zM434 -399v266h267v-266h-267z" />
    <glyph glyph-name="uni1ECA" unicode="&#x1eca;" horiz-adv-x="612" 
d="M168 0v1434h276v-1434h-276zM174 -399v266h267v-266h-267z" />
    <glyph glyph-name="uni1ECB" unicode="&#x1ecb;" horiz-adv-x="541" 
d="M127 1157v277h287v-277h-287zM137 0v1024h266v-1024h-266zM137 -399v266h267v-266h-267z" />
    <glyph glyph-name="uni1ECC" unicode="&#x1ecc;" horiz-adv-x="1569" 
d="M88 717q-2 222 87 391.5t247.5 258.5t361.5 87q152 2 281.5 -50t222 -147t144 -234t49.5 -306q2 -167 -49.5 -306t-144 -234t-222 -147t-281.5 -50q-203 -2 -361.5 87t-247.5 258.5t-87 391.5zM774 225h21q191 0 300 131t109 361t-109 360.5t-300 130.5h-21
q-191 0 -300 -130.5t-109 -360.5t109 -361t300 -131zM651 -399v266h267v-266h-267z" />
    <glyph glyph-name="uni1ECD" unicode="&#x1ecd;" horiz-adv-x="1180" 
d="M78 512q-3 229 142.5 382t369.5 150q224 3 369.5 -150t142.5 -382q3 -229 -142.5 -382t-369.5 -150q-224 -3 -369.5 150t-142.5 382zM582 195h16q108 0 172 84.5t64 232.5t-64 232.5t-172 84.5h-16q-109 0 -172.5 -84.5t-63.5 -232.5t63.5 -232.5t172.5 -84.5zM456 -399
v266h267v-266h-267z" />
    <glyph glyph-name="uni1EE4" unicode="&#x1ee4;" horiz-adv-x="1438" 
d="M156 502v932h276v-891q0 -166 67.5 -242t209.5 -76h20q142 0 209.5 76t67.5 242v891h276v-932q0 -255 -140.5 -388.5t-422.5 -133.5t-422.5 133.5t-140.5 388.5zM585 -399v266h267v-266h-267z" />
    <glyph glyph-name="uni1EE5" unicode="&#x1ee5;" horiz-adv-x="1176" 
d="M127 369v655h266v-625q0 -99 39.5 -151.5t112.5 -52.5h16q87 0 149 76.5t62 183.5v569h266v-1024h-266v150q-48 -80 -126.5 -125t-172.5 -45q-173 0 -260 105q-86 107 -86 284zM428 -399v266h267v-266h-267z" />
    <glyph glyph-name="Ygrave" unicode="&#x1ef2;" horiz-adv-x="1358" 
d="M1049 1434h303l-535 -861v-573h-276v573l-533 861h314l366 -603zM602 1526l-215 297h318l82 -297h-185z" />
    <glyph glyph-name="ygrave" unicode="&#x1ef3;" horiz-adv-x="1174" 
d="M1163 1024l-436 -933v-238q0 -131 -67.5 -199t-198.5 -68h-373v230h272q71 0 92 21t21 91v152l-446 944h299l276 -623l266 623h295zM526 1126l-205 308h308l51 -308h-154z" />
    <glyph glyph-name="uni2002" unicode="&#x2002;" horiz-adv-x="1024" 
 />
    <glyph glyph-name="uni2003" unicode="&#x2003;" horiz-adv-x="2048" 
 />
    <glyph glyph-name="uni2009" unicode="&#x2009;" horiz-adv-x="256" 
 />
    <glyph glyph-name="uni200A" unicode="&#x200a;" horiz-adv-x="154" 
 />
    <glyph glyph-name="endash" unicode="&#x2013;" horiz-adv-x="1217" 
d="M127 512v215h963v-215h-963z" />
    <glyph glyph-name="emdash" unicode="&#x2014;" horiz-adv-x="1872" 
d="M127 512v215h1618v-215h-1618z" />
    <glyph glyph-name="uni2015" unicode="&#x2015;" horiz-adv-x="1872" 
d="M127 512v215h1618v-215h-1618z" />
    <glyph glyph-name="quoteleft" unicode="&#x2018;" horiz-adv-x="578" 
d="M486 1433v-153h-74q-63 0 -95 -36t-32 -98v-20h133v-297h-297v328q-2 109 81 193.5t200 82.5h84z" />
    <glyph glyph-name="quoteright" unicode="&#x2019;" horiz-adv-x="573" 
d="M104 830v153h74q63 0 95 36t32 98v20h-133v297h297v-328q2 -109 -81 -193.5t-200 -82.5h-84z" />
    <glyph glyph-name="quotesinglbase" unicode="&#x201a;" horiz-adv-x="557" 
d="M63 -307v153h74q63 0 95 36t32 98v20h-133v297h297v-328q2 -109 -81 -193.5t-200 -82.5h-84z" />
    <glyph glyph-name="quotedblleft" unicode="&#x201c;" horiz-adv-x="997" 
d="M486 1433v-153h-74q-63 0 -95 -36t-32 -98v-20h133v-297h-297v328q-2 109 81 193.5t200 82.5h84zM906 1433v-153h-74q-63 0 -95 -36t-32 -98v-20h133v-297h-297v328q-2 109 81 193.5t200 82.5h84z" />
    <glyph glyph-name="quotedblright" unicode="&#x201d;" horiz-adv-x="993" 
d="M104 830v153h74q63 0 95 36t32 98v20h-133v297h297v-328q2 -109 -81 -193.5t-200 -82.5h-84zM524 830v153h74q63 0 95 36t32 98v20h-133v297h297v-328q2 -109 -81 -193.5t-200 -82.5h-84z" />
    <glyph glyph-name="quotedblbase" unicode="&#x201e;" horiz-adv-x="977" 
d="M63 -307v153h74q63 0 95 36t32 98v20h-133v297h297v-328q2 -109 -81 -193.5t-200 -82.5h-84zM483 -307v153h74q63 0 95 36t32 98v20h-133v297h297v-328q2 -109 -81 -193.5t-200 -82.5h-84z" />
    <glyph glyph-name="dagger" unicode="&#x2020;" horiz-adv-x="1012" 
d="M373 -174v1106h-312v225h312v451h266v-451h311v-225h-311v-1106h-266z" />
    <glyph glyph-name="daggerdbl" unicode="&#x2021;" horiz-adv-x="1085" 
d="M987 932h-311v-430h311v-226h-311v-450h-266v450h-312v226h312v430h-312v225h312v451h266v-451h311v-225z" />
    <glyph glyph-name="bullet" unicode="&#x2022;" horiz-adv-x="1122" 
d="M141 717q-2 111 55.5 209t155.5 155.5t209 55.5q111 2 209 -55.5t155.5 -155.5t55.5 -209q2 -111 -55.5 -209t-155.5 -155.5t-209 -55.5q-111 -2 -209 55.5t-155.5 155.5t-55.5 209z" />
    <glyph glyph-name="ellipsis" unicode="&#x2026;" horiz-adv-x="1595" 
d="M127 0v297h297v-297h-297zM649 0v297h297v-297h-297zM1171 0v297h297v-297h-297z" />
    <glyph glyph-name="perthousand" unicode="&#x2030;" horiz-adv-x="2413" 
d="M420 615q-88 -1 -157.5 32.5t-112 92t-64.5 132t-22 156.5t22 157t64.5 133t112 93t157.5 33q88 1 157.5 -33t112 -93t64.5 -133t22 -157t-22 -156.5t-64.5 -132t-112 -92t-157.5 -32.5zM1270 1434h240l-861 -1434h-239zM416 803h8q64 0 97.5 58.5t33.5 166.5
q0 109 -34 168.5t-97 59.5h-8q-63 0 -97 -59.5t-34 -168.5q0 -108 33.5 -166.5t97.5 -58.5zM2349 403q0 -83 -22 -156.5t-64.5 -132t-112 -92t-157.5 -32.5q-152 0 -246 97q-94 -97 -246 -97q-88 -1 -157.5 32.5t-112 92t-64.5 132t-22 156.5t22 157t64.5 133t112 93
t157.5 33q153 0 246 -98q93 98 246 98q88 1 157.5 -33t112 -93t64.5 -133t22 -157zM1636 403q0 109 -34 168.5t-97 59.5h-8q-63 0 -97 -59.5t-34 -168.5q0 -108 33.5 -166.5t97.5 -58.5h8q64 0 97.5 58.5t33.5 166.5zM2128 403q0 109 -34 168.5t-97 59.5h-8q-63 0 -97 -59.5
t-34 -168.5q0 -108 33.5 -166.5t97.5 -58.5h8q64 0 97.5 58.5t33.5 166.5z" />
    <glyph glyph-name="guilsinglleft" unicode="&#x2039;" horiz-adv-x="741" 
d="M670 1024l-297 -440l297 -441h-308l-296 441l296 440h308z" />
    <glyph glyph-name="guilsinglright" unicode="&#x203a;" horiz-adv-x="741" 
d="M379 1024l296 -440l-296 -441h-308l297 441l-297 440h308z" />
    <glyph glyph-name="fraction" unicode="&#x2044;" horiz-adv-x="410" 
d="M-348 0l860 1434h240l-861 -1434h-239z" />
    <glyph glyph-name="uni2070" unicode="&#x2070;" horiz-adv-x="860" 
d="M74 1253q0 83 22 157t64.5 133t112 93t157.5 33q88 1 157.5 -33t112 -93t64.5 -133t22 -157t-22 -156.5t-64.5 -132t-112 -92t-157.5 -32.5q-88 -1 -157.5 32.5t-112 92t-64.5 132t-22 156.5zM426 1028h8q64 0 97.5 58.5t33.5 166.5q0 109 -34 168.5t-97 59.5h-8
q-63 0 -97 -59.5t-34 -168.5q0 -108 33.5 -166.5t97.5 -58.5z" />
    <glyph glyph-name="uni2074" unicode="&#x2074;" horiz-adv-x="831" 
d="M459 850v127h-402v223l357 459h243v-510h109v-172h-109v-127h-198zM244 1149h215v281z" />
    <glyph glyph-name="uni2075" unicode="&#x2075;" horiz-adv-x="780" 
d="M55 1096h230q8 -33 34.5 -54.5t59.5 -21.5h8q41 0 68.5 29t27.5 71t-25.5 67t-66.5 25h-8q-47 0 -78 -34h-221l90 481h516v-180h-356l-29 -138q54 48 148 48q97 0 172 -71t75 -188q0 -132 -91 -211t-236 -79q-131 0 -220 70.5t-98 185.5z" />
    <glyph glyph-name="uni2076" unicode="&#x2076;" horiz-adv-x="811" 
d="M74 1214q-2 207 103.5 332t277.5 123q125 0 202 -68.5t80 -175.5h-213q-6 29 -27.5 46.5t-52.5 17.5h-12q-61 0 -103 -57q-43 -56 -50 -138q62 82 186 82q112 0 186 -72t74 -182q0 -123 -87 -202.5t-224 -79.5q-155 0 -247.5 101.5t-92.5 272.5zM403 1020h9q41 0 68.5 27
t27.5 67q0 39 -27 63.5t-69 24.5h-9q-39 0 -67.5 -26t-28.5 -64q0 -40 27.5 -66t68.5 -26z" />
    <glyph glyph-name="uni2077" unicode="&#x2077;" horiz-adv-x="705" 
d="M184 850v27q0 168 60 321.5t174 276.5h-369v184h613v-160q-119 -119 -182.5 -278t-63.5 -334v-37h-232z" />
    <glyph glyph-name="uni2078" unicode="&#x2078;" horiz-adv-x="786" 
d="M90 1061q0 66 38 116t103 70q-153 57 -153 201q0 96 92 158.5t225 62.5q132 0 224 -63t92 -158q0 -144 -156 -201q65 -20 103 -70t38 -116q0 -96 -84.5 -158.5t-216.5 -62.5q-133 0 -219 62.5t-86 158.5zM389 1337h10q41 0 68 21t27 55t-27 55t-68 21h-10q-40 0 -67 -21
t-27 -55t27 -55t67 -21zM389 1020h10q34 0 57 20t23 52t-23 52.5t-57 20.5h-10q-33 0 -57.5 -21.5t-24.5 -51.5t24.5 -51t57.5 -21z" />
    <glyph glyph-name="uni2079" unicode="&#x2079;" horiz-adv-x="809" 
d="M72 1083h213q6 -29 27 -46t53 -17h12q61 0 103 56q43 58 50 138q-64 -81 -186 -81q-112 0 -186 71.5t-74 181.5q0 123 87 203t224 80q155 0 247.5 -102t92.5 -273q2 -206 -104 -331t-277 -123q-125 0 -202 68t-80 175zM397 1307h9q39 0 67.5 26t28.5 64q0 40 -27.5 66
t-68.5 26h-9q-41 0 -68.5 -27t-27.5 -67q0 -39 27 -63.5t69 -24.5z" />
    <glyph glyph-name="Euro" unicode="&#x20ac;" horiz-adv-x="1440" 
d="M1073 451h273q-23 -211 -169 -342t-352 -129q-175 0 -303.5 93t-195.5 264l-234 -52v225l181 40q-9 68 -10 127l-171 -38v225l185 41q39 252 186.5 401.5t361.5 147.5q203 2 348 -129t173 -342h-273q-17 107 -81 171q-65 65 -158 65h-17q-93 0 -158 -65t-98 -186l352 79
v-226l-381 -84v-20q0 -45 5 -108l290 65v-225l-243 -54q74 -180 233 -180h17q94 0 158 64t81 172z" />
    <glyph glyph-name="uni20B4" unicode="&#x20b4;" horiz-adv-x="1399" 
d="M1218 1037l111 10v-213l-1261 -115v213l872 79q4 17 4 42q0 74 -58.5 125t-170.5 51h-13q-65 0 -110 -14t-70 -42.5t-37.5 -61t-17.5 -77.5h-277q8 106 57 201q52 96 164 157q113 62 296 62q103 1 190 -22t145.5 -62.5t99.5 -91.5t59.5 -107.5t17.5 -111.5q0 -17 -1 -22z
M98 420v213l1194 110v-213l-814 -75q-7 -22 -7 -56q0 -82 68.5 -138t185.5 -56h12q205 0 236 213h276q-9 -99 -56 -198t-160 -169q-113 -71 -304 -71q-234 -2 -384 109.5t-148 295.5q0 6 2 44z" />
    <glyph glyph-name="uni20BD" unicode="&#x20bd;" horiz-adv-x="1335" 
d="M827 596h-266v-104h301v-230h-301v-262h-276v262h-185v230h185v104h-191v242h191v596h542q214 0 337 -105q124 -103 124 -317q0 -106 -34 -186.5t-96 -130t-145.5 -74.5t-185.5 -25zM561 1188v-350h236q111 0 163 42t52 132t-53 133t-162 43h-236z" />
    <glyph glyph-name="uni2105" unicode="&#x2105;" horiz-adv-x="1489" 
d="M55 1212q0 145 88 224.5t230 79.5q138 0 205 -67q68 -68 77 -165h-206q-12 68 -82 68h-9q-47 0 -70.5 -38t-23.5 -102q0 -63 23.5 -100t70.5 -37h9q70 0 82 62h206q-11 -97 -78 -162q-67 -64 -204 -64q-142 0 -230 78.5t-88 222.5zM180 0l860 1434h240l-860 -1434h-240z
M805 281q0 130 87 216.5t228 86.5q142 0 229 -86.5t87 -216.5q0 -131 -87 -216t-229 -85q-143 0 -229 85t-86 216zM1116 143h8q48 0 75.5 36t27.5 102t-27.5 102.5t-75.5 36.5h-8q-48 0 -75 -36.5t-27 -102.5q0 -65 27 -101.5t75 -36.5z" />
    <glyph glyph-name="uni2113" unicode="&#x2113;" horiz-adv-x="944" 
d="M586 236h186v-236h-317q-215 0 -215 215v139l-154 -94v277l154 92v475q0 167 84 258.5t235 91.5q78 1 143.5 -31.5t108 -87t66 -124.5t22.5 -144q0 -145 -84 -278q-83 -132 -231 -224l-78 -48v-200q0 -46 17 -63.5t63 -17.5zM506 1137v-348q69 51 98 115.5t29 148.5
q0 90 -19 128t-59 38q-49 0 -49 -82z" />
    <glyph glyph-name="uni2116" unicode="&#x2116;" horiz-adv-x="2251" 
d="M1526 1141q0 130 87 216.5t228 86.5q142 0 229 -86.5t87 -216.5q0 -131 -87 -216t-229 -85q-143 0 -229 85t-86 216zM1096 383v1051h276v-1434h-358l-563 1054v-1054h-277v1434h358zM1735 1141q0 -65 27 -101t75 -36h8q48 0 75.5 36t27.5 101q0 66 -27.5 102.5
t-75.5 36.5h-8q-48 0 -75 -36.5t-27 -102.5zM1556 553v164h590v-164h-590z" />
    <glyph glyph-name="uni2117" unicode="&#x2117;" horiz-adv-x="1782" 
d="M92 719q0 216 108 399q108 184 292 292t399 108t400 -108q185 -106 291 -291q108 -185 108 -400t-108 -399t-292 -292q-183 -108 -399 -108q-215 0 -399 108t-292 292t-108 399zM1501 719q0 166 -83 309t-222 227q-140 84 -305 84t-305 -84q-141 -85 -223 -227t-82 -309
q0 -168 82 -310t223 -227q140 -84 305 -84t305 84q139 84 222 227t83 310zM629 334v780h375q125 0 195.5 -73.5t70.5 -190.5q0 -116 -70 -187t-196 -71h-160v-258h-215zM844 768h137q34 0 54 22t20 60t-22 60t-56 22h-133v-164z" />
    <glyph glyph-name="trademark" unicode="&#x2122;" horiz-adv-x="1995" 
d="M74 1229v205h747v-205h-256v-574h-235v574h-256zM1534 1434h311v-779h-231v414l-156 -414h-131l-164 427v-427h-231v779h311l148 -395z" />
    <glyph glyph-name="Omega" unicode="&#x2126;" horiz-adv-x="1602" 
d="M115 0v231h262q-129 76 -201 212t-72 315q-2 148 51 278.5t145.5 223t223 144.5t277.5 50q198 0 358 -89t248 -247q90 -158 90 -360q0 -183 -74 -318.5t-209 -208.5h273v-231h-604v225q153 38 245.5 171.5t92.5 320.5q0 230 -110 360.5t-300 130.5h-20
q-190 0 -300 -130.5t-110 -360.5q-1 -185 93 -320t245 -172v-225h-604z" />
    <glyph glyph-name="onethird" unicode="&#x2153;" horiz-adv-x="1880" 
d="M354 0l860 1434h240l-861 -1434h-239zM1176 229h221q1 -26 26 -43.5t60 -17.5h10q39 0 64.5 22.5t25.5 57.5q0 33 -24.5 53t-63.5 20h-76v172h76q37 0 59.5 20t22.5 54q0 33 -21 53.5t-57 20.5h-10q-30 0 -52.5 -17t-25.5 -40h-221q0 108 87 171.5t218 63.5
q126 0 214.5 -63t88.5 -168q0 -62 -29 -108.5t-84 -69.5q57 -27 88 -77t31 -114q0 -107 -93 -168t-226 -61q-132 0 -220.5 64.5t-88.5 174.5zM289 625v524l-224 -184v258l256 211h183v-809h-215z" />
    <glyph glyph-name="twothirds" unicode="&#x2154;" horiz-adv-x="1964" 
d="M461 0l860 1434h240l-861 -1434h-239zM90 625v172l305 276q42 37 60 62.5t18 54.5q0 31 -21.5 52.5t-54.5 21.5h-8q-33 0 -57.5 -26t-26.5 -62h-219q7 120 96.5 194t222.5 74q125 2 208 -72.5t81 -166.5q0 -64 -28 -112t-91 -106l-194 -178h315v-184h-606zM1262 229h221
q1 -26 26 -43.5t60 -17.5h10q39 0 64.5 22.5t25.5 57.5q0 33 -24.5 53t-63.5 20h-76v172h76q37 0 59.5 20t22.5 54q0 33 -21 53.5t-57 20.5h-10q-30 0 -52.5 -17t-25.5 -40h-221q0 108 87 171.5t218 63.5q126 0 214.5 -63t88.5 -168q0 -62 -29 -108.5t-84 -69.5
q57 -27 88 -77t31 -114q0 -107 -93 -168t-226 -61q-132 0 -220.5 64.5t-88.5 174.5z" />
    <glyph glyph-name="uni2155" unicode="&#x2155;" horiz-adv-x="1894" 
d="M369 0l860 1434h240l-861 -1434h-239zM289 625v524l-224 -184v258l256 211h183v-809h-215zM1159 246h230q8 -33 34.5 -54.5t59.5 -21.5h8q41 0 68.5 29t27.5 71t-25.5 67t-66.5 25h-8q-47 0 -78 -34h-221l90 481h516v-180h-356l-29 -138q54 48 148 48q97 0 172 -71
t75 -188q0 -132 -91 -211t-236 -79q-131 0 -220 70.5t-98 185.5z" />
    <glyph glyph-name="uni2156" unicode="&#x2156;" horiz-adv-x="1993" 
d="M471 0l860 1434h240l-861 -1434h-239zM90 625v172l305 276q42 37 60 62.5t18 54.5q0 31 -21.5 52.5t-54.5 21.5h-8q-33 0 -57.5 -26t-26.5 -62h-219q7 120 96.5 194t222.5 74q125 2 208 -72.5t81 -166.5q0 -64 -28 -112t-91 -106l-194 -178h315v-184h-606zM1261 246h230
q8 -33 34.5 -54.5t59.5 -21.5h8q41 0 68.5 29t27.5 71t-25.5 67t-66.5 25h-8q-47 0 -78 -34h-221l90 481h516v-180h-356l-29 -138q54 48 148 48q97 0 172 -71t75 -188q0 -132 -91 -211t-236 -79q-131 0 -220 70.5t-98 185.5z" />
    <glyph glyph-name="uni2157" unicode="&#x2157;" horiz-adv-x="2001" 
d="M479 0l860 1434h240l-861 -1434h-239zM70 854h221q1 -26 26 -43.5t60 -17.5h10q39 0 64.5 22.5t25.5 57.5q0 33 -24.5 53t-63.5 20h-76v172h76q37 0 59.5 20t22.5 54q0 33 -21 53.5t-57 20.5h-10q-30 0 -52.5 -17t-25.5 -40h-221q0 108 87 171.5t218 63.5
q126 0 214.5 -63t88.5 -168q0 -62 -29 -108.5t-84 -69.5q57 -27 88 -77t31 -114q0 -107 -93 -168t-226 -61q-132 0 -220.5 64.5t-88.5 174.5zM1269 246h230q8 -33 34.5 -54.5t59.5 -21.5h8q41 0 68.5 29t27.5 71t-25.5 67t-66.5 25h-8q-47 0 -78 -34h-221l90 481h516v-180
h-356l-29 -138q54 48 148 48q97 0 172 -71t75 -188q0 -132 -91 -211t-236 -79q-131 0 -220 70.5t-98 185.5z" />
    <glyph glyph-name="uni2158" unicode="&#x2158;" horiz-adv-x="2050" 
d="M524 0l860 1434h240l-861 -1434h-239zM465 625v127h-402v223l357 459h243v-510h109v-172h-109v-127h-198zM250 924h215v281zM1314 246h230q8 -33 34.5 -54.5t59.5 -21.5h8q41 0 68.5 29t27.5 71t-25.5 67t-66.5 25h-8q-47 0 -78 -34h-221l90 481h516v-180h-356l-29 -138
q54 48 148 48q97 0 172 -71t75 -188q0 -132 -91 -211t-236 -79q-131 0 -220 70.5t-98 185.5z" />
    <glyph glyph-name="uni2159" unicode="&#x2159;" horiz-adv-x="1878" 
d="M359 0l860 1434h240l-861 -1434h-239zM289 625v524l-224 -184v258l256 211h183v-809h-215zM1143 364q-2 207 103.5 332t277.5 123q125 0 202 -68.5t80 -175.5h-213q-6 29 -27.5 46.5t-52.5 17.5h-12q-61 0 -103 -57q-43 -56 -50 -138q62 82 186 82q112 0 186 -72t74 -182
q0 -123 -87 -202.5t-224 -79.5q-155 0 -247.5 101.5t-92.5 272.5zM1472 170h9q41 0 68.5 27t27.5 67q0 39 -27 63.5t-69 24.5h-9q-39 0 -67.5 -26t-28.5 -64q0 -40 27.5 -66t68.5 -26z" />
    <glyph glyph-name="uni215A" unicode="&#x215a;" horiz-adv-x="1972" 
d="M449 0l860 1434h240l-861 -1434h-239zM61 871h230q8 -33 34.5 -54.5t59.5 -21.5h8q41 0 68.5 29t27.5 71t-25.5 67t-66.5 25h-8q-47 0 -78 -34h-221l90 481h516v-180h-356l-29 -138q54 48 148 48q97 0 172 -71t75 -188q0 -132 -91 -211t-236 -79q-131 0 -220 70.5
t-98 185.5zM1233 364q-2 207 103.5 332t277.5 123q125 0 202 -68.5t80 -175.5h-213q-6 29 -27.5 46.5t-52.5 17.5h-12q-61 0 -103 -57q-43 -56 -50 -138q62 82 186 82q112 0 186 -72t74 -182q0 -123 -87 -202.5t-224 -79.5q-155 0 -247.5 101.5t-92.5 272.5zM1562 170h9
q41 0 68.5 27t27.5 67q0 39 -27 63.5t-69 24.5h-9q-39 0 -67.5 -26t-28.5 -64q0 -40 27.5 -66t68.5 -26z" />
    <glyph glyph-name="oneeighth" unicode="&#x215b;" horiz-adv-x="1898" 
d="M359 0l860 1434h240l-861 -1434h-239zM1206 211q0 66 38 116t103 70q-153 57 -153 201q0 96 92 158.5t225 62.5q132 0 224 -63t92 -158q0 -144 -156 -201q65 -20 103 -70t38 -116q0 -96 -84.5 -158.5t-216.5 -62.5q-133 0 -219 62.5t-86 158.5zM1505 487h10q41 0 68 21
t27 55t-27 55t-68 21h-10q-40 0 -67 -21t-27 -55t27 -55t67 -21zM1505 170h10q34 0 57 20t23 52t-23 52.5t-57 20.5h-10q-33 0 -57.5 -21.5t-24.5 -51.5t24.5 -51t57.5 -21zM289 625v524l-224 -184v258l256 211h183v-809h-215z" />
    <glyph glyph-name="threeeighths" unicode="&#x215c;" horiz-adv-x="2005" 
d="M467 0l860 1434h240l-861 -1434h-239zM1315 211q0 66 38 116t103 70q-153 57 -153 201q0 96 92 158.5t225 62.5q132 0 224 -63t92 -158q0 -144 -156 -201q65 -20 103 -70t38 -116q0 -96 -84.5 -158.5t-216.5 -62.5q-133 0 -219 62.5t-86 158.5zM1614 487h10q41 0 68 21
t27 55t-27 55t-68 21h-10q-40 0 -67 -21t-27 -55t27 -55t67 -21zM1614 170h10q34 0 57 20t23 52t-23 52.5t-57 20.5h-10q-33 0 -57.5 -21.5t-24.5 -51.5t24.5 -51t57.5 -21zM70 854h221q1 -26 26 -43.5t60 -17.5h10q39 0 64.5 22.5t25.5 57.5q0 33 -24.5 53t-63.5 20h-76
v172h76q37 0 59.5 20t22.5 54q0 33 -21 53.5t-57 20.5h-10q-30 0 -52.5 -17t-25.5 -40h-221q0 108 87 171.5t218 63.5q126 0 214.5 -63t88.5 -168q0 -62 -29 -108.5t-84 -69.5q57 -27 88 -77t31 -114q0 -107 -93 -168t-226 -61q-132 0 -220.5 64.5t-88.5 174.5z" />
    <glyph glyph-name="fiveeighths" unicode="&#x215d;" horiz-adv-x="2005" 
d="M461 0l860 1434h240l-861 -1434h-239zM1309 211q0 66 38 116t103 70q-153 57 -153 201q0 96 92 158.5t225 62.5q132 0 224 -63t92 -158q0 -144 -156 -201q65 -20 103 -70t38 -116q0 -96 -84.5 -158.5t-216.5 -62.5q-133 0 -219 62.5t-86 158.5zM1608 487h10q41 0 68 21
t27 55t-27 55t-68 21h-10q-40 0 -67 -21t-27 -55t27 -55t67 -21zM1608 170h10q34 0 57 20t23 52t-23 52.5t-57 20.5h-10q-33 0 -57.5 -21.5t-24.5 -51.5t24.5 -51t57.5 -21zM61 871h230q8 -33 34.5 -54.5t59.5 -21.5h8q41 0 68.5 29t27.5 71t-25.5 67t-66.5 25h-8
q-47 0 -78 -34h-221l90 481h516v-180h-356l-29 -138q54 48 148 48q97 0 172 -71t75 -188q0 -132 -91 -211t-236 -79q-131 0 -220 70.5t-98 185.5z" />
    <glyph glyph-name="seveneighths" unicode="&#x215e;" horiz-adv-x="1843" 
d="M299 0l860 1434h240l-861 -1434h-239zM1147 211q0 66 38 116t103 70q-153 57 -153 201q0 96 92 158.5t225 62.5q132 0 224 -63t92 -158q0 -144 -156 -201q65 -20 103 -70t38 -116q0 -96 -84.5 -158.5t-216.5 -62.5q-133 0 -219 62.5t-86 158.5zM1446 487h10q41 0 68 21
t27 55t-27 55t-68 21h-10q-40 0 -67 -21t-27 -55t27 -55t67 -21zM1446 170h10q34 0 57 20t23 52t-23 52.5t-57 20.5h-10q-33 0 -57.5 -21.5t-24.5 -51.5t24.5 -51t57.5 -21zM196 625v27q0 168 60 321.5t174 276.5h-369v184h613v-160q-119 -119 -182.5 -278t-63.5 -334v-37
h-232z" />
    <glyph glyph-name="uni215F" unicode="&#x215f;" horiz-adv-x="1430" 
d="M342 0l860 1434h240l-861 -1434h-239zM273 625v524l-224 -184v258l256 211h183v-809h-215z" />
    <glyph glyph-name="uni2160" unicode="&#x2160;" horiz-adv-x="1024" 
d="M98 0v215h281v1004h-281v215h828v-215h-281v-1004h281v-215h-828z" />
    <glyph glyph-name="uni2161" unicode="&#x2161;" horiz-adv-x="1608" 
d="M98 0v215h281v1004h-281v215h1411v-215h-280v-1004h280v-215h-1411zM645 215h318v1004h-318v-1004z" />
    <glyph glyph-name="uni2162" unicode="&#x2162;" horiz-adv-x="2191" 
d="M98 0v215h281v1004h-281v215h1995v-215h-281v-1004h281v-215h-1995zM645 215h318v1004h-318v-1004zM1229 215h317v1004h-317v-1004z" />
    <glyph glyph-name="uni2163" unicode="&#x2163;" horiz-adv-x="2216" 
d="M100 0v215h281v1004h-281v215h1182v-215h-195l293 -994l316 994h-201v215h655v-215h-194l-326 -1004h254v-215h-1784zM647 215h477l-303 1004h-174v-1004z" />
    <glyph glyph-name="uni2164" unicode="&#x2164;" horiz-adv-x="1657" 
d="M1591 1219h-196l-323 -1004h253v-215h-1014v215h255l-305 1004h-195v215h657v-215h-195l293 -992l316 992h-201v215h655v-215z" />
    <glyph glyph-name="uni2165" unicode="&#x2165;" horiz-adv-x="2212" 
d="M309 0v215h254l-303 1004h-197v215h658v-215h-195l293 -994l316 994h-201v215h1177v-215h-280v-1004h280v-215h-1802zM1069 215h496v1004h-170z" />
    <glyph glyph-name="uni2166" unicode="&#x2166;" horiz-adv-x="2796" 
d="M309 0v215h254l-303 1004h-197v215h658v-215h-195l293 -994l316 994h-201v215h1761v-215h-280v-1004h280v-215h-2386zM1069 215h496v1004h-170zM1831 215h317v1004h-317v-1004z" />
    <glyph glyph-name="uni2167" unicode="&#x2167;" horiz-adv-x="3379" 
d="M309 0v215h254l-303 1004h-197v215h658v-215h-195l293 -994l316 994h-201v215h2345v-215h-281v-1004h281v-215h-2970zM1069 215h496v1004h-170zM1831 215h317v1004h-317v-1004zM2415 215h317v1004h-317v-1004z" />
    <glyph glyph-name="uni2168" unicode="&#x2168;" horiz-adv-x="2114" 
d="M1835 215h188v-215h-1925v215h281v1004h-281v215h1905v-215h-184l-375 -492zM645 215h123l387 506l-381 498h-129v-1004zM1536 1219h-469l236 -308zM1051 215h491l-246 322z" />
    <glyph glyph-name="uni2169" unicode="&#x2169;" horiz-adv-x="1634" 
d="M90 0v215h199l387 506l-381 498h-184v215h1413v-215h-185l-374 -492l391 -512h188v-215h-1454zM823 911l234 308h-469zM571 215h492l-246 322z" />
    <glyph glyph-name="uni216C" unicode="&#x216c;" horiz-adv-x="1430" 
d="M98 0v215h281v1004h-281v215h828v-215h-281v-1004h440v338h267v-553h-1254z" />
    <glyph glyph-name="uni216D" unicode="&#x216d;" horiz-adv-x="1542" 
d="M100 717q0 225 88 391q88 168 241 257q152 89 339 89q115 0 216 -37t171 -110v127h256v-471h-244q-21 85 -80 150t-131 96t-143 30h-20q-196 0 -311 -138.5t-115 -375.5q0 -251 111.5 -390.5t309.5 -139.5h21q111 0 206 71q96 73 142 205h244v-471h-256v139
q-73 -78 -179.5 -118.5t-228.5 -40.5q-183 -2 -328.5 87.5t-228 259t-80.5 390.5z" />
    <glyph glyph-name="uni216E" unicode="&#x216e;" horiz-adv-x="1642" 
d="M98 0v215h281v1004h-281v215h746q203 2 362 -84t248.5 -249.5t87.5 -377.5q1 -165 -50 -302t-143.5 -229.5t-222 -142.5t-282.5 -49h-746zM645 215h178q227 0 340 124.5t113 385.5q0 251 -114 372.5t-339 121.5h-178v-1004z" />
    <glyph glyph-name="uni216F" unicode="&#x216f;" horiz-adv-x="2275" 
d="M98 0v215h281v1004h-281v215h711l338 -1084l334 1084h696v-215h-281v-1004h281v-215h-680v215h137v909l-362 -1124h-271l-360 1143v-928h137v-215h-680z" />
    <glyph glyph-name="arrowleft" unicode="&#x2190;" horiz-adv-x="1649" 
d="M1571 581h-1026l328 -319l-179 -180l-636 637l636 632l179 -180l-328 -319h1026v-271z" />
    <glyph glyph-name="arrowup" unicode="&#x2191;" horiz-adv-x="1405" 
d="M567 0v1026l-319 -328l-180 179l637 636l632 -636l-180 -179l-319 328v-1026h-271z" />
    <glyph glyph-name="arrowright" unicode="&#x2192;" horiz-adv-x="1649" 
d="M74 852h1026l-328 319l179 180l636 -637l-636 -632l-179 180l328 319h-1026v271z" />
    <glyph glyph-name="arrowdown" unicode="&#x2193;" horiz-adv-x="1405" 
d="M838 1434v-1026l319 328l180 -179l-637 -636l-632 636l180 179l319 -328v1026h271z" />
    <glyph glyph-name="uni2196" unicode="&#x2196;" horiz-adv-x="1360" 
d="M1106 266l-726 725l7 -457l-254 -1l1 900l896 -3v-254l-458 7l725 -726z" />
    <glyph glyph-name="uni2197" unicode="&#x2197;" horiz-adv-x="1364" 
d="M63 459l725 726l-457 -7l-1 254l900 -1l-3 -896h-254l7 458l-726 -725z" />
    <glyph glyph-name="uni2198" unicode="&#x2198;" horiz-adv-x="1360" 
d="M254 1166l726 -725l-7 457l254 1l-1 -900l-896 3v254l458 -7l-725 726z" />
    <glyph glyph-name="uni2199" unicode="&#x2199;" horiz-adv-x="1364" 
d="M1301 974l-725 -726l457 7l1 -254l-900 1l3 896h254l-7 -458l726 725z" />
    <glyph glyph-name="uni21A4" unicode="&#x21a4;" horiz-adv-x="1751" 
d="M1307 1231h270v-1028h-270v379h-756l328 -320l-179 -180l-637 633l637 637l179 -181l-328 -319h756v379z" />
    <glyph glyph-name="uni21A5" unicode="&#x21a5;" horiz-adv-x="1446" 
d="M858 1026v-756h379v-270h-1028v270h379v756l-320 -328l-180 179l633 637l637 -637l-181 -179z" />
    <glyph glyph-name="uni21A6" unicode="&#x21a6;" horiz-adv-x="1751" 
d="M1051 1352l637 -633l-637 -637l-179 181l328 319h-756v-379h-270v1028h270v-379h756l-328 320z" />
    <glyph glyph-name="uni21A7" unicode="&#x21a7;" horiz-adv-x="1446" 
d="M1178 736l180 -179l-633 -637l-637 637l181 179l319 -328v756h-379v270h1028v-270h-379v-756z" />
    <glyph glyph-name="uni21B0" unicode="&#x21b0;" horiz-adv-x="1700" 
d="M512 852h1026v-852h-270v582h-756l328 -320l-178 -180l-637 637l637 633l178 -181z" />
    <glyph glyph-name="uni21B1" unicode="&#x21b1;" horiz-adv-x="1700" 
d="M1038 1352l637 -633l-637 -637l-178 180l328 320h-756v-582h-270v852h1026l-328 319z" />
    <glyph glyph-name="uni21B2" unicode="&#x21b2;" horiz-adv-x="1700" 
d="M1268 1434h270v-852h-1026l328 -319l-178 -181l-637 633l637 637l178 -180l-328 -320h756v582z" />
    <glyph glyph-name="uni21B3" unicode="&#x21b3;" horiz-adv-x="1700" 
d="M1038 1352l637 -637l-637 -633l-178 181l328 319h-1026v852h270v-582h756l-328 320z" />
    <glyph glyph-name="partialdiff" unicode="&#x2202;" horiz-adv-x="1192" 
d="M1092 618q1 -299 -139 -469.5t-369 -168.5q-227 -2 -367.5 141t-138.5 373q-2 103 36.5 197.5t102.5 160.5t148.5 104.5t173.5 36.5q169 0 261 -103q-12 84 -46.5 149t-84.5 103.5t-107 57.5t-120 19q-55 0 -126 -11q-66 -10 -105 -24v235q37 13 105 24q72 11 143 11
q124 1 227.5 -39.5t178 -115t126.5 -179t77 -231.5t24 -271zM823 492q0 121 -66 194.5t-167 73.5h-21q-94 0 -156.5 -71.5t-62.5 -194.5q0 -126 66 -198.5t164 -72.5h10q102 0 167.5 69t65.5 200z" />
    <glyph glyph-name="Delta" unicode="&#x2206;" horiz-adv-x="1481" 
d="M893 1434l522 -1250v-184h-1349v184l522 1250h305zM740 1149l-379 -903h758z" />
    <glyph glyph-name="product" unicode="&#x220f;" horiz-adv-x="1491" 
d="M262 0v1198h-190v236h1343v-236h-186v-1198h-271v1198h-426v-1198h-270z" />
    <glyph glyph-name="summation" unicode="&#x2211;" horiz-adv-x="1153" 
d="M1051 1434v-232h-627l369 -485l-377 -486h635v-231h-953v205l385 512l-385 522v195h953z" />
    <glyph glyph-name="minus" unicode="&#x2212;" horiz-adv-x="1286" 
d="M137 410v235h1012v-235h-1012z" />
    <glyph glyph-name="uni2215" unicode="&#x2215;" horiz-adv-x="838" 
d="M2 0l553 1434h277l-543 -1434h-287z" />
    <glyph glyph-name="uni2219" unicode="&#x2219;" horiz-adv-x="1020" 
d="M90 717q-2 111 55.5 209t155.5 155.5t209 55.5q111 2 209 -55.5t155.5 -155.5t55.5 -209q2 -111 -55.5 -209t-155.5 -155.5t-209 -55.5q-111 -2 -209 55.5t-155.5 155.5t-55.5 209z" />
    <glyph glyph-name="radical" unicode="&#x221a;" horiz-adv-x="1409" 
d="M1376 1434v-236h-413l-242 -1198h-350l-328 1024h270l221 -748l214 1158h628z" />
    <glyph glyph-name="infinity" unicode="&#x221e;" horiz-adv-x="1784" 
d="M98 737q-3 165 112.5 278.5t283.5 110.5q137 -1 224.5 -48.5t176.5 -157.5q80 107 169 156q92 50 226 50q168 3 283.5 -110.5t112.5 -278.5q3 -165 -112.5 -278t-283.5 -111q-136 0 -224 46.5t-171 154.5q-89 -108 -176.5 -154t-224.5 -47q-168 -2 -283.5 111t-112.5 278
zM502 563h10q118 0 227 172q-111 176 -227 176h-10q-62 0 -105 -47.5t-43 -126.5t43 -126.5t105 -47.5zM1262 563h10q64 0 111 48t47 126t-47 126t-111 48h-10q-59 0 -111 -41t-107 -129q61 -97 110 -138q47 -40 108 -40z" />
    <glyph glyph-name="integral" unicode="&#x222b;" horiz-adv-x="893" 
d="M37 -205v236h108q92 0 128 36t36 128v870q0 194 97 281.5t303 87.5h147v-236h-111q-92 0 -127.5 -36t-35.5 -128v-870q0 -194 -97 -281.5t-303 -87.5h-145z" />
    <glyph glyph-name="approxequal" unicode="&#x2248;" horiz-adv-x="1286" 
d="M630 629q-111 39 -143 39q-81 0 -81 -78h-267v82q-2 104 82.5 179t198.5 73q59 0 115.5 -14.5t139.5 -47.5q96 -37 128 -37q39 0 60.5 20t21.5 58h266v-82q2 -105 -80.5 -179.5t-196.5 -72.5q-80 0 -244 60zM630 182q-111 39 -143 39q-81 0 -81 -78h-267v82
q-2 105 82.5 179.5t198.5 72.5q65 0 119 -16q55 -15 136 -45q96 -37 128 -37q39 0 60.5 20t21.5 58h266v-82q0 -107 -81 -179.5t-196 -72.5q-85 0 -244 59z" />
    <glyph glyph-name="notequal" unicode="&#x2260;" horiz-adv-x="1286" 
d="M1149 614h-363l-54 -174h417v-235h-489l-54 -174h-252l54 174h-271v235h344l54 174h-398v236h471l54 174h251l-54 -174h290v-236z" />
    <glyph glyph-name="lessequal" unicode="&#x2264;" horiz-adv-x="1266" 
d="M1133 1075v-256l-670 -145l670 -146v-260l-1012 240v328zM121 0v231h1012v-231h-1012z" />
    <glyph glyph-name="greaterequal" unicode="&#x2265;" horiz-adv-x="1264" 
d="M131 1075l1012 -239v-328l-1012 -240v256l670 146l-670 145v260zM131 0v231h1012v-231h-1012z" />
    <glyph glyph-name="angleleft" unicode="&#x2329;" horiz-adv-x="846" 
d="M512 -174l-467 891l467 891h276l-460 -887l460 -895h-276z" />
    <glyph glyph-name="angleright" unicode="&#x232a;" horiz-adv-x="846" 
d="M334 1608l467 -891l-467 -891h-276l460 887l-460 895h276z" />
    <glyph glyph-name="uni2460" unicode="&#x2460;" horiz-adv-x="1802" 
d="M102 719q0 216 108 399q108 184 292 292t399 108t400 -108q185 -106 291 -291q108 -185 108 -400t-108 -399t-292 -292q-183 -108 -399 -108q-215 0 -399 108t-292 292t-108 399zM1511 719q0 166 -83 309t-222 227q-140 84 -305 84t-305 -84q-141 -85 -223 -227t-82 -309
q0 -168 82 -310t223 -227q140 -84 305 -84t305 84q139 84 222 227t83 310zM824 320v524l-224 -184v258l256 211h183v-809h-215z" />
    <glyph glyph-name="uni2461" unicode="&#x2461;" horiz-adv-x="1802" 
d="M102 719q0 216 108 399q108 184 292 292t399 108t400 -108q185 -106 291 -291q108 -185 108 -400t-108 -399t-292 -292q-183 -108 -399 -108q-215 0 -399 108t-292 292t-108 399zM1511 719q0 166 -83 309t-222 227q-140 84 -305 84t-305 -84q-141 -85 -223 -227t-82 -309
q0 -168 82 -310t223 -227q140 -84 305 -84t305 84q139 84 222 227t83 310zM592 320v172l305 276q42 37 60 62.5t18 54.5q0 31 -21.5 52.5t-54.5 21.5h-8q-33 0 -57.5 -26t-26.5 -62h-219q7 120 96.5 194t222.5 74q125 2 208 -72.5t81 -166.5q0 -64 -28 -112t-91 -106
l-194 -178h315v-184h-606z" />
    <glyph glyph-name="uni2462" unicode="&#x2462;" horiz-adv-x="1802" 
d="M102 719q0 216 108 399q108 184 292 292t399 108t400 -108q185 -106 291 -291q108 -185 108 -400t-108 -399t-292 -292q-183 -108 -399 -108q-215 0 -399 108t-292 292t-108 399zM1511 719q0 166 -83 309t-222 227q-140 84 -305 84t-305 -84q-141 -85 -223 -227t-82 -309
q0 -168 82 -310t223 -227q140 -84 305 -84t305 84q139 84 222 227t83 310zM578 549h221q1 -26 26 -43.5t60 -17.5h10q39 0 64.5 22.5t25.5 57.5q0 33 -24.5 53t-63.5 20h-76v172h76q37 0 59.5 20t22.5 54q0 33 -21 53.5t-57 20.5h-10q-30 0 -52.5 -17t-25.5 -40h-221
q0 108 87 171.5t218 63.5q126 0 214.5 -63t88.5 -168q0 -62 -29 -108.5t-84 -69.5q57 -27 88 -77t31 -114q0 -107 -93 -168t-226 -61q-132 0 -220.5 64.5t-88.5 174.5z" />
    <glyph glyph-name="uni2463" unicode="&#x2463;" horiz-adv-x="1802" 
d="M102 719q0 216 108 399q108 184 292 292t399 108t400 -108q185 -106 291 -291q108 -185 108 -400t-108 -399t-292 -292q-183 -108 -399 -108q-215 0 -399 108t-292 292t-108 399zM1511 719q0 166 -83 309t-222 227q-140 84 -305 84t-305 -84q-141 -85 -223 -227t-82 -309
q0 -168 82 -310t223 -227q140 -84 305 -84t305 84q139 84 222 227t83 310zM899 320v127h-402v223l357 459h243v-510h109v-172h-109v-127h-198zM684 619h215v281z" />
    <glyph glyph-name="uni2464" unicode="&#x2464;" horiz-adv-x="1802" 
d="M102 719q0 216 108 399q108 184 292 292t399 108t400 -108q185 -106 291 -291q108 -185 108 -400t-108 -399t-292 -292q-183 -108 -399 -108q-215 0 -399 108t-292 292t-108 399zM1511 719q0 166 -83 309t-222 227q-140 84 -305 84t-305 -84q-141 -85 -223 -227t-82 -309
q0 -168 82 -310t223 -227q140 -84 305 -84t305 84q139 84 222 227t83 310zM555 566h230q8 -33 34.5 -54.5t59.5 -21.5h8q41 0 68.5 29t27.5 71t-25.5 67t-66.5 25h-8q-47 0 -78 -34h-221l90 481h516v-180h-356l-29 -138q54 48 148 48q97 0 172 -71t75 -188q0 -132 -91 -211
t-236 -79q-131 0 -220 70.5t-98 185.5z" />
    <glyph glyph-name="uni2465" unicode="&#x2465;" horiz-adv-x="1802" 
d="M102 719q0 216 108 399q108 184 292 292t399 108t400 -108q185 -106 291 -291q108 -185 108 -400t-108 -399t-292 -292q-183 -108 -399 -108q-215 0 -399 108t-292 292t-108 399zM1511 719q0 166 -83 309t-222 227q-140 84 -305 84t-305 -84q-141 -85 -223 -227t-82 -309
q0 -168 82 -310t223 -227q140 -84 305 -84t305 84q139 84 222 227t83 310zM543 684q-2 207 103.5 332t277.5 123q125 0 202 -68.5t80 -175.5h-213q-6 29 -27.5 46.5t-52.5 17.5h-12q-61 0 -103 -57q-43 -56 -50 -138q62 82 186 82q112 0 186 -72t74 -182q0 -123 -87 -202.5
t-224 -79.5q-155 0 -247.5 101.5t-92.5 272.5zM872 490h9q41 0 68.5 27t27.5 67q0 39 -27 63.5t-69 24.5h-9q-39 0 -67.5 -26t-28.5 -64q0 -40 27.5 -66t68.5 -26z" />
    <glyph glyph-name="uni2466" unicode="&#x2466;" horiz-adv-x="1802" 
d="M102 719q0 216 108 399q108 184 292 292t399 108t400 -108q185 -106 291 -291q108 -185 108 -400t-108 -399t-292 -292q-183 -108 -399 -108q-215 0 -399 108t-292 292t-108 399zM1511 719q0 166 -83 309t-222 227q-140 84 -305 84t-305 -84q-141 -85 -223 -227t-82 -309
q0 -168 82 -310t223 -227q140 -84 305 -84t305 84q139 84 222 227t83 310zM725 320v27q0 168 60 321.5t174 276.5h-369v184h613v-160q-119 -119 -182.5 -278t-63.5 -334v-37h-232z" />
    <glyph glyph-name="uni2467" unicode="&#x2467;" horiz-adv-x="1802" 
d="M102 719q0 216 108 399q108 184 292 292t399 108t400 -108q185 -106 291 -291q108 -185 108 -400t-108 -399t-292 -292q-183 -108 -399 -108q-215 0 -399 108t-292 292t-108 399zM1511 719q0 166 -83 309t-222 227q-140 84 -305 84t-305 -84q-141 -85 -223 -227t-82 -309
q0 -168 82 -310t223 -227q140 -84 305 -84t305 84q139 84 222 227t83 310zM596 531q0 66 38 116t103 70q-153 57 -153 201q0 96 92 158.5t225 62.5q132 0 224 -63t92 -158q0 -144 -156 -201q65 -20 103 -70t38 -116q0 -96 -84.5 -158.5t-216.5 -62.5q-133 0 -219 62.5
t-86 158.5zM895 807h10q41 0 68 21t27 55t-27 55t-68 21h-10q-40 0 -67 -21t-27 -55t27 -55t67 -21zM895 490h10q34 0 57 20t23 52t-23 52.5t-57 20.5h-10q-33 0 -57.5 -21.5t-24.5 -51.5t24.5 -51t57.5 -21z" />
    <glyph glyph-name="uni2468" unicode="&#x2468;" horiz-adv-x="1802" 
d="M102 719q0 216 108 399q108 184 292 292t399 108t400 -108q185 -106 291 -291q108 -185 108 -400t-108 -399t-292 -292q-183 -108 -399 -108q-215 0 -399 108t-292 292t-108 399zM1511 719q0 166 -83 309t-222 227q-140 84 -305 84t-305 -84q-141 -85 -223 -227t-82 -309
q0 -168 82 -310t223 -227q140 -84 305 -84t305 84q139 84 222 227t83 310zM586 553h213q6 -29 27 -46t53 -17h12q61 0 103 56q43 58 50 138q-64 -81 -186 -81q-112 0 -186 71.5t-74 181.5q0 123 87 203t224 80q155 0 247.5 -102t92.5 -273q2 -206 -104 -331t-277 -123
q-125 0 -202 68t-80 175zM911 777h9q39 0 67.5 26t28.5 64q0 40 -27.5 66t-68.5 26h-9q-41 0 -68.5 -27t-27.5 -67q0 -39 27 -63.5t69 -24.5z" />
    <glyph glyph-name="uni24EA" unicode="&#x24ea;" horiz-adv-x="1802" 
d="M102 719q0 216 108 399q108 184 292 292t399 108t400 -108q185 -106 291 -291q108 -185 108 -400t-108 -399t-292 -292q-183 -108 -399 -108q-215 0 -399 108t-292 292t-108 399zM1511 719q0 166 -83 309t-222 227q-140 84 -305 84t-305 -84q-141 -85 -223 -227t-82 -309
q0 -168 82 -310t223 -227q140 -84 305 -84t305 84q139 84 222 227t83 310zM545 721q0 83 22 157t64.5 133t112 93t157.5 33q88 1 157.5 -33t112 -93t64.5 -133t22 -157t-22 -156.5t-64.5 -132t-112 -92t-157.5 -32.5q-88 -1 -157.5 32.5t-112 92t-64.5 132t-22 156.5z
M897 496h8q64 0 97.5 58.5t33.5 166.5q0 109 -34 168.5t-97 59.5h-8q-63 0 -97 -59.5t-34 -168.5q0 -108 33.5 -166.5t97.5 -58.5z" />
    <glyph glyph-name="uni24FF" unicode="&#x24ff;" horiz-adv-x="1802" 
d="M102 717q0 216 108 399q108 184 292 292t399 108t400 -108q185 -106 291 -291q108 -184 108 -400q0 -215 -108 -399t-292 -292q-183 -108 -399 -108q-215 0 -399 108t-292 292t-108 399zM1257 719q0 83 -22 157t-64.5 133t-112 93t-157.5 33q-88 1 -157.5 -33t-112 -93
t-64.5 -133t-22 -157t22 -156.5t64.5 -132t112 -92.5t157.5 -33q88 -1 157.5 33t112 92.5t64.5 132t22 156.5zM766 719q0 109 34 168t97 59h8q63 0 97 -59t34 -168t-33.5 -167t-97.5 -58h-8q-64 0 -97.5 58t-33.5 167z" />
    <glyph glyph-name="triagup" unicode="&#x25b2;" horiz-adv-x="1720" 
d="M31 0l829 1475l830 -1475h-1659z" />
    <glyph glyph-name="lozenge" unicode="&#x25ca;" horiz-adv-x="1268" 
d="M512 0l-481 717l481 717h254l471 -717l-471 -717h-254zM639 248l311 461l-317 479l-311 -469z" />
    <glyph glyph-name="uni2776" unicode="&#x2776;" horiz-adv-x="1802" 
d="M102 717q0 216 108 399q108 184 292 292t399 108t400 -108q185 -106 291 -291q108 -184 108 -400q0 -215 -108 -399t-292 -292q-183 -108 -399 -108q-215 0 -399 108t-292 292t-108 399zM823 317h215v809h-182l-256 -211v-258l223 185v-525z" />
    <glyph glyph-name="uni2777" unicode="&#x2777;" horiz-adv-x="1802" 
d="M102 717q0 216 108 399q108 184 292 292t399 108t400 -108q185 -106 291 -291q108 -184 108 -400q0 -215 -108 -399t-292 -292q-183 -108 -399 -108q-215 0 -399 108t-292 292t-108 399zM592 317h606v185h-315l194 178q57 53 88 102q31 47 31 115q2 92 -81 167t-208 73
q-133 0 -222.5 -74.5t-96.5 -194.5h219q2 36 26.5 62t57.5 26h8q33 0 54.5 -21t21.5 -52q0 -29 -18 -54.5t-60 -62.5l-305 -277v-172z" />
    <glyph glyph-name="uni2778" unicode="&#x2778;" horiz-adv-x="1802" 
d="M102 717q0 216 108 399q108 184 292 292t399 108t400 -108q185 -106 291 -291q108 -184 108 -400q0 -215 -108 -399t-292 -292q-183 -108 -399 -108q-215 0 -399 108t-292 292t-108 399zM1206 537q0 63 -31 113t-88 77q55 24 84 70t29 108q0 105 -88.5 168.5t-214.5 63.5
q-131 0 -218 -63.5t-87 -172.5h221q3 24 25.5 40.5t52.5 16.5h10q36 0 57 -20t21 -53q0 -34 -22.5 -54t-59.5 -20h-76v-172h76q39 0 63.5 -20.5t24.5 -53.5q0 -35 -25.5 -57.5t-64.5 -22.5h-10q-34 0 -59.5 18t-26.5 44h-221q0 -111 88.5 -175.5t220.5 -64.5
q132 -1 226.5 61t92.5 169z" />
    <glyph glyph-name="uni2779" unicode="&#x2779;" horiz-adv-x="1802" 
d="M102 717q0 216 108 399q108 184 292 292t399 108t400 -108q185 -106 291 -291q108 -184 108 -400q0 -215 -108 -399t-292 -292q-183 -108 -399 -108q-215 0 -399 108t-292 292t-108 399zM899 317h199v127h108v172h-108v510h-244l-356 -458v-224h401v-127zM684 616
l215 281v-281h-215z" />
    <glyph glyph-name="uni277A" unicode="&#x277a;" horiz-adv-x="1802" 
d="M102 717q0 216 108 399q108 184 292 292t399 108t400 -108q185 -106 291 -291q108 -184 108 -400q0 -215 -108 -399t-292 -292q-183 -108 -399 -108q-215 0 -399 108t-292 292t-108 399zM1200 598q0 118 -75 188t-173 70q-94 0 -147 -47l29 137h356v180h-516l-90 -481
h221q26 35 78 35h8q41 0 66.5 -25.5t25.5 -66.5q0 -42 -28 -71q-29 -30 -68 -30h-8q-34 0 -60 21.5t-35 54.5h-229q9 -114 97.5 -185t219.5 -71q146 0 237 79.5t91 211.5z" />
    <glyph glyph-name="uni277B" unicode="&#x277b;" horiz-adv-x="1802" 
d="M102 717q0 216 108 399q108 184 292 292t399 108t400 -108q185 -106 291 -291q108 -184 108 -400q0 -215 -108 -399t-292 -292q-183 -108 -399 -108q-215 0 -399 108t-292 292t-108 399zM1194 590q0 110 -74.5 182t-185.5 72q-121 0 -186 -82q7 81 50 137q42 57 103 57
h12q32 0 53 -17.5t27 -45.5h213q-3 107 -80 175.5t-202 68.5q-172 2 -277.5 -123t-103.5 -332q0 -171 92.5 -273t247.5 -102q137 0 224 80t87 203zM776 580q0 38 28.5 64t67.5 26h9q42 0 69 -24.5t27 -63.5q0 -41 -27.5 -68t-68.5 -27h-9q-41 0 -68.5 26.5t-27.5 66.5z" />
    <glyph glyph-name="uni277C" unicode="&#x277c;" horiz-adv-x="1802" 
d="M102 717q0 216 108 399q108 184 292 292t399 108t400 -108q185 -106 291 -291q108 -184 108 -400q0 -215 -108 -399t-292 -292q-183 -108 -399 -108q-215 0 -399 108t-292 292t-108 399zM725 317h231v37q0 176 63.5 335t182.5 278v159h-612v-184h368q-113 -123 -173 -277
t-60 -321v-27z" />
    <glyph glyph-name="uni277D" unicode="&#x277d;" horiz-adv-x="1802" 
d="M102 717q0 216 108 399q108 184 292 292t399 108t400 -108q185 -106 291 -291q108 -184 108 -400q0 -215 -108 -399t-292 -292q-183 -108 -399 -108q-215 0 -399 108t-292 292t-108 399zM1202 528q0 66 -38 116.5t-103 70.5q156 57 156 200q2 95 -91.5 159.5t-224.5 62.5
q-131 2 -225 -62.5t-92 -159.5q0 -143 153 -200q-65 -20 -103 -70.5t-38 -116.5q0 -96 86 -158.5t219 -62.5q132 0 216.5 62.5t84.5 158.5zM801 881q0 34 27 54.5t67 20.5h10q40 0 67 -20.5t27 -54.5q0 -35 -27 -55.5t-67 -20.5h-10q-40 0 -67 20.5t-27 55.5zM813 559
q0 32 24 53t58 21h10q33 0 56.5 -21t23.5 -53t-23 -52t-57 -20h-10q-33 0 -57.5 21t-24.5 51z" />
    <glyph glyph-name="uni277E" unicode="&#x277e;" horiz-adv-x="1802" 
d="M102 717q0 216 108 399q108 184 292 292t399 108t400 -108q185 -106 291 -291q108 -184 108 -400q0 -215 -108 -399t-292 -292q-183 -108 -399 -108q-215 0 -399 108t-292 292t-108 399zM1249 762q0 170 -93 272.5t-247 102.5q-137 0 -224 -80t-87 -203q0 -110 74.5 -182
t185.5 -72q121 0 186 82q-7 -80 -50 -138q-42 -57 -103 -57h-12q-31 0 -52.5 17.5t-27.5 46.5h-213q3 -107 80 -175.5t202 -68.5q171 -2 277 123t104 332zM815 862q0 40 27.5 67t68.5 27h9q41 0 68.5 -26t27.5 -66q0 -38 -28.5 -64t-67.5 -26h-9q-42 0 -69 24.5t-27 63.5z
" />
    <glyph glyph-name="uni300A" unicode="&#x300a;" horiz-adv-x="1319" 
d="M512 -174l-467 891l467 891h276l-460 -887l460 -895h-276zM985 -174l-467 891l467 891h277l-461 -887l461 -895h-277z" />
    <glyph glyph-name="uni300B" unicode="&#x300b;" horiz-adv-x="1319" 
d="M334 1608l467 -891l-467 -891h-277l461 887l-461 895h277zM807 1608l467 -891l-467 -891h-276l460 887l-460 895h276z" />
    <glyph glyph-name="uni300C" unicode="&#x300c;" horiz-adv-x="717" 
d="M133 795v936h543v-215h-285v-721h-258z" />
    <glyph glyph-name="uni300D" unicode="&#x300d;" horiz-adv-x="717" 
d="M584 639v-936h-543v215h285v721h258z" />
    <glyph glyph-name="uni300E" unicode="&#x300e;" horiz-adv-x="963" 
d="M139 608v1123h758v-412h-281v-711h-477zM313 758h129v710h281v113h-410v-823z" />
    <glyph glyph-name="uni300F" unicode="&#x300f;" horiz-adv-x="971" 
d="M824 826v-1123h-758v412h281v711h477zM650 676h-129v-710h-281v-113h410v823z" />
    </font>
</defs>
</svg>
