<svg width="95" height="12" viewBox="0 0 95 12" fill="none" xmlns="http://www.w3.org/2000/svg">
<g clip-path="url(#clip0_1_262)">
<path d="M0 11.9999H2.07122V3.50188L5.75339 9.105H5.79942L9.52762 3.50188V12.0466H11.5988V0.0933235H9.38953L5.79942 5.74313L2.2093 0.0933235H0V11.9999ZM14.5906 11.9999H23.3818V10.0855H16.6158V6.91044H22.5073V4.99605H16.6158V1.96103H23.2897V0.0933235H14.5906V11.9999ZM27.8924 5.97659V1.96103H30.9302C31.7127 1.96103 32.311 2.1478 32.7253 2.47465C33.1395 2.80149 33.3697 3.31511 33.3697 3.96881V4.0155C33.3697 4.62251 33.1395 5.13612 32.7253 5.46297C32.265 5.83651 31.7127 6.02328 30.9763 6.02328H27.8924V5.97659ZM25.8212 11.9999H27.8924V7.8443H30.47H30.516L33.4157 11.9999H35.8551L32.6793 7.47076C33.0935 7.37737 33.4617 7.1906 33.8299 7.00383C34.1521 6.77037 34.4743 6.5369 34.7045 6.25675C34.9346 5.97659 35.1647 5.60305 35.3028 5.22951C35.4409 4.85597 35.5329 4.38904 35.5329 3.92212V3.82873C35.5329 3.31511 35.4409 2.84819 35.3028 2.38126C35.1187 1.96103 34.8886 1.58749 34.5664 1.26064C34.1982 0.887098 33.6919 0.606942 33.1395 0.373479C32.5872 0.186709 31.8968 0.0466309 31.1604 0.0466309H25.8212V11.9999Z" fill="black"/>
<path d="M37.9724 12.0004H40.0436V8.54511L41.8847 6.63071L45.8891 12.0004H48.3745L43.2655 5.22994L48.1444 0.09375H45.6129L40.0436 6.0704V0.09375H37.9724V12.0004Z" fill="black"/>
<path d="M53.0232 7.28405L55.0484 2.5214L57.0736 7.28405H53.0232ZM48.9268 12H51.0441L52.2408 9.10506H57.8101L59.0068 12H61.17L56.015 0H54.0819L48.9268 12Z" fill="black"/>
<path d="M65.2665 5.97659V1.96103H68.3043C69.0867 1.96103 69.6851 2.1478 70.0993 2.47465C70.5136 2.80149 70.7437 3.31511 70.7437 3.96881V4.0155C70.7437 4.62251 70.5136 5.13612 70.0993 5.46297C69.639 5.83651 69.0867 6.02328 68.3503 6.02328H65.2665V5.97659ZM63.2413 11.9999H65.3125V7.8443H67.89H67.936L70.8357 11.9999H73.2752L70.0993 7.47076C70.5136 7.37737 70.8818 7.1906 71.25 7.00383C71.5722 6.77037 71.8944 6.5369 72.1245 6.25675C72.3546 5.97659 72.5848 5.60305 72.7229 5.22951C72.8609 4.85597 72.953 4.38904 72.953 3.92212V3.82873C72.953 3.31511 72.8609 2.84819 72.7229 2.38126C72.5388 1.96103 72.3086 1.58749 71.9864 1.26064C71.6182 0.887098 71.1119 0.606942 70.5596 0.373479C70.0073 0.186709 69.3169 0.0466309 68.5804 0.0466309H63.3333V11.9999H63.2413Z" fill="black"/>
<path d="M78.2001 12.0004H80.2713V2.00815H83.9995V0.09375H74.4719V2.05484H78.2001V12.0004ZM86.2088 12.0004H95V10.086H88.2801V6.91087H94.1715V4.99647H88.2801V1.96145H94.954V0.09375H86.2549V12.0004H86.2088Z" fill="black"/>
</g>
<defs>
<clipPath id="clip0_1_262">
<rect width="95" height="12" fill="white"/>
</clipPath>
</defs>
</svg>
